<?xml version="1.0" encoding="utf-8"?>
<!-- Generator: Adobe Illustrator 21.0.0, SVG Export Plug-In . SVG Version: 6.00 Build 0)  -->
<svg version="1.1" id="Calque_1" xmlns="http://www.w3.org/2000/svg" xmlns:xlink="http://www.w3.org/1999/xlink" x="0px" y="0px"
	 viewBox="0 0 376.7 782.3" style="enable-background:new 0 0 376.7 782.3;" xml:space="preserve">
<style type="text/css">
	.st0{fill:#00B0E5;stroke:#000000;stroke-width:0.8;}
	.st1{fill:none;stroke:#000000;stroke-width:0.8;}
	.st2{fill:#FFD400;stroke:#1A171B;stroke-width:0.8;}
	.st3{fill:none;stroke:#1A171B;stroke-width:0.8;}
	.st4{fill:#FFFFFF;stroke:#1A171B;stroke-width:0.8;}
	.st5{fill:#E2E3E4;stroke:#1A171B;stroke-width:0.8;}
	.st6{fill:#9B9C9E;}
	.st7{fill:#E2E3E4;}
	.st8{fill:#FFFFFF;}
	.st9{fill:none;stroke:#1A171B;stroke-width:0.8;stroke-miterlimit:10;}
	.st10{fill:#00B0E5;stroke:#1A171B;stroke-width:0.8;stroke-linecap:round;}
	.st11{fill:none;stroke:#1A171B;stroke-width:0.8;stroke-linecap:round;}
	.st12{fill:#9B9C9E;stroke:#1A171B;stroke-width:0.8;stroke-linecap:round;}
</style>
<g>
	<path class="st0" d="M258.1,155.8c-0.3,10.3,3.1,21.8,6.1,32.3c4.1,14.5,7.7,27.1,2.4,34.4c-2.7,3.7-7.3,5.7-14.3,6
		c-1.6,0.1-3.2,0.1-4.9,0.1c-11.5,0-23.1-1.9-33.9-5c0,0,0-0.8,0-1.2s0-0.7,0-0.7c12.2,3.5,25.6,5.6,38.7,5c6.4-0.3,10.6-2,12.9-5.3
		c4.8-6.6,1.1-19.4-2.7-32.9c-2.9-10.3-6.2-21.5-6.2-31.8c0,0,0.5-0.4,0.8-0.6C257.4,156.2,258.1,155.8,258.1,155.8z"/>
	<path class="st0" d="M190.7,215c-11.1-5.4-20-11.5-24.8-16.9c-6.1-6.7-2.3-14.5,1.4-22c4.2-8.7,8.6-17.8-0.1-26.7
		c-8.1-8.4-19.2-13.1-30.9-18.1c-12.6-5.4-25.7-11-36.6-21.6C78.6,89.1,43.6,90.8,36.8,91.4c-7.9,0.6-10.3,2.7-10.4,2.7
		c-0.4,0.3-0.9,0.3-1.3-0.1c-0.3-0.4-0.3-0.9,0.1-1.3c0.1-0.1,2.8-2.5,11.4-3.2c6.9-0.6,42.6-2.3,64.3,18.8
		c10.7,10.4,23.6,15.9,36.1,21.3c11.9,5.1,23.1,9.9,31.5,18.5c9.6,9.9,4.7,19.9,0.4,28.8c-3.7,7.6-6.9,14.2-1.6,20
		c4.7,5.2,13.3,11.2,24.1,16.4c0,0-0.1,0.7-0.2,1C191,214.6,190.7,215,190.7,215z"/>
	<path class="st1" d="M304.6,478.3c0.5-0.2,2.2,5.6,2.4,6.7c0.3,1.3,0.3,2.5,0.5,3.9c0.3,1.3,0.9,2.7,0.9,4.1
		c0.4-1.8-0.2-3.6-0.2-5.4c0.2,0,0.3-0.1,0.5-0.1c0.1,0.3,0.3,0.7,0.2,1.1c-0.1-1-0.1-1.7,0.1-2.6c0.4-1.9,0.6-2.6-0.3-4.6
		c-0.9-2.1-1-5.1,1.1-6.3c-0.2-0.2-0.2-0.5-0.4-0.7c1.3-0.8,2.3-0.4,3.7-1.1c0.2-0.7,3-0.6,3.8-0.8c0,0,0-2.2,1.5-2.8
		c1.6-0.7,5.8,1.8,6.2,5.6c0,0,0.1-8.6,3-8.9s8.4,12.5,9.2,20.3c0,0-1.4-24.1,2.6-26.3"/>
	<path class="st1" d="M272.5,488.7c10-2.7,16-8.5,25.1-13.3c8.3-4.4,17.2-7.7,25.9-12.6c0,0,25.9,3.1,30.8-22.4"/>
	<path class="st1" d="M192.2,518.5c6.6-3,10.7-5.5,18-7.2c6.2-1.4,15.4-4.1,20.1-8.4c3.1-2.8,2.9-5.6,7.2-7.3
		c3.3-1.3,8.1-1.2,11.6-2"/>
	<path class="st1" d="M299.5,482"/>
	<path class="st1" d="M305,476.3c0.2,3.3-3.4,4.9-5.9,6"/>
	<path class="st1" d="M299.6,480c-0.2,1.3-0.1,2-1.2,2.9c-0.7,0.6-2.4,1.9-3.1,1.7"/>
	<path class="st1" d="M295.8,482.2c-0.3,1.9-0.1,3.6-0.3,5.6c-0.1,0.9-0.7,1.5-0.8,2.5s0.2,2,0.2,2.9c-0.1,1.9-0.4,4-0.4,5.9
		c0,1.8-0.2,3.9-0.1,5.6c0.1,1.1,0.1,1.7,0.3,2.8"/>
	<path class="st1" d="M293,507.7c-0.1-0.9-0.3-1.7-0.4-2.1c-0.2-2,0.8-3.7,0-5.6c-0.9-2.2-2.2-4.8-2-7.3c0.2-2.1-0.9-3.6-1.7-5.5
		c0.4,0.8,0.1,1.8,0.1,2.7c-0.1,1,0.2,2.1,0.1,3.2s-0.4,1.6-0.3,2.8c0.1,0.9,0.2,2,0.1,2.8c-0.1-0.5-0.8-1.4-1-2.2
		c-0.3-1-0.4-1.9-0.5-2.9c-0.1-1.4-1.9-3.7-1.6-4.6"/>
	<path class="st1" d="M285.8,489.1c-0.7-0.4-1.3,0.9-2.1,1.3c-0.4,0.2-0.7-0.3-1.1,0c-0.2,0.1-0.7,0.7-0.9,0.9"/>
	<path class="st1" d="M282.1,488.8c-0.1,2.1-1.4,3.2-3.3,3.7c-0.3,0.1-0.9,0.4-1.1,0.4c-0.4,0-0.8-0.5-1.2-0.4
		c-0.6,0.1-1.1,0.5-1.9,0.7c-1.6,0.4-3.9-0.4-5.4-1c-1.1-0.4-3.5-1.1-4-1.6"/>
	<path class="st1" d="M217.6,537.5c-1-1.7-5-25-5.8-26.6"/>
	<path class="st1" d="M219.6,512.7c-0.5,1-0.8,2-0.9,3"/>
	<path class="st1" d="M292.4,475.4c-0.6,0.8-1.6,0.8-2.4,1.2c-1.3,0.7-2.3,1.8-3.5,2.5c-2.3,1.3-4.3,2.9-6.3,4.6
		c-2.9,2.4-6.2,4.3-9.7,5.4c-3.9,1.2-8.2,2.3-12.2,3.2c-2.2,0.5-4.6,0.7-6.9,1.1c-2.1,0.4-3.1-0.2-5-0.8c-1.1-0.3-2.5-0.6-3.6-0.7"
		/>
	<path class="st1" d="M237.5,487.9c-1,1-1.1,1.8-1.9,3c-1.1,1.6-2.9,7-4.2,8.1c-2.2,1.8-7.3,2.3-10,3.6c-4.5,2.2-8.5,5.6-13.9,5.4
		c-2.4-0.1-5-1.1-7.5-1.3"/>
	<path class="st1" d="M219.5,515.6c-0.2-0.4-0.4-0.8-0.5-1.1"/>
	<path class="st2" d="M24.1,105.6c1.2,0.1,2.9-0.7,3.1-3c0.1-2.2-1.4-3.1-2-3.3c-0.2-0.1-0.8-0.2-1.4-0.4l-0.4-0.1l-0.2-0.3
		l-2.8-0.7c0,0-0.2,0-0.2,0.2c-0.1,0.2-0.4,0.1-0.4,0.1c-1.9-0.4-2.9,1-2.9,1l1.3,0.6c0,0,0.4-0.6,1.3-0.4v0.2h0.3l0.1,0.2l3,0.7
		l0.3-0.2c0,0,2.9,0.2,2.8,2s-1,2.3-1.8,2.1"/>
	<path class="st2" d="M23.7,106.9c0.4,0.1,0.7,0.3,0.4,0.7c-0.6,0.6-1.2,0.8-1.2,1.1c-0.1,0.3-0.3,0.8-1.3,0.8s-2.9,0.1-3.6-0.5
		c0,0-0.7-0.9-0.6-1.6s-0.3-1,0-1.6"/>
	<path class="st2" d="M23.7,106.8l0.4-0.4v-1.8c0,0-0.3,0.3-0.6,0.5c-0.2,0.1-0.7,0.4-0.8,0.9v2.6C22.6,108.6,23.7,107.4,23.7,106.8
		z"/>
	<path class="st2" d="M22.3,106.3c-0.2,0.4,0.1,1.9,0.1,1.9s0,0.6-1,0.8c-1,0.2-2-0.1-2.1-0.2l-0.4-3"/>
	<line class="st3" x1="23.2" y1="98.5" x2="22.8" y2="100.3"/>
	<line class="st3" x1="19.9" y1="97.9" x2="19.7" y2="99.3"/>
	<path class="st4" d="M16.9,98.7c0,0-0.2-1.3-2.1-3.2s-4.9-3.6-5-3.6l-0.4,0.2c0,0-1.7,0.1-1.9,0.3c-0.2,0.3,0.9,0.7,1.9,1.6
		c0.9,0.9,2.4,3.8,3.6,6.1c1.1,2.4,2.5,2.6,2.5,2.6c0.2,0,1.4,0.6,2.2-0.9"/>
	<path class="st4" d="M16,99.2c0,0-3.5-3.9-4.3-4.6"/>
	<path class="st4" d="M9.5,92.2c1.2,0.9,4.3,4.9,4.6,5.9c0.3,1,1.1,2.4,1.1,2.4s0.4,0.5,1.3-0.3"/>
	<path class="st4" d="M19.2,103.9c-0.8,0.1-1.3,0.3-1.6,0.5c0,0-1.6,0.9,0.3,1.6"/>
	<path class="st2" d="M20.6,103.7c0,0,0.7-0.2,1.7,0c1.2,0.2,2.3,0.3,1.7,0.9c-0.6,0.6-1.2,0.8-1.2,1.1c-0.1,0.3-0.3,0.8-1.3,0.8
		c-0.8,0-2.1,0-3-0.3c0,0-1.5-0.4-1.5-0.8c0-0.5,0.4-1.1,2.2-1.4"/>
	<path class="st2" d="M15.5,100.6c-0.1-0.8,0.4-1.5,0.4-1.5s1.2-1.1,2.2,0.5h0.3l1.2,1.5v0.6c0,0,1.2,1.6,0.8,3.3
		c0,0-0.3,0.2-0.6,0.2c-0.3,0-0.8-0.2-0.8-0.2s0.2-1.6-0.5-2.6c0,0-0.5,0-0.7-0.3s-1.2-1.5-1.2-1.5v-0.3c0,0-0.6-0.3-0.7,0.2
		L15.5,100.6z"/>
	<path class="st3" d="M18.2,99.6c0,0-1.5,0.2-1.3,1.2"/>
	<path class="st3" d="M19.7,101.4c0,0-1.5,0-1.2,1"/>
	<path class="st5" d="M16,102.9c0.2,0.4,0.8,0.8,0.8,0.8l0,0c0.3,0.2,1.1,0.6,1.1,0.6c0.4-0.2,1.2-0.3,1.2-0.3c0-0.2,0-0.4,0-0.4
		s-1.4-0.3-1.9-0.8c0,0-0.4,0.1-0.6,0.2C16.5,102.9,16,102.9,16,102.9z"/>
	<path class="st1" d="M309.9,449.9c0,0,11,2.9,22.6-6.2"/>
	<path class="st1" d="M323.5,462.8c0,0-4.3-0.4-6-4"/>
	<path class="st1" d="M352.6,446.4c0,0,9.2-5.4,13.8-18.2"/>
	<path class="st1" d="M350.2,451.1c0,0,3.9,10.3,4.7,17.6c0,0-1.8-20.4,3.1-26.9"/>
	<path class="st1" d="M208.1,500.9c0,0-11.6,12.5-44.3,15.6"/>
	<path class="st2" d="M16.4,103.4l0.8,1.4c0,0,0.2-0.4,0.8-0.5C17.9,104.2,16.8,103.8,16.4,103.4z"/>
	<g>
		<circle class="st6" cx="7.6" cy="88.5" r="7.6"/>
		<path class="st7" d="M11.6,84.1c0.2,0,0.2,0.1,0.3,0.1c0,0.1,0.2,0.1,0.2,0.2c0.1,0.3-0.7,1-0.8,1.1c-0.5,0.4-0.9,0.8-1.3,1.2
			c-0.3,0.3-0.6,0.5-0.8,0.8C8.8,88,8,88,8.2,87.1c0-0.1,0.3-0.2,0.4-0.4c-0.2-0.1-0.5-0.2-0.7-0.3c-0.9-0.4-1,0.8-1.8-0.5
			c-0.7-1,1.4-1,2.2-0.8c0.4,0.1,0.7,0.3,1,0.4c0.1,0,0.2,0.2,0.3,0.1l0,0c0.4-0.2,0.7-0.8,1.1-1.1c0.2-0.1,0.4-0.2,0.5-0.3
			C11.4,84.3,11.5,84.1,11.6,84.1z"/>
		<path class="st7" d="M2.9,84.2c0.1,0,0.3,0,0.3,0.1c0.5,0.2,0.7,0.7,1.1,1c0.4,0.3,0.8,0.7,1.2,1c0.2,0.2,0.3,0.4,0.5,0.5
			c0.2,0.2,0.4,0.3,0.6,0.5c0.1,0.1,0.2,0.3,0.1,0.5c-0.2,0.6-0.9-0.1-1.2-0.2c-0.5,0.9-0.2,2.2,0.3,2.8c0.1,0.2,0.4,0.3,0.6,0.4
			c0.6,0.4,1.7,0.4,2.3,0c0.2-0.1,0.4-0.4,0.6-0.5c0.2-0.2,0.5-0.3,0.5-0.6c0.1-0.4,0.2-0.9,0.1-1.3c0-0.1-0.1-0.3-0.1-0.5
			c0.1-0.2,0.7-0.8,1-0.7c0.1,0,0.3,0.4,0.3,0.6c0,0.1,0.1,0.4,0.1,0.5v0.1c0,0,0.1,0.7,0,0.9c-0.2,1.6-1.2,2.8-2.6,3.2
			c-1.1,0.3-2.5,0-3.2-0.4C5.2,92,5.1,91.8,5,91.6c-0.2-0.2-0.5-0.2-0.7-0.5c-0.3-0.4-0.7-1.7-0.6-2.3c0-0.6,0.2-1.1,0.4-1.5
			c0.1-0.2,0.2-0.3,0.3-0.5c-0.5-0.4-0.9-0.8-1.3-1.3C3,85.1,2.2,84.3,2.9,84.2z"/>
	</g>
	<path class="st8" d="M231.7,518.8l-0.5,16.1l-5.6,3.5l-6.1-6.4c0,0,1.4-8.8,1.9-9.1s5.8-3.5,5.8-3.5L231.7,518.8z"/>
	<path class="st1" d="M251.6,493.5c-0.6,1-2.3,2.2-3,3.2c-1.1,1.5-1.7,3.2-3.6,4.8c-2.6,2.3-4.3,2.7-7.4,3.2c-0.8,2.2-2.5,5-4.9,5.8
		c-0.1,0.8-1.4,21.2-1.4,22"/>
	<g>
		<g>
			<path class="st0" d="M280.1,608.8c0,0-0.9,0-2.2,0.2"/>
		</g>
	</g>
	<path class="st3" d="M236.4,598.2c-0.4,0-0.7,0-0.9,0c-1,0-5.2,0.1-8.2,1c-3,0.8-6,2.4-11,1.3c-5-1.1-6.2-1.4-8.1-2.8"/>
	<path class="st3" d="M224.9,570.2c2.4,0,3.9,1.5,4.7,1.9c0.8,0.4,2.1,0.4,5.1-0.8s2.7,0.7,2.7,0.7c0,0.5,0.1,2.3,0.1,2.3
		s0.5,0.2,1,0.6c0.5,0.3,0.9,1.5,0.9,1.5c0.9-0.3,1.6,1.2,2.3,1.7c0.7,0.5,1.3,0,2.1,0.2c0.9,0.1,1.7,2.1,1.7,2.1
		c0.6,1.5-0.3,3.9-1.2,5.5c-0.4,0.8-0.8,1.4-1.1,2"/>
	<path class="st3" d="M208.3,597.8c-0.3-0.3-0.5-0.5-0.8-0.6c-1.4-0.7-1.9-1.4-2.4-3.1c-0.4-1.7-1.7-4.9,0.1-10.2
		c1.7-5.3,4-10.7,7.4-13.1c3.4-2.5,8.7-3.5,12.9-3.4c0,0,0.8,0.4,0.5,2.8"/>
	<path class="st3" d="M225.7,589.6c0,0,8,2.6,9.7,2.6"/>
	<path class="st3" d="M226.7,587.1c0,0,5.9,2.4,9.4,2.6"/>
	<path class="st3" d="M239.4,590.7l-2.6-1.5c0,0-1.5,0.7-1.3,2.4c0.2,1.6,1.7,2.8,1.7,2.8L239.4,590.7z"/>
	<path class="st3" d="M235.5,592.1c0,0-2.9,4.5-4.9,6.4"/>
	<path class="st3" d="M234.4,598.2c0.8-1,1.7-2.3,2.6-4"/>
	<path class="st3" d="M237.2,594.3c0,0-1.1,2.2-1.9,3.9"/>
	<path class="st3" d="M238.1,592.9c0,0,3.6,0.1,5.6-2.7l1-4.4c-1.5,3-3.5,2.9-4.1,3.1c-0.5,0.2-2.8,0.8-2.8,0.8"/>
	<path class="st3" d="M239.6,576.3c0,0,0.2,1.1,0.1,1.6c-0.1,0.6-0.1,1.1,0.1,1.5"/>
	<path class="st3" d="M237.6,574.2c0,0,0.5,2.3-1.1,2.2"/>
	<path class="st3" d="M228.9,575c0,0,0.8,2.3,1,3c0,0,0.8-0.6,1.3-1.8c0,0-0.7-0.8-2.2-0.7"/>
	<path class="st3" d="M228.3,576.6c0,0-1-1.9-0.5-2.8c0.5-0.8,0.8-2,0.3-2.2s-0.8-0.2-0.8-0.2s0,0,0,0.3
		C227.4,572.1,226.8,574,228.3,576.6z"/>
	<path class="st3" d="M225.6,567.3c0,0-0.9,0.4-1.3,6.9c-0.1,1.8-1.1,5.6-0.2,7c1,1.4,2.8,2.3,2.9,3.7c0.1,1.4-0.6,3.4-1.8,5.8
		c-1.1,2.4-1.5,3.7-1.1,4.8c0.4,1.1,1.5,1.9,3.4,3c0.3,0.2,0.5,0.3,0.8,0.5"/>
	<path class="st3" d="M225.6,570.2c0,0,0.3-2.5-0.1-1.7"/>
	<path class="st3" d="M283.8,532.7c0,0,1.2,0.4,0.8,1.8c-0.4,1.5-0.2,1.9-0.2,1.9s1.4,0.7,1.7,1.6c0.3,0.9,0.5,0.5,1.2,1.6
		c0.7,1,1.5,1.5,1.8,2.2c0.2,0.7,0.8,1.8,0.9,2.3c0.1,0.6,1.1,1.4,0.7,2.3c-0.4,0.9-2,1.7-2.4,2.4c-0.3,0.7-0.9,1.1-1.7,1.5
		c-0.8,0.4-3.4,1.3-3.7,0.8c0,0-3-1.5-3.3-2.4"/>
	<path class="st3" d="M286,550.6c0,0-0.2,1.5-1,1.8c0,0,0.6,1.3,0.1,2.1s-1.4,3.4-6.2,2.7l-0.6,0.2c0,0,0.3-1.7-0.1-2.3
		c-0.4-0.6-0.1-1.7-0.1-2.3"/>
	<path class="st3" d="M278.4,557.5c-1.3,3.1-1.7,5.3-2.1,8.9c-0.4,3.5-1.1,4.2-2.1,7.8c-1,3.7-2.1,6.2-2.7,8.8
		c-0.6,2.6-3,8.3-3.9,10.3c-0.9,2.1-0.8,2.8-2.2,5c-1.4,2.2-1.1,1.8-2.1,4.3s-1.2,3.2-2.3,4.2c-1.1,1,0.2,1.8,0.2,3.8
		s-2.4,7.8-2.4,7.8s-0.5,2.5-1.1,3.4c-0.5,0.9-2.1,3.7-2.8,3.9s-1.3,2.4-1.3,2.4s-3.2,5.8-3.8,7.2c-0.6,1.4-1.5,2.6-1.6,3.7"/>
	<path class="st3" d="M285.6,551.8c0,0,1,0.9,1,2.4c0,0,0.6,1.2,0.6,2.5c-0.1,1.3-0.2,4.7-1.5,6.4c0,0,0.6,3.1,0.3,5.1
		c-0.4,1.9-2,5.6-2,5.6s0.8,0.2,0.1,2.2c-0.7,2-1.3,3.8-1.7,4.5c-0.4,0.7-2,4.3-2.3,5.5c-0.3,1.3-1.3,3.5-2.4,4.8s-1.6,1.6-2.2,2.1
		c-0.6,0.5-2,1.4-2,1.4s-0.8,1.9-1.9,3c0,0-0.1,1.8-0.5,2.6s-0.9,1.4-0.9,1.8c-0.1,0.4-1.5,2.8-2.2,4c-0.6,1.2-1.8,3.5-2.9,4.4
		c-1,0.9-0.8,2.9-2.1,4"/>
	<path class="st3" d="M261.1,611.4c0,0,2.1,2.1,2.6,3.4c0.5,1.4,1.6,3.5,1.9,4.8c0.3,1.3,0.8,4.8,1.1,5.5c0,0-0.9,1.7-3.2,2.8
		c-2.3,1.1-2.3,1.1-2.3,1.1s-3.3-3.8-4.1-6.1"/>
	<path class="st3" d="M249.6,635.8c0,0,0,1.5,0.5,2.4l-0.6,1.6c0,0-0.8,0.9-1.1,1.9c-0.2,1-0.3,2.1-0.3,2.1s-0.8,2.2-1.1,2.8
		s-1.9,6.1-4.4,10.6c0,0-2,0.4-4,1.2s-3.9,1.8-5.1,1.1"/>
	<path class="st3" d="M266,621.4c1.9,0.9,4.2,2,4.5,2.3c0.3,0.3,1.5,3.2,1.6,4.5s1.2,5.7,1.2,5.7l2.4,1.6L275,637l0.8,1.9
		c0,0-2,0.1-2.2,0c-0.2-0.1-0.5-2-0.5-2s-5.1-3.5-6.1-4.2s-0.6-3.2-0.6-3.2l-3.8,1.7c0,0,0.6,0.7,1,1.2c0.4,0.5,0.9,0.9,0.4,1.4
		c-0.6,0.5-0.6,0.7-1.3,1.2c-0.7,0.5-1.2,0.4-1.5,0.1c-0.4-0.3-2-2.8-2-2.8c-2.7,1.2-4,0.9-4,0.9c-0.8,3.9-2.3,4.7-2.3,4.7l-1.3,2.4
		c1.6,0.4,0.7,1.8,0.2,3.5s-1.5,1.4-1.5,1.4s-0.3,0-1.4,3.2s-3.8,8.7-3.8,8.7s2.4,0.4,5.8,1.3c3.5,0.9,8.6,1.2,10.1,1.1
		c1.5-0.1,2.7,0.4,5.3-0.3s8.9-3.3,9.9-4s0.9-1.3,0.8-1.6c-0.1-0.3,0.1,0.3-0.1-2.1c-0.2-2.4,0.2-6.2-2.3-12.7"/>
	<path class="st3" d="M269.2,628c0,0-1.3,1.5-0.5,2.2s2.2,2.4,2.2,2.4S270.5,629.7,269.2,628z"/>
	<path class="st3" d="M277,661.7c0.3,0.3,2,2.8,2.6,6.2l3.4,1c0,0-1.4-8.2-4-10.4c0,0,0.8,0.1,0.8-1.9c0-0.8,1.2-3.3-1-3.8
		c0,0,0.6-1.9-1.7-2.5"/>
	<path class="st3" d="M243.3,678.6c0,0,1.3-4.2,1.7-4.1c0.5,0,2.1,0.2,2.9,0.5c0.8,0.2,4.6-0.5,6.1-1.2s2.2-1.4,4.6-3.2
		s4.4-4.5,5-5.8c0.5-1.3,0.8-1.7,0.8-1.7s5.9-1.9,8.1-3.2c2.2-1.3,3.3,0,3.3,0s0.6,0.9,1.3,1.9"/>
	<path class="st3" d="M264.7,659.7c0,0,0.8,1.8-0.4,3.3"/>
	<path class="st3" d="M236.7,662.5c0,0,0.3,4.2,1.2,5.1c0.8,0.9,2.5,3.4,2.7,4.3c0.2,0.9,0.4,1.9,0.4,1.9s-0.9,4-0.5,4.8"/>
	<path class="st3" d="M237.4,670c0,0,1.4,1.6,2,2.8c0.5,1.2-0.4,6.1,2.1,5.9c2.5-0.2,2.4,0.4,2.4,0.4s-1.5,1.1-2,1.6
		c-0.5,0.6-1.1,1.3-1.3,1.7c-0.1,0.3-0.8,1.5-0.9,1.7c-0.1,0.2-0.3,0.6-0.3,0.6l1.5,1.2l0.8,0.5c0,0,0.1,0.8,0.2,1
		c0,0.2,0.8,1.9,0.8,1.9s-0.8,0.7-1.2,1c-0.5,0.3-1.6,1.4-2.5,0.9c-0.9-0.4-2.5-1.1-2.5-1.1s-0.7,1.6-2.6,2.3c-1.9,0.8-2,0.7-5-0.6
		s-4.4-2.8-5.3-3.4c-0.9-0.6-3.4-2.2-3.4-2.2s-6.6-1.1-8.5-4.1c-1.9-2.9-2.8-5.8-3.1-7c-0.2-1.2-1.4-10.8-1.4-10.8s-1.7-3-2.4-5
		c-0.7-1.9-1.5-5.3-1.5-5.3s0.1-1.2-0.1-1.2c-0.2-0.1-1.9-0.5-1.8-1.5c0.1-1,0.7-0.3-1.1-3.7s-3.1-9-3.5-11.9
		c-0.4-2.8-0.3-3-0.4-3.4c-0.1-0.5-1.6,1-0.5-1.9s1-3.2,1-3.4c0.1-0.2-0.1-1.8-0.1-2.1s3.4-6.8,6.9-10.7"/>
	<path class="st3" d="M202,652.4c0,0,0.1-2.1,0.2-5c0.2-2.9-1-1.9-0.2-4.8c0.7-2.8,1-2.9,1.5-4.9s-1.2-1.6,0.4-5.1
		c1.6-3.5-0.3-3.8,3-6c3.2-2.2,1.5-2.6,2.6-2.7c1.1-0.1,2.6,0.2,2.6,0.2"/>
	<path class="st3" d="M220,612.7c0,0-2.2,1.3-3.4,2.4c-1.1,1.1-1.8,2.9-2.2,3.4c-0.4,0.6-1.7,1.1-1.7,1.1s-3.1,0.7-3.9,0.9
		c-0.8,0.3,0.2,0-1.4,0.1c-1.6,0.1-2.2-0.2-2.5-0.6c-0.2-0.4-0.5-1.5-0.5-1.5v-0.4l-0.2-3c0,0-0.7-1-1.6-1.5c-0.9-0.5-0.9-2.2-2-3.4
		c-1-1.2-1.3-1.3-1.4-2.8c0,0-0.3-0.9,0.4-3s0.1-2.4,0.3-2.7s1-0.4,2.7-1.3c1.7-0.9,0.1-2.1,3.7-3.7"/>
	<path class="st3" d="M214.5,618.5c0,0-0.8,1.5-1.3,2.4s-1.9,3.4-1.2,4.1"/>
	<path class="st3" d="M218.6,623.9c0.5-1.2-2.7-3.2-2.3-4.5c0.4-1.5,3.7-6.6,4.6-8c1-1.4,2.5-2.5,4.6-4.4c2.1-1.9,5.8-2.7,5.8-2.7
		c2.4-1.6,3.4-3.2,3.4-3.2s0,0,0.1-0.7c0.1-0.7,1.3-1.9,2.2-2.7c0.9-0.8,2.2-1.4,2.2-1.4c0.3-1.8,1.1-2.8,1.5-3.2
		c0.4-0.4,1.5-0.6,1.5-0.6c0-0.4,0.5-1.6,0.9-2.1c0.5-0.5,1.7-3.4,1.9-3.9c0.2-0.5,0.8-1.5,1.9-2.2s2.8-1.9,2.8-1.9
		c-0.1-0.9,0.4-2.4,0.4-2.4c-0.2-0.5,0.1-3.2,0.5-4.5c0.4-1.3,0.9-3.2,1.2-4.3c0.3-1.1,1.6-1.4,1.6-1.4c-0.9-1.8,1.8-8.1,2.5-10.2
		c0.7-2.1,2.9-6.1,3.7-7.9c0.8-1.8,1.3-3.5,1.9-4.1"/>
	<path class="st3" d="M215.9,634.6c0,0,2.6,7.3,4.6,11s3.6,4.7,5.7,7.3c2.2,2.6,3.5,2.4,4.9,4.3c1.4,1.9,0.7,1.6,2.3,2.3
		c0,0,0.1,0.2-0.8-1.8c-0.9-2-0.2-1.8-1.8-3.1c-1.7-1.3-3.1-2.7-3.3-3.4"/>
	<path class="st3" d="M208.7,598c0,0-0.5,0.9-0.7,1.2s-0.4,1.2-0.3,1.6c0.2,0.5,0.1,1.6,0.1,2.1s-0.4,1.8,0.5,2.1s1.9,0.4,1.9,0.4
		s4,0.6,6.3-0.3c2.4-0.9,1.7,1.1,3.4,0.2c1.7-0.9,3.8-2.4,4.4-2.4c0.7,0,5.5,0.5,5.5,0.5s-1.6,1-2.4,2.2"/>
	<path class="st3" d="M260.1,675.7c1.1,4.2,5.5,4.5,9.2,4.4c2.1-0.1,3.1-0.5,3.8-0.9c0,0,0.5-0.4,0.5-0.9c0.1-0.5,0.2-0.8,0.2-0.8
		c0.1-0.4-0.1-0.9-0.1-0.9c-0.3-0.8-0.8-1.7-1.1-2.1c-0.6-0.9-1.4-2.8-1.4-2.8"/>
	<path class="st3" d="M258.7,676c0,0,0.8,2.1,1.6,2.8c0.8,0.7,2.6,2.4,6,2.3c3,0,7.1,0.5,8.4-1.7c0,0,0.4-0.4,0.3-0.9
		c0-0.5,0-0.9,0-0.9c0-0.3-0.5-1.5-0.5-1.5c-0.7-1.8-1.9-3.7-2.4-5"/>
	<path class="st3" d="M252.9,677.1c0,0-3.6,5.4-6.3,3.7c-2.7-1.7-2.8-3.7-2.8-3.7"/>
	<path class="st3" d="M244.9,676.8c0,0,1.1,3.1,2.7,3s3.4-3,3.4-3"/>
	<path class="st3" d="M251,679.4c0,0,2.1,0.1,4.3-0.3c2.2-0.4,4.3-1.1,4.3-1.1"/>
	<path class="st3" d="M261.1,677.7c0,0,2.9-1,4.2-1.7c1.2-0.6,6.5-2.9,6.5-2.9"/>
	<path class="st3" d="M272.8,672.5c0,0,2.5-2.1,2.8-3.2c0.3-1.1,1.5-3.7,1.5-3.7l1.3-1.5"/>
	<path class="st3" d="M277.5,662.4c0,0-0.3,0.7-0.8,0.8c-0.4,0-1.2-0.1-1.9,0.4c-0.7,0.5-1.7,1.4-2.3,1.5c-0.6,0.2-8,4.3-12.5,4.3"
		/>
	<path class="st3" d="M242.7,689.3c0,0-0.7-0.8,1,0.4s0.1,2,0.9,1.6c0.8-0.4,1.6-0.7,1.7-0.6c0.1,0.1,1.6,0.5,2.5,0.6
		c0.9,0.1,3.4-0.5,4.2-0.3c0.8,0.2,3.9-0.1,4.4-0.2c0.5-0.1,3.3-0.6,3.5-0.7c0.2-0.1,2.3-1.3,4.3-2.3s2.2-1.2,2.4-1.4
		c0.2-0.2,0.4-0.2,1.3-0.8c0.2-0.1,0.4-0.2,0.6-0.3l2.8-1.1l0.8-0.4c0,0,0.7-0.6,1.8-0.8c0.4-0.1,0.9-0.2,1.3-0.3l1.7-0.4
		c0,0,2.1-2.4,2.1-4.2s0.3-3.3,0.3-3.3s0.4-2.7,0.3-3.1c-0.1-0.4,0.8-2.1,0.5-3.3"/>
	<path class="st3" d="M222.9,649.2c0,0,1.9,4.9,2.9,6.4c1.1,1.5,2.5,8.3,4.8,12.9c2.3,4.5,3.4,6.4,4.2,9c0.8,2.6,3.2,7.5,2.7,9.1
		c-0.4,1.6-1.3,2.6-3.2,2.8c-1.9,0.2-2.8-0.8-4.1-0.6c-1.2,0.2-2,1.2-3.3,0.7s-1.4-1.5-1.9-2.4c-0.5-0.9-0.5-2.5-0.5-2.5
		s-7.4-7-8.3-8.2c-1-1.2-4.5-5.7-4.5-5.7s-7.1-15.9-7.2-17.6"/>
	<path class="st3" d="M282.8,663.2c0.2,0.8,1.1,6.7,1.2,7.8"/>
	<path class="st3" d="M284.6,671.2c-0.3-2.6-1.2-9.5-1.5-10.5"/>
	<path class="st3" d="M323.8,767.9"/>
	<path class="st3" d="M324,767c-0.2,1.1,0.9,2.7,0.9,2.7c0.4,0.8,1.7,3.6,1.7,3.6l1,0.6c0,0,0.1,0.4-0.2,0.7l-0.4,1l0.5,1.2"/>
	<path class="st3" d="M342,753.1l2.6,3.5c0,0,1.4,0.4,1.8,0.8c0.4,0.3,0.3,0.7,0.3,0.7l0.2,0.4c0,0,1.5-0.8,2.5-0.6
		c1.1,0.2,2.1,1.3,2.1,1.3s3.4,0.4,4.2,0.5s5.5,0.7,7.4,1.1c1.9,0.4,2.2,2.9,2.6,3.1c0.5,0.2,0.4,0.9,0.4,0.9l1,0.5
		c0,0,0.6,0.8,0.9,1.9c0.3,1-1.2,3-1.2,3s-1.7,2-7.5,4.4c-5.8,2.4-8.6,1.9-11.9,1.7c-3.3-0.2-8.5,0.2-8.5,0.2l0.6,1.3
		c-8.2,1.2-9.9,0.2-10.7,0c-0.8-0.2-1.4-1.3-1.4-1.3"/>
	<path class="st3" d="M326.5,756.9c0,0-1.6-5.6-2.1-7.3c-0.6-1.7-1.8-5.1-1.8-8.7c-0.1-3.5-0.2-7.7-0.7-10.4"/>
	<path class="st3" d="M222.6,609.7c0,0,1.7-2.1,1.9-5.9"/>
	<path class="st3" d="M285.8,563c0,0-3.1,1.6-6.2,1.4"/>
	<path class="st3" d="M284.4,536.1c0,0-0.5,1.3-1.1,2s-2.5,2.6-3,3c-0.5,0.4-0.6,1.1-1.2,1.3"/>
	<path class="st3" d="M279,545.9c0,0,1.2-0.3,2.5-1.1c1.2-0.8,3.7-2.6,4.1-3.6c0.4-0.9,1.2-1.9,0.8-2.7"/>
	<path class="st3" d="M279.3,547.8c0,0,1.8,0.8,2.6,0.6c0.7-0.1,2.3-0.8,4-2.5c1.7-1.7,2.3-1.9,2.7-4.8"/>
	<path class="st3" d="M245.6,690.7c0,0,9.3,13.5,24.5,14.1"/>
	<path class="st3" d="M280.1,707.5c1.2,0,7.4,2.4,9.1,2.7s7.5,4.1,9.1,4.3c0.6,0.1,3.4,0.4,4.3,1.3c0.9,0.9,1.3,2.7,2.4,4.1
		c0,0,2.1,10.1,3.1,12.2c0,0,2.3,5.9,4,9.4c1.7,3.5,1.7,3.5,1.7,3.5s-0.4,2.6,1,4.5s3,5.4,2.9,6.6c0,1.2,0.1,3,0.2,3.7
		c0.1,0.7,0.6,2.3,2.5,3.2c1.9,1,0.2,0.3,0.2,0.3l0.4,1.3c0,0,1.8,0.1,2.1,0.7c0.3,0.5-1.7-0.9-0.2,1.4c0,0,3,1.3,2.7,0.1
		c-0.7-2.8,0.8-9.9,0.8-9.9s0.7,0.6,3.1,4c2.5,3.4,1.7,3.4,1.7,3.4c1.3-1.3,2.3-1.3,3.9-1.8s7-5.9,6.9-10.2c0,0,0.4-1.3-1.5-4.1
		c-1.8-2.8-2.8-3.2-3.1-4c-0.3-0.8-1.3-2.1-1.6-3.8c-0.3-1.7-1.8-5.3-1.9-5.5c-0.2-0.2,0.6-1.2,0.6-1.2s-0.7-3.7-1.3-4.4
		c-0.6-0.8-1-1.3-1-1.3l0.8-1.7c0,0-1.3-2.5-1.1-3.9c0.2-1.4-3.3-11.1-3.7-13c-1.3-5.9-10.2-9.2-11.2-10.2s-6.8-4.4-8.3-5.6
		c-1.5-1.2-4.9-3.2-9.3-6.1c-4.4-2.8-9.9-4.4-9.9-4.4l-7.3-4.5"/>
	<path class="st3" d="M283.2,670.6c0,0,12.3,5.7,15.3,8s8.4,7.1,10.8,9.3c2.5,2.2,8.7,9.2,9,9.9c0.2,0.4,1.4,1.9,2.3,3.5"/>
	<path class="st3" d="M298.2,714.5c0,0-1.6,10.5-2.1,14.4s-2.1,6.7-1.5,7.9c0.6,1.3,2.5,5.9,1.8,7.6c-0.6,1.7-0.6,2-0.3,4.1
		c0.3,2.1-2.3,4.9-0.8,7.2s5.3,4.7,12.4,4.8c0,0,7.8,0.2,9.8-5.7"/>
	<path class="st3" d="M317.7,757.5c-0.3-0.3-0.5-0.5-0.5-0.5l-0.3-1.2"/>
	<path class="st3" d="M295.6,756.2c-0.1,0.2-0.1,0.5-0.1,0.7c0.1,0.4-0.1,2.8,1.4,5.2c0,0-0.6,0.6-0.3,2.1c0.4,1.5,0.8,3.6,1.3,3.9
		l0.3,0.2c0.8,0.7,2.5,1.8,7.8,3.3v-1.2c0,0,4.1,1.4,6.6,2.7c2.4,1.3,4.4,2.7,9.7,2.8c2.1,0,3.6-0.1,4.8-0.2"/>
	<path class="st3" d="M283.2,646.5l-1.5-0.1c0,0-0.2,2.7-0.2,3s0.2,0.9,0.7,0.9s0.7-0.4,0.7-1C283,648.8,283.2,646.5,283.2,646.5z"
		/>
	<path class="st3" d="M282.7,668.8l-0.4,17.2c0.8,21.4-2.5,21.6-2.5,21.6c-6.1-0.9-9.9-2.8-9.9-2.8s0.1,0,0.4,0.1"/>
	<path class="st3" d="M281.4,662.4c0.1-0.8,0.2-2.6,0.6-2.4c0.4,0.3,0.9,3.2,0.9,3.2l-0.1,3.8"/>
	<path class="st3" d="M273.1,704.3c2.6-1.6,6-7.1,7-23.9c0,0,0.5-4.2,0.6-4.6c0-0.2,0.3-4,0.4-7.4"/>
	<line class="st3" x1="244.8" y1="679.3" x2="243.6" y2="679.3"/>
	<line class="st3" x1="243.9" y1="677.6" x2="243.6" y2="677.7"/>
	<path class="st3" d="M281.6,647.8c0,0-0.6,8-0.4,11.4"/>
	<path class="st3" d="M283.1,647.9c0,0,0.8,0.4,0.7,2.2s-0.2,11-1.2,11.7"/>
	<path class="st3" d="M283,649.3c0,0-0.1,10.6-0.6,11.4"/>
	<path class="st3" d="M281.5,648.4c0,0-0.5-0.3-0.7,1.7c-0.3,2.5-0.6,7.1-0.2,9.5"/>
	<path class="st3" d="M247.2,691c8.2,10.2,26.9,13.7,26.9,13.7l-1.4,0.6c0,0-17-1.6-26.4-14.6"/>
	<line class="st3" x1="282.8" y1="664.4" x2="283.9" y2="679.5"/>
	<line class="st3" x1="282.9" y1="664.8" x2="283.6" y2="670.8"/>
	<path class="st3" d="M295.1,738c0,0,1.8,4.2,2.5,6.4"/>
	<path class="st3" d="M290.1,710.5c0,0,4.4,1.5,5.7,1.6"/>
	<line class="st3" x1="332.4" y1="728" x2="330.5" y2="736.1"/>
	<path class="st3" d="M280.3,660.1c0,0,1.3-1.3,1.5-0.9c0.1,0.3-0.6,2.8-0.6,2.8"/>
	<path class="st3" d="M275,512.5c-0.4,0.5-0.8,1.1-1.4,1.8c-1.2,1.3-1.7,2.1-2.4,3.3c-0.7,1.2-1.7,2.8-2.2,3.8s-0.2,3.2-0.4,3.8
		c-0.1,0.6-1.5,0.8-1.7,1.5c-0.2,0.7,0.8,2.5,0.8,2.5s-1.6,1.4-1.8,2.5c-0.1,1.1-5.4,14.2-5.4,14.9c0,0.8,0,0.4,0,0.4v0.4
		c0,0,2.5,0.9,3.3,1.3c0.8,0.3,13.8,4.2,14.6,4.5c0.8,0.2,0.8-5.9,0.7-7.7s-0.3-3.3-0.4-3.8s-0.3-1.9-0.1-2.2
		c0.2-0.3,1.6-3.4,1.6-3.4s1.9-1.5,2.6-1.9c0.6-0.4,1.1-1.8,1.1-1.8c1.8-1.1,1.6-1.9,2-2.4c0.4-0.5,0.1-0.9,0.5-1.6
		c0.3-0.8,0.2-0.9-0.1-1.7c-0.3-0.8-1.6-2-1.6-2c1.2-1.8,0.2-2.2-0.2-2.9c-0.4-0.7-1.2-1.1-1.2-1.1c1.9-1.8,0.8-2.9,0.3-3.3
		c-0.6-0.4-1-0.7-1-0.7c1.6-1.5,0.6-2.7,0.3-3.1c-0.3-0.4-0.5-0.9-0.7-1.4c-0.2-0.5-1.3-0.9-2.3-0.5s-2.2,1.4-2.2,1.4
		c0-0.4-0.3-0.7-0.6-0.9"/>
	<path class="st3" d="M282.6,516.5c0,0-3.6,2.6-3.9,2.6"/>
	<path class="st3" d="M273.6,516.9c0,0,2-1.8,3.2-0.2c1.2,1.6,2,2.8,2.3,2.9c0.3,0.1,1.8-0.2,2,1.4c0.3,1.6,2.6,2.5,2.6,2.8
		s0.4,1.2,1,1.5"/>
	<path class="st3" d="M269,529.5c0,0,2.8,0.6,3.8,1.6c1.1,1,3-0.5,5.4,3.5c2.4,4,0.7,0.1,0.7-0.5c0-0.6-3.4-3.6-4.8-4.2"/>
	<line class="st3" x1="283.4" y1="520.5" x2="281.6" y2="522.1"/>
	<path class="st3" d="M277.7,512.9c0,0-0.7,0.6-1.2,1c-0.5,0.5-1.3,0.9-1.9,1.5c-0.6,0.6-1.4,2-1.8,2.5c-0.5,0.5-1.2,1.4-1.5,1.5"/>
	<path class="st0" d="M279.2,549.4c0-0.3,0.2-0.5,0.4-0.7c0,0,0.6,0.9,1.1,1.2c2.5,48.6,5.1,84.2,5.1,84.6c0,1.6-0.4,4.2-2.2,4.8
		c0,0,0.1-1.4,0.1-2c0-0.5,0-0.7,0-0.7c0.3-0.8,0.3-1.8,0.3-2.1s-2.5-34.7-5-82C279,552.5,279.2,550.5,279.2,549.4z"/>
	<path class="st0" d="M282,639.3c-0.1-0.1-0.3-0.1-0.4-0.2c-1.1-0.9-1.5-4.8-1.6-7c-0.1-0.8-2.1-25.8-4.9-60.7c0,0,0.6-1.6,0.8-2.3
		c0.2-0.8,0.6-3.6,0.6-3.6c3.1,37.9,5.4,65.6,5.4,66.5c0.1,1.6,0.3,3.2,0.5,4.3c0,0-0.1,0.2-0.2,1C282,638,282,639.3,282,639.3z"/>
	<path class="st3" d="M279.6,564.5c0,0-3.2,0.6-3.1,0"/>
	<g>
		<path class="st9" d="M252.3,96.1c0.7-1.1,1.6-2.1,2.4-3c1-1.2,2-2.7,2.5-4.3c0.5-1.4,0.5-2.8,0.8-4.2c0.3-1.4,1-1.8,1.8-3
			c0.8-1.3,1.1-2.7,1.5-4.1c0.5-1.4,0.3-3,0.9-4.3c0.5-1.2,1.2-2.2,1.4-3.5c0.4-1.8,0.3-3.8,1.2-5.5c1.2-2.3,2.8-4.7,1.6-7"/>
		<path class="st9" d="M298.4,53.5c0.2,1.1,0.5,1.8,0.7,3.1c0.1,1.1,0.1,2.1,0.3,3.1c0.6,2.7,1.3,5.1,1.5,8c0.1,2,0.6,4.3,0.6,6.3
			c0,1.6,0.7,3.2,1,4.8c0.5,2.9,0.6,5.8,0.6,8.7c0,1.8,0.1,2.2,0.2,3.7"/>
		<path class="st9" d="M250.9,44.7c1.5,0.1,3.1-1.6,4.6-2c1.7-0.5,3.6-0.8,5.4-0.8c1.7,0,3.5-0.7,5.2-0.6c0.8,0.1,1.5,0.7,2.3,0.8
			c1.2,0.2,2.4,0,3.6,0.2c2.3,0.4,4.6,0.5,6.8,0.6c1.6,0.1,3.3,0.5,4.9,0.4c0.9,0,1.9-0.4,2.6-1c0.9-0.8,0.9-1.4,1.9-2.5"/>
		<path class="st9" d="M259.2,115.3c0.7,0.4,0.9,1,1.7,1.3c1.1,0.4,2.5,0.6,3.7,0.7c3.1,0.2,6.2,0.2,9.3,0.3c2.2,0.1,4.2,1,6.5,1.1
			c2.4,0.1,4.8,0.4,7.2,0.9s4.9,0.8,7.4,1.3c2,0.4,4.9,0.2,6.7,1.1"/>
		<path class="st9" d="M210.8,237.8c0.7-3.3-0.3-4.2,2.3-9.4c1.6-3.2-1-6.4,1.5-9.2c-0.6-0.3,1.2-1.6,0.7-2c2.2-3.1,2.6-6.2,3.9-9.5
			c0.8-1.9,1.9-3.6,2.4-5.6c0.5-1.8,0.4-3.4,1.2-5.1c1.2-2.8,2.5-7.4,4.4-9.6c1.1-1.3,2.9-1.6,3.6-3.3c0.8-1.9-0.6-3.4,2.2-4.2
			c-0.1-2.1-1.9-5.2-0.1-7c2.9,3.2,6.2,0.4,7.9-2.1c2.1-3.1,5.4-4.5,7.7-7.3c4.3-5.3,12.4-8.9,18.2-12.1c0.7,5.2-1.5,9.2-2,14.1
			c-0.2,2.2-0.6,3.8-0.4,6.1c0.2,2.3,0.6,4.6,0.9,6.9c0.5,5,0.7,8,3.7,11.8c3.1,3.9,5.9,5.8,8,10.3s4.7,11.7,7.3,15.9
			c1.4,2.2,7.8,6.1,4.2,10.7c0.5-0.6,4.1,6.1,4.3,6.4c0.7,1.6-0.1,2.8,0.9,4.4l2.1,1.8c1.6-0.8,3.6,0.4,4.5,1.9l0.6,0.3
			c0.7,0.4,1.1,1.1,1.8,1.5c0.9-0.5,2.6-1.2,3.7-1c1.2,0.2,1.9,1.7,2.2,2.8c0.2-1.3,2.4-1.1,3.2-0.8l1.4,0.6
			c1.2-0.8,0.9-2.5,0.3-3.6c-0.8-1.5-0.9-2.3-1.5-3.6s0.2-3.7,0.1-5.3c-0.1-1.1-0.6-3.5-1.7-3.9c0.8-0.6,1.1-0.4,1.2-1.5
			c0.1-1.4,0.3-2.6,0.5-4c0.4-2.9-0.7-6.4-1.7-9.2c-1-3-3.1-4.8-5.4-6.7c-0.7-0.6-0.9-1.3-1.3-2.1c-0.8-1.6-1.5-3.2-2.4-4.8
			c-1.2-2.2-2.4-4.2-3.8-6.2c-1.5-2.1-3.3-3.9-4.8-6c-0.6-0.3-2.6-2.9-3.1-3.3c0.2-0.3,0.9-1.7,0.9-2.1c-0.1-0.8-0.3-0.7-0.9-1
			c-1.2-0.6-1.4-1.2-2.2-2.3c0.7-1.3,1.4-2.6,0.5-4.1c-0.4-0.6-1-0.7-1.1-1.3c-0.1-0.4,0.1-1.5,0.2-1.9c0.3-1.1,0.9-1.6,0.8-2.7
			c-0.1-1.1-0.1-1.8,0.4-2.9c0.8-1.7,1.5-3.3,2-5.2c0.3-1,0.3-1.7,1.2-2.2c0.8-0.5,1.1-0.3,1.5-1.2c0.7-1.6,1.3-3.5,1.7-5.2
			c0.2-0.9,0.4-1.6,0.3-2.6c-0.1-0.9-0.4-1.4,0-2.3c0.4-0.9,1.1-1.6,1.5-2.5c0.5-1.1,1-2.1,1.6-3.1c1.3-2.4,2.7-5.2,3-8
			c0.2-1.9-0.1-3.9,0.3-5.8c0.3-1.8,0.5-3.5,0.4-5.3v-0.9c0.5-0.4,1.2-0.2,1.8-0.1c1,0,1.2-0.1,1.1-1.2c-0.2-1.4-0.3-2.1-0.1-3.5
			c0.1-1.4-0.6-2.7-0.7-4.2c-0.1-1.6,0-3-0.3-4.6c-0.3-1.4,0.2-2.9-0.2-4.3c-0.4-1.4-1.1-1.2-0.2-2.5c0.4-0.6,0.5-0.5,0.5-1.3
			c0-0.5-0.1-1-0.1-1.6c0-1.7,0.3-3.8,0.1-5.5l-0.1-2.1c0.7-0.2,2.3-0.9,3-1.1c1.5-0.4,2.9-1.1,4.1-2.2c1-0.8,1.8-0.6,2-2
			c0.3-1.5,0.2-2.8,0.8-4.3c1.3-3.6-0.9-6.4-2.8-9.3c-2-3.1-3.2-6.6-5.1-9.7c-1-1.7-2.2-3.1-3.3-4.7c-0.9-1.3-2-2.1-3-3.2
			c-1.6-1.6,1-2.6,0.4-4.5c-0.4-1.2-0.9-2.5-1.4-3.7c-0.5-1.3-1.9-1.6-3-2.2c-1.4-0.8-2.8-1.4-4.3-2c-0.5-0.2-2.9-1-3-1.6
			c-0.3-0.9,1.4-1.7,1.4-2.5c0-0.7-0.9-1.5-1.5-1.6c0.1-0.9,1.5-1.9,2.1-2.6c1-1.4,0.4-2.8-0.3-4.2c-1.3-2.5-2.4-4.4-4.7-5.9
			c-0.4-0.3-0.9-0.5-1.2-0.9c-0.2-0.3-0.3-0.7-0.5-1c-0.6-0.6-1.5-1-2.1-1.7c-1.7-1.7-2.8-3.5-5.3-3c-2.9,0.6-5.9,1.1-8.5,2.3
			c-2.9,1.3-5.1,3.7-7,6.2c-0.8,1.1-1.5,2.1-2.3,3.2c-0.6,0.9-1.5,1.3-2,2.2c-0.7,1.2-1,2.1-2.1,3c-0.9,0.8-0.9,1.3-1.2,2.4
			c-0.4,1.2-1,2.2-1.5,3.3c-0.4,0.9-1.3,3.2-1.1,4.1v0.6c0.2,0.2,0.3,0.5,0.3,0.8c-4.3,3.3-4.5,5.9-5.2,10.8
			c-0.8,5.6-3.4,9.4-5.4,14.8c-1.2,3.2-1.9,6.6-3.1,9.8c-1.2,3.3-2.7,4.1-1.2,7.5c1.5,3.2,1.1,2.5-2,4c-2.3,1.1-3.1,2.9-4.5,4.9
			c-2.5,3.7-6.6,6.7-10.2,9.3c-2,1.5-3.4,3.2-5.4,4.7c-1.7,1.3-3.2,2.6-4,4.7c-2.2,0.3-5.4-0.5-7.3-0.1c-2.3,0.5-2.6,2.4-3.5,4.4
			c-3.4,0-6.6,5.9-2.7,7.7c0,0,1.8,0.9,2-1.2c0,0,1.8,1.5,2.9,1.6c2,0.3,4.1,0.6,2.8-2.4c2.2-0.1,4.3-0.9,6.6-1
			c2-0.1,4.2,0.2,6.2,0.2c4.2,0,8.6-3.7,11.5-6.4c6.8-6.3,14.7-10.6,20.4-18c1.4-1.8,2.5-3.4,4-4.9c0.7,1.2,1.8,2.5,2,4
			c0.2,1.4,0,2.9-0.2,4.5l-0.3,1.1c0.3,0.6,0.3,0.8,0.2,1.4c-0.1,0.5-0.1,1.1,0,1.6c0.3,1.1,1.4,1.8,2.5,2c0.5,0.1,0.4,0.2,0.9,0.4
			c0.6,0.3,0.6,0.9,0.7,1.5c0,0.5,0,1,0.2,1.4c0.2,0.4,0.6,0.7,0.8,1.2c0.1,0.2,0.2,0.3,0.2,0.6c-0.8,0.1-1.4,0.1-2.1,0.5
			c-0.7,0.3-0.7,1.9-1,2.6c-0.3,0.6-0.8,1.5-1.4,1.5c-1.5,0.1-2.2,1.6-3.4,2.5c-1.7,1.3-2.8-0.5-4.4,0.7c-0.6,0.5-0.6,2.7-1.1,3.2
			c-0.8,0.7-1.8,1.2-2.6,1.9c-3.3,2.8-6.3,7.2-9.3,10.4c-3.1,3.3-6.4,7-8.8,10.7c-1.3,2-2.4,3.3-4,5.1c-0.7,0.8-2.4,2-3.3,2.6
			c-0.7,0.6-1.1,1.6-1.9,2.3c-1.9,1.7-1.9,5.2-1.8,7.5c0.2,3.1,0.6,1.2-2.3,2.2c-4.9,1.6-5.4,5.4-7.6,10c-1.9,4-3,9.1-4.1,13.5
			l-0.2,0.8c-0.3,0.6-0.6,1.3-0.9,1.9c-0.5,1.1-1.3,1.8-1.6,3.1c-0.6,2.6-1.6,5.1-2.3,7.7c-0.2,0.9-0.2,1.9-0.5,2.8
			c-0.3,0.9-0.9,1.6-1.1,2.6c-0.2,0.6-0.3,1.5-0.8,1.6c-0.3,0-1.2-0.5-1.5-0.6c-0.1,0.9-0.6,2.1-0.9,2.9c-0.3,0.8-0.4,1.5-0.9,2.2
			c-1,1.1-3,1.7-4.4,2.2c-2.4,0.9-5.7,1.2-7,4c-1.2,2.5-0.7,5,1.1,7v0.1c0.2,0.2,0.7,0.2,1,0.4c0.4,0.2,0.7,0.6,1.1,0.9
			c0.6,0.5,1,0.9,1.5,1.5c0.3,0.3,1,0.9,0.7,1.4c0.7-0.2,1.3-0.5,2-0.5c0.7-0.1,1.4-0.1,2.1,0c0.6,0.1,1.9,0.4,2.3,1
			c0.6,0,1.2-0.3,1.8-0.4c1-0.1,2-0.2,3,0.1c0.9,0.2,2,0.8,2.8,1.4c0.2,0.2,0.5,0.4,0.5,0.7c0,0.1-0.1,0.3,0,0.5
			c0.6,0,1.2-0.2,1.8-0.3c0.4-0.1,1-0.4,1.4-0.4c0.5,0.1,0.8,0.7,1.1,1.1c0.6,0.7,1.6,1,2.4,1.2c0.4,0.1,1.4-0.1,1.6,0.3
			c0.1,0.2,0,0.6,0,0.8c0,0.3,0.1,0.6,0.1,0.9c0.3-0.3,0.7-0.8,1-1.1s0.5-0.9,0.9-1.1c0.4-0.2,0.9-0.1,1.3-0.3
			c0.4-0.2,0.6-0.3,0.8-0.7L210.8,237.8z"/>
		<path class="st9" d="M277.6,17.6c0-0.2-0.1-0.3-0.2-0.5c-0.6-0.9-0.3-3.5-0.3-5.2c-0.1-1.7-1.5-3.6-1.9-4.1
			c-0.5-0.5-1.6-2.8-2-3.8s-5.1-2.6-11.5-3.4s-12,1.7-15.6,4.7c-3.6,3-6.1,11.5-6.1,11.5c-1.4,0.5-1,2.6-0.5,3.5
			c0.4,0.9,2.4,2.3,2.4,2.3s-0.6,1.7-0.4,2.5c0.2,0.8,0.1,1.4-0.1,1.9c-0.3,0.5-1.2,3.2-1.6,4c-0.4,0.8,0,1.6,0.5,1.8
			c0.5,0.2,2.4-0.1,2.4-0.1s0.6,0.8,0.5,1.2c0,0.4,0,1.6,1.2,1.7c0,0-0.3,0.6-0.2,0.9c0.1,0.3,0.4,0.6,0.7,0.9
			c0.2,0.2,0.2,0.7,0,1.3c-0.2,0.6-0.8,3.9,1.9,3.7c2.7-0.1,3.7-0.4,3.7-0.4"/>
		<path class="st9" d="M241.9,22.6c0,0,1.9,1.1,3.9,1.7c2,0.7,5.4,1.1,7.3,0.5c1.9-0.6,5.2-1.8,8.3-0.3"/>
		<path class="st9" d="M258.6,28.1c-0.7-0.3-1.3,0.4-1.3,0.4s-0.3,0.7,0.1,1.3"/>
		<path class="st9" d="M257.3,28.5c0,0,0.4,0.2,0.8,0.5"/>
		<path class="st9" d="M247.1,24.8c0,0,1.7,7.1,2.7,10.2c0,0-0.9,1.6-0.5,2.8c0,0-0.2,1,0.1,1.2c0,0,0.3,2.1,0.9,2.9"/>
		<path class="st9" d="M253.1,35c0,0-0.3-0.4-1.9-0.5l-2.4-9.5"/>
		<path class="st9" d="M256.3,27.9c0,0,0.9-1.4,2.3-1c0.2,0.1,0.4,0.1,0.7,0.3"/>
		<path class="st9" d="M241.9,25.8c0,0,0.3,0.5,0.8,0.8c0.5,0.3,1,0.3,2.2,0.8s1.3,0.3,0.5-0.3s-0.7-0.7-1.4-0.9
			c-0.7-0.2-1.3-0.8-1.4-1.2C242.5,24.6,241.6,25.4,241.9,25.8z"/>
		<path class="st9" d="M244.4,35.5c0,0,1.2-0.4,1.6-0.1"/>
		<path class="st9" d="M243.2,27c0,0,0.3,0.5,0.6,0.6l-0.3,0.4c0,0,0.9,0.4,2,0.3c0,0-0.4,0.5-1.6,0.3"/>
		<path class="st9" d="M242,32.4c0,0,0.7-0.1,0.9,0.1c0.2,0.2,0.9,0.1,0.6-0.6c0,0,0-0.7-0.8-0.9"/>
		<path class="st9" d="M242.6,17.1c0,0,1.5-2.8,2.1-3.4s0.8-0.9,0.3-1.1s-1.1-0.5-1.9,0.7c-0.8,1.2-1.6,2.5-1.8,2.8
			c-0.2,0.4-0.2,0.7,0,0.8C241.6,17.2,242.2,17.7,242.6,17.1z"/>
		<path class="st9" d="M243.3,13c0,0-0.6,0-0.8,0.1c-0.2,0-0.6,0.9-0.6,2.2"/>
		<path class="st9" d="M245.1,19c0,0,0.7-1.7,0.9-2.2c0.2-0.4,0.3-0.7,0.9-0.4c0.6,0.3,6,2.1,7.2,2.3c1.2,0.2,1.8,0.7,0.7,0.8"/>
		<path class="st9" d="M249.4,13.2c0,0-0.5-0.1,0.1-0.8c0.6-0.6,0.8-1.6,2-0.6c1.2,1,5.4,3.8,6.6,4.4c1.2,0.7,2.3,1.4,1.4,1.5"/>
		<path class="st9" d="M255.1,9.6c0,0-0.5-0.6-0.1-1c0.5-0.3,1.6-1.2,2-0.3c0.5,0.9,2.4,3.6,3.6,4.8c1.2,1.2,2.9,2.4,2.5,2.8"/>
		<path class="st9" d="M261.5,7.6c0,0-0.6-0.6,0.1-0.7c0.7-0.1,1.9-0.5,2.2,0.5c0.2,1,1.1,3.3,1.7,4.6c0.6,1.3,0.7,1.5,0.5,1.5"/>
		<path class="st9" d="M267.8,8.2c0,0,0-0.5,0.5-0.5c0.4,0,1.8,0.2,1.4,1.3c-0.3,1.1-0.8,2-1.3,1.7"/>
		<path class="st9" d="M273.5,4.8c0,0-0.6,0.7-1,1.7c-0.4,1-0.6,2-0.4,2.3c0.2,0.3,0.6,1,0.9-0.1c0.4-1,1.5-1.9,1.5-1.9"/>
		<path class="st9" d="M258.7,22.9c0,0,2.1-1.6,3.9-2.4c1.8-0.8,4.2-1.5,6.4-2.8c2.9-1.7,6.8-4.8,7.6-7.8"/>
		<path class="st9" d="M274.1,15.7c0,0-0.3-0.4,0.2-0.9c0.5-0.6,0.8-1.3,1.2-0.4c0.4,0.9,0.8,2.5,0.6,3.2"/>
		<path class="st9" d="M249.6,28.1c0,0,1.5,1.3,1.7,2.4c0.2,1.1,1.8,1.7,2.3,0.7c0.6-1.1,0.5-3.6,3.1-3.8"/>
		<path class="st9" d="M209.3,116.1c0,0-1.5,1.6-0.9,3.7s2.5,4.9,3.8,5.3"/>
		<path class="st9" d="M198.2,125.2c0,0,1.8,0.4,3.1,0.6c1.2,0.2,1.6,0.4,2.4,0.3"/>
		<path class="st9" d="M246.2,126.2c0,0-0.1,1.1,3,4.1s5,4.6,6.7,7.5c1.7,2.9,4.2,5.2,5.7,6.8c0,0,5,5.6,5.1,6.7
			c0,0,0.2,0.6,0.6,0.3c0.4-0.4,1.6-1.7,2.6-2.6c1-0.9,3.1-2.4,2.5-4.5c0,0,5.8-2.6,9.2-4c3.4-1.3,12.8-7.4,16.2-19.3"/>
		<path class="st9" d="M295.6,121c-2.2,7.1-9,13.6-12.7,16c-3.7,2.4-11.8,5-11.8,5s-3.7-4.9-7.5-6.8c-3.8-2-8.2-4.7-9.9-6.2
			c-1.7-1.6-5.2-4.7-3-5.8"/>
		<path class="st9" d="M268.8,150c0,0,3.9,4.1,8.2,6.4c4.3,2.3,12,3.4,13.8,2.8"/>
		<path class="st9" d="M272.5,145.6c0,0,3.4,2.7,9.1,4.5c5.7,1.8,10.4,0.1,11.5-0.7c0,0,1.6-3,2.6-5.9c1-2.9,4.7-5.9,5.2-21.8"/>
		<path class="st9" d="M232.9,172.8c0,0-2.4-2-5.8-2.8s-14.2-5.1-9.5-1.8"/>
		<path class="st9" d="M190.4,216.2c0,0-1.2,2.3-0.6,2.8c0.5,0.5,3.8,2.4,4.8,2.9c1,0.4,3.6,2.5,7.1,2.5s10.1-0.9,12-3.6"/>
		<path class="st9" d="M177.7,226.2c0,0,2.3-1.1,5.4-3.3c3.1-2.3,4.7-3.9,4.7-3.9"/>
		<path class="st9" d="M178.2,229.1c0,0,4.4-3.2,5.9-4.5c1.6-1.2,5.9-5.4,5.9-5.4"/>
		<path class="st9" d="M197.4,236.4c0,0,4.8-3.3,5.9-4.1c1.1-0.8,6.4-3.9,7-3.9"/>
		<path class="st9" d="M211.4,233.1c0,0-1.8-0.1-2.5,0.2c-0.8,0.3-2.1,0.5-1.8,0s1.3-3.3,1.1-6s0.9-3.9,0.9-3.9"/>
		<path class="st9" d="M202.2,237.8c0,0,8.3,1.8,8.6,0"/>
		<path class="st9" d="M182,232.6c0,0,1.8,1,7.1,1.6c5.3,0.5,7.5,1.8,7.5,1.8"/>
		<line class="st9" x1="193.1" y1="213.2" x2="198.9" y2="215.7"/>
		<path class="st9" d="M179.4,230.8c0,0-2-0.6-3.2-0.4"/>
		<path class="st9" d="M292.8,234c0,0,3.6-2,6.4-3.1c2.9-1.2,13.2-4.7,11-2.4"/>
		<path class="st9" d="M304.7,235.1c0,0-0.8,0-1.3,0.9c-0.5,0.8-3.1,4.2-2.5,6.1"/>
		<path class="st9" d="M308.5,234c0,0,1.1,0.2,2.1,0.7s1.8,0.9,1.8,0.9"/>
		<path class="st9" d="M302.3,231.3c0,0-0.3-1.5,1.3-1.9c1.6-0.5,3-0.3,3.4,0.7l2.5,6.2l1.3,2.7c0,0-3.8,0.8-4.7,1.9L302.3,231.3z"
			/>
		<path class="st9" d="M298.2,239.9c0,0,1.6,0.3,2,0.3s1.8,0.7,2.2,1.5c0.3,0.8,0.7,1.5,0.7,1.5"/>
		<path class="st9" d="M313.1,245c0,0,1.8,0.3,2.5,0.3"/>
		<path class="st9" d="M295.6,239.7c0,0-1,0.5-1.6,1.2"/>
		<path class="st9" d="M293.3,237.4c0,0-0.8-0.3-1.5,0.1"/>
		<path class="st9" d="M289.5,181.5c0,0-5.6,0.6-9.5,2.7c-3.9,2.1-11.9,5.6-7.4,1.8"/>
		<path class="st9" d="M287.3,179.2c0,0-4.3,0.8-6,1.3c-1.7,0.5-0.2-2,1.1-2.5"/>
		<path class="st9" d="M302.1,101.2c0,0-3.7,0.2-6.6,0.4c-2.9,0.2-10.8,1.5-3.4,1.3"/>
		<path class="st9" d="M258.4,95.8c0,0,6.2,0.3,8.3,0.9c2.2,0.6,3.1,1.1,4.5,0.7c1.4-0.3,11.9-2.2,14.9-2.1c3,0.1,11.8-1.4,3.7-1.5"
			/>
		<path class="st9" d="M259.4,82.3c0,0,3.1,0.3,4.3,1c1.2,0.7,0.9,1.8,2.6,2.2"/>
		<path class="st9" d="M302.3,78.1c0,0,2.3,2.3,3.5,3.1c1.2,0.9,5.6,1.3,1.1-0.9"/>
		<path class="st9" d="M266.7,60.7c0,0,3.6-2.3,4.9-5.6"/>
	</g>
	<path class="st0" d="M259.3,115.2l-37.4,8.5c0,0,2-1.2,2.8-1.8c0.8-0.6,1.6-1.3,1.6-1.3l32-7.3c0,0,0.1,0.5,0.2,0.8
		c0.2,0.3,0.3,0.5,0.4,0.6C259,114.7,259.3,115.2,259.3,115.2z"/>
	<path class="st5" d="M22.5,96.9c0.6-0.4,0.9-1.4-0.3-2.8c-1.2-1.3-3.3,0.6-3.3,0.6v0.4l-2.7,1.6L16,96.6l-0.2,0.2l-0.1-0.1
		c-0.8,0.5-0.7,1.2-0.7,1.2s0.1,0.6,0.6,0.8l0.3,0.4c0,0-0.3,0.5-0.4,0.8c0,0-1.3,0.2-1.9-1.5c0,0-0.3-1.7,1.3-2.8
		c0,0,0.3-0.1,0.2-0.3c-0.1-0.2,0-0.3,0-0.3l2.5-1.5l0.4,0.1l0.4-0.2c0.6-0.4,1.1-0.6,1.3-0.7c0.6-0.3,2.3-0.8,3.8,0.9
		c1.5,1.7,0.9,3.5,0,4.3"/>
	<line class="st3" x1="17.8" y1="93.7" x2="18.9" y2="95.1"/>
	<path class="st10" d="M26.9,92.9c0,0-0.4,0.3-0.6,0.8s0.5,1.4-1.3,2.7"/>
	<path class="st10" d="M25.2,96.4c-0.5,0.3-1,0.4-1.5,0.5c-1.4,0.2-1.7,0.3-2.1-0.5c-0.2-0.4,0.1-0.6,0.1-0.8
		c-0.3,0-0.6-0.1-0.8-0.4c-0.6-0.7,0-1.6,0.3-1.9c0.9-1.2,2.5-1.6,3.7-1.5c0.1,0,0.1,0,0.2,0c0,0,1.6,0.1,2,2.2
		c0.4,2.2-0.6,3.7-2.3,2.7"/>
	<path class="st11" d="M21.7,95c0.3-0.5,0.9-1,0.9-1s2.1-1.2,2.7-0.2c0,0,0.7,0.8,0.7,1.6"/>
	<line class="st11" x1="22.9" y1="95.2" x2="23.5" y2="95"/>
	<path class="st5" d="M22.2,94.4c0,0,0.2,0.2,0.4,0.5c0.2,0.3,0.4,0.5,0.4,0.5l0.7-0.3L23,93.8"/>
	<path class="st12" d="M23,95.3c0,0-0.6,0.3-1.3,0.2"/>
	<path class="st10" d="M30.2,104.3c0,0-0.5-0.1-1,0.1s-0.7,1.3-2.9,0.9"/>
	<path class="st10" d="M26.6,105.4c-0.5-0.2-1-0.4-1.4-0.7c-1.1-0.8-1.4-1-1.1-1.9c0.1-0.4,0.5-0.3,0.6-0.5
		c-0.2-0.2-0.3-0.5-0.3-0.9c0.1-1,1.2-1.1,1.5-1.1c1.5-0.1,2.9,0.7,3.7,1.6l0.1,0.1"/>
	<path class="st11" d="M25.2,102c0.6-0.2,1.4-0.1,1.4-0.1s2.3,0.7,2,1.8c0,0-0.1,1.1-0.6,1.6"/>
	<path class="st5" d="M25.9,102l-0.1,1.1l0.7,0.3L27,102C27,102.1,26.3,101.9,25.9,102z"/>
	<path class="st10" d="M29.7,102.2c0,0,0.8,1.2,0.3,3c-0.5,1.9-3.2,2.6-5.7,0.1c0,0,1.1-0.1,1.3-0.3c0,0,1.7,0.7,2.2,0.2
		s0.8-1.8,0.4-2.2"/>
	<path class="st12" d="M25.8,103.2c0,0-0.6-0.2-1.1-0.8"/>
	<path class="st10" d="M27.3,102.3c0,0,0.4,0.2,0.5,0.3c0.2,0.1,0.5,0.4,0.5,0.6c0,0.1,0.1,0.4,0.1,0.4c-0.1,0.4-0.2,0.8-0.4,1.3
		c-0.1,0.3,0,1.1,0.5,2l-2.1-0.4c-0.3-0.9-0.3-1.7,0-2.3C27,102.8,27.3,102.3,27.3,102.3"/>
	<path class="st0" d="M30.2,103.5c0.4,0.2,1,0.6,1.6,1.3c0.5,0.6,1.1,1.8,1.9,3.2c2.3,4.2,5.7,10.5,11.4,14.7
		c4.2,3.2,9.4,6.2,15,9.3c10.7,6.1,22.9,13.1,30,23c4.3,5.9,8.7,15.5,13.9,26.5c7.8,16.5,17.4,37.1,30,52.4
		c11.2,13.6,21.6,17.8,30.7,21.5c7.9,3.2,15.4,6.2,22.3,14.8c4.9,6.1,9.1,15.8,13.5,26c6.1,14.1,12.5,28.7,21.8,37.2
		c7.5,6.8,14.7,10.7,21,14.2c7.3,4,13.6,7.4,18.3,14.2c3.6,5.2,6.8,11.8,10,18.2c4.8,9.8,9.4,19,15,23.6
		c1.7,1.4,42.7,35.9,34.6,97.1c-6.5,48.9-17.5,114.1-32.7,146.8c-0.2,0.4,0,1,0.4,1.2c0.1,0.1,0.3,0.1,0.4,0.1
		c0.3,0,0.7-0.2,0.8-0.5c15.3-32.8,26.3-98.2,32.8-147.3c8.3-62.2-33.5-97.3-35.2-98.7c-5.3-4.3-9.8-13.4-14.5-23
		c-3.2-6.5-6.5-13.1-10.1-18.4c-4.9-7.1-11.4-10.7-18.9-14.7c-6.3-3.4-13.3-7.2-20.6-13.9c-9-8.3-15.3-22.7-21.3-36.6
		c-4.5-10.4-8.7-20.1-13.8-26.4c-7.2-9-14.9-12.1-23.1-15.4c-9.4-3.8-19.1-7.7-30-20.9c-12.4-15.2-22-35.6-29.8-52
		c-5.2-11.1-9.8-20.7-14.1-26.8c-7.3-10.2-19.7-17.3-30.6-23.5c-5.5-3.1-10.7-6.1-14.8-9.2c-5.3-4-8.7-10.1-10.9-14.2
		c-0.9-1.6-1.5-2.8-2.1-3.5c-1.7-2.1-3.4-2.2-4.1-2.2c0,0,0.6,0.4,0.8,0.9C30.1,102.8,30.2,103.5,30.2,103.5z"/>
	<path class="st10" d="M276.2,455.8"/>
	<path class="st10" d="M272.6,456.5"/>
	<path class="st10" d="M275.2,454.4"/>
	<path class="st10" d="M276,450.2"/>
	<path class="st1" d="M286.7,468.9c3.4-0.4,5.9-3.8,8.3-5.7c1.2-1,2.1-1.3,3.2-2.5c2.6-2.9,5.6-5.5,6.8-9.1"/>
	<g>
		<path class="st8" d="M282.3,435.8c0,0,3.4-2.1,5.6-4c2.3-1.9,8.5-5.5,8.5-5.5s3.9-2.9,3.3-6.8v-0.1c-0.2-1.2-0.4-2.3-0.7-3
			c0,0,0.1-0.5,0.2-1.3V415c0,0,0.4-1.4-2.3-2.1c-2.6-0.7-5.4-3.5-9.1-1.3c-3.8,2.3-5,3.4-5.3,4c-0.4,0.6-3.8,4.4-4.3,5.8
			s-6.6,5.8-7,7.6c-0.4,1.8-0.9,2-1.2,2.4c-0.3,0.3-5.4,5.5-5.4,5.5s-1.5,1.2-3.5,0.7s-3.9-1.4-3.9-1.4h-0.1
			c-1.8-0.1-1.2-0.4-2.3-0.4c-1.3-0.1-2.4-0.8-5-0.4c-2.5,0.4-3.6,1.2-3.9,1.7c-0.4,0.4,3.5,2.3,3.5,2.3h0.1c0.3,0,0.4,0.1,0.4,0.1
			s3.4,2,4.5,2.5c1.1,0.5,4.6,1.6,5.6,1.7s4.7,0.8,5.5,0.5s4.6-1.6,7.3-3.4c2.7-1.8,6.4-3.6,7-3.8
			C280.5,436.4,282.3,435.8,282.3,435.8z"/>
		<path class="st8" d="M249.4,439.1c-1.2-0.2-3.7-0.5-4.7-0.7c-0.3-0.1-0.7-0.2-1.1-0.3h-0.1c-1-0.3-1.4-0.7-1.3-1.2
			c0.3-1.8,9.1-3.9,12.2-3c2,0.6,5.3,2,5.3,2h0.1c-0.4,0-0.8,0.1-1.3,0.1c-3.5,0-2.3-0.4-3.6-0.5s-2.4-0.8-5-0.4
			c-2.5,0.4-3.6,1.2-3.9,1.7C245.7,437.3,249.5,439.2,249.4,439.1h0.2H249.4c0.1,0-3.8-1.8-3.4-2.3c0.4-0.4,1.4-1.3,3.9-1.7
			c2.5-0.4,3.6,0.3,5,0.4c1.1,0.1,0.5,0.3,2.3,0.4h0.1"/>
	</g>
	<g>
		<path class="st4" d="M305.9,434.8c0,0,1.3,4.7,2.2,6.9c0.9,2.3,1.3,6.8,1.8,8.2c0.5,1.4,1.8,9.8,2.1,10.6l-5.8-4.1
			c0,0-1.3-4.2-1.6-7.2c-0.3-3-0.7-9.2-1.7-9.9"/>
		<path class="st4" d="M299.1,416.3c0,0,1.2-4.8-0.9-8.5s-4.6-7.9-6.5-9.1c-1.8-1.2-2-1.2-4.4-2.8c-2.4-1.6-4.3-6.2-6.1-6
			c-1.9,0.2-8.9,2.2-9.8,2.9c-0.9,0.8-4.6,3.6-8.3,5.3c-3.7,1.8-5,4.5-5,4.5l-5.1,8.3c0,0-3.7,4.2-4.4,3.9c-0.7-0.3-2.2,0.1-3.3-0.7
			c-1.1-0.7-6.5-2.9-8.8-3.7c-2.3-0.8-7.1-0.4-8.8-0.7c-1.7-0.2-2.7,0.3-2.7,0.3l0.3,3c0,0-1,3.5-0.8,4s-0.3,4,2.2,6.1
			c0,0-3.4-1.4-5.9,0c-2.6,1.4-4.2,6-3.3,8.4c0.9,2.5,5.4,5.5,9.7,4.2l5,2.4c0,0,2.8,8.5,4.5,11.8s10.1,15.5,21,15.1
			c0,0,1.8,2.6,3.7,3.4s4.1,0.6,7.2,2.2c3.1,1.6,4.6,2.5,4.6,2.5l1.7-2.3c0,0-3-1.6-5.6-2.7s-5.6-2-6.7-3c0,0,1.7-0.2,4.4-0.8
			c2.7-0.6,6.3-1.3,9.1-3c2.8-1.7,4-4.7,2.6-4.2c-1.4,0.6-3.6,3.4-9,4.3c-5.3,1-13.6,0.2-18.1-4.2c-4.5-4.4-9.3-16.4-11.2-20.1
			c0,0,3.1,1,4.3,1.3c1.3,0.3,5.3,0.8,5.3,0.8s3.4,2,4.5,2.5s4.6,1.6,5.6,1.7s4.7,0.8,5.5,0.5c0.8-0.3,4.6-1.6,7.3-3.4
			c2.7-1.8,6.4-3.6,7-3.8c0.6-0.3,2.4-0.9,2.4-0.9s2.1,3,2.7,3.4c0.7,0.4,3.1,3.5,3.1,3.5s2.6,0.1,3.9,0.1s4.6-1.9,5.8-2.1
			c1.2-0.1,3.6-1.3,3.9-1.3c0.3,0,4.2,0.5,4.3-0.6c0.2-1-0.1-6.4-1.9-8.8c-1.8-2.5-4.1-5.5-4.1-5.5S300,418.2,299.1,416.3z"/>
		<path class="st3" d="M282.3,435.8c0,0,3.4-2.1,5.6-4c2.3-1.9,8.5-5.5,8.5-5.5s1.4,2.6,2.6,3.7c1.1,1.1,2,1.5,2.7,2.3
			c0.7,0.7,1.5,1.7,2,2.8c0.5,1.1,1.5,3.7,1.3-0.1c-0.2-3.8-2-4.8-2.9-6"/>
		<path class="st3" d="M296.5,426.2c0,0,3.9-2.9,3.3-6.8"/>
		<path class="st3" d="M283.9,434.7c0,0,2.9,2.5,4.2,3.5s5.1,4.2,5.6,4"/>
		<path class="st3" d="M297.4,427.8c0,0,2.9-1.3,2.8-3.4"/>
		<path class="st3" d="M299.1,416.3c0,0-4.3,6.1-5.8,7.9c-1.6,1.8-7.5,9.3-13.3,12.4"/>
		<path class="st3" d="M299.3,414.9c0,0,0.4-1.4-2.3-2.1c-2.6-0.7-5.4-3.5-9.1-1.3c-3.8,2.3-5,3.4-5.3,4c-0.4,0.6-3.8,4.4-4.3,5.8
			s-6.6,5.8-7,7.6c-0.4,1.8-0.9,2-1.2,2.4c-0.3,0.3-5.4,5.5-5.4,5.5"/>
		<path class="st3" d="M249.5,439.2c0,0-3.9-1.8-3.5-2.3c0.4-0.4,1.4-1.3,3.9-1.7c2.5-0.4,3.6,0.3,5,0.4c1.3,0.1,0.2,0.4,3.6,0.5
			c3.5,0,3.6-0.9,4-3c0.4-2,0.9-1.8-0.1-4.7c-1-2.8-4-6.4-4.2-6.8c-0.2-0.4,5.4-9.6,5.4-9.6l-1.9-3l-0.9,0.1l-0.7,0.1l-1.8,3.2
			l0.1,1.8l-0.7,0.5l-0.1,0.8l-1.2,1.9c0,0-4.7-2.8-7.3-2.8"/>
		<path class="st3" d="M263.7,412c0,0,3.3-5.3,5.4-7.1c2.1-1.9,9.6-3,9.6-3l-2.8-3.6c0,0-8.9,1.2-14,10.7"/>
		<path class="st3" d="M278,401c0,0,6.4-4,11.7-3.5"/>
		<path class="st3" d="M285.7,394.4c0,0-5.5,0.8-10.7,4"/>
		<path class="st3" d="M258.4,414.2c0,0,0.3,1.6,0.7,2.1c0.5,0.6,1.6,0.5,1.6,0.5"/>
		<path class="st3" d="M257.7,415.5c0,0-0.1,1.1,0.6,1.5c0.7,0.4,2.5-0.3,2.5-0.3"/>
		<path class="st3" d="M258.2,421.6c0,0-0.4-2.5-1.8-4.2"/>
		<path class="st3" d="M259.8,436c0,0-3.4-1.4-5.4-2c-3.8-1.2-16.3,2.3-10.9,4.1"/>
		<path class="st3" d="M242.2,437.1c0,0-3.1-1.4-2.9-4.7c0.2-3.3,0.9-4.6,4.5-5c3.5-0.4,7.8,0.2,8.9,0.8c1.1,0.6,1.1,1.1,1.5,1.1
			c0.3,0.1,2.7,1.9,2.7,1.9s3.9,6.3,5.6,2.5"/>
		<path class="st3" d="M240.4,437.2l-3.6-6c0,0-0.2-1.1-0.6-1.2c-0.4-0.2-0.7-0.7-1.2-0.3c-0.5,0.3-4,3-3.8,3.6s0.9,5,0.9,5"/>
		<path class="st3" d="M231.5,434.9c0,0-1.2-1.2-2-1.2s-5.3-1.5-6.8-2.7s-3-3.6-1.8-3.9s1.5-0.5,1.5-0.5c-1.2,0.7-1,2.1,1,3.4
			c2,1.2,6.8,1.3,7.3,1.3c0.5-0.1,1.6,0.5,1.6,0.5"/>
		<path class="st3" d="M232.6,430.3c0,0-1.6-0.2-2.3-0.2c-0.7,0-4.2-0.1-4.9-0.5s-3.8-1-1.8-2c2.1-1,6.3-0.9,6.3-0.9
			S232.5,429.2,232.6,430.3z"/>
		<path class="st3" d="M222.4,426.5c0,0,1.9-1,6.6-1.1l-2.4-2.2"/>
		<path class="st3" d="M244.9,426.9c0,0,0.6-5.7-6.5-8.4c-7.1-2.7-11.4-3.1-13.3-6.3"/>
		<path class="st3" d="M281.1,436.2c1.8,2.6,1.7,4.2,0.7,6.6s-0.7,6.4-0.9,11.1c-0.2,4.7-2.2,3.2-2.2,3.2l-1.4,0.9
			c0,0,0.9-1.4,1.5-2.7c0.6-1.2,0.1-4.3,0.6-7.5c0.5-3.1,2.4-8.4,0-11.1"/>
		<path class="st3" d="M257.6,465.1c0,0-4.8-2.2-6.8-3.2s-4.7-2.6-5.6-4.2c-1-1.7-5.6-3.4-7.6-6.8c-2-3.3-4.5-9.9-4.5-9.9"/>
	</g>
	<path class="st0" d="M268.7,521.9l-5.7-54c-1.3-12.2-3.3-27.2-10.1-39.8c-0.5-0.8-0.5-0.8-1.3-2.1c-0.9-1.3-3-4.5-3-4.5
		S22.6,114.6,20.2,110.9c-0.6-0.9-1.3-1.4-1.5-2c-0.3-1.4-0.1-2-0.1-2s0,0,0.2-0.1s0.3-0.3,0.3-0.3c0.8,0.7,1.7,1.8,2.8,3.4
		c2.5,3.7,225.7,306.1,228.4,310.6c0,0,1.9,2.7,2.5,3.7c0.7,1.1,1.8,2.8,1.8,2.8l0.1,0.1c7,13,9,28.2,10.3,40.6l5.5,50.9v0.4
		c0,0-1.1,1.7-1.2,2.1c-0.2,0.4-0.4,1.2-0.4,1.2L268.7,521.9z"/>
	<path class="st0" d="M277.2,513c-0.8-9-2.3-25.5-4-47.1c-2.3-30.6-11.2-42.3-17.7-50.9c-0.7-0.9-1.3-1.7-1.9-2.6
		c-6.2-8.6-217.2-298-225-306.3l-1.7,1.2c7.7,8.2,218.7,297.7,225,306.3c0.6,0.8,1.3,1.7,2,2.6c6.3,8.4,15,19.9,17.3,49.8
		c1.7,22.8,3.3,39.9,4.1,48.5L277.2,513z"/>
	<g>
		<g>
			<path class="st0" d="M285.8,655.4l-0.2,1.2c-0.1,0.7-0.3,1.3-0.4,1.8c-0.2,1.3-0.5,2.2-0.8,2.8c-0.2,0.6-0.5,1-0.7,1.2l-0.3,0.2
				l0.3,1.7l0.7-0.3c0.6-0.3,1.2-1,1.6-2.1c0.4-0.8,0.6-1.9,0.9-3.2c0.4-2.2,1.3-5.9,1.9-7.4l0.7-1.6l-1.6-0.7l-0.3,0.6"/>
		</g>
		<path class="st0" d="M289.2,646"/>
		<path class="st0" d="M289.2,646"/>
		<path class="st0" d="M296.8,636.7c-0.4-0.2-0.9,0-1.1,0.4c-1,2.1-3.1,5.2-4.5,7c-0.9,1.1-0.7,0.9-1,1.3c-1.2,1.8-1.3,2-1.5,2.5
			v0.1l0,0c0.2-0.1,0.4-0.3,0.7-0.4c0.3-0.1,1.3-0.3,1.5-0.5l0,0l0,0l0,0c0,0,0,0,0.1,0c0.1-0.1,0.2-0.2,0.3-0.3s0.1-0.1,0.2-0.2
			c0.3-0.5,0-0.2,1-1.3c1.6-1.9,3.6-5.1,4.7-7.3C297.3,637.5,297.2,637,296.8,636.7z"/>
	</g>
	<g>
		<path class="st0" d="M288.5,652.1c-0.1,0-0.3,0-0.4-0.1c-0.8-0.1-1.8-0.2-2.5-0.1c-0.2,0-0.4,0-0.5,0.1c0,0,0,0-0.1,0
			c-0.3,0.1-0.4,0.2-0.6,0.6c-0.2,0.3-0.1,0.7,0.1,1c0.3,0.3,0.6,0.4,0.6,0.4l0.2-0.4c0.2-0.2,0.4-0.2,0.7-0.1l0,0
			c0.5,0,1.3,0.1,1.6,0.2c0.2,0,0.4,0.1,0.6,0.1c0.7,0.1,1.5-0.6,1.9-1.6c0-0.1,0.1-0.2,0.1-0.3
			C289.9,652.1,289.3,652.3,288.5,652.1z"/>
		<g>
			<path class="st0" d="M287,649.4c0-0.1,0-0.2,0-0.3c0-0.3,0-0.6,0-0.8l0,0c-0.1,0.1-0.2,0.1-0.3,0.2l0,0l0,0l0,0l0,0l0,0l0,0l0,0
				l-0.1,0.1l0,0l0,0l0,0l0,0l0,0l0,0l0,0l0,0c0,0,0,0,0,0.1c-0.2,0.3-0.2,0.7-0.2,1.1c0.4,0,0.7,0,1.2,0
				C287,650,287,649.7,287,649.4z"/>
			<g>
				<path class="st0" d="M289.4,650.5C289.4,650.5,289.5,650.5,289.4,650.5c0.5,0,1.2,0,1.7-0.2l0,0c0,0,0,0,0.1,0
					c1-0.4,1.1-1.2,1.1-1.6c0-0.2-0.1-0.3-0.2-0.5c-0.2,0.2-0.4,0.4-0.8,0.5c-0.5,0.2-1,0.3-1.5,0.4c-0.4,0.1-0.9,0.1-1.1,0.2l0,0
					c0,0.4,0.1,0.8,0,1.2h0.1C289,650.5,289.2,650.5,289.4,650.5z"/>
				<path class="st0" d="M291.1,650.7c0-0.1,0-0.3,0-0.4l0,0c-0.4,0.2-1.2,0.2-1.6,0.2h-0.1c-0.2,0-0.4,0-0.6-0.1h-0.1
					c-0.1,0-0.1,0-0.2,0l0,0c-0.1,0-0.1,0-0.2,0h-0.1h-0.1H288c-0.1,0-0.1,0-0.2,0l0,0c-0.1,0-0.2,0-0.3,0l0,0l0,0
					c-0.1,0-0.2,0-0.2,0l0,0c-0.1,0-0.2,0-0.3,0c-0.4,0-0.8,0-1.2,0c-0.2,0-0.4,0-0.5,0.1l0,0c-0.4,0.1-0.7,0.5-0.7,1
					c0,0.4,0.3,0.7,0.3,0.7l0,0c0,0,0,0,0.1,0s0.3-0.1,0.5-0.1c0.7-0.1,1.7,0,2.5,0.1c0.1,0,0.3,0,0.4,0.1c0.8,0.1,1.4,0,1.8-0.3
					C290.8,651.5,291,651,291.1,650.7z"/>
			</g>
		</g>
	</g>
	<g>
		<g>
			<path class="st0" d="M288.7,649.3L288.7,649.3c0-0.1,0-0.1,0-0.2c0-0.4,0-0.7-0.1-1V648c0-0.3,0-0.5,0-0.8l0.5-1.2
				c-0.2-0.1-0.9-0.1-1.3,0.2c-0.8,0.5-0.9,1.3-0.9,2.1c0,0.3,0,0.5,0,0.8c0,0.1,0,0.2,0,0.3c0,0.3,0,0.6,0,0.9c0.1,0,0.2,0,0.3,0
				l0,0c0.1,0,0.2,0,0.2,0l0,0c0.1,0,0.2,0,0.3,0c0.3,0,0.6,0.1,0.9,0.1C288.7,650.1,288.7,649.7,288.7,649.3z"/>
		</g>
	</g>
	<g>
		<path class="st0" d="M292.5,647.1c0-0.5-0.4-0.8-0.9-0.8l0,0c-0.1,0.1-0.1,0.1-0.2,0.2c-0.1,0.1-0.1,0.2-0.2,0.2
			c-0.1,0.1-0.2,0.2-0.3,0.3c0,0,0,0-0.1,0l0,0l0,0l0,0c-0.2,0.1-1.2,0.3-1.5,0.5c-0.3,0.1-0.5,0.2-0.7,0.4v0.1c0,0.3,0,0.7,0.1,1
			v0.1c0.2,0,0.6-0.1,1-0.1c0.1,0,0.1,0,0.2,0c0.5-0.1,1-0.2,1.5-0.4c0.3-0.1,0.6-0.3,0.8-0.5C292.4,647.8,292.5,647.4,292.5,647.1z
			"/>
	</g>
	<path class="st0" d="M286.9,653.5c-1.6,3.1-3.4,4.3-3.4,4.3l0.1-2c0.8-0.7,1.6-1.9,1.6-1.9s0.2-0.5,0.5-0.5c0.3,0,0.7,0,0.8,0
		C286.5,653.5,286.9,653.5,286.9,653.5z"/>
	<path class="st0" d="M282.8,656.1c0,0-1.3,0.8-1.7,1v2.1c0,0,0.4-0.3,0.5-0.2c0,0,0.7-0.5,1-0.7L282.8,656.1z"/>
	<path class="st0" d="M280.5,657.6c0,0-0.8,0.8-0.8,1.6l0.5,0.8l0.3-0.1l0.2-0.4L280.5,657.6z"/>
	<line class="st3" x1="15.3" y1="95.6" x2="16" y2="96.7"/>
	<path class="st5" d="M23.6,97.9c0,0-0.4,0.4-0.5,0.5c0,0-1.1-0.3-1.3-0.3C21.6,98,21.4,98,21.4,98s0.9-0.5,1-1c0,0,0.7,0,1.1-0.1
		c0.5-0.1,0.8-0.1,0.8-0.1S23.8,97.6,23.6,97.9z"/>
	<path class="st5" d="M20.3,99.7c0,0-1,0.5-1.4,0.6l-0.7-0.8c0,0,0.5-0.4,0.8-0.3c0.4,0.1,0.5,0.2,0.5,0.2s0,0.2,0.2,0.2
		C20,99.6,20.3,99.7,20.3,99.7z"/>
	<path class="st0" d="M294,154.7c7.1,54.4,30.5,74.6,39.6,77.9c1.9,0.7,2.7,0.4,2.8,0.3c0.1-0.2-0.2-1.2-2.4-3.2c-2.3-2-4-4.2-5-6.4
		c-4.4-1.6-7-3.8-7.4-6.2c-2.1-0.5-4-2-5.6-4.4c-2.7-4.1-1.8-6.9-0.5-8.5c4-5.1,16.2-5.5,21.3-3.7c0.3,0.1,0.7,0.2,1,0.3
		c6.2-5.5,13-9.2,13.5-9.5c3.6-1.9,9.7-3.3,14.9-0.7c3.8,1.9,6.3,5.5,7.2,10.6c0.2,1.4,0.1,2.6-0.3,3.7c2.3,2.4,3.4,5.3,3.2,8.4
		c-0.2,3.1-1.7,5.7-4.5,7.8c-0.6,0.4-1.2,0.8-1.9,1.2c0.4,1,0.6,1.6,0.6,1.7c2.8,16.9-29,28.4-30.4,28.9c-13.2,5.1-41,9.3-72.5,9.3
		c-19.3,0-39.9-1.6-59.5-5.5c-45.6-9.2-50.5-34.4-54.1-52.8c-0.4-1.9-0.7-3.7-1.1-5.4c-2-9-11.5-39.5-48.2-54.3
		c-21-8.5-23.1-16.8-25.1-24.9c-1-3.9-2-7.9-5.1-12c-9.5-12.2-42.7-8.6-43-8.6h-0.1h-0.1c-5.6-0.4-7.4-3.9-7.9-5.2
		c0,0,0.6-0.2,1.1-0.2s1,0.6,1,0.6c0.7,1.2,2.4,2.8,5.8,3.1c2.3-0.3,34.5-3.5,44.5,9.3c3.4,4.4,4.5,8.6,5.5,12.6
		c2,8,3.8,15.5,24,23.6c37.5,15.1,47.2,46.3,49.3,55.5c0.4,1.7,0.7,3.5,1.1,5.4c3.5,17.9,8.3,42.3,52.7,51.3
		c51.2,10.4,110,4.4,131-3.7c0.3-0.1,31.8-11.5,29.2-26.9c0,0-0.1-0.5-0.5-1.2c-9.4,4.3-24.8,4-36.1,1.2c-0.3-0.1-0.5-0.1-0.8-0.2
		c0.9,1.5,2.1,2.9,3.7,4.3c2.5,2.2,3.5,4.1,2.8,5.4c-0.3,0.6-1.1,1.4-3.4,1c-10.7-2.1-34.3-24.3-42-76.7c0,0,0.3-0.4,0.6-1.2
		C293.5,156.1,294,154.7,294,154.7z M330.4,221.9c0.7,0.2,1.5,0.5,2.3,0.7c12.7,3.1,26.6,2.6,34.7-1c-2.3-3.5-8.2-9.2-22.9-10.8
		c-2.8-0.3-5.4-0.4-7.6-0.3c-2.3,1.8-4.7,3.6-6.9,4.9c-0.1,0.5-0.2,0.9-0.2,1.4C329.5,218.4,329.7,220.2,330.4,221.9z M323.5,217.3
		c0.5,1.4,2.2,2.7,4.7,3.8c-0.4-1.5-0.5-3.1-0.3-4.6c0-0.1,0-0.1,0-0.2C326.4,216.9,325,217.3,323.5,217.3z M339.2,208.5
		c1.7,0,3.6,0.1,5.5,0.4c15.6,1.7,21.9,7.9,24.3,11.8c0.6-0.3,1.2-0.7,1.7-1.1c2.4-1.8,3.7-3.9,3.8-6.4c0.2-2.9-1-5.2-2.5-6.8
		c-0.1,0.1-0.1,0.1-0.2,0.2c-4.5,3.8-17.2,1.3-27.8-1.8c-1.6,1.2-3.1,2.5-4.7,3.7C339.3,208.4,339.3,208.5,339.2,208.5z
		 M329.3,211.5c-3.3,1-5.3,2.5-5.8,3.9c1.5,0,3.2-0.6,4.9-1.4C328.7,213.2,329,212.4,329.3,211.5z M329.8,201.3
		c-5,0-10.7,1.2-12.9,4c-1.3,1.7-1.1,3.8,0.6,6.4c1.2,1.9,2.6,3.1,4.2,3.5c0.7-2.5,3.7-4.8,8.8-5.9c1.5-2.6,3.6-5,5.8-7.1h-0.1
		C334.6,201.6,332.3,201.3,329.8,201.3z M331.6,211c-0.3,0.5-0.6,1.1-0.8,1.7c0.9-0.6,1.9-1.3,2.8-2
		C332.9,210.7,332.2,210.9,331.6,211z M338.2,202.8c-2,1.9-3.9,3.9-5.4,6.1c1.1-0.1,2.2-0.3,3.4-0.3c0.7-0.5,1.3-1.1,2-1.6
		c1.2-1,2.4-2,3.7-2.9C340.6,203.6,339.4,203.2,338.2,202.8z M345.9,203.3c12.8,3.6,21.8,4.3,24.7,1.8c0,0,0.1,0,0.1-0.1
		c-0.9-0.8-1.9-1.4-2.7-1.9C361.2,199.4,351.5,199.4,345.9,203.3L345.9,203.3z M356.6,198.5c4.2,0,8.6,1,12.3,3.1
		c1,0.6,1.9,1.2,2.7,1.8c0.1-0.6,0.1-1.2,0-2c-0.8-4.5-2.9-7.6-6.2-9.3c-4.3-2.1-9.7-1.2-13.2,0.7c-0.5,0.2-6.6,3.6-12.4,8.5
		c1.3,0.4,2.6,0.8,3.9,1.2c0.4-0.3,0.8-0.6,1.2-0.9C348.1,199.6,352.3,198.5,356.6,198.5z"/>
	<path class="st0" d="M214.7,125.4c-4.8,2.8-12.4,2.8-12.7,2.8l-4.2-0.5l-3-0.4L22.7,107.2V106l0.3-0.5l0.4-0.4L194.2,125l4.2,0.5
		l3.7,0.4c0,0,3,0,6.2-0.7c0,0,1.9-0.2,2.5-0.2s1.3,0,1.3,0l1.5,0.1L214.7,125.4z"/>
	<path class="st1" d="M328.2,221.1c0,0,0.4,1.4,0.8,2.3"/>
	<path class="st1" d="M330.4,221.9c0,0,0.5,1.4,1.1,2.2"/>
	<path class="st1" d="M328,216.2c0,0,0.1-1.2,0.5-2.2"/>
	<path class="st1" d="M330,215.2c0,0,0.4-1.6,0.9-2.6"/>
	<path class="st1" d="M329.3,211.5c0,0,0.6-1.3,1.2-2.2"/>
	<path class="st1" d="M331.6,211c0,0,0.7-1.2,1.3-2.1"/>
	<path class="st1" d="M336.3,202.2c0,0,0.9-0.9,1.5-1.4"/>
	<path class="st1" d="M338.2,202.8c0,0,0.9-0.8,1.5-1.4"/>
	<path class="st1" d="M371.6,203.5c0,0-0.3,1.2-1,1.7"/>
	<path class="st1" d="M373.1,204.8c0,0-0.3,0.9-1.1,1.5"/>
	<path class="st1" d="M345.9,203.3c0,0-1.3-0.4-2.2-0.6"/>
	<path class="st1" d="M344.1,204.7c0,0-1.4-0.4-2.1-0.6"/>
	<path class="st1" d="M321.7,215.2c0,0,0.9,0.3,1.8,0.3"/>
	<path class="st1" d="M321.6,217.1c0,0,1.2,0.3,1.9,0.2"/>
	<path class="st1" d="M333.6,210.7c0,0,1.9-1.4,2.7-2.1"/>
	<path class="st1" d="M336.9,210.4c0,0,1.5-1.2,2.3-1.8"/>
	<path class="st1" d="M369,220.7c0,0-0.8,0.5-1.7,0.8"/>
	<path class="st1" d="M368.3,223.1c0,0,1.2-0.6,1.6-0.8"/>
	<path class="st1" d="M336.2,233c0,0,0.8-0.1,0.7-0.8"/>
	<path class="st2" d="M280.5,631.2c0.4-0.9,1.3-1.5,2.3-1.5s1.9,0.6,2.3,1.5"/>
	<path class="st4" d="M282.8,630.3c-0.7,0-1.2,0.4-1.2,0.4c-0.1,0.1-0.2,0.1-0.4,0.2c-0.2,0.1-1.1,0.4-1.4,0.5
		c-0.3,0.1-0.3,0.1-0.4,0.2c-0.1,0.1-0.1,0.4-0.1,0.7s0.1,0.9,0.2,1.3c0.1,0.4,0.2,0.5,0.4,1c0.2,0.5,0.3,1,0.3,1s0.1,0.9,0.2,1.3
		c0.1,0.3,0.1,0.8,0.3,1.1c0.1,0.3,0.4,0.7,0.7,1c0.3,0.2,0.8,0.5,1.4,0.5l0,0c0.6,0,1.1-0.2,1.4-0.5c0.3-0.2,0.6-0.6,0.8-0.9
		c0.1-0.3,0.2-0.8,0.3-1.1s0.2-1.3,0.2-1.3s0.1-0.5,0.3-1c0.2-0.5,0.3-0.7,0.4-1c0.1-0.4,0.2-0.9,0.2-1.2s0-0.5-0.1-0.7
		c-0.1-0.1-0.2-0.1-0.4-0.3c-0.3-0.1-1.1-0.5-1.4-0.6c-0.2-0.1-0.4-0.2-0.4-0.2C284,630.7,283.5,630.3,282.8,630.3L282.8,630.3z"/>
	
		<ellipse transform="matrix(9.815552e-03 -1 1 9.815552e-03 -352.0962 908.8432)" class="st4" cx="282.9" cy="632.2" rx="0.9" ry="0.9"/>
	<path class="st3" d="M284.1,633.8c0.1,0,0.4-0.3,0.5-0.8c0.2-0.4,0.1-0.6,0.1-0.6c0-0.1-0.1-0.1-0.2-0.1c-0.1,0-0.2,0-0.3,0
		l-0.1,0.1c0,0.1,0,0.2-0.1,0.3c0,0.1-0.1,0.3-0.3,0.5l-0.1,0.1c-0.1,0.1-0.2,0.2-0.1,0.3c0,0.1,0.1,0.2,0.1,0.3
		c0,0,0.2,0.1,0.3,0.1C284,633.9,284.1,633.8,284.1,633.8z"/>
	<path class="st3" d="M281.4,633.8c-0.1,0-0.4-0.3-0.5-0.8c-0.1-0.4-0.1-0.6-0.1-0.6c0-0.1,0.1-0.1,0.2-0.1c0.1,0,0.2,0,0.3,0
		l0.1,0.1c0,0.1,0,0.2,0.1,0.3c0,0.1,0.1,0.3,0.3,0.5l0.1,0.1c0.1,0.1,0.1,0.2,0.1,0.3s-0.1,0.2-0.2,0.3c0,0-0.2,0.1-0.3,0.1
		C281.5,633.9,281.5,633.8,281.4,633.8z"/>
	<path class="st4" d="M282.7,635.7c-0.6,0-0.9-0.1-1-0.2c-0.1,0-0.2,0-0.3,0.1c-0.1,0.1-0.1,0.2-0.1,0.4s0.1,0.6,0.1,0.6
		s0.1,0.5,0.2,0.8s0.3,0.5,0.4,0.6c0.1,0.1,0.4,0.3,0.8,0.3l0,0c0.4,0,0.7-0.2,0.8-0.3s0.3-0.3,0.4-0.6c0.1-0.3,0.2-0.8,0.2-0.8
		s0.1-0.4,0.1-0.6c0-0.2,0-0.3-0.1-0.4c-0.1-0.1-0.2-0.1-0.3-0.1C283.7,635.6,283.3,635.7,282.7,635.7L282.7,635.7z"/>
	<path class="st3" d="M282.8,635.2c-1,0-1.7-0.5-1.8-0.7c-0.1-0.1-0.2-0.3-0.4-0.2c-0.2,0.1,0.1,0.8,0.2,1.3
		c0.1,0.5,0.2,1.3,0.2,1.3s0.1,0.6,0.1,0.8s0.5,1.2,1.6,1.2l0,0c1.2,0,1.6-1,1.6-1.1c0-0.2,0.2-0.8,0.2-0.8s0.2-0.9,0.3-1.3
		c0.1-0.5,0.4-1.2,0.2-1.3s-0.3,0.1-0.4,0.2C284.5,634.7,283.8,635.2,282.8,635.2L282.8,635.2z"/>
	<path class="st4" d="M281.7,646.4l-0.5-0.1l0.2-4.2h0.3c0,0,0.2-3.9,0.2-4.6c0-0.7,0.2-1.6,0.7-1.6c0.6,0,1,0.4,0.9,1.4
		c-0.1,1-0.3,4.9-0.3,4.9l0.4,0.1l-0.4,4.2l-0.3,0.1"/>
	<line class="st3" x1="281.8" y1="642.1" x2="283.4" y2="642.2"/>
	<path class="st3" d="M328.9,777.9l2.6,3.3v-1.7c0,0,4-1,5-0.6c0.2,0.1,4,2.3,4,2.3l-0.9-3.3"/>
	<path class="st3" d="M339.4,777.6c0,0,9.7-0.7,9.6-0.9"/>
	<polyline class="st3" points="351.1,776.6 353.7,779.6 354,776.4 	"/>
	<path class="st3" d="M356.3,775.8l2.6,3.3l0.2-4.3"/>
	<path class="st3" d="M361.8,773.6c0,0.4,0.6,5.2,0.6,5.2l1.8-4.5l4,1.6c0,0-2.7-3.8-1.3-5c1.4-1.2,6.8-2.5,6.8-2.5s-4-0.9-5.6-0.4"
		/>
	<path class="st3" d="M368,767c0,0,2.4-0.3,4.3,0l-1.9,0.9"/>
	<path class="st3" d="M297.9,768.1l1.6,3.7l0.4-2.4l3.7,1.5l1.7,3.1l0.5-2.2l6.9,1.9l0.5,2.9l1.5-2.5c0,0,1.3,0.6,1.9,0.8v2.9
		c0,0,1.8-2.3,1.8-2.2s2.1,0.5,3.2,0.7l-0.9,2.4l2.3-2.1l1.6,2.5l0.5-2.8c0,0,1.5,0,3,1.2"/>
</g>
</svg>
