<?xml version="1.0" encoding="utf-8"?>
<!-- Generator: Adobe Illustrator 21.0.0, SVG Export Plug-In . SVG Version: 6.00 Build 0)  -->
<svg version="1.1" id="Calque_1" xmlns="http://www.w3.org/2000/svg" xmlns:xlink="http://www.w3.org/1999/xlink" x="0px" y="0px"
	 viewBox="0 0 151.4 275.5" style="enable-background:new 0 0 151.4 275.5;" xml:space="preserve">
<style type="text/css">
	.st0{fill:url(#SVGID_1_);stroke:#1A171B;stroke-width:0.8;stroke-linecap:round;}
	.st1{fill:#00B0E5;stroke:#1A171B;stroke-width:0.8;}
	.st2{fill:none;stroke:#939497;stroke-width:3.172;stroke-linecap:round;stroke-linejoin:round;}
	.st3{fill:#FFFFFF;stroke:#000000;stroke-width:0.8;}
	.st4{fill:#9B9C9E;}
	.st5{fill:#E2E3E4;}
	.st6{fill:#FFFFFF;stroke:#1A171B;stroke-width:0.8;}
	.st7{fill:none;stroke:#1A171B;stroke-width:0.8;}
	.st8{fill:#E2E3E4;stroke:#1A171B;stroke-width:0.8;}
	.st9{fill:none;stroke:#1A171B;stroke-width:0.8;stroke-linecap:round;stroke-linejoin:round;}
	.st10{fill:#FFFFFF;stroke:#1A171B;stroke-width:0.8;stroke-linecap:round;stroke-linejoin:round;}
	.st11{fill:#82CFEF;stroke:#1A171B;stroke-width:0.8;}
	.st12{fill:#FFD400;stroke:#1A171B;stroke-width:0.8504;}
	.st13{fill:#ECECED;}
	.st14{fill:#E6E6E6;}
	.st15{fill:url(#SVGID_2_);stroke:#1A171B;stroke-width:0.8;stroke-linecap:round;}
	.st16{fill:url(#SVGID_3_);stroke:#1A171B;stroke-width:0.8;stroke-linecap:round;}
	.st17{fill:none;stroke:#1A171B;stroke-width:0.6;}
	.st18{fill:#E2E3E4;stroke:#1A171B;stroke-width:1.2;}
	.st19{opacity:0.8;fill:#FFFFFF;stroke:#1A171B;stroke-width:0.8;}
	.st20{fill:#F5F5F6;stroke:#1A171B;stroke-width:0.8;}
	.st21{fill:#F5F5F6;stroke:#1A171B;stroke-width:1.2;}
	.st22{fill:none;stroke:#1A171B;stroke-width:1.3;}
	.st23{fill:#FFD400;stroke:#1A171B;stroke-width:0.8;}
	.st24{fill:#D8D9DA;stroke:#1A171B;stroke-width:0.6;}
	.st25{fill:#E2E3E4;stroke:#1A171B;stroke-width:0.6;}
	.st26{fill:none;stroke:#1A171B;stroke-width:1.2;}
	.st27{fill:none;stroke:#000000;stroke-width:0.8;}
	.st28{fill:url(#SVGID_4_);stroke:#1A171B;stroke-width:0.8;stroke-linecap:round;}
	.st29{fill:#FFFFFF;}
	.st30{fill:none;stroke:#1A171B;stroke-width:0.4;stroke-linecap:round;stroke-miterlimit:10;}
</style>
<g>
	<linearGradient id="SVGID_1_" gradientUnits="userSpaceOnUse" x1="27.8194" y1="163.2803" x2="54.1752" y2="163.2803">
		<stop  offset="0" style="stop-color:#00B0E5"/>
		<stop  offset="1" style="stop-color:#82CFEF"/>
	</linearGradient>
	<path class="st0" d="M29.4,263.8l-1.6-2.5c13.6-8.4,18.5-33.5,14.5-74.6c-0.9-9.1,1.3-17.4,3.5-26.1c2.6-10.1,5.3-20.6,3.2-33
		c-3-17.7-0.4-36.3,1.2-47.5c0.5-3.6,0.9-6.4,0.9-8.1c0.1-5.4-2.3-6.4-2.4-6.4l0.9-2.9c0.2,0.1,4.7,1.4,4.5,9.3c0,1.8-0.4,4.7-1,8.4
		c-1.5,11-4.1,29.3-1.2,46.5c2.2,13-0.6,23.8-3.3,34.2c-2.2,8.5-4.3,16.5-3.4,25.1C46.8,202.1,51.5,250.1,29.4,263.8z"/>
	<path class="st1" d="M128.9,159.5c0.3-0.8,0.7-1.6,1.2-2.4c0.4-0.6,1.2-0.8,1.9-0.4c0.6,0.4,0.8,1.2,0.4,1.9
		c-3.6,5.6,0,13.2,0,13.2c0.3,0.7,0,1.5-0.6,1.8c-0.7,0.3-1.5,0-1.8-0.6C129.8,172.7,126.6,165.8,128.9,159.5z"/>
	<path class="st1" d="M129.4,176.1c-0.2-0.3-4.1-8.6-3-27.3c1-16.7,5.6-36.1,8.3-47.7c0.4-1.5,0.7-2.9,1-4.1
		c4-17.2,5.9-40.1-7.9-51.2c-20.1-16.1-51.6-10.4-67-4.4l-1-2.5c16-6.2,48.7-12.1,69.7,4.8c11.8,9.5,14.9,28.2,8.8,54
		c-0.3,1.2-0.6,2.6-1,4.1c-2.7,11.5-7.3,30.8-8.3,47.2c-1,18,2.7,25.9,2.8,26L129.4,176.1z"/>
	<g>
		<path class="st2" d="M4.5,177.9c0.1,8.3-0.3,30.5-0.3,30.5"/>
		<polyline class="st2" points="1.6,181.6 4.5,175.7 7.5,181.7 		"/>
	</g>
	<path class="st3" d="M23.9,9.6c-5.1,21.8-1.7,34-1.3,34.2c1.2,0.8-0.3,0.9,0.3,0.4l-0.5-2.8l5.9-30.4"/>
	<path class="st3" d="M31.5,10.2c1.6,3.1,2.2,12.5,2.2,20.1l3.4,2.7C38.9,19,36.9,9,34.8,3.7"/>
	<path class="st3" d="M36.1,38c-0.7,2.8-3.1,4-3.1,4c-1.4,1-2.7,1.6-3.8,2c-2,0.7-3.4,0.6-3.7,0.4c0,0-0.1-0.8,0.5-2.3
		c0.4-0.8-0.3-0.2-0.5-1.1c-0.1-0.3,0.6,0.5,0.8,0.5c0.9,0,1.9-0.2,3.1-0.6c0.7-0.2,0.4-0.2,1.2-0.7c0,0,3.2-6,3.2-8.2l3,3.2
		L36.1,38z"/>
	<g>
		<circle class="st4" cx="29.5" cy="7.3" r="7.3"/>
		<path class="st5" d="M33.4,3.1c0.2,0,0.2,0.1,0.3,0.1c0,0.1,0.2,0.1,0.2,0.2c0.1,0.3-0.6,0.9-0.8,1.1c-0.4,0.4-0.8,0.8-1.3,1.2
			c-0.3,0.2-0.5,0.4-0.8,0.8c-0.3,0.5-1.2,0.5-1-0.4c0-0.1,0.3-0.2,0.4-0.4c-0.2-0.1-0.5-0.2-0.7-0.3c-0.9-0.4-1,0.7-1.7-0.4
			c-0.6-1,1.3-0.9,2.1-0.8c0.4,0.1,0.7,0.3,1,0.4c0.1,0,0.2,0.1,0.3,0.1c0,0,0,0,0,0c0.4-0.2,0.7-0.7,1-1c0.1-0.1,0.4-0.2,0.5-0.3
			C33.1,3.3,33.2,3.1,33.4,3.1z"/>
		<path class="st5" d="M25,3.2c0.1,0,0.3,0,0.3,0.1c0.4,0.2,0.7,0.7,1,1c0.4,0.3,0.7,0.6,1.1,0.9c0.2,0.1,0.3,0.4,0.5,0.5
			c0.2,0.2,0.4,0.3,0.6,0.5c0.1,0.1,0.2,0.3,0.1,0.5c-0.2,0.6-0.9-0.1-1.1-0.2c-0.5,0.9-0.2,2.1,0.3,2.7c0.1,0.2,0.4,0.2,0.6,0.4
			c0.6,0.4,1.6,0.4,2.2,0c0.2-0.1,0.4-0.3,0.5-0.5c0.2-0.2,0.4-0.3,0.5-0.6c0.1-0.3,0.1-0.8,0.1-1.3c0-0.1-0.1-0.3-0.1-0.4
			C31.7,6.5,32.3,6,32.6,6c0.1,0,0.3,0.4,0.3,0.5c0,0.1,0.1,0.3,0.1,0.4c0,0,0,0.1,0,0.1c0,0,0,0.7,0,0.8c-0.2,1.5-1.2,2.6-2.4,3
			c-1,0.3-2.4,0-3-0.4c-0.2-0.1-0.2-0.3-0.4-0.5c-0.2-0.2-0.5-0.2-0.6-0.4c-0.3-0.3-0.7-1.6-0.6-2.2c0-0.5,0.2-1.1,0.4-1.5
			c0.1-0.2,0.2-0.3,0.3-0.5C26,5,25.6,4.6,25.3,4.2C25.2,4,24.4,3.2,25,3.2z"/>
	</g>
	<g>
		<path class="st6" d="M83.8,170.8c0,0,2.9-1.8,3.8-1.6c0.9,0.1,3.4,0.5,3.4,0.5s2.5-0.2,3,0.2c0.6,0.4,1.2,1.1,0.9,1.5
			c-0.3,0.5-1.3,1.1-1.3,1.1l1.1,0.7c0,0,1.1,0.8,1.8,1.3c0.7,0.5,1.3-0.6,1.9,0.5c0.6,1.1,1.8,3,1.7,3.2c-0.1,0.2-0.5,2.4-0.5,2.4
			s0.9,1,1.6,2.1c0.7,1.1,1.1,4.5,1,5.3c0,0.8,0.5,0.9,0.5,0.9l0.5,0.3c0,0,1.9,1.9,2.8,3.4c0.9,1.4,2.7,2.5,0.4,4.6
			c-2.3,2.1-9.6,7.9-14.3,6.1c-0.2-0.2-1.3-0.6-1.3-0.6s-3-1.9-2.1-4.8c0.9-3,0.2-3.6,0.6-3.8c0.4-0.2-0.9-0.1-1.4-2.4
			c-0.5-2.3-1.9-2.2-2.5-3.1c-0.6-0.8-0.8-2-1.5-2.6c-0.7-0.6-2.1-1.8-1.9-2.4c0.2-0.5,1.1-2.7,1.1-2.7s-1-1.1-1.4-2.9
			c-0.2-0.9-0.9-2.5-0.7-3.7C81.2,173.2,82.4,172.4,83.8,170.8"/>
		<path class="st7" d="M93.4,187.1c0,0-0.6-1.9-2.1-3.6c-1.5-1.7-1.3-2.3-1.3-2.3s-0.9-1.5-1.4-2.2c-0.5-0.7-2.7-1.7-2.8-2.7
			c0-1-0.2-1.7,0.8-2.5c1.9-1.6,3.6-1.1,4.8-0.5c1.3,0.6,2.3,2.3,4,4c0.3,0.3,1,1,2.1,1.8"/>
		<path class="st7" d="M83.1,180.9c0,0,2.3,1.4,4.2,2.2"/>
		<path class="st7" d="M89.5,193.9c0,0,3.3,1.5,6.7,0.6c3.4-0.9,5.4-2.5,5.7-2.8"/>
		<path class="st7" d="M93.6,172.5c0,0-1.3,1.1-2.3,0.7"/>
		<path class="st7" d="M99.6,180.7c0,0-0.8-1.6-2-2.4c-1.2-0.8-2.5-1.3-2.5-1.3"/>
		<path class="st7" d="M94.7,173.3c0,0,1.8,1.6,1.5,4.3"/>
	</g>
	<path class="st6" d="M103.3,189.3l1.8-0.6l3.1,3.5l-0.9,0.8l1.6,0.9c0,0,0.9,0.1,1.6,0.8c1.1,1.1,1.1,1.8,1.1,1.8s2.5,1.1,3.3,2.2
		c0.9,1.1,4.5,4.9,5.4,6.4c0.9,1.5,0.3,1.4,1.4,1.9c1.1,0.5,1.4,1,2.5,1.9c1.1,0.9,2,1,3.5,3c1.5,2,2.6,3.7,3.3,4.2
		c0.7,0.5,2.5,2.7,2.6,3.2c0.1,0.5,0.6,1.7,0.6,1.7s0.1,1.4,0.6,2c0.5,0.6,2.7,1.5,2.7,1.5s1.9,1.3,2,1.7c0.1,0.4,1.4,0.8,1.4,0.8
		s1.6,0.8,2.8,1.8"/>
	<path class="st6" d="M132.6,219.1c0,0-3.7,4.5-1.5,9.2"/>
	<path class="st6" d="M118.9,228.8c0,0,8-13.2,7.7-8.4"/>
	<path class="st6" d="M120.7,221.2c0,0,2.7-12.4,3.1-10.7c0.4,1.6,0.8,3.2,0.8,3.2"/>
	<path class="st6" d="M93.4,206.7l4.2,0.7c0,0,5.5-3.8,6.4-4.1c0.9-0.3,7-2.8,6.7-5.8"/>
	<path class="st6" d="M103.4,189.5c0,0,1.6,1.5,2.5,3c1,1.7,2.9,2.7,0.5,4.9c-2.3,2.1-9.5,7.9-14.3,6c0,0-0.1,0-0.1,0.2
		c0,0.3,0,0.4,0,0.4c0.2,0.2-0.4,1.1-0.5,1.3c-0.2,0.2-1.1,1.1-0.6,3.8c0.5,2.7,2.8,4.4,3.6,5.3c0.8,0.9,1.5,2.2,2,3.8
		c0.5,1.6,1.1,1.2,2.6,1.9c1.4,0.7,0.3,1.2,1.5,3c1.1,1.8,3.3,3.9,4.5,5.1c1.3,1.2,1.6,2.1,2.2,2.7c0.6,0.6,2,2.4,2,2.4l3,3.4
		c0,0,3,5.4,3.3,7.3"/>
	<g>
		<path class="st2" d="M90.4,150c-4.5-7-15.8-26.1-15.8-26.1"/>
		<polyline class="st2" points="90.9,145.3 91.6,151.8 85.9,148.3 		"/>
	</g>
	<path class="st3" d="M23,66.5c-0.1,1.1-1.1,1.8-2.2,1.7l0,0C19.7,68,19,67,19.1,66l3.4-26c0.1-1.1,1.1-1.8,2.2-1.7l0,0
		c1.1,0.1,1.8,1.1,1.7,2.2L23,66.5z"/>
	<path class="st1" d="M56.5,39.8c0,0,0.3-3.6-4.9-0.8l-0.7-2.6c0,0,8.7-2.9,8.9,3.3L56.5,39.8z"/>
	<g>
		<g>
			<g>
				<g>
					<path class="st8" d="M55.3,29.7c-0.6-1.1-1-1.5-1.6-2c-0.3-0.2-2.7-1.3-2.7-1.3l-0.8,1.1c0,0,1.8,1.5,2.5,3.5 M51.5,27l-0.7,1
						 M52.7,31c0,0,0.2,0.5,0.3,1.5c0,0,0.3,1-0.2,2.8c0,0-0.2,1-1.1,2.5c0,0-1,2.1-2.3,2.5c0,0-1.1,0.5-2.5-0.6l-2.3-1.9l-3.1-2.7
						c0,0-2.8-2.5-4-3.8c0,0-2.2-2.1-3-3.1c0,0-1.3-1.4-1.7-2c0,0-0.5-0.9,0.1-1.9c0,0,0.1-0.2,0.3-0.4c0,0,0-1.9,0-2.5
						c0-0.6,0-1.4,0-1.4c-0.6,0.4-1.9,1.2-2.6,2.2c0,0-0.9,1.1-0.9,2.6c0,0-0.1,1.6,0.7,3c0,0,0.6,1.2,2,2.6l1.5,1.5
						c0,0,1.7,1.8,2.6,2.6l1.8,1.7l2.9,2.6l2,1.7c0,0,2.6,2.2,3.8,2.5c0,0,1.4,0.5,2.6,0.3c0,0,1.6-0.2,2.6-1.1c0,0,1.3-1,2-2.5
						c0,0,0.9-1.4,1.4-3.1c0,0,0.6-1.7,0.5-3.2c0,0,0-2.3-0.8-3.7 M37.7,21.2c0,0,1-0.2,2.5,0.2l0.5,0.3c0.2,0.2,0.5,0.4,0.7,0.5
						c0.2,0.2,0.5,0.2,0.8-0.2c0.4-0.4,0.8-0.8,1-1c0.2-0.2,0.2-0.7-0.2-1.2l-1.4-1.1c0,0-0.2-0.3-1.8-0.5c0,0-0.6-0.4-2-0.2
						c0,0,0,0.8,0,1.3C37.7,19.9,37.7,21.2,37.7,21.2z"/>
				</g>
			</g>
		</g>
		<path class="st9" d="M51.6,29c0.2,0.3,0.5,1,1,0.8c0.3-0.1,0.6-0.5,0.8-0.8c0.2-0.3,0.4-1.1,0-1.4"/>
		<line class="st10" x1="53.1" y1="27.7" x2="52" y2="29.4"/>
		<path class="st9" d="M40.9,18.8c-0.8-0.4-1.5-0.3-2.4,1.5c-0.1,0.2,0,0.4,0,0.5"/>
		<path class="st8" d="M50.3,29.7c0,0,0.3,0.2,0.8-0.2c0.2-0.2,0.4-0.4,0.8-1.2c0.5-0.8,0.1-1,0.1-1.1c0,0-0.1-0.1-0.4-0.3
			c-0.1-0.1-0.3,0-0.7-0.4c-0.5-0.4-0.3-0.5-0.6-0.7c-3-2.4-9-7.2-9-7.2c-0.4-0.3-0.9,0-1.3,0.6c-0.4,0.6-0.8,0.9-0.3,1.4
			c0.5,0.5,1.5,1.3,1.5,1.3s0.7,0.5,0.5,0.6L50.3,29.7z"/>
		<g>
			<g>
				<path class="st8" d="M51,26.5c0.3-0.6,0.1-0.8,0.1-0.8l-0.6-0.6l0-0.2c0,0-3.4-2.9-3.7-3.1c-0.2-0.2-0.2-0.1-0.2-0.1
					s-0.3-0.3-0.6-0.5c-0.2-0.2-0.4-0.2-0.5-0.1l-0.3,0.2c-0.5,0.7-1.4,1.9-2.1,2.6c-0.1,0.1-0.3,0.4,0.1,0.8
					c0.4,0.4,0.6,0.5,0.6,0.5l0,0.1l3.8,3.2h0.1l0.6,0.5c0,0,0.3,0.3,0.8-0.2C49.6,28.3,50.5,27.2,51,26.5z"/>
			</g>
		</g>
		<path class="st8" d="M40.9,20.8c-0.2-0.2-0.2-0.5,0-0.7c0.2-0.2,0.5-0.2,0.7,0c0.2,0.2,0.2,0.5,0,0.7C41.4,21,41.1,20.9,40.9,20.8
			"/>
	</g>
	<path class="st7" d="M51.7,37.4c0,0-0.5-0.3-0.1-0.7"/>
	<path class="st1" d="M55.5,36.8c0.1,0,0.4,0,0.4,0c0.3,0,0.7,0.1,0.7,0.1c0.3,0.1,0.5,0.3,0.7,0.4l0,0c0.8,0.7,1.1,2.5,0.9,4.3l0,0
		c-0.1,0.7-0.3,1.3-0.7,1.7l0,0c-0.8,0.9-2.4,1.3-3.6,0.9l0,0c-1-0.3-1.9-0.9-2.6-1.5l0,0c-0.9-0.8-1.4-1.8-1.5-2.4l0,0
		c0-0.1,0-0.3,0.4-0.7l0,0c0.2-0.3,0.6-0.5,0.8-0.7l0,0c0.1-0.1,0.2-0.1,0.3-0.2l0,0c0.1,0,0.1,0,0.1,0l-1.2-2.4h0l0,0
		c-0.1,0-1.1,0.5-2,1.5l0,0c-0.6,0.7-1.3,1.7-1,3.1l0,0c0.3,1.4,1.2,2.7,2.4,3.8l0,0c1,0.9,2.2,1.7,3.6,2.1l0,0
		c2.3,0.7,4.8,0.1,6.4-1.6l0,0c0,0,0,0,0,0l0,0c0.8-0.9,1.3-2,1.4-3.3l0,0c0.1-2,0.1-4.6-1.8-6.4l0,0c-0.6-0.6-1.4-1-2.3-1.2
		c0,0-0.4-0.1-0.7-0.1c0,0-0.1-0.1-0.2,0c0,0,0,0.5-0.2,1.4C55.8,36,55.5,36.8,55.5,36.8z"/>
	<path class="st1" d="M52.2,37.1L52,37.1c-0.2,0-0.3,0.1-0.4,0.1l0,0c0.3,0.3,1.4,0.8,3.1,1l0,0c0.9,0.1,2.1,0.4,3.4,0.8
		c0.3,1,0.1,2.8,0.1,2.8c-1.7-0.5-2.9-0.8-3.9-0.9l0,0c-1.9-0.3-3.4-0.8-4.5-1.8l0,0c-0.5-0.5-0.9-1.2-1-1.9l0,0
		c-0.1-0.7,0.2-1.3,0.6-1.7l0,0c0.5-0.5,1.1-0.8,1.6-1c0,0,1.4-0.4,2.1-0.5c0,0-0.1,0.7-0.3,1.4C52.6,36.2,52.2,37.1,52.2,37.1z"/>
	<path class="st11" d="M47.2,63c0,0,1.5-3.3-4.4-2.4l0.2-2.7c0,0,9.1,0.2,7.3,6.1L47.2,63z"/>
	<g>
		<g>
			<g>
				<g>
					<path class="st12" d="M49.5,53c-0.2-1.3-0.5-1.8-0.8-2.4c-0.2-0.3-2.1-2.1-2.1-2.1l-1.1,0.8c0,0,1.2,2,1.2,4.1 M46.7,49.2
						l-1,0.7 M46.6,53.4c0,0,0,0.5-0.2,1.5c0,0-0.1,1.1-1.2,2.5c0,0-0.6,0.9-1.9,2c0,0-1.6,1.6-3,1.6c0,0-1.2,0.1-2.1-1.4l-1.6-2.6
						l-2-3.5c0,0-1.8-3.3-2.5-4.9c0,0-1.4-2.7-1.8-4c0,0-0.7-1.7-0.9-2.4c0,0-0.2-1,0.7-1.8c0,0,0.1-0.1,0.4-0.3
						c0,0,0.9-1.6,1.1-2.2c0.2-0.6,0.6-1.3,0.6-1.3c-0.7,0.1-2.6,0.4-3.6,1.1c0,0-1.2,0.7-1.8,2.1c0,0-0.6,1.4-0.4,3
						c0,0,0.1,1.3,1,3.1l0.9,1.9c0,0,1,2.2,1.6,3.3l1.1,2.2l1.9,3.4l1.3,2.3c0,0,1.7,3,2.7,3.6c0,0,1.1,1,2.3,1.1
						c0,0,1.5,0.4,2.8-0.2c0,0,1.5-0.5,2.8-1.7c0,0,1.3-1,2.4-2.4c0,0,1.1-1.4,1.6-2.9c0,0,0.7-2.2,0.5-3.7 M35.7,39.1
						c0,0,1,0.2,2.3,1.1l0.3,0.4c0.2,0.2,0.3,0.5,0.5,0.7c0.1,0.2,0.4,0.3,0.8,0c0.5-0.3,1-0.5,1.3-0.7c0.3-0.2,0.5-0.6,0.2-1.2
						l-0.9-1.5c0,0-0.1-0.3-1.6-1c0,0-0.5-0.6-1.8-0.8c0,0-0.3,0.8-0.5,1.2C36.2,37.9,35.7,39.1,35.7,39.1z"/>
				</g>
			</g>
		</g>
		<path class="st9" d="M46.2,51.1c0.1,0.4,0.1,1.1,0.6,1.1c0.4,0,0.7-0.3,1-0.5c0.3-0.2,0.8-0.8,0.5-1.3"/>
		<line class="st10" x1="48.1" y1="50.5" x2="46.4" y2="51.7"/>
		<path class="st9" d="M39.6,37.9c-0.6-0.6-1.3-0.8-2.8,0.6c-0.2,0.1-0.2,0.3-0.1,0.5"/>
		<path class="st12" d="M44.7,51.4c0,0,0.2,0.3,0.8,0c0.2-0.1,0.5-0.3,1.2-0.8c0.7-0.5,0.5-0.9,0.4-1c0,0-0.1-0.2-0.3-0.4
			c-0.1-0.2-0.3-0.1-0.6-0.6c-0.4-0.6-0.2-0.6-0.4-0.9c-2.1-3.3-6.1-9.8-6.1-9.8c-0.3-0.4-0.9-0.3-1.5,0.2c-0.6,0.4-1.1,0.6-0.8,1.2
			c0.3,0.6,1,1.7,1,1.7s0.5,0.7,0.3,0.8L44.7,51.4z"/>
		<g>
			<g>
				<path class="st12" d="M46.5,48.5c0.5-0.4,0.4-0.7,0.4-0.7l-0.4-0.8l0-0.2c0,0-2.3-3.9-2.4-4.1c-0.2-0.3-0.2-0.1-0.2-0.1
					s-0.2-0.4-0.4-0.6c-0.1-0.2-0.3-0.3-0.4-0.3l-0.3,0.1c-0.7,0.5-2,1.3-2.8,1.8c-0.1,0.1-0.5,0.3-0.1,0.8C40,44.8,40,45,40,45
					l0,0.1l2.5,4.3l0.1,0l0.4,0.6c0,0,0.2,0.3,0.8,0.1C44.6,49.8,45.8,49.1,46.5,48.5z"/>
			</g>
		</g>
		<path class="st8" d="M38.9,39.8c-0.1-0.2,0-0.5,0.2-0.6c0.2-0.1,0.5,0,0.6,0.2c0.1,0.2,0,0.5-0.2,0.6C39.3,40.1,39,40,38.9,39.8"
			/>
	</g>
	<path class="st7" d="M43.5,59c0,0-0.3-0.5,0.1-0.7"/>
	<path class="st11" d="M47.3,59.8c0.1,0,0.4,0.1,0.4,0.1c0.3,0.1,0.6,0.3,0.6,0.3c0.2,0.2,0.4,0.4,0.5,0.7l0,0
		c0.6,0.9,0.2,2.7-0.6,4.3l0,0c-0.3,0.7-0.7,1.1-1.3,1.4l0,0c-1.1,0.6-2.7,0.4-3.7-0.4l0,0c-0.8-0.6-1.5-1.5-1.9-2.3l0,0
		c-0.6-1.1-0.8-2.2-0.7-2.8l0,0c0-0.1,0.1-0.3,0.6-0.6l0,0c0.3-0.2,0.7-0.3,1-0.4l0,0c0.1,0,0.3-0.1,0.4-0.1l0,0c0.1,0,0.1,0,0.1,0
		l-0.3-2.7v0l0,0c-0.1,0-1.2,0.1-2.4,0.7l0,0c-0.8,0.4-1.8,1.2-2,2.6l0,0c-0.2,1.4,0.2,2.9,0.9,4.4l0,0c0.6,1.2,1.5,2.3,2.7,3.2l0,0
		c1.9,1.4,4.5,1.7,6.6,0.6l0,0c0,0,0,0,0,0l0,0c1-0.5,1.9-1.4,2.5-2.6l0,0c0.8-1.8,1.7-4.3,0.5-6.6l0,0c-0.4-0.7-1-1.4-1.8-1.9
		c0,0-0.3-0.2-0.6-0.3c0,0,0-0.1-0.1-0.1c0,0-0.2,0.5-0.6,1.3C47.8,59.1,47.3,59.8,47.3,59.8z"/>
	<path class="st11" d="M44,58.9l-0.1,0c-0.2,0-0.3,0-0.4,0l0,0c0.2,0.4,1.1,1.2,2.6,2l0,0c0.8,0.4,1.8,1.1,3,1.9
		c0,1-0.9,2.7-0.9,2.7c-1.4-1-2.5-1.7-3.4-2.2l0,0c-1.7-1-3-1.9-3.7-3.2l0,0c-0.3-0.6-0.5-1.4-0.3-2.1l0,0c0.1-0.7,0.7-1.2,1.1-1.4
		l0,0c0.7-0.3,1.3-0.4,1.8-0.4c0,0,1.5,0.1,2.2,0.2c0,0-0.3,0.6-0.7,1.2C44.7,58.2,44,58.9,44,58.9z"/>
	<g>
		<path class="st6" d="M125.6,170.9"/>
		<path class="st6" d="M125.6,170.9"/>
	</g>
	<g>
		<path class="st1" d="M137.8,187.9c0.8,1,1.5,2,2.1,2.8c1.5,1.9,2.5,3.4,3.1,4.7c0.6,1.3,0.8,2.3,0.7,2.8c0,0.2-0.1,0.4-0.5,0.6
			c-0.3,0.1-0.5,0.1-0.8,0c-0.6-0.3-1.2-1.1-1.8-2.2c-0.9-1.6-1.7-3.9-2.2-6.3C138.3,189.7,138.1,188.9,137.8,187.9
			c-2.5-3.4-5.2-7.5-6.3-9.9l-0.9-1.8l-0.3,0.1c1.3,2.7,4.3,11.6,4.8,14.5c0.3,1.9,1.1,4.8,2.4,7.1c0.9,1.6,2,2.9,3.3,3.6
			c1.2,0.6,2.5,0.6,3.7,0.1c1.2-0.6,2-1.5,2.3-2.7c0.3-1.3,0-3-0.9-4.9c-0.8-1.6-1.9-3.3-3.5-5.3c-2.7-3.4-6.7-9.2-8-12.1l-1.4-2.9
			l-2.9,1.4l0.6,1.2"/>
	</g>
	<g>
		<path class="st1" d="M135.2,178.2c-0.2,0.1-0.3,0.3-0.6,0.5c-1.2,1-2.6,2.3-3.3,3.4c-0.2,0.3-0.4,0.6-0.5,0.8c0,0,0,0.1-0.1,0.1
			c-0.2,0.6-0.2,0.9,0.1,1.5c0.2,0.6,0.9,1.1,1.5,1.1c0.8,0,1.3-0.3,1.3-0.3c0,0-0.2-0.7-0.2-0.8c0-0.5,0.3-0.7,0.7-1.2c0,0,0,0,0,0
			c0.7-0.8,1.8-1.6,2.3-2c0.4-0.3,0.7-0.5,0.9-0.7c1-0.9,1.1-2.8,0.2-4.7c-0.1-0.2-0.2-0.4-0.4-0.5
			C137,176.2,136.5,177.2,135.2,178.2z"/>
		<g>
			<path class="st1" d="M129.5,176.8c-0.1-0.1-0.3-0.2-0.4-0.3c-0.4-0.3-0.8-0.6-1.2-1l0,0c-0.1,0.2-0.1,0.5-0.2,0.7c0,0,0,0,0,0
				c0,0,0,0.1,0,0.1c0,0,0,0,0,0c0,0,0,0.1,0,0.1c0,0,0,0,0,0c0,0,0,0.1,0,0.1c0,0,0,0,0,0c0,0.1,0,0.2,0,0.3c0,0,0,0,0,0.1
				c0,0,0,0,0,0.1c0,0,0,0.1,0,0.1c0,0,0,0,0,0.1c0,0,0,0.1,0,0.1c0,0,0,0,0,0.1c0,0,0,0.1,0,0.1c0,0,0,0,0,0.1c0,0,0,0.1,0.1,0.2
				c0.3,0.7,0.8,1.3,1.4,1.7c0.4-0.5,0.9-1.1,1.5-1.6C130.4,177.5,129.9,177.2,129.5,176.8z"/>
			<g>
				<path class="st1" d="M134.1,174.8c0,0,0.1-0.1,0.1-0.1c0.6-0.6,1.4-1.6,1.7-2.5c0,0,0,0,0,0c0,0,0-0.1,0-0.1
					c0.7-2-0.2-3.1-0.8-3.6c-0.3-0.2-0.6-0.3-0.9-0.4c0.1,0.5,0,1.1-0.2,1.7c-0.3,0.9-0.9,1.8-1.4,2.6c-0.4,0.6-0.9,1.4-1.2,1.8
					c0,0,0,0,0,0c0.6,0.4,1.2,0.9,1.7,1.4c0,0,0.1-0.1,0.1-0.1C133.6,175.3,133.9,175,134.1,174.8z"/>
				<path class="st1" d="M136.5,172.7c-0.1-0.2-0.3-0.4-0.5-0.5c0,0,0,0,0,0c-0.2,0.9-1.1,1.9-1.7,2.5c0,0-0.1,0.1-0.1,0.1
					c-0.2,0.2-0.5,0.5-0.8,0.7c0,0-0.1,0.1-0.1,0.1c-0.1,0.1-0.2,0.2-0.3,0.2c0,0,0,0,0,0c-0.1,0.1-0.2,0.2-0.3,0.2
					c0,0-0.1,0.1-0.1,0.1c-0.1,0-0.1,0.1-0.2,0.2c0,0-0.1,0.1-0.1,0.1c-0.1,0.1-0.2,0.2-0.3,0.2l0,0c-0.1,0.1-0.2,0.2-0.4,0.3v0l0,0
					c-0.1,0.1-0.2,0.2-0.3,0.3c0,0,0,0,0,0c-0.1,0.1-0.2,0.2-0.4,0.4c-0.6,0.6-1.1,1.1-1.5,1.6c-0.2,0.3-0.4,0.5-0.6,0.9l0,0
					c-0.4,0.7-0.1,1.6,0.6,2.2c0.6,0.5,1.4,0.5,1.4,0.5s0,0,0,0c0,0,0-0.1,0.1-0.1c0.1-0.2,0.3-0.5,0.5-0.8c0.7-1.1,2.2-2.3,3.3-3.4
					c0.2-0.2,0.4-0.4,0.6-0.5c1.3-1,1.8-2,1.9-2.9C137.3,174.1,136.8,173.2,136.5,172.7z"/>
			</g>
		</g>
	</g>
	<g>
		<g>
			<path class="st1" d="M131.4,174.3C131.4,174.3,131.4,174.2,131.4,174.3c-0.1-0.1-0.2-0.1-0.3-0.2c-0.5-0.4-1-0.9-1.5-1.2
				c-0.1,0-0.1-0.1-0.2-0.1c-0.4-0.3-0.8-0.7-1-1l-1-2.2c-0.4,0.2-1.2,1.1-1.3,2.1c-0.3,1.8,0.6,2.9,1.8,3.9c0.4,0.3,0.8,0.7,1.2,1
				c0.1,0.1,0.3,0.2,0.4,0.3c0.4,0.4,0.9,0.7,1.3,1.1c0.1-0.1,0.2-0.2,0.4-0.4c0,0,0,0,0,0c0.1-0.1,0.2-0.2,0.3-0.3v0
				c0.1-0.1,0.2-0.2,0.4-0.3c0.4-0.4,0.9-0.8,1.3-1.1C132.6,175.2,132,174.7,131.4,174.3z"/>
		</g>
	</g>
	<g>
		<path class="st1" d="M133.2,166.1c-0.7-0.6-1.7-0.5-2.3,0.2c0,0,0,0.1,0,0.1c0,0.2,0.1,0.3,0.1,0.5c0,0.2,0,0.4,0.1,0.6
			c0,0.3,0,0.5,0,0.8c0,0,0,0.1,0,0.1c0,0,0,0,0,0.1c0,0,0,0,0,0c0,0,0,0,0,0c-0.1,0.5-1,2.1-1.3,2.7c-0.2,0.5-0.3,1-0.3,1.4
			c0.1,0,0.1,0.1,0.2,0.1c0.5,0.3,1,0.8,1.5,1.2c0.1,0.1,0.1,0.1,0.2,0.2c0.2-0.4,0.7-1,1-1.6c0.1-0.1,0.1-0.2,0.2-0.3
			c0.5-0.8,1.1-1.7,1.4-2.6c0.2-0.7,0.3-1.2,0.2-1.7C134.1,167.1,133.6,166.5,133.2,166.1z"/>
	</g>
	<circle class="st4" cx="144.2" cy="199" r="7.2"/>
	<path class="st13" d="M144.9,196.2v0.3c0,0,0,0,0,0h4.5c0,0,0,0,0,0v-1.9c0,0,0,0,0,0h-4.5c0,0,0,0,0,0v0.4h0.6v1.2H144.9z"/>
	<path class="st13" d="M143.6,194.9v-0.4c0,0,0,0,0,0h-4.4c0,0,0,0,0,0v1.9c0,0,0,0,0,0h4.4c0,0,0,0,0,0v-0.3H143v-1.2H143.6z"/>
	<path class="st14" d="M142.1,200.5c0,0,1.2-2.3,1.5-2.7l0-0.9c-0.1,0-2.6,3.1-2.6,3.1c-1-0.3-2.3-0.1-2.9,1.7c0,0.5,0.1,1.2,1.2,2
		c1.1,0.8,1.9,1,2.9,1.1c1,0.1,1.2-0.8,1.3-1.3C143.6,202.9,143.6,201.1,142.1,200.5z M139.6,200.8c1.2-0.2,2.7,0.2,3.3,2
		C142,203,140.3,202.7,139.6,200.8z"/>
	<path class="st14" d="M144.9,197.8c0.5,0.9,1.5,2.7,1.5,2.7c-1.5,0.6-1.5,2.4-1.4,2.9c0.1,0.5,0.3,1.4,1.3,1.3
		c1-0.1,1.8-0.3,2.9-1.1c1.1-0.8,1.1-1.5,1.2-2c-0.6-1.8-1.9-2-2.9-1.7c0,0-1.5-1.9-2.3-2.8c-0.1-0.1-0.1-0.1-0.2-0.2 M145.6,202.8
		c0.6-1.8,2.2-2.2,3.3-2C148.2,202.7,146.5,203,145.6,202.8z"/>
	<polyline class="st13" points="142.9,195.2 144.2,195.2 144.2,195.9 142.9,195.9 	"/>
	<polyline class="st13" points="146.1,195.9 144.9,195.9 144.9,195.2 146.1,195.2 	"/>
	<path class="st13" d="M144.6,197.6C144.6,197.6,144.6,197.6,144.6,197.6l-0.8,0c0,0,0,0,0,0v-3.3c0,0,0,0,0,0h0.7c0,0,0,0,0,0
		V197.6z"/>
	<linearGradient id="SVGID_2_" gradientUnits="userSpaceOnUse" x1="25.1905" y1="142.8477" x2="48.1192" y2="142.8477">
		<stop  offset="0" style="stop-color:#00B0E5"/>
		<stop  offset="1" style="stop-color:#82CFEF"/>
	</linearGradient>
	<path class="st15" d="M45.6,63.8c-0.6,0.9-1.2,2.3-1.3,4.4c-0.2,2.5-7.3,61.8-12,101c-2.4,19.8-4.3,35.4-4.6,38.4l-0.1,0.7
		c-0.9,8.2-1.2,10.2-2.4,11l1.7,2.4c2.3-1.7,2.6-3.9,3.6-13.1l0.1-0.7c0.4-3,2.2-18.6,4.6-38.4c5-41.6,11.9-98.7,12.1-101.2
		c0.1-1.4,0.5-2.4,0.8-2.9c0,0-0.7-0.5-1-0.7C46.7,64.5,45.6,63.8,45.6,63.8z"/>
	<g>
		<g>
			<polyline class="st7" points="21.8,67.7 22.3,67.5 22,67.4 			"/>
		</g>
	</g>
	<linearGradient id="SVGID_3_" gradientUnits="userSpaceOnUse" x1="18.6992" y1="160.1991" x2="21.2843" y2="109.1536">
		<stop  offset="0" style="stop-color:#00B0E5"/>
		<stop  offset="1" style="stop-color:#009DDF"/>
	</linearGradient>
	<path class="st16" d="M17.2,220.3l1.4-141.4l-0.1-1.3c0-3.3,2.5-4.3,5.8-4.3l0,0c1.7,0,3.1,0.7,4.2,1.8l0.1,0.1l0.1,0l0,0
		c0.1,0.1,1.3,2,1.3,2l0.9-4.5v0c0,0-4-2.7-6.6-2.7l0,0c-5.1,0-9.3,4.2-9.3,9.3l-1.3,143.5L17.2,220.3z"/>
	<path class="st17" d="M30.7,69.7c0,0-0.5,1.9-0.5,2.1c0,0.2-0.2,0.5-0.4,0.5c-0.2,0.1-0.4,0-1.1-0.5c-0.7-0.5-2.4-1.1-3.6-1.1
		c-1.2,0-3.5,0.3-5.2,1.9c0,0-0.8,0.8-0.9,1c-0.2,0.2-0.5,0.4-0.8,0.2c-0.2-0.1-0.6-0.3-0.5-1.1"/>
	<path class="st17" d="M29.5,65.8c0,0.1,0.1,0.3,0.1,0.4"/>
	<path class="st18" d="M29.3,66.7"/>
	
		<ellipse transform="matrix(0.9983 -5.742505e-02 5.742505e-02 0.9983 -4.458 1.566)" class="st19" cx="25" cy="78.4" rx="6.3" ry="6.3"/>
	<path class="st20" d="M34.3,65.6c-1.3-1.8-5.4-3.9-8.5-4.6c-3.1-0.7-6.9-0.7-9,2.2c-2.2,3-1.3,8.1-0.4,10.8c1.9,5.7,3,7.5,3,7.5
		c0.9,1.7,2.6,2.9,4.7,3.2c2.4,0.4,4.8-0.7,6.1-2.5c0,0,1.6-1.9,3.2-7.3C35.1,69.6,35.5,67.4,34.3,65.6z M22.6,70.8L22.6,70.8
		c-2.7,0.6-3.5-0.2-4.1-1.6c-0.5-1.2,0.2-3.3,0.7-4.1c0.6-1,1.7-1.2,1.7-1.2l0,0c0,0,1-0.3,2,0.3c0.8,0.5,2.4,2,2.5,3.3
		C25.6,69,25.3,70.1,22.6,70.8z"/>
	<path class="st8" d="M25.3,64.8c0.5-0.5,1.1-0.9,1.8-0.9c0.7,0,1.4,0.2,1.9,0.6c0,0,0.2,0.1,0.2,0.2c0.1,0.1,0.5,0.3,0.8-0.1
		c0.3-0.4,0.3-0.9,0.3-1.3c0-0.4,0.1-0.6-0.4-0.8l-0.1,0c-1.4-0.7-2.8-1.2-4.1-1.5c-3.1-0.7-6.9-0.7-9,2.2c-0.5,0.7-0.8,1.5-1,2.3
		c0,0-0.1,0.4,0.5,0.5c0.7,0.1,1.5,0.2,1.8,0.3c0.3,0,0.5,0.1,0.7-0.4l0,0c0.1-0.3,0.3-0.6,0.4-0.8c0.6-1,1.7-1.2,1.7-1.2l0,0
		c0,0,1-0.3,2,0.3c0.3,0.2,0.8,0.5,1.2,1c0,0,0.5,0.6,0.8,0.8c0.2,0.2,0.4,0.2,0.4-0.1C25.1,65.4,25.1,65,25.3,64.8"/>
	<path class="st17" d="M18.5,65.6L18.5,65.6c-0.2,0.4-0.3,0.3-0.5,0.3c-0.2,0-0.8-0.1-1.3-0.2c-0.5-0.1-0.4-0.4-0.4-0.4
		c0.1-0.6,0.4-1.2,0.7-1.6c0,0,0.3-0.4,0.6-0.7c0.2-0.2,0.4-0.5,0.5,0.1c0.1,0.6,0.3,1.4,0.4,1.6c0,0.2,0.1,0.3,0,0.6
		C18.5,65.5,18.5,65.6,18.5,65.6z"/>
	<line class="st17" x1="24.1" y1="65.2" x2="24.2" y2="65.2"/>
	<path class="st17" d="M24.2,65.2c0.5,0.6,0.8,0,0.8,0c0.1-0.2,0.2-0.3,0.3-0.5"/>
	
		<ellipse transform="matrix(0.9983 -5.777945e-02 5.777945e-02 0.9983 -3.6155 1.5063)" class="st21" cx="24.2" cy="63.3" rx="1" ry="1"/>
	<polyline class="st7" points="29.1,70.4 30.1,71 30,70.4 	"/>
	<polyline class="st22" points="28.1,70.2 28.6,70.8 28.6,70.4 	"/>
	<path class="st7" d="M30.5,70.3c0,0,0.9,0.4,0.9,0.4l-0.3-0.6"/>
	<polyline class="st7" points="31.7,69.9 32.8,70.1 32.4,69.6 	"/>
	<polyline class="st7" points="32.9,69.3 33.9,69.3 33.5,68.8 	"/>
	<polyline class="st7" points="33.9,68.4 34.4,68.5 34.2,68.1 	"/>
	<path class="st23" d="M35,66.7c0-0.2,0.2-0.1,0.3-0.3c0-0.2-0.2-0.2-0.2-0.4c0-0.2,0.2-0.1,0.2-0.4c0-0.2-0.2-0.1-0.2-0.4
		c0-0.2,0.2-0.3,0-0.6c-0.2-0.3-0.5-0.1-0.5-0.1c-3.4,3.1-3.8,3.4-4.3,3.2c-0.8-0.2-0.7-0.7-0.7-0.7c0.1-0.3,0.1-0.5,0.1-0.8l0,0
		c0,0,0.2-0.2,0.3-0.3c0,0,0,0,0,0c0,0,0-0.2,0-0.3c0-0.1-0.1-0.1-0.1-0.1c0,0,0,0-0.1,0c-0.1,0.1-0.3,0.2-0.3,0.2
		c-0.1-0.4-0.3-0.8-0.7-1.1C27.9,64,26.4,64,25.6,65c-0.4,0.5-0.6,1-0.6,1.6l3.1,3.6c0.1,0.1,0.5,0.1,1.1,0.2c0.6,0,1.5,0,2.5-0.4
		c1-0.4,1.7-1,2.5-1.7C34.9,67.5,35,66.7,35,66.7z M33.5,67.1c-0.2-0.1-0.8-0.5-0.4-0.8c0.4-0.4,0.8-0.7,1-0.8c0,0,0.2-0.2,0.4,0
		c0.1,0.1,0.1,0.5-0.2,1C34,67,33.8,67.3,33.5,67.1z"/>
	<path class="st17" d="M34.5,65.8c0,0-0.2,1.4-0.6,1.8c-0.4,0.4-1.5,1.5-2.7,1.9c-1.2,0.4-3,0.3-3.3,0c-0.3-0.4-0.4-0.5-0.4-0.7
		c0-0.1,0.2-0.1,0.2-0.1c0.4-0.1,0.7-0.3,1-0.5c0,0,0.1-0.1,0.4,0c0.3,0.1,0.8,0.1,1.1,0.1c0.4,0,0.7,0,1.4-0.5c0,0,0.8-0.7,1.5-1.3
		"/>
	<path class="st24" d="M26.8,68.4c0.7,0.2,1.5,0,2-0.6c0.7-0.8,0.7-2.1-0.1-2.8c-0.8-0.7-2.1-0.7-2.8,0.1c-0.4,0.4-0.6,1-0.5,1.5
		L26.8,68.4z"/>
	<path class="st17" d="M34.5,65.8c0,0-0.2,1.4-0.6,1.8c-0.4,0.4-1.5,1.5-2.7,1.9c-1.2,0.4-3,0.3-3.3,0c-0.3-0.4-0.4-0.5-0.4-0.7
		c0-0.1,0.2-0.1,0.2-0.1c0.4-0.1,0.7-0.3,1-0.5c0,0,0.1-0.1,0.4,0c0.3,0.1,0.8,0.1,1.1,0.1c0.4,0,0.7,0,1.4-0.5c0,0,0.8-0.7,1.5-1.3
		"/>
	<ellipse transform="matrix(0.6719 -0.7406 0.7406 0.6719 -40.3094 42.0354)" class="st17" cx="27.3" cy="66.5" rx="1" ry="1"/>
	<ellipse transform="matrix(0.6718 -0.7408 0.7408 0.6718 -40.314 42.0471)" class="st17" cx="27.3" cy="66.5" rx="1.4" ry="1.4"/>
	<ellipse transform="matrix(0.6718 -0.7408 0.7408 0.6718 -40.314 42.0471)" class="st25" cx="27.3" cy="66.5" rx="1.4" ry="1.4"/>
	<ellipse transform="matrix(0.6719 -0.7406 0.7406 0.6719 -40.3094 42.0354)" class="st23" cx="27.3" cy="66.5" rx="1" ry="1"/>
	<path class="st23" d="M16.3,74c1.9,5.7,3,7.5,3,7.5c1,1.7,2.6,2.9,4.7,3.2c2.4,0.4,4.8-0.7,6.1-2.5c0,0,1.5-1.9,3.2-7.3
		c1.6-5.4,2.1-7.6,0.8-9.4c-1.3-1.8-5.4-3.9-8.5-4.5c-3.1-0.7-6.9-0.7-9,2.3C14.5,66.3,15.4,71.4,16.3,74z M27.1,65.5
		c0,0,0.8-0.1,2.6,0.6c1.7,0.7,2.3,0.9,2.6,1.1c0.3,0.2,0.7,0.4,0.6,1.4c-0.1,1-0.5,1.6-1.1,1.1c-0.6-0.5-1.6-1.1-2.3-1.4
		c-0.7-0.3-2.2-0.8-2.5-0.9c-0.5-0.1-0.8-0.6-0.7-1.1C26.3,65.9,26.7,65.6,27.1,65.5z M19.1,65.2c0.6-1,1.6-1.2,1.6-1.2l0,0
		c0,0,1-0.3,2,0.2c0.8,0.5,2.4,2,2.6,3.2c0.2,1.5-0.1,2.6-2.8,3.4v0c-2.7,0.7-3.5-0.2-4.1-1.6C18,68,18.6,65.9,19.1,65.2z"/>
	<path class="st17" d="M30.7,69.7c0,0-0.5,1.9-0.5,2.1c0,0.2-0.2,0.5-0.4,0.5c-0.2,0.1-0.4,0-1.1-0.5c-0.7-0.5-2.5-1.1-3.6-1.1
		c-1.2,0-3.5,0.3-5.2,2c0,0-0.8,0.8-0.9,1c-0.2,0.2-0.5,0.4-0.8,0.3c-0.2-0.1-0.6-0.3-0.5-1.1"/>
	<ellipse transform="matrix(0.1459 -0.9893 0.9893 0.1459 -56.1437 91.6706)" class="st26" cx="25" cy="78.4" rx="2.3" ry="2.3"/>
	<ellipse transform="matrix(0.1468 -0.9892 0.9892 0.1468 -56.1542 91.5991)" class="st17" cx="25" cy="78.4" rx="1.8" ry="1.8"/>
	<g>
		<path class="st23" d="M23,66.5c-0.1,1.1-1.1,1.8-2.2,1.7l0,0C19.7,68,19,67,19.1,66l3.4-26c0.1-1.1,1.1-1.8,2.2-1.7l0,0
			c1.1,0.1,1.8,1.1,1.7,2.2L23,66.5z"/>
		<path class="st27" d="M25.8,43.9c-0.4,0.1-1.1,0.6-1.3,2.4l-0.8-0.1l-0.3,0L22.7,46c0.3-1.7-0.3-2.4-0.7-2.6"/>
		
			<rect x="18.6" y="49.7" transform="matrix(0.1281 -0.9918 0.9918 0.1281 -32.3324 68.573)" class="st12" width="8.4" height="5.9"/>
		<polyline class="st27" points="19.9,59.8 20.9,60 21.1,58.4 22.9,58.6 22.7,60.2 23.8,60.3 		"/>
		<line class="st27" x1="21.3" y1="58.4" x2="19.8" y2="59.7"/>
		<line class="st27" x1="22.7" y1="58.4" x2="23.8" y2="60.1"/>
	</g>
	<linearGradient id="SVGID_4_" gradientUnits="userSpaceOnUse" x1="70.2124" y1="139.55" x2="44.7014" y2="101.8008">
		<stop  offset="0" style="stop-color:#00B0E5"/>
		<stop  offset="1" style="stop-color:#009DDF"/>
	</linearGradient>
	<path class="st28" d="M31.7,79.6l55.6,93.7c0,0,1.5-1,3.4-0.4L33,76c0,0-0.3,1-0.6,1.7C32.2,78.4,31.7,79.6,31.7,79.6z"/>
	<path class="st23" d="M15.8,218.8c1-2.2,3.3-3.8,5.9-3.8c2.6,0,4.9,1.6,5.8,3.9"/>
	<path class="st23" d="M21.7,216.6c-1.8,0-2.9,0.9-3.1,1.1c-0.2,0.2-0.6,0.4-1.1,0.6c-0.5,0.2-2.8,1.1-3.4,1.4
		c-0.7,0.3-0.8,0.3-1.1,0.6c-0.2,0.3-0.2,0.9-0.2,1.7c0,0.8,0.2,2.3,0.4,3.2c0.3,0.9,0.5,1.3,1,2.6c0.5,1.3,0.7,2.6,0.7,2.6
		s0.4,2.4,0.5,3.2c0.1,0.9,0.3,2,0.6,2.8c0.3,0.8,1.1,1.8,1.9,2.4c0.8,0.6,2.1,1.2,3.6,1.2h0c1.5,0,2.8-0.6,3.6-1.1
		c0.8-0.6,1.6-1.6,1.9-2.4c0.3-0.8,0.5-1.9,0.7-2.8c0.2-0.9,0.6-3.2,0.6-3.2s0.2-1.3,0.7-2.6c0.5-1.3,0.8-1.7,1.1-2.6
		c0.3-0.9,0.5-2.4,0.5-3.2c0-0.8,0-1.4-0.2-1.7c-0.2-0.3-0.4-0.4-1.1-0.6c-0.7-0.3-2.9-1.2-3.4-1.4c-0.5-0.2-0.9-0.4-1.1-0.6
		C24.6,217.5,23.5,216.6,21.7,216.6L21.7,216.6z"/>
	
		<ellipse transform="matrix(1.036317e-02 -0.9999 0.9999 1.036317e-02 -200.0558 240.8323)" class="st23" cx="21.6" cy="221.5" rx="2.3" ry="2.3"/>
	<path class="st7" d="M25,225.4c0.1-0.1,1-0.8,1.3-1.9c0.4-1.1,0.3-1.4,0.3-1.6c-0.1-0.2-0.2-0.3-0.6-0.3c-0.3,0-0.6,0-0.7,0.1
		c-0.1,0-0.2,0.1-0.3,0.3c-0.1,0.1-0.1,0.4-0.2,0.7c-0.1,0.3-0.2,0.8-0.7,1.2c0,0-0.1,0.1-0.3,0.3c-0.2,0.1-0.4,0.4-0.3,0.7
		c0.1,0.3,0.3,0.6,0.4,0.7c0.1,0.1,0.4,0.3,0.7,0.2C24.7,225.6,24.9,225.5,25,225.4z"/>
	<path class="st7" d="M18.2,225.3c-0.1-0.1-0.9-0.8-1.3-2c-0.4-1.1-0.3-1.4-0.2-1.6c0.1-0.2,0.2-0.3,0.6-0.3c0.3,0,0.6,0,0.7,0.1
		c0.1,0,0.2,0.1,0.3,0.3c0.1,0.1,0.1,0.4,0.2,0.7c0.1,0.3,0.2,0.8,0.7,1.3c0,0,0.1,0.1,0.3,0.3c0.2,0.1,0.4,0.4,0.3,0.7
		c-0.1,0.3-0.3,0.6-0.4,0.7c-0.1,0.1-0.5,0.3-0.7,0.2C18.5,225.5,18.3,225.4,18.2,225.3z"/>
	<path class="st6" d="M21.5,230.2c-1.5,0-2.4-0.4-2.6-0.4c-0.2,0-0.5,0-0.8,0.2c-0.3,0.2-0.3,0.5-0.3,1c0,0.4,0.1,1.6,0.1,1.6
		s0.2,1.2,0.5,2c0.3,0.7,0.7,1.3,1,1.5c0.3,0.2,0.9,0.7,2.1,0.8h0c1.1,0,1.8-0.5,2.1-0.7c0.3-0.2,0.7-0.8,1-1.5c0.3-0.7,0.5-2,0.5-2
		s0.2-1.1,0.2-1.6c0-0.4,0-0.8-0.3-1c-0.3-0.2-0.5-0.3-0.8-0.2C23.9,229.9,23,230.2,21.5,230.2L21.5,230.2z"/>
	<path class="st7" d="M21.5,228.9c-2.6,0-4.3-1.3-4.6-1.6c-0.3-0.3-0.5-0.8-1-0.6c-0.6,0.2,0.2,2.1,0.4,3.3c0.2,1.2,0.6,3.4,0.6,3.4
		s0.2,1.6,0.4,2c0.1,0.4,1.1,2.9,4.1,2.9l0,0c2.9,0,4-2.4,4.1-2.8c0.1-0.4,0.4-2,0.4-2s0.4-2.2,0.7-3.4c0.3-1.2,1-3.1,0.5-3.3
		c-0.5-0.2-0.7,0.3-1,0.6C25.9,227.7,24.2,228.9,21.5,228.9L21.5,228.9z"/>
	<path class="st23" d="M19.1,233.8c0-1.1,0.9-2,2-2l0,0c1.1,0,2,0.9,2,2l-0.1,26.7c0,1.1-0.9,2-2,2l0,0c-1.1,0-2-0.9-2-2L19.1,233.8
		z"/>
	<path class="st27" d="M19,256.9c0.4-0.2,1.1-0.8,1.1-2.5l0.8,0l0.3,0l0.8,0c0,1.8,0.6,2.4,1,2.6"/>
	
		<rect x="16.7" y="244.7" transform="matrix(5.351783e-03 -1 1 5.351783e-03 -226.8892 267.3586)" class="st23" width="8.5" height="6"/>
	<polyline class="st27" points="23,240.1 22,240.1 22,241.7 20.1,241.7 20.1,240.1 19,240.1 	"/>
	<line class="st27" x1="22" y1="240.1" x2="23.1" y2="238.9"/>
	<line class="st27" x1="20.1" y1="240.1" x2="19" y2="238.8"/>
	<g>
		<ellipse class="st4" cx="20.7" cy="264.5" rx="11.1" ry="11"/>
		<path class="st14" d="M18.3,256.2c0.5,0,1.1,0.2,1.3,0.6c0.1,0.3,0,1.4-0.1,1.7c-0.1,0.2-0.4,0.3-0.6,0.3
			C16.6,258.8,16.8,256.3,18.3,256.2z"/>
		<path class="st14" d="M18.2,259.4c0.9-0.1,1.8,0.6,2.5,0.8c0.5,0.2,1,0.2,1.4,0.4c0.1,0.1,0.2,0.1,0.3,0.2c0.1,0,0.4,0,0.4,0
			c1.3-0.9,2,0.7,1.1,1c-0.6,0.2-0.7-0.2-1.2-0.3c-0.2,0.3-0.6,1.1-1.1,0.9c-0.3-0.1-0.5-0.5-0.8-0.6c-0.5-0.2-0.5,0.3-0.4,0.5
			c0.1,0.2,0.5,1.2,0.7,1.3c0.3,0.1,0.5,0,0.9,0.1c0.2,0.1,0.5,0.2,0.7,0.3c0.3,0.1,0.8,0.4,1.1,0.6c0.2,0.2,0.3,0.5,0.5,0.7
			c0.5,0.3,1,0,1.2,0.7c0.3,0.9-0.2,2-0.3,2.8c-0.1,1.3,1.2,1.5,0.2,2.9c0,0.1-0.1,0.2-0.2,0.2c-0.3,0.1-0.7,0-0.9-0.1
			c-0.1,0-0.2-0.2-0.3-0.2c0,0,0,0,0-0.1c-0.2-0.3-0.3-0.7-0.4-1c-0.2-1.3-0.3-3-0.1-4.2c-0.3,0-1.4-0.3-1.6-0.2
			c-0.2,0.1,0,0.4,0.1,0.6c0.1,0.3,0.4,0.4,0.5,0.7c0.2,0.7-0.5,2.8-0.7,3.4c-0.1,0.4-0.1,1.1-0.4,1.4c-0.4,0.6-1.5,0.5-1.8-0.1
			c-0.3-0.5,0.1-1.2,0.3-1.6c0.2-0.5,1-1.8,0.8-2.6c-0.1-0.6-1-0.9-1.2-1.6c-0.1-0.3-0.2-0.6-0.1-1c0-0.3,0.3-0.5,0.2-0.8
			c-0.1-0.3-0.7-0.6-0.9-1c-0.3-0.6-1-3.3-1.3-0.7c0,0.4,0,0.9-0.1,1.3c-0.1,0.2-0.4,0.4-0.5,0.7c0.2,0.2,0.4,0.4,0.4,0.8
			c0,0.4-0.6,1-1,0.7c-1.2-0.7,0.2-1.5-0.3-2.3c-0.1-0.1-0.2-0.3-0.2-0.5c0-0.2,0.1-0.5,0.1-0.6c0.1-0.4,0-1.1,0.2-1.5
			c0.1-0.1,0.2-0.2,0.3-0.3C16.8,260.3,17.3,259.5,18.2,259.4z"/>
	</g>
	<path class="st1" d="M135.7,223.4c0,0,0-0.1,0-0.1c-0.9-13.3-8.3-29-22.3-46.7c-20.9-26.5-3-51.9-1.9-53.5
		c6.9-11.4,8.3-24.8,3.7-35.9c-4.2-10-12.5-17-23.3-19.6c-25.6-6.1-31.5-14.5-34.7-19l-0.1-0.2c-2.2-3.1-2.1-5.7-1.6-7.4
		c0,0,0.7,0.2,1.1,0.3c0.4,0.1,1.1,0.3,1.2,0.3c0.2,0.1,0.4,0.1,0.4,0.1c-0.3,1-0.3,2.7,1.3,4.9l0.1,0.2c3.2,4.5,8.5,11.9,33,17.8
		c11.9,2.8,20.9,10.4,25.4,21.4c5,12.1,3.5,26.5-3.9,38.7c-0.8,1.1-18.2,24.7,1.7,50c15,19.1,22.7,36,23,50.4c0,0-0.8-0.6-1-0.8
		c-0.2-0.1-0.6-0.3-0.9-0.4L135.7,223.4z"/>
	<g>
		<polygon class="st29" points="93.8,59.9 86.5,72.5 84.9,70.7 92.3,58.1 		"/>
		<line class="st30" x1="84.9" y1="70.7" x2="92.3" y2="58.1"/>
		<line class="st30" x1="86.5" y1="72.5" x2="93.8" y2="59.9"/>
	</g>
</g>
</svg>
