<?xml version="1.0" encoding="utf-8"?>
<!-- Generator: Adobe Illustrator 21.0.0, SVG Export Plug-In . SVG Version: 6.00 Build 0)  -->
<svg version="1.1" id="Calque_1" xmlns="http://www.w3.org/2000/svg" xmlns:xlink="http://www.w3.org/1999/xlink" x="0px" y="0px"
	 viewBox="0 0 113 229.5" style="enable-background:new 0 0 113 229.5;" xml:space="preserve">
<style type="text/css">
	.st0{fill:#00B0E5;stroke:#1A171B;stroke-width:0.8;}
	.st1{fill:#00B0E5;stroke:#1A171B;stroke-width:0.8;stroke-linecap:round;}
	.st2{fill:#FFFFFF;stroke:#000000;stroke-width:0.8;}
	.st3{fill:#FFD400;}
	.st4{fill:none;stroke:#000000;stroke-width:0.8;}
	.st5{fill:#F5F5F6;stroke:#1A171B;stroke-width:0.8;}
	.st6{fill:none;stroke:#1A171B;stroke-width:0.6;}
	.st7{fill:#E2E3E4;stroke:#1A171B;stroke-width:0.8;}
	.st8{fill:#F5F5F6;stroke:#1A171B;stroke-width:1.2;}
	.st9{fill:none;stroke:#1A171B;stroke-width:0.8;}
	.st10{fill:none;stroke:#1A171B;stroke-width:1.3;}
	.st11{fill:#D8D9DA;stroke:#1A171B;stroke-width:0.6;}
	.st12{fill:#E2E3E4;stroke:#1A171B;stroke-width:0.6;}
	.st13{fill:#E2E3E4;stroke:#1A171B;stroke-width:1.2;}
	.st14{opacity:0.8;fill:#FFFFFF;stroke:#1A171B;stroke-width:0.8;}
	.st15{fill:#FFD400;stroke:#1A171B;stroke-width:0.8;}
	.st16{fill:none;stroke:#1A171B;stroke-width:1.2;}
	.st17{fill:#FFFFFF;stroke:#1A171B;stroke-width:0.8;}
	.st18{fill:#9B9C9E;}
	.st19{fill:#E2E3E4;}
	.st20{fill:#E6E6E6;}
	.st21{fill:none;stroke:#939497;stroke-width:3.172;stroke-linecap:round;stroke-linejoin:round;}
	.st22{fill:#FFFFFF;}
	.st23{fill:none;stroke:#1A171B;stroke-width:0.4;stroke-linecap:round;stroke-miterlimit:10;}
	.st24{fill:none;stroke:#1A171B;stroke-width:0.8;stroke-linecap:round;stroke-linejoin:round;}
	.st25{fill:#FFFFFF;stroke:#1A171B;stroke-width:0.8;stroke-linecap:round;stroke-linejoin:round;}
	.st26{fill:#ECECED;}
</style>
<path class="st0" d="M60.1,29.3c-0.7,0-1.5-0.1-2.2-0.2c-0.6-0.1-1-0.7-0.8-1.3c0.1-0.6,0.7-1,1.3-0.8c5.4,1.2,10.2-3.8,10.3-3.8
	c0.4-0.4,1.1-0.5,1.6,0c0.4,0.4,0.5,1.1,0,1.6C70.1,24.8,65.7,29.3,60.1,29.3z"/>
<path class="st1" d="M19.6,87.2"/>
<g>
	<path class="st2" d="M11.3,35.1l0.2-26.2l1.1,0c0,0,0-1.1,0.1-1.8C12.8,6.4,13,5.8,13,5.8l-0.2-1.3c0,0,0.6-0.2,1.2-0.4
		c0,0-5.4-4.7-5.8,5C7.3,35.6,10.9,37,11.2,37.2c0.9,0.6,0.1,0.4,0.5,0.1L11.3,35.1z"/>
	<path class="st2" d="M13.8,38c0.9-0.5,2.7-1.9,3.3-5.2c2.3-11.3,1-19.1,0.6-24.2c-0.2-2.9-0.4-2.3-0.4-2.3c0-0.1-0.7-2.2-1.9-2.6
		c-0.6-0.2-1.9-0.5-3.7,0.4c-0.6,0.3,1.3-0.3,2,2c0.1,0.4,0.5,2.6,0.8,6.2c0.5,5.7,0,21.4,0.1,21.7c0.1,0.2-1,1-0.9,1.2
		c0.1,0.7,0.6,0.6,0.3,1.3C13.5,37.5,13.8,38,13.8,38z"/>
</g>
<path class="st1" d="M8,161.4c0,0,0.1,54.9-0.3,57.4c0,0-0.5,1.1-0.6,5.3c0,0,0,0.1,0,0.4l0-0.1c2.1-0.2,3-3.9,3-3.9
	s0.6-47.7,0.5-58.8l0-1.9l0-92.7l0,0c0-2.5,2-4.5,4.5-4.5l0,0c1.2,0,2.4,0.5,3.2,1.3l0.1,0.1l0,0l0,0c0.1,0.1,0.9,1.5,0.9,1.5
	l0.7-3.4v0c0,0-3-2-4.9-2l0,0c-3.9,0-7,3.1-7,7l0,83.8l0,8V161.4z"/>
<path class="st1" d="M18,110.8l1.4-42.2l0,0c0-2.5-2-4.5-4.5-4.5l0,0c-1.2,0-2.4,0.5-3.2,1.3l-0.1,0.1l0,0l0,0
	c-0.1,0.1-0.9,1.5-0.9,1.5L10,63.7l0,0c0,0,3-2.1,4.9-2l0,0c3.9,0,7.1,2.4,7,7l-1.4,42.2"/>
<g>
	<g>
		<path class="st3" d="M9.9,135.3c-0.9-1-2.9,0.1-2.9,0.1v1.5c0,0,0.5,2.6,0.5,4c0,1.4-0.8,3.1-0.8,3.1v3.9c0,0,2.8,0.1,6.6-2.9
			C17,142.2,10.8,136.3,9.9,135.3z M8.1,146.9c-0.3,0-0.6-0.5-0.6-1c0-0.6,0.3-1,0.6-1c0.3,0,0.6,0.5,0.6,1
			C8.7,146.5,8.5,146.9,8.1,146.9z M13,143.8c-0.4,0.8-1.8,1.3-2.8,0.6c-1-0.6-1.6-2.5-1.6-3.5c0-1,0-2.3,0-2.3c0-4,2.9,0.5,3.6,1.3
			C13,140.7,13.4,143.1,13,143.8z"/>
	</g>
	<g>
		<path class="st4" d="M9.9,135.3c-0.9-1-2.9,0.1-2.9,0.1v1.5c0,0,0.5,2.6,0.5,4c0,1.4-0.8,3.1-0.8,3.1v3.9c0,0,2.8,0.1,6.6-2.9
			C17,142.2,10.8,136.3,9.9,135.3z M8.1,146.9c-0.3,0-0.6-0.5-0.6-1c0-0.6,0.3-1,0.6-1c0.3,0,0.6,0.5,0.6,1
			C8.7,146.5,8.5,146.9,8.1,146.9z M13,143.8c-0.4,0.8-1.8,1.3-2.8,0.6c-1-0.6-1.6-2.5-1.6-3.5c0-1,0-2.3,0-2.3c0-4,2.9,0.5,3.6,1.3
			C13,140.7,13.4,143.1,13,143.8z"/>
	</g>
</g>
<path class="st4" d="M8.1,143.2c0,0-0.6,0.8-0.6,2.2c0,1.4,0.3,1.7,1.2,1.4c0.9-0.3,1.7-0.8,2.2-1.4"/>
<path class="st5" d="M22.4,57c-1-1.4-4.1-3-6.4-3.5c-2.3-0.5-5.2-0.6-6.8,1.7c-1.6,2.2-1,6.1-0.3,8.1c1.4,4.3,2.3,5.7,2.3,5.7
	c0.7,1.3,2,2.2,3.5,2.4c1.8,0.3,3.6-0.5,4.6-1.9c0,0,1.2-1.4,2.4-5.5C23.1,60,23.4,58.4,22.4,57z M13.7,60.9L13.7,60.9
	c-2,0.5-2.6-0.1-3.1-1.2c-0.4-0.9,0.1-2.5,0.5-3.1c0.5-0.7,1.2-0.9,1.2-0.9h0c0,0,0.8-0.2,1.5,0.2c0.6,0.3,1.8,1.5,1.9,2.5
	C15.9,59.5,15.7,60.3,13.7,60.9z"/>
<path class="st6" d="M19.8,60.1c0,0-0.4,1.5-0.4,1.6c0,0.1-0.1,0.4-0.3,0.4c-0.2,0-0.3,0-0.8-0.4c-0.5-0.4-1.8-0.8-2.7-0.8
	c-0.9,0-2.6,0.2-3.9,1.4c0,0-0.6,0.6-0.7,0.7c-0.1,0.2-0.4,0.3-0.6,0.2c-0.2-0.1-0.5-0.2-0.3-0.8"/>
<path class="st7" d="M15.7,56.3c0.3-0.4,0.8-0.6,1.4-0.7c0.5,0,1,0.2,1.4,0.5c0,0,0.1,0.1,0.2,0.2c0.1,0.1,0.4,0.2,0.6-0.1
	c0.2-0.3,0.2-0.7,0.2-1c0-0.3,0.1-0.5-0.3-0.6l-0.1,0c-1-0.5-2.1-0.9-3.1-1.1c-2.3-0.5-5.2-0.6-6.8,1.7c-0.4,0.5-0.6,1.1-0.8,1.8
	c0,0-0.1,0.3,0.4,0.4c0.5,0.1,1.2,0.2,1.4,0.2c0.2,0,0.4,0.1,0.5-0.3l0,0c0.1-0.2,0.2-0.4,0.3-0.6c0.5-0.7,1.2-0.9,1.2-0.9h0
	c0,0,0.8-0.2,1.5,0.2c0.3,0.1,0.6,0.4,0.9,0.7c0,0,0.4,0.4,0.6,0.6c0.2,0.2,0.3,0.1,0.3-0.1C15.6,56.8,15.6,56.5,15.7,56.3"/>
<path class="st6" d="M10.6,57L10.6,57c-0.1,0.3-0.2,0.3-0.4,0.2c-0.1,0-0.6-0.1-1-0.1c-0.3-0.1-0.3-0.3-0.3-0.3
	c0.1-0.5,0.3-0.9,0.6-1.2c0,0,0.2-0.3,0.5-0.5c0.2-0.2,0.3-0.4,0.4,0.1c0.1,0.5,0.3,1.1,0.3,1.2c0,0.1,0.1,0.3,0,0.4
	C10.6,56.9,10.6,57,10.6,57z"/>
<line class="st6" x1="14.8" y1="56.6" x2="14.9" y2="56.7"/>
<path class="st6" d="M14.9,56.7c0.4,0.4,0.6,0,0.6,0c0.1-0.1,0.2-0.2,0.2-0.3"/>
<path class="st8" d="M14.2,55.3c0-0.4,0.3-0.7,0.7-0.8c0.4,0,0.7,0.3,0.8,0.7c0,0.4-0.3,0.7-0.7,0.8C14.6,56,14.2,55.7,14.2,55.3z"
	/>
<path class="st6" d="M18.8,57.1c0,0.1,0.1,0.2,0.1,0.3"/>
<g>
	<polyline class="st9" points="18.6,60.6 19.3,61 19.2,60.6 	"/>
	<g>
		<polyline class="st10" points="17.8,60.5 18.2,60.9 18.2,60.6 		"/>
		<path class="st9" d="M19.6,60.5c0,0,0.7,0.3,0.7,0.3l-0.2-0.4"/>
		<polyline class="st9" points="20.5,60.2 21.3,60.4 21.1,60 		"/>
		<polyline class="st9" points="21.4,59.7 22.2,59.8 21.9,59.4 		"/>
		<polyline class="st9" points="22.2,59.1 22.6,59.1 22.4,58.9 		"/>
		<polyline class="st9" points="22.7,58.6 23,58.4 22.8,58.3 		"/>
		<path class="st7" d="M23,57.8c0-0.2,0.2-0.1,0.2-0.2c0-0.2-0.1-0.1-0.1-0.3c0-0.1,0.2-0.1,0.1-0.3c0-0.2-0.1-0.1-0.2-0.3
			c0-0.1,0.2-0.2,0-0.4c-0.2-0.2-0.4,0-0.4,0c-2.6,2.3-2.8,2.5-3.2,2.4c-0.6-0.2-0.5-0.6-0.5-0.6c0.1-0.2,0.1-0.4,0.1-0.6l0,0
			c0,0,0.2-0.2,0.2-0.2c0,0,0,0,0,0c0,0,0-0.1,0-0.2c0-0.1,0-0.1-0.1-0.1c0,0,0,0,0,0c-0.1,0.1-0.2,0.2-0.2,0.2
			c-0.1-0.3-0.3-0.6-0.5-0.8c-0.7-0.6-1.8-0.6-2.4,0.1c-0.3,0.4-0.5,0.8-0.4,1.2l2.3,2.7c0.1,0.1,0.4,0.1,0.8,0.1
			c0.4,0,1.1,0,1.9-0.3c0.7-0.3,1.3-0.8,1.9-1.3C22.9,58.4,23,57.8,23,57.8z M21.9,58.1c-0.2-0.1-0.6-0.4-0.3-0.6
			c0.3-0.3,0.6-0.5,0.7-0.6c0,0,0.1-0.1,0.3,0c0.1,0.1,0.1,0.3-0.1,0.7C22.2,58,22.1,58.2,21.9,58.1z"/>
		<path class="st6" d="M22.7,57.1c0,0-0.1,1.1-0.4,1.4c-0.3,0.3-1.2,1.2-2.1,1.5c-0.9,0.3-2.2,0.3-2.5,0c-0.3-0.3-0.3-0.4-0.3-0.5
			c0-0.1,0.1-0.1,0.1-0.1c0.3-0.1,0.6-0.2,0.8-0.4c0,0,0.1-0.1,0.3,0c0.2,0,0.6,0.1,0.9,0.1c0.3,0,0.6,0,1.1-0.4
			c0,0,0.6-0.5,1.1-0.9"/>
		<path class="st11" d="M16.8,59.1c0.5,0.1,1.1,0,1.5-0.4c0.6-0.6,0.5-1.6-0.1-2.1c-0.6-0.6-1.6-0.5-2.1,0.1
			c-0.3,0.3-0.4,0.7-0.4,1.1L16.8,59.1z"/>
		<path class="st6" d="M22.7,57.1c0,0-0.1,1.1-0.4,1.4c-0.3,0.3-1.2,1.2-2.1,1.5c-0.9,0.3-2.2,0.3-2.5,0c-0.3-0.3-0.3-0.4-0.3-0.5
			c0-0.1,0.1-0.1,0.1-0.1c0.3-0.1,0.6-0.2,0.8-0.4c0,0,0.1-0.1,0.3,0c0.2,0,0.6,0.1,0.9,0.1c0.3,0,0.6,0,1.1-0.4
			c0,0,0.6-0.5,1.1-0.9"/>
		<ellipse transform="matrix(0.672 -0.7405 0.7405 0.672 -37.053 31.6518)" class="st6" cx="17.2" cy="57.7" rx="0.7" ry="0.7"/>
		<ellipse transform="matrix(0.6714 -0.7411 0.7411 0.6714 -37.0734 31.6944)" class="st6" cx="17.2" cy="57.7" rx="1" ry="1"/>
		<ellipse transform="matrix(0.6714 -0.7411 0.7411 0.6714 -37.0734 31.6944)" class="st12" cx="17.2" cy="57.7" rx="1" ry="1"/>
		<ellipse transform="matrix(0.672 -0.7405 0.7405 0.672 -37.053 31.6518)" class="st9" cx="17.2" cy="57.7" rx="0.7" ry="0.7"/>
	</g>
</g>
<path class="st13" d="M18.7,57.8"/>
<ellipse transform="matrix(0.9983 -5.768317e-02 5.768317e-02 0.9983 -3.8139 1.0048)" class="st14" cx="15.5" cy="66.6" rx="4.7" ry="4.7"/>
<path class="st15" d="M9,63.3c1.5,4.3,2.3,5.7,2.3,5.7c0.7,1.3,2,2.2,3.5,2.4c1.8,0.3,3.6-0.5,4.6-1.9c0,0,1.2-1.4,2.4-5.5
	c1.2-4,1.6-5.7,0.6-7.1c-1-1.4-4.1-2.9-6.4-3.4c-2.3-0.5-5.2-0.5-6.8,1.7C7.6,57.5,8.3,61.3,9,63.3z M17.1,56.9c0,0,0.6-0.1,1.9,0.5
	c1.3,0.5,1.8,0.7,2,0.8c0.2,0.1,0.6,0.3,0.5,1c-0.1,0.8-0.4,1.2-0.9,0.8c-0.4-0.4-1.2-0.8-1.7-1.1c-0.5-0.3-1.7-0.6-1.9-0.6
	c-0.4-0.1-0.6-0.4-0.6-0.8C16.5,57.2,16.8,56.9,17.1,56.9z M11.1,56.6c0.5-0.7,1.2-0.9,1.2-0.9l0,0c0,0,0.8-0.2,1.5,0.2
	c0.6,0.3,1.8,1.5,1.9,2.4c0.1,1.2-0.1,2-2.1,2.5v0c-2,0.5-2.6-0.1-3.1-1.2C10.2,58.8,10.7,57.2,11.1,56.6z"/>
<path class="st6" d="M19.8,60c0,0-0.3,1.5-0.4,1.6c0,0.1-0.1,0.4-0.3,0.4c-0.2,0-0.3,0-0.8-0.4c-0.5-0.4-1.9-0.8-2.7-0.8
	c-0.9,0-2.7,0.3-3.9,1.5c0,0-0.6,0.6-0.7,0.8c-0.1,0.2-0.4,0.3-0.6,0.2c-0.2-0.1-0.5-0.2-0.4-0.8"/>
<ellipse transform="matrix(0.146 -0.9893 0.9893 0.146 -52.6175 72.1746)" class="st16" cx="15.5" cy="66.6" rx="1.7" ry="1.7"/>
<path class="st6" d="M16.8,66.8c-0.1,0.7-0.8,1.2-1.5,1.1c-0.7-0.1-1.2-0.8-1.1-1.5c0.1-0.7,0.8-1.2,1.5-1.1
	C16.4,65.3,16.9,66,16.8,66.8z"/>
<path class="st15" d="M14.7,57.1c0,1-0.8,1.8-1.8,1.8l0,0c-1,0-1.8-0.8-1.8-1.8l-0.1-24.6c0-1,0.8-1.8,1.8-1.8l0,0
	c1,0,1.8,0.8,1.8,1.8L14.7,57.1z"/>
<rect x="10.1" y="40.4" transform="matrix(1 -5.281299e-03 5.281299e-03 1 -0.2339 6.854263e-02)" class="st15" width="5.5" height="7.9"/>
<polyline class="st4" points="11,51.4 11.9,51.4 11.9,49.9 13.7,49.9 13.7,51.3 14.7,51.3 "/>
<line class="st4" x1="11.9" y1="51.4" x2="11" y2="52.5"/>
<line class="st4" x1="13.7" y1="51.3" x2="14.7" y2="52.5"/>
<g>
	<path class="st17" d="M107.9,39.7"/>
</g>
<g>
	<circle class="st18" cx="12.4" cy="6.2" r="6"/>
	<path class="st19" d="M15.5,2.7c0.1,0,0.2,0,0.2,0.1c0,0,0.1,0.1,0.1,0.2c0.1,0.2-0.5,0.8-0.7,0.9c-0.4,0.3-0.7,0.7-1,1
		c-0.2,0.2-0.5,0.4-0.6,0.6c-0.3,0.4-1,0.4-0.8-0.3c0-0.1,0.3-0.2,0.3-0.3c-0.2-0.1-0.4-0.2-0.6-0.2c-0.7-0.3-0.8,0.6-1.4-0.4
		c-0.5-0.8,1.1-0.8,1.8-0.7c0.3,0,0.6,0.2,0.8,0.3C13.8,3.9,13.9,4,14,4c0,0,0,0,0,0c0.3-0.2,0.6-0.6,0.9-0.8
		C15,3.1,15.2,3,15.3,2.9C15.4,2.9,15.4,2.7,15.5,2.7z"/>
	<path class="st19" d="M8.6,2.8c0.1,0,0.2,0,0.3,0.1C9.3,3,9.4,3.4,9.7,3.7c0.3,0.3,0.6,0.5,0.9,0.8c0.1,0.1,0.2,0.3,0.4,0.4
		c0.2,0.1,0.4,0.2,0.5,0.4c0.1,0.1,0.1,0.2,0.1,0.4c-0.2,0.5-0.7-0.1-0.9-0.1c-0.4,0.7-0.2,1.7,0.3,2.2C11,7.9,11.3,7.9,11.4,8
		c0.5,0.3,1.3,0.3,1.8,0c0.2-0.1,0.3-0.3,0.5-0.4c0.2-0.1,0.4-0.3,0.4-0.5c0.1-0.3,0.1-0.7,0.1-1.1c0-0.1-0.1-0.2-0.1-0.4
		c0.1-0.1,0.6-0.6,0.8-0.5c0.1,0,0.2,0.3,0.2,0.4c0,0.1,0,0.3,0.1,0.4c0,0,0,0.1,0,0.1c0,0,0,0.6,0,0.7c-0.1,1.3-1,2.2-2,2.5
		c-0.8,0.3-2,0-2.5-0.3c-0.1-0.1-0.2-0.3-0.3-0.4C10.2,8.3,10,8.3,9.8,8.1C9.6,7.8,9.3,6.8,9.3,6.3c0-0.4,0.1-0.9,0.3-1.2
		c0.1-0.1,0.2-0.3,0.2-0.4c-0.4-0.3-0.7-0.7-1-1C8.8,3.5,8.1,2.8,8.6,2.8z"/>
</g>
<g>
	<ellipse class="st18" cx="9.2" cy="220.4" rx="9.2" ry="9.1"/>
	<path class="st20" d="M7.2,213.5c0.4,0,0.9,0.2,1.1,0.5c0.1,0.3,0,1.2-0.1,1.4c0,0.1-0.4,0.3-0.5,0.3C5.8,215.7,6,213.6,7.2,213.5z
		"/>
	<path class="st20" d="M7.1,216.2c0.7-0.1,1.5,0.5,2.1,0.7c0.4,0.1,0.8,0.2,1.1,0.4c0.1,0,0.1,0.1,0.2,0.1c0.1,0,0.3,0,0.3,0
		c1.1-0.7,1.7,0.5,0.9,0.8c-0.5,0.2-0.6-0.2-1-0.2c-0.1,0.3-0.5,0.9-0.9,0.7c-0.2-0.1-0.4-0.4-0.6-0.5c-0.4-0.1-0.4,0.2-0.3,0.4
		c0.1,0.2,0.4,1,0.6,1c0.2,0.1,0.5,0,0.8,0.1c0.2,0,0.4,0.1,0.6,0.2c0.3,0.1,0.7,0.3,0.9,0.5c0.2,0.2,0.3,0.4,0.5,0.6
		c0.4,0.3,0.9,0,1,0.6c0.2,0.7-0.2,1.7-0.2,2.3c-0.1,1.1,1,1.3,0.2,2.4c0,0-0.1,0.1-0.2,0.2c-0.3,0.1-0.6,0-0.8-0.1
		c-0.1,0-0.2-0.1-0.2-0.2c0,0,0,0,0-0.1c-0.1-0.2-0.2-0.5-0.3-0.9c-0.2-1.1-0.3-2.5,0-3.5c-0.2,0-1.1-0.3-1.3-0.2
		c-0.2,0.1,0,0.3,0,0.5c0.1,0.2,0.4,0.3,0.5,0.6c0.1,0.5-0.4,2.3-0.6,2.8c-0.1,0.3-0.1,0.9-0.3,1.2c-0.4,0.5-1.2,0.4-1.5-0.1
		c-0.2-0.4,0-1,0.2-1.3c0.2-0.4,0.8-1.5,0.7-2.1c-0.1-0.5-0.8-0.8-1-1.3c-0.1-0.2-0.2-0.5-0.1-0.8c0-0.2,0.3-0.4,0.2-0.6
		c-0.1-0.2-0.6-0.5-0.8-0.8c-0.2-0.5-0.8-2.7-1.1-0.6c0,0.3,0,0.8-0.1,1c-0.1,0.2-0.3,0.3-0.4,0.6c0.2,0.1,0.3,0.3,0.4,0.6
		c0,0.3-0.5,0.8-0.8,0.6c-1-0.6,0.1-1.2-0.3-1.9c-0.1-0.1-0.2-0.2-0.2-0.4c0-0.2,0.1-0.4,0.1-0.5c0.1-0.4,0-0.9,0.2-1.2
		c0-0.1,0.2-0.1,0.2-0.2C6,217,6.4,216.3,7.1,216.2z"/>
</g>
<g>
	<path class="st21" d="M17.4,157.7c0.1,6.9-0.2,25.3-0.2,25.3"/>
	<polyline class="st21" points="15.1,160.8 17.4,156 19.9,160.9 	"/>
</g>
<g>
	<path class="st21" d="M61.3,91.2c-4.3,5.3-16.5,19.2-16.5,19.2"/>
	<polyline class="st21" points="57.5,92 62.5,89.8 61.2,95.2 	"/>
</g>
<g>
	<polygon class="st22" points="14.2,199.5 2.8,203.5 2.8,201.5 14.2,197.5 	"/>
	<line class="st23" x1="2.8" y1="201.5" x2="14.2" y2="197.5"/>
	<line class="st23" x1="2.8" y1="203.5" x2="14.2" y2="199.5"/>
</g>
<path class="st0" d="M34,37.9c0,0,0.2-3-4.1-0.7l-0.6-2.1c0,0,7.2-2.4,7.4,2.7L34,37.9z"/>
<g>
	<g>
		<g>
			<g>
				<path class="st15" d="M33,29.5c-0.5-1-0.9-1.2-1.3-1.7c-0.2-0.2-2.2-1-2.2-1l-0.7,0.9c0,0,1.5,1.2,2.1,2.9 M29.8,27.3l-0.6,0.8
					 M30.9,30.6c0,0,0.2,0.4,0.3,1.2c0,0,0.2,0.9-0.2,2.3c0,0-0.2,0.8-0.9,2.1c0,0-0.8,1.7-1.9,2.1c0,0-0.9,0.4-2.1-0.5l-1.9-1.6
					l-2.5-2.2c0,0-2.3-2.1-3.3-3.1c0,0-1.8-1.8-2.5-2.6c0,0-1-1.1-1.4-1.7c0,0-0.4-0.7,0.1-1.6c0,0,0.1-0.1,0.3-0.4c0,0,0-1.5,0-2.1
					c0-0.5,0-1.1,0-1.1c-0.5,0.3-1.6,1-2.1,1.9c0,0-0.7,0.9-0.8,2.2c0,0-0.1,1.3,0.6,2.4c0,0,0.5,1,1.6,2.2l1.2,1.3
					c0,0,1.4,1.5,2.2,2.1l1.5,1.4l2.4,2.2l1.6,1.4c0,0,2.2,1.9,3.2,2.1c0,0,1.1,0.4,2.1,0.2c0,0,1.3-0.1,2.2-0.9
					c0,0,1.1-0.8,1.7-2.1c0,0,0.7-1.1,1.2-2.6c0,0,0.5-1.4,0.4-2.7c0,0,0-1.9-0.6-3.1 M18.4,22.7c0,0,0.9-0.3,2.1,0l0.4,0.2
					c0.2,0.1,0.4,0.3,0.6,0.5c0.2,0.1,0.4,0.1,0.7-0.2c0.3-0.3,0.6-0.7,0.8-0.9c0.2-0.2,0.2-0.6-0.2-1l-1.1-0.9c0,0-0.2-0.2-1.5-0.4
					c0,0-0.6-0.1-1.7,0c0,0,0,0.7,0,1.1C18.4,21.6,18.4,22.7,18.4,22.7z"/>
			</g>
		</g>
	</g>
	<path class="st24" d="M30,28.9c0.2,0.2,0.4,0.8,0.8,0.7c0.3-0.1,0.5-0.4,0.7-0.7c0.2-0.2,0.4-0.9,0-1.2"/>
	<line class="st25" x1="31.2" y1="27.9" x2="30.2" y2="29.3"/>
	<path class="st24" d="M21.1,20.5c-0.7-0.3-1.3-0.3-2,1.2c-0.1,0.2,0,0.3,0,0.4"/>
	<path class="st15" d="M28.8,29.6c0,0,0.2,0.2,0.6-0.2c0.1-0.1,0.3-0.3,0.7-1c0.4-0.6,0.1-0.9,0-0.9c0,0-0.1-0.1-0.3-0.3
		c-0.1-0.1-0.3,0-0.6-0.3c-0.5-0.4-0.3-0.4-0.5-0.6c-2.5-2-7.4-5.9-7.4-5.9c-0.4-0.3-0.8,0-1.1,0.5c-0.4,0.5-0.7,0.8-0.3,1.1
		c0.4,0.4,1.2,1.1,1.2,1.1s0.6,0.4,0.5,0.5L28.8,29.6z"/>
	<g>
		<g>
			<path class="st15" d="M29.4,26.8c0.3-0.5,0.1-0.7,0.1-0.7L29,25.7l0-0.1c0,0-2.8-2.4-3.1-2.6c-0.2-0.2-0.2-0.1-0.2-0.1
				s-0.3-0.2-0.5-0.4c-0.2-0.1-0.3-0.1-0.4-0.1l-0.2,0.2c-0.4,0.6-1.2,1.6-1.7,2.2c-0.1,0.1-0.3,0.3,0.1,0.6
				c0.4,0.3,0.5,0.4,0.5,0.4l0,0.1l3.1,2.7h0.1l0.5,0.4c0,0,0.2,0.2,0.6-0.2C28.3,28.4,29.1,27.4,29.4,26.8z"/>
		</g>
	</g>
	<path class="st15" d="M21.1,22.1c-0.1-0.2-0.1-0.4,0-0.6c0.2-0.2,0.4-0.1,0.6,0c0.2,0.2,0.1,0.4,0,0.6
		C21.5,22.3,21.2,22.3,21.1,22.1"/>
</g>
<path class="st9" d="M30,35.9c0,0-0.4-0.3-0.1-0.6"/>
<path class="st0" d="M77.1,19.9C61.5,36.5,37.1,39,36.9,39.1c-0.1,0-0.1,0-0.2,0c-0.5,0-1-0.4-1-0.9c-0.1-0.6,0.3-1.1,0.9-1.2
	c0.2,0,23.8-2.5,38.8-18.3L77.1,19.9z"/>
<path class="st0" d="M33.2,35.4c0.1,0,0.3,0,0.3,0c0.3,0,0.6,0.1,0.6,0.1c0.3,0.1,0.4,0.2,0.6,0.4l0,0c0.7,0.6,0.9,2.1,0.8,3.5l0,0
	c0,0.6-0.3,1-0.6,1.4l0,0c-0.7,0.7-1.9,1.1-3,0.7l0,0c-0.8-0.3-1.5-0.7-2.1-1.3l0,0c-0.7-0.7-1.2-1.5-1.3-2l0,0c0-0.1,0-0.3,0.3-0.6
	l0,0c0.2-0.2,0.5-0.4,0.7-0.5l0,0c0.1-0.1,0.2-0.1,0.3-0.2l0,0c0.1,0,0.1,0,0.1,0l-1-2l0,0l0,0c-0.1,0-0.9,0.4-1.6,1.2l0,0
	c-0.5,0.5-1.1,1.4-0.8,2.6l0,0c0.2,1.1,1,2.2,1.9,3.1l0,0c0.8,0.7,1.8,1.4,3,1.8l0,0c1.9,0.6,4,0.1,5.3-1.3l0,0c0,0,0,0,0,0l0,0
	c0.7-0.7,1.1-1.7,1.2-2.7l0,0c0.1-1.6,0.1-3.8-1.5-5.3l0,0c-0.5-0.5-1.1-0.8-1.9-1c0,0-0.3-0.1-0.5-0.1c0,0,0-0.1-0.1,0
	c0,0,0,0.4-0.1,1.1C33.4,34.8,33.2,35.4,33.2,35.4z"/>
<path class="st0" d="M30.4,35.6l-0.1,0c-0.1,0-0.2,0.1-0.4,0.1l0,0c0.3,0.3,1.2,0.7,2.6,0.9l0,0c0.8,0.1,1.7,0.3,2.8,0.6
	c0.3,0.8,0.1,2.3,0.1,2.3C34,39.2,33,39,32.2,38.9l0,0c-1.6-0.3-2.9-0.7-3.7-1.5l0,0c-0.4-0.4-0.8-1-0.8-1.6l0,0
	c-0.1-0.6,0.2-1.1,0.5-1.4l0,0c0.4-0.4,0.9-0.7,1.3-0.8c0,0,1.1-0.4,1.8-0.4c0,0-0.1,0.5-0.2,1.1C30.7,34.9,30.4,35.6,30.4,35.6z"/>
<path class="st0" d="M33.4,39.1c-0.1,0.3-0.3,0.6-0.3,1.1c-0.1,1.3,0.4,3.5,2.2,5.4c3.6,3.8,10.8,4.5,17.7,5.2
	c6.9,0.7,13.9,1.4,16.6,5c1.2,1.6,1.5,3.6,0.9,6.4c-0.1,0.6,0.3,1.1,0.8,1.2c0.1,0,0.1,0,0.2,0c0.5,0,0.9-0.3,1-0.8
	c0.6-3.3,0.2-6-1.3-8c-3.2-4.3-10.8-5.1-18.1-5.8c-6.6-0.6-13.4-1.3-16.4-4.5c-1.6-1.7-1.8-3.5-1.6-4c0,0,0.1-0.1,0.2-0.4
	c0,0-0.5-0.2-0.8-0.3C34.3,39.3,33.4,39.1,33.4,39.1z"/>
<g>
	<path class="st17" d="M63.5,79.1c0,0-2.1-1.8-2.3-2.6c-0.1-0.8-0.4-2.8-0.4-2.8s-0.8-1.9-0.6-2.4c0.2-0.6,0.6-1.2,1-1.1
		c0.4,0.1,1.2,0.7,1.2,0.7l0.3-1.1c0,0,0.4-1,0.6-1.7c0.2-0.7-0.8-0.9-0.1-1.6c0.7-0.8,1.9-2.2,2.1-2.2c0.2,0,2-0.3,2-0.3
		s0.6-1,1.2-1.8c0.7-0.8,3.3-2,3.9-2.2c0.6-0.2,0.5-0.6,0.5-0.6l0.1-0.5c0,0,1-2,2-3.1c0.9-1.1,1.3-2.7,3.5-1.5
		c2.2,1.3,8.7,5.5,8.5,9.7c-0.1,0.2-0.2,1.2-0.2,1.2s-0.7,2.8-3.3,2.9c-2.6,0.1-2.9,0.8-3.2,0.5c-0.3-0.3,0.1,0.7-1.5,1.7
		c-1.7,1-1.3,2.1-1.8,2.8c-0.5,0.7-1.3,1.2-1.6,1.9c-0.3,0.7-0.9,2.1-1.4,2.1c-0.5,0-2.4-0.2-2.4-0.2s-0.6,1-1.9,1.8
		c-0.7,0.4-1.7,1.3-2.7,1.5C66,80.5,65.1,79.7,63.5,79.1"/>
	<path class="st9" d="M73.9,67.3c0,0-1.3,1-2.3,2.6c-0.9,1.6-1.4,1.6-1.4,1.6s-1,1.1-1.4,1.7c-0.4,0.6-0.6,2.6-1.4,2.9
		c-0.8,0.3-1.3,0.6-2.2,0c-1.8-1.1-1.8-2.5-1.6-3.7c0.2-1.2,1.2-2.4,2.1-4.1c0.2-0.3,0.5-1,0.9-2.1"/>
	<path class="st9" d="M71.6,77c0,0,0.6-2.2,0.6-3.9"/>
	<path class="st9" d="M80.3,68.7c0,0,0.3-3-1.3-5.4c-1.6-2.4-3.3-3.6-3.6-3.8"/>
	<path class="st9" d="M62.4,70.9c0,0,1.2,0.8,1.2,1.7"/>
	<path class="st9" d="M67.3,64c0,0-1,1-1.4,2.1c-0.3,1.2-0.4,2.3-0.4,2.3"/>
	<path class="st9" d="M62.7,69.9c0,0,0.8-1.8,3-2.3"/>
</g>
<path class="st1" d="M63.5,73.1l-35.2,40.2l0,0c-1.7,1.8-4.5,1.9-6.3,0.2l0,0c-0.9-0.9-1.4-2-1.4-3.1l0-0.1l0,0l0,0
	c0-0.1,0.3-1.8,0.3-1.8l-2.8,2h0c0,0,0.8,3.6,2.2,4.9l0,0c2.8,2.6,7.3,2.5,9.9-0.3l34.5-39.3C64.6,75.7,63.4,74.7,63.5,73.1z"/>
<path class="st15" d="M20.8,108.5c1.5-1.4,3.7-1.9,5.7-1.1c2,0.8,3.2,2.8,3.3,4.8"/>
<path class="st15" d="M26.1,108.6c-1.4-0.6-2.5-0.2-2.7-0.1c-0.2,0.1-0.6,0.1-1,0.1c-0.5,0-2.5,0-3.1,0c-0.6,0-0.7,0-1,0.1
	c-0.3,0.1-0.5,0.6-0.7,1.2c-0.2,0.6-0.6,1.8-0.6,2.6c-0.1,0.8,0,1.2,0,2.3c0,1.1-0.3,2.2-0.3,2.2s-0.4,1.9-0.6,2.7
	c-0.2,0.7-0.4,1.6-0.4,2.4c0,0.7,0.3,1.7,0.7,2.4c0.4,0.7,1.3,1.6,2.4,2l0,0c1.1,0.5,2.4,0.4,3.1,0.2c0.8-0.2,1.7-0.7,2.2-1.2
	c0.5-0.5,1-1.3,1.4-1.9c0.4-0.6,1.4-2.3,1.4-2.3s0.6-0.9,1.3-1.8c0.8-0.8,1.1-1.1,1.6-1.7c0.5-0.6,1.1-1.7,1.4-2.3
	c0.2-0.6,0.5-1,0.4-1.3c-0.1-0.3-0.2-0.4-0.6-0.8c-0.4-0.4-1.9-1.8-2.2-2.2c-0.3-0.3-0.6-0.6-0.7-0.8
	C28,110.2,27.4,109.2,26.1,108.6L26.1,108.6z"/>
<path class="st15" d="M26.3,113.1c-0.4,1-1.5,1.4-2.4,1c-1-0.4-1.4-1.5-1-2.4c0.4-1,1.5-1.4,2.4-1C26.2,111,26.6,112.1,26.3,113.1z"
	/>
<path class="st9" d="M25.9,116.4c0.1,0,1-0.3,1.6-1.1c0.7-0.7,0.7-1,0.7-1.1c0-0.1-0.1-0.3-0.3-0.4c-0.3-0.1-0.5-0.2-0.6-0.2
	c-0.1,0-0.2,0-0.3,0.1c-0.1,0.1-0.2,0.3-0.3,0.5c-0.1,0.2-0.4,0.5-0.9,0.7c0,0-0.1,0.1-0.3,0.1c-0.2,0-0.4,0.2-0.4,0.5
	c0,0.2,0,0.5,0.1,0.6c0,0.1,0.2,0.4,0.5,0.3C25.6,116.5,25.8,116.4,25.9,116.4z"/>
<path class="st9" d="M20.7,114.2c-0.1-0.1-0.5-0.9-0.4-1.9c0.1-1,0.2-1.2,0.3-1.3c0.1-0.1,0.3-0.2,0.5-0.1c0.2,0.1,0.5,0.2,0.5,0.3
	c0.1,0.1,0.1,0.2,0.1,0.3c0,0.1-0.1,0.4-0.1,0.6c0,0.2-0.1,0.6,0.1,1.2c0,0,0.1,0.2,0.2,0.3c0.1,0.2,0.2,0.5,0,0.6
	c-0.2,0.2-0.4,0.3-0.5,0.4c-0.1,0.1-0.4,0.1-0.6-0.1C20.8,114.5,20.8,114.4,20.7,114.2z"/>
<path class="st17" d="M21.8,119.1c-1.1-0.5-1.7-1-1.9-1.1c-0.2-0.1-0.4-0.1-0.7-0.1c-0.3,0.1-0.4,0.3-0.5,0.7
	c-0.1,0.3-0.4,1.3-0.4,1.3s-0.3,1-0.3,1.7c0,0.6,0.1,1.2,0.3,1.4c0.2,0.2,0.5,0.9,1.3,1.2h0c0.9,0.4,1.5,0.2,1.8,0.1
	c0.3-0.1,0.8-0.4,1.2-0.8c0.5-0.4,1-1.4,1-1.4s0.5-0.8,0.6-1.1c0.2-0.3,0.2-0.6,0.1-0.9c-0.1-0.3-0.3-0.4-0.5-0.4
	C23.7,119.5,22.9,119.5,21.8,119.1L21.8,119.1z"/>
<path class="st9" d="M22.2,118.1c-2-0.8-2.9-2.3-3-2.7c-0.1-0.3-0.1-0.8-0.6-0.8c-0.5,0-0.5,1.7-0.7,2.7c-0.2,1-0.6,2.8-0.6,2.8
	s-0.3,1.3-0.3,1.7c0,0.4,0,2.6,2.2,3.5l0,0c2.3,0.9,3.8-0.6,4.1-0.9c0.2-0.3,0.9-1.4,0.9-1.4s1-1.5,1.6-2.4c0.6-0.8,1.8-2,1.4-2.4
	c-0.3-0.3-0.6,0-0.9,0.1C25.9,118.4,24.2,118.9,22.2,118.1L22.2,118.1z"/>
<path class="st15" d="M18.8,121.1c0.3-0.8,1.3-1.2,2.1-0.9l0,0c0.8,0.3,1.2,1.3,0.9,2.2l-8.3,20.5c-0.3,0.8-1.3,1.2-2.1,0.9l0,0
	c-0.8-0.3-1.2-1.3-0.9-2.2L18.8,121.1z"/>
<path class="st4" d="M11.6,138.8c0.4,0,1-0.2,1.6-1.6l0.6,0.2l0.2,0.1l0.6,0.3c-0.6,1.4-0.2,2,0,2.3"/>
<rect x="12.4" y="129.9" transform="matrix(0.3765 -0.9264 0.9264 0.3765 -112.7036 97.2579)" class="st15" width="7.1" height="5"/>
<polyline class="st4" points="19.9,127.2 19.1,126.8 18.6,128.1 17.1,127.5 17.6,126.2 16.8,125.9 "/>
<line class="st4" x1="19.1" y1="126.8" x2="20.3" y2="126.2"/>
<line class="st4" x1="17.6" y1="126.2" x2="17.2" y2="124.9"/>
<path class="st17" d="M73.1,58.9l-1-1.3l1.9-3.3l0.9,0.5l0.3-1.5c0,0-0.1-0.8,0.2-1.4c0.6-1.1,1.2-1.3,1.2-1.3s0.2-2.2,0.9-3.2
	c0.6-1,2.7-4.8,3.6-5.9c0.9-1.1,1-0.6,1.1-1.6c0.1-1,0.5-1.4,0.8-2.5c0.4-1.1,0.3-1.8,1.5-3.5c1.2-1.7,2.2-3,2.5-3.7
	c0.3-0.7,1.5-2.6,1.9-2.8c0.4-0.2,1.2-0.9,1.2-0.9s1.1-0.5,1.4-1c0.3-0.5,0.5-2.5,0.5-2.5s0.5-1.9,0.9-2c0.3-0.2,0.3-1.3,0.3-1.3
	s0.2-1.5,0.7-2.7"/>
<path class="st17" d="M89,28.2c0,0,4.5,1.7,7.6-1.2"/>
<path class="st17" d="M100.2,36.5c0,0-12.5-2.9-8.6-3.9"/>
<path class="st17" d="M93.7,37c0,0-10.4,1.1-9.3,0.3c1.2-0.8,2.3-1.5,2.3-1.5"/>
<path class="st17" d="M89.3,62.2l-0.5-3.5c0,0-4.4-3.4-4.9-4c-0.4-0.6-4-4.8-6.3-3.8"/>
<path class="st17" d="M73.2,58.8c0,0,0.8-1.7,1.7-2.8c1.1-1.2,1.4-3,3.7-1.6c2.2,1.3,8.7,5.5,8.4,9.7c0,0,0,0.1,0.2,0
	c0.2-0.1,0.3-0.1,0.3-0.1c0.1-0.2,1,0,1.1,0.1c0.2,0.1,1.1,0.6,3.1-0.5c2-1.1,2.8-3.3,3.3-4.2c0.5-0.8,1.3-1.8,2.4-2.6
	c1.1-0.8,0.6-1.2,0.8-2.5c0.2-1.3,0.9-0.6,2-1.9c1.1-1.3,2.2-3.6,2.8-4.9c0.6-1.3,1.3-1.8,1.6-2.4c0.3-0.6,1.3-2.2,1.3-2.2l2-3.2
	c0,0,3.5-3.7,4.9-4.5"/>
<g>
	<polygon class="st22" points="54.8,44.8 50.6,56.1 49.1,54.9 53.2,43.6 	"/>
	<line class="st23" x1="49.1" y1="54.9" x2="53.2" y2="43.6"/>
	<line class="st23" x1="50.6" y1="56.1" x2="54.8" y2="44.8"/>
</g>
<g>
	<path class="st17" d="M69.9,28.6"/>
	<path class="st17" d="M69.9,28.6"/>
</g>
<g>
	<path class="st0" d="M79.6,14.2c0.6-0.9,1.1-1.7,1.6-2.5c1-1.7,2-2.9,2.7-3.7c0.8-0.9,1.5-1.3,2-1.3c0.1,0,0.3,0,0.6,0.2
		c0.2,0.2,0.3,0.4,0.2,0.6c-0.1,0.6-0.5,1.3-1.1,2.1c-1,1.2-2.6,2.5-4.2,3.5C80.8,13.3,80.2,13.7,79.6,14.2
		c-1.9,2.9-4.3,6.2-5.8,7.8l-1.1,1.2l0.2,0.2c1.7-1.8,7.8-6.8,9.8-8c1.4-0.8,3.4-2.3,4.8-3.9c1-1.1,1.7-2.4,1.9-3.6
		c0.1-1.1-0.2-2.1-1-2.9c-0.8-0.8-1.8-1.1-2.8-1c-1.1,0.1-2.3,0.9-3.5,2.1c-1,1-2,2.4-3.1,4.2c-1.8,3.1-5.2,7.9-7,9.7L69.9,22
		l1.9,1.9l0.7-0.8"/>
</g>
<g>
	<path class="st0" d="M72.8,19c0.2,0.1,0.4,0.2,0.5,0.3c1.1,0.6,2.5,1.4,3.6,1.6c0.3,0.1,0.6,0.1,0.8,0.2c0,0,0.1,0,0.1,0
		c0.5,0,0.7-0.1,1.2-0.5c0.4-0.4,0.6-1,0.4-1.5c-0.3-0.6-0.6-0.9-0.7-0.9c0,0-0.5,0.4-0.5,0.4c-0.4,0.2-0.6,0-1.1-0.2l0,0
		c-0.8-0.3-1.8-0.9-2.2-1.2c-0.3-0.2-0.6-0.4-0.8-0.5c-1-0.5-2.5,0-3.7,1.2C70.1,18,70,18.2,70,18.3C70.7,18.2,71.6,18.3,72.8,19z"
		/>
	<g>
		<path class="st0" d="M73.4,23.9c0,0.1-0.1,0.3-0.1,0.4c-0.1,0.4-0.3,0.8-0.4,1.2l0,0c0.2,0,0.4,0,0.6-0.1c0,0,0,0,0,0
			c0,0,0.1,0,0.1,0c0,0,0,0,0,0c0,0,0.1,0,0.1,0c0,0,0,0,0,0c0,0,0.1,0,0.1,0c0,0,0,0,0,0c0.1,0,0.2-0.1,0.2-0.1c0,0,0,0,0.1,0
			c0,0,0,0,0.1,0c0,0,0,0,0.1,0c0,0,0,0,0,0c0,0,0,0,0.1,0c0,0,0,0,0,0c0,0,0,0,0.1-0.1c0,0,0,0,0,0c0,0,0.1-0.1,0.1-0.1
			c0.5-0.4,0.8-1,1-1.6c-0.6-0.2-1.1-0.4-1.7-0.7C73.6,22.9,73.5,23.4,73.4,23.9z"/>
		<g>
			<path class="st0" d="M70.5,20.8c0,0-0.1,0-0.1-0.1c-0.6-0.3-1.7-0.6-2.5-0.6c0,0,0,0,0,0c0,0-0.1,0-0.1,0
				c-1.7,0.1-2.4,1.1-2.6,1.7c-0.1,0.3-0.1,0.5,0,0.8c0.4-0.2,0.8-0.3,1.4-0.3c0.8,0,1.7,0.2,2.4,0.3c0.6,0.1,1.4,0.3,1.8,0.4
				c0,0,0,0,0,0c0.2-0.6,0.4-1.2,0.6-1.7c0,0-0.1,0-0.1-0.1C71,21.1,70.7,20.9,70.5,20.8z"/>
			<path class="st0" d="M68.1,19.6c-0.1,0.2-0.2,0.4-0.2,0.6c0,0,0,0,0,0c0.8-0.1,1.8,0.3,2.5,0.6c0,0,0.1,0,0.1,0.1
				c0.2,0.1,0.5,0.3,0.8,0.4c0,0,0.1,0,0.1,0.1c0.1,0,0.2,0.1,0.3,0.1c0,0,0,0,0,0c0.1,0,0.2,0.1,0.3,0.1c0,0,0.1,0,0.1,0.1
				c0.1,0,0.1,0.1,0.2,0.1c0,0,0.1,0,0.1,0.1c0.1,0,0.2,0.1,0.3,0.1l0,0c0.1,0.1,0.2,0.1,0.4,0.2h0l0,0c0.1,0.1,0.2,0.1,0.4,0.2
				c0,0,0,0,0,0c0.1,0.1,0.2,0.1,0.4,0.2c0.6,0.3,1.1,0.5,1.7,0.7c0.3,0.1,0.5,0.2,0.8,0.2l0,0c0.6,0.1,1.3-0.4,1.5-1.1
				c0.2-0.6,0-1.2,0-1.2s0,0,0,0c0,0-0.1,0-0.1,0c-0.2,0-0.5-0.1-0.8-0.2c-1-0.3-2.4-1-3.6-1.6c-0.2-0.1-0.4-0.2-0.5-0.3
				c-1.1-0.7-2.1-0.8-2.8-0.7C69,18.5,68.4,19.2,68.1,19.6z"/>
		</g>
	</g>
</g>
<g>
	<g>
		<path class="st0" d="M70.8,23C70.8,23.1,70.8,23.1,70.8,23c0,0.1-0.1,0.2-0.1,0.3c-0.2,0.5-0.4,1.1-0.5,1.5c0,0.1,0,0.1-0.1,0.2
			c-0.1,0.4-0.3,0.8-0.5,1.1l-1.4,1.5c0.3,0.3,1.2,0.6,2,0.4c1.5-0.3,2.1-1.3,2.5-2.5c0.1-0.4,0.3-0.8,0.4-1.2
			c0-0.1,0.1-0.3,0.1-0.4c0.1-0.4,0.3-0.9,0.4-1.3c-0.1-0.1-0.3-0.1-0.4-0.2c0,0,0,0,0,0c-0.1-0.1-0.2-0.1-0.4-0.2h0
			c-0.1-0.1-0.2-0.1-0.4-0.2c-0.4-0.2-0.9-0.4-1.2-0.7C71.2,21.9,71,22.5,70.8,23z"/>
	</g>
</g>
<g>
	<path class="st0" d="M64,24.1c-0.2,0.7,0.1,1.4,0.8,1.7c0,0,0.1,0,0.1-0.1c0.1-0.1,0.2-0.1,0.4-0.2c0.2-0.1,0.3-0.1,0.4-0.2
		c0.2-0.1,0.4-0.2,0.6-0.2c0,0,0.1,0,0.1,0c0,0,0,0,0,0c0,0,0,0,0,0c0,0,0,0,0,0c0.4-0.1,1.9,0.2,2.5,0.2c0.4,0,0.8-0.1,1.2-0.2
		c0-0.1,0-0.1,0.1-0.2c0.1-0.5,0.3-1,0.5-1.5c0-0.1,0-0.1,0.1-0.2c-0.4-0.1-1-0.2-1.5-0.4c-0.1,0-0.2,0-0.2-0.1
		c-0.8-0.2-1.6-0.3-2.4-0.3c-0.6,0-1,0.1-1.4,0.3C64.5,23.1,64.1,23.7,64,24.1z"/>
</g>
<circle class="st18" cx="86.3" cy="6" r="6"/>
<path class="st26" d="M86.9,3.7v0.3c0,0,0,0,0,0h3.7c0,0,0,0,0,0V2.3c0,0,0,0,0,0h-3.7c0,0,0,0,0,0v0.3h0.5v1H86.9z"/>
<path class="st26" d="M85.8,2.7V2.3c0,0,0,0,0,0h-3.7c0,0,0,0,0,0v1.6c0,0,0,0,0,0h3.7c0,0,0,0,0,0V3.7h-0.5v-1H85.8z"/>
<path class="st20" d="M84.6,7.2c0,0,1-1.9,1.3-2.3l0-0.7c-0.1,0-2.1,2.5-2.1,2.5c-0.8-0.3-1.9-0.1-2.4,1.4c0,0.4,0.1,1,1,1.6
	c0.9,0.7,1.6,0.8,2.4,0.9c0.8,0.1,1-0.7,1-1.1C85.8,9.2,85.8,7.8,84.6,7.2z M82.5,7.6c1-0.2,2.2,0.2,2.8,1.6
	C84.4,9.3,83,9.1,82.5,7.6z"/>
<path class="st20" d="M86.9,5c0.4,0.7,1.2,2.2,1.2,2.2c-1.2,0.5-1.2,2-1.2,2.4c0.1,0.4,0.2,1.1,1,1.1c0.8-0.1,1.5-0.2,2.4-0.9
	c0.9-0.7,0.9-1.2,1-1.6c-0.5-1.5-1.6-1.7-2.4-1.4c0,0-1.3-1.6-1.9-2.3c-0.1-0.1-0.1-0.1-0.1-0.2 M87.4,9.2c0.5-1.5,1.8-1.8,2.8-1.6
	C89.6,9.1,88.2,9.3,87.4,9.2z"/>
<polyline class="st26" points="85.2,2.9 86.3,2.9 86.3,3.5 85.2,3.5 "/>
<polyline class="st26" points="87.9,3.5 86.9,3.5 86.9,2.9 87.9,2.9 "/>
<path class="st26" d="M86.7,4.9C86.7,4.9,86.6,4.9,86.7,4.9l-0.6,0c0,0,0,0,0,0V2.2c0,0,0,0,0,0h0.6c0,0,0,0,0,0V4.9z"/>
</svg>
