<?xml version="1.0" encoding="utf-8"?>
<!-- Generator: Adobe Illustrator 21.0.0, SVG Export Plug-In . SVG Version: 6.00 Build 0)  -->
<svg version="1.1" id="Calque_1" xmlns="http://www.w3.org/2000/svg" xmlns:xlink="http://www.w3.org/1999/xlink" x="0px" y="0px"
	 viewBox="0 0 364.4 734.5" style="enable-background:new 0 0 364.4 734.5;" xml:space="preserve">
<style type="text/css">
	.st0{fill:#FFFFFF;stroke:#1A171B;stroke-width:0.8;stroke-linecap:round;stroke-linejoin:round;}
	.st1{fill:none;stroke:#007E50;stroke-width:0.8;stroke-linecap:round;stroke-linejoin:round;}
	.st2{fill:none;stroke:#1A171B;stroke-width:0.8;stroke-linecap:round;stroke-linejoin:round;}
	.st3{fill:#00B0E5;stroke:#1A171B;stroke-width:0.8;stroke-linecap:round;}
	.st4{fill:#FFFFFF;}
	.st5{fill:none;stroke:#000000;stroke-width:0.8;}
	.st6{fill:#FFFFFF;stroke:#1A171B;stroke-width:0.8;}
	.st7{fill:none;stroke:#1A171B;stroke-width:0.8;}
	.st8{fill:#E2E3E4;stroke:#1A171B;stroke-width:0.8;}
	.st9{fill:#FFD400;stroke:#1A171B;stroke-width:0.8;}
	.st10{fill:#E6E6E6;stroke:#1A171B;stroke-width:0.8;}
	.st11{fill:#00B0E5;stroke:#000000;stroke-width:0.8;stroke-linecap:round;stroke-linejoin:round;}
	.st12{fill:none;stroke:#1A171B;stroke-width:0.8;stroke-linecap:round;}
	.st13{fill:#9B9C9E;stroke:#1A171B;stroke-width:0.8;stroke-linecap:round;}
	.st14{fill:#FFFFFF;stroke:#000000;stroke-width:0.8;stroke-miterlimit:10;}
	.st15{fill:none;stroke:#000000;stroke-width:0.8;stroke-miterlimit:10;}
	.st16{fill:#00B0E5;stroke:#000000;stroke-width:0.8;}
	.st17{fill:#9B9C9E;}
	.st18{fill:#E2E3E4;}
	.st19{fill:#FFFFFF;stroke:#000000;stroke-width:0.8;}
	.st20{fill:none;stroke:#1A171B;stroke-width:2.4;stroke-linecap:round;}
</style>
<g>
	<path class="st0" d="M96.7,148.5c0,0,0.1,0.8,0.2,0.8c0,0,0.1,0,0.1,0.1c0,0,0.1,0,0.1,0.1c0,0,0,0,0.1,0c0,0,0,0,0,0c0,0,0,0,0,0
		c0,0,0,0,0,0.1c0,0,0,0.1,0,0.1c0,0,0,0.1,0,0.1c0,0,0,0.1,0,0.1c0,0,0,0.1,0,0.1c0,0.1,0,0.1-0.1,0.2c0,0-0.1,0.1-0.1,0.1
		c0,0-0.1,0.1-0.1,0.1c-0.1,0-0.1,0.1-0.2,0.1c-0.1,0-0.1,0.1-0.2,0.1c-0.1,0-0.1,0.1-0.2,0.1c-0.1,0-0.1,0.1-0.2,0.1
		c-0.1,0-0.1,0.1-0.2,0.1c-0.1,0-0.1,0.1-0.2,0.1c-0.1,0-0.1,0.1-0.2,0.1c-0.1,0-0.2,0.1-0.2,0.1c-0.1,0.1-0.2,0.1-0.3,0.2l0.8,0
		l0,0c0,0,0,0,0,0c0,0,0,0,0,0c0,0,0,0,0,0c0,0,0,0,0,0c0,0,0,0,0,0c0,0,0,0,0,0c0,0,0,0,0,0c0,0,0,0,0,0c0.2,0,0.4-0.1,0.6-0.1
		c0.2,0,0.4-0.1,0.6-0.1c0.2,0,0.4-0.1,0.7-0.1c0,0,0,0,0,0c0,0,0,0,0,0c0,0,0,0,0.1,0h0c0,0,0,0,0,0c0,0,0,0,0,0l0,0c0,0,0,0,0,0
		c0,0,0,0,0,0c0,0,0,0,0,0c0,0,0,0,0,0c0,0,0,0.1,0,0.2c0,0.1,0,0.1,0,0.2c0,0.1,0,0.1,0,0.2c0,0,0.1-0.1,0.1-0.1
		c0,0,0.1-0.1,0.1-0.1c0,0,0.1-0.1,0.1-0.1c0,0,0,0,0,0c0,0,0,0,0,0c0,0,0,0,0,0c0,0,0,0,0,0c0,0,0,0,0,0c0,0,0,0,0,0c0,0,0,0,0,0
		l0,0c0,0,0,0,0,0c0,0,0,0,0,0c0.2,0.2,0.4,0.3,0.5,0.5c0.2,0.2,0.4,0.3,0.6,0.5c0.2,0.1,0.3,0.3,0.5,0.4c0,0,0.1,0.1,0.1,0.1
		c0-0.1,0-0.1,0-0.2c0-0.1,0-0.1,0.1-0.2c0-0.1,0.1-0.1,0.1-0.2l-0.2,0c0,0,0,0,0,0c0,0,0,0,0,0c0,0,0,0,0,0c0,0,0,0,0,0
		c0,0,0,0,0,0c0,0,0,0,0,0c0,0,0,0,0,0c0,0,0,0,0,0c0,0,0,0,0,0c0,0,0,0,0,0c0,0,0,0,0,0c0,0,0,0,0-0.1c0,0,0,0,0,0c0,0,0,0,0-0.1
		c0,0,0-0.1,0-0.1c0,0,0-0.1,0-0.1c0,0,0-0.1,0-0.1c0,0,0-0.1,0-0.1c0,0,0,0,0-0.1c0,0,0,0,0.1-0.1c0,0,0,0,0,0c-0.1,0-0.2,0-0.2,0
		c0,0-0.1,0-0.1,0c0,0,0,0,0,0c0,0,0,0,0,0c0,0,0,0,0,0c0,0,0,0,0,0c0,0,0,0,0,0l0,0c0,0,0,0,0,0c0,0,0,0,0,0l0,0c0,0,0,0-0.1-0.1
		c0,0,0,0-0.1-0.1c0,0,0,0-0.1-0.1c0,0,0,0,0-0.1c0,0,0,0,0-0.1c0,0,0,0,0,0c0,0,0,0,0,0c0,0,0,0,0,0c0-0.1,0-0.1,0-0.2
		c0,0,0-0.1,0-0.1c0,0,0-0.1,0-0.1c0-0.1,0-0.1,0-0.2c0,0,0-0.1,0-0.1c0,0,0-0.1,0-0.1c0,0,0-0.1,0-0.1c0,0,0-0.1,0-0.1c0,0,0,0,0,0
		c0,0,0,0,0,0c0,0,0,0,0,0c0,0,0,0,0,0l0,0c0,0,0,0,0,0c0,0,0,0,0,0c0,0,0,0,0,0c0,0,0,0,0,0"/>
	<path class="st0" d="M126.9,186.6c0,0,0.7,1.7,0.8,3.2c0,0,0.4-1.7,0.5-3.7"/>
	<g>
		<path class="st0" d="M132.9,184.1L132.9,184.1c0.1,0,0.1,0,0.1,0c0,0,0,0,0.1,0c0,0,0,0,0.1,0l0,0l0,0l0,0l0,0l0,0l0,0l0.6,0.3h0
			l0,0l0,0l0,0l0,0l0,0h0l0,0l0,0l0.1,0l0,0l0,0l0,0l0,0l0,0l0,0v0l0,0l0,0l0,0l0,0v0l0,0l0,0l0,0l0,0l0,0l0,0l0,0l0.5,0.2l0,0
			l0.1,0l0.1,0l0.1,0l0.1,0l0.1,0l0.1,0h0.1h0.1h0.1l0.1,0l0.1,0l0.1,0l0.1,0l0.1,0l0.1,0l0.1,0l0.1,0l0,0h0l0,0l0,0h0l0,0h0l0,0
			l0,0l0.7,0.2l0,0l0,0l0,0l0,0l0,0l0,0c0,0,0.1,0,0.1,0c0,0,0.1,0,0.1,0c0,0,0.1,0,0.1,0.1c0,0,0.1,0,0.1,0.1c0,0,0,0.1,0.1,0.1
			c0,0,0,0.1,0.1,0.1c0,0,0,0.1,0,0.1c0,0,0,0.1,0,0.1l0,0.1l0,0.1l0,0.1l0,0.1l0,0.1l0,0.1l0.7,1.6l0-0.1l0-0.1l0-0.1l0-0.1l0-0.1
			l0-0.1l0-0.1l0.1-0.1l0.1-0.1l-0.1,0h0h0h0l0,0l0,0l0,0l0,0l0,0l0,0l0,0c0,0,0-2.2,0-2.2c0,0,0-0.1,0-0.1c0,0,0,0,0,0c0,0,0,0,0,0
			c0,0,0,0,0,0c0,0,0,0,0.1,0l0,0c0.5-0.2,1.5-0.5,1.8-0.6l0.1,0l0.2-0.1l0.2-0.1l0.2-0.1l0.1-0.1l0.1-0.1l0.1-0.1l0.1-0.1l0.1,0
			c0,0,0.1,0,0.1-0.1c0,0,0,0,0,0c0,0,0,0,0,0c0,0,0,0,0,0c0,0,0,0,0,0c0,0,0,0,0,0c0,0,0,0,0,0c0,0,0,0,0,0c0,0,0,0,0,0
			c0,0,0,0,0,0c0,0,0,0,0,0c0,0,0,0,0,0c0,0,0,0,0,0c0,0,0,0,0,0c0,0,0,0,0,0c0,0,0,0,0,0c0,0,0,0,0,0c0,0,0,0,0,0
			c0-0.1,0-0.1,0-0.2c0-0.1,0-0.1,0-0.2c0-0.1,0-0.2,0-0.2c0-0.1,0-0.2,0-0.3c0-0.1,0-0.2,0-0.3c0-0.1,0-0.2-0.1-0.3
			c0-0.1-0.1-0.3-0.1-0.4l0-0.2c-0.1-0.4,0-0.5,0.3-0.6c0.1,0,0.4-0.1,0.4-0.1c0,0,0.1,0,0.1-0.1c0,0,0,0,0.1-0.1c0,0,0,0,0-0.1
			c0,0,0-0.1,0-0.1c0,0,0,0,0,0l0,0c0,0,0,0,0,0c0,0,0,0,0,0c0,0,0,0,0,0c0,0-0.1-0.1-0.1-0.1c0,0-0.1-0.1-0.1-0.1
			c0,0-0.1-0.1-0.1-0.1c0,0-0.1-0.1-0.1-0.1c0,0,0,0,0,0c0,0,0,0,0-0.1c0,0,0-0.1,0-0.1c0,0,0,0.1,0,0.1c0,0,0,0.1,0,0.1
			c0,0,0,0.1,0,0.1c0,0,0,0.1,0,0.1c0,0,0,0.1,0,0.1c0,0,0,0.1,0,0.1l0,0c0,0.1-0.1,0.1-0.1,0.1h0c0,0,0,0-0.1,0
			c-0.1,0-0.3,0.1-0.4,0.1c-0.3,0.1-0.4,0.3-0.7,0.6c-0.1,0.1-0.1,0.2-0.2,0.3c-0.1,0.1-0.1,0.2-0.2,0.2c0,0,0,0.1-0.1,0.1l-0.2,0.3
			c0,0,0,0,0,0c0,0.1-0.1,0.1-0.1,0.2c0,0.1-0.1,0.1-0.1,0.2c0,0.1-0.1,0.1-0.1,0.2c0,0,0,0,0,0c0,0,0,0,0,0c0,0,0,0,0,0
			c0,0,0,0,0,0c0,0,0,0,0,0c0,0,0,0-0.1,0c0,0,0,0-0.1,0c0,0,0,0-0.1,0c0,0,0,0-0.1,0c0,0,0,0-0.1,0c0,0-0.1,0-0.1,0
			c-0.3,0-2.8,0.4-4.1,0.8c0,0-0.1,0-0.1,0c-0.1,0-0.1,0-0.2,0.1c0,0-0.1,0-0.1,0c0,0-0.1,0-0.1,0c0,0-0.1,0-0.1,0c0,0-0.1,0-0.1,0
			c0,0,0,0-0.1,0L132.9,184.1z M134.7,184.8L134.7,184.8L134.7,184.8L134.7,184.8L134.7,184.8l0.1,0l0,0l0,0h0h0h0l0,0h0l0,0l0,0
			l0,0l0,0l0,0l0.5,0.2h0l0,0l0,0l0,0l0,0l0,0h0h0h0h0h0l0,0h0l0,0l0,0l0,0l0,0L134.7,184.8L134.7,184.8z"/>
		<path class="st1" d="M139.5,185.6"/>
	</g>
	<path class="st0" d="M124.6,184.1l-0.2-0.2l0,0l0,0l0,0v0l0,0l0,0l0,0h0l0,0h0l0,0h0h0h0l0,0l0.1,0h0l0,0l0,0l0,0l0,0l0,0l0,0l0,0
		l0,0l0,0l-0.9-0.9l0,0c0,0,0,0-0.1,0c0,0-0.1,0-0.1,0c0,0-0.1,0-0.1,0c0,0-0.1,0-0.1,0l0,0l0,0l0,0l0,0l0,0l0,0l-0.2,0.3l0,0l0,0
		l0,0l0,0l0,0l0,0l-0.1,0l-0.1,0l-0.1,0l0,0c0,0,0,0,0,0c0,0,0,0-0.1,0c0,0,0,0-0.1,0c-0.1,0-0.1,0.1-0.2,0.1c0,0-0.1,0.1-0.1,0.1
		c0,0.1-0.1,0.1-0.1,0.2c0,0,0,0.1,0,0.1l0.2,0l0,0l0-0.1l0,0l0,0l0,0l0,0l0,0l0,0l0,0l0,0l0,0l0.1,0l0.1,0l0.1,0l0,0h0h0h0l0,0l0,0
		h0l0,0l0,0l0,0l0.1,0.1l0,0l0,0l0,0l0,0l0,0l0,0l0,0l0,0l0,0l0,0l-0.1,0l-0.1,0l-0.1,0l-0.1,0l-0.1,0l-0.1,0l-0.1,0l-0.1,0l-0.1,0
		l-0.4,0l-0.1,0l-0.1,0l-0.1,0l-0.1,0l-0.1,0l-0.1,0l-0.1,0l-0.1,0l-0.1,0c-0.2,0-0.4,0-0.6,0c-0.2,0-0.4,0-0.7,0
		c-0.2,0-0.4,0-0.7-0.1c-0.2,0-0.4-0.1-0.7-0.1c-0.2,0-0.3-0.1-0.5-0.1c-0.2,0-0.3-0.1-0.5-0.2c-0.1-0.1-0.3-0.1-0.4-0.2
		c-0.1,0-0.1-0.1-0.2-0.1c-0.1,0-0.1-0.1-0.2-0.1c-0.1-0.1-0.2-0.1-0.3-0.2l0,0c0,0,0,0-0.1,0c0,0,0,0-0.1,0c0,0,0,0,0,0
		c-0.3,0-0.7,0-1,0c-0.3,0-0.7-0.1-1-0.1c0,0-0.6-0.1-0.9,0c-0.2,0-0.2,0-0.3,0.1c-0.1,0-0.1,0.1-0.2,0.1c0,0-0.1,0.1-0.1,0.1
		c0,0,0,0-0.1,0.1c0,0,0,0,0,0.1v0c0,0,0,0,0,0.1c0,0,0,0.1,0,0.1c0,0,0,0.1,0,0.1c0,0,0,0.1,0,0.1c0,0,0,0,0,0.1c0,0,0,0,0,0
		c0,0,0,0.1,0.1,0.1l0.2,0.2c0.1,0.1,0.3,0.2,0.4,0.3c0.1,0.1,0.3,0.2,0.5,0.3c0.2,0.1,0.4,0.2,0.5,0.3c0.2,0.1,0.4,0.2,0.6,0.3
		c0.2,0.1,0.4,0.2,0.6,0.3c0,0,0.1,0,0.1,0c0,0,0.1,0,0.1,0.1c0,0,0.1,0,0.1,0.1c0,0,0,0,0.1,0c0,0,0,0,0,0.1c0,0,0,0,0,0.1
		c0,0,0,0,0,0.1c0,0.1,0,0.1,0.1,0.2c0,0.1,0,0.1,0,0.2c0,0.1,0,0.1,0,0.2c0,0.1,0,0.1,0,0.2c0,0.1,0,0.2-0.1,0.3
		c0,0.1-0.1,0.2-0.1,0.2c0,0.1-0.1,0.1-0.1,0.2c-0.1,0.1-0.1,0.2-0.2,0.3c-0.1,0.1-0.1,0.2-0.2,0.3c-0.1,0.1-0.1,0.2-0.2,0.3
		c-0.1,0.1-0.1,0.2-0.2,0.3c-0.1,0.1-0.1,0.2-0.2,0.3c-0.1,0.1-0.1,0.2-0.2,0.3c-0.1,0.1-0.1,0.2-0.2,0.3c-0.1,0.1-0.2,0.2-0.2,0.3
		c-0.1,0.1-0.2,0.2-0.3,0.3l0.8-0.3l0-0.1c0,0,0,0,0,0c0,0,0,0,0,0c0,0,0,0,0,0c0,0,0,0,0,0c0,0,0,0,0,0c0,0,0,0,0,0c0,0,0,0,0,0
		c0,0,0,0,0,0c0.2-0.1,0.4-0.3,0.7-0.4c0.2-0.1,0.4-0.3,0.7-0.4c0.2-0.1,0.4-0.3,0.7-0.4c0,0,0,0,0,0c0,0,0,0,0,0c0,0,0,0,0.1,0h0
		c0,0,0,0,0.1,0c0,0,0,0,0,0l0,0c0,0,0,0,0,0c0,0,0,0,0,0.1c0,0,0,0,0,0c0,0,0,0,0,0c0,0.1,0,0.2,0,0.2c0,0.1,0,0.2,0,0.3
		c0,0.1,0,0.2,0,0.3c0-0.1,0.1-0.1,0.1-0.2c0-0.1,0.1-0.1,0.1-0.2c0-0.1,0.1-0.1,0.1-0.2c0,0,0,0,0,0c0,0,0,0,0,0c0,0,0,0,0,0
		c0,0,0,0,0,0c0,0,0,0,0,0h0c0,0,0,0,0,0l0,0c0,0,0,0,0,0c0,0,0,0,0,0c0.2,0.2,0.4,0.4,0.6,0.6c0.2,0.2,0.4,0.4,0.6,0.7
		c0.2,0.2,0.3,0.4,0.5,0.5c0,0,0.1,0.1,0.1,0.1c0-0.1,0-0.2,0-0.3c0-0.1,0-0.2,0.1-0.3c0-0.1,0.1-0.2,0.1-0.3l-0.2,0c0,0,0,0,0,0
		c0,0,0,0,0,0c0,0,0,0,0,0c0,0,0,0,0,0c0,0,0,0,0,0c0,0,0,0,0,0c0,0,0,0,0,0c0,0,0,0,0,0c0,0,0,0,0,0c0,0,0,0,0-0.1c0,0,0,0,0-0.1
		c0,0,0-0.1,0-0.1c0,0,0,0,0-0.1c0,0,0-0.1,0-0.1c0,0,0-0.1,0-0.1c0,0,0-0.1,0-0.1c0,0,0-0.1,0-0.1c0,0,0-0.1,0-0.1c0,0,0-0.1,0-0.1
		c0,0,0-0.1,0.1-0.1c0,0,0,0,0,0c-0.1,0-0.2,0-0.2,0.1c0,0-0.1,0-0.1,0c0,0,0,0,0,0c0,0,0,0,0,0c0,0,0,0,0,0c0,0,0,0,0,0
		c0,0,0,0,0,0l0,0c0,0,0,0,0,0c0,0,0,0,0,0l0,0c0,0,0,0-0.1-0.1c0,0,0-0.1-0.1-0.1c0,0,0-0.1-0.1-0.1c0,0,0-0.1,0-0.1
		c0,0,0-0.1,0-0.1c0,0,0,0,0,0c0,0,0,0,0,0c0,0,0-0.1,0-0.1c0-0.1,0-0.2,0-0.3c0,0,0-0.1,0-0.1c0-0.1,0-0.1,0-0.1c0-0.1,0-0.2,0-0.3
		c0-0.1,0-0.1,0-0.2c0-0.1,0-0.1,0-0.2c0-0.1,0-0.1,0-0.2c0-0.1,0-0.1,0-0.2c0,0,0,0,0-0.1c0,0,0,0,0-0.1c0,0,0,0,0-0.1c0,0,0,0,0,0
		l0,0c0,0,0,0,0,0c0,0,0,0,0,0c0,0,0,0,0,0c0,0,0,0,0-0.1c0,0,0,0,0-0.1c0,0,0,0,0,0c0,0,0,0,0,0c0,0,0,0,0,0c0,0,0,0,0,0
		c0,0,0,0,0,0c0,0,0,0,0.1,0c0,0,0,0,0.1,0c0,0,0.1,0,0.1,0c0,0,0.1,0,0.1,0c0.1,0,0.1,0,0.2,0c0.1,0,0.2,0,0.3,0c0.1,0,0.2,0,0.3,0
		c1.5,0.1,4.3,0.2,6.3,0.2c0.1,0,0.1,0,0.1,0c0,0,0.1,0,0.1,0c0,0,0.1,0,0.1,0.1c0,0,0.1,0,0.1,0.1c0,0,0,0,0,0l0,0l-0.9-0.9l0,0
		l0,0l0,0l0,0l0,0l0,0l0,0l0,0l0,0h0l0,0l0,0h0h0h0l0,0l0,0h0l0,0h0h0l0,0h0l0,0l-0.2-0.2c0-0.1,0.1-0.2-0.1-0.4
		C125.1,184.3,125,184.2,124.6,184.1z M118.9,185C118.9,185,118.9,185,118.9,185C118.9,185,118.9,185,118.9,185
		C118.9,184.9,118.9,184.9,118.9,185C119,184.9,119,184.9,118.9,185c0.1-0.1,0.1-0.1,0.1-0.1c0,0,0,0,0,0c0,0,0,0,0.1,0
		c0,0,0,0,0.1,0c0,0,0,0,0.1,0c0,0,0.1,0,0.1,0c0.1,0,0.1,0,0.1,0c0.3,0,0.5,0.1,0.8,0.1c0.1,0,0.3,0,0.4,0c0.1,0,0.3,0,0.4,0
		c0.3,0,0.6,0,0.8,0c0.2,0,0.7-0.1,0.8-0.1c0.1,0,0.4,0,0.4,0l0.1,0l0.1,0l0.1,0h0.1h0.1l0.1,0l0.1,0l0.1,0l0.1,0l0,0l0,0l0,0l0,0
		l0,0l0,0l0,0l0,0l0,0l0,0l0,0l0,0l0.1,0.1l0,0l0,0l0,0h0l0,0l0,0h0l0,0h0l-0.1,0l0,0l-0.1,0l-0.1,0l0,0l0,0l0,0l0,0l0,0l0,0l0,0
		l0,0l0,0l0,0l0,0h0c0,0-1.3,0-1.8-0.1c-0.4,0-0.8,0-1.2-0.1c-0.4,0-0.8-0.1-1.2-0.1c-0.1,0-0.1,0-0.2,0c0,0-0.1,0-0.1,0
		c0,0-0.1,0-0.1,0c0,0-0.1,0-0.1-0.1c0,0,0,0,0,0c0,0,0,0,0,0C119,185.1,118.9,185.1,118.9,185C118.9,185.1,118.9,185,118.9,185
		C118.9,185,118.9,185,118.9,185C118.9,185,118.9,185,118.9,185z M114.7,184.8L114.7,184.8C114.7,184.8,114.7,184.8,114.7,184.8
		C114.7,184.8,114.7,184.8,114.7,184.8C114.7,184.8,114.7,184.8,114.7,184.8C114.7,184.7,114.7,184.7,114.7,184.8
		C114.7,184.7,114.8,184.7,114.7,184.8c0.1,0,0.1,0,0.1,0l0.3,0l0.3,0l0.3,0l0.3,0l0.3,0l0.3,0l0.3,0l0.3,0l0.1,0
		c0.1,0,0.4,0,0.6,0.1c0,0,0,0,0.1,0c0,0,0,0,0.1,0c0,0,0,0,0.1,0c0,0,0,0,0.1,0c0,0,0,0,0.1,0c0,0,0,0,0.1,0c0,0,0,0,0,0
		c0,0,0,0,0,0c0,0,0,0,0,0c0,0,0,0,0,0c0,0,0,0,0,0v0c0,0,0,0,0,0c0,0,0,0,0,0c0,0,0,0,0,0c0,0,0,0,0,0c0,0,0,0,0,0c0,0,0,0-0.1,0
		c0,0,0,0-0.1,0c0,0-0.1,0-0.1,0c0,0,0,0,0,0c-0.2,0-0.4,0-0.5,0.1c0,0,0,0,0,0c0,0,0,0,0,0c0,0,0,0,0,0c0,0,0,0,0,0c0,0,0,0,0,0
		c0,0,0,0,0,0c0,0,0,0,0,0c0,0,0,0,0,0c0,0,0,0,0,0c0.1,0,0.3,0.2,0.1,0.3c0,0,0,0,0,0c0,0-0.1,0-0.1,0c0,0,0,0-0.1,0c0,0,0,0-0.1,0
		c0,0-0.1,0-0.2,0c0,0-0.1,0-0.1,0c0,0-0.1,0-0.1,0c0,0-0.1,0-0.1-0.1c-0.1,0-0.2-0.1-0.3-0.1c-0.1,0-0.2-0.1-0.3-0.1
		c-0.1,0-0.2-0.1-0.3-0.1c-0.2-0.1-0.3-0.1-0.5-0.2c-0.2-0.1-0.3-0.2-0.5-0.2C115,185,114.9,184.9,114.7,184.8
		C114.7,184.8,114.7,184.8,114.7,184.8C114.7,184.8,114.7,184.8,114.7,184.8C114.7,184.8,114.7,184.8,114.7,184.8
		C114.7,184.8,114.7,184.8,114.7,184.8C114.7,184.8,114.7,184.8,114.7,184.8z M114,183.9C114,183.9,114,183.9,114,183.9
		C114,183.9,114,183.9,114,183.9c0-0.1,0.1-0.1,0.1-0.1c0,0,0.1,0,0.1-0.1c0,0,0.1,0,0.1-0.1c0,0,0.1,0,0.1-0.1c0,0,0,0,0,0
		c0.3-0.1,0.5-0.1,0.7-0.2c0.1,0,0.2,0,0.2,0c0,0,0.1,0,0.1,0c0,0,0.1,0,0.1,0c0,0,0.1,0,0.1,0c0,0,0.1,0,0.1,0c0,0,0.1,0,0.1,0
		c0,0,0,0,0,0c0,0,0,0,0,0c0,0,0,0,0,0c0,0,0,0,0,0c0,0,0,0,0,0c0,0,0,0.1,0,0.1c0,0,0,0,0,0c0,0,0,0,0,0c0,0,0,0,0.1,0
		c0,0,0,0,0.1,0c0,0,0.1,0,0.1,0.1c0.1,0,0.1,0,0.2,0.1c0.1,0,0.1,0,0.2,0c0.1,0,0.1,0,0.2,0c0,0,0.1,0,0.1,0c0,0,0,0,0.1,0
		c0,0,0,0,0.1,0c0,0,0,0,0.1,0c0,0,0,0,0,0c0,0,0,0,0,0c0,0,0,0,0,0c0,0,0,0,0,0c0,0,0,0,0,0c0,0,0,0,0,0c0,0,0,0,0,0c0,0,0,0,0,0
		c0,0,0,0,0,0v0c0,0,0,0,0,0c0,0,0,0,0,0c0,0,0,0,0,0c0,0,0,0,0,0l0,0c0,0,0,0,0,0c0,0,0,0,0,0c-0.5,0-1.6-0.1-1.6-0.1l-0.2,0
		l-0.3,0l-0.3,0l-0.3,0l-0.3,0c0,0,0,0-0.1,0c0,0,0,0-0.1,0c0,0,0,0-0.1,0c0,0,0,0,0,0c0,0,0,0,0,0c0,0,0,0,0,0
		C114,184,114,184,114,183.9C114,184,114,184,114,183.9C114,184,114,184,114,183.9z"/>
	<path class="st0" d="M107.9,151.9c0,0,0.4,1.7,0.4,2.1c0,0,0.9-1.3,1-2.2"/>
	<path class="st0" d="M116.8,153.2c0,0,2.4-0.2,2.3,2v0.8l1.3-1.9c0,0,2.1,0.5,4.9-0.3"/>
	<path class="st0" d="M113.5,184.4c0,0,0,0.1,0,0.2c0.4,0.3,1.1,0.7,1.9,0.9c0,0-0.1,0.1-0.1,0.1c0,0-0.1,0-0.1,0.1h0
		c-0.1,0-0.1,0.1-0.2,0.1c0,0-0.1,0-0.1,0h0l-1.1,0.1l0,0h0l-1.2,0.1c0,0-0.1,0-0.1,0c0,0-0.1,0-0.1,0.1c0,0,0,0.1-0.1,0.1
		c0,0,0,0,0,0.1c0,0,0,0,0,0v0c0,0,0,0,0,0c0,0,0,0,0,0c0,0,0,0,0,0l0,0l-0.6,0c0,0,0,0,0,0c0,0,0,0,0,0c0,0,0,0,0,0c0,0,0,0,0,0v0
		l0,0.2l0,0c0,0,0,0,0,0c0,0,0,0,0,0c0,0,0,0,0,0l0,0l-0.5,0c0,0,0,0,0,0c0,0,0,0,0,0c0,0,0,0,0,0c0,0,0,0,0,0c0,0,0,0,0,0l0,0.2
		l0,0c0,0,0,0,0,0c0,0,0,0,0,0c0,0,0,0,0,0h0l-0.5,0c0,0,0,0,0,0c0,0,0,0,0,0c0,0,0,0,0,0c0,0,0,0,0,0c0,0,0,0,0,0l0,0.2l0,0
		c0,0,0,0,0,0c0,0,0,0,0,0c0,0,0,0,0,0l0,0l-0.5,0h0h0h0l0,0l0,0l0,0l0,0h0l-0.6,0.4l0-0.3l0.5-1.2c0,0,0.1-0.1,0.1-0.1
		c0,0,2.6-1.8,2.7-1.9c0.3-0.2,0.4-0.1,0.6-0.1"/>
	<path class="st0" d="M96.6,148.1L96.6,148.1L96.6,148.1l-1.4-0.5c0,0-0.1,0-0.1,0c0,0-0.1,0-0.1,0c0,0-0.1,0-0.1,0c0,0,0,0,0,0
		c0,0,0,0,0,0l0,0c0,0,0,0,0,0c0,0,0,0,0,0c0,0,0,0,0,0l0,0l-0.7-0.3c0,0,0,0,0,0c0,0,0,0,0,0c0,0,0,0,0,0c0,0,0,0,0,0c0,0,0,0,0,0
		l0,0.1l0,0c0,0,0,0,0,0c0,0,0,0,0,0c0,0,0,0,0,0l0,0l-0.6-0.2c0,0,0,0,0,0c0,0,0,0,0,0c0,0,0,0,0,0c0,0,0,0,0,0c0,0,0,0,0,0l0,0.1
		l0,0c0,0,0,0,0,0c0,0,0,0,0,0c0,0,0,0,0,0l0,0l-0.6-0.2c0,0,0,0,0,0c0,0,0,0,0,0c0,0,0,0,0,0c0,0,0,0,0,0c0,0,0,0,0,0l0,0.1l0,0
		c0,0,0,0,0,0c0,0,0,0,0,0c0,0,0,0,0,0l0,0l-0.5-0.2h0l0,0l0,0l0,0l0,0h0l0,0l0,0l-0.8,0l0.1-0.2l1-0.7c0,0,0.2,0,0.2,0
		c0,0,3.5-0.1,3.6-0.1c0.4,0,0.4,0.1,0.7,0.2"/>
	<path class="st2" d="M98.2,143.2c0,0-1.1,1.8,2.5,3.9l0,2.2"/>
	<path class="st0" d="M279.8,652.1c0,0-0.1,0.1,0,0.2c0.3,0.4,0.9,1.1,1.6,1.7c0,0-0.1,0-0.2,0.1c0,0-0.1,0-0.1,0h0
		c-0.1,0-0.1,0-0.2,0c0,0-0.1,0-0.1,0l0,0l-1.1-0.4l0,0l0,0l-1.3-0.5c0,0-0.1,0-0.1,0c0,0-0.1,0-0.1,0c0,0-0.1,0-0.1,0.1
		c0,0,0,0,0,0.1c0,0,0,0,0,0l0,0c0,0,0,0,0,0c0,0,0,0,0,0c0,0,0,0,0,0l0,0l-0.6-0.3c0,0,0,0,0,0c0,0,0,0,0,0c0,0,0,0,0,0
		c0,0,0,0,0,0c0,0,0,0,0,0l0,0.2l0,0c0,0,0,0,0,0c0,0,0,0,0,0c0,0,0,0,0,0l0,0l-0.5-0.2c0,0,0,0,0,0c0,0,0,0,0,0c0,0,0,0,0,0
		c0,0,0,0,0,0c0,0,0,0,0,0l0,0.2l0,0c0,0,0,0,0,0c0,0,0,0,0,0c0,0,0,0,0,0h0l-0.5-0.2c0,0,0,0,0,0c0,0,0,0,0,0c0,0,0,0,0,0
		c0,0,0,0,0,0c0,0,0,0,0,0l0,0.2l0,0c0,0,0,0,0,0c0,0,0,0,0,0c0,0,0,0,0,0l0,0l-0.5-0.2h0l0,0l0,0l0,0l0,0l0,0h0l0,0l-0.7,0.1
		l0.1-0.3l1-0.9c0,0,0.2-0.1,0.2-0.1c0,0,3.3-0.4,3.4-0.4c0.4-0.1,0.4,0.1,0.7,0.1"/>
	<path class="st3" d="M289.3,513.6"/>
	<path class="st3" d="M286.3,514.2"/>
	<path class="st3" d="M288.5,512.5"/>
	<path class="st3" d="M289.1,509"/>
	<path class="st4" d="M87.9,22.8l-2.5-0.4c-0.3-0.4-0.4-0.8-0.4-0.8s-0.9-1.9-1.1-2.4c-0.2-0.5-0.8-1.9-1-2.1
		c-0.2-0.2-0.5-1.1-0.4-1.8c0.2-0.7-1.6-7.4,4.9-10.8C93.7,1,96.5,1.8,98,2.2c1.4,0.4,3.3,1.9,4.1,2.9c0.1,0.2,0.3,0.4,0.5,0.7v0
		c0,0,0.9-0.6,1.7-1.1c0.8-0.5,3.6-0.2,3.6-0.2s1.9,0.4,3.1,1l0,0c1.4-1.4,5.9-1.1,6.6-1.4c0.7-0.3,4.2,0.4,4.2,0.4
		c0.9-0.8,3.2-0.3,5.2,1c2,1.3,2.7,2.8,4.7,6.1c2,3.2,0.7,5.9,0.7,6.5c0,0.6,0.5,1.4,0.5,1.4s0.2,0.9,0,1.5
		c-0.2,0.6-1.2,1.3-1.2,1.3s-0.1,0-0.2,0.1l-2.5,0.8"/>
	<path class="st5" d="M312.9,532.2c0.4-0.2,1.8,4.6,2,5.5c0.2,1.1,0.2,2.1,0.4,3.2c0.2,1.1,0.7,2.2,0.7,3.4c0.3-1.5-0.2-3-0.2-4.4
		c0.1,0,0.3-0.1,0.4,0c0.1,0.3,0.2,0.6,0.2,0.9c-0.1-0.8-0.1-1.4,0.1-2.1c0.4-1.6,0.5-2.2-0.2-3.8c-0.7-1.8-0.8-4.3,0.9-5.2
		c-0.1-0.1-0.2-0.5-0.3-0.6c1.1-0.6,1.9-0.3,3.1-0.9c0.1-0.5,2.5-0.5,3.1-0.7c0,0,0-1.8,1.3-2.3c1.3-0.6,4.8,1.5,5.2,4.6
		c0,0,0.1-7.1,2.5-7.4c2.4-0.3,6.9,10.4,7.6,16.8c0,0-1.2-20,2.1-21.8"/>
	<path class="st5" d="M286.2,540.9c8.3-2.2,13.3-7,20.8-11c6.9-3.6,14.3-6.4,21.4-10.4c0,0,21.5,2.6,25.5-18.5"/>
	<path class="st5" d="M219.7,565.6c5.5-2.5,8.8-4.6,14.9-6c5.2-1.2,12.8-3.4,16.7-6.9c2.6-2.4,2.4-4.6,6-6.1c2.8-1.1,6.7-1,9.6-1.7"
		/>
	<path class="st5" d="M308.6,535.3"/>
	<path class="st5" d="M313.2,530.6c0.2,2.7-2.8,4.1-4.9,5"/>
	<path class="st5" d="M308.7,533.7c-0.2,1.1,0,1.6-1,2.4c-0.6,0.5-2,1.5-2.6,1.4"/>
	<path class="st5" d="M305.5,535.5c-0.3,1.6-0.1,3-0.3,4.6c-0.1,0.8-0.6,1.3-0.6,2c-0.1,0.8,0.2,1.6,0.1,2.4
		c-0.1,1.6-0.3,3.3-0.3,4.9c0,1.5-0.2,3.2-0.1,4.6c0.1,0.9,0.1,1.4,0.2,2.3"/>
	<path class="st5" d="M303.2,556.6c-0.1-0.7-0.3-1.4-0.3-1.8c-0.2-1.7,0.6-3.1,0-4.6c-0.8-1.8-1.8-4-1.6-6.1c0.2-1.7-0.8-3-1.4-4.6
		c0.3,0.7,0.1,1.5,0.1,2.2c-0.1,0.9,0.2,1.8,0.1,2.6c-0.1,0.9-0.3,1.3-0.2,2.3c0,0.7,0.2,1.7,0.1,2.4c-0.1-0.4-0.6-1.2-0.8-1.8
		c-0.2-0.8-0.3-1.5-0.4-2.4c-0.1-1.2-1.6-3.1-1.4-3.8"/>
	<path class="st5" d="M297.2,541.2c-0.6-0.3-1.1,0.8-1.7,1.1c-0.3,0.2-0.5-0.3-0.9,0c-0.2,0.1-0.6,0.6-0.7,0.8"/>
	<path class="st5" d="M294.2,541c-0.1,1.8-1.2,2.7-2.8,3c-0.2,0.1-0.7,0.3-0.9,0.3c-0.3,0-0.6-0.4-1-0.3c-0.5,0.1-0.9,0.4-1.5,0.6
		c-1.3,0.3-3.3-0.4-4.4-0.8c-0.9-0.3-2.9-0.9-3.3-1.4"/>
	<path class="st5" d="M240.7,581.4c-0.8-1.4-4.2-20.7-4.8-22"/>
	<path class="st5" d="M242.4,560.8c-0.4,0.8-0.7,1.6-0.8,2.5"/>
	<path class="st5" d="M302.7,529.9c-0.5,0.7-1.3,0.7-2,1c-1,0.6-1.9,1.5-2.9,2.1c-1.9,1.1-3.5,2.4-5.2,3.8c-2.4,2-5.2,3.6-8,4.5
		c-3.2,1-6.8,1.9-10.1,2.7c-1.9,0.5-3.8,0.6-5.7,0.9c-1.8,0.3-2.6-0.2-4.2-0.7c-0.9-0.3-2.1-0.5-3-0.6"/>
	<path class="st5" d="M257.3,540.3c-0.8,0.8-0.9,1.5-1.6,2.5c-0.9,1.3-2.4,5.8-3.5,6.7c-1.8,1.5-6,1.9-8.3,3
		c-3.7,1.8-7,4.6-11.5,4.5c-2-0.1-4.2-0.9-6.2-1.1"/>
	<path class="st5" d="M298,524.5c2.9-0.3,4.9-3.2,6.9-4.8c1-0.8,1.7-1.1,2.6-2.1c2.2-2.4,4.7-4.6,5.6-7.6"/>
	<path class="st5" d="M242.3,563.2c-0.2-0.3-0.3-0.6-0.5-0.9"/>
	<g>
		<path class="st4" d="M294.4,497c0,0,2.8-1.7,4.7-3.3c1.9-1.6,7.1-4.6,7.1-4.6s3.2-2.4,2.8-5.7l0-0.1c-0.1-1-0.3-1.9-0.6-2.5
			c0,0,0.1-0.4,0.2-1l0-0.1c0,0,0.3-1.1-1.9-1.7c-2.2-0.6-4.5-2.9-7.6-1.1c-3.1,1.9-4.1,2.8-4.4,3.3c-0.3,0.5-3.2,3.7-3.6,4.8
			c-0.4,1.1-5.4,4.8-5.8,6.3c-0.3,1.5-0.8,1.7-1,2c-0.2,0.3-4.4,4.5-4.4,4.5s-1.2,1-2.9,0.6c-1.7-0.4-3.2-1.2-3.2-1.2l-0.1,0
			c-1.5-0.1-1-0.3-1.9-0.3c-1.1-0.1-2-0.6-4.1-0.3c-2.1,0.3-3,1-3.3,1.4c-0.3,0.4,2.9,1.9,2.9,1.9l0.1,0c0.2,0,0.4,0,0.4,0
			s2.8,1.7,3.7,2.1c0.9,0.4,3.8,1.3,4.6,1.4c0.9,0.1,3.9,0.7,4.6,0.4c0.7-0.2,3.8-1.4,6.1-2.9c2.2-1.5,5.3-3,5.8-3.2
			C292.9,497.5,294.4,497,294.4,497z"/>
		<path class="st4" d="M267.1,499.8c-1-0.1-3.1-0.4-3.9-0.6c-0.2-0.1-0.6-0.1-1-0.3l-0.1,0c-0.8-0.3-1.2-0.6-1.1-1
			c0.3-1.5,7.6-3.3,10.1-2.5c1.7,0.5,4.4,1.7,4.4,1.7l0.1,0c-0.3,0-0.7,0-1.1,0c-2.9,0-1.9-0.3-3-0.4c-1.1-0.1-2-0.6-4.1-0.3
			c-2.1,0.3-3,1-3.3,1.4C264,498.3,267.2,499.8,267.1,499.8l0.2,0L267.1,499.8c0.1,0-3.1-1.5-2.8-1.9c0.3-0.4,1.2-1.1,3.3-1.4
			c2.1-0.3,3,0.3,4.1,0.3c0.9,0,0.4,0.3,1.9,0.3l0.1,0"/>
	</g>
	<g>
		<path class="st6" d="M313.9,496.2c0,0,1.1,3.9,1.8,5.8c0.7,1.9,1.1,5.7,1.5,6.8c0.4,1.2,1.5,8.1,1.7,8.8l-4.8-3.4
			c0,0-1.1-3.5-1.3-6c-0.3-2.5-0.6-7.6-1.4-8.2"/>
		<path class="st7" d="M308.3,480.9c0,0,1-3.9-0.8-7c-1.8-3.1-3.8-6.5-5.4-7.5c-1.5-1-1.7-1-3.7-2.3c-2-1.4-3.5-5.2-5.1-5
			c-1.5,0.2-7.3,1.8-8.1,2.4c-0.8,0.7-3.8,3-6.9,4.4c-3.1,1.5-4.1,3.7-4.1,3.7l-4.2,6.8c0,0-3,3.5-3.6,3.2c-0.6-0.2-1.8,0.1-2.8-0.6
			c-0.9-0.6-5.4-2.4-7.3-3.1c-1.9-0.6-5.9-0.4-7.3-0.6c-1.4-0.2-2.2,0.2-2.2,0.2l0.3,2.5c0,0-0.8,2.9-0.6,3.3
			c0.2,0.4-0.2,3.3,1.8,5.1c0,0-2.8-1.1-4.9,0c-2.1,1.2-3.5,5-2.8,7c0.7,2,4.5,4.5,8.1,3.5l4.2,1.9c0,0,2.3,7,3.7,9.8
			c1.4,2.7,8.3,12.9,17.4,12.5c0,0,1.5,2.1,3.1,2.8c1.6,0.7,3.4,0.5,6,1.8c2.6,1.3,3.8,2.1,3.8,2.1l1.4-1.9c0,0-2.5-1.3-4.7-2.2
			c-2.1-0.9-4.7-1.6-5.5-2.5c0,0,1.4-0.1,3.7-0.7c2.2-0.5,5.2-1.1,7.6-2.5c2.3-1.4,3.3-3.9,2.2-3.5c-1.1,0.5-3,2.8-7.4,3.6
			c-4.4,0.8-11.3,0.2-15-3.5c-3.7-3.7-7.7-13.6-9.3-16.7c0,0,2.6,0.8,3.6,1.1c1,0.2,4.4,0.6,4.4,0.6s2.8,1.7,3.7,2.1
			c0.9,0.4,3.8,1.3,4.7,1.4c0.9,0.1,3.9,0.7,4.5,0.4c0.7-0.2,3.8-1.4,6.1-2.9c2.2-1.5,5.3-3,5.8-3.2c0.5-0.2,2-0.7,2-0.7
			s1.7,2.4,2.3,2.8c0.6,0.4,2.6,2.9,2.6,2.9s2.1,0.1,3.2,0.1c1.1,0,3.8-1.6,4.8-1.7c1-0.1,2.9-1.1,3.2-1.1c0.3,0,3.4,0.4,3.6-0.5
			c0.2-0.9-0.1-5.3-1.5-7.3s-3.4-4.6-3.4-4.6S309,482.5,308.3,480.9z"/>
		<path class="st7" d="M294.4,497c0,0,2.8-1.7,4.7-3.3c1.9-1.6,7.1-4.6,7.1-4.6s1.2,2.2,2.1,3.1c0.9,0.9,1.7,1.3,2.2,1.9
			c0.6,0.6,1.3,1.4,1.7,2.3c0.4,0.9,1.3,3.1,1.1-0.1c-0.2-3.2-1.7-4-2.4-5"/>
		<path class="st7" d="M306.1,489.1c0,0,3.2-2.4,2.8-5.7"/>
		<path class="st7" d="M295.7,496.2c0,0,2.4,2.1,3.5,2.9c1.1,0.8,4.2,3.5,4.6,3.4"/>
		<path class="st7" d="M306.9,490.4c0,0,2.4-1.1,2.3-2.8"/>
		<path class="st7" d="M308.3,480.9c0,0-3.5,5.1-4.8,6.6c-1.3,1.5-6.2,7.7-11,10.3"/>
		<path class="st7" d="M308.5,479.8c0,0,0.3-1.1-1.9-1.7c-2.2-0.6-4.5-2.9-7.6-1.1c-3.1,1.9-4.1,2.8-4.4,3.3
			c-0.3,0.5-3.2,3.7-3.6,4.8c-0.4,1.1-5.4,4.8-5.8,6.3c-0.3,1.5-0.7,1.7-1,2c-0.2,0.3-4.4,4.5-4.4,4.5"/>
		<path class="st7" d="M267.2,499.8c0,0-3.2-1.5-2.9-1.9c0.3-0.4,1.2-1.1,3.2-1.4c2.1-0.3,3,0.3,4.1,0.3c1.1,0,0.1,0.4,3,0.4
			c2.9,0,3-0.8,3.3-2.5c0.3-1.7,0.8-1.5-0.1-3.9c-0.8-2.3-3.3-5.3-3.5-5.6c-0.2-0.3,4.5-8,4.5-8l-1.5-2.5l-0.8,0.1L276,475l-1.5,2.6
			l0.1,1.5l-0.5,0.4l-0.1,0.7l-1,1.5c0,0-3.9-2.3-6-2.3"/>
		<path class="st7" d="M278.9,477.4c0,0,2.8-4.4,4.5-5.9c1.7-1.5,8-2.5,8-2.5l-2.4-3c0,0-7.4,1-11.6,8.9"/>
		<path class="st7" d="M290.8,468.2c0,0,5.3-3.3,9.7-2.9"/>
		<path class="st7" d="M297.1,462.8c0,0-4.5,0.6-8.8,3.3"/>
		<path class="st7" d="M274.6,479.1c0,0,0.2,1.3,0.6,1.8c0.4,0.5,1.3,0.4,1.3,0.4"/>
		<path class="st7" d="M273.9,480.3c0,0-0.1,0.9,0.5,1.3c0.5,0.3,2.1-0.2,2.1-0.2"/>
		<path class="st7" d="M274.4,485.3c0,0-0.3-2.1-1.5-3.5"/>
		<path class="st7" d="M275.7,497.3c0,0-2.8-1.2-4.4-1.7c-3.1-1-13.5,1.9-9,3.4"/>
		<path class="st7" d="M261.1,498.1c0,0-2.5-1.2-2.4-3.9c0.1-2.7,0.8-3.8,3.7-4.2c2.9-0.4,6.5,0.2,7.4,0.7c0.9,0.5,0.9,0.9,1.2,1
			c0.3,0.1,2.2,1.6,2.2,1.6s3.2,5.2,4.7,2.1"/>
		<path class="st7" d="M259.6,498.2l-3-5c0,0-0.2-0.9-0.5-1c-0.4-0.1-0.6-0.5-1-0.3c-0.4,0.3-3.3,2.5-3.2,3c0.1,0.5,0.8,4.1,0.8,4.1
			"/>
		<path class="st7" d="M252.3,496.3c0,0-1-1-1.7-1c-0.7,0-4.4-1.3-5.6-2.3c-1.2-1-2.4-3-1.5-3.2c1-0.3,1.2-0.4,1.2-0.4
			c-1,0.6-0.8,1.8,0.9,2.8c1.7,1,5.6,1.1,6,1c0.4,0,1.3,0.4,1.3,0.4"/>
		<path class="st7" d="M253.2,492.5c0,0-1.3-0.2-1.9-0.2c-0.6,0-3.5-0.1-4.1-0.4c-0.6-0.3-3.2-0.8-1.5-1.6c1.7-0.8,5.3-0.7,5.3-0.7
			S253,491.6,253.2,492.5z"/>
		<path class="st7" d="M244.7,489.4c0,0,1.6-0.9,5.5-0.9l-1.9-1.9"/>
		<path class="st7" d="M263.4,489.7c0,0,0.5-4.7-5.4-7c-5.9-2.2-9.5-2.6-11-5.2"/>
		<path class="st7" d="M293.3,497.4c1.5,2.2,1.4,3.5,0.6,5.5c-0.8,2-0.6,5.3-0.8,9.2c-0.2,3.9-1.8,2.7-1.8,2.7l-1.1,0.7
			c0,0,0.8-1.2,1.3-2.2c0.5-1,0.1-3.6,0.5-6.2c0.4-2.6,2-6.9,0-9.2"/>
		<path class="st7" d="M273.9,521.3c0,0-4-1.8-5.7-2.7c-1.6-0.8-3.9-2.1-4.7-3.5c-0.8-1.4-4.6-2.9-6.3-5.6c-1.7-2.8-3.7-8.2-3.7-8.2
			"/>
	</g>
	<g>
		<path class="st6" d="M143.5,169.3c0,0-0.3,3.5-0.9,4.2c0,0,0.5,0.8,0.3,1.6c-0.2,0.8-1.1,4-1.1,4s0.4,0.2,0.3,1.3
			c-0.1,1.1-0.8,2.6-0.8,2.6s-1.6,1.6-6.6,1.9l-0.4-1.1c0,0-2.4,1.8-2.7,1.9c-0.3,0.1-5.2,2.5-9.9,2.1c-4.8-0.5-7.2-2.2-8.6-3.6
			l0-1.6l0.8-0.1c0,0,0.1-1.2,0.2-1.4c0-0.2,0.1-1,0.2-1.2c0.1-0.1,2.5-2,2.5-2l4.5-2.5l1.8-1.8h0.2c0,0,1.1-1.7,1.2-1.7
			c0.2,0,1.9-2,1.9-2.5c0,0-0.5-0.4,0.7-3.2"/>
		<path class="st7" d="M148,89.3c0.7-0.5,1.2-0.6,1.3-1.2c0-0.6,0.6-1.5,0.9-2.2c0.3-0.7,0.3-1.5,0.5-4.2c0.2-2.7,0.1-2.2,0.4-3.8
			c0.3-1.6-0.7-5.1-0.9-5.5c-0.2-0.5-0.9-2.5-0.8-3.1c0.1-0.6-0.7-2.5-0.7-2.5s-0.7,0.2-0.7,0.6c0,0.4-0.4,1.2-0.6,1.3
			c-0.1,0.1-3.2,1.5-3.3,1.6c-0.1,0-0.2,0.3-0.2,0.3l-4.1,0.9l-0.2,0.3c0,0-2.9,0.6-3.2,0.7c-0.3,0.1-1,0.3-1.6,0.1"/>
		<path class="st7" d="M148,86.1l0.2,0.3c0,0,0.2,0.7-0.2,1c-0.4,0.3,0.3,1.6-0.3,2.8c-0.6,1.3-0.8,2-0.8,2s0.5,1.2-0.6,1.4
			c0,0,0.3-1.4-1.6-2.2c-1.9-0.8-12.2-4.4-12.3-4.5"/>
		<path class="st7" d="M149.5,70.1c0,0,0.2,5.6-0.8,9.3c-1,3.7-1.7,5.2-1.4,7.4l0.4,1c0,0,0.1-0.8,0.5-2.9c0.5-2.1,2.6-8.3,1.6-13.4
			"/>
		<path class="st7" d="M147.2,85.6c0,0-1.7-1.2-4.2-1.3c-2.5-0.1-8.5-0.2-9.9,0"/>
		<path class="st7" d="M148.9,67.3c2.5-0.2,0.3-2.3,0.3-2.3s0.1-0.4,0.7-1.2c0.5-0.8,0.3-1.9-0.2-3.1c-0.5-1.2-2.2-0.8-2.2-0.8
			s0.4-0.8-1-3"/>
		<path class="st7" d="M146.3,93.7c0,0-1.1,4.5-1.4,5.4c-0.3,0.9-1,2.3-1,3.1c-0.1,0.8-0.5,2.3-0.9,3.3c-0.4,1-1.9,7.6-2.8,8.9
			c0,0-0.5,9-3.1,11.3c0,0,0.6,0.7,0.7,0.9c0.1,0.3,0.6,1.6,0.7,2c0.1,0.5,0.6,1,0.5,1.5c-0.1,0.5-0.5,1.6,0,2.2
			c0.4,0.6,0.8,1.1,0.6,1.8c0,0,2.2,2.4,2.7,3.7c0.5,1.3,1.1,5.5,1.1,5.5s0.6,2.7,0.8,3.1c0.2,0.5,0.1,2.5,0,2.9
			c-0.1,0.4,0.2,2.8,0.2,2.9c0,0.1,0.4,4.2,0.4,4.8c0.1,0.6,0.3,3.2,0.3,4c0,0.8,0.1,1.3,0.8,2.4c0.7,1.1,0.9,1.1,0.8,1.3
			c-0.1,0.3,0.2,2.5,0,3.2c-0.1,0.8-1.1,1.4-1.6,1.4c-0.5,0-0.1,0.3-1.3,0c-1.2-0.3-2.3-0.2-2.9-0.2c-0.6-0.1-0.7-0.4-0.8-0.5
			c-0.2-0.1-1.3-1.2-1.6-0.9c-0.3,0.2-1.7,0.4-1.7,0.4s-7.8,0-9.3-1.7c-1.5-1.7-2-1.8-2.1-2.5c-0.1-0.7-0.2-1.4-0.2-1.6
			c0-0.2-0.6-3-0.4-4.2c0.2-1.2-0.2-2.1,0.2-3c0.5-1,0.5-1.4,0.5-1.4s0.7-3.4-0.3-6.3c-1.1-3-1.6-5.2-1.8-5.8
			c-0.2-0.5-0.6-1.3-1.5-1.9c-0.9-0.6-2.7-3.5-2.4-5.6c0.3-2.1,0.6-1.8,0.2-2.6c-0.4-0.8-1-2-1.1-3"/>
		<path class="st7" d="M132.4,30.3c0,0,1.5,5.9,1.8,9.5c0.3,3.6,0.7,15.4,0.8,20c0.1,4.6,0.2,12.9,0,14.3c-0.2,1.4-0.1,6.7-0.7,7.7
			c-0.6,1-1.8,4.3-1.8,4.3v2.8c0,0,0,1.4,0,1.9c0,0.5-0.2,1.1-0.1,2.2c0.1,1.1,0.3,2.9,0.1,4.2c-0.2,1.3-0.9,1.1-0.5,2
			c0.4,0.9,0.9,1,0.5,1.9c-0.4,1-0.6,1.9-0.6,2.6c0,0.7,0.4,2.5-0.5,3.9c-0.9,1.5-1.7,1.5-1.8,1.5c-0.1,0-0.8,0.2-0.8,0.4
			c0,0.2,0.4,0.8,0.4,0.8s0.7,2.1-0.9,3.2c-1.6,1.1-1.5,1.7-1.8,1.6c-0.3,0,0.4,0.4-0.3,1.7c-0.7,1.3,0,1.9,0,2.5
			c0,0.6-0.4,1.3-0.3,1.9c0.1,0.6,0.3,1.7,0,1.9c-0.3,0.2-1.6,0.9-1.6,0.9s0.1,0.9-0.5,2c-0.5,1.1-0.7,2.2-2.8,2.6"/>
		<path class="st7" d="M119.8,128.9c0,0-2.1-0.3-2.5-0.7c-0.4-0.4-1.4-1.6-1.4-1.6s-1.3-0.9-1.4-1.3c-0.1-0.4-0.1-1,0.2-1.1
			c0.3-0.1,1.1,0,1.1,0l-0.2-0.8c0,0-0.2-0.8-0.3-1.4c-0.1-0.5-0.9-0.2-0.7-1c0.1-0.8,0.3-2.2,0.5-2.3c0.1,0,1.2-1,1.2-1
			s0-0.9,0-1.7c0.1-0.8,1.3-2.6,1.6-3c0.3-0.4,0.1-0.6,0.1-0.6l-0.1-0.3l-1.3-0.5l0-2.9h0.8l-0.5-1.6c0,0-0.1,0.4-0.3-0.5
			c-0.2-0.9,0.2-1.3,0.2-1.3s-0.7-1.5-0.7-2.4c0-0.9-0.1-4.1,0-5.2c0.2-1.1,0.4-0.8,0.1-1.4c-0.3-0.7-0.2-1.1-0.4-1.9
			c-0.2-0.9-0.5-1.3-0.4-2.8c0.1-1.5,0.2-2.8,0.1-3.3c-0.1-0.5,0-2.3,0.1-2.6c0.1-0.3,0.4-1,0.4-1s0.5-0.7,0.5-1.2
			c0-0.5-0.7-1.8-0.7-1.8s-0.4-1.4-0.2-1.6c0.1-0.2-0.3-1-0.3-1s-0.5-1-0.6-2c-0.2-1-0.8-2.2-0.6-2.6c0.2-0.4,0.4-0.9,0.4-1
			c0-0.1,0.9,0.4,0-0.6c-0.8-1-0.4-3.1-0.7-4.2c-0.3-1.1,0-4.3,0-4.3s-1-1.4-1.2-2.1c-0.2-0.7-0.4-4-0.3-4.2
			c0.1-0.2,0.4-1.5,0.4-1.7c0-0.1,0-1.2,0-1.2s-1.1-2-1.6-4.4"/>
		<path class="st7" d="M147.5,59.9c0,0-0.2,0.7-0.8,1c-0.6,0.3-4.9,1.3-6,1.9"/>
		<path class="st7" d="M135.1,66c0,0,3.7-2.1,5-2.8c1.3-0.7,1.8-2.2,3.6-3.6c1.8-1.4,1.6-1.5,2.5-2.4c0.9-0.9,0.1-1.4,1.1-2.5
			c1-1.1,0.3-1.4,0.3-1.8c0-0.4-0.3-3.1-0.3-3.1s-0.2-0.5-0.8-1c-0.6-0.5-1.1-1.7-2-2.7c-1-1-1.4-2.2-1.4-2.2s0-1.1-1-3.8
			c-1-2.6-1.4-5-2.7-7.1c-1.3-2.1-1.4-3.4-10.1-8.7"/>
		<path class="st7" d="M137.1,64.9c0,0-1.4,1.9-2,2.4"/>
		<path class="st7" d="M143,43.8c0,0,0,3.6,0,4.6c0,1-0.5,2.1,0,2.5"/>
		<path class="st7" d="M115.8,86.1c0,0,3.6-0.6,4.4-3.7"/>
		<path class="st7" d="M132.4,86.1c0,0-1.2-4.1-1.9-5.3"/>
		<path class="st7" d="M126.2,87c0,0-9.2,3-7.1,0.8"/>
		<path class="st7" d="M129.2,107.8l-1.7-2c0,0-4.2-0.5-4.7-0.7c-0.5-0.2-4.4-1.5-5.5,0"/>
		<path class="st7" d="M141.3,166.8c0,0,3.2-2.5,1.6-17.3"/>
		<path class="st7" d="M132.1,135.1c0,0-7.2,1.8-8.8,1.5"/>
		<path class="st7" d="M143.8,91.1c0,0-1.5,7.2-3.5,9.4"/>
		<path class="st7" d="M113.6,69.6c-0.2,0-4.8-0.6-6.5-1.4c-1.7-0.8-2.9-1.2-3.7-2.2c-0.8-1-2.2-2.4-2.4-2.8
			c-0.2-0.4-1.4-2.6-1.6-2.9c-0.2-0.3-2.6-4.1-3.4-7.1c-0.8-3-0.8-3.2-1.9-7.5c-1.1-4.3-1.4-5.1-1.7-6.2c-0.3-1.1-0.4-1.2-0.3-2
			c0.1-0.8,0.4-3.6,0.5-4.4c0-0.8-0.2-2,0.6-2.9"/>
		<path class="st7" d="M96.5,32.8c0.6,0.4,1.2,1.5,2.1,2.6c0.9,1.1,2,0.6,3.4,0.3s2.1-1.2,2.5-1.7c0.3-0.6,1.2-2.1,2-3.3
			c0.8-1.2,1.7-4.5,1.8-5.9c0.1-1.3-0.9-3.1-1.1-3.5c-0.2-0.4-0.3-1.7-0.3-1.7s0.6-0.5,0.8-0.9c0.2-0.4,0-0.5,0.1-1.1
			c0.1-0.6,0-1.6-0.3-2.4c-0.3-0.8-0.3-1.1-1-1.7"/>
		<path class="st7" d="M95.2,31.7c0,0-1.2-0.9-1.6-1.1c-0.4-0.2-2.2-1.2-3.1-2.3c-0.9-1-1-1.4-1.2-1.5c-0.2-0.1-0.8-0.2-1.4-0.9"/>
		<path class="st7" d="M99.2,29.3c0.3,0.3,0.2,1.1-0.4,1.5c-0.6,0.4-1.2,0.9-1.3,1.2c-0.2,0.3-0.2,0.7-0.9,0.8
			c-0.7,0.2-1.3-0.7-1.4-1.3c-0.1-0.6-0.2-1.1-0.4-2c-0.2-0.8-0.8-2.1-0.8-2.1s-0.3-0.6-0.6-0.7c-0.2-0.1-1.2-0.2-2.2-0.2
			c-1,0-1.7,0.4-1.9,0.3"/>
		<path class="st7" d="M93,26.6c0,0-1,1.2-2.6,0.7c0,0,0.6-0.6,0.9-0.8"/>
		<path class="st7" d="M96.8,25.2c0.5-1.1,3.1-1.4,3.1-1.4s-0.3,0.8-0.9,1.1C97.6,25.6,96.8,25.2,96.8,25.2z"/>
		<path class="st7" d="M100.7,22.5c0,0-2,0.8-2.6,1c-0.6,0.2-1.5,0.7-1.9,1.2c-0.4,0.4-0.5,0.6-0.5,0.6s-0.7-0.7,0-1.2
			c0.7-0.5,1.9-1.3,2-1.3C98,22.8,100.7,22.5,100.7,22.5z"/>
		<path class="st7" d="M92.6,26.5c0,0-1-0.5-1.3-0.5c-0.3,0-0.5-0.2-1.2,0c-0.7,0.2-1.8,0.2-1.9,0.1"/>
		<path class="st7" d="M97.2,33c0,0,0.4,0,0.8,0c0.4,0,1.3-0.1,2-0.5c0.7-0.4,1.9-0.8,2-0.9"/>
		<path class="st7" d="M106.5,17.9c0,0,0.6-0.9,0-1.3c-0.6-0.4-0.8-0.4-0.8-1c0-0.5,0-1,0-1"/>
		<path class="st7" d="M102.9,16.7c0,0,0.4,1.7,1.6,2.3c0.5,0.2,1.2,0.8,1.2,0.8l0.2-0.7c0,0-0.4-1.3-1.1-1.9
			c-0.7-0.6-0.4-1.6-0.4-1.6"/>
		<path class="st7" d="M107.7,18.8c0,0,0.4,2.3-0.1,3.4"/>
		<path class="st7" d="M102.4,5.8c0,0,0.9-0.6,1.7-1.1c0.8-0.5,3.6-0.2,3.6-0.2s2.7,0.6,3.6,1.3c1,0.7,0.2-0.1,1.7,0.5
			c1.5,0.6,2,1.1,2,1.1s1.9,1.3,2,1.5c0.1,0.1,1.4,1.4,1.9,2.3c0.4,0.9,1.1,1.7,1.1,2.3c0,0.6,0.4,4-0.5,5.5
			c-0.9,1.4-1.4,2.4-1.5,2.5c-0.2,0.1-1.2,0.6-1.3,0.8c-0.1,0.2-1.4,4.5-2.7,5.9c-1.2,1.4-3.4,2.9-3.7,3c-0.3,0.1-3,1.4-3.3,2.2
			c-0.4,0.8-1.7,1.9-2,2.3c-0.3,0.4-1.4,1.7-1.6,1.9c-0.1,0.2-0.9,2-0.9,2l-1.8,1.6c0,0,0.3-1.6,0-2.5c-0.3-0.9-0.5-2.6-0.5-2.6"/>
		<path class="st7" d="M97.8,43.3c0,0-2.4-4.2-2.6-5.6c-0.1-1.3,0.1-3.8,0-4.4c-0.1-0.6-0.5-2-0.5-2"/>
		<path class="st7" d="M101.3,43.8c0.3-0.3,1.6-1.6,3.4-2.2c1.9-0.6,2.4-0.2,2.6-1.1c0.2-0.9,0.3-1.2,0.3-1.2s2.6-1.1,2.8-1.5
			c0.2-0.3,2.2-3.1,3.5-4.6c1.3-1.6,2.5-3.8,2.7-3.9c0.2-0.1,0.2-0.7,0.2-0.7s1.8-0.9,2.9-1.1c1.2-0.2,2.5,0,2.5,0l2.2-1.1l3.1-0.7
			c0,0,1.9-1.4,2.4-2.2c0.5-0.8,1.5-1.2,1.5-1.2s1-0.7,1.2-1.3c0.2-0.6,0-1.5,0-1.5s-0.5-0.8-0.5-1.4c0-0.6,1.3-3.2-0.7-6.5
			c-2-3.2-2.7-4.8-4.7-6.1c-2-1.3-4.3-1.8-5.2-1c0,0-3.5-0.7-4.2-0.4c-0.7,0.3-5.2,0-6.6,1.4"/>
		<path class="st7" d="M123.8,13.3c0-0.2,1.6-0.4-0.3-2.8c-1.9-2.4-1.9-2.2-2.2-2.7c-0.3-0.5-2.5-0.7-2.5-0.9c-0.1-0.2-2-1.2-2-1.2"
			/>
		<path class="st7" d="M114.5,15.6c0-0.2,3.4-7.3-2.5-9.5"/>
		<path class="st7" d="M108.6,24c0,0,3.1-9.2,1.6-13.5c-1.5-4.3-4.9-4.4-5.5-4.2"/>
		<path class="st7" d="M121.6,117.1c0,0-0.5,1.2-0.4,2.6c0,1.4-0.3,1.6-0.3,1.6s-0.5,1.3-0.5,1.8c0,0.5,1,1.7,0.6,2.3
			c-0.4,0.5,0.1,0.8-1.4,0.9c-1.6,0.1-2.2-0.9-2.6-1.7c-0.4-0.8-0.2-2.1-0.3-3.5c-0.1-1.5-0.4-2.6-0.5-2.8"/>
		<path class="st7" d="M124.2,124.3c0,0-0.5-1.6-1.2-2.8"/>
		<path class="st7" d="M126.3,115.4c0,0-1-2-3-3c-2-0.9-3.6-1-3.9-0.9"/>
		<path class="st7" d="M115.7,124.2c0,0,1.1,0,1.4,0.6"/>
		<path class="st7" d="M116,117.7c0,0-0.3,1.1,0,1.9c0.3,0.9,0.7,1.6,0.7,1.6"/>
		<path class="st7" d="M115.5,123.4c0,0-0.2-1.5,1-2.7"/>
		<path class="st7" d="M117.7,112c0,0-0.2-1.7,0-2.8c0.2-1.1-0.3-2.3,1.6-2.4c1.9-0.1,7.9,0,9.4,2.8"/>
		<path class="st7" d="M102.4,64.9c0,0,0.6,1.3,0.5,1.8c-0.1,0.5,0.2,1.5,0.2,1.5v1.4c0,0,0.7,1.2,0.7,1.6c0,0.4-0.8,2.6,0,4.9
			c0.8,2.3,1.6,3.5,1.3,5c-0.3,1.5-0.8,1.7-0.3,1.9c0.5,0.2,1.5,1.3,1.8,1.5c0.3,0.2,0.4,1.3,0.7,1.2c0.4-0.1,0.8,0,0.8,0
			s0.1-0.4,0-0.7c0-0.3,0-0.7,0-0.7s1.4-2.2,6.6-1.5"/>
		<path class="st7" d="M108,85.6c0,0,0.4,1.7,0.3,2.8c-0.1,1.1-0.4,2.8,0.2,3.5c0.6,0.7,2.1,1.2,2.5,1.5c0.4,0.3,1.7,1.5,2.6,1.4
			c0.8-0.1,1.9-0.4,1.9-0.4"/>
		<path class="st7" d="M111.8,88.6c0.3,0.1,0.1,1.2,0.4,1.5c0.2,0.4,0.5,1.5,0.9,2.4c0.4,1,1.6,1.2,1.6,1.2s0.6-0.2,0.5-0.6"/>
		<line class="st7" x1="111.3" y1="93.5" x2="109.6" y2="91.8"/>
		<path class="st7" d="M108.3,87.8c0,0-1.3,1.7-1.6,3c-0.4,1.3-1.7,3.2-2,3.6c-0.3,0.4-1.4,1.6-1.7,2.2c-0.4,0.6-0.9,1.7-1,2.2
			c-0.2,0.5-0.8,1.4-1,1.7c-0.2,0.3-0.4,2.4-0.6,2.7c-0.2,0.3-1.3,3-1.4,4.8c-0.1,1.7,0.4,2.6,0.7,3.4c0.3,0.8,1.4,2.3,1.4,3.3
			c0.1,1,1,3.1,1.2,3.3c0.2,0.3,2.5,0.8,2.5,0.8s0.3,2.5,0.5,3.1c0.2,0.6,1.3,4.7,2.1,7.4c0.7,2.7,1.1,3.2,1.1,3.2s0.4,1.2,0.3,1.7
			c0,0.5,0.5,3.1,0.5,3.1l0.6,1.8c0,0,1.2,1.2,2.6,1.3c1.4,0.1,2.5-0.1,3.2,0c0.7,0.1,3.5-0.3,5.2-1.3"/>
		<path class="st7" d="M125.4,152.7c0,0-0.6,0.7-2.4,0.7c-1.8,0-6.2-0.7-6.2-0.7l-0.8-1.2c0,0-1.4-0.5-3.1-0.3
			c-1.8,0.3-5.5,0.8-6.8,0.5c0,0-5.1-0.3-9.3-3.5v-0.8l-0.2-1.4l0.3-1.3c0,0,0.1-0.8,0.8-1.3c0.8-0.5,3.4-1.8,6.9-1.9l1.7-0.7
			l2.8-0.9c0,0,1.2-0.6,1-0.7c0,0,0.3,1.3,0.6,1.8c0.3,0.5,0.4,1.6,0.7,1.9"/>
		<path class="st7" d="M125.5,150.7c0,0-2.2,0.8-5.4,0.2c-3.2-0.6-5.3-0.8-7.6-0.7c-2.3,0.1-12.4,1.4-15.7-3.4"/>
		<path class="st7" d="M113.1,182.5c0,0,2.8,3.9,9.7,3.6c6.9-0.3,9.8-2,10.9-3.1c2.6-2.7,8.8-2.2,8.3-3.6"/>
		<path class="st7" d="M112.5,69.4c0,0,0.2,2.3,0.2,3.3c0.1,0.9,1.5,3.5,1.5,3.5"/>
		<path class="st7" d="M114.6,78c0,0-1.3-0.4-1.3,0.4c0,0.8,1.4,1.4,1.4,1.4s-1.4,0.3-0.7,1c0.7,0.6,1.6,0.8,1.6,0.8"/>
		<path class="st7" d="M114.7,81.3c0,0-0.2,2.1,1,3.3"/>
		<path class="st7" d="M114.2,77.9c0,0-1.1-1.7-1-3.7"/>
	</g>
	<path class="st8" d="M121.2,256.9c1,0.1,2.4-0.6,2.5-2.5c0.1-1.8-1.1-2.6-1.7-2.8c-0.2-0.1-0.6-0.2-1.2-0.4l-0.4-0.1l-0.1-0.3
		l-2.3-0.6c0,0-0.2,0-0.2,0.1c-0.1,0.2-0.3,0.1-0.3,0.1c-1.6-0.3-2.4,0.8-2.4,0.8l1.1,0.5c0,0,0.3-0.5,1.1-0.3v0.1h0.2l0.1,0.2
		l2.5,0.6l0.2-0.2c0,0,2.4,0.1,2.3,1.6c-0.1,1.5-0.9,1.9-1.5,1.8"/>
	<path class="st9" d="M120.9,258c0.4,0.1,0.6,0.3,0.3,0.5c-0.5,0.5-1,0.6-1,0.9c-0.1,0.3-0.3,0.6-1.1,0.6c-0.8,0-2.4,0.1-3-0.4
		c0,0-0.6-0.8-0.5-1.4c0.1-0.6-0.3-0.8,0-1.3"/>
	<path class="st9" d="M120.9,258l0.3-0.3v-1.5c0,0-0.3,0.3-0.5,0.4c-0.2,0.1-0.6,0.4-0.7,0.7v2.2C120,259.5,120.9,258.5,120.9,258z"
		/>
	<path class="st9" d="M119.8,257.5c-0.2,0.4,0.1,1.6,0.1,1.6s0,0.5-0.8,0.6c-0.9,0.1-1.6-0.1-1.7-0.2L117,257"/>
	<line class="st7" x1="120.4" y1="251.1" x2="120.2" y2="252.6"/>
	<line class="st7" x1="117.8" y1="250.6" x2="117.6" y2="251.8"/>
	<path class="st9" d="M171.4,323.3c0,0,4.2,1.1,4.5,2.9h0.2l0.3,0.6l0.6,0.5l1.4,3.2c0,0,0.1,0.5,0,0.7c0,0,0.3,1.3,0.5,1.7
		c0.2,0.4,1.3,3.7-2.3,4.1c-3.6,0.3-5.6-1.1-6.6-3.4c-1-2.3-2.7-6.2-3-7.1c-0.3-0.9-0.7-3.4,1.9-3.4c0,0,0.5,0,0.7,0"/>
	<path class="st6" d="M169.1,324.7c-0.8,0-0.2,1.9,1.7,6.3c1.8,4.4,4.5,4,5.5,4c1.1,0,0.3-1.8,0.3-1.8l-0.5-1.5c0,0-0.5-0.1-0.7-0.3
		c-0.2-0.2-1.3-2.6-1.4-3.1c-0.1-0.4,0.1-1,0.1-1l-0.1-0.4c0,0-0.8-1-2-1.5l-0.8-0.3"/>
	<path class="st7" d="M175.9,331.6c0,0,0-1.1,1.1-1.1c1,0,1.4,0.6,1.4,0.6"/>
	<path class="st7" d="M176.6,327c0,0-0.8-0.3-1.4,0c-0.6,0.3-1.2,0.9-1.2,0.9"/>
	<path class="st7" d="M175.9,326.2c0,0-1.3,0-1.8,0.7"/>
	<path class="st9" d="M168.7,316.9c0,0,0.3-0.7,0.4-0.9c0.1-0.1,0.3-0.1,0.3-0.1c0.2,0.1,0.7,1.1,0.8,1.5c0.1,0.4,0.3,1,0.7,1.7
		c0.4,0.7,0.2,0.9,0.1,1.4c-0.1,0.5-0.1,0.7,0,1c0.1,0.2,0.2,0.6,0.2,0.6s0.3,1.2,0.2,2.3c-0.1,1.1-0.5,1.7-0.8,1.6
		c-0.3-0.1-0.5-0.3-0.5-0.3L168.7,316.9z"/>
	<path class="st10" d="M169.7,321.2c0,0,0.2-1-0.1-2.4c-0.3-1.4-0.8-1.9-1-2c-0.2-0.2-0.5,0-0.6,0.1c-0.1,0.1-0.2,0.5-0.3,0.5
		c-0.1,0.1-0.4,0.1-0.4,0.1l-0.4,0.6l0.3,4.4"/>
	<path class="st7" d="M170.1,321.7c0,0,0.3-0.8,0.3-0.8c0-0.1,0-0.3-0.1-0.3C170.2,320.6,170.2,320.8,170.1,321.7z"/>
	<path class="st3" d="M119.8,259.2c0.1,0.5,0.8,1,1.2,1.7c2,3,43.3,58.1,43.8,59l0,0l1.4-0.8c-2.3-3.7-41.8-56-43.8-59.1
		c-0.9-1.4-1.6-2.3-2.3-2.8c0,0-0.1,0.1-0.2,0.2c-0.2,0.1-0.2,0.1-0.2,0.1S119.6,258,119.8,259.2z"/>
	<path class="st9" d="M171.8,335.9c0,0,0.6,1.5,1.3,2.6c0.7,1.1,1.6,3.1,3,2.9l1.5-0.4c0.1-0.2,0.1-0.7,0.1-0.7c0-0.2,0-3.9,0-5
		c0-1.1-1.2-1.6-1.5-1.6c-0.2,0-1.5,0-1.5,0c-0.1-0.3-1-0.4-1.5-0.4c-0.5,0-1,0.2-1,0.2c0.1,0.1,0.8,0.6,0.8,0.6s0.6-0.1,1,0.5
		c0.5,0.6,0.4,1.7,0.5,2.2c0,0.4,0,2.3-0.6,1.3c-0.7-1-1.1-1.8-1.1-1.8C172.1,336.2,171.8,335.9,171.8,335.9z M175.6,335.9
		c0-0.4-0.1-0.7-0.2-1h0.1c0,0,1.3-0.3,1.3,0.4c0,0.6,0.3,1.9,0.2,2.5c-0.1,0.6-0.3,1.6-1.2-0.9l-0.2,0
		C175.6,336.5,175.6,336.2,175.6,335.9z"/>
	<path class="st6" d="M115.3,251.3c0,0-0.2-1.1-1.7-2.6c-1.6-1.6-4.1-3-4.2-3l-0.3,0.2c0,0-1.4,0.1-1.5,0.3
		c-0.1,0.3,0.8,0.5,1.6,1.3c0.8,0.8,2,3.1,2.9,5.1c0.9,2,2.1,2.1,2.1,2.1c0.2,0,1.1,0.5,1.8-0.8"/>
	<path class="st3" d="M126.1,256c0,0-0.4-0.1-0.8,0.1c-0.4,0.2-0.6,1.1-2.4,0.8"/>
	<path class="st3" d="M123.2,257c-0.4-0.1-0.8-0.3-1.1-0.6c-0.9-0.7-1.2-0.8-0.9-1.5c0.1-0.3,0.4-0.3,0.5-0.4
		c-0.2-0.2-0.3-0.4-0.3-0.7c0.1-0.8,1-0.9,1.3-0.9c1.2-0.1,2.4,0.5,3,1.3c0,0,0.1,0.1,0.1,0.1"/>
	<path class="st7" d="M174.8,333.9c0,0,0.3,0.4,0.5,1.1"/>
	<path class="st7" d="M175.5,337c-0.1,1.7-0.3,4.4,0.6,4.2"/>
	<path class="st6" d="M114.5,251.6c0,0-2.9-3.2-3.6-3.8"/>
	<path class="st6" d="M109.1,245.8c1,0.7,3.5,4.1,3.8,4.9c0.3,0.8,0.9,2,0.9,2s0.4,0.4,1-0.2"/>
	<path class="st11" d="M173.3,336.6c0.2,0.4,0.4,0.6,0.6,0.9c0.2,0.3,0.4,0.6,0.6,0.9c0,0,0.1-0.4,0.1-0.9c0-0.5,0-0.7,0-0.7
		S173.7,336.8,173.3,336.6L173.3,336.6z"/>
	<path class="st3" d="M169.4,327.4l3.8,6.1l-0.8,0.2c0,0-0.5-0.5-1-1.3c-0.5-0.8-1.5-3.6-1.9-4.6L169.4,327.4z"/>
	<path class="st3" d="M166.9,324.3c-0.5,1.3,0.2,2.6,0.2,2.6l-50-66.2c-0.1-0.2-0.4-0.6-0.7-1.2c-0.3-0.7-0.6-1.6-0.4-2.3l1.6,0.4
		c-0.1,0.2,0.2,1.3,0.9,2.2l46.6,60.7"/>
	<path class="st9" d="M166.8,324.6l-0.5-0.2c-1.1-0.9-1.1-1.7-1.1-1.9c0-0.3,0-0.8,0-1.3c0-0.5-0.1-1.2-0.1-1.9
		c0-0.8,0.2-1.1,0.3-1.1c0.1-0.1,0.3-0.6,0.5-1.2c0.2-0.6,0.5-0.5,0.5-0.5c0.8,0.5,1.2,2.8,1.5,3.5c0.3,0.7,0.8,0.9,1.3,1.1
		c0.5,0.3,0.8,0.6,0.8,0.6s0.5,0.8,0.4,2.2c0,1.4-0.3,2.3-0.8,2.4c0,0-0.3,0.1-0.8-0.4c0,0,0-0.4,0-0.6c0-0.2,0.2-0.5,0.2-0.5
		c0.2,0.2,0.5,0.2,0.7-0.4c0.2-0.5,0.1-1.3-0.1-1.8c-0.1-0.5-0.9-0.8-1.3-1c-0.4-0.2-0.6-0.5-0.6-0.5s0,0.4,0,0.8
		c0,0.4-0.2,1.2-0.2,1.3c-0.1,0.1,0.1,0.3,0.1,0.3s-0.4,0.3-0.5,0.5C167,324.2,166.8,324.6,166.8,324.6z"/>
	<ellipse class="st7" cx="165.6" cy="320.5" rx="0.4" ry="1"/>
	<path class="st6" d="M117.1,255.5c-0.6,0.1-1.1,0.3-1.3,0.4c0,0-1.3,0.7,0.2,1.4"/>
	<path class="st9" d="M118.3,255.4c0,0,0.6-0.1,1.4,0c1,0.2,1.9,0.2,1.4,0.8c-0.5,0.5-1,0.6-1,0.9c-0.1,0.2-0.3,0.6-1.1,0.6
		c-0.7,0-1.8,0-2.5-0.3c0,0-1.3-0.3-1.3-0.7c0-0.4,0.3-0.9,1.8-1.2"/>
	<path class="st9" d="M114.1,252.8c-0.1-0.7,0.4-1.2,0.4-1.2s1-0.9,1.8,0.4h0.2l1,1.3v0.5c0,0,1,1.3,0.7,2.7c0,0-0.2,0.2-0.5,0.2
		c-0.3,0-0.6-0.2-0.6-0.2s0.2-1.4-0.4-2.1c0,0-0.4,0-0.6-0.2c-0.2-0.3-1-1.2-1-1.2l0-0.3c0,0-0.5-0.2-0.6,0.2L114.1,252.8z"/>
	<path class="st7" d="M116.3,252c0,0-1.3,0.2-1.1,1"/>
	<path class="st7" d="M117.6,253.5c0,0-1.2,0-1,0.8"/>
	<path class="st12" d="M121.9,254.2c0.5-0.1,1.1-0.1,1.1-0.1s1.9,0.6,1.7,1.5c0,0-0.1,0.9-0.5,1.3"/>
	<line class="st13" x1="122.5" y1="255" x2="123" y2="255.2"/>
	<path class="st8" d="M114.5,254.7c0.1,0.3,0.7,0.6,0.7,0.6h0c0.2,0.2,0.9,0.5,0.9,0.5c0.4-0.1,1-0.3,1-0.3c0-0.2,0-0.3,0-0.3
		s-1.1-0.3-1.6-0.7c0,0-0.3,0.1-0.5,0.2C114.9,254.7,114.5,254.7,114.5,254.7z"/>
	<polyline class="st8" points="122.7,254.2 122.5,255.1 123.1,255.4 123.4,254.3 	"/>
	<path class="st3" d="M125.7,254.3c0,0,0.7,1,0.3,2.5c-0.4,1.5-2.6,2.1-4.7,0.1c0,0,0.9-0.1,1.1-0.2c0,0,1.4,0.5,1.8,0.1
		c0.4-0.4,0.7-1.5,0.3-1.9"/>
	<path class="st13" d="M122.5,255.1c0,0-0.5-0.2-0.9-0.6"/>
	<path class="st5" d="M317.2,508.8c0,0,9.1,2.4,18.7-5.1"/>
	<path class="st5" d="M328.5,519.5c0,0-3.6-0.3-5-3.3"/>
	<path class="st5" d="M352.6,505.9c0,0,7.6-4.5,11.4-15.1"/>
	<path class="st5" d="M350.6,509.7c0,0,3.3,8.5,3.9,14.6c0,0-1.5-16.9,2.6-22.3"/>
	<path class="st5" d="M232.8,551c0,0-9.6,10.3-36.7,12.9"/>
	<path class="st9" d="M114.8,255.1l0.7,1.1c0,0,0.2-0.3,0.6-0.4C116.1,255.8,115.2,255.5,114.8,255.1z"/>
	<g>
		<path class="st14" d="M84.3,23.9c0,0-1,3,4.9,1.5c0,0,15.1-2.5,16.9-9.9c0,0,2.8-7.3-4.3-12.2c0,0-4.1-2.8-4.6-3
			c0,0-10.2,0.4-14.2,6C83,6.4,78.4,12.1,84.3,23.9z"/>
		<path class="st15" d="M86.4,4.5c-5.4,5.9-2.8,13.6-2.8,13.6s-1,0.3,1.3,4.5l1-0.2c0,0-1-2.7-0.7-3.6"/>
		<path class="st15" d="M85.7,21.8c0,0,2.5,0.5,2.6-0.2c0,0,0.1-1.3-4.7-3.4"/>
		<path class="st15" d="M92.3,20.3c0,0-0.8-0.8,1-2.5l2.7-2.9l1.2-0.4c0,0,2.5,4.4-0.3,5.3L96.2,20l-0.8-4.3"/>
		<line class="st15" x1="94.8" y1="3" x2="96.6" y2="14.6"/>
		<path class="st15" d="M98.5,9.7l0.7,1.8c0,0,3.2-0.8,4.9-2"/>
		<polyline class="st15" points="97.9,5.6 98.1,6.6 103.9,7.2 		"/>
		<path class="st15" d="M97.4,0.8c0,0-0.6,2.2-0.4,3.1"/>
		<polyline class="st15" points="97.9,2.9 98,3.9 102.4,5 		"/>
		<path class="st15" d="M99.2,15l0.8,2.3c0,0,2.8-1.5,4.5-5.6"/>
		<path class="st14" d="M105.3,17.8c0,0,0.8,0.6,1.7,2c0.8,1.4,1.7,3.5,1.7,4.2c0,0.7-0.3,4.8-1.3,5.3c0,0,0.8-4.6,0.1-6.1
			c-0.7-1.5-0.1-1.1-1.1-2.1c-1-1-2.4-1.9-2.4-1.9L105.3,17.8z"/>
	</g>
	<g>
		<g>
			<path class="st16" d="M258.8,465.2c0,0,16.2,23.9,17.3,25.4c5.6,10.5,7.3,22.9,8.3,33l12.4,117c1-0.2,1.8-0.2,1.8-0.2l-12.6-117
				c-1.1-10.3-2.7-22.9-8.6-33.7l0-0.1c-0.2-0.4-17-24.8-17-24.8"/>
		</g>
	</g>
	<g>
		<g>
			<path class="st11" d="M258.8,465.2l-76.6-114.3c0,0-6-10-6.5-10.7c0,0-0.1-0.6-0.2-1.2c-0.1-0.6-0.1-2-0.1-2
				c0.3,0.4,8.5,13.5,8.5,13.5l76.5,114.3"/>
		</g>
	</g>
	<g>
		<circle class="st17" cx="107.6" cy="242.8" r="6.3"/>
		<path class="st18" d="M110.9,239.1c0.1,0,0.2,0.1,0.3,0.1c0,0,0.1,0.1,0.2,0.2c0.1,0.3-0.6,0.8-0.7,0.9c-0.4,0.3-0.7,0.7-1.1,1
			c-0.3,0.2-0.5,0.4-0.7,0.7c-0.3,0.4-1,0.4-0.8-0.3c0-0.1,0.3-0.2,0.3-0.3c-0.2-0.1-0.4-0.2-0.6-0.3c-0.7-0.4-0.8,0.6-1.5-0.4
			c-0.5-0.9,1.2-0.8,1.8-0.7c0.3,0,0.6,0.2,0.9,0.3c0.1,0,0.2,0.1,0.3,0.1c0,0,0,0,0,0c0.4-0.2,0.6-0.6,0.9-0.9
			c0.1-0.1,0.3-0.1,0.4-0.2C110.7,239.3,110.8,239.2,110.9,239.1z"/>
		<path class="st18" d="M103.6,239.2c0.1,0,0.2,0,0.3,0.1c0.4,0.2,0.6,0.6,0.9,0.8c0.3,0.3,0.6,0.6,1,0.8c0.1,0.1,0.3,0.3,0.4,0.4
			c0.2,0.1,0.4,0.2,0.5,0.4c0.1,0.1,0.1,0.3,0.1,0.4c-0.2,0.5-0.8-0.1-1-0.1c-0.4,0.8-0.2,1.8,0.3,2.4c0.1,0.2,0.4,0.2,0.5,0.3
			c0.5,0.3,1.4,0.3,1.9,0c0.2-0.1,0.3-0.3,0.5-0.4c0.2-0.2,0.4-0.3,0.4-0.5c0.1-0.3,0.1-0.7,0.1-1.1c0-0.1-0.1-0.3-0.1-0.4
			c0.1-0.1,0.6-0.6,0.8-0.6c0.1,0,0.2,0.3,0.3,0.5c0,0.1,0.1,0.3,0.1,0.4c0,0,0,0.1,0,0.1c0,0,0,0.6,0,0.7c-0.2,1.3-1,2.3-2.1,2.6
			c-0.9,0.3-2.1,0-2.6-0.4c-0.1-0.1-0.2-0.3-0.3-0.4c-0.2-0.2-0.4-0.2-0.6-0.4c-0.2-0.3-0.6-1.4-0.5-1.9c0-0.5,0.1-0.9,0.3-1.3
			c0.1-0.2,0.2-0.3,0.3-0.5c-0.4-0.3-0.7-0.7-1.1-1.1C103.8,240,103.1,239.3,103.6,239.2z"/>
	</g>
	<path class="st2" d="M117.2,177.6c0,0-0.3,4,10.6,1.6l6.2-1.8l7.5-2.7"/>
	<path class="st2" d="M114,181.1c0,0,1.1,2.1,4.2,2.2l0.1,4.6"/>
	<path class="st2" d="M130.5,171.1c-2.2-0.4-4.1-1.7-4.1-1.7s0.6,3.1,1.5,4.5"/>
	<path class="st2" d="M127.9,173.9c-2.3-0.4-4.3-1.5-4.3-1.5s0.3,2.4,1.2,3.7"/>
	<path class="st2" d="M125.4,176.9c-2.3-0.3-4.3-1.5-4.3-1.5s-0.1,1.2,1.5,2.4c0,0-1.9,0.1-3.4-1.5"/>
	<path class="st2" d="M122.6,177.9c0,0,8.6-4.5,9.3-10"/>
	<path class="st0" d="M125.5,170.5c0,0,5.7,5.6,16.3,8.6c0,0,1,0.5,0.4,0.7c0,0-8.8-1.2-17.1-8.7
		C125.1,171.2,124.8,170.7,125.5,170.5z"/>
	<path class="st2" d="M101.4,142.2c0,0-0.8,2.4,3.6,2.3l10-0.4"/>
	<path class="st2" d="M111,142.2c-8.3,1.6-6.6-0.4-6.6-0.4"/>
	<path class="st2" d="M106.5,140.9c0,0,1.5,1.3,1.2,1.9c0,0,1.2-1.5,1.3-2.8"/>
	<g>
		<path class="st6" d="M295.3,579.4l-0.7,1.2l2,2.5l0.7-0.5l0.4,1.2c0,0,0,0.7,0.3,1.2c0.6,0.9,1.1,1,1.1,1s0.4,1.8,1.1,2.6
			c0.6,0.7,2.8,3.7,3.7,4.5c0.9,0.8,0.9,0.4,1.1,1.2c0.2,0.8,0.5,1.1,1,2c0.4,0.9,0.4,1.5,1.6,2.8c1.2,1.3,2.2,2.3,2.4,2.8
			c0.3,0.5,1.6,2,1.9,2.2c0.3,0.1,1.1,0.6,1.1,0.6s1,1.1,1.3,1.5c0.3,0.4,2.3,1.8,2.3,1.8s1.1,1.8,1.4,1.8c3.5,0.6,9,9,9,9"/>
		<path class="st6" d="M324.4,593"/>
		<path class="st6" d="M320.2,595c0,0-10,3.8-6.7,4.2"/>
		<path class="st6" d="M314.8,595.3c0,0-8.8,0.3-7.7,0.8c1.1,0.5,2.1,1,2.1,1"/>
		<path class="st6" d="M295.3,579.5c0,0,0.8,1.3,1.7,2.1c1,0.9,1.5,2.3,3.3,1c1.7-1.3,4.6-7.1,6.4-6.4c1.8,0.7,2.2,0.8,2.7,1.5
			c0.5,0.6,1.9,2.4,3,2.9c1,0.6,2,0.4,2.3,1.4c0.3,1.1,1.1,1.8,2.2,2.8c1.1,1,3.1,4,3.5,4.5c0.3,0.5,1.2,2.1,1.2,2.1l3.3,3.5
			c0,0,4,4.4,5.3,4.9"/>
	</g>
	<g>
		<path class="st0" d="M235.1,722.5c0,0,0.1,1.9-0.3,3.2c0,0,1-1.3,1.9-3.1"/>
		<g>
			<path class="st0" d="M242.2,723L242.2,723c0.1,0,0.1,0,0.1,0c0,0,0,0,0.1,0c0,0,0,0,0.1,0l0,0l0,0l0,0l0,0l0,0l0,0l0.5,0.5l0,0
				l0,0l0,0h0l0,0l0,0l0,0l0,0l0,0l0,0l0,0l0,0l0,0l0,0l0,0l0,0l0,0l0,0l0,0l0,0l0,0l0,0l0,0l0,0l0,0l0,0l0,0l0,0l0,0l0.4,0.4l0,0
				l0,0l0.1,0l0.1,0l0.1,0l0.1,0l0.1,0l0.1,0l0.1,0l0.1,0l0.1,0l0.1,0l0.1,0l0.1,0.1l0.1,0l0.1,0l0.1,0l0.1,0l0,0l0,0l0,0l0,0l0,0h0
				l0,0l0,0l0,0l0.7,0.5l0,0l0,0l0,0l0,0l0,0l0,0c0,0,0,0,0.1,0.1c0,0,0,0.1,0.1,0.1c0,0,0,0.1,0.1,0.1c0,0,0,0.1,0,0.1
				c0,0,0,0.1,0,0.1c0,0,0,0.1,0,0.1c0,0,0,0.1,0,0.1c0,0,0,0.1,0,0.1l0,0.1v0.1l0,0.1l0,0.1l0,0.1l0,0.1l0.1,1.8l0.1,0l0.1,0l0.1,0
				l0.1,0l0.1,0l0.1,0l0.1,0l0.1,0l0.1,0l-0.1,0l0,0l0,0l0,0l0,0l0,0l0,0l0,0v0v0l0,0c0,0,0.8-1.9,0.8-1.9c0,0,0-0.1,0-0.1
				c0,0,0,0,0,0c0,0,0,0,0,0c0,0,0,0,0.1,0c0,0,0,0,0.1,0l0,0c0.6,0.1,1.7,0.2,2.1,0.3l0.1,0l0.2,0l0.2,0l0.2,0l0.2,0l0.2,0l1.3,0
				l0.2,0l0.1,0c0,0,0.1,0,0.1,0c0,0,0,0,0.1,0c0,0,0,0,0.1,0c0,0,0,0,0.1,0c0,0,0,0,0.1,0c0,0,0,0,0,0c0,0,0,0,0,0c0,0,0,0,0,0
				c0,0,0,0,0,0c0,0,0,0,0,0c0,0,0,0,0,0c0,0,0,0,0,0c0,0,0,0,0,0c0,0,0,0,0,0c0,0,0,0,0,0c0,0,0,0,0,0c0,0,0,0,0,0c0,0,0,0,0,0
				c0-0.1,0.1-0.1,0.1-0.2c0-0.1,0.1-0.1,0.1-0.2c0-0.1,0.1-0.2,0.1-0.2c0-0.1,0.1-0.2,0.1-0.3c0-0.1,0.1-0.2,0.1-0.3
				c0-0.1,0-0.2,0.1-0.3c0-0.1,0-0.2,0.1-0.4l0-0.2c0.1-0.4,0.2-0.5,0.5-0.4c0.1,0,0.4,0.1,0.5,0.1c0,0,0.1,0,0.1,0c0,0,0.1,0,0.1,0
				c0,0,0,0,0.1-0.1c0,0,0.1,0,0.1-0.1c0,0,0,0,0,0l0,0c0,0,0,0,0,0c0,0,0,0,0,0c0,0,0,0,0,0c0,0-0.1-0.1-0.1-0.1c0,0,0-0.1-0.1-0.1
				c0,0,0-0.1-0.1-0.1c0,0,0-0.1,0-0.1c0,0,0,0,0,0c0,0,0-0.1,0-0.1c0,0,0-0.1,0-0.1c0,0,0,0-0.1,0.1c0,0,0,0-0.1,0.1
				c0,0,0,0-0.1,0.1c0,0,0,0.1-0.1,0.1c0,0,0,0.1-0.1,0.1c0,0,0,0.1,0,0.1l0,0c0,0.1-0.1,0-0.1,0c0,0,0,0,0,0c0,0,0,0-0.1,0
				c-0.1,0-0.3-0.1-0.5-0.1c-0.3-0.1-0.6,0.1-0.9,0.3c-0.1,0.1-0.2,0.1-0.3,0.1c-0.1,0-0.2,0.1-0.3,0.1c0,0-0.1,0-0.1,0l-1.5,0.2
				c0,0,0,0,0,0c-0.1,0-0.1,0.1-0.2,0.1c-0.1,0-0.1,0.1-0.2,0.1c-0.1,0-0.1,0.1-0.2,0.1c0,0,0,0,0,0c0,0,0,0,0,0c0,0,0,0,0,0
				c0,0,0,0,0,0c0,0,0,0-0.1,0c0,0,0,0-0.1,0c0,0,0,0-0.1,0c0,0,0,0-0.1,0c0,0,0,0-0.1,0c0,0-0.1,0-0.1,0c0,0-0.1,0-0.1,0
				c-0.3-0.1-3.1-0.9-4.5-1.1c0,0-0.1,0-0.1,0c-0.1,0-0.2,0-0.3-0.1c0,0-0.1,0-0.1,0c0,0-0.1,0-0.1,0c0,0-0.1,0-0.1,0
				c0,0-0.1,0-0.1,0c0,0-0.1,0-0.1,0L242.2,723z M243.7,724.5L243.7,724.5L243.7,724.5L243.7,724.5L243.7,724.5l0.1,0l0,0l0,0l0,0
				l0,0l0,0l0,0l0,0l0,0l0,0l0,0l0,0l0,0l0.4,0.4l0,0l0,0l0,0l0,0l0,0l0,0l0,0l0,0l0,0l0,0l0,0l0,0l0,0l0,0l0,0l0,0l0,0L243.7,724.5
				L243.7,724.5z"/>
			<path class="st1" d="M248.3,727.5"/>
		</g>
		<path class="st0" d="M235.1,720.4l-0.1-0.3l0,0v0h0l0,0l0,0l0,0l0,0h0h0h0h0h0l0,0h0l0,0l0.1,0l0,0l0,0l0,0l0,0l0,0l0,0l0,0l0,0
			l0,0v0l-0.5-1.2l0,0c0,0,0,0,0-0.1c0,0,0-0.1-0.1-0.1c0,0-0.1,0-0.1,0c0,0-0.1,0-0.1,0l0,0l0,0l0,0h0l0,0l0,0l-0.3,0.2l0,0l0,0
			l0,0l0,0l-0.1,0l-0.1,0h-0.1h-0.1l-0.1,0l0,0c0,0,0,0-0.1,0c0,0,0,0-0.1,0c0,0,0,0-0.1,0c-0.1,0-0.1,0-0.2,0c-0.1,0-0.1,0-0.2,0.1
			c-0.1,0-0.1,0.1-0.2,0.1c0,0,0,0.1-0.1,0.1l0.2,0.1l0,0l0,0l0,0l0.1,0l0.1,0l0.1,0l0.1,0l0.1,0l0.1,0l0.1,0l0.1,0l0.1,0l0.1,0
			l0.1,0l0,0l0,0l0,0l0,0h0h0l0,0l0,0l0,0l0,0l0.1,0.2l0,0l0,0l0,0h0l0,0l0,0l0,0l0,0l0,0l0,0l-0.1,0l-0.1,0l-0.1,0l-0.1,0l-0.1,0
			l-0.1,0l-0.1,0l-0.1,0l-0.1,0l-0.5-0.2l-0.1,0l-0.1,0l-0.1,0l-0.1,0l-0.1,0l-0.1,0l-0.1,0l-0.1,0l-0.1,0c-0.2-0.1-0.4-0.2-0.7-0.3
			c-0.2-0.1-0.4-0.2-0.7-0.3c-0.2-0.1-0.4-0.2-0.6-0.4c-0.2-0.1-0.4-0.3-0.6-0.4c-0.2-0.1-0.3-0.2-0.5-0.4c-0.1-0.1-0.3-0.2-0.4-0.4
			c-0.1-0.1-0.2-0.2-0.4-0.4c-0.1-0.1-0.1-0.1-0.2-0.2c0-0.1-0.1-0.1-0.1-0.2c-0.1-0.1-0.2-0.2-0.2-0.3l0,0c0,0,0,0,0-0.1
			c0,0,0,0-0.1,0c0,0,0,0,0,0c-0.3-0.2-0.7-0.3-1-0.5c-0.3-0.2-0.7-0.4-1-0.5c0,0-0.6-0.3-0.9-0.4c-0.2-0.1-0.3-0.1-0.3-0.1
			c-0.1,0-0.1,0-0.2,0c-0.1,0-0.1,0-0.2,0c0,0-0.1,0-0.1,0c0,0,0,0-0.1,0.1c0,0,0,0,0,0c0,0,0,0,0,0.1c0,0,0,0.1,0,0.1
			c0,0,0,0.1,0,0.1c0,0,0,0.1,0,0.1c0,0,0,0.1,0,0.1c0,0,0,0,0,0c0,0.1,0,0.1,0,0.1l0.1,0.3c0.1,0.2,0.2,0.3,0.3,0.5
			c0.1,0.2,0.2,0.3,0.4,0.5c0.1,0.2,0.3,0.4,0.4,0.5c0.2,0.2,0.3,0.4,0.5,0.5c0.2,0.2,0.4,0.4,0.5,0.6c0,0,0.1,0.1,0.1,0.1
			c0,0,0.1,0.1,0.1,0.1c0,0,0.1,0.1,0.1,0.1c0,0,0,0,0,0.1c0,0,0,0,0,0.1c0,0,0,0,0,0.1c0,0,0,0.1,0,0.1c0,0.1,0,0.1,0,0.2
			c0,0.1,0,0.1,0,0.2c0,0.1,0,0.1-0.1,0.2c0,0.1-0.1,0.1-0.1,0.1c-0.1,0.1-0.1,0.1-0.2,0.2c-0.1,0.1-0.1,0.1-0.2,0.2
			c-0.1,0-0.1,0.1-0.2,0.1c-0.1,0.1-0.2,0.1-0.3,0.1c-0.1,0-0.2,0.1-0.3,0.1c-0.1,0-0.2,0.1-0.3,0.1c-0.1,0.1-0.2,0.1-0.3,0.1
			c-0.1,0-0.2,0.1-0.3,0.1c-0.1,0-0.2,0.1-0.3,0.1c-0.1,0.1-0.2,0.1-0.3,0.2c-0.1,0.1-0.2,0.1-0.4,0.2c-0.1,0.1-0.3,0.1-0.4,0.2
			l0.9,0.1l0-0.1c0,0,0,0,0,0c0,0,0,0,0,0c0,0,0,0,0,0c0,0,0,0,0,0c0,0,0,0,0,0c0,0,0,0,0,0c0,0,0,0,0,0c0,0,0,0,0,0
			c0.3,0,0.5,0,0.8-0.1c0.3,0,0.6,0,0.8-0.1c0.3,0,0.6-0.1,0.8-0.1c0,0,0,0,0,0c0,0,0,0,0,0c0,0,0,0,0.1,0l0,0c0,0,0,0,0,0
			c0,0,0,0,0,0l0,0c0,0,0,0,0,0c0,0,0,0,0,0.1c0,0,0,0,0,0c0,0,0,0,0,0c0,0.1-0.1,0.1-0.1,0.2c0,0.1-0.1,0.2-0.1,0.2
			c0,0.1-0.1,0.2-0.1,0.2c0.1,0,0.1-0.1,0.2-0.1c0.1,0,0.1-0.1,0.2-0.1c0.1,0,0.1-0.1,0.2-0.1c0,0,0,0,0,0c0,0,0,0,0,0
			c0,0,0,0,0.1,0c0,0,0,0,0,0c0,0,0,0,0,0c0,0,0,0,0,0c0,0,0,0,0,0l0,0c0,0,0,0,0,0c0,0,0,0,0,0c0.1,0.3,0.2,0.6,0.3,0.8
			c0.1,0.3,0.2,0.6,0.3,0.8c0.1,0.2,0.2,0.5,0.3,0.7c0,0,0,0.1,0.1,0.1c0-0.1,0.1-0.2,0.1-0.2c0.1-0.1,0.1-0.2,0.2-0.2
			c0.1-0.1,0.1-0.1,0.2-0.2l-0.2,0c0,0,0,0,0,0c0,0,0,0,0,0c0,0,0,0,0,0c0,0,0,0,0,0c0,0,0,0,0,0c0,0,0,0,0,0c0,0,0,0,0,0
			c0,0,0,0,0,0c0,0,0,0,0,0c0,0,0,0,0-0.1c0,0,0-0.1,0-0.1c0,0,0-0.1,0-0.1c0,0,0-0.1,0-0.1c0,0,0-0.1,0-0.1c0,0,0-0.1,0.1-0.1
			c0,0,0-0.1,0.1-0.1c0,0,0.1-0.1,0.1-0.1c0,0,0.1-0.1,0.1-0.1c0,0,0.1-0.1,0.1-0.1c0,0,0.1,0,0.1-0.1c0,0,0,0,0,0
			c-0.1,0-0.2,0-0.3-0.1c0,0-0.1,0-0.1,0c0,0,0,0,0,0c0,0,0,0,0,0c0,0,0,0,0,0c0,0,0,0,0,0c0,0,0,0,0,0l0,0l0,0c0,0,0,0,0,0l0,0
			c0,0,0-0.1,0-0.1c0,0,0-0.1,0-0.1c0,0,0-0.1,0-0.1c0,0,0-0.1,0-0.1c0,0,0-0.1,0-0.1c0,0,0,0,0,0c0,0,0,0,0,0c0,0,0-0.1,0-0.1
			c0-0.1,0.1-0.2,0.1-0.2c0,0,0-0.1,0.1-0.1c0,0,0-0.1,0.1-0.1c0-0.1,0.1-0.2,0.1-0.2c0,0,0.1-0.1,0.1-0.1c0,0,0-0.1,0.1-0.2
			c0-0.1,0-0.1,0.1-0.2c0-0.1,0-0.1,0-0.2c0,0,0,0,0-0.1c0,0,0,0,0-0.1c0,0,0,0,0-0.1c0,0,0,0,0-0.1l0,0c0,0,0,0,0,0c0,0,0,0,0,0
			c0,0,0,0,0,0c0,0,0,0,0-0.1c0,0,0,0,0,0c0,0,0,0,0,0c0,0,0,0,0,0c0,0,0,0,0,0c0,0,0,0,0.1,0c0,0,0,0,0.1,0c0,0,0,0,0.1,0
			c0,0,0.1,0,0.1,0c0,0,0.1,0,0.1,0c0,0,0.1,0,0.1,0c0.1,0,0.2,0,0.2,0.1c0.1,0,0.2,0.1,0.3,0.1c0.1,0,0.2,0.1,0.3,0.1
			c1.5,0.8,4.3,2.2,6.4,3.1c0.1,0,0.1,0,0.1,0.1c0,0,0.1,0,0.1,0.1c0,0,0.1,0.1,0.1,0.1c0,0,0,0.1,0.1,0.1c0,0,0,0,0,0l0,0l-0.5-1.2
			l0,0l0,0l0,0l0,0l0,0l0,0l0,0l0,0l0,0l-0.1,0l-0.1,0l0,0l0,0l0,0l0,0h0l0,0h0l0,0l0,0h0l0,0l0,0l0,0l-0.1-0.3
			c0.1-0.1,0.2-0.2,0.1-0.4C235.6,720.8,235.4,720.6,235.1,720.4z M229,718.5C229,718.5,229,718.5,229,718.5
			C229,718.5,229,718.5,229,718.5C229,718.5,229,718.5,229,718.5C229,718.5,229,718.5,229,718.5c0.1,0,0.1,0,0.1,0c0,0,0,0,0.1,0
			c0,0,0,0,0.1,0c0,0,0,0,0.1,0c0,0,0,0,0.1,0c0,0,0.1,0,0.1,0.1c0.1,0,0.1,0.1,0.1,0.1c0.3,0.2,0.5,0.3,0.8,0.5
			c0.1,0.1,0.3,0.1,0.4,0.2c0.1,0.1,0.3,0.1,0.4,0.2c0.3,0.1,0.6,0.3,0.8,0.3c0.2,0.1,0.7,0.3,0.8,0.3c0.1,0.1,0.5,0.2,0.5,0.2
			l0.1,0l0.1,0l0.1,0l0.1,0l0.1,0l0.1,0.1l0.1,0l0.1,0.1l0.1,0.1l0,0l0,0l0,0l0,0l0,0l0,0l0,0l0,0l0,0l0,0l0,0l0,0l0.1,0.2v0l0,0v0
			h0l0,0l0,0h0h0l0,0l-0.1,0l-0.1,0l-0.1,0l-0.1,0l-0.1,0h-0.1l-0.1,0l-0.1,0l-0.1,0l-0.1,0l-0.1,0l-0.1,0l0,0l0,0l0,0l0,0
			c0,0-1.3-0.6-1.9-0.9c-0.4-0.2-0.8-0.4-1.2-0.6c-0.4-0.2-0.8-0.4-1.2-0.7c-0.1,0-0.1-0.1-0.1-0.1c0,0-0.1-0.1-0.1-0.1
			c0,0-0.1-0.1-0.1-0.1c0,0-0.1-0.1-0.1-0.1c0,0,0,0,0,0c0,0,0,0,0,0C229,718.6,229,718.6,229,718.5C229,718.6,229,718.6,229,718.5
			C229,718.6,229,718.6,229,718.5C229,718.5,229,718.5,229,718.5z M224.7,716.4C224.7,716.4,224.7,716.4,224.7,716.4
			C224.7,716.4,224.7,716.4,224.7,716.4C224.7,716.4,224.7,716.4,224.7,716.4C224.8,716.4,224.8,716.4,224.7,716.4
			C224.8,716.4,224.8,716.4,224.7,716.4C224.8,716.4,224.8,716.4,224.7,716.4c0.1,0,0.1,0,0.1,0l0.3,0.2l0.3,0.2l0.3,0.2l0.3,0.2
			l0.3,0.2l0.3,0.2l0.3,0.2l0.3,0.2l0.1,0c0.1,0,0.4,0.2,0.5,0.3c0,0,0,0,0.1,0c0,0,0,0,0.1,0c0,0,0,0,0.1,0.1c0,0,0,0,0.1,0.1
			c0,0,0,0,0,0c0,0,0,0,0,0c0,0,0,0,0,0.1c0,0,0,0,0,0c0,0,0,0,0,0c0,0,0,0,0,0c0,0,0,0,0,0c0,0,0,0,0,0c0,0,0,0,0,0c0,0,0,0,0,0
			c0,0,0,0,0,0c0,0,0,0,0,0c0,0,0,0,0,0c0,0,0,0-0.1,0c0,0,0,0-0.1,0c0,0-0.1,0-0.1,0c0,0,0,0,0,0c-0.2-0.1-0.4-0.2-0.5-0.2
			c0,0,0,0,0,0c0,0,0,0,0,0c0,0,0,0,0,0c0,0,0,0,0,0c0,0,0,0,0,0c0,0,0,0,0,0c0,0,0,0,0,0c0,0,0,0,0,0c0,0,0,0,0,0
			c0,0.1,0.3,0.4,0,0.4c0,0,0,0,0,0c0,0-0.1,0-0.1-0.1c0,0,0,0-0.1,0c0,0-0.1,0-0.1,0c0,0-0.1-0.1-0.1-0.1c0,0,0,0-0.1,0
			c0,0,0,0-0.1-0.1c0,0-0.1-0.1-0.1-0.1c-0.1-0.1-0.2-0.2-0.3-0.3c-0.1-0.1-0.2-0.2-0.3-0.3c-0.1-0.1-0.2-0.2-0.3-0.3
			c-0.1-0.2-0.3-0.3-0.4-0.4c-0.1-0.1-0.2-0.3-0.4-0.4C225,716.8,224.9,716.6,224.7,716.4C224.8,716.5,224.7,716.5,224.7,716.4
			C224.7,716.4,224.7,716.4,224.7,716.4C224.7,716.4,224.7,716.4,224.7,716.4C224.7,716.4,224.7,716.4,224.7,716.4
			C224.7,716.4,224.7,716.4,224.7,716.4z M224.3,715.3C224.3,715.3,224.3,715.3,224.3,715.3C224.3,715.3,224.3,715.3,224.3,715.3
			c0.1-0.1,0.1-0.1,0.1-0.1c0,0,0.1,0,0.1,0c0,0,0.1,0,0.1,0c0.1,0,0.1,0,0.2,0c0,0,0,0,0,0c0.3,0,0.6,0.1,0.7,0.2
			c0.1,0,0.2,0.1,0.3,0.1c0,0,0.1,0,0.1,0c0,0,0.1,0,0.1,0.1c0,0,0.1,0.1,0.1,0.1c0,0,0.1,0.1,0.1,0.1c0,0,0.1,0.1,0.1,0.1
			c0,0,0,0,0,0c0,0,0,0,0,0.1c0,0,0,0,0,0c0,0,0,0,0,0c0,0,0,0,0,0.1c0,0,0,0.1,0,0.1c0,0,0,0,0,0c0,0,0,0,0,0c0,0,0,0,0,0.1
			c0,0,0,0,0,0.1c0,0,0.1,0.1,0.1,0.1c0,0,0.1,0.1,0.1,0.1c0.1,0,0.1,0.1,0.2,0.1c0.1,0,0.1,0.1,0.2,0.1c0,0,0.1,0,0.1,0.1
			c0,0,0,0,0.1,0c0,0,0,0,0,0c0,0,0,0,0,0c0,0,0,0,0,0c0,0,0,0,0,0c0,0,0,0,0,0c0,0,0,0,0,0c0,0,0,0,0,0c0,0,0,0,0,0c0,0,0,0,0,0
			c0,0,0,0,0,0c0,0,0,0,0,0l0,0c0,0,0,0,0,0c0,0,0,0,0,0c0,0,0,0,0,0c0,0,0,0,0,0h0c0,0,0,0,0,0c0,0,0,0,0,0
			c-0.6-0.2-1.6-0.8-1.6-0.8l-0.2-0.1l-0.3-0.2l-0.3-0.2l-0.3-0.2l-0.3-0.2c0,0,0,0-0.1,0c0,0,0,0-0.1-0.1c0,0,0,0-0.1-0.1
			c0,0,0,0,0,0c0,0,0,0,0,0c0,0,0,0,0,0C224.3,715.4,224.3,715.4,224.3,715.3C224.3,715.4,224.3,715.4,224.3,715.3
			C224.3,715.4,224.3,715.3,224.3,715.3z"/>
		<path class="st0" d="M254.7,722.3c0,0-0.1,1.1,1.3,0.6c0,0-0.1,1.2,1.1,0.7c0,0,0.1,0.7,1.6,1.4l-6.1-1.3"/>
		<path class="st0" d="M222.3,714.4c0,0.1-0.1,0.1,0,0.2c0.3,0.4,0.9,1.1,1.6,1.7c0,0-0.1,0-0.2,0.1c0,0-0.1,0-0.1,0h0
			c-0.1,0-0.1,0-0.2,0c0,0-0.1,0-0.1,0l0,0l-1.1-0.4l0,0l0,0l-1.3-0.5c0,0-0.1,0-0.1,0c0,0-0.1,0-0.1,0c0,0-0.1,0-0.1,0.1
			c0,0,0,0,0,0.1c0,0,0,0,0,0l0,0c0,0,0,0,0,0c0,0,0,0,0,0c0,0,0,0,0,0l0,0l-0.6-0.2c0,0,0,0,0,0c0,0,0,0,0,0c0,0,0,0,0,0
			c0,0,0,0,0,0c0,0,0,0,0,0l0,0.2l0,0c0,0,0,0,0,0c0,0,0,0,0,0c0,0,0,0,0,0l0,0l-0.5-0.2c0,0,0,0,0,0c0,0,0,0,0,0c0,0,0,0,0,0
			c0,0,0,0,0,0c0,0,0,0,0,0l0,0.2l0,0c0,0,0,0,0,0c0,0,0,0,0,0c0,0,0,0,0,0h0l-0.5-0.2c0,0,0,0,0,0c0,0,0,0,0,0c0,0,0,0,0,0
			c0,0,0,0,0,0c0,0,0,0,0,0l0,0.2l0,0c0,0,0,0,0,0c0,0,0,0,0,0c0,0,0,0,0,0l0,0l-0.5-0.2h0h0l0,0l0,0l0,0h0l0,0h0l-0.7,0.1l0.1-0.3
			l1-0.9c0,0,0.2-0.1,0.2-0.1c0,0,3.3-0.4,3.4-0.4c0.4-0.1,0.4,0.1,0.7,0.1"/>
		<path class="st0" d="M223.8,716.6c0,0,0.5,0.5,0.5,0.5c0.3,0.4,0.7,0.9,1.4,1.5c0,0-1.1,0.3-1.1,0.4c0,0-0.1,0-0.1,0l0,0
			c-0.1,0-0.1,0-0.2,0c0,0-0.1,0-0.1,0l0,0l-1.1-0.4l0,0h0l-1.3-0.5c0,0-0.1,0-0.1,0c0,0-0.1,0-0.1,0c0,0-0.1,0-0.1,0.1
			c0,0,0,0,0,0.1c0,0,0,0,0,0l0,0c0,0,0,0,0,0c0,0,0,0,0,0c0,0,0,0,0,0l0,0l-0.6-0.2c0,0,0,0,0,0c0,0,0,0,0,0c0,0,0,0,0,0
			c0,0,0,0,0,0c0,0,0,0,0,0l0,0.2l0,0c0,0,0,0,0,0c0,0,0,0,0,0c0,0,0,0,0,0l0,0l-0.5-0.2c0,0,0,0,0,0c0,0,0,0,0,0c0,0,0,0,0,0
			c0,0,0,0,0,0c0,0,0,0,0,0l0,0.2l0,0c0,0,0,0,0,0c0,0,0,0,0,0c0,0,0,0,0,0h0l-0.5-0.2c0,0,0,0,0,0c0,0,0,0,0,0c0,0,0,0,0,0
			c0,0,0,0,0,0c0,0,0,0,0,0l0,0.2l0,0c0,0,0,0,0,0c0,0,0,0,0,0c0,0,0,0,0,0l0,0l-0.5-0.2l0,0l0,0l0,0h0l0,0h0h0h0l-0.7,0.1l0.1-0.3
			l1-0.8c0,0,0.2-0.1,0.2-0.1c0,0,3.3-0.4,3.4-0.4c0.4-0.1,1.1-0.2,1.3-0.2"/>
		<g>
			<path class="st6" d="M258.5,714.7c0,0-1.7,3-2.5,3.4c0,0,0.2,0.9-0.3,1.5c-0.5,0.7-1.5,3.1-1.5,3.1s0.3,0.3-0.2,1.3
				c-0.5,1-1.8,1.9-1.8,1.9s-3.3,0.7-8.6-1.3l0-1.2c0,0-3.1,0.5-3.4,0.5c-0.3,0-6.2-0.1-10.9-2.7c-4.7-2.6-6.5-5.3-7.4-7.2l0.6-1.4
				l0.8,0.3c0,0,0.6-1,0.7-1.2c0.1-0.2,0.5-0.9,0.7-0.9c0.2-0.1,0.9-0.9,2.3-1.1c1.4-0.2,6.6,0.3,6.6,0.3l2.5-0.8l0.2,0.1
				c0,0,1.7-1,1.9-1c0.2,0.1,2.7-0.9,2.9-1.3c0,0-0.4-0.6,1.9-2.5"/>
			<path class="st7" d="M222.5,712.5c0,0,1.4,4.8,8.5,7.7c7.2,2.9,10.8,2.7,12.3,2.3c3.7-1.1,10.9,2.1,10.9,0.6"/>
		</g>
		<path class="st2" d="M228.6,709.6c0,0-1.8,3.9,10.2,6.7l7,1.3l8.7,1"/>
		<path class="st2" d="M224,711.6c0,0,0.4,2.4,3.5,3.9l-1.6,4.1"/>
		<path class="st2" d="M244.6,710.3c-2.1-1.4-3.6-3.4-3.6-3.4s-0.5,3-0.2,4.7"/>
		<path class="st2" d="M240.8,711.6c-2.2-1.4-3.8-3.3-3.8-3.3s-0.6,2.2-0.2,3.8"/>
		<path class="st2" d="M236.8,712.6c-2.2-1.4-3.4-2.7-3.4-2.7s-0.5,1,0.6,2.8c0,0-2-0.8-2.9-2.9"/>
		<path class="st2" d="M234,712.7c0,0,10.5,0,13.3-4.6"/>
		<path class="st0" d="M239.7,707.5c0,0,4.8,7.6,14.5,15.2c0,0,0.8,0.9,0.2,0.8c0,0-9.7-5.1-15.3-15.6
			C239.1,707.9,239,707.3,239.7,707.5z"/>
	</g>
	<path class="st0" d="M283.9,655c0,0,0.1,1.9-0.3,3.2c0,0,1-1.3,1.9-3.1"/>
	<path class="st6" d="M244.3,706.5l-2.1-3.2c0.3-8.6,5.1-25.2,5.1-25.2c0.6-11.6,23.1-15.5,23.1-15.5c10.8-1.9,25.1-4.2,25.1-4.2
		c-0.6-0.8-7.1-1.5-7.1-1.5c-2.3-0.4-9.3-3.3-9.3-3.3c-0.2-0.8-0.2-1.5-0.1-2.1c0.3-3,3.2-3.4,3.2-3.4c4.7-1,6.4-2.9,6.4-2.9
		l-0.3-2.7c-2.7-10.4-1-17.1-1-17.1c3.4-1.6,2.9-3.9,2.9-3.9c-0.6-6,6.6-10.7,6.6-10.7c4.9-1,10.4,4.2,10.4,4.2c4.4,3.5,4,5,4,5
		c4.6,3.1,4.4,5.5,4.4,5.5c0.6-2.5,6.5-7.2,6.5-7.2c1.7-1.4,3.6-4,3.6-4c-0.1-0.8,0.8-1.6,0.8-1.6c0.2-0.3,0-0.8,0-0.8l0.3-0.2
		l0.2-0.6c0.4-0.2,0.6-1.1,0.6-1.1c-0.4-0.2-0.7-1.9-0.7-1.9c-0.1-0.6,0.7-1.5,0.7-1.5c1.2-0.1,2.2-0.4,2.2-0.4c0.8-0.5,0.6-2,0.6-2
		c-0.6-7.5,5-8.1,5-8.1c13.5-7.3,18.7,3.9,18.7,3.9c9.7,4.6,5.2,9.8,5.2,9.8c0.2,3.3-0.4,4.6-0.4,4.6s-2.3,2.9-3.1,3.2
		c-0.8,0.3-0.5,2.6-0.5,2.6c2.5,2.9-3.1,6.8-3.1,6.8c-0.4,1,0,2.1-0.5,3.4c-1,3.3-2.7,6.9-2.7,6.9c0,2.4-3.2,6.3-3.2,6.3
		c-0.9,3.2-4.8,8.3-4.8,8.3c-1.1,1.4-4,5.3-4,5.3c-5.3,13.4-19.8,20.4-19.8,20.4c-9.6,6.3-15.3,3.7-15.3,3.7l-1.4-0.1l-2.7,1.2
		c-0.6,0.2-1.7-0.1-2.6-0.3c-0.2,0-1,0.7-1.3,0.6c-0.7-0.1-0.5-0.7-0.6-0.6c-2.7,0.9-5.1,1.3-5.1,1.3c-1.1,1.2-8.5-0.9-8.5-0.9
		c-1.6,1-8.8,0.3-8.8,0.3c-2.1,0.2-3.9,5.7-3.9,5.7c0.3,2.7-2.3,4.8-2.3,4.8c0.3,2.5-3.9,21.8-3.9,21.8c-0.7,0.9-3.6,1.2-3.6,1.2
		S248.1,714.5,244.3,706.5z"/>
	<path class="st7" d="M357.4,617.9c0,0-19.9,2.1-25-11.3"/>
	<path class="st7" d="M315.6,625.4c0,0-4.2,6.8-7.6,8.7c0,0-9.9,9.3-10.4,14c0,0-0.1,10.3-2.1,10.3"/>
	<path class="st7" d="M298.1,658.4c0,0,0.7,3.1,3.1,6.3c0.8,1.1,2.5,1,3.7,2c1.4,1.2,2.3,3.3,4.4,4c0.8,0.3,3-0.6,3.9-0.4
		c2.3,0.4,3.7,1.4,6.8,0.7c1.3-0.3,2.6-1.4,4.1-1.9c2.1-0.7,4.4-1,6.9-2.3"/>
	<path class="st7" d="M325.6,614.2c0,0-2.3,4,3.3,4.4l8.2,3.1"/>
	<g>
		<path class="st7" d="M351.3,621.3l-1.2,0.8l-1.2,0.7l0.3-0.9l-0.7,0.3l-0.9,0.2l-0.3-0.7l-0.7,0.4l-0.8-0.3l-0.4-0.1l-0.7-0.2
			l0.6,0l0.1-0.6l-0.9-0.5c0,0,0.4-1.1-0.2-1.9"/>
		<path class="st7" d="M344.6,621.5l-3.8-1.2c0,0,1.2,0,1.6-0.5l2.1,0.6"/>
		<path class="st7" d="M342.3,619.8c0,0,0.5-1.1-0.3-2.1c-0.8-1-2-2.5-2.7-2"/>
		<path class="st7" d="M339.4,619.5c0,0,4.2,0.4,1-2.9c0,0-0.8-0.4-1.2,0"/>
		<path class="st6" d="M356.5,620.6c0,0-3.7,1.3-7.1,0.5c-3.3-0.8-4.2-2.2-6.8-3.8c-2.6-1.6-6.1-4-7.7-5.5c-1.6-1.4-5.5-6.1-5.1-9.9
			c0.4-3.8,1.9-5.3,4.6-6.2c0,0,3.8-3.3,7.2-3.7c3.5-0.4,9.4,0.3,14.6,3.3c5.2,3,7.6,6.1,7,11c0,0,0.8,3.8,0.3,5.6
			C362.9,613.7,362.3,618.6,356.5,620.6z"/>
		<path class="st7" d="M345.4,607c0,0-1.7-0.4-2.1-0.7c-0.4-0.3-0.7-0.7-0.2-1c0.5-0.3,0.9-0.2,1.5,0.3
			C345.3,606,346.6,607.3,345.4,607z"/>
		<path class="st7" d="M341.8,604.5c0,0-2.8,0.6-3.1,0.2c-0.3-0.4,0.6-1.9,0.6-1.9s0.3-0.6,1.2-0.1
			C341.6,603.2,343.2,604.2,341.8,604.5z"/>
		<path class="st7" d="M337.5,604.6c0,0,0.6-2.5,0.6-2.7c0-0.2-0.1-1-1-1c-0.9,0-1.3,0.2-1,1C336.4,602.6,337,605.6,337.5,604.6z"/>
		<path class="st7" d="M336,605.1c0,0-0.4-2-1.1-2.8c-0.7-0.8-1.2-0.6-1.6,0.3c-0.4,0.9-0.8,1.8-0.4,2.5c0.3,0.7,1.3,1.2,1.7,1.2
			C335,606.3,336.3,606.2,336,605.1z"/>
		<path class="st7" d="M349.9,612.4c0,0,11.9,1.2,13.3-6.1"/>
		<path class="st7" d="M352.9,616.4c0,0-1.9-0.7-2.6-0.8c-0.8-0.2-2.4,0.3-1.6,1.6c0.8,1.4,1.1,1.6,2.4,1.1
			C352.4,617.9,354.4,616.9,352.9,616.4z"/>
		<path class="st7" d="M356.3,617.2c0,0,5.3,0.8,7.3-6"/>
		<path class="st7" d="M339,614.9c0,0-1.1,0.8-1.2,0.9c-0.1,0-0.7,0.3-0.7,0.3l-0.3-0.4l-1.2-2.4"/>
		<path class="st6" d="M334.2,611.1l0.4,8.7c-0.9,0.2-0.8,0.7-0.8,1.2c0,0.5,1,1,1.8,1.3c0.8,0.3,2,0.4,2-0.6c0-1-1.8-1.8-1.8-1.8
			l-0.3-7.6L334.2,611.1z"/>
	</g>
	<line class="st6" x1="326.8" y1="611.5" x2="327.9" y2="613.6"/>
	<path class="st6" d="M328.3,610.1c0,0,0.4,0.3,0.7-0.6"/>
	<path class="st7" d="M352.5,621.3c-3.7,4-12.4,1-12.4,1"/>
	<path class="st7" d="M337.8,620.4c0,0-0.2,1.1,3.2-0.1"/>
	<path class="st6" d="M291.7,658"/>
	<path class="st6" d="M316.4,631.1c-0.6-0.2-1,1.3-2.4,1.6c-1.4,0.3-2.8,1.5-3.2,1.7c-1.5,1.2-5,5.8-5.7,5.7c-0.7-0.1-4.1,1-5.5-0.5
		c-1.4-1.5-2.1-1.6-3.1-2.3c-1-0.6-1.3,0.4-2.2,0c-0.9-0.3-0.4-0.3-1.3-1.4c-0.9-1.1-4.2-4-5-4.8c-0.8-0.8-2.9-1.7-2.9-1.7
		s-0.1-0.6-1.1-1.4c-0.6-0.5-1.3-0.5-1.3-0.5l-1.4-0.6l0.7-1.1l-2.9-2.5l-1.1,0.9l0,0.2c0,0-6.8,10.8-6.9,10.9
		c-0.1,0.1,0.3,2,1.1,4.1c0.8,2.1,3,2.7,3.7,3.4c0.7,0.7,1.5,1.6,2.1,2.9c0.6,1.2,1,0.9,2.2,1.4c1.2,0.5,0.4,0.9,1.5,2.3
		c1.1,1.4,2.1,2.7,3.2,3.6c1.1,0.9,1.9,1.4,2.5,1.8c0.5,0.5,1.5,2.1,1.5,2.1l1.6,0.7c0,0,1.4,0.9,3.9,2.4c0.6,0.4,8.4,0.7,9,1.1
		c1.7,0.9,8.6-3.3,10.6-2.9c1.7,0.3,5.2-2.3,5.2-2.3l10-4.8c0,0,4.1-0.2,5.3-1.7"/>
	<path class="st6" d="M296.6,650.9c0,0,4.3-10.3,4.7-6.6"/>
	<path class="st6" d="M295.5,647c0,0-2.1-8.4,0.2-8.5"/>
	<path class="st6" d="M311,655.8c0,0-4.7,1.8-9.8,3.2"/>
	<path class="st6" d="M323.8,653.5c0,0,5.2,0.6,7.5,0.2"/>
	<path class="st7" d="M279.1,651.2c0,0,2,1.5,8,3.2"/>
	<path class="st19" d="M231,734.2c0,0,6.1-5.3,9.6-5.3l4.2-0.8l8-1.2c0,0,13.8,0.5,14.9,0.3c1.2-0.1,7.1-3.1,7.1-3.1"/>
	<path class="st7" d="M300.8,681.1l-0.2,0.3c0,0-0.6,0.4-1,0.1c-0.4-0.3-1.4,0.8-2.8,0.7c-1.4-0.1-2.2-0.1-2.2-0.1s-1,0.9-1.6-0.1
		c0,0,1.4-0.2,1.5-2.2c0.1-2,0.2-12.9,0.2-13.1"/>
	<path class="st7" d="M327.6,668.1c0,0-2.9,2.6-7.5,5.6c-3,1.9-7,3.9-12.4,5.7c-3.7,1.2-5.9,0.4-7.8,1.3l-0.8,0.7
		c0,0,0.8-0.4,2.9-0.4c11.6-0.3,23.5-9.8,27.5-13.4"/>
	<path class="st7" d="M301,680.3c0,0,0.6-2-0.1-4.4c-0.7-2.4-2.6-8.1-3.2-9.3c0,0-0.6-4.4,0.7-6"/>
	<path class="st7" d="M294.7,682.1c0,0,1-0.1,1-3.2c0-3.1,0.2-11.3,0.4-11.6c0,0,0.8,0.9,2,4.2c1.2,3.3,2.6,7.5,1.9,9.2"/>
	<path class="st7" d="M294.8,666.9c0,0-0.2-5.7-2.6-7.7"/>
	<path class="st6" d="M299.1,631.2c0,0,0.1,4.4,1.7,9.1"/>
	<path class="st6" d="M303.8,628.7c0,0-1.4,5.8-1.2,11"/>
	<path class="st7" d="M249.7,679.8c0,0-1.2,3.6,2.3,6.4"/>
	<path class="st7" d="M270.2,682.8c0,0,0.8-1.1,6.2-3"/>
	<path class="st7" d="M254.2,692.2c0,0,4.2,2.7,8.7,1"/>
	<path class="st7" d="M279.5,682.4c0,0,4.8-3.4,6.1-5.2"/>
	<path class="st6" d="M273,638.5c0,0,6.2-2.6,8.9-7.4"/>
	<g>
		<path class="st19" d="M290,561.1c0,0,1.2,0.1,3.5,0.7c1.1,0.3,2.4,0.7,3.2,1.3c0,0,1.3,1,1.8,3.4c0,0,0.6,1.2,1,1.6
			c0,0,1.5,1.9,1.8,3.4l0.2,1.1c0,0,5.3,2,5.9,3.2c0,0-0.5,2.7-2,2.8c0,0-1.3,0.3-3.3,2.9c0,0-4.1,1.9-3.1,3.5c0,0-2.2-3.1-2.9-4.5
			c0,0-0.7-1.1-0.8-1.7c0,0-1.1,0.2-2.2-1.2c0,0-0.7-0.7-0.8-1.1c0,0-0.8-0.8-1.6-1.4"/>
		<g>
			<path class="st5" d="M288.9,570.1c0.4,0.6,0.3,1.1,0.2,1.5c-0.4-0.1-0.9-0.3-0.9-0.3c-0.9-0.6-1.4-2.1-1.4-2.1
				c0-0.3,0.1-0.6,0.1-0.7C288,569.3,288.9,570.1,288.9,570.1z"/>
		</g>
		<g>
			<path class="st19" d="M287.6,570.8"/>
		</g>
	</g>
	<path class="st5" d="M299,575.2c0,0,1.2-2.1,2.8-2.6"/>
	<path class="st19" d="M288.4,561.5c1.9-0.7-4.6,2.6-1.7,3.7"/>
	<path class="st19" d="M220.8,710.1c0,0,0.8,8.5-0.7,8.7c-1.5,0.2-1.9,2.4-2.8,3.2c-0.9,0.9-7.7,1-7.7,1l-4.2,1.5"/>
	<polyline class="st19" points="274.4,650.9 275.1,652.1 276.6,653 276.8,654.9 276,656.5 273.8,657.9 	"/>
	<path class="st6" d="M327.8,670c15.2,5.1,24.5-9.9,25.2-10.6c8.9-9,8.3-26.5,8.3-26.5s1.1-0.9,0.7-3c-1.4-6.2-5.4-8.9-5.8-8.9
		c-0.3,0-0.5,2.6-0.7,2.7c-3.4,1.5,0.3,0.9-5,3.3l-2.7-0.2l0,0c-3-0.8-13.5-5.9-30.6,1c0,0-2.6-0.3-4.2,0.5
		c-1.6,0.7-2.6,2.2-5.3,3.3c-2.7,1.1-4.1,1.5-4.1,1.5l0.5,2.3c0,0,2.7-1,4.8-2c2.1-1,4.3-2.4,5.5-2.5c0,0-6.1,3.8-7.5,7.4
		c-0.5,1.4,1.6-2.5,5.4-4.8c5.2-3,7.7-4.7,12.9-5.1c7.6-0.5,18.6,1.9,19.3,4.1l0.7,4.6c0,0-1.2,6.7-3.6,11.5
		c-2.6,5.2-6.6,8.6-8.3,10.1c-0.2,0.5-7.4,4.3-7.4,4.3s-4.4,0.2-5,0.3c-0.6,0.2-10.9-1.2-10.9-1.2s-3.5-2.1-4.2-1.3
		c-0.7,0.8-6.8-1.1-7.4-0.2C297.8,661.4,321.7,668,327.8,670z"/>
	<path class="st6" d="M314.6,622.9l4.2-3c0,0-3.8,1.4-4.8,0.9l0.6-1.4c0,0,5.5-1,10.4-4.1l0.3-0.2l0.1-0.1c0,0-0.4,1.4,0.3,2.2
		c0,0-8.1,3.5-9.8,7.8C315.8,625,315,623.4,314.6,622.9z"/>
	<path class="st7" d="M344.5,632.4c0,0,2.6-1.4,3.3-5.7"/>
	<path class="st7" d="M361.4,632.9c-3.1,4.6-7.1,9.3-7.1,9.3c-3.5,3.3-3.5-1.3-3.5-1.3c0.5-3.3,0.1-5.9,0.1-5.9s-2-2.4-4.9-2.4"/>
	<path class="st7" d="M351,642.4c0,0-3.5,26-13,24.7l-3.7,1l-4.5-1"/>
	<line class="st7" x1="322.3" y1="664.3" x2="320.8" y2="667.6"/>
	<path class="st6" d="M357.1,638.9c0,0-0.3,11.7-5.2,22.5c0,0,2-0.8,4.4-6.9c0,0,3-6.8,3.3-19.2L357.1,638.9z"/>
	<path class="st6" d="M356.5,643.5c0,0-1.4,3.6-0.9,5.1c0,0,1.7,0.1,3.8-3.2c0,0,0.9-3.9,0.3-5C359.7,640.3,358.1,643.1,356.5,643.5
		z"/>
	<path class="st6" d="M347.1,625.7c0,0,6,1.3,8.5-2.7c0,0,0.2-1.3,0.1-2"/>
	<g>
		<g>
			<g>
				<g>
					<g>
						<g>
							<g>
								<path class="st6" d="M248.4,568.2l-0.6,1.4l1.2,0.1l0.3-0.4l0.6,0.5l0.5-0.3l0.5,0.5l0.4-0.4l0.6,0.5l0.4-0.4l0.5,0.4
									l0.4-0.4l0.5,0.5l0.6-0.4l1,0.6c0,0,0.1-0.2,0.2-0.5c0.1-0.3,1.9,0.3,3.6,0.6c1.2,0.2,3,0.3,3.9,0.2c1.4-0.2,2.5,1,3,2.2
									c0.5,1.4,4.6,2,4.7,1.6c0.6-1.7,5.5-1,5.5-1c1.8,1.4,5.5,5.2,7.4,4.4c0.3-0.1,0.4-0.2,0.5-0.9c0,0-0.1,0.4,0,0.2
									c0.1-0.4-0.1-0.1-0.8-0.8c-4.3-3.8-6.2-7-13.1-9.5C263.7,564.6,253.6,567.1,248.4,568.2z"/>
							</g>
							<g>
								<path class="st6" d="M262.9,611.2"/>
								<path class="st6" d="M266.3,573l-3.4,38.7l-1.4,15.7c-0.4,3.3,0.3,4.4,1,5.4c1.4,1.8,2.1,2.2,2.7,2.6l2.1-23.8l3.2-37.2
									L266.3,573z"/>
							</g>
						</g>
					</g>
				</g>
				<path class="st6" d="M265.7,570.2c0.7,0.2,1.8,0,2.3-0.2c1-0.3,0.5-1.5-0.9-1.9c-3-0.8-5.2-0.7-5.1-0.1
					C262.2,569,265,570,265.7,570.2z"/>
				<path class="st6" d="M259.3,567.6c0.4-0.1,1.4,0.3,1.7,0.4c0.6,0.3,0.5,0.9-0.2,0.9c-0.6,0-2.8,0-3-0.4
					C257.6,568.1,258.4,567.8,259.3,567.6z"/>
			</g>
			<path class="st6" d="M270.5,573.5c0-0.2-0.3-1.1-1.1-1.4c-0.8-0.3-1.2-0.2-1.7-0.2l-1.5,0.9c0-0.2-0.2,0.6,1,1.1
				c1.2,0.4,3.3,0.5,3.3,0.4L270.5,573.5z"/>
			<path class="st6" d="M267.9,576.9c-0.3-0.1-0.5-0.5-0.5-0.7c0-0.3,0.3-0.4,0.6-0.3c0.3,0.1,0.5,0.5,0.5,0.7
				C268.5,576.9,268.2,577,267.9,576.9z"/>
			<path class="st6" d="M267.5,580.5c-0.3-0.1-0.5-0.5-0.5-0.7c0-0.3,0.3-0.4,0.6-0.3c0.3,0.1,0.5,0.5,0.5,0.7
				C268.1,580.5,267.8,580.6,267.5,580.5z"/>
		</g>
	</g>
	<path class="st0" d="M270.5,636.6c-2.3-2.9-2.1-6.1-3.3-6.6c-3.8-1.7-3.8-1.8-5.6-2.7c-0.9-0.2-2.8-2.8-2.8-2.8
		c-1.3-2.1-0.4-2.9-0.4-2.9c-0.8-1.9,0.1-3.5,0.1-3.5c-0.7-3.4,1-4.2,1-4.2c-0.5-1.2-0.3-2.1-0.3-2.1c2.2-3.2,4-1.8,4-1.8l-0.3,3.4
		l0.7,0.5c0.7,0.4,2.3,1.3,2.3,1.3c1.8,0.4,1.2-0.4,1.2-0.4l0.3-4.4c0,0,1.9,0.1,2.6,1.2c0.7,1.2,2.2,2.9,2.2,2.9
		c0.9,1.3,1.7,5.8,1.7,5.8c0.3,0.5,1.7,2,2.3,3.7c0.4,1.1,4.6,3.3,4.6,3.3s-0.5,1.1-1.8,2.6c-0.7,0.8-2.4,1.1-3.6,2
		c-0.6,0.5-0.6,1.6-1.5,2.1c-0.4,0.2-1.1,0.1-1.5,0.3C271.7,634.6,271.3,636.3,270.5,636.6z"/>
	<path class="st16" d="M289.2,569.4l7.2,67.9c1,0.6,1.9,1.2,1.9,1.2l-7.2-67"/>
	<path class="st7" d="M258.4,618c0,0,0.5,1.3,1.7,2.3"/>
	<path class="st0" d="M258.5,612.1"/>
	<path class="st7" d="M259.3,613.8c0,0,1.5,3,2.2,3"/>
	<path class="st7" d="M267.6,630.2c0,0,2.2-0.6,6.8-5"/>
	<path class="st19" d="M293.1,567.9"/>
	<path class="st19" d="M295.5,576.1c-5.1-1-6-6-6-6c-0.4-0.7-1.9-1.7-1.9-1.7l-1.4-1.1c-0.2-0.2-0.4-0.4-0.5-0.5
		c-0.3-0.3-0.4-0.6-0.6-0.9c-0.2-0.4-0.5-0.7-0.5-1c-0.1-0.8,0.3-1.2,0.3-1.2c0.9-0.6,2.2-0.2,3.3,0.4c0.2,0.1,0.2,0.2,0.4,0.3
		c0.4,0.4,0.6,0.7,0.8,0.9c0.1,0.1,0.7,0.3,0.7,0.3c0.2,0.1,1,0.2,1.2,0.4c0.7,0.3,0.8,0.5,1.2,0.9"/>
	<path class="st5" d="M286.9,565.5c0,0-1,0.6-0.6,1.9"/>
	<g>
		<path class="st19" d="M287.5,571.1c0-0.2,0.1-0.3,0.1-0.3l0,0l0.2,0.2c0.1,0.1,0.2,0.2,0.4,0.3c0,0,1.1,0.5,1.5,0.2
			c0,0,0.2,0,0.3,0c0.3,0.8,0.9,1.8,1.8,2.6c-0.1,0.1-0.3,0.1-0.6,0.1c0,0-1.2,0-1.9-0.4c0,0-0.9-0.4-1.5-1.3c0,0-0.3-0.5-0.3-0.8
			C287.5,571.8,287.5,571.4,287.5,571.1z"/>
	</g>
	<path class="st5" d="M287.5,571.8c0,0,0-0.4,0-0.7c0.5,0.7,1.9,1.2,1.9,1.2c0.4,0,0.8,0.1,0.8,0.1c0.2,0.3,0.7,1.1,0.7,1.1
		c0.2,0.3,0,0.6-0.1,0.8c-0.4,0-1.1-0.1-1.6-0.4c0,0-0.9-0.4-1.5-1.3C287.8,572.6,287.5,572.1,287.5,571.8z"/>
	<path class="st5" d="M287.7,572.8c0.4,0.5,1.4,1.3,1.5,1.3c0.4,0.2,1.4,0.3,1.4,0.3c0.2,0.2,0.1,0.4,0,0.6
		c-0.2,0.1-0.6,0.2-1.1,0.1c0,0-0.9-0.5-1.2-0.6c0,0-0.6-0.5-0.6-0.7C287.6,573.8,287.4,573.3,287.7,572.8z"/>
	<path class="st19" d="M287.8,572.6c0.5,0.9,1.5,1.3,1.5,1.3c0.7,0.5,1.9,0.4,1.9,0.4s0.1,0.4-0.5,0.7c0,0-0.6,0.3-1.2,0.1
		c0,0-0.9-0.5-1.2-0.6c0,0-0.6-0.5-0.6-0.7C287.6,573.8,287.4,573.1,287.8,572.6"/>
	<path class="st16" d="M287.9,556.6l0.8,7.8l0,0.3l0.7,0.8c0.1,0,1.1,0.4,1.1,0.4l-0.9-8.8"/>
	<path class="st4" d="M252.5,565.8l-0.5,13.4l-4.7,2.9l-5.1-5.3c0,0,1.2-7.3,1.5-7.6c0.4-0.3,4.8-2.9,4.8-2.9L252.5,565.8z"/>
	<path class="st5" d="M268.9,544.9c-0.5,0.8-1.9,1.8-2.5,2.7c-0.9,1.3-1.4,2.6-3,4c-2.2,1.9-3.6,2.2-6.2,2.6
		c-0.7,1.8-2.1,4.2-4.1,4.8c-0.1,0.7-1.1,17.5-1.2,18.2"/>
	<line class="st7" x1="259" y1="622.8" x2="258.3" y2="621.5"/>
	<path class="st6" d="M273.8,571.5c0,0,1,0.8,2.3,1.9"/>
	<path class="st7" d="M98.7,24c0,0-1,0.4-0.2,1.1"/>
	<path class="st7" d="M91.5,26.6c0,0-0.3,0.2,0,0.8"/>
	<path class="st3" d="M168.1,321.4c0,0-0.2,0.4-0.4,0.4l-0.2,1.4l0.1,0.1c0,0,0.6-0.2,1-0.2c0.4,0,1.1,0,1.1,0s0-0.5-0.2-0.8
		c-0.1-0.3-0.3-0.4-0.6-0.6C168.5,321.6,168.1,321.4,168.1,321.4z"/>
	<path class="st3" d="M112,94c0.2,7,0.5,22,0,34.9c0,0.8-0.1,1.6-0.1,2.5c-0.5,15.4-1.2,35.8-32.8,44.1c-0.2,0.6-0.5,1.2-0.9,1.8
		c0.4,1.1,0.7,2.3,1,3.5c5.4,25.8,15.5,30,26.2,34.5c2.1,0.9,4.2,1.7,6.3,2.8c8.8,4.4,15,15.7,16.6,24.6c0.9,5.4,0.2,9.9-2.1,12.8
		c0,0-0.2-0.8-0.3-0.9c-0.1-0.2-0.5-0.6-0.5-0.6c1.7-2.5,2.1-6.4,1.3-11c-1.4-8.3-7.5-19.3-15.7-23.5c-2-1-4.1-1.9-6.2-2.7
		c-10.6-4.4-21.5-8.9-27.1-35.5c-0.2-0.8-0.4-1.5-0.6-2.3c-1.6,1.9-3.9,3.5-7.2,4.6c-2.6,3.1-8.5,5.8-21.4,5
		c-9.5-0.6-16.2-2.6-20.7-5.1c-10.6-1.6-20-4.4-24.5-9.1c-2.2-2.2-3.1-4.8-2.8-7.6c0.3-3.3,1.9-6.1,4.7-8.3
		c5.4-4.2,14.5-5.7,22.8-5.9c5.5-2.4,13.5-3.5,25.4-1.8c17.5,2.4,26.7,12.8,26.4,21.3c0,0.6-0.1,1.2-0.2,1.8
		c29.6-8.1,30.3-27,30.8-42.5c0-0.8,0.1-1.7,0.1-2.5c0.6-13.6,0.2-29.5-0.1-35.9c0,0,0.4,0.1,0.6,0.3c0.2,0.2,0.5,0.4,0.6,0.5
		C111.8,93.9,112,94,112,94z M32.9,184.1c4,1.5,9.1,2.5,15.7,2.9c9.7,0.6,15.2-0.8,18.2-2.8c-1.1,0.2-2.2,0.3-3.4,0.4
		C54.7,185.3,43.5,185.3,32.9,184.1z M28.2,182c11,1.7,23.7,2,35,1.2c2.1-0.1,4.1-0.5,5.8-1c0.4-0.5,0.6-1,0.8-1.4
		c0.4-1,0.6-2.2,0.5-3.3c-1.5,0.2-3,0.5-4.5,0.7c-23.2,3-36.6,1.1-44.2-1.6C23,178.3,25.1,180.2,28.2,182z M71.8,177.2
		c0.1,1.4-0.1,2.8-0.6,4.1c0,0,0,0.1,0,0.1c2.3-1,4.2-2.4,5.4-4.2c-0.1-0.3-0.2-0.6-0.4-0.9C74.8,176.6,73.3,176.9,71.8,177.2z
		 M24.8,154.3c-7,0.5-14.3,1.9-18.7,5.4c-2.5,1.9-3.9,4.4-4.2,7.3c-0.2,2.4,0.6,4.5,2.4,6.4c3.6,3.7,11.1,6.4,20.1,8.1
		c-1.9-1.4-3.2-2.8-4.2-4.2c-0.4-0.6-0.8-1.1-1.1-1.7c-3.3-1.5-5.2-3.2-6.2-4.3c-1.8-2.2-2.5-4.6-1.9-6.7c0.6-2.1,2.9-6.4,11-7.9
		C22.8,155.7,23.8,154.9,24.8,154.3z M20.2,174.3c6.9,3,20.1,5.5,45.4,2.3c1.6-0.2,3.1-0.4,4.5-0.7c-0.7-3.6-3.3-7.1-5.6-9.1
		c-6-5.2-17.8-8.5-33.1-9.4c-3.5-0.2-6.3,0-8.7,0.4c-2.5,2.5-3.7,5.3-4.2,7.6C18.2,167,18.2,170.6,20.2,174.3z M28.7,155.9
		c0.9,0,1.9,0,2.9,0.1c11.1,0.6,26,2.8,34,9.7c2.9,2.5,5.3,6.2,6.1,10c1.4-0.2,2.7-0.5,4-0.8c-6.7-14-23.7-18.6-34-20.1
		c-2.8-0.4-7.8-0.8-13.3-0.7c-1.3,0.6-2.4,1.2-3.4,1.9C26.1,155.9,27.3,155.9,28.7,155.9z M32.7,152.6c3.5,0.1,6.7,0.4,9.1,0.7
		c17.8,2.5,30.1,10,35.3,21.2c0.3-0.1,0.6-0.1,0.9-0.2c0.2-0.7,0.3-1.5,0.4-2.3c0.3-7.9-8.4-17.5-25.1-19.8
		C44.3,151,37.6,151.3,32.7,152.6z M20.3,158.4c-5.6,1.6-7.3,4.7-7.8,6.4c-0.5,1.6,0.1,3.6,1.6,5.3c0.7,0.9,2,2,4,3.1
		c-1.4-3.5-1.3-6.6-1-8.2C17.6,163,18.5,160.6,20.3,158.4z"/>
	<path class="st20" d="M68.2,197.6"/>
	<path class="st3" d="M123.7,254.4c0,0,0.3,0.2,0.5,0.3c0.1,0.1,0.4,0.4,0.5,0.5c0,0.1,0.1,0.4,0.1,0.4c-0.1,0.3-0.2,0.7-0.3,1.1
		c-0.2,0.6,0.6,2.8,2.4,3.8c2.1,1.2,4.5,0.3,6.8-2.6c5.5-6.9,3.6-13.2,0.8-22.1c-2.8-9-6.2-20.2-3.8-36.7c4.2-28.4,7.8-63.5,0-90.4
		c0,0,0.3-0.3,0.5-0.6c0.2-0.3,0.4-0.7,0.4-0.9c0-0.2,0.1-0.3,0.1-0.3c8.5,27.4,4.8,63.4,0.5,92.4c-2.4,16.2,1,27.2,3.7,36.1
		c2.8,8.9,4.9,16-1.1,23.4c-2.3,2.9-4.5,3.7-6.1,3.7c-1.1,0-2-0.4-2.6-0.7c-2.3-1.4-3.6-4.3-3-5.7
		C123.5,254.9,123.7,254.4,123.7,254.4"/>
	<path class="st12" d="M79.6,173.9c0,0-1.2,0.3-1.6,0.4"/>
	<path class="st12" d="M79.1,175.6c0,0-1.9,0.5-2.9,0.7"/>
	<path class="st12" d="M77.1,174.5c0,0-0.9,0.2-1.5,0.3"/>
	<path class="st12" d="M71.6,175.7c0,0-1.1,0.2-1.5,0.3"/>
	<path class="st12" d="M71.8,177.2c0,0-1.1,0.2-1.5,0.3"/>
	<path class="st12" d="M20.2,174.3c0,0-1.6-0.8-2.2-1.1"/>
	<path class="st12" d="M21.6,176.5c0,0-1.9-0.7-2.5-1"/>
	<path class="st12" d="M22,156.4c0,0,2.2-0.3,2.9-0.4"/>
	<path class="st12" d="M20.3,158.4c0,0,1.3-0.4,2.5-0.6"/>
	<path class="st12" d="M69,182.2c0,0-1.6,1.7-2.3,2.1"/>
	<path class="st12" d="M71.2,181.4c0,0-0.8,1.6-1.3,2.1"/>
	<path class="st12" d="M27.8,183.4c0,0-2.2-1.2-3.3-2.1"/>
	<path class="st12" d="M32.9,184.1c0,0-3-1.1-4.7-2.1"/>
	<path class="st12" d="M24.8,154.3c0,0,2.4-1.2,3.2-1.7"/>
	<path class="st12" d="M28.3,154.1c0,0,3.2-1.2,4.4-1.5"/>
	<path class="st12" d="M76.6,177.2c0,0,0.7-1,0.8-1.2"/>
	<path class="st12" d="M78.2,177.4c0,0-0.7,1.1-1.1,1.5"/>
	<path class="st3" d="M169.9,321.5c0-1.1,0-2.4-0.3-3.8c-0.5-2.4-43.5-171-48.8-191.6c0,0,0-0.1,0-0.1l-0.7,0.2
		c-0.4,0.1-0.9,0-0.9,0c4.5,17.6,48.3,189.5,48.8,191.8c0.2,0.7,0.2,1.5,0.3,2.1c0,0,0.3,0.3,0.5,0.4c0.2,0.1,0.5,0.3,0.7,0.4
		C169.5,321.2,169.9,321.5,169.9,321.5z"/>
</g>
</svg>
