<?xml version="1.0" encoding="utf-8"?>
<!-- Generator: Adobe Illustrator 21.0.0, SVG Export Plug-In . SVG Version: 6.00 Build 0)  -->
<svg version="1.1" id="Calque_1" xmlns="http://www.w3.org/2000/svg" xmlns:xlink="http://www.w3.org/1999/xlink" x="0px" y="0px"
	 viewBox="0 0 123.3 404.8" style="enable-background:new 0 0 123.3 404.8;" xml:space="preserve">
<style type="text/css">
	.st0{fill:#00B0E5;stroke:#1A171B;stroke-width:0.8;}
	.st1{fill:#00B0E5;stroke:#1A171B;stroke-width:0.8;stroke-linecap:round;}
	.st2{fill:#FFFFFF;stroke:#1A171B;stroke-width:0.8;}
	.st3{fill:none;stroke:#1A171B;stroke-width:0.8;}
	.st4{fill:#FFD400;}
	.st5{fill:none;stroke:#000000;stroke-width:0.8;}
	.st6{fill:#9B9C9E;}
	.st7{fill:#E6E6E6;}
	.st8{fill:none;stroke:#939497;stroke-width:3.172;stroke-linecap:round;stroke-linejoin:round;}
	.st9{fill:#FFFFFF;}
	.st10{fill:none;stroke:#1A171B;stroke-width:0.4;stroke-linecap:round;stroke-miterlimit:10;}
	.st11{fill:#FFFFFF;stroke:#000000;stroke-width:0.8;}
	.st12{fill:#F5F5F6;stroke:#1A171B;stroke-width:0.8;}
	.st13{fill:none;stroke:#1A171B;stroke-width:0.6;}
	.st14{fill:#E2E3E4;stroke:#1A171B;stroke-width:0.8;}
	.st15{fill:#F5F5F6;stroke:#1A171B;stroke-width:1.2;}
	.st16{fill:none;stroke:#1A171B;stroke-width:1.3;}
	.st17{fill:#D8D9DA;stroke:#1A171B;stroke-width:0.6;}
	.st18{fill:#E2E3E4;stroke:#1A171B;stroke-width:0.6;}
	.st19{fill:#E2E3E4;stroke:#1A171B;stroke-width:1.2;}
	.st20{opacity:0.8;fill:#FFFFFF;stroke:#1A171B;stroke-width:0.8;}
	.st21{fill:#FFD400;stroke:#1A171B;stroke-width:0.8;}
	.st22{fill:none;stroke:#1A171B;stroke-width:1.2;}
	.st23{fill:#E2E3E4;}
	.st24{fill:none;stroke:#1A171B;stroke-width:0.8;stroke-linecap:round;stroke-linejoin:round;}
	.st25{fill:#FFFFFF;stroke:#1A171B;stroke-width:0.8;stroke-linecap:round;stroke-linejoin:round;}
	.st26{fill:#ECECED;}
</style>
<path class="st0" d="M73,16.9c-0.1-0.7-0.2-1.5-0.2-2.2c0-0.6,0.5-1.1,1.2-1.1c0.6,0,1.1,0.5,1.1,1.2c-0.1,5.6,5.9,9.4,6,9.5
	c0.5,0.3,0.7,1,0.4,1.6c-0.3,0.5-1,0.7-1.6,0.4C79.6,26,74.2,22.5,73,16.9z"/>
<path class="st1" d="M52,45c-4.2,0-7.9-1.8-9.5-2.7c-0.3-0.1-0.5-0.2-0.6-0.3c-1.4-0.6-5-2-5-2l0.8-2.1c0,0,3.7,1.4,5.1,2
	c0.2,0.1,0.4,0.2,0.7,0.3c2.5,1.2,10,4.9,15.7-0.5c2-1.9,3.3-5.3,4.6-8.7c1.8-4.7,3.5-9.2,7.3-10.1c2.9-0.7,6.4,0.9,11,5.1
	c0.5,0.4,0.5,1.1,0.1,1.6c-0.4,0.5-1.1,0.5-1.6,0.1c-3.9-3.5-6.9-5.1-8.9-4.6c-2.6,0.6-4.1,4.6-5.7,8.7c-1.4,3.6-2.8,7.3-5.2,9.5
	C57.9,44.1,54.8,45,52,45z"/>
<g>
	<path class="st2" d="M84.2,129.2c0,0-2.5-1.3-2.8-2c-0.3-0.7-1.1-2.7-1.1-2.7s-1.2-1.7-1.2-2.3c0.1-0.6,0.3-1.3,0.7-1.3
		c0.5,0,1.3,0.5,1.3,0.5l0.1-1.1c0,0,0.1-1.1,0.2-1.9c0.1-0.7-1-0.7-0.5-1.6c0.5-0.9,1.4-2.6,1.6-2.6c0.2,0,2-0.7,2-0.7
		s0.3-1.1,0.8-2.1c0.5-1,2.8-2.8,3.4-3.1c0.6-0.3,0.4-0.7,0.4-0.7l0-0.5c0,0,0.6-2.2,1.2-3.5c0.7-1.3,0.6-3,3.1-2.3
		c2.5,0.7,9.9,3.5,10.6,7.6c-0.1,0.2,0.1,1.2,0.1,1.2s0,3-2.6,3.6c-2.6,0.7-2.7,1.4-3,1.2c-0.3-0.2,0.3,0.7-1.1,2.1
		c-1.4,1.3-0.8,2.4-1.1,3.2c-0.3,0.8-1.1,1.5-1.2,2.2c-0.1,0.8-0.4,2.3-0.9,2.4c-0.5,0.1-2.4,0.4-2.4,0.4s-0.3,1.2-1.5,2.3
		c-0.6,0.5-1.4,1.7-2.4,2.1C87,130.1,86,129.5,84.2,129.2"/>
	<path class="st3" d="M91.8,115.2c0,0-1.1,1.3-1.7,3.1c-0.6,1.8-1.1,1.9-1.1,1.9s-0.7,1.3-1,2c-0.3,0.7,0,2.7-0.7,3.2
		c-0.7,0.5-1.1,0.9-2.2,0.5c-2-0.7-2.4-2.1-2.5-3.3c-0.1-1.2,0.6-2.7,1.1-4.6c0.1-0.3,0.3-1.1,0.4-2.3"/>
	<path class="st3" d="M91.8,125.4c0,0,0.1-2.3-0.3-4"/>
	<path class="st3" d="M98.4,115c0,0-0.4-3-2.5-5.1c-2.1-2.1-4.2-2.8-4.5-2.9"/>
	<path class="st3" d="M81.2,121.4c0,0,1.4,0.5,1.5,1.4"/>
	<path class="st3" d="M84.5,113.5c0,0-0.8,1.2-0.9,2.4c-0.1,1.2,0.2,2.3,0.2,2.3"/>
	<path class="st3" d="M81.2,120.3c0,0,0.4-2,2.4-3"/>
</g>
<path class="st1" d="M8.2,299c0,0,0.1,92.3-0.3,94.9c0,0-0.5,1.1-0.6,5.4c0,0,0,0.1,0,0.4l0-0.1c2.2-0.2,3-4,3-4s0.6-85,0.5-96.4
	l0-2l0-229.1l0,0c0-2.5,2-4.6,4.6-4.6l0,0c1.3,0,2.4,0.5,3.2,1.3l0.1,0.1l0,0l0,0c0.1,0.1,1,1.5,1,1.5l0.7-3.5l0,0
	c0,0-3.1-2.1-5-2.1l0,0c-3.9,0-7.1,3.2-7.1,7.1l0,85.4l0,142.8L8.2,299z"/>
<path class="st1" d="M46.5,231.2c1.7-0.2,3.3-1.3,3.8-3.1l0,0l32.6-104.2c0.7,1.5,2.2,1.9,2.2,1.9L52.8,229c-1,2.9-3.7,4.8-6.6,4.9
	L46.5,231.2z"/>
<g>
	<g>
		<path class="st4" d="M10.1,309.4c-0.9-1-2.9,0.1-2.9,0.1v1.5c0,0,0.5,2.7,0.5,4.1c0,1.4-0.8,3.2-0.8,3.2v4c0,0,2.9,0.2,6.8-2.9
			C17.4,316.5,11,310.5,10.1,309.4z M8.3,321.3c-0.3,0-0.6-0.5-0.6-1c0-0.6,0.3-1,0.6-1c0.3,0,0.6,0.5,0.6,1
			C8.9,320.8,8.6,321.3,8.3,321.3z M13.3,318.1c-0.4,0.8-1.8,1.3-2.8,0.6c-1-0.6-1.7-2.6-1.7-3.6c0-1,0-2.3,0-2.3
			c0-4.1,2.9,0.5,3.7,1.3C13.3,314.9,13.7,317.4,13.3,318.1z"/>
	</g>
	<g>
		<path class="st5" d="M10.1,309.4c-0.9-1-2.9,0.1-2.9,0.1v1.5c0,0,0.5,2.7,0.5,4.1c0,1.4-0.8,3.2-0.8,3.2v4c0,0,2.9,0.2,6.8-2.9
			C17.4,316.5,11,310.5,10.1,309.4z M8.3,321.3c-0.3,0-0.6-0.5-0.6-1c0-0.6,0.3-1,0.6-1c0.3,0,0.6,0.5,0.6,1
			C8.9,320.8,8.6,321.3,8.3,321.3z M13.3,318.1c-0.4,0.8-1.8,1.3-2.8,0.6c-1-0.6-1.7-2.6-1.7-3.6c0-1,0-2.3,0-2.3
			c0-4.1,2.9,0.5,3.7,1.3C13.3,314.9,13.7,317.4,13.3,318.1z"/>
	</g>
</g>
<path class="st5" d="M8.3,317.5c0,0-0.7,0.8-0.7,2.2c0,1.4,0.3,1.7,1.2,1.4c0.9-0.3,1.7-0.8,2.3-1.4"/>
<g>
	<path class="st2" d="M89,107l-1.2-1l1.2-3.7l1,0.3l-0.1-1.6c0,0-0.3-0.7-0.1-1.5c0.3-1.2,0.9-1.6,0.9-1.6s-0.3-2.3,0.1-3.4
		c0.4-1.1,1.6-5.4,2.2-6.7c0.7-1.3,0.9-0.8,0.7-1.8c-0.2-1,0.1-1.5,0.3-2.7c0.1-1.2-0.1-1.9,0.6-3.8c0.8-1.9,1.5-3.5,1.6-4.2
		c0.1-0.7,0.9-3,1.2-3.3c0.3-0.3,0.9-1.2,0.9-1.2s1-0.7,1.2-1.3c0.2-0.6-0.1-2.6-0.1-2.6s0.1-2,0.4-2.2c0.3-0.2,0-1.4,0-1.4
		s-0.2-1.5,0-2.8"/>
	<path class="st2" d="M97.8,72.9c0,0,4.9,0.7,7.3-3"/>
	<path class="st2" d="M110.8,78.5c0,0-13.1,0-9.4-1.9"/>
	<path class="st2" d="M104.5,80.5c0,0-10.1,3.5-9.1,2.4c1-1,1.9-2,1.9-2"/>
	<path class="st2" d="M105.9,106.6l-1.3-3.3c0,0-5.2-2.3-5.8-2.9c-0.6-0.5-5.1-3.8-7.1-2.3"/>
	<path class="st2" d="M89.1,106.9c0,0,0.4-1.9,1.1-3.1c0.8-1.5,0.7-3.3,3.3-2.5c2.5,0.8,9.9,3.4,10.6,7.7c0,0,0,0.1,0.2,0
		c0.2-0.1,0.3-0.2,0.3-0.2c0.1-0.2,1-0.2,1.2-0.2c0.2,0.1,1.3,0.3,3-1.2c1.7-1.6,2-4,2.3-4.9c0.3-0.9,0.9-2,1.8-3.1
		c0.9-1.1,0.3-1.3,0.2-2.7c-0.1-1.3,0.7-0.8,1.5-2.4c0.8-1.6,1.4-4.1,1.7-5.5c0.3-1.4,0.9-2.1,1-2.8c0.2-0.7,0.8-2.5,0.8-2.5
		l1.2-3.7c0,0,2.6-4.5,3.8-5.6"/>
</g>
<g>
	<ellipse class="st6" cx="9.4" cy="395.5" rx="9.4" ry="9.3"/>
	<path class="st7" d="M7.3,388.5c0.4,0,0.9,0.2,1.1,0.5c0.1,0.3,0,1.2-0.1,1.4c-0.1,0.1-0.4,0.3-0.5,0.3
		C5.9,390.8,6.1,388.6,7.3,388.5z"/>
	<path class="st7" d="M7.3,391.2c0.8-0.1,1.6,0.5,2.1,0.7c0.4,0.2,0.8,0.2,1.2,0.4c0.1,0,0.1,0.1,0.2,0.1c0.1,0,0.3,0,0.3,0
		c1.1-0.8,1.7,0.6,0.9,0.8c-0.5,0.2-0.6-0.2-1-0.2c-0.1,0.3-0.5,1-1,0.7c-0.2-0.1-0.4-0.4-0.7-0.5c-0.4-0.2-0.4,0.2-0.3,0.5
		c0.1,0.2,0.4,1,0.6,1.1c0.2,0.1,0.5,0,0.8,0.1c0.2,0,0.4,0.1,0.6,0.2c0.3,0.1,0.7,0.3,0.9,0.5c0.2,0.2,0.3,0.4,0.5,0.6
		c0.4,0.3,0.9,0,1,0.6c0.2,0.7-0.2,1.7-0.2,2.4c-0.1,1.1,1,1.3,0.2,2.4c0,0.1-0.1,0.1-0.2,0.2c-0.3,0.1-0.6,0-0.8-0.1
		c-0.1,0-0.2-0.1-0.2-0.2c0,0,0,0,0-0.1c-0.1-0.2-0.3-0.6-0.3-0.9c-0.2-1.1-0.3-2.5,0-3.6c-0.2,0-1.2-0.3-1.3-0.2
		c-0.2,0.1,0,0.4,0,0.5c0.1,0.2,0.4,0.3,0.5,0.6c0.2,0.6-0.4,2.3-0.6,2.9c-0.1,0.4-0.1,0.9-0.3,1.2c-0.4,0.5-1.2,0.4-1.5-0.1
		c-0.3-0.5,0-1,0.2-1.4c0.2-0.4,0.8-1.5,0.7-2.2c-0.1-0.5-0.8-0.8-1-1.4c-0.1-0.2-0.2-0.5-0.1-0.8c0-0.2,0.3-0.4,0.2-0.6
		c-0.1-0.3-0.6-0.5-0.8-0.8c-0.2-0.5-0.8-2.8-1.1-0.6c0,0.3,0,0.8-0.1,1.1c-0.1,0.2-0.3,0.3-0.4,0.6c0.2,0.1,0.3,0.3,0.4,0.7
		c0,0.3-0.5,0.8-0.9,0.6c-1-0.6,0.1-1.3-0.3-2c-0.1-0.1-0.2-0.2-0.2-0.4c0-0.2,0.1-0.4,0.1-0.5c0.1-0.4,0-1,0.2-1.2
		c0-0.1,0.2-0.1,0.2-0.2C6.1,392,6.5,391.3,7.3,391.2z"/>
</g>
<g>
	<path class="st8" d="M17.9,334.3c0.1,7-0.2,25.8-0.2,25.8"/>
	<polyline class="st8" points="15.4,337.5 17.9,332.5 20.4,337.6 	"/>
</g>
<g>
	<path class="st8" d="M88.2,140.6c-1.9,6.7-7.6,24.7-7.6,24.7"/>
	<polyline class="st8" points="84.9,142.9 88.7,138.8 89.7,144.4 	"/>
</g>
<g>
	<polygon class="st9" points="14.4,374.2 2.9,378.3 2.9,376.3 14.4,372.2 	"/>
	<line class="st10" x1="2.9" y1="376.3" x2="14.4" y2="372.2"/>
	<line class="st10" x1="2.9" y1="378.3" x2="14.4" y2="374.2"/>
</g>
<path class="st1" d="M19.6,93.5l0.2-23.6l0,0c0-2.5-2.1-4.6-4.6-4.6l0,0c-1.3,0-2.4,0.5-3.2,1.3l-0.1,0.1l0,0l0,0
	c-0.1,0.1-1,1.5-1,1.5l-0.7-3.5l0,0c0,0,3.1-2.1,5-2.1l0,0c3.9,0,7.2,2.5,7.1,7.1l-0.2,23.6"/>
<g>
	<path class="st11" d="M11.5,35.6l0.2-26.7l1.1,0c0,0,0-1.2,0.1-1.8c0.1-0.7,0.3-1.3,0.3-1.3L13,4.4c0,0,0.6-0.2,1.3-0.5
		c0,0-5.6-4.8-5.9,5.1c-0.9,27,2.7,28.4,3,28.6c0.9,0.6,0.1,0.4,0.5,0.1L11.5,35.6z"/>
	<path class="st11" d="M14,38.6c1-0.5,2.7-2,3.4-5.3c2.3-11.5,1-19.4,0.6-24.7c-0.3-3-0.4-2.4-0.4-2.4c0-0.1-0.7-2.3-1.9-2.7
		c-0.6-0.2-2-0.5-3.7,0.4c-0.6,0.3,1.3-0.3,2,2c0.1,0.5,0.5,2.6,0.8,6.3c0.5,5.8,0,21.8,0.1,22.1c0.1,0.2-1,1-1,1.2
		c0.1,0.7,0.6,0.7,0.3,1.3C13.7,38.1,14,38.6,14,38.6z"/>
</g>
<path class="st12" d="M22.9,57.9c-1-1.4-4.1-3-6.5-3.5c-2.4-0.5-5.3-0.6-6.9,1.7c-1.7,2.3-1,6.2-0.3,8.2c1.5,4.4,2.3,5.8,2.3,5.8
	c0.7,1.3,2,2.2,3.6,2.5c1.9,0.3,3.6-0.5,4.7-1.9c0,0,1.2-1.5,2.5-5.6C23.5,61,23.9,59.3,22.9,57.9z M13.9,61.9L13.9,61.9
	c-2.1,0.5-2.7-0.1-3.1-1.2c-0.4-0.9,0.1-2.5,0.5-3.1c0.5-0.7,1.3-0.9,1.3-0.9h0c0,0,0.8-0.2,1.5,0.2c0.6,0.3,1.9,1.5,1.9,2.5
	C16.2,60.5,16,61.3,13.9,61.9z"/>
<path class="st13" d="M20.2,61.1c0,0-0.4,1.5-0.4,1.6c0,0.1-0.2,0.4-0.3,0.4c-0.2,0-0.3,0-0.8-0.4c-0.5-0.4-1.9-0.8-2.8-0.8
	c-0.9,0-2.7,0.2-4,1.5c0,0-0.6,0.6-0.7,0.8c-0.1,0.2-0.4,0.3-0.6,0.2c-0.2-0.1-0.5-0.2-0.4-0.8"/>
<path class="st14" d="M16,57.3c0.3-0.4,0.8-0.7,1.4-0.7c0.5,0,1.1,0.2,1.4,0.5c0,0,0.1,0.1,0.2,0.2c0.1,0.1,0.4,0.2,0.6-0.1
	c0.2-0.3,0.2-0.7,0.2-1c0-0.3,0.1-0.5-0.3-0.7l-0.1,0c-1-0.5-2.1-0.9-3.1-1.1c-2.4-0.5-5.3-0.6-6.9,1.7c-0.4,0.5-0.6,1.1-0.8,1.8
	c0,0-0.1,0.3,0.4,0.4c0.5,0.1,1.2,0.2,1.4,0.2c0.2,0,0.4,0,0.6-0.3l0,0c0.1-0.2,0.2-0.5,0.3-0.6c0.5-0.7,1.3-0.9,1.3-0.9h0
	c0,0,0.8-0.2,1.5,0.2c0.3,0.1,0.6,0.4,0.9,0.8c0,0,0.4,0.4,0.6,0.6c0.2,0.2,0.3,0.1,0.3-0.1C15.9,57.7,15.8,57.4,16,57.3"/>
<path class="st13" d="M10.8,57.9L10.8,57.9c-0.1,0.3-0.2,0.3-0.4,0.2c-0.2,0-0.6-0.1-1-0.1c-0.4-0.1-0.3-0.3-0.3-0.3
	c0.1-0.5,0.3-0.9,0.6-1.3c0,0,0.2-0.3,0.5-0.5c0.2-0.2,0.3-0.4,0.4,0.1c0.1,0.5,0.3,1.1,0.3,1.2c0,0.1,0.1,0.3,0,0.4
	C10.8,57.8,10.8,57.9,10.8,57.9z"/>
<line class="st13" x1="15.1" y1="57.6" x2="15.2" y2="57.6"/>
<path class="st13" d="M15.2,57.6c0.4,0.4,0.6,0,0.6,0c0.1-0.1,0.2-0.2,0.2-0.4"/>
<ellipse transform="matrix(0.9983 -5.872995e-02 5.872995e-02 0.9983 -3.2697 0.9892)" class="st15" cx="15.2" cy="56.1" rx="0.7" ry="0.7"/>
<path class="st13" d="M19.2,58.1c0,0.1,0.1,0.2,0.1,0.3"/>
<g>
	<polyline class="st3" points="18.9,61.6 19.7,62 19.6,61.6 	"/>
	<g>
		<polyline class="st16" points="18.1,61.5 18.5,61.9 18.6,61.6 		"/>
		<path class="st3" d="M20,61.5c0,0,0.7,0.3,0.7,0.3l-0.2-0.4"/>
		<polyline class="st3" points="20.9,61.2 21.8,61.4 21.5,61 		"/>
		<polyline class="st3" points="21.8,60.7 22.6,60.8 22.3,60.4 		"/>
		<polyline class="st3" points="22.6,60.1 23,60.1 22.8,59.8 		"/>
		<polyline class="st3" points="23.1,59.6 23.5,59.4 23.3,59.3 		"/>
		<path class="st14" d="M23.4,58.8c0-0.2,0.2-0.1,0.2-0.2c0-0.2-0.2-0.1-0.1-0.3c0-0.1,0.2-0.1,0.2-0.3c0-0.2-0.1-0.1-0.2-0.3
			c0-0.1,0.2-0.2,0-0.4c-0.2-0.2-0.4,0-0.4,0c-2.6,2.3-2.9,2.6-3.3,2.5c-0.6-0.2-0.5-0.6-0.5-0.6c0.1-0.2,0.1-0.4,0.1-0.6v0
			c0,0,0.2-0.2,0.2-0.2c0,0,0,0,0,0c0,0,0-0.1,0-0.2c0-0.1,0-0.1-0.1-0.1c0,0,0,0,0,0c-0.1,0.1-0.2,0.2-0.2,0.2
			c-0.1-0.3-0.3-0.6-0.5-0.9c-0.7-0.7-1.8-0.6-2.5,0.1c-0.3,0.4-0.5,0.8-0.5,1.2l2.3,2.8c0.1,0.1,0.4,0.1,0.8,0.1
			c0.4,0,1.2,0,1.9-0.3c0.8-0.3,1.3-0.8,1.9-1.3C23.4,59.4,23.4,58.8,23.4,58.8z M22.3,59.1c-0.2-0.1-0.6-0.4-0.3-0.6
			c0.3-0.3,0.6-0.5,0.7-0.6c0,0,0.1-0.1,0.3,0c0.1,0.1,0.1,0.4-0.1,0.8C22.7,59,22.5,59.2,22.3,59.1z"/>
		<path class="st13" d="M23.1,58c0,0-0.1,1.1-0.4,1.4c-0.3,0.3-1.2,1.2-2.1,1.5c-0.9,0.3-2.3,0.3-2.5,0c-0.3-0.3-0.3-0.4-0.3-0.6
			c0-0.1,0.1-0.1,0.1-0.1c0.3-0.1,0.6-0.2,0.8-0.4c0,0,0.1-0.1,0.3,0c0.2,0,0.6,0.1,0.9,0.1c0.3,0,0.6,0,1.1-0.4c0,0,0.6-0.5,1.1-1"
			/>
		<path class="st17" d="M17.1,60.1c0.5,0.1,1.1,0,1.5-0.5c0.6-0.6,0.5-1.6-0.1-2.2c-0.6-0.6-1.6-0.5-2.2,0.1
			c-0.3,0.3-0.4,0.7-0.4,1.1L17.1,60.1z"/>
		<path class="st13" d="M23.1,58c0,0-0.1,1.1-0.4,1.4c-0.3,0.3-1.2,1.2-2.1,1.5c-0.9,0.3-2.3,0.3-2.5,0c-0.3-0.3-0.3-0.4-0.3-0.6
			c0-0.1,0.1-0.1,0.1-0.1c0.3-0.1,0.6-0.2,0.8-0.4c0,0,0.1-0.1,0.3,0c0.2,0,0.6,0.1,0.9,0.1c0.3,0,0.6,0,1.1-0.4c0,0,0.6-0.5,1.1-1"
			/>
		<ellipse transform="matrix(0.6709 -0.7416 0.7416 0.6709 -37.6892 32.29)" class="st13" cx="17.5" cy="58.6" rx="0.7" ry="0.7"/>
		<ellipse transform="matrix(0.6722 -0.7403 0.7403 0.6722 -37.6403 32.1874)" class="st13" cx="17.5" cy="58.6" rx="1" ry="1"/>
		<ellipse transform="matrix(0.6722 -0.7403 0.7403 0.6722 -37.6403 32.1874)" class="st18" cx="17.5" cy="58.6" rx="1" ry="1"/>
		<ellipse transform="matrix(0.6709 -0.7416 0.7416 0.6709 -37.6892 32.29)" class="st3" cx="17.5" cy="58.6" rx="0.7" ry="0.7"/>
	</g>
</g>
<path class="st19" d="M19,58.8"/>
<ellipse transform="matrix(0.9984 -5.721664e-02 5.721664e-02 0.9984 -3.8467 1.0144)" class="st20" cx="15.8" cy="67.7" rx="4.8" ry="4.8"/>
<path class="st21" d="M9.1,64.4c1.5,4.3,2.3,5.8,2.3,5.8c0.7,1.3,2,2.2,3.6,2.5c1.9,0.3,3.6-0.5,4.7-1.9c0,0,1.2-1.5,2.4-5.6
	c1.2-4.1,1.6-5.8,0.6-7.2c-1-1.4-4.2-3-6.5-3.5c-2.4-0.5-5.3-0.5-6.9,1.8C7.8,58.4,8.4,62.3,9.1,64.4z M17.4,57.8c0,0,0.6-0.1,2,0.5
	c1.3,0.5,1.8,0.7,2,0.8c0.2,0.1,0.6,0.3,0.5,1.1c-0.1,0.8-0.4,1.2-0.9,0.8c-0.5-0.4-1.2-0.8-1.8-1.1c-0.5-0.3-1.7-0.6-1.9-0.7
	c-0.4-0.1-0.6-0.4-0.6-0.8C16.8,58.1,17.1,57.9,17.4,57.8z M11.3,57.6c0.5-0.7,1.3-0.9,1.3-0.9l0,0c0,0,0.8-0.2,1.5,0.2
	c0.6,0.3,1.9,1.5,2,2.5c0.1,1.2-0.1,2-2.2,2.6v0c-2,0.5-2.7-0.1-3.1-1.2C10.4,59.8,10.9,58.2,11.3,57.6z"/>
<path class="st13" d="M20.1,61c0,0-0.4,1.5-0.4,1.6c0,0.1-0.2,0.4-0.3,0.4c-0.2,0-0.3,0-0.8-0.4c-0.5-0.4-1.9-0.8-2.8-0.8
	c-0.9,0-2.7,0.3-4,1.5c0,0-0.6,0.6-0.7,0.8c-0.1,0.2-0.4,0.3-0.6,0.2c-0.2-0.1-0.5-0.2-0.4-0.8"/>
<ellipse transform="matrix(0.1459 -0.9893 0.9893 0.1459 -53.4709 73.427)" class="st22" cx="15.8" cy="67.7" rx="1.7" ry="1.7"/>
<ellipse transform="matrix(0.147 -0.9891 0.9891 0.147 -53.4762 73.3508)" class="st13" cx="15.8" cy="67.7" rx="1.4" ry="1.4"/>
<path class="st21" d="M15,58.1c0,1-0.8,1.9-1.9,1.9l0,0c-1,0-1.9-0.8-1.9-1.9L11.1,33c0-1,0.8-1.9,1.9-1.9l0,0c1,0,1.9,0.8,1.9,1.9
	L15,58.1z"/>
<rect x="10.3" y="41" transform="matrix(1 -5.359150e-03 5.359150e-03 1 -0.2411 7.088038e-02)" class="st21" width="5.7" height="8"/>
<polyline class="st5" points="11.2,52.2 12.2,52.2 12.2,50.7 13.9,50.7 14,52.2 15,52.2 "/>
<line class="st5" x1="12.2" y1="52.2" x2="11.2" y2="53.4"/>
<line class="st5" x1="14" y1="52.2" x2="15" y2="53.4"/>
<g>
	<circle class="st6" cx="12.6" cy="6.2" r="6.2"/>
	<path class="st23" d="M15.8,2.6c0.1,0,0.2,0.1,0.3,0.1c0,0,0.1,0.1,0.1,0.2c0.1,0.2-0.5,0.8-0.7,0.9c-0.4,0.3-0.7,0.7-1.1,1
		C14.3,5,14,5.2,13.8,5.4c-0.3,0.4-1,0.4-0.8-0.3c0-0.1,0.3-0.2,0.3-0.3c-0.2-0.1-0.4-0.2-0.6-0.3c-0.7-0.3-0.8,0.6-1.4-0.4
		c-0.5-0.8,1.1-0.8,1.8-0.7c0.3,0,0.6,0.2,0.8,0.3c0.1,0,0.2,0.1,0.3,0.1c0,0,0,0,0,0c0.4-0.2,0.6-0.6,0.9-0.9
		c0.1-0.1,0.3-0.1,0.4-0.2C15.6,2.8,15.7,2.6,15.8,2.6z"/>
	<path class="st23" d="M8.8,2.7c0.1,0,0.2,0,0.3,0.1c0.4,0.2,0.6,0.6,0.9,0.8c0.3,0.3,0.6,0.5,0.9,0.8c0.1,0.1,0.3,0.3,0.4,0.4
		c0.2,0.1,0.4,0.2,0.5,0.4c0.1,0.1,0.1,0.2,0.1,0.4c-0.2,0.5-0.8-0.1-0.9-0.1c-0.4,0.7-0.2,1.7,0.3,2.3c0.1,0.2,0.3,0.2,0.5,0.3
		c0.5,0.3,1.4,0.3,1.8,0c0.2-0.1,0.3-0.3,0.5-0.4c0.2-0.2,0.4-0.3,0.4-0.5c0.1-0.3,0.1-0.7,0.1-1.1c0-0.1-0.1-0.3-0.1-0.4
		C14.5,5.5,15,5,15.2,5.1c0.1,0,0.2,0.3,0.3,0.4c0,0.1,0.1,0.3,0.1,0.4c0,0,0,0.1,0,0.1c0,0,0,0.6,0,0.7c-0.1,1.3-1,2.2-2.1,2.6
		c-0.8,0.3-2,0-2.6-0.4c-0.1-0.1-0.2-0.3-0.3-0.4c-0.2-0.2-0.4-0.2-0.5-0.4C9.8,7.8,9.5,6.8,9.5,6.2c0-0.4,0.1-0.9,0.3-1.2
		c0.1-0.2,0.2-0.3,0.2-0.4c-0.4-0.3-0.7-0.7-1-1C8.9,3.4,8.3,2.7,8.8,2.7z"/>
</g>
<path class="st1" d="M21.9,109.8c-0.1-1.1-0.2-1.9-0.2-2.6c0-1.8,0.3-17.2,0.2-12.1l-2.3,0c0.2-4.6-0.2,10.3-0.2,12.1
	c0,1.2,0.2,3.6,0.5,5.9L21.9,109.8z"/>
<g>
	<path class="st14" d="M22.3,285.6h-2c0-3.8-1.1-165.9-1.1-167.5l2,0C21.3,119.6,22.3,281.7,22.3,285.6z"/>
</g>
<g>
	
		<rect x="19.3" y="271.9" transform="matrix(0.2881 -0.9576 0.9576 0.2881 -236.5524 227.6933)" class="st14" width="31.2" height="2"/>
</g>
<path class="st14" d="M21.7,107.2c0,0-0.6,3.2-2.1,6.3c-1.5,3.1-1.1,7-0.5,8.7c0,0-0.9,1.1-0.3,2.1c0,0,0.1,0.3,0.3,0.5
	c0,0,0.5-0.9,1.2-0.7c0.7,0.2,1.2,1.2,1.3,1.7c0,0.4,0,1.2,0,1.2c2,0.5,1.6-1.2,1.6-1.2c0.5-0.3,0.9-1.1,0.8-1.7
	c-0.1-0.6-0.6-1-0.6-1c1.8-2.3,0.8-7.6,0.9-9.2c0.1-1.6-0.4-8.1-0.4-8.1c0.4-0.8,0.1-1.2,0.1-1.2c0.8-1,0.2-1.8,0.2-1.8
	c0.6-0.8,0.3-1.5,0.3-1.5c1-1.1,0-2.1,0-2.1c0.8-1.2-0.2-2-0.1-2c0.1,0,0.3-0.1,0.4-0.9c0-0.8-0.6-1.1-0.6-1.1s0.5-0.4,0.4-1.2
	c-0.2-0.8-1-0.9-1.5-0.8c-0.6,0.1-1.4,0.4-1.4,0.4c-0.5-0.9-1.7-1.5-2.3-0.7c-0.6,0.8,0,1.4,0,1.4c-1.6,0.7-0.4,2.3-0.4,2.3
	c-0.6,0.6-0.1,1.6-0.1,1.6c-0.5,0.8,0,1.7,0,1.7c-0.3,0.6,0.1,1.5,0.1,1.5c-0.5,0.5-0.3,1.3-0.3,1.3c-0.7,1.2,0,1.9,0,1.9
	c-1.2,1.7,0.8,3.9,0.8,3.9s-0.1-2,0.3-2.6c0.5-0.7,1.7-0.3,1.7-0.3s0.4,2.6,0.5,4.2c0.1,1.6,0.2,5.1,0.1,7.3"/>
<path class="st14" d="M24.2,113.2c0,0,0.6-0.9,2.5-1.1c1.9-0.2,4.1,0.2,4.7,0.3c0.6,0.2,0.9,0.5,0.9,1.2c-0.1,0.7-0.5,1-2,0.8
	c-1.5-0.3-5.2-1-5.9,1.9c0,0-0.1-1.6-0.1-2C24.2,114,24.2,113.2,24.2,113.2z"/>
<path class="st3" d="M22.1,112.4c0,0-0.7,2.2-1.2,4c-0.5,1.8,0,4.6,0.4,5.5"/>
<path class="st3" d="M19.3,94.2c0,0,0.9,0.8,2.2,11.3"/>
<path class="st3" d="M21.5,93.5c0,0,1.7,4,2.2,12.2"/>
<path class="st3" d="M22,95c0.6-0.1,1.3-0.1,2.1,0.1"/>
<path class="st3" d="M18.9,96.5c0,0,0.3-0.3,0.9-0.7"/>
<path class="st3" d="M22.5,96.5c0.6,0,1.2,0.2,1.8,0.6"/>
<path class="st3" d="M18.8,98.1c0,0,0.5-0.6,1.4-1.1"/>
<path class="st3" d="M22.8,98.2c0.5,0.2,1,0.4,1.6,0.9"/>
<path class="st3" d="M18.8,99.8c0,0,0.5-1,1.6-1.5"/>
<path class="st3" d="M23.2,100c0.5,0.2,0.9,0.5,1.3,1.1"/>
<path class="st3" d="M18.9,101.3c0,0,0.8-0.6,1.9-1.1"/>
<path class="st3" d="M23.4,101.9c0.2,0.2,0.5,0.4,0.7,0.7"/>
<path class="st3" d="M18.6,102.6c0,0,1-1,2.3-1.3"/>
<path class="st3" d="M23.6,104.1c0.1,0.1,0.2,0.3,0.2,0.3"/>
<path class="st3" d="M18.6,104.5c0,0,0.9-1.2,2.4-1.5c0.1,0,0.1,0,0.2,0"/>
<path class="st3" d="M19,122.2c0,0,0.9-0.9,2.4-0.4"/>
<path class="st1" d="M20.7,117.5c2.1,12.1,6.8,33.6,13.8,67c2.8,13.2,5.9,28.1,9.4,44.8c0.2,1.7,1,4.6,3.7,4.6l0.3-2.1
	c-1.1,0-1.6-2.1-1.7-2.8c-3.5-16.8-6.7-31.7-9.5-44.9c-7.4-35-12.3-57.8-14.2-69.4c-0.1-0.4-0.4-2.4-0.4-2.4s-0.1,0.6-0.3,1.2
	c-0.2,0.6-0.5,1.5-0.5,1.8C21.2,115.6,20.7,117.5,20.7,117.5z"/>
<path class="st21" d="M42.3,251.2c-0.3,0.9-1.2,1.4-2.1,1.1l0,0c-0.9-0.3-1.4-1.2-1.1-2.1l6.9-21.5c0.3-0.9,1.2-1.4,2.1-1.1l0,0
	c0.9,0.3,1.4,1.2,1.1,2.1L42.3,251.2z"/>
<path class="st5" d="M48.2,232.6c-0.4,0-1,0.3-1.5,1.8l-0.6-0.2l-0.3-0.1l-0.6-0.2c0.5-1.4,0.1-2.1-0.2-2.3"/>
<rect x="40.7" y="237" transform="matrix(0.304 -0.9527 0.9527 0.304 -197.3796 208.9101)" class="st21" width="7.2" height="5.1"/>
<polyline class="st5" points="40.7,245.1 41.5,245.4 41.9,244.1 43.4,244.6 43,245.9 43.9,246.2 "/>
<path class="st14" d="M38.9,265.6c-0.3-0.3-0.4-0.7-0.2-1.1c1-2,0.7-5.5,0.5-6.6c-0.1-0.5,0.3-1,0.8-1c0.5-0.1,1,0.3,1,0.8
	c0,0.2,0.8,4.8-0.7,7.7c-0.2,0.4-0.8,0.6-1.2,0.4C39,265.7,38.9,265.6,38.9,265.6z"/>
<path class="st14" d="M43.1,248.6c0.1,0,1,0.4,1.2,1.2c0.2,0.7,0.1,1.5-0.3,2.3c-0.9,1.7-1.8,3.4-1.8,3.4c-0.2,0.4-0.8,0.6-1.2,0.3
	c0,0-0.1,0-0.1-0.1c-0.3-0.3-0.4-0.8-0.2-1.2c0,0,0.7-1.2,1.4-2.6c0,0,0.3-0.9,0.4-1.2C42.6,250.3,43.1,248.6,43.1,248.6z"/>
<path class="st14" d="M40,252.4l0.1,0.4c0.4,1.6,1.1,3.1,1.1,3.1c0.2,0.4,0.1,1-0.4,1.2c-0.3,0.1-0.5,0.1-0.8,0
	c-0.2-0.1-0.3-0.2-0.4-0.4c0-0.1-0.8-1.7-1.3-3.5c-0.4-1.6-0.1-3,0.3-3.7c0,0,0.7-0.9,1.1-1.3c0,0-0.7,2.1-0.7,2.5
	c0,0.4,0.1,0.9,0.3,1.1C39.5,252.1,40,252.4,40,252.4z"/>
<path class="st14" d="M41.6,258.2c-0.1-0.1-0.2-0.2-0.3-0.4c-0.2-0.5,0.1-1,0.5-1.2c0.1,0,0.1-0.1,0.2-0.1c-0.5-0.4-0.9-0.1-1,0
	c-0.4,0.3-0.9,0.3-1.3-0.1c-0.3-0.4-0.3-0.9,0.1-1.3c0.7-0.7,2.2-1.2,3.5,0c0.7,0.6,0.7,1.3,0.6,1.7c-0.2,1-1.2,1.4-1.4,1.5
	C42.2,258.5,41.8,258.4,41.6,258.2z"/>
<path class="st14" d="M40.1,259.2l-0.2,0.5c0.2,0.1,0.4,0.2,0.7,0.2c1.1-0.2,1.5-0.9,1.5-1.5c0-0.9-1-1.7-2.2-1.8
	c-0.8-0.1-1.3,0.2-1.6,0.5c-0.7,0.6-0.8,1.5-0.8,1.6c0,0.3,0.1,0.6,0.3,0.8c0.1,0.1,0.1,0.1,0.2,0.1l0.3-0.6c0,0,0.4-0.7,1.2-0.5
	C39.4,258.3,40.4,258.5,40.1,259.2z"/>
<path class="st14" d="M41.6,259.3c0.6-0.3,1-1,1.1-1.8c0.1-0.9-0.4-2-2-2.2c-2.1-0.3-3.1,1-3.3,2c-0.1,0.3,0,0.5,0.2,0.7
	c0,0,0.3-0.9,0.8-1.2c0.5-0.3,1.2-0.5,1.7-0.3c0.5,0.1,1.3,0.3,1.8,1.1C42.3,258.4,41.6,259.3,41.6,259.3z"/>
<path class="st21" d="M21.9,281.7c1.5-1.4,3.8-1.9,5.8-1.1c2.1,0.8,3.3,2.8,3.3,4.9"/>
<path class="st21" d="M27.2,281.8c-1.4-0.6-2.6-0.2-2.8-0.1c-0.2,0.1-0.6,0.1-1.1,0.1c-0.5,0-2.5,0-3.1,0c-0.6,0-0.7,0-1,0.1
	c-0.3,0.2-0.5,0.6-0.7,1.2c-0.2,0.6-0.6,1.8-0.7,2.6c-0.1,0.8,0,1.2,0,2.4c0,1.2-0.3,2.3-0.3,2.3s-0.5,2-0.6,2.7
	c-0.2,0.7-0.4,1.7-0.4,2.4c0,0.7,0.3,1.8,0.7,2.5c0.4,0.7,1.3,1.6,2.4,2.1l0,0c1.2,0.5,2.4,0.4,3.2,0.2c0.8-0.2,1.7-0.7,2.3-1.3
	c0.5-0.5,1-1.3,1.4-2c0.4-0.6,1.5-2.4,1.5-2.4s0.6-1,1.4-1.8c0.8-0.9,1.2-1.1,1.7-1.7c0.5-0.6,1.1-1.7,1.4-2.3
	c0.2-0.6,0.5-1.1,0.4-1.4c-0.1-0.3-0.2-0.4-0.6-0.8c-0.4-0.4-1.9-1.9-2.2-2.2c-0.3-0.3-0.6-0.6-0.7-0.8
	C29.2,283.4,28.6,282.3,27.2,281.8L27.2,281.8z"/>
<ellipse transform="matrix(0.3811 -0.9246 0.9246 0.3811 -248.1755 200.4907)" class="st21" cx="25.7" cy="285.6" rx="1.9" ry="1.9"/>
<path class="st3" d="M27.1,289.7c0.2,0,1-0.3,1.7-1.1c0.7-0.8,0.7-1,0.7-1.2c0-0.1-0.1-0.3-0.3-0.4c-0.3-0.1-0.5-0.2-0.6-0.2
	c-0.1,0-0.2,0-0.3,0.1c-0.1,0.1-0.2,0.3-0.4,0.5c-0.1,0.2-0.4,0.5-1,0.7c0,0-0.1,0.1-0.4,0.1c-0.2,0-0.4,0.2-0.4,0.5
	c0,0.2,0,0.5,0.1,0.7c0,0.1,0.2,0.4,0.5,0.4C26.8,289.8,26.9,289.7,27.1,289.7z"/>
<path class="st3" d="M21.7,287.5c-0.1-0.1-0.5-0.9-0.4-1.9c0.1-1,0.2-1.2,0.3-1.3c0.1-0.1,0.3-0.2,0.5-0.1c0.3,0.1,0.5,0.2,0.5,0.3
	c0.1,0.1,0.1,0.2,0.1,0.3c0,0.1-0.1,0.4-0.1,0.6c0,0.2-0.1,0.7,0.2,1.2c0,0,0.1,0.2,0.2,0.3c0.1,0.2,0.2,0.5,0,0.6
	c-0.2,0.2-0.4,0.4-0.5,0.4c-0.1,0.1-0.5,0.1-0.6-0.1C21.9,287.8,21.8,287.6,21.7,287.5z"/>
<path class="st2" d="M22.8,292.4c-1.1-0.5-1.8-1-1.9-1.1c-0.2-0.1-0.4-0.1-0.7-0.1c-0.3,0.1-0.4,0.3-0.6,0.7
	c-0.1,0.4-0.4,1.3-0.4,1.3s-0.3,1-0.3,1.7c0,0.7,0.1,1.2,0.3,1.5c0.2,0.3,0.5,0.9,1.4,1.2l0,0c0.9,0.4,1.6,0.2,1.8,0.1
	c0.3-0.1,0.8-0.4,1.2-0.8c0.5-0.5,1-1.4,1-1.4s0.5-0.8,0.6-1.2c0.2-0.3,0.2-0.6,0.1-0.9c-0.1-0.3-0.3-0.4-0.5-0.4
	C24.8,292.9,24,292.9,22.8,292.4L22.8,292.4z"/>
<path class="st3" d="M23.2,291.4c-2.1-0.8-2.9-2.4-3.1-2.7c-0.1-0.3-0.1-0.8-0.6-0.8c-0.5,0-0.5,1.7-0.7,2.7c-0.2,1-0.6,2.9-0.6,2.9
	s-0.3,1.3-0.4,1.7c0,0.4,0,2.6,2.3,3.6l0,0c2.3,0.9,3.9-0.6,4.1-0.9c0.2-0.3,1-1.5,1-1.5s1-1.6,1.6-2.4c0.6-0.9,1.8-2.1,1.4-2.4
	c-0.3-0.3-0.6,0-1,0.2C27,291.8,25.3,292.2,23.2,291.4L23.2,291.4z"/>
<path class="st21" d="M19.9,295.2c0.4-0.8,1.4-1.2,2.2-0.8l0,0c0.8,0.4,1.2,1.4,0.8,2.2l-9.2,20.6c-0.4,0.8-1.4,1.2-2.2,0.8l0,0
	c-0.8-0.4-1.2-1.4-0.8-2.2L19.9,295.2z"/>
<path class="st5" d="M11.9,313c0.4,0,1.1-0.2,1.7-1.6l0.6,0.3l0.2,0.1l0.6,0.3c-0.6,1.4-0.3,2.1-0.1,2.3"/>
<rect x="12.9" y="304" transform="matrix(0.4091 -0.9125 0.9125 0.4091 -269.9632 196.2619)" class="st21" width="7.2" height="5.1"/>
<polyline class="st5" points="20.8,301.4 20,301.1 19.4,302.3 18,301.6 18.5,300.4 17.7,300 "/>
<line class="st5" x1="20" y1="301.1" x2="21.2" y2="300.4"/>
<line class="st5" x1="18.5" y1="300.4" x2="18.1" y2="299"/>
<path class="st0" d="M34.6,38.5c0,0,0.2-3-4.2-0.7l-0.6-2.2c0,0,7.3-2.4,7.5,2.8L34.6,38.5z"/>
<g>
	<g>
		<g>
			<g>
				<path class="st14" d="M33.6,29.9c-0.5-1-0.9-1.3-1.3-1.7C32,28,30,27.1,30,27.1l-0.7,0.9c0,0,1.5,1.3,2.1,2.9 M30.3,27.6
					l-0.6,0.8 M31.4,31c0,0,0.2,0.4,0.3,1.3c0,0,0.2,0.9-0.2,2.4c0,0-0.2,0.9-0.9,2.1c0,0-0.8,1.7-2,2.1c0,0-0.9,0.4-2.1-0.5l-2-1.6
					L22,34.6c0,0-2.4-2.1-3.4-3.2c0,0-1.8-1.8-2.6-2.6c0,0-1.1-1.2-1.4-1.7c0,0-0.4-0.8,0.1-1.6c0,0,0.1-0.1,0.3-0.4
					c0,0,0-1.6,0-2.1c0-0.5,0-1.2,0-1.2c-0.5,0.3-1.6,1-2.2,1.9c0,0-0.8,0.9-0.8,2.2c0,0-0.1,1.3,0.6,2.5c0,0,0.5,1,1.6,2.2l1.2,1.3
					c0,0,1.5,1.5,2.2,2.2l1.5,1.4l2.5,2.2l1.7,1.5c0,0,2.2,1.9,3.2,2.1c0,0,1.1,0.4,2.2,0.2c0,0,1.3-0.1,2.2-1c0,0,1.1-0.8,1.7-2.1
					c0,0,0.7-1.2,1.2-2.6c0,0,0.5-1.4,0.4-2.7c0,0,0-2-0.6-3.1 M18.7,22.7c0,0,0.8-0.1,2.1,0.2l0.4,0.3c0.2,0.2,0.4,0.3,0.6,0.5
					c0.2,0.1,0.4,0.1,0.7-0.2c0.3-0.3,0.7-0.7,0.8-0.9c0.2-0.2,0.2-0.6-0.2-1L22,20.7c0,0-0.2-0.2-1.5-0.4c0,0-0.5-0.3-1.6-0.1
					c0,0,0,0.7,0,1.1C18.8,21.6,18.7,22.7,18.7,22.7z"/>
			</g>
		</g>
	</g>
	<path class="st24" d="M30.5,29.3c0.2,0.2,0.4,0.8,0.8,0.7c0.3-0.1,0.5-0.5,0.7-0.7c0.2-0.2,0.4-0.9,0-1.2"/>
	<line class="st25" x1="31.8" y1="28.3" x2="30.8" y2="29.7"/>
	<path class="st24" d="M21.4,20.7c-0.7-0.3-1.3-0.3-2,1.3c-0.1,0.2,0,0.3,0,0.4"/>
	<path class="st14" d="M29.3,29.9c0,0,0.2,0.2,0.6-0.2c0.1-0.1,0.3-0.4,0.7-1c0.4-0.6,0.1-0.9,0-0.9c0,0-0.1-0.1-0.3-0.3
		c-0.1-0.1-0.3,0-0.6-0.3c-0.5-0.4-0.3-0.4-0.5-0.6c-2.6-2.1-7.6-6.1-7.6-6.1c-0.4-0.3-0.8,0-1.1,0.5c-0.4,0.5-0.7,0.8-0.3,1.1
		c0.4,0.4,1.3,1.1,1.3,1.1s0.6,0.4,0.5,0.5L29.3,29.9z"/>
	<g>
		<g>
			<path class="st14" d="M29.9,27.2c0.3-0.5,0.1-0.7,0.1-0.7L29.5,26l0-0.2c0,0-2.9-2.4-3.1-2.6c-0.2-0.2-0.2-0.1-0.2-0.1
				s-0.3-0.2-0.5-0.4c-0.2-0.1-0.3-0.1-0.4-0.1L25,22.9c-0.4,0.6-1.2,1.6-1.8,2.2c-0.1,0.1-0.3,0.3,0.1,0.6c0.4,0.3,0.5,0.4,0.5,0.4
				l0,0.1L27,29h0.1l0.5,0.4c0,0,0.2,0.2,0.7-0.2C28.8,28.7,29.6,27.8,29.9,27.2z"/>
		</g>
	</g>
	<path class="st21" d="M21.4,22.4c-0.2-0.2-0.2-0.4,0-0.6c0.2-0.2,0.4-0.2,0.6,0c0.2,0.2,0.1,0.4,0,0.6
		C21.8,22.5,21.6,22.5,21.4,22.4"/>
</g>
<path class="st3" d="M30.6,36.4c0,0-0.4-0.3-0.1-0.6"/>
<path class="st0" d="M33.8,35.9c0.1,0,0.3,0,0.3,0c0.3,0,0.6,0.1,0.6,0.1c0.3,0.1,0.5,0.2,0.6,0.4l0,0c0.7,0.6,0.9,2.1,0.8,3.6l0,0
	c-0.1,0.6-0.3,1.1-0.6,1.4l0,0c-0.7,0.8-2,1.1-3.1,0.7l0,0c-0.8-0.3-1.6-0.7-2.2-1.3l0,0c-0.7-0.7-1.2-1.5-1.3-2l0,0
	c0-0.1,0-0.3,0.3-0.6l0,0c0.2-0.2,0.5-0.4,0.7-0.6l0,0c0.1-0.1,0.2-0.1,0.3-0.2l0,0c0.1,0,0.1,0,0.1,0l-1-2h0l0,0
	c-0.1,0-0.9,0.4-1.7,1.2l0,0c-0.5,0.6-1.1,1.5-0.9,2.6l0,0c0.3,1.2,1,2.3,2,3.2l0,0c0.8,0.8,1.8,1.4,3,1.8l0,0
	c1.9,0.6,4,0.1,5.4-1.3l0,0c0,0,0,0,0,0l0,0c0.7-0.7,1.1-1.7,1.2-2.8l0,0c0.1-1.7,0.1-3.9-1.5-5.4l0,0c-0.5-0.5-1.2-0.8-1.9-1
	c0,0-0.3-0.1-0.6-0.1c0,0,0-0.1-0.1,0c0,0,0,0.5-0.1,1.2C34,35.3,33.8,35.9,33.8,35.9z"/>
<path class="st0" d="M30.9,36.1l-0.1,0c-0.1,0-0.2,0.1-0.4,0.1l0,0c0.3,0.3,1.2,0.7,2.6,0.9l0,0c0.8,0.1,1.7,0.3,2.9,0.6
	c0.3,0.8,0.1,2.4,0.1,2.4c-1.4-0.4-2.5-0.7-3.3-0.8l0,0c-1.6-0.3-2.9-0.7-3.8-1.5l0,0c-0.4-0.4-0.8-1-0.9-1.6l0,0
	c-0.1-0.6,0.2-1.1,0.5-1.4l0,0c0.4-0.5,0.9-0.7,1.4-0.8c0,0,1.2-0.4,1.8-0.5c0,0-0.1,0.6-0.2,1.2C31.3,35.4,30.9,36.1,30.9,36.1z"/>
<path class="st1" d="M92.3,89.7c-3-12.3-10.6-26.3-29.5-30.7c-9.9-2.3-22.6-7-26.6-16c-0.7-1.6-0.2-2.6-0.1-2.8c0,0-0.4-0.1-0.6-0.2
	c-0.3-0.1-0.8-0.2-1-0.3c-0.2-0.1-0.5-0.1-0.5-0.1c-0.4,1-0.5,2.5,0.3,4.2c4.4,9.8,17.7,14.7,28.1,17.2C81.8,65.6,88.7,80.6,91,93.8
	c0,0,0.2-0.8,0.3-1.1c0.1-0.3,0.4-1.2,0.5-1.6C92,90.6,92.3,89.7,92.3,89.7z"/>
<g>
	<polygon class="st9" points="66.1,55.5 59.9,66.1 58.6,64.5 64.8,53.9 	"/>
	<line class="st10" x1="58.6" y1="64.5" x2="64.8" y2="53.9"/>
	<line class="st10" x1="59.9" y1="66.1" x2="66.1" y2="55.5"/>
</g>
<g>
	<path class="st0" d="M92.1,33.3c1,0.4,2,0.8,2.8,1.1c1.9,0.7,3.3,1.3,4.3,2c1.1,0.7,1.6,1.2,1.8,1.7c0.1,0.1,0.1,0.3-0.1,0.6
		c-0.1,0.2-0.3,0.3-0.6,0.4c-0.6,0-1.4-0.2-2.3-0.7c-1.4-0.8-3-2-4.4-3.5C93.3,34.3,92.7,33.8,92.1,33.3c-3.3-1.3-7.1-3-8.9-4.2
		l-1.4-0.9l-0.1,0.2c2.1,1.3,8.3,6.4,10,8.2c1.1,1.2,2.9,2.9,4.9,4c1.3,0.7,2.7,1.2,4,1.1c1.1-0.1,2-0.7,2.7-1.6
		c0.6-0.9,0.7-2,0.4-3c-0.4-1.1-1.3-2.1-2.9-3.1c-1.2-0.8-2.9-1.5-4.8-2.2c-3.4-1.2-8.9-3.6-11.2-5l-2.3-1.5l-1.5,2.3l0.9,0.6"/>
</g>
<g>
	<path class="st0" d="M85.9,27.5c-0.1,0.2-0.1,0.4-0.2,0.6c-0.4,1.3-0.8,2.8-0.9,3.9c0,0.3,0,0.6,0,0.8c0,0,0,0.1,0,0.1
		c0.1,0.5,0.3,0.7,0.8,1.1c0.4,0.3,1.1,0.4,1.6,0.1c0.6-0.4,0.8-0.8,0.8-0.8c0,0-0.5-0.4-0.5-0.5c-0.2-0.3-0.1-0.6,0-1.2
		c0,0,0,0,0,0c0.2-0.9,0.6-2,0.7-2.4c0.1-0.4,0.2-0.7,0.3-0.9c0.3-1.1-0.5-2.5-1.9-3.5c-0.2-0.1-0.3-0.2-0.5-0.2
		C86.3,25.2,86.4,26.2,85.9,27.5z"/>
	<g>
		<path class="st0" d="M81.2,29.1c-0.1,0-0.3,0-0.4,0c-0.4,0-0.9-0.1-1.3-0.1l0,0c0,0.2,0.1,0.4,0.2,0.6l0,0c0,0,0,0.1,0,0.1
			c0,0,0,0,0,0c0,0,0,0.1,0,0.1c0,0,0,0,0,0c0,0,0,0.1,0,0.1c0,0,0,0,0,0c0.1,0.1,0.1,0.1,0.2,0.2c0,0,0,0,0,0.1c0,0,0,0,0,0
			c0,0,0,0,0.1,0.1c0,0,0,0,0,0c0,0,0,0,0.1,0.1c0,0,0,0,0,0c0,0,0,0,0.1,0.1c0,0,0,0,0,0c0,0,0.1,0.1,0.1,0.1
			c0.5,0.4,1.1,0.6,1.8,0.6c0.1-0.6,0.2-1.2,0.3-1.8C82.1,29.2,81.7,29.1,81.2,29.1z"/>
		<g>
			<path class="st0" d="M83.6,25.6c0,0,0-0.1,0-0.1c0.1-0.7,0.3-1.8,0.1-2.6c0,0,0,0,0,0c0,0,0-0.1,0-0.1c-0.4-1.7-1.6-2.1-2.2-2.2
				c-0.3,0-0.6,0-0.8,0.1c0.3,0.3,0.5,0.8,0.6,1.3c0.2,0.8,0.2,1.7,0.2,2.5c0,0.6,0,1.4,0,1.9c0,0,0,0,0,0c0.6,0.1,1.2,0.1,1.8,0.2
				c0,0,0-0.1,0-0.1C83.4,26.1,83.5,25.8,83.6,25.6z"/>
			<path class="st0" d="M84.3,23c-0.2-0.1-0.4-0.1-0.6-0.1c0,0,0,0,0,0c0.2,0.8,0.1,1.9-0.1,2.6c0,0.1,0,0.1,0,0.1
				c-0.1,0.2-0.2,0.6-0.3,0.9c0,0,0,0.1,0,0.1c0,0.1-0.1,0.2-0.1,0.3c0,0,0,0,0,0c0,0.1-0.1,0.2-0.1,0.3c0,0,0,0.1,0,0.1
				c0,0.1,0,0.1-0.1,0.2c0,0,0,0.1,0,0.1c0,0.1-0.1,0.2-0.1,0.3l0,0c0,0.1-0.1,0.3-0.1,0.4v0l0,0c0,0.1-0.1,0.3-0.1,0.4c0,0,0,0,0,0
				c0,0.1-0.1,0.3-0.1,0.4c-0.1,0.7-0.3,1.2-0.3,1.8c0,0.3,0,0.6,0,0.9l0,0c0,0.7,0.7,1.2,1.4,1.3c0.6,0.1,1.2-0.3,1.2-0.3s0,0,0,0
				c0,0,0-0.1,0-0.1c0-0.2,0-0.5,0-0.8c0.1-1.1,0.5-2.6,0.9-3.9c0.1-0.2,0.1-0.4,0.2-0.6c0.4-1.3,0.4-2.2,0.1-2.9
				C85.6,23.6,84.8,23.2,84.3,23z"/>
		</g>
	</g>
</g>
<g>
	<g>
		<path class="st0" d="M81.5,26.4C81.4,26.4,81.4,26.4,81.5,26.4c-0.1,0-0.2,0-0.3,0c-0.6-0.1-1.1-0.2-1.6-0.2c-0.1,0-0.1,0-0.2,0
			c-0.4,0-0.9-0.2-1.2-0.3l-1.7-1.1c-0.2,0.3-0.3,1.3,0,2.1c0.6,1.4,1.7,1.8,3,2c0.4,0.1,0.9,0.1,1.3,0.1c0.1,0,0.3,0,0.4,0
			c0.5,0,1,0.1,1.4,0.2c0-0.1,0.1-0.3,0.1-0.4c0,0,0,0,0,0c0-0.1,0.1-0.3,0.1-0.4v0c0-0.1,0.1-0.3,0.1-0.4c0.1-0.5,0.3-0.9,0.4-1.4
			C82.7,26.5,82.1,26.4,81.5,26.4z"/>
	</g>
</g>
<g>
	<path class="st0" d="M79,19.8c-0.7-0.1-1.4,0.4-1.5,1.2c0,0,0,0.1,0.1,0.1c0.1,0.1,0.2,0.2,0.3,0.3c0.1,0.1,0.2,0.3,0.3,0.4
		c0.1,0.2,0.2,0.3,0.3,0.5c0,0,0,0.1,0,0.1c0,0,0,0,0,0c0,0,0,0,0,0c0,0,0,0,0,0c0.2,0.4,0.2,2,0.3,2.5c0.1,0.4,0.3,0.8,0.4,1.2
		c0.1,0,0.1,0,0.2,0c0.5,0,1.1,0.1,1.6,0.2c0.1,0,0.2,0,0.2,0c0-0.4,0-1,0-1.6c0-0.1,0-0.2,0-0.3c0-0.8,0-1.7-0.2-2.5
		c-0.1-0.6-0.4-1-0.6-1.3C80.1,20,79.5,19.8,79,19.8z"/>
</g>
<circle class="st6" cx="101.7" cy="38.3" r="6.1"/>
<path class="st26" d="M102.3,35.9v0.3c0,0,0,0,0,0h3.8c0,0,0,0,0,0v-1.6c0,0,0,0,0,0h-3.8c0,0,0,0,0,0v0.3h0.5v1L102.3,35.9z"/>
<path class="st26" d="M101.2,34.9v-0.3c0,0,0,0,0,0h-3.8c0,0,0,0,0,0v1.6c0,0,0,0,0,0h3.8c0,0,0,0,0,0v-0.3h-0.5v-1.1H101.2z"/>
<path class="st7" d="M99.9,39.5c0,0,1-2,1.3-2.3l0-0.7c-0.1,0-2.2,2.6-2.2,2.6c-0.8-0.3-1.9-0.1-2.4,1.4c0,0.4,0.1,1,1,1.7
	c0.9,0.7,1.6,0.8,2.4,0.9c0.8,0.1,1-0.7,1.1-1.1C101.2,41.6,101.2,40.1,99.9,39.5z M97.8,39.9c1-0.2,2.3,0.2,2.8,1.7
	C99.8,41.7,98.4,41.5,97.8,39.9z"/>
<path class="st7" d="M102.3,37.3c0.5,0.7,1.2,2.3,1.2,2.3c-1.3,0.5-1.2,2.1-1.2,2.5c0.1,0.4,0.2,1.2,1.1,1.1
	c0.8-0.1,1.5-0.2,2.4-0.9c0.9-0.7,1-1.2,1-1.7c-0.5-1.5-1.6-1.7-2.4-1.4c0,0-1.3-1.6-1.9-2.4c-0.1-0.1-0.1-0.1-0.1-0.2 M102.8,41.5
	c0.5-1.5,1.8-1.9,2.8-1.7C105.1,41.5,103.6,41.7,102.8,41.5z"/>
<polyline class="st26" points="100.6,35.1 101.7,35.1 101.7,35.7 100.6,35.7 "/>
<polyline class="st26" points="103.3,35.7 102.3,35.7 102.3,35.1 103.3,35.1 "/>
<path class="st26" d="M102.1,37.1C102.1,37.2,102,37.2,102.1,37.1l-0.6,0c0,0,0,0,0,0v-2.8c0,0,0,0,0,0h0.6c0,0,0,0,0,0V37.1z"/>
</svg>
