<?xml version="1.0" encoding="utf-8"?>
<!-- Generator: Adobe Illustrator 21.0.0, SVG Export Plug-In . SVG Version: 6.00 Build 0)  -->
<svg version="1.1" id="Calque_1" xmlns="http://www.w3.org/2000/svg" xmlns:xlink="http://www.w3.org/1999/xlink" x="0px" y="0px"
	 viewBox="0 0 372.3 707.9" style="enable-background:new 0 0 372.3 707.9;" xml:space="preserve">
<style type="text/css">
	.st0{fill:#00B0E5;stroke:#1A171B;stroke-width:0.8;stroke-linecap:round;}
	.st1{fill:none;stroke:#000000;stroke-width:0.8;}
	.st2{fill:#FFFFFF;}
	.st3{fill:#FFFFFF;stroke:#1A171B;stroke-width:0.8;}
	.st4{fill:none;stroke:#1A171B;stroke-width:0.8;}
	.st5{fill:#FFD400;stroke:#1A171B;stroke-width:0.8;}
	.st6{fill:#00B0E5;stroke:#000000;stroke-width:0.8;}
	.st7{fill:#00B0E5;stroke:#000000;stroke-width:0.8;stroke-linecap:round;stroke-linejoin:round;}
	.st8{fill:#9B9C9E;}
	.st9{fill:#E2E3E4;}
	.st10{fill:#FFFFFF;stroke:#1A171B;stroke-width:0.8;stroke-linecap:round;stroke-linejoin:round;}
	.st11{fill:none;stroke:#007E50;stroke-width:0.8;stroke-linecap:round;stroke-linejoin:round;}
	.st12{fill:none;stroke:#1A171B;stroke-width:0.8;stroke-linecap:round;stroke-linejoin:round;}
	.st13{fill:#FFFFFF;stroke:#000000;stroke-width:0.8;stroke-miterlimit:10;}
	.st14{fill:none;stroke:#000000;stroke-width:0.8;stroke-miterlimit:10;}
	.st15{fill:none;stroke:#1A171B;stroke-width:0.8;stroke-miterlimit:10;}
	.st16{fill:#FFFFFF;stroke:#1A171B;stroke-width:0.8;stroke-miterlimit:10;}
	.st17{fill:url(#SVGID_1_);}
	.st18{fill:#E2E3E4;stroke:#1A171B;stroke-width:0.8;}
	.st19{fill:none;stroke:#1A171B;stroke-width:0.8;stroke-linecap:round;}
	.st20{fill:#9B9C9E;stroke:#1A171B;stroke-width:0.8;stroke-linecap:round;}
	.st21{fill:#E6E6E6;stroke:#1A171B;stroke-width:0.8;}
</style>
<g>
	<path class="st0" d="M294.7,515.1"/>
	<path class="st0" d="M291.8,515.8"/>
	<path class="st0" d="M293.9,514"/>
	<path class="st0" d="M294.6,510.4"/>
	<path class="st1" d="M318.8,534.1c0.5-0.2,1.8,4.7,2,5.6c0.2,1.1,0.2,2.1,0.4,3.3c0.2,1.1,0.8,2.2,0.7,3.4c0.4-1.5-0.2-3-0.2-4.5
		c0.2,0,0.3-0.1,0.4,0c0.1,0.3,0.2,0.6,0.2,0.9c-0.1-0.8-0.1-1.4,0.1-2.2c0.4-1.6,0.5-2.2-0.2-3.9c-0.7-1.8-0.9-4.3,0.9-5.3
		c-0.1-0.1-0.2-0.5-0.3-0.6c1.1-0.7,2-0.3,3.1-0.9c0.1-0.5,2.5-0.5,3.2-0.7c0,0,0-1.8,1.3-2.4c1.3-0.6,4.9,1.6,5.2,4.7
		c0,0,0.1-7.3,2.5-7.5c2.5-0.3,7.1,10.6,7.8,17.1c0,0-1.2-20.3,2.2-22.2"/>
	<path class="st1" d="M291.7,543c8.4-2.3,13.5-7.2,21.2-11.2c7-3.7,14.5-6.5,21.8-10.6c0,0,21.9,2.6,26-18.9"/>
	<path class="st1" d="M223.9,568.1c5.6-2.6,9-4.6,15.2-6.1c5.3-1.2,13-3.5,17-7.1c2.6-2.4,2.4-4.7,6.1-6.2c2.8-1.1,6.8-1,9.8-1.7"/>
	<path class="st1" d="M314.5,537.3"/>
	<path class="st1" d="M319.1,532.5c0.2,2.8-2.9,4.1-5,5"/>
	<path class="st1" d="M314.6,535.6c-0.2,1.1,0,1.7-1,2.5c-0.6,0.5-2,1.6-2.6,1.5"/>
	<path class="st1" d="M311.3,537.4c-0.3,1.6-0.1,3.1-0.3,4.7c-0.1,0.8-0.6,1.3-0.6,2.1c-0.1,0.8,0.2,1.7,0.2,2.5
		c-0.1,1.6-0.3,3.4-0.3,5c0,1.6-0.2,3.3-0.1,4.7c0.1,1,0.1,1.4,0.2,2.4"/>
	<path class="st1" d="M309,559c-0.1-0.7-0.3-1.4-0.3-1.8c-0.2-1.7,0.6-3.2,0-4.7c-0.8-1.8-1.9-4.1-1.7-6.2c0.2-1.7-0.8-3.1-1.4-4.7
		c0.3,0.7,0.1,1.5,0.1,2.3c-0.1,0.9,0.2,1.8,0.1,2.7c-0.1,0.9-0.3,1.4-0.2,2.3c0.1,0.7,0.2,1.7,0.1,2.4c-0.1-0.4-0.7-1.2-0.8-1.8
		c-0.2-0.8-0.3-1.6-0.4-2.5c-0.1-1.2-1.6-3.1-1.4-3.9"/>
	<path class="st1" d="M302.9,543.3c-0.6-0.3-1.1,0.8-1.7,1.1c-0.3,0.2-0.6-0.3-0.9,0c-0.2,0.1-0.6,0.6-0.7,0.8"/>
	<path class="st1" d="M299.8,543c-0.1,1.8-1.2,2.7-2.8,3.1c-0.2,0.1-0.7,0.3-0.9,0.3c-0.3,0-0.6-0.4-1-0.3c-0.5,0.1-0.9,0.4-1.6,0.6
		c-1.4,0.3-3.3-0.4-4.5-0.8c-1-0.3-2.9-0.9-3.4-1.4"/>
	<path class="st1" d="M245.3,584.2c-0.8-1.5-4.3-21.1-4.9-22.5"/>
	<path class="st1" d="M308.4,531.7c-0.5,0.7-1.3,0.7-2.1,1c-1.1,0.6-2,1.6-3,2.1c-1.9,1.1-3.6,2.5-5.3,3.9c-2.4,2-5.3,3.6-8.2,4.6
		c-3.3,1-6.9,1.9-10.3,2.7c-1.9,0.5-3.9,0.6-5.8,1c-1.8,0.3-2.7-0.2-4.3-0.7c-0.9-0.3-2.1-0.5-3.1-0.6"/>
	<path class="st1" d="M262.1,542.3c-0.8,0.8-0.9,1.5-1.6,2.5c-0.9,1.4-2.4,5.9-3.6,6.9c-1.8,1.5-6.1,2-8.5,3.1
		c-3.8,1.8-7.2,4.7-11.8,4.6c-2-0.1-4.3-0.9-6.3-1.1"/>
	<path class="st1" d="M303.6,526.2c2.9-0.3,5-3.2,7-4.9c1-0.8,1.8-1.1,2.7-2.1c2.2-2.5,4.8-4.7,5.7-7.7"/>
	<g>
		<path class="st2" d="M299.9,498.2c0,0,2.8-1.8,4.8-3.4c1.9-1.6,7.2-4.7,7.2-4.7s3.3-2.5,2.8-5.8l0-0.1c-0.1-1-0.3-2-0.6-2.5
			c0,0,0.1-0.4,0.2-1.1l0-0.1c0,0,0.3-1.1-1.9-1.8c-2.2-0.6-4.5-3-7.7-1.1c-3.2,1.9-4.2,2.9-4.5,3.3c-0.3,0.5-3.2,3.7-3.6,4.9
			c-0.4,1.2-5.5,4.9-5.9,6.4c-0.4,1.5-0.8,1.7-1,2c-0.2,0.3-4.5,4.6-4.5,4.6s-1.2,1-3,0.6c-1.7-0.5-3.3-1.2-3.3-1.2l-0.1,0
			c-1.6-0.1-1-0.3-1.9-0.4c-1.1-0.1-2.1-0.6-4.2-0.3c-2.1,0.3-3,1-3.3,1.4c-0.3,0.4,3,1.9,3,1.9l0.1,0c0.2,0,0.4,0,0.4,0
			s2.9,1.7,3.8,2.1c0.9,0.4,3.9,1.3,4.7,1.4c0.9,0.1,4,0.7,4.6,0.5c0.7-0.2,3.9-1.4,6.2-2.9c2.3-1.5,5.4-3,5.9-3.2
			C298.4,498.8,299.9,498.2,299.9,498.2z"/>
		<path class="st2" d="M272.2,501.1c-1-0.1-3.2-0.4-4-0.6c-0.3-0.1-0.6-0.1-1-0.2l-0.1,0c-0.9-0.3-1.2-0.6-1.1-1
			c0.3-1.5,7.7-3.3,10.3-2.5c1.7,0.5,4.5,1.7,4.5,1.7l0.1,0c-0.3,0-0.7,0-1.1,0c-2.9,0-1.9-0.3-3.1-0.4c-1.1-0.1-2.1-0.6-4.2-0.3
			c-2.1,0.3-3,1-3.3,1.4C269,499.6,272.3,501.1,272.2,501.1l0.2,0L272.2,501.1c0.1,0-3.2-1.5-2.9-1.9c0.3-0.4,1.2-1.1,3.3-1.4
			c2.1-0.3,3.1,0.3,4.2,0.3c1,0,0.4,0.3,1.9,0.4l0.1,0"/>
	</g>
	<g>
		<path class="st3" d="M319.9,497.4c0,0,1.1,4,1.8,5.9c0.7,1.9,1.1,5.8,1.5,6.9c0.4,1.2,1.5,8.2,1.7,9l-4.9-3.5c0,0-1.1-3.5-1.3-6.1
			c-0.3-2.6-0.6-7.7-1.4-8.3"/>
		<path class="st4" d="M314.1,481.8c0,0,1-4-0.8-7.2c-1.8-3.1-3.9-6.7-5.5-7.7c-1.6-1-1.7-1-3.7-2.3c-2-1.4-3.6-5.3-5.2-5.1
			c-1.6,0.2-7.5,1.8-8.3,2.5c-0.8,0.7-3.9,3-7,4.5c-3.2,1.5-4.2,3.8-4.2,3.8l-4.3,7c0,0-3.1,3.5-3.7,3.3c-0.6-0.2-1.9,0.1-2.8-0.6
			c-0.9-0.6-5.5-2.4-7.4-3.1c-2-0.7-6-0.4-7.4-0.6c-1.5-0.2-2.3,0.2-2.3,0.2l0.3,2.5c0,0-0.8,3-0.6,3.4c0.2,0.4-0.2,3.4,1.9,5.2
			c0,0-2.8-1.2-5,0c-2.2,1.2-3.6,5.1-2.8,7.1c0.7,2.1,4.6,4.6,8.2,3.6l4.2,2c0,0,2.3,7.1,3.8,9.9c1.4,2.8,8.5,13.1,17.7,12.7
			c0,0,1.5,2.2,3.2,2.9c1.6,0.7,3.4,0.5,6.1,1.9c2.7,1.4,3.9,2.1,3.9,2.1l1.4-2c0,0-2.6-1.4-4.7-2.3c-2.2-0.9-4.8-1.7-5.6-2.5
			c0,0,1.5-0.2,3.7-0.7c2.3-0.5,5.3-1.1,7.7-2.6c2.4-1.5,3.4-4,2.2-3.5c-1.2,0.5-3.1,2.8-7.6,3.7c-4.5,0.8-11.5,0.2-15.3-3.6
			c-3.8-3.8-7.8-13.9-9.4-17c0,0,2.6,0.8,3.7,1.1c1.1,0.2,4.5,0.6,4.5,0.6s2.9,1.7,3.8,2.1c0.9,0.4,3.9,1.3,4.7,1.4
			c0.9,0.1,4,0.7,4.6,0.5c0.7-0.2,3.9-1.4,6.2-2.9c2.3-1.5,5.4-3,5.9-3.2c0.5-0.2,2-0.7,2-0.7s1.7,2.5,2.3,2.9
			c0.6,0.4,2.6,2.9,2.6,2.9s2.2,0.1,3.3,0.1c1.1,0,3.9-1.6,4.9-1.7c1-0.1,3-1.1,3.3-1.1c0.3,0,3.5,0.4,3.7-0.5
			c0.2-0.9-0.1-5.4-1.6-7.5c-1.5-2.1-3.5-4.7-3.5-4.7S314.9,483.4,314.1,481.8z"/>
		<path class="st4" d="M299.9,498.2c0,0,2.8-1.8,4.8-3.4c1.9-1.6,7.2-4.7,7.2-4.7s1.2,2.2,2.2,3.1c1,0.9,1.7,1.3,2.3,1.9
			c0.6,0.6,1.3,1.4,1.7,2.3c0.4,0.9,1.3,3.1,1.1-0.1c-0.2-3.2-1.7-4-2.4-5.1"/>
		<path class="st4" d="M311.9,490.2c0,0,3.3-2.5,2.8-5.8"/>
		<path class="st4" d="M301.3,497.4c0,0,2.5,2.1,3.6,2.9c1.1,0.8,4.3,3.6,4.7,3.4"/>
		<path class="st4" d="M312.7,491.5c0,0,2.4-1.1,2.3-2.9"/>
		<path class="st4" d="M314.1,481.8c0,0-3.6,5.2-4.9,6.7c-1.3,1.5-6.3,7.9-11.3,10.5"/>
		<path class="st4" d="M314.3,480.7c0,0,0.3-1.1-1.9-1.8c-2.2-0.6-4.5-3-7.7-1.1c-3.2,1.9-4.2,2.9-4.5,3.3c-0.3,0.5-3.2,3.7-3.6,4.9
			c-0.4,1.2-5.5,4.9-5.9,6.4c-0.4,1.5-0.8,1.7-1,2c-0.2,0.3-4.5,4.6-4.5,4.6"/>
		<path class="st4" d="M272.3,501.1c0,0-3.3-1.5-3-1.9c0.3-0.4,1.2-1.1,3.3-1.4c2.1-0.3,3.1,0.3,4.2,0.3c1.1,0,0.1,0.4,3.1,0.4
			c2.9,0,3-0.8,3.4-2.5c0.3-1.7,0.8-1.6-0.1-4c-0.9-2.4-3.4-5.4-3.6-5.7c-0.2-0.3,4.6-8.1,4.6-8.1l-1.6-2.5l-0.8,0.1l-0.6,0.1
			l-1.5,2.7l0.1,1.5l-0.6,0.5l-0.1,0.7l-1,1.6c0,0-3.9-2.4-6.1-2.3"/>
		<path class="st4" d="M284.2,478.2c0,0,2.8-4.5,4.5-6c1.7-1.6,8.1-2.5,8.1-2.5l-2.4-3c0,0-7.5,1-11.8,9.1"/>
		<path class="st4" d="M296.3,468.9c0,0,5.4-3.3,9.9-3"/>
		<path class="st4" d="M302.8,463.3c0,0-4.6,0.7-9,3.4"/>
		<path class="st4" d="M279.8,480c0,0,0.2,1.3,0.6,1.8c0.4,0.5,1.3,0.4,1.3,0.4"/>
		<path class="st4" d="M279.1,481.2c0,0-0.1,1,0.5,1.3c0.6,0.3,2.1-0.2,2.1-0.2"/>
		<path class="st4" d="M279.6,486.3c0,0-0.3-2.1-1.5-3.6"/>
		<path class="st4" d="M280.9,498.5c0,0-2.8-1.2-4.5-1.7c-3.2-1-13.8,2-9.2,3.5"/>
		<path class="st4" d="M266.1,499.4c0,0-2.6-1.2-2.5-4c0.1-2.8,0.8-3.9,3.8-4.3c3-0.4,6.6,0.2,7.5,0.7c0.9,0.5,1,0.9,1.2,1
			c0.3,0.1,2.3,1.6,2.3,1.6s3.3,5.3,4.7,2.1"/>
		<path class="st4" d="M264.6,499.4l-3.1-5.1c0,0-0.2-0.9-0.5-1c-0.4-0.1-0.6-0.6-1-0.3c-0.4,0.3-3.4,2.6-3.2,3.1
			c0.1,0.5,0.8,4.2,0.8,4.2"/>
		<path class="st4" d="M257,497.5c0,0-1-1-1.7-1c-0.7,0-4.5-1.3-5.7-2.3c-1.2-1-2.5-3-1.5-3.3c1-0.3,1.2-0.4,1.2-0.4
			c-1,0.6-0.8,1.8,0.9,2.8c1.7,1,5.7,1.1,6.1,1.1c0.4,0,1.3,0.4,1.3,0.4"/>
		<path class="st4" d="M258,493.6c0,0-1.3-0.2-1.9-0.2c-0.6,0-3.5-0.1-4.1-0.4c-0.6-0.3-3.2-0.8-1.5-1.7c1.7-0.8,5.4-0.7,5.4-0.7
			S257.8,492.7,258,493.6z"/>
		<path class="st4" d="M249.4,490.4c0,0,1.6-0.9,5.6-0.9l-2-1.9"/>
		<path class="st4" d="M268.4,490.8c0,0,0.5-4.8-5.5-7.1c-6-2.3-9.6-2.6-11.2-5.3"/>
		<path class="st4" d="M298.9,498.6c1.5,2.2,1.4,3.6,0.6,5.6c-0.8,2-0.6,5.4-0.8,9.4c-0.2,4-1.8,2.7-1.8,2.7l-1.2,0.7
			c0,0,0.8-1.2,1.3-2.2c0.5-1,0.1-3.7,0.5-6.3c0.5-2.7,2-7.1,0-9.3"/>
		<path class="st4" d="M279,523c0,0-4.1-1.9-5.8-2.7c-1.7-0.8-4-2.2-4.8-3.6c-0.8-1.4-4.7-2.9-6.4-5.7c-1.7-2.8-3.8-8.4-3.8-8.4"/>
	</g>
	<path class="st5" d="M123.1,254.7c0.4,0.1,0.6,0.3,0.3,0.6c-0.5,0.5-1,0.6-1.1,0.9c-0.1,0.3-0.3,0.6-1.1,0.6
		c-0.8,0-2.5,0.1-3.1-0.4c0,0-0.6-0.8-0.5-1.4c0.1-0.6-0.3-0.9,0-1.3"/>
	<path class="st5" d="M123.1,254.7l0.3-0.3v-1.5c0,0-0.3,0.3-0.5,0.4c-0.2,0.1-0.6,0.4-0.7,0.8v2.2
		C122.3,256.2,123.2,255.2,123.1,254.7z"/>
	<path class="st5" d="M122,254.2c-0.2,0.4,0.1,1.6,0.1,1.6s0,0.5-0.8,0.6c-0.9,0.1-1.7-0.1-1.7-0.2l-0.3-2.6"/>
	<path class="st0" d="M130.1,263.7c-2.9-3.8-4.8-6.4-5.2-7c-0.9-1.4-1.7-2.3-2.3-2.9c0,0-0.1,0.1-0.2,0.2c-0.2,0.1-0.2,0.1-0.2,0.1
		s-0.2,0.5,0.1,1.7c0.1,0.5,0.8,1,1.3,1.7c0.4,0.6,2.4,3.3,5.4,7.3"/>
	<path class="st3" d="M117.5,247.8c0,0-0.2-1.1-1.8-2.7c-1.6-1.6-4.2-3-4.2-3.1l-0.3,0.2c0,0-1.5,0-1.6,0.3
		c-0.1,0.3,0.8,0.6,1.6,1.3c0.8,0.8,2.1,3.2,3,5.2c1,2,2.1,2.2,2.1,2.2c0.2,0,1.2,0.5,1.8-0.8"/>
	<path class="st3" d="M116.7,248.2c0,0-3-3.3-3.6-3.9"/>
	<path class="st3" d="M111.2,242.3c1.1,0.7,3.6,4.2,3.9,5c0.3,0.8,1,2,1,2s0.4,0.4,1.1-0.2"/>
	<path class="st3" d="M119.4,252.2c-0.7,0.1-1.1,0.3-1.3,0.4c0,0-1.4,0.8,0.2,1.4"/>
	<path class="st5" d="M120.6,252.1c0,0,0.6-0.2,1.4,0c1,0.2,1.9,0.2,1.5,0.8c-0.5,0.5-1,0.6-1.1,0.9c-0.1,0.3-0.3,0.6-1.1,0.6
		c-0.7,0-1.8,0-2.5-0.3c0,0-1.3-0.3-1.3-0.7c0-0.4,0.3-0.9,1.9-1.2"/>
	<path class="st5" d="M116.3,249.4c-0.1-0.7,0.4-1.3,0.4-1.3s1-0.9,1.9,0.4h0.3l1,1.3v0.5c0,0,1,1.3,0.7,2.7c0,0-0.3,0.2-0.5,0.2
		c-0.3,0-0.6-0.2-0.6-0.2s0.2-1.4-0.4-2.2c0,0-0.4,0-0.6-0.2c-0.2-0.3-1-1.3-1-1.3l0-0.3c0,0-0.5-0.2-0.6,0.2L116.3,249.4z"/>
	<path class="st4" d="M118.5,248.6c0,0-1.3,0.2-1.1,1"/>
	<path class="st4" d="M119.8,250.1c0,0-1.2,0-1,0.8"/>
	<path class="st1" d="M323.2,510.2c0,0,9.2,2.5,19.1-5.2"/>
	<path class="st1" d="M334.7,521.1c0,0-3.7-0.4-5.1-3.4"/>
	<path class="st1" d="M359.3,507.3c0,0,7.8-4.6,11.6-15.4"/>
	<path class="st1" d="M357.3,511.2c0,0,3.3,8.7,4,14.9c0,0-1.5-17.2,2.6-22.7"/>
	<path class="st1" d="M237.3,553.3c0,0-9.8,10.5-37.4,13.2"/>
	<path class="st5" d="M116.8,251.3l0.9,1.6c0,0,0.2-0.3,0.7-0.4l-0.7-1.3C117.6,251.1,116.9,251.5,116.8,251.3z"/>
	<g>
		<g>
			<path class="st6" d="M263.7,465.8c0,0,16.5,24.3,17.6,25.9c5.7,10.7,7.4,23.3,8.5,33.6l6.5,61.6c0,0,0.6-0.4,0.8-0.6
				c0.2-0.2,0.8-0.6,0.8-0.6l-6.5-60.5c-1.1-10.5-2.8-23.3-8.7-34.3l-0.1-0.1c-0.3-0.4-17.3-25.3-17.3-25.3"/>
		</g>
	</g>
	<g>
		<g>
			<path class="st7" d="M265.4,465.5l-144.8-209c0,0-1.5-2.1-1.5-2.3c0,0-0.8-0.2-1.1-0.4c0,0-0.8,1.2,1.2,3.5l144.5,208.4"/>
		</g>
	</g>
	<g>
		<circle class="st8" cx="109.6" cy="239.2" r="6.5"/>
		<path class="st9" d="M113,235.5c0.1,0,0.2,0.1,0.3,0.1c0,0,0.1,0.1,0.2,0.2c0.1,0.3-0.6,0.8-0.7,1c-0.4,0.3-0.7,0.7-1.1,1
			c-0.3,0.2-0.5,0.4-0.7,0.7c-0.3,0.4-1.1,0.5-0.9-0.3c0-0.1,0.3-0.2,0.4-0.3c-0.2-0.1-0.4-0.2-0.6-0.3c-0.8-0.4-0.8,0.6-1.5-0.4
			c-0.6-0.9,1.2-0.8,1.9-0.7c0.3,0,0.6,0.2,0.9,0.4c0.1,0,0.2,0.1,0.3,0.1c0,0,0,0,0,0c0.4-0.2,0.6-0.6,0.9-0.9
			c0.1-0.1,0.3-0.1,0.5-0.2C112.8,235.6,112.8,235.5,113,235.5z"/>
		<path class="st9" d="M105.6,235.5c0.1,0,0.2,0,0.3,0.1c0.4,0.2,0.6,0.6,0.9,0.9c0.3,0.3,0.6,0.6,1,0.8c0.2,0.1,0.3,0.3,0.4,0.4
			c0.2,0.1,0.4,0.2,0.5,0.4c0.1,0.1,0.1,0.3,0.1,0.4c-0.2,0.5-0.8-0.1-1-0.2c-0.4,0.8-0.2,1.8,0.3,2.4c0.1,0.2,0.4,0.2,0.5,0.3
			c0.5,0.3,1.4,0.3,1.9,0c0.2-0.1,0.3-0.3,0.5-0.4c0.2-0.2,0.4-0.3,0.5-0.5c0.1-0.3,0.1-0.7,0.1-1.1c0-0.1-0.1-0.3-0.1-0.4
			c0.1-0.1,0.6-0.6,0.8-0.6c0.1,0,0.2,0.3,0.3,0.5c0,0.1,0.1,0.3,0.1,0.4c0,0,0,0.1,0,0.1c0,0,0,0.6,0,0.7c-0.2,1.4-1,2.3-2.2,2.7
			c-0.9,0.3-2.1,0-2.7-0.4c-0.1-0.1-0.2-0.3-0.3-0.4c-0.2-0.2-0.4-0.2-0.6-0.4c-0.2-0.3-0.6-1.4-0.5-2c0-0.5,0.2-0.9,0.3-1.3
			c0.1-0.2,0.2-0.3,0.3-0.5c-0.4-0.3-0.8-0.7-1.1-1.1C105.7,236.3,105,235.6,105.6,235.5z"/>
	</g>
	<path class="st1" d="M274,547c-0.5,0.8-1.9,1.8-2.5,2.7c-0.9,1.3-1.4,2.7-3,4.1c-2.2,1.9-3.6,2.3-6.3,2.7c-0.7,1.9-2.1,4.2-4.2,4.9
		c-0.1,0.7-1.2,17.9-1.2,18.6"/>
	<path class="st10" d="M101.6,151.4c0,0,0.1,0.8,0.2,0.8c0,0,0.1,0,0.1,0.1c0,0,0.1,0,0.1,0.1c0,0,0,0,0.1,0c0,0,0,0,0,0
		c0,0,0,0,0,0c0,0,0,0,0,0c0,0,0,0.1,0.1,0.1c0,0,0,0.1,0,0.1c0,0,0,0.1,0,0.1c0,0,0,0.1,0,0.1c0,0.1,0,0.1-0.1,0.2
		c0,0-0.1,0.1-0.1,0.1c0,0-0.1,0.1-0.1,0.1c-0.1,0-0.1,0.1-0.2,0.1c-0.1,0-0.1,0.1-0.2,0.1c-0.1,0-0.1,0.1-0.2,0.1
		c-0.1,0-0.1,0.1-0.2,0.1c-0.1,0-0.1,0.1-0.2,0.1c-0.1,0-0.1,0.1-0.2,0.1c-0.1,0-0.1,0.1-0.2,0.1c-0.1,0.1-0.2,0.1-0.2,0.1
		c-0.1,0.1-0.2,0.1-0.3,0.2l0.8,0l0,0c0,0,0,0,0,0c0,0,0,0,0,0c0,0,0,0,0,0c0,0,0,0,0,0c0,0,0,0,0,0c0,0,0,0,0,0c0,0,0,0,0,0
		c0,0,0,0,0,0c0.2,0,0.4-0.1,0.6-0.1c0.2,0,0.4-0.1,0.7-0.1c0.2,0,0.4-0.1,0.7-0.1c0,0,0,0,0,0c0,0,0,0,0,0c0,0,0,0,0.1,0l0,0
		c0,0,0,0,0,0c0,0,0,0,0,0l0,0c0,0,0,0,0,0c0,0,0,0,0,0c0,0,0,0,0,0c0,0,0,0,0,0c0,0.1,0,0.1,0,0.2c0,0.1,0,0.1,0,0.2
		c0,0.1,0,0.1,0,0.2c0,0,0.1-0.1,0.1-0.1c0,0,0.1-0.1,0.1-0.1c0,0,0.1-0.1,0.1-0.1c0,0,0,0,0,0c0,0,0,0,0,0c0,0,0,0,0,0c0,0,0,0,0,0
		c0,0,0,0,0,0h0c0,0,0,0,0,0l0,0c0,0,0,0,0,0c0,0,0,0,0,0c0.2,0.2,0.4,0.3,0.6,0.5c0.2,0.2,0.4,0.3,0.6,0.5c0.2,0.1,0.3,0.3,0.5,0.4
		c0,0,0.1,0.1,0.1,0.1c0-0.1,0-0.1,0-0.2c0-0.1,0-0.1,0.1-0.2c0-0.1,0.1-0.1,0.1-0.2l-0.2,0c0,0,0,0,0,0c0,0,0,0,0,0c0,0,0,0,0,0
		c0,0,0,0,0,0c0,0,0,0,0,0c0,0,0,0,0,0c0,0,0,0,0,0c0,0,0,0,0,0c0,0,0,0,0,0c0,0,0,0,0,0c0,0,0,0,0-0.1c0,0,0,0,0-0.1c0,0,0,0,0,0
		c0,0,0,0,0-0.1c0,0,0,0,0-0.1c0,0,0-0.1,0-0.1c0,0,0-0.1,0-0.1c0,0,0-0.1,0-0.1c0,0,0,0,0-0.1c0,0,0,0,0.1,0c0,0,0,0,0,0
		c-0.1,0-0.2,0-0.2,0c0,0-0.1,0-0.1,0c0,0,0,0,0,0c0,0,0,0,0,0c0,0,0,0,0,0c0,0,0,0,0,0c0,0,0,0,0,0l0,0c0,0,0,0,0,0c0,0,0,0,0,0
		l0,0c0,0,0,0-0.1-0.1c0,0,0,0-0.1-0.1c0,0,0,0-0.1-0.1c0,0,0,0,0-0.1c0,0,0,0,0-0.1c0,0,0,0,0,0c0,0,0,0,0,0c0,0,0,0,0,0
		c0-0.1,0-0.1,0-0.2c0,0,0-0.1,0-0.1c0,0,0-0.1,0-0.1c0-0.1,0-0.1,0-0.2c0,0,0-0.1,0-0.1c0,0,0-0.1,0-0.1c0,0,0-0.1,0-0.1
		c0,0,0-0.1,0-0.1c0,0,0,0,0,0c0,0,0,0,0,0c0,0,0,0,0,0c0,0,0,0,0,0l0,0c0,0,0,0,0,0c0,0,0,0,0,0c0,0,0,0,0,0c0,0,0,0,0,0"/>
	<path class="st10" d="M132.3,190.1c0,0,0.8,1.7,0.9,3.2c0,0,0.4-1.7,0.5-3.7"/>
	<g>
		<path class="st10" d="M138.5,187.6L138.5,187.6c0.1,0,0.1,0,0.1,0c0,0,0,0,0.1,0c0,0,0,0,0.1,0l0,0l0,0l0,0l0,0l0,0l0,0l0.6,0.3
			l0,0l0,0l0,0l0,0l0,0l0,0l0,0l0,0l0,0l0.1,0l0,0l0,0l0,0l0,0l0,0l0,0v0l0,0l0,0l0,0l0,0v0l0,0l0,0l0,0l0,0l0,0l0,0l0,0l0.5,0.2
			l0,0l0.1,0l0.1,0l0.1,0l0.1,0l0.1,0l0.1,0l0.1,0h0.1h0.1l0.1,0l0.1,0l0.1,0l0.1,0l0.1,0l0.1,0l0.1,0l0.1,0l0,0l0,0h0l0,0l0,0l0,0
			l0,0l0,0l0,0l0.7,0.2l0,0l0,0l0,0l0,0l0,0l0,0c0,0,0.1,0,0.1,0c0,0,0.1,0,0.1,0.1c0,0,0.1,0,0.1,0.1c0,0,0.1,0,0.1,0.1
			c0,0,0,0.1,0.1,0.1c0,0,0,0.1,0.1,0.1c0,0,0,0.1,0,0.1c0,0,0,0.1,0,0.1l0,0.1l0,0.1l0,0.1l0,0.1l0,0.1l0,0.1l0.7,1.7l0-0.1l0-0.1
			l0-0.1l0-0.1l0-0.1l0-0.1l0-0.1l0.1-0.1l0.1-0.1l-0.1,0h0l0,0h0l0,0l0,0l0,0l0,0l0,0l0,0l0,0c0,0,0-2.2,0-2.2c0,0,0-0.1,0-0.1
			c0,0,0,0,0,0c0,0,0,0,0,0c0,0,0,0,0,0c0,0,0,0,0.1,0l0,0c0.5-0.2,1.5-0.5,1.8-0.6l0.1,0l0.2-0.1l0.2-0.1l0.2-0.1l0.1-0.1l0.1-0.1
			l0.1-0.1l0.1-0.1l0.1-0.1c0,0,0.1,0,0.1-0.1c0,0,0,0,0.1,0c0,0,0,0,0,0c0,0,0,0,0,0c0,0,0,0,0,0c0,0,0,0,0,0c0,0,0,0,0,0
			c0,0,0,0,0,0c0,0,0,0,0,0c0,0,0,0,0,0c0,0,0,0,0,0c0,0,0,0,0,0c0,0,0,0,0,0c0,0,0,0,0,0c0,0,0,0,0,0c0,0,0,0,0,0c0,0,0,0,0,0
			c0,0,0,0,0,0c0-0.1,0-0.1,0-0.2c0-0.1,0-0.2,0-0.2c0-0.1,0-0.2,0-0.3c0-0.1,0-0.2,0-0.3c0-0.1,0-0.2,0-0.3c0-0.1,0-0.2-0.1-0.3
			c0-0.1-0.1-0.3-0.1-0.4l0-0.2c-0.1-0.4,0-0.5,0.3-0.6c0.1,0,0.4-0.1,0.4-0.1c0,0,0.1,0,0.1-0.1c0,0,0.1,0,0.1-0.1c0,0,0,0,0-0.1
			c0,0,0-0.1,0-0.1c0,0,0,0,0,0l0,0c0,0,0,0,0,0c0,0,0,0,0,0c0,0,0,0,0,0c0,0-0.1-0.1-0.1-0.1c0,0-0.1-0.1-0.1-0.1
			c0,0-0.1-0.1-0.1-0.1c0,0-0.1-0.1-0.1-0.1c0,0,0,0,0,0c0,0,0,0,0-0.1c0,0,0-0.1,0-0.1c0,0,0,0.1,0,0.1c0,0,0,0.1,0,0.1
			c0,0,0,0.1,0,0.1c0,0,0,0.1,0,0.1c0,0,0,0.1,0,0.1c0,0,0,0.1,0,0.1l0,0c0,0.1-0.1,0.1-0.1,0.1c0,0,0,0,0,0c0,0,0,0-0.1,0
			c-0.1,0-0.3,0.1-0.4,0.1c-0.3,0.1-0.4,0.3-0.7,0.6c-0.1,0.1-0.1,0.2-0.2,0.3c-0.1,0.1-0.1,0.2-0.2,0.3c0,0,0,0.1-0.1,0.1l-0.2,0.3
			c0,0,0,0,0,0c0,0.1-0.1,0.1-0.1,0.2c0,0.1-0.1,0.1-0.1,0.2c0,0.1-0.1,0.1-0.1,0.2c0,0,0,0,0,0c0,0,0,0,0,0c0,0,0,0,0,0
			c0,0,0,0,0,0c0,0,0,0,0,0c0,0,0,0-0.1,0c0,0,0,0-0.1,0c0,0,0,0-0.1,0c0,0,0,0-0.1,0c0,0-0.1,0-0.1,0c0,0-0.1,0-0.1,0
			c-0.3,0-2.9,0.4-4.2,0.9c0,0-0.1,0-0.1,0c-0.1,0-0.2,0-0.2,0.1c0,0-0.1,0-0.1,0c0,0-0.1,0-0.1,0c0,0-0.1,0-0.1,0c0,0-0.1,0-0.1,0
			c0,0,0,0-0.1,0L138.5,187.6z M140.2,188.3L140.2,188.3L140.2,188.3L140.2,188.3L140.2,188.3l0.1,0l0,0l0,0h0h0h0l0,0l0,0l0,0l0,0
			l0,0l0,0l0,0l0.5,0.2l0,0l0,0l0,0l0,0l0,0l0,0l0,0l0,0h0l0,0h0l0,0l0,0l0,0l0,0l0,0l0,0L140.2,188.3L140.2,188.3z"/>
		<path class="st11" d="M145.2,189.1"/>
	</g>
	<path class="st10" d="M130,187.6l-0.2-0.2l0,0l0,0l0,0v0l0,0l0,0l0,0l0,0l0,0l0,0h0l0,0h0h0l0,0l0.1,0l0.1,0l0,0l0,0l0,0l0,0l0,0
		l0,0l0,0l0,0l0,0l-0.9-0.9l0,0c0,0,0,0-0.1,0c0,0-0.1,0-0.1,0c0,0-0.1,0-0.1,0c0,0-0.1,0-0.1,0l0,0l0,0l0,0l0,0l0,0l0,0l-0.2,0.4
		l0,0l0,0l0,0l0,0l0,0l0,0l-0.1,0l-0.1,0l-0.1,0l0,0c0,0,0,0-0.1,0c0,0,0,0-0.1,0c0,0,0,0-0.1,0c-0.1,0-0.1,0.1-0.2,0.1
		c0,0-0.1,0.1-0.1,0.2c0,0.1-0.1,0.1-0.1,0.2c0,0,0,0.1,0,0.1l0.2,0l0,0l0,0l0,0l0,0l0,0l0,0l0,0l0,0l0,0l0,0l0,0l0,0l0.1,0l0.1,0
		l0,0h0h0l0,0h0l0,0l0,0l0,0l0,0l0,0l0.1,0.1l0,0l0,0l0,0l0,0l0,0l0,0l0,0l0,0l0,0l0,0l-0.1,0l-0.1,0l-0.1,0l-0.1,0l-0.1,0l-0.1,0
		l-0.1,0l-0.1,0l-0.1,0l-0.5,0l-0.1,0l-0.1,0l-0.1,0l-0.1,0l-0.1,0l-0.1,0l-0.1,0l-0.1,0l-0.1,0c-0.2,0-0.4,0-0.6,0
		c-0.2,0-0.4,0-0.7,0c-0.2,0-0.5,0-0.7-0.1c-0.2,0-0.5-0.1-0.7-0.1c-0.2,0-0.3-0.1-0.5-0.1c-0.2-0.1-0.3-0.1-0.5-0.2
		c-0.1-0.1-0.3-0.1-0.4-0.2c-0.1,0-0.1-0.1-0.2-0.1c-0.1,0-0.1-0.1-0.2-0.1c-0.1-0.1-0.2-0.1-0.3-0.2l0,0c0,0,0,0-0.1,0
		c0,0,0,0-0.1,0c0,0,0,0,0,0c-0.3,0-0.7,0-1,0c-0.4,0-0.7,0-1.1-0.1c0,0-0.6-0.1-0.9,0c-0.2,0-0.3,0-0.3,0.1c-0.1,0-0.1,0.1-0.2,0.1
		c-0.1,0-0.1,0.1-0.1,0.1c0,0,0,0-0.1,0.1c0,0,0,0,0,0.1c0,0,0,0,0,0c0,0,0,0.1,0,0.1c0,0,0,0.1,0,0.1c0,0,0,0.1,0,0.1
		c0,0,0,0.1,0,0.1c0,0,0,0,0,0.1c0,0,0,0,0,0c0,0,0.1,0.1,0.1,0.1l0.2,0.2c0.1,0.1,0.3,0.2,0.4,0.3c0.2,0.1,0.3,0.2,0.5,0.3
		c0.2,0.1,0.4,0.2,0.5,0.3c0.2,0.1,0.4,0.2,0.6,0.3c0.2,0.1,0.4,0.2,0.6,0.3c0,0,0.1,0,0.1,0c0,0,0.1,0,0.1,0.1c0,0,0.1,0,0.1,0.1
		c0,0,0,0,0.1,0c0,0,0,0,0.1,0.1c0,0,0,0,0,0.1c0,0,0,0,0,0.1c0,0.1,0,0.1,0.1,0.2c0,0.1,0,0.1,0,0.2c0,0.1,0,0.1,0,0.2
		c0,0.1,0,0.1,0,0.2c0,0.1,0,0.2-0.1,0.3c0,0.1-0.1,0.2-0.1,0.2c0,0.1-0.1,0.1-0.1,0.2c-0.1,0.1-0.1,0.2-0.2,0.3
		c-0.1,0.1-0.1,0.2-0.2,0.3c-0.1,0.1-0.1,0.2-0.2,0.3c-0.1,0.1-0.1,0.2-0.2,0.3c-0.1,0.1-0.1,0.2-0.2,0.3c-0.1,0.1-0.1,0.2-0.2,0.3
		c-0.1,0.1-0.2,0.2-0.2,0.3c-0.1,0.1-0.2,0.2-0.2,0.3c-0.1,0.1-0.2,0.2-0.3,0.4l0.8-0.3l0-0.1c0,0,0,0,0,0c0,0,0,0,0,0c0,0,0,0,0,0
		c0,0,0,0,0,0c0,0,0,0,0,0c0,0,0,0,0,0c0,0,0,0,0,0c0,0,0,0,0,0c0.2-0.1,0.4-0.3,0.7-0.4c0.2-0.1,0.4-0.3,0.7-0.4
		c0.2-0.1,0.5-0.3,0.7-0.4c0,0,0,0,0,0c0,0,0,0,0,0c0,0,0,0,0.1,0l0,0c0,0,0,0,0.1,0c0,0,0,0,0,0l0,0c0,0,0,0,0,0c0,0,0,0,0,0.1
		c0,0,0,0,0,0c0,0,0,0,0,0c0,0.1,0,0.2,0,0.2c0,0.1,0,0.2,0,0.3c0,0.1,0,0.2,0,0.3c0-0.1,0.1-0.1,0.1-0.2c0-0.1,0.1-0.1,0.1-0.2
		c0-0.1,0.1-0.1,0.1-0.2c0,0,0,0,0,0c0,0,0,0,0,0c0,0,0,0,0,0c0,0,0,0,0,0c0,0,0,0,0,0h0c0,0,0,0,0,0l0,0c0,0,0,0,0,0c0,0,0,0,0,0
		c0.2,0.2,0.4,0.4,0.6,0.7c0.2,0.2,0.4,0.4,0.6,0.7c0.2,0.2,0.3,0.4,0.5,0.6c0,0,0.1,0.1,0.1,0.1c0-0.1,0-0.2,0-0.3
		c0-0.1,0-0.2,0.1-0.3c0-0.1,0.1-0.2,0.1-0.3l-0.2,0c0,0,0,0,0,0c0,0,0,0,0,0c0,0,0,0,0,0c0,0,0,0,0,0c0,0,0,0,0,0c0,0,0,0,0,0
		c0,0,0,0,0,0c0,0,0,0,0,0c0,0,0,0,0,0c0,0,0,0,0-0.1c0,0,0,0,0-0.1c0,0,0-0.1,0-0.1c0,0,0,0,0-0.1c0,0,0-0.1,0-0.1c0,0,0-0.1,0-0.1
		c0,0,0-0.1,0-0.1c0,0,0-0.1,0-0.1c0,0,0-0.1,0-0.1c0,0,0-0.1,0-0.1c0,0,0-0.1,0.1-0.1c0,0,0,0,0,0c-0.1,0-0.2,0-0.2,0.1
		c0,0-0.1,0-0.1,0c0,0,0,0,0,0c0,0,0,0,0,0c0,0,0,0,0,0c0,0,0,0,0,0c0,0,0,0,0,0l0,0c0,0,0,0,0,0c0,0,0,0,0,0l0,0c0,0,0,0-0.1-0.1
		c0,0,0-0.1-0.1-0.1c0,0,0-0.1-0.1-0.1c0,0,0-0.1,0-0.1c0,0,0-0.1,0-0.1c0,0,0,0,0,0c0,0,0,0,0,0c0,0,0-0.1,0-0.1c0-0.1,0-0.2,0-0.3
		c0,0,0-0.1,0-0.1c0,0,0-0.1,0-0.1c0-0.1,0-0.2,0-0.3c0-0.1,0-0.1,0-0.2c0-0.1,0-0.1,0-0.2c0-0.1,0-0.1,0-0.2c0-0.1,0-0.1,0-0.2
		c0,0,0,0,0-0.1c0,0,0,0,0-0.1c0,0,0,0,0-0.1c0,0,0,0,0,0l0,0c0,0,0,0,0,0c0,0,0,0,0,0c0,0,0,0,0,0c0,0,0,0,0-0.1c0,0,0,0,0-0.1
		c0,0,0,0,0,0c0,0,0,0,0,0c0,0,0,0,0-0.1c0,0,0,0,0,0c0,0,0,0,0,0c0,0,0,0,0.1,0c0,0,0,0,0.1,0c0,0,0.1,0,0.1,0c0,0,0.1,0,0.1,0
		c0.1,0,0.1,0,0.2,0c0.1,0,0.2,0,0.3,0c0.1,0,0.2,0,0.3,0c1.5,0.1,4.4,0.3,6.5,0.2c0.1,0,0.1,0,0.1,0c0,0,0.1,0,0.1,0
		c0,0,0.1,0,0.1,0c0,0,0.1,0,0.1,0.1c0,0,0,0,0,0l0,0l-0.9-0.9l0,0l0,0l0,0l0,0l0,0l0,0l0,0l0,0l0,0h-0.1l0,0l0,0h0h0l0,0h0h0h0l0,0
		l0,0l0,0l0,0l0,0l0,0l-0.2-0.2c0-0.1,0.1-0.2-0.1-0.4C130.5,187.8,130.3,187.7,130,187.6z M124.2,188.5
		C124.2,188.5,124.2,188.5,124.2,188.5C124.2,188.5,124.2,188.5,124.2,188.5C124.2,188.4,124.2,188.4,124.2,188.5
		C124.2,188.4,124.2,188.4,124.2,188.5c0.1-0.1,0.1-0.1,0.1-0.1c0,0,0,0,0,0c0,0,0,0,0.1,0c0,0,0,0,0.1,0c0,0,0,0,0.1,0
		c0,0,0.1,0,0.1,0c0.1,0,0.1,0,0.2,0c0.3,0,0.5,0.1,0.8,0.1c0.1,0,0.3,0,0.4,0c0.1,0,0.3,0,0.4,0c0.3,0,0.6,0,0.8,0
		c0.2,0,0.7-0.1,0.8-0.1c0.1,0,0.5,0,0.5,0l0.1,0l0.1,0l0.1,0h0.1h0.1l0.1,0l0.1,0l0.1,0l0.1,0l0,0l0,0l0,0l0,0l0,0l0,0l0,0l0,0l0,0
		l0,0l0,0l0,0l0.1,0.1l0,0l0,0v0l0,0l0,0l0,0h0l0,0l0,0l-0.1,0l-0.1,0l-0.1,0l-0.1,0l-0.1,0l0,0l0,0l0,0l0,0l0,0l0,0l0,0l0,0l0,0
		l0,0l0,0c0,0-1.3,0-1.9-0.1c-0.4,0-0.8,0-1.2-0.1c-0.4,0-0.8-0.1-1.2-0.1c-0.1,0-0.1,0-0.2,0c0,0-0.1,0-0.1,0c0,0-0.1,0-0.1,0
		c0,0-0.1,0-0.1-0.1c0,0,0,0,0,0c0,0,0,0,0,0C124.2,188.6,124.2,188.6,124.2,188.5C124.2,188.6,124.2,188.5,124.2,188.5
		C124.2,188.5,124.2,188.5,124.2,188.5C124.2,188.5,124.2,188.5,124.2,188.5z M119.9,188.3L119.9,188.3
		C119.9,188.3,119.9,188.3,119.9,188.3C119.9,188.3,119.9,188.3,119.9,188.3C119.9,188.3,119.9,188.3,119.9,188.3
		C119.9,188.2,119.9,188.2,119.9,188.3C119.9,188.2,119.9,188.2,119.9,188.3c0.1,0,0.1,0,0.1,0l0.3,0l0.3,0l0.3,0l0.3,0l0.3,0l0.3,0
		l0.3,0l0.3,0l0.1,0c0.1,0,0.4,0,0.6,0.1c0,0,0,0,0.1,0c0,0,0,0,0.1,0c0,0,0,0,0.1,0c0,0,0,0,0.1,0c0,0,0,0,0.1,0c0,0,0,0,0.1,0
		c0,0,0,0,0,0c0,0,0,0,0,0c0,0,0,0,0,0c0,0,0,0,0,0c0,0,0,0,0,0v0c0,0,0,0,0,0c0,0,0,0,0,0c0,0,0,0,0,0c0,0,0,0,0,0c0,0,0,0,0,0
		c0,0,0,0-0.1,0c0,0,0,0-0.1,0c0,0-0.1,0-0.1,0c0,0,0,0,0,0c-0.2,0-0.4,0-0.5,0.1c0,0,0,0,0,0c0,0,0,0,0,0c0,0,0,0,0,0c0,0,0,0,0,0
		c0,0,0,0,0,0c0,0,0,0,0,0c0,0,0,0,0,0c0,0,0,0,0,0c0,0,0,0,0,0c0.1,0,0.4,0.2,0.1,0.3c0,0,0,0,0,0c0,0-0.1,0-0.1,0c0,0,0,0-0.1,0
		c0,0-0.1,0-0.1,0c-0.1,0-0.1,0-0.2,0c0,0-0.1,0-0.1,0c0,0-0.1,0-0.1,0c-0.1,0-0.1,0-0.2-0.1c-0.1,0-0.2-0.1-0.3-0.1
		c-0.1,0-0.2-0.1-0.3-0.1c-0.1,0-0.2-0.1-0.3-0.1c-0.2-0.1-0.3-0.2-0.5-0.2c-0.2-0.1-0.3-0.2-0.5-0.2
		C120.2,188.5,120.1,188.4,119.9,188.3C119.9,188.3,119.9,188.3,119.9,188.3C119.9,188.3,119.9,188.3,119.9,188.3
		C119.9,188.3,119.9,188.3,119.9,188.3C119.9,188.3,119.9,188.3,119.9,188.3C119.9,188.3,119.9,188.3,119.9,188.3z M119.1,187.4
		C119.1,187.4,119.1,187.4,119.1,187.4C119.2,187.4,119.2,187.4,119.1,187.4c0-0.1,0.1-0.1,0.1-0.1c0,0,0.1,0,0.1-0.1
		c0,0,0.1,0,0.1-0.1c0,0,0.1,0,0.1-0.1c0,0,0,0,0,0c0.3-0.1,0.5-0.1,0.7-0.2c0.1,0,0.2,0,0.2,0c0,0,0.1,0,0.1,0c0,0,0.1,0,0.1,0
		c0,0,0.1,0,0.1,0c0,0,0.1,0,0.1,0c0,0,0.1,0,0.1,0c0,0,0,0,0,0c0,0,0,0,0,0c0,0,0,0,0,0c0,0,0,0,0,0c0,0,0,0,0,0c0,0,0,0.1,0,0.1
		c0,0,0,0,0,0c0,0,0,0,0,0c0,0,0,0,0.1,0c0,0,0,0,0.1,0c0,0,0.1,0,0.1,0.1c0.1,0,0.1,0,0.2,0.1c0.1,0,0.1,0,0.2,0c0.1,0,0.1,0,0.2,0
		c0,0,0.1,0,0.1,0c0,0,0,0,0.1,0c0,0,0,0,0.1,0c0,0,0,0,0.1,0c0,0,0,0,0,0c0,0,0,0,0,0c0,0,0,0,0,0c0,0,0,0,0,0c0,0,0,0,0,0
		c0,0,0,0,0,0c0,0,0,0,0,0c0,0,0,0,0,0c0,0,0,0,0,0l0,0c0,0,0,0,0,0c0,0,0,0,0,0c0,0,0,0,0,0c0,0,0,0,0,0l0,0c0,0,0,0,0,0
		c0,0,0,0,0,0c-0.5,0-1.6-0.1-1.6-0.1l-0.2,0l-0.3,0l-0.3,0l-0.3,0l-0.3,0c0,0,0,0-0.1,0c0,0,0,0-0.1,0c0,0,0,0-0.1,0c0,0,0,0,0,0
		c0,0,0,0,0,0c0,0,0,0,0,0C119.2,187.5,119.2,187.5,119.1,187.4C119.1,187.5,119.1,187.5,119.1,187.4
		C119.1,187.5,119.1,187.4,119.1,187.4z"/>
	<path class="st10" d="M113,154.8c0,0,0.4,1.7,0.4,2.2c0,0,0.9-1.3,1-2.3"/>
	<path class="st10" d="M122,156.1c0,0,2.5-0.2,2.4,2.1v0.8l1.3-2c0,0,2.2,0.5,5-0.3"/>
	<path class="st10" d="M118.7,187.9c0,0,0,0.1,0,0.2c0.4,0.3,1.2,0.7,1.9,0.9c0,0-0.1,0.1-0.1,0.1c0,0-0.1,0-0.1,0.1h0
		c-0.1,0-0.1,0.1-0.2,0.1c0,0-0.1,0-0.1,0l0,0l-1.1,0.1l0,0h0l-1.3,0.1c0,0-0.1,0-0.1,0c0,0-0.1,0-0.1,0.1c0,0,0,0.1-0.1,0.1
		c0,0,0,0,0,0.1c0,0,0,0,0,0l0,0c0,0,0,0,0,0c0,0,0,0,0,0c0,0,0,0,0,0l0,0l-0.6,0c0,0,0,0,0,0c0,0,0,0,0,0c0,0,0,0,0,0c0,0,0,0,0,0
		c0,0,0,0,0,0l0,0.2l0,0c0,0,0,0,0,0c0,0,0,0,0,0c0,0,0,0,0,0l0,0l-0.5,0c0,0,0,0,0,0c0,0,0,0,0,0c0,0,0,0,0,0c0,0,0,0,0,0
		c0,0,0,0,0,0l0,0.2l0,0c0,0,0,0,0,0c0,0,0,0,0,0c0,0,0,0,0,0h0l-0.5,0c0,0,0,0,0,0c0,0,0,0,0,0c0,0,0,0,0,0c0,0,0,0,0,0
		c0,0,0,0,0,0l0,0.2l0,0c0,0,0,0,0,0c0,0,0,0,0,0c0,0,0,0,0,0l0,0l-0.5,0h0h0l0,0l0,0l0,0l0,0l0,0h0l-0.6,0.4l0-0.3l0.5-1.3
		c0,0,0.1-0.1,0.1-0.2c0,0,2.7-1.9,2.7-1.9c0.3-0.2,0.4-0.1,0.6-0.2"/>
	<path class="st10" d="M101.5,150.9L101.5,150.9L101.5,150.9l-1.4-0.5c0,0-0.1,0-0.1,0c0,0-0.1,0-0.1,0c0,0-0.1,0-0.1,0c0,0,0,0,0,0
		c0,0,0,0,0,0l0,0c0,0,0,0,0,0c0,0,0,0,0,0c0,0,0,0,0,0l0,0l-0.7-0.3c0,0,0,0,0,0c0,0,0,0,0,0c0,0,0,0,0,0c0,0,0,0,0,0c0,0,0,0,0,0
		l0,0.1l0,0c0,0,0,0,0,0c0,0,0,0,0,0c0,0,0,0,0,0l0,0l-0.6-0.2c0,0,0,0,0,0c0,0,0,0-0.1,0c0,0,0,0,0,0c0,0,0,0,0,0c0,0,0,0,0,0
		l0,0.1l0,0c0,0,0,0,0,0c0,0,0,0,0,0c0,0,0,0,0,0v0l-0.6-0.2c0,0,0,0,0,0c0,0,0,0,0,0c0,0,0,0,0,0c0,0,0,0,0,0c0,0,0,0,0,0l0,0.1
		l0,0c0,0,0,0,0,0c0,0,0,0,0,0c0,0,0,0,0,0l0,0l-0.6-0.2h0l0,0l0,0l0,0l0,0h0l0,0l0,0l-0.8,0l0.1-0.2l1-0.7c0,0,0.2,0,0.2,0
		c0,0,3.6-0.1,3.6-0.1c0.4,0,0.4,0.1,0.7,0.2"/>
	<path class="st12" d="M103.1,145.9c0,0-1.1,1.9,2.6,4l0,2.2"/>
	<path class="st2" d="M92.6,23.2L90,22.8c-0.3-0.4-0.5-0.8-0.5-0.8s-0.9-1.9-1.1-2.4c-0.2-0.5-0.8-2-1-2.2c-0.2-0.2-0.5-1.1-0.4-1.9
		c0.2-0.7-1.6-7.5,4.9-11c6.5-3.5,9.4-2.7,10.8-2.3c1.5,0.4,3.3,2,4.1,3c0.1,0.2,0.3,0.4,0.5,0.7v0c0,0,0.9-0.6,1.7-1.1
		c0.9-0.5,3.6-0.2,3.6-0.2s1.9,0.4,3.1,1l0,0c1.4-1.4,6-1.1,6.7-1.4c0.7-0.3,4.3,0.4,4.3,0.4c1-0.8,3.3-0.3,5.3,1
		c2.1,1.3,2.8,2.9,4.8,6.2c2,3.3,0.7,6,0.7,6.6c0,0.6,0.5,1.4,0.5,1.4s0.2,0.9,0,1.5c-0.2,0.6-1.3,1.3-1.3,1.3s-0.1,0-0.2,0.1
		l-2.5,0.8"/>
	<g>
		<path class="st3" d="M149.3,172.5c0,0-0.4,3.6-0.9,4.3c0,0,0.5,0.8,0.3,1.6c-0.2,0.8-1.1,4.1-1.1,4.1s0.4,0.2,0.3,1.3
			c-0.1,1.1-0.8,2.6-0.8,2.6s-1.6,1.6-6.7,2l-0.4-1.1c0,0-2.4,1.9-2.7,1.9c-0.3,0.1-5.3,2.6-10.1,2.1c-4.9-0.5-7.3-2.3-8.8-3.7
			l0-1.6l0.8-0.1c0,0,0.1-1.2,0.2-1.4c0-0.2,0.1-1,0.2-1.2c0.1-0.2,2.6-2,2.6-2l4.6-2.6l1.8-1.8h0.2c0,0,1.1-1.7,1.2-1.7
			c0.2,0,2-2,2-2.5c0,0-0.5-0.4,0.7-3.2"/>
		<path class="st4" d="M153.8,90.9c0.7-0.5,1.2-0.6,1.3-1.2c0-0.6,0.6-1.5,0.9-2.2c0.3-0.7,0.3-1.5,0.5-4.3c0.2-2.8,0.1-2.2,0.4-3.9
			c0.3-1.7-0.7-5.2-0.9-5.6c-0.2-0.5-0.9-2.5-0.8-3.1c0.1-0.6-0.7-2.6-0.7-2.6s-0.7,0.2-0.8,0.6c0,0.4-0.5,1.2-0.6,1.3
			c-0.1,0.1-3.2,1.6-3.3,1.6c-0.1,0-0.2,0.3-0.2,0.3l-4.1,1l-0.2,0.3c0,0-2.9,0.6-3.2,0.7c-0.3,0.1-1,0.3-1.6,0.1"/>
		<path class="st4" d="M153.8,87.7L154,88c0,0,0.2,0.7-0.2,1c-0.4,0.3,0.3,1.6-0.3,2.9c-0.6,1.3-0.8,2.1-0.8,2.1s0.5,1.3-0.6,1.5
			c0,0,0.3-1.4-1.6-2.2c-1.9-0.8-12.4-4.5-12.6-4.6"/>
		<path class="st4" d="M155.3,71.4c0,0,0.2,5.7-0.8,9.5c-1,3.8-1.7,5.3-1.4,7.5l0.4,1c0,0,0.1-0.9,0.6-3c0.5-2.1,2.6-8.4,1.7-13.6"
			/>
		<path class="st4" d="M153.1,87.2c0,0-1.7-1.2-4.3-1.3c-2.6-0.1-8.7-0.2-10.1,0"/>
		<path class="st4" d="M154.8,68.5c2.5-0.2,0.3-2.3,0.3-2.3s0.1-0.4,0.7-1.2c0.5-0.8,0.3-2-0.2-3.2c-0.5-1.2-2.3-0.8-2.3-0.8
			s0.4-0.8-1.1-3.1"/>
		<path class="st4" d="M152.1,95.4c0,0-1.2,4.6-1.5,5.5c-0.3,0.9-1,2.4-1,3.2c-0.1,0.8-0.5,2.4-0.9,3.4c-0.4,1-1.9,7.7-2.9,9.1
			c0,0-0.5,9.2-3.2,11.5c0,0,0.6,0.7,0.7,0.9c0.2,0.3,0.6,1.6,0.7,2.1c0.1,0.5,0.6,1,0.5,1.5c-0.1,0.5-0.5,1.6-0.1,2.2
			c0.4,0.6,0.8,1.1,0.6,1.8c0,0,2.2,2.4,2.7,3.8c0.5,1.3,1.1,5.6,1.1,5.6s0.6,2.7,0.8,3.2c0.2,0.5,0.1,2.6,0,3
			c-0.1,0.4,0.2,2.8,0.2,3c0,0.2,0.4,4.3,0.4,4.9c0.1,0.6,0.3,3.3,0.3,4.1c-0.1,0.8,0.1,1.3,0.8,2.4c0.7,1.1,0.9,1.1,0.8,1.3
			c-0.1,0.3,0.2,2.5,0,3.3c-0.2,0.8-1.1,1.4-1.6,1.4c-0.5,0-0.1,0.3-1.3,0c-1.2-0.3-2.4-0.2-2.9-0.2c-0.6-0.1-0.7-0.4-0.8-0.5
			c-0.2-0.1-1.3-1.2-1.6-0.9c-0.3,0.3-1.8,0.4-1.8,0.4s-8,0-9.5-1.7c-1.5-1.7-2.1-1.8-2.1-2.5c-0.1-0.7-0.2-1.4-0.2-1.6
			s-0.6-3.1-0.4-4.3c0.2-1.2-0.3-2.1,0.2-3.1c0.5-1,0.5-1.4,0.5-1.4s0.7-3.5-0.3-6.5c-1.1-3-1.6-5.3-1.9-5.9
			c-0.2-0.5-0.6-1.3-1.5-1.9c-0.9-0.6-2.8-3.6-2.5-5.7c0.3-2.2,0.6-1.8,0.2-2.6c-0.4-0.8-1-2-1.1-3"/>
		<path class="st4" d="M137.9,30.9c0,0,1.5,6,1.8,9.7c0.3,3.7,0.8,15.7,0.8,20.4c0.1,4.7,0.2,13.1,0,14.5c-0.2,1.4-0.1,6.8-0.7,7.8
			c-0.6,1-1.8,4.4-1.8,4.4v2.9c0,0,0,1.4,0,2c0,0.5-0.2,1.1-0.1,2.2c0.1,1.1,0.3,3,0.1,4.3c-0.2,1.3-0.9,1.1-0.5,2.1
			c0.4,0.9,0.9,1,0.5,2c-0.4,1-0.6,1.9-0.6,2.6c0,0.7,0.4,2.5-0.5,4c-0.9,1.5-1.7,1.6-1.9,1.6c-0.1,0-0.8,0.2-0.8,0.4
			c0,0.2,0.4,0.8,0.4,0.8s0.7,2.2-0.9,3.3c-1.7,1.1-1.6,1.7-1.9,1.7c-0.3,0,0.4,0.4-0.3,1.8c-0.7,1.3,0,1.9,0,2.6
			c0,0.6-0.4,1.3-0.3,1.9c0.1,0.6,0.3,1.8,0,2c-0.3,0.2-1.7,0.9-1.7,0.9s0.1,0.9-0.5,2c-0.5,1.1-0.7,2.2-2.8,2.6"/>
		<path class="st4" d="M125.1,131.4c0,0-2.2-0.3-2.5-0.7c-0.4-0.4-1.5-1.7-1.5-1.7s-1.3-0.9-1.4-1.3c-0.1-0.4-0.1-1,0.2-1.1
			c0.3-0.1,1.1,0,1.1,0l-0.2-0.8c0,0-0.2-0.8-0.3-1.4c-0.1-0.5-0.9-0.2-0.8-1c0.1-0.8,0.3-2.3,0.5-2.3c0.1-0.1,1.2-1,1.2-1
			s0-0.9,0.1-1.7c0.1-0.8,1.3-2.7,1.7-3.1c0.3-0.4,0.1-0.6,0.1-0.6l-0.1-0.3l-1.3-0.5l0-2.9h0.8l-0.5-1.6c0,0-0.1,0.4-0.3-0.5
			c-0.2-0.9,0.2-1.3,0.2-1.3s-0.7-1.6-0.7-2.5c0-0.9-0.1-4.2,0-5.3c0.2-1.1,0.4-0.8,0.1-1.5c-0.3-0.7-0.2-1.1-0.4-2
			c-0.2-0.9-0.5-1.3-0.4-2.9c0.1-1.6,0.2-2.8,0.1-3.4c-0.1-0.5,0-2.3,0.1-2.6c0.1-0.3,0.4-1.1,0.4-1.1s0.5-0.7,0.5-1.2
			c0-0.5-0.7-1.8-0.7-1.8s-0.4-1.4-0.2-1.7c0.1-0.2-0.3-1-0.3-1s-0.5-1-0.6-2c-0.2-1-0.8-2.3-0.7-2.6c0.2-0.4,0.4-0.9,0.4-1
			c0-0.1,0.9,0.4,0-0.6c-0.8-1-0.4-3.2-0.7-4.3c-0.3-1.1,0-4.4,0-4.4s-1-1.4-1.2-2.1c-0.2-0.7-0.4-4.1-0.3-4.3
			c0.1-0.2,0.4-1.6,0.4-1.7c0-0.1,0-1.2,0-1.2s-1.1-2-1.7-4.5"/>
		<path class="st4" d="M153.3,61c0,0-0.2,0.7-0.8,1c-0.6,0.3-4.9,1.4-6.1,2"/>
		<path class="st4" d="M140.6,67.3c0,0,3.8-2.1,5.1-2.8c1.4-0.7,1.8-2.3,3.6-3.7c1.8-1.4,1.6-1.6,2.5-2.5c0.9-0.9,0.1-1.5,1.1-2.6
			c1-1.1,0.3-1.4,0.3-1.8c0-0.4-0.3-3.2-0.3-3.2s-0.2-0.5-0.8-1c-0.6-0.5-1.1-1.8-2.1-2.8c-1-1-1.5-2.2-1.5-2.2s0-1.2-1-3.9
			c-1-2.7-1.4-5.1-2.7-7.2c-1.3-2.1-1.4-3.5-10.3-8.8"/>
		<path class="st4" d="M142.7,66.1c0,0-1.4,1.9-2.1,2.4"/>
		<path class="st4" d="M148.8,44.7c0,0,0,3.7,0,4.7c0,1-0.5,2.2,0,2.5"/>
		<path class="st4" d="M121,87.7c0,0,3.6-0.7,4.5-3.8"/>
		<path class="st4" d="M138,87.7c0,0-1.2-4.1-2-5.4"/>
		<path class="st4" d="M131.6,88.7c0,0-9.3,3-7.2,0.8"/>
		<path class="st4" d="M134.7,109.8l-1.7-2.1c0,0-4.2-0.5-4.8-0.7c-0.5-0.2-4.5-1.5-5.6,0"/>
		<path class="st4" d="M147,170c0,0,3.2-2.5,1.6-17.6"/>
		<path class="st4" d="M137.6,137.7c0,0-7.3,1.9-9,1.5"/>
		<path class="st4" d="M149.6,92.8c0,0-1.5,7.3-3.5,9.6"/>
		<path class="st4" d="M118.8,70.9c-0.2,0-4.9-0.6-6.7-1.4c-1.8-0.8-3-1.3-3.8-2.3c-0.8-1-2.2-2.5-2.4-2.9c-0.2-0.4-1.4-2.7-1.6-3
			c-0.2-0.3-2.7-4.1-3.5-7.2c-0.8-3.1-0.8-3.3-1.9-7.6c-1.1-4.3-1.4-5.2-1.7-6.3c-0.3-1.1-0.4-1.2-0.3-2c0.1-0.9,0.4-3.7,0.5-4.4
			c0-0.8-0.2-2,0.6-2.9"/>
		<path class="st4" d="M101.4,33.4c0.6,0.4,1.2,1.5,2.1,2.6c0.9,1.1,2,0.6,3.5,0.3c1.5-0.3,2.2-1.2,2.5-1.8c0.3-0.6,1.3-2.1,2.1-3.3
			c0.8-1.2,1.8-4.6,1.8-6c0.1-1.4-0.9-3.2-1.1-3.5c-0.2-0.4-0.3-1.7-0.3-1.7s0.7-0.5,0.9-1c0.2-0.4,0-0.5,0.1-1.1
			c0.1-0.6,0-1.6-0.3-2.4c-0.3-0.8-0.3-1.2-1.1-1.7"/>
		<path class="st4" d="M100,32.3c0,0-1.2-1-1.7-1.2c-0.4-0.2-2.2-1.3-3.1-2.3c-0.9-1.1-1-1.4-1.2-1.5c-0.2-0.1-0.8-0.2-1.4-0.9"/>
		<path class="st4" d="M104.1,29.8c0.3,0.3,0.2,1.1-0.4,1.5c-0.6,0.4-1.2,0.9-1.3,1.2c-0.2,0.3-0.2,0.7-0.9,0.8
			c-0.7,0.2-1.3-0.7-1.4-1.4c-0.1-0.6-0.2-1.1-0.4-2c-0.2-0.8-0.8-2.1-0.8-2.1s-0.3-0.6-0.6-0.7C98,27.1,97,27,96,27
			c-1,0-1.7,0.4-2,0.3"/>
		<path class="st4" d="M97.8,27.1c0,0-1,1.3-2.7,0.7c0,0,0.6-0.6,0.9-0.8"/>
		<path class="st4" d="M101.7,25.7c0.5-1.2,3.1-1.4,3.1-1.4s-0.3,0.8-0.9,1.1C102.5,26.1,101.7,25.7,101.7,25.7z"/>
		<path class="st4" d="M105.7,23c0,0-2.1,0.8-2.6,1c-0.6,0.2-1.5,0.7-2,1.2c-0.4,0.4-0.5,0.6-0.5,0.6s-0.7-0.7,0-1.2
			c0.7-0.5,1.9-1.3,2.1-1.3C102.8,23.2,105.7,23,105.7,23z"/>
		<path class="st4" d="M97.4,27c0,0-1-0.5-1.4-0.5c-0.3,0-0.5-0.2-1.3,0c-0.7,0.2-1.8,0.2-1.9,0.2"/>
		<path class="st4" d="M102,33.6c0,0,0.4,0,0.8,0c0.4,0,1.3-0.1,2-0.5c0.7-0.4,1.9-0.9,2-0.9"/>
		<path class="st4" d="M111.5,18.2c0,0,0.7-1,0-1.4c-0.7-0.4-0.8-0.4-0.8-1c0-0.5,0-1,0-1"/>
		<path class="st4" d="M107.8,17c0,0,0.4,1.7,1.7,2.3c0.5,0.2,1.2,0.8,1.2,0.8l0.2-0.7c0,0-0.4-1.3-1.1-1.9
			c-0.7-0.6-0.4-1.6-0.4-1.6"/>
		<path class="st4" d="M112.8,19.2c0,0,0.4,2.4-0.1,3.5"/>
		<path class="st4" d="M107.4,5.9c0,0,0.9-0.6,1.7-1.1c0.8-0.5,3.6-0.2,3.6-0.2s2.7,0.6,3.7,1.3c1,0.7,0.2-0.1,1.8,0.5
			c1.5,0.6,2,1.1,2,1.1s2,1.4,2,1.5c0.1,0.2,1.5,1.4,1.9,2.4c0.4,0.9,1.2,1.7,1.1,2.4c0,0.7,0.4,4.1-0.5,5.6
			c-0.9,1.5-1.4,2.4-1.5,2.5c-0.2,0.1-1.2,0.6-1.4,0.8c-0.1,0.2-1.4,4.6-2.7,6c-1.3,1.4-3.5,2.9-3.7,3c-0.3,0.1-3,1.4-3.4,2.2
			c-0.4,0.8-1.7,1.9-2,2.3c-0.3,0.4-1.5,1.7-1.6,1.9c-0.1,0.2-0.9,2.1-0.9,2.1l-1.8,1.6c0,0,0.3-1.6,0-2.5c-0.3-0.9-0.5-2.6-0.5-2.6
			"/>
		<path class="st4" d="M102.7,44.1c0,0-2.5-4.3-2.6-5.7c-0.1-1.4,0.1-3.9,0-4.5c-0.1-0.6-0.5-2-0.5-2"/>
		<path class="st4" d="M106.3,44.6c0.3-0.3,1.6-1.6,3.5-2.2c1.9-0.7,2.5-0.2,2.6-1.1c0.2-0.9,0.3-1.2,0.3-1.2s2.6-1.2,2.8-1.5
			c0.2-0.3,2.2-3.1,3.6-4.7c1.4-1.6,2.6-3.9,2.7-3.9c0.2-0.1,0.2-0.7,0.2-0.7s1.8-0.9,3-1.1c1.2-0.2,2.5,0,2.5,0l2.2-1.1l3.2-0.7
			c0,0,2-1.4,2.5-2.3c0.5-0.8,1.5-1.2,1.5-1.2s1.1-0.7,1.3-1.3c0.2-0.6,0-1.5,0-1.5s-0.5-0.8-0.5-1.4c0-0.6,1.3-3.3-0.7-6.6
			c-2-3.3-2.8-4.8-4.8-6.2c-2.1-1.3-4.4-1.9-5.3-1c0,0-3.6-0.7-4.3-0.4c-0.7,0.3-5.3,0-6.7,1.4"/>
		<path class="st4" d="M129.2,13.5c0-0.2,1.6-0.4-0.3-2.8c-1.9-2.4-1.9-2.3-2.3-2.8c-0.3-0.5-2.5-0.7-2.6-0.9c-0.1-0.2-2-1.2-2-1.2"
			/>
		<path class="st4" d="M119.7,15.9c0-0.2,3.4-7.4-2.5-9.7"/>
		<path class="st4" d="M113.7,24.5c0,0,3.1-9.4,1.6-13.8c-1.5-4.4-5-4.5-5.6-4.3"/>
		<path class="st4" d="M127,119.3c0,0-0.5,1.2-0.4,2.6c0,1.4-0.3,1.7-0.3,1.7s-0.5,1.3-0.5,1.9c0,0.5,1,1.8,0.6,2.3
			c-0.4,0.5,0.1,0.8-1.4,0.9c-1.6,0.1-2.2-0.9-2.6-1.7c-0.4-0.8-0.2-2.1-0.3-3.6c-0.1-1.5-0.4-2.6-0.5-2.8"/>
		<path class="st4" d="M129.5,126.7c0,0-0.5-1.6-1.2-2.8"/>
		<path class="st4" d="M131.7,117.5c0,0-1-2.1-3.1-3c-2.1-0.9-3.7-1-3.9-0.9"/>
		<path class="st4" d="M120.9,126.5c0,0,1.1,0,1.5,0.6"/>
		<path class="st4" d="M121.3,119.9c0,0-0.3,1.1,0,2c0.3,0.9,0.7,1.6,0.7,1.6"/>
		<path class="st4" d="M120.7,125.7c0,0-0.2-1.5,1-2.7"/>
		<path class="st4" d="M122.9,114.2c0,0-0.2-1.7,0-2.8c0.2-1.1-0.3-2.3,1.7-2.4c2-0.1,8.1,0,9.6,2.8"/>
		<path class="st4" d="M107.3,66.1c0,0,0.6,1.3,0.5,1.9c-0.1,0.5,0.2,1.6,0.2,1.6v1.4c0,0,0.7,1.2,0.7,1.6c0,0.4-0.8,2.6,0,5
			c0.8,2.4,1.6,3.6,1.3,5.1c-0.3,1.5-0.8,1.7-0.3,1.9c0.5,0.2,1.5,1.3,1.9,1.5c0.3,0.2,0.4,1.3,0.7,1.2c0.4-0.1,0.8,0,0.8,0
			s0.1-0.4,0-0.7c-0.1-0.3,0-0.7,0-0.7s1.4-2.2,6.7-1.6"/>
		<path class="st4" d="M113.1,87.2c0,0,0.4,1.8,0.3,2.8c-0.1,1.1-0.4,2.8,0.2,3.5c0.6,0.7,2.1,1.3,2.6,1.5c0.4,0.3,1.8,1.5,2.6,1.4
			c0.8-0.1,2-0.4,2-0.4"/>
		<path class="st4" d="M116.9,90.3c0.4,0.1,0.1,1.2,0.4,1.6c0.2,0.4,0.5,1.5,1,2.5c0.4,1,1.6,1.2,1.6,1.2s0.6-0.2,0.5-0.6"/>
		<line class="st4" x1="116.4" y1="95.2" x2="114.7" y2="93.6"/>
		<path class="st4" d="M113.4,89.5c0,0-1.3,1.7-1.7,3.1c-0.4,1.3-1.8,3.3-2.1,3.7c-0.3,0.4-1.4,1.6-1.7,2.2c-0.4,0.6-0.9,1.8-1,2.3
			c-0.2,0.5-0.8,1.4-1,1.7c-0.2,0.3-0.4,2.5-0.6,2.8c-0.2,0.3-1.3,3.1-1.4,4.8c-0.1,1.8,0.4,2.7,0.7,3.5c0.3,0.8,1.4,2.4,1.4,3.4
			c0.1,1,1.1,3.1,1.3,3.4c0.2,0.3,2.5,0.8,2.5,0.8s0.3,2.5,0.5,3.2c0.2,0.6,1.4,4.8,2.1,7.5c0.8,2.7,1.2,3.2,1.2,3.2
			s0.4,1.2,0.3,1.7c-0.1,0.5,0.5,3.1,0.5,3.1l0.6,1.9c0,0,1.2,1.2,2.6,1.3c1.4,0.1,2.5-0.1,3.2,0c0.7,0.1,3.6-0.4,5.3-1.4"/>
		<path class="st4" d="M130.8,155.6c0,0-0.6,0.7-2.5,0.7c-1.9,0-6.4-0.7-6.4-0.7l-0.8-1.2c0,0-1.4-0.5-3.2-0.3
			c-1.8,0.3-5.6,0.8-6.9,0.5c0,0-5.2-0.3-9.5-3.6v-0.8l-0.2-1.4l0.3-1.3c0,0,0.1-0.8,0.8-1.3c0.8-0.5,3.5-1.8,7.1-1.9l1.7-0.7
			l2.9-0.9c0,0,1.2-0.6,1.1-0.8c0,0,0.3,1.3,0.6,1.8c0.3,0.5,0.4,1.6,0.7,1.9"/>
		<path class="st4" d="M130.9,153.5c0,0-2.3,0.8-5.5,0.2c-3.2-0.6-5.4-0.8-7.8-0.7c-2.4,0.1-12.6,1.4-16-3.5"/>
		<path class="st4" d="M118.2,186c0,0,2.8,4,9.9,3.7c7-0.3,10-2,11.1-3.2c2.7-2.7,9-2.3,8.4-3.6"/>
		<path class="st4" d="M117.6,70.7c0,0,0.2,2.4,0.3,3.3c0.1,0.9,1.5,3.6,1.5,3.6"/>
		<path class="st4" d="M119.8,79.5c0,0-1.3-0.4-1.3,0.4c0,0.8,1.4,1.5,1.4,1.5s-1.4,0.3-0.7,1c0.7,0.7,1.6,0.8,1.6,0.8"/>
		<path class="st4" d="M119.9,82.8c0,0-0.2,2.1,1.1,3.3"/>
		<path class="st4" d="M119.4,79.4c0,0-1.1-1.7-1-3.8"/>
	</g>
	<g>
		<path class="st13" d="M88.9,24.4c0,0-1,3,5,1.6c0,0,15.4-2.6,17.3-10.1c0,0,2.8-7.4-4.4-12.4c0,0-4.2-2.8-4.7-3
			c0,0-10.4,0.4-14.5,6.1C87.6,6.5,82.9,12.3,88.9,24.4z"/>
		<path class="st14" d="M91.1,4.6c-5.5,6-2.8,13.9-2.8,13.9s-1,0.3,1.4,4.6l1-0.2c0,0-1.1-2.7-0.7-3.6"/>
		<path class="st14" d="M90.3,22.2c0,0,2.5,0.5,2.7-0.2c0,0,0.1-1.4-4.8-3.5"/>
		<path class="st14" d="M97.1,20.7c0,0-0.8-0.8,1-2.6l2.7-3l1.2-0.5c0,0,2.5,4.5-0.3,5.4l-0.7,0.2l-0.8-4.4"/>
		<line class="st14" x1="99.6" y1="3.1" x2="101.4" y2="14.9"/>
		<path class="st14" d="M103.4,9.9l0.7,1.8c0,0,3.2-0.8,5-2.1"/>
		<polyline class="st14" points="102.8,5.7 103,6.7 108.9,7.3 		"/>
		<path class="st14" d="M102.3,0.8c0,0-0.7,2.2-0.4,3.2"/>
		<polyline class="st14" points="102.8,2.9 102.9,4 107.4,5 		"/>
		<path class="st14" d="M104.1,15.3l0.8,2.4c0,0,2.9-1.5,4.5-5.7"/>
		<path class="st13" d="M110.3,18.1c0,0,0.8,0.6,1.7,2.1c0.9,1.4,1.7,3.6,1.7,4.3c0,0.7-0.3,4.9-1.3,5.4c0,0,0.8-4.7,0.1-6.2
			c-0.7-1.6-0.1-1.1-1.1-2.1c-1-1-2.5-1.9-2.5-1.9L110.3,18.1z"/>
	</g>
	<path class="st12" d="M122.5,181c0,0-0.3,4.1,10.8,1.6l6.3-1.8l7.6-2.8"/>
	<path class="st12" d="M119.2,184.5c0,0,1.1,2.1,4.3,2.2l0.1,4.7"/>
	<path class="st12" d="M136,174.3c-2.3-0.4-4.2-1.7-4.2-1.7s0.6,3.1,1.5,4.6"/>
	<path class="st12" d="M133.3,177.2c-2.4-0.4-4.4-1.5-4.4-1.5s0.3,2.4,1.2,3.8"/>
	<path class="st12" d="M130.8,180.3c-2.4-0.4-4.4-1.5-4.4-1.5s-0.1,1.2,1.5,2.5c0,0-2,0.1-3.5-1.5"/>
	<path class="st12" d="M128,181.2c0,0,8.8-4.6,9.5-10.2"/>
	<path class="st10" d="M130.9,173.7c0,0,5.8,5.7,16.6,8.8c0,0,1,0.5,0.4,0.7c0,0-9-1.2-17.4-8.8
		C130.5,174.4,130.2,173.9,130.9,173.7z"/>
	<path class="st12" d="M106.3,144.9c0,0-0.9,2.4,3.6,2.3l10.2-0.4"/>
	<path class="st12" d="M116.1,144.9c-8.5,1.6-6.7-0.4-6.7-0.4"/>
	<path class="st12" d="M111.5,143.5c0,0,1.5,1.3,1.2,1.9c0,0,1.2-1.5,1.3-2.8"/>
	<path class="st4" d="M103.6,24.5c0,0-1,0.4-0.2,1.1"/>
	<path class="st4" d="M96.3,27.1c0,0-0.3,0.2,0,0.8"/>
	<path class="st4" d="M263.3,608.1c-2.6,4.6-5.3,8.4-5.6,14.6c0,0-0.1,7.7,1.4,11.3c1.5,3.6,4.4,12.6,6.2,11.9"/>
	<path class="st4" d="M293.1,591.3"/>
	<path class="st4" d="M265.6,645.9l0.9,0.3c0,0,0.5,3.6,0.5,4.2c0.1,0.5,0.8,4.7,0.8,4.7s-2.3,0.4-2.5,0.2c-0.2-0.2-0.3-0.7-0.3-0.7
		s-1.4,0.7-2-0.1c-0.6-0.9-0.3-4.1,1.3-7C264.4,647.5,264.8,645.6,265.6,645.9z"/>
	<path class="st4" d="M265.1,654.6c0,0,1.5-0.6,2.5-1.4"/>
	<path class="st4" d="M267.3,652c0,0-0.9,0.6-2,1.1c-1,0.5-1.9,0.8-1.5-1.1c0.4-1.9,1.1-3.6,1.5-4.1v5.2"/>
	<path class="st4" d="M286.5,645.9c0,0,0.1,2.1,0.2,2.6c0.1,0.5,1,2.3-1.1,3.9c-2,1.5-5.3,2.4-5.3,2.4l0.6-1.9c0,0,2-0.2,2.7-0.5
		c0.7-0.4,2.1-1.5,2.2-2.2c0-0.7-0.7-2.5-1.7-3L286.5,645.9z"/>
	<path class="st4" d="M285.3,648.5l-4.1,1.8l-0.3-6.6c0,0,3-0.7,5.2-2c2.2-1.3,4.1-2,4.5-1.6c0.1,0.1,0.1,0.1,0.1,0.1
		s1.6-1.5,2.8-3.1c1.3-1.6,4.9-6.9,6.7-7c0,0,0.9-0.3,1.1,0c0.2,0.3,0.8,1.3,0.8,1.3v0.7c0,0-1.8,0.2-2.9,1.9
		c-1.1,1.7-4.1,5.5-7,7.9c0,0,0.4,1.1-0.8,2.2c-1.2,1-1.8,2.1-4.9,4"/>
	<path class="st4" d="M292.2,641.7c0,0-4,3.8-10.9,7"/>
	<path class="st4" d="M290.6,640.1c0,0-3.6,3.5-9.5,5.8"/>
	<path class="st4" d="M264.4,647.7c0,0,1.5,0.2,2.4,0.2"/>
	<path class="st4" d="M300.5,632.6c0,0-1.8,6.6-1,6.8c0,0-0.1,2.4-0.8,5.3c-0.7,2.9-2.9,8.5-3.4,10.5c-0.5,2-2.1,5.4-2.6,6.1
		c-0.5,0.7-3.4,6.8-3,11.6c0.4,4.8,2.3,9.8,3.2,9.4c0.8-0.4,0.8-0.4,0.8-0.4l4.9,1.7l1.3,0.6c0,0-1.9-1.3-2.7-6.7
		c-0.8-5.4-0.6-9-0.3-12.5c0.4-3.5,0.1-7.1,1.2-8.5c1.2-1.4,3.5-3.3,3.5-3.3l0.4,0.9l0.9,0.2c0,0-0.6-5.1-0.9-6.5
		c-0.2-1.4-0.2-8.4-0.2-8.4s0.3-0.6,0.2-2.3c-0.1-1.7,0.4-3.1,0.3-3.4c-0.1-0.3-0.3-1.7-0.3-1.7S301.3,632.1,300.5,632.6z"/>
	<path class="st4" d="M299.4,630.4l0.4-8.6c0,0,0.6,0.4,1.1,0.4l0.1,7.7"/>
	<path class="st4" d="M302.4,634.1c0,0,0.8,0.1,1.2-0.6c0.5-0.7,0.4-1.8,0.3-3.6c0-1.8-0.1-2.7-0.1-2.7s0.1,0.1-0.1-2.5
		c-0.2-2.6-0.7-4.6-1.4-4.9c-0.7-0.3-1.8,0.2-1.9,0.4c0,0,0.8,0.7,0.9,2.6c0.1,1.9,0.2,4.1,0.2,4.1h0.2l0.3,4.6"/>
	<path class="st4" d="M302.1,636.1l1.9,0.4c0,0-1-1.8-1.7-1.6"/>
	<path class="st4" d="M303.8,633.1c0,0,1.4,1.5,1.8,3c0.4,1.5,5,7.6,6.5,8.3c0,0-3,1.1-3.6,1.5c-0.6,0.4-1.6,1.5-1.8,4.4l-2.4-2.5
		c0,0,0.3-5.2,0.2-6.6c-0.1-1.4,0.1-2.8-0.6-3.5c-0.7-0.8-0.9-0.9-1.7-0.9"/>
	<path class="st4" d="M265.4,655.3c0,0-0.2,1.5,0,2.8c0.2,1.3,1.4,5.2,1.7,5.5c0.2,0.3,2.2,5.2,3.1,5.4c0.9,0.2,1.8,0,1.8,0"/>
	<line class="st4" x1="282" y1="662.2" x2="297.2" y2="649.6"/>
	<line class="st4" x1="301.9" y1="646.5" x2="304.4" y2="644.4"/>
	<path class="st4" d="M270.9,669.1c0,0,1.2,2.6,3,4.8"/>
	<path class="st4" d="M289.4,683.7c0,0,5.4,1.2,7-1"/>
	<path class="st4" d="M293.7,681.9c0,0-2.5-4.1-2.7-8.8c-0.2-4.8,4.2-13.2,4.2-13.2s-1.2,20.3,3.8,24"/>
	<path class="st4" d="M297.7,657.7l-1.7,0.4c0,0,3.4-8,4.5-13.7l1.2,8.9"/>
	<path class="st4" d="M305.5,649.2c0,0,0-7.6,0-9c0-1.4,0-1.4,0-1.4s2.8,3.6,5,4.3"/>
	<path class="st4" d="M306.6,650.4c0,0,1.3,2.3,1,6.2"/>
	<path class="st4" d="M312,644.5c0,0,3.4,0,4.3,0.4c0.9,0.5,4.6,2.8,5.2,3c0.6,0.2,11.9,9.7,15.8,13.3c3.9,3.6,4.7,4.7,5.8,5.4
		c1,0.7,4.4,3.6,5.7,4.2c1.3,0.7,3.6,3.7,3.6,3.7s4.5,2.9,4.6,3.9c0.1,1,0.6,2.9,1.2,3.7c0.6,0.9,1.4,2.2,0,3.3c0,0,1.7,5.5,2.9,8.4
		c1.2,2.8,3.1,11.1,3.6,13"/>
	<path class="st4" d="M331.1,706.8c0,0-0.7-3-0.5-4.8c0,0-1.7-1.2-2-2c-0.3-0.8-1-2.1-1-2.4c0-0.3,0-1.1,0-1.1s-1.2-1.9-1.1-3.5
		c0,0-2.1-1.1-2.2-1.3c-0.1-0.2-4.6-1.7-4.6-1.7s-1.4-0.2-2,0c-0.5,0.2-3.3-0.9-3.8-0.9s-2.5,0.3-3.3,0c-0.7-0.3-3.2-1.5-3.9-1.8
		c-0.7-0.3-3.4-0.8-3.9-1c-0.5-0.2-2.4-1.3-3-2"/>
	<path class="st4" d="M259.3,632c0,0,1.7,4.1,5.8,5.9"/>
	<path class="st4" d="M259.3,629.1c0,0,2.2,4.5,5.3,6.5"/>
	<path class="st4" d="M283.1,626.9c-0.9,2.3-1.1,3-1.1,3s0.4,1.3,0,1.6c-0.4,0.2-1.4,5.1-1.4,5.1s0.4,4.3,0.4,7.1"/>
	<path class="st4" d="M281.2,650.4c0,0-0.1,1.7-0.3,2.6"/>
	<path class="st4" d="M345.6,682.2c-3.4-2.8-3.7-3.5-6.2-5.5c-2.6-2-6.2-4-7.2-4.6c-1-0.6-2.5-1.9-3.3-1.4l-3.6-2c0,0-1.1-2-3.6-3.2
		c-2.4-1.2-6.1-2.7-6.1-2.7c-2.9-1.3-4.7-3-5.4-3.9c-0.7-0.9-2.7-2.4-3.5-3c-0.8-0.6-3.7-1.6-3.7-1.6"/>
	<path class="st4" d="M330.6,702c0,0,0.9,0.6,4.3-2.3"/>
	<path class="st4" d="M264.4,634.1c0,0,3.1,1.8,5.9,2.3c2.8,0.5,8.5,1.1,10.3,0.2"/>
	<path class="st4" d="M280.7,636.5c0,0,4.4,1.1,6.8,0.6c2.4-0.5,6-1.1,6.4-1.5"/>
	<path class="st4" d="M280.9,640.1c0,0,3.7,0.2,6.1-0.4"/>
	<path class="st4" d="M293.1,591.8c0,0-0.9,0.6-2.9,0.7c-2,0.2-3.4,0.5-3.4,0.5s-2.4,1.8-2.1,4.3c0.3,2.5,1.9,7.4,2.1,8.5"/>
	<path class="st4" d="M292.8,592.8l-1.2,0.9l-1,0.9h1l-0.5,0.6l-0.5,0.7l0.6,0.5l-0.6,0.5v0.8v0.4v0.7l0.2-0.6l0.6,0l0.2,1
		c0,0,1.2,0,1.8,0.7"/>
	<path class="st4" d="M290.6,598.8v3.9c0,0,0.3-1.1,1-1.3v-2.1"/>
	<path class="st4" d="M290.6,602.6c0,0-0.2,0.7-0.4,1.4c-0.1,0.7,0,1.6,0.4,1.6c0.4,0.1,1.2,0.3,1.2,0.3"/>
	<path class="st4" d="M291.6,601.3c0,0,1.3-0.1,1.9,0.9c0.7,1,1.8,2.6,1.1,3.1"/>
	<path class="st4" d="M290.9,603.5c0,0,1-3.4,3.2,0.5c0,0,0.2,0.8-0.3,1.1"/>
	<path class="st4" d="M295.2,588.3c0,0-2.4,3-2.6,6.2c-0.2,3.3,0.9,4.5,1.6,7.3c0.8,2.9,2.1,6.8,3,8.7c0.9,1.9,4.3,6.9,8.1,7.7
		c3.8,0.8,5.8-0.1,7.4-2.2c0,0,4.4-2.4,5.8-5.4c1.5-3,2.6-8.6,1.2-14.2c-1.4-5.6-3.7-8.8-8.6-9.7c0,0-3.5-1.9-5.4-2
		C303.7,584.5,298.9,583.6,295.2,588.3z"/>
	<path class="st4" d="M305,602.4c0,0-0.1,1.6,0,2.1c0.1,0.5,0.5,0.9,0.9,0.5c0.4-0.3,0.4-0.7,0.2-1.5
		C305.9,602.9,305.1,601.3,305,602.4z"/>
	<path class="st4" d="M306.4,606.5c0,0-1.4,2.4-1.1,2.7c0.3,0.4,2,0,2,0s0.7-0.1,0.4-1.1C307.6,607.1,307,605.3,306.4,606.5z"/>
	<path class="st4" d="M305,610.4c0,0,2.6,0.2,2.9,0.3c0.2,0,1,0.4,0.7,1.2c-0.3,0.8-0.6,1.1-1.3,0.6
		C306.5,612,303.8,610.5,305,610.4z"/>
	<path class="st4" d="M304,611.5c0,0,1.9,1,2.4,1.9c0.6,0.9,0.2,1.3-0.7,1.3c-1,0-2,0.1-2.6-0.4c-0.6-0.5-0.8-1.5-0.7-1.9
		C302.5,612.1,303,610.9,304,611.5z"/>
	<path class="st4" d="M312.6,615.9c0,0-1.6,1.1-4.6,1"/>
	<path class="st4" d="M301.1,596.7c0,0,2.4-11.2,9.9-10.2"/>
	<path class="st4" d="M298.1,592.8c0,0,0.1,1.9,0,2.6c-0.1,0.7-1,2.1-2.1,1c-1.1-1.1-1.2-1.5-0.4-2.5
		C296.5,592.7,298.1,591.3,298.1,592.8z"/>
	<path class="st4" d="M298.3,589.5c0,0,0.9-5,8-4.8"/>
	<path class="st4" d="M295.3,605.8c0,0-1.1,0.7-1.2,0.8c-0.1,0.1-0.5,0.6-0.5,0.6l0.3,0.4l2,1.9"/>
	<path class="st4" d="M296.8,609.8l-4-1.7c0,0-0.2-1.8-1.2-2.1c-1-0.3-1.2,0.9-1.2,1.7c0,0.8,0.2,1.8,0.7,2c0.5,0.2,0.9,0.4,1.4-0.4
		l5.1,2.1"/>
	<path class="st4" d="M292.8,608.1c0,0,0,0.8-0.3,1.2"/>
	<path class="st4" d="M290.8,609.2c0,0,0.1,1.2,1,2.3c0,0-0.1-1.3,0.2-1.8"/>
	<path class="st4" d="M291.8,611.5c0,0,1.4,1.1,2,1.6c0.6,0.4,2.3,2,3.5,2.4c1.2,0.4,4.1,0.5,4.1,0.5"/>
	<path class="st4" d="M301.8,616.4c0,0,0,0.8,0.6,1.4c0.6,0.6,1.5,0.9,2.1,0.2"/>
	<path class="st4" d="M298.4,615.8c0,0,0,2,0,2.6c0,0.7,0.3,3,1.4,3.4"/>
	<path class="st4" d="M300.8,622.2c0,0,0.3,0,0.5-0.1"/>
	<path class="st4" d="M303,620.6c0.1-0.1,0.7-0.6,0.6-2.2"/>
	<path class="st4" d="M300.5,620.1c0,0-0.8,0-0.6-4.2"/>
	<path class="st4" d="M301.9,619.6c0,0,0.6,0,0.5-1.8"/>
	<path class="st4" d="M303.7,624.6c0,0,1.6-2.1,2.1-4.5c0,0,5-0.9,6-3.4"/>
	<path class="st4" d="M305.9,620.1c0,0,0.2-1.1,0.2-1.8"/>
	<path class="st4" d="M313.1,615.6c0,0,0.7,4.8,1.5,8.4c0.9,3.5,1.7,4.5,2.4,5.9c0.8,1.5,3.3,8.9,3.7,17.7"/>
	<line class="st4" x1="296.9" y1="706" x2="297.1" y2="706.8"/>
	<path class="st4" d="M300.2,702.8c0,0-0.3,0.3,0.4,1.3"/>
	<path class="st4" d="M326.5,692.9c0,0,1.1,1,1.6,1.3c0.5,0.3,2.1,0.5,2.1,0.5"/>
	<path class="st4" d="M327.7,695.1c0,0,3.4,0,4.2-0.9c0.8-0.9,3.1-2.6,3.1-2.6"/>
	<path class="st4" d="M334.3,693.3c0,0,5-10.6-2-19.1"/>
	<path class="st4" d="M325.3,668.7c0,0,2.1,3.4,2.7,5.5"/>
	<path class="st4" d="M316.7,664.2c0,0,10.9,2.7,11.6,16.8"/>
	<line class="st4" x1="329" y1="670.7" x2="329.8" y2="671.5"/>
	<path class="st4" d="M302.1,654.2c0,0,1,1-0.4,3.9"/>
	<path class="st4" d="M302.3,654.6c0,0,1.1,2.1,0.6,3.5"/>
	<path class="st4" d="M304,655.4c0,0,3.6,4.2-5.2,13.7"/>
	<path class="st4" d="M296.5,651.6c0,0-6.6,3.8-9.5,9.8"/>
	<path class="st4" d="M295.8,653.4c0,0-4.2,3.5-5.9,5.2"/>
	<path class="st4" d="M295.1,655.9c0,0-2.5,1.8-2.7,2.2"/>
	<path class="st4" d="M266.7,661.5c0,0,1.6,1.5,2.8,0.2"/>
	<path class="st4" d="M281.2,655.1c0,0,5.7-2.5,7.3-3c1.6-0.5,4.9-1.2,4.9-1.2"/>
	<path class="st4" d="M306.8,650.6c0,0,3.5-2.7,7.8-4.3"/>
	<path class="st4" d="M307.3,652.3c0,0,9.8,5.5,12.6,9.9"/>
	<path class="st4" d="M337.6,675.4c0,0,10.1,1.8,11.6,2.8"/>
	<path class="st4" d="M324.8,667.9c0,0,8,1.2,13.6,2.3"/>
	<path class="st4" d="M278.7,599.9c0,0,3.1,0.2,5,7.1"/>
	<path class="st15" d="M294.5,589c-1.5-0.1-3.4-1.5-4.9-2.1c-2.3-0.8-5-1.3-7.1,0c-2.5,1.6-3.5,3.8-3.6,6.7
		c-0.1,3.2,2.1,6.1,3.8,8.7c1.9,2.8,4.2,4.3,7.1,5.9c0.2,0.1,0.8,0.4,0.6,0.3"/>
	<path class="st15" d="M295.7,587.8c-1-0.5-2.4-0.6-3.3-1.2c-1-0.6-2-1.6-3.2-2.2c-2.6-1.3-5.4-1.4-8.3-1.5c-1.7-0.1-4-0.3-5.7,0.3
		c-1.2,0.4-2.3,1.5-3.4,2.2l-0.5,0.4c-1.4-0.7-4.7,1.3-6,1.9c-2.2,1-4.4,1.5-6.5,2.6c-3.6,1.9-8.7,7.4-6.2,11.8
		c-2.6,1-2,5.6-1.9,7.6c0.1,1.9,0.1,3.8,0.3,5.7c0.2,2.2-0.5,4.5-0.2,6.7c1,6.4,0,15.1,5.8,19.5c0.8,0.6,1.6,1.3,2.6,1.7
		c1,0.4,2.8,0.3,3.3,0.8"/>
	<path class="st3" d="M257.5,613.4c2.7-2.5,5.3-3.9,8.9-4.5c3.7-0.6,6.3,1.4,9.6,3.2c3,1.6,5.3,4,7.6,6.5c2.5,2.8,2.3,5.8,1.5,9.1
		c-0.3,1.1-0.4,2.4-0.6,3.5c2.4-3,4.2-4.9,4.6-8.6c0.3-3.4-1.1-6.9-2.4-9.9c-3.1-7.3-8.3-10.1-15.6-12.3c-1.1-0.3-2.5-0.9-3.4-1.2"
		/>
	<path class="st4" d="M272.3,585.2c-0.6,0.3-0.9,1.2-1.4,1.7c-0.5,0.5-1,0.9-1.4,1.5c-0.7,1-1.4,2.1-1.5,3.4
		c-0.2,2.5,0.3,4.5,1.9,6.4c0.3,0.3,0.5,0.7,0.8,1c0.4,0.5,1,0.6,1.6,1c0.4,0.3,0.7,0.8,1.2,1c0.3,0.1,0.8-0.1,1,0.2"/>
	<path class="st4" d="M278.9,595.2c0.1-2.4,2.4-3.8,4.4-4.6c1.1-0.4,4.1-1.7,4.9-0.5"/>
	<path class="st4" d="M286.4,593.2c1.3-1.3,2.8-1.3,4.3-1.7"/>
	<path class="st4" d="M345.6,682.1c0,0,1.8,4.2,1.8,5.1c0,1.1-0.3,2.1-0.2,3.2c0.1,1.3,0.1,2.6,0.2,3.9c0,0.9,0.3,1.9,0.5,2.8
		c0.1,0.6,0.2,1.3,0.4,1.8c0.4,1,1.1,1.7,1.4,2.8c0.2,0.6,0.4,2,0.8,2.3"/>
	<path class="st15" d="M285,692.5c-0.8,0.2-1.5,0.8-2.4,1c0.2,0.2,0.1,0.4,0.2,0.7c0.2,0.5,0.5,1.1,0.8,1.6c0.5,0.8,0.5,1.5,0.6,2.5
		c0.1,1.5,0.5,2.9,0.6,4.3c0.1,0.7,0.6,1.4,0.8,2.1c0.1,0.5,0.2,1.2,0.5,1.6c0.4,0.5,1,0.9,1.6,1c0.6,0.2,1.1,0.1,1.7,0.2
		c0.8,0.1,1.5-0.3,2.3-0.2c1,0.2,2-0.2,3-0.2c1,0,2,0.2,3,0c0.9-0.2,2.3,0.2,2.9-0.5c0.3-0.4,0.6-1,0.8-1.5c0.4-1,0.4-2.1,0-3.2
		c-0.3-1-0.9-1.7-1.5-2.4c-0.6-0.8-1-1.6-1.6-2.4c-0.3-0.4-0.7-0.8-0.9-1.2c-0.2-0.5-0.3-0.9-0.6-1.4c-0.4-0.7-0.9-1.3-1.5-1.8
		c-0.4-0.3-0.8-0.5-1.1-0.8c-0.3-0.3-0.5-0.6-0.8-0.9c-0.4-0.5-0.8-1-1.2-1.5c0,0.6-0.8,1-1.3,1.3c-0.8,0.4-1.6,0.9-2.5,1.2
		c-0.6,0.2-1.2,0.3-1.8,0.4C286.3,692.2,285.2,692.3,285,692.5"/>
	<path class="st16" d="M259.6,622.5c-0.1,2,1.4,3,1.9,4.6c0.5,1.5,0.6,3.1,1,4.5c1,3.3,1.4,6.3,1.7,9.9c0.7,7.2,2,14.2,3.4,21.3
		c1.2,6,3.2,11.5,5.3,17.3c1.1,3,2.6,4.6,5,6.5c2.2,1.8,3.5,3.6,5.1,5.7c2.1,0.7,9-1,9.5-3.3c0.2-1.1-1.2-3.1-1.4-4.2
		c-0.4-1.7-0.3-3.3-0.5-5.1c-0.6-4.2-1.9-6.8-3.9-10.6c-1.9-3.4-2.3-6.4-2.6-9.9c-0.1-1.3-0.9-2.1-1.1-3.4c-0.1-1.2,0.6-2.4,0.4-3.8
		c-0.2-1.4-0.8-2.4-0.7-4c0.2-1.7,0.7-2.9,0.4-4.6c-0.3-1.7-0.7-2.3-0.1-4c0.7-2.1,1.2-3.5,1.2-5.7c0-2.9,0.8-6,1.1-8.4"/>
	<path class="st4" d="M297.2,698.5c1.4,1.5,2.5,5.2,2.1,7.1"/>
	
		<linearGradient id="SVGID_1_" gradientUnits="userSpaceOnUse" x1="289.7084" y1="680.826" x2="287.5018" y2="673.8011" gradientTransform="matrix(22.9889 0.107 -7.2071 1.1604 -1425.1125 -118.3471)">
		<stop  offset="0" style="stop-color:#FFFFFF"/>
		<stop  offset="1" style="stop-color:#FFFFFF;stop-opacity:0"/>
	</linearGradient>
	<polygon class="st17" points="372.3,707 284.1,707.9 284,694.2 372.2,693.3 	"/>
	<path class="st18" d="M123.5,253.6c1,0.1,2.5-0.6,2.6-2.5c0.1-1.9-1.2-2.6-1.7-2.8c-0.2-0.1-0.6-0.2-1.2-0.4l-0.4-0.1l-0.2-0.3
		l-2.4-0.6c0,0-0.2,0-0.2,0.1c-0.1,0.2-0.3,0.1-0.3,0.1c-1.6-0.3-2.4,0.8-2.4,0.8l1.1,0.5c0,0,0.3-0.5,1.1-0.3v0.1h0.2l0.1,0.2
		l2.6,0.6l0.2-0.2c0,0,2.4,0.1,2.3,1.7c-0.1,1.5-0.9,1.9-1.5,1.8"/>
	<line class="st4" x1="122.7" y1="247.6" x2="122.5" y2="249.1"/>
	<line class="st4" x1="120" y1="247.2" x2="119.8" y2="248.3"/>
	<path class="st0" d="M128.5,252.7c0,0-0.4-0.1-0.8,0.1c-0.4,0.2-0.6,1.1-2.4,0.8"/>
	<path class="st0" d="M125.5,253.7c-0.4-0.1-0.9-0.3-1.2-0.6c-0.9-0.7-1.2-0.8-1-1.6c0.1-0.3,0.4-0.3,0.5-0.4
		c-0.2-0.2-0.3-0.4-0.3-0.7c0.1-0.8,1-0.9,1.3-0.9c1.2-0.1,2.4,0.6,3.1,1.3c0,0,0.1,0.1,0.1,0.1"/>
	<path class="st19" d="M124.2,250.8c0.5-0.2,1.1-0.1,1.1-0.1s2,0.6,1.7,1.5c0,0-0.1,0.9-0.5,1.4"/>
	<line class="st20" x1="124.8" y1="251.6" x2="125.3" y2="251.8"/>
	<path class="st18" d="M116.7,251.3c0.1,0.3,0.7,0.6,0.7,0.6h0c0.2,0.2,1,0.5,1,0.5c0.4-0.1,1-0.3,1-0.3c0-0.2,0-0.3,0-0.3
		s-1.2-0.3-1.6-0.7c0,0-0.3,0.1-0.5,0.2C117.1,251.3,116.7,251.3,116.7,251.3z"/>
	<polyline class="st18" points="125,250.8 124.8,251.8 125.4,252.1 125.7,250.9 	"/>
	<path class="st0" d="M128.1,250.9c0,0,0.7,1,0.3,2.5c-0.4,1.6-2.6,2.2-4.8,0.2c0,0,0.9-0.1,1.1-0.2c0,0,1.5,0.5,1.9,0.1
		c0.4-0.4,0.7-1.5,0.3-1.9"/>
	<path class="st20" d="M124.8,251.8c0,0-0.5-0.2-0.9-0.6"/>
	<path class="st0" d="M115.1,94.1c0.2,7.9-0.5,19.1-0.9,29.1c0,0.8-0.1,1.7-0.1,2.5c-0.5,15.7-1.3,36.5-33.4,45
		c-0.2,0.6-0.5,1.3-0.9,1.9c0.4,1.2,0.7,2.3,1,3.6c5.5,26.3,15.8,30.6,26.7,35.1c2.1,0.9,4.3,1.8,6.4,2.8c9,4.5,15.3,16,16.9,25
		c1,5.5,0.2,10.1-2.1,13c0,0-0.2-0.8-0.3-1c-0.1-0.2-0.5-0.6-0.5-0.6c1.7-2.6,2.2-6.5,1.3-11.2c-1.5-8.4-7.6-19.7-16-23.9
		c-2.1-1-4.2-1.9-6.3-2.8c-10.8-4.5-21.9-9.1-27.6-36.2c-0.2-0.8-0.4-1.6-0.6-2.3c-1.6,1.9-4,3.6-7.4,4.7c-2.6,3.1-8.6,5.9-21.8,5.1
		c-9.7-0.6-16.5-2.6-21.1-5.2c-10.8-1.6-20.3-4.5-25-9.3c-2.2-2.3-3.2-4.9-2.9-7.7c0.3-3.4,2-6.2,4.8-8.4c5.5-4.3,14.8-5.8,23.2-6
		c5.6-2.4,13.8-3.6,25.9-1.9c17.9,2.5,27.2,13,26.9,21.7c0,0.6-0.1,1.2-0.2,1.9c30.2-8.3,30.9-27.5,31.4-43.3c0-0.9,0.1-1.7,0.1-2.5
		c0.5-13.4,1-29.1,0.8-35.9c0,0,0.5-0.1,0.6,0.2c0.1,0.3,0.3,1.3,0.3,1.9c0,0.5-0.1,1.4-0.1,1.8c0,0.4-0.1,1.2,0,1.6
		c0.1,0.5,0.2,0.8,0.4,1C114.6,93.8,115.1,94.1,115.1,94.1z M33.5,179.4c4.1,1.5,9.3,2.6,16,3c9.9,0.6,15.4-0.8,18.5-2.8
		c-1.1,0.2-2.3,0.3-3.5,0.4C55.8,180.6,44.3,180.6,33.5,179.4z M28.7,177.2c11.2,1.7,24.2,2,35.7,1.2c2.2-0.2,4.2-0.5,5.9-1
		c0.4-0.5,0.6-1,0.8-1.5c0.4-1.1,0.6-2.2,0.5-3.4c-1.5,0.2-3,0.5-4.6,0.7c-23.7,3-37.3,1.1-45.1-1.7
		C23.4,173.4,25.5,175.4,28.7,177.2z M73.2,172.3c0.1,1.5-0.1,2.9-0.6,4.2c0,0,0,0.1,0,0.1c2.4-1,4.2-2.5,5.5-4.2
		c-0.1-0.3-0.2-0.6-0.4-1C76.2,171.7,74.7,172,73.2,172.3z M25.3,149c-7.1,0.5-14.5,1.9-19.1,5.5c-2.5,2-4,4.5-4.3,7.4
		c-0.2,2.4,0.6,4.5,2.5,6.5c3.7,3.8,11.3,6.5,20.5,8.2c-1.9-1.4-3.3-2.9-4.3-4.3c-0.4-0.6-0.8-1.2-1.2-1.8c-3.4-1.6-5.3-3.2-6.3-4.4
		c-1.9-2.2-2.6-4.7-1.9-6.9c0.6-2.2,3-6.5,11.2-8.1C23.3,150.4,24.2,149.7,25.3,149z M20.6,169.4c7,3.1,20.5,5.6,46.3,2.3
		c1.6-0.2,3.1-0.4,4.6-0.7c-0.8-3.7-3.3-7.3-5.7-9.3c-6.1-5.3-18.1-8.7-33.7-9.5c-3.6-0.2-6.5,0-8.8,0.4c-2.5,2.5-3.8,5.4-4.3,7.8
		C18.5,161.9,18.5,165.6,20.6,169.4z M29.2,150.6c0.9,0,1.9,0,2.9,0.1c11.3,0.6,26.4,2.8,34.6,9.9c2.9,2.5,5.4,6.4,6.2,10.2
		c1.4-0.3,2.8-0.5,4.1-0.8c-6.8-14.3-24.1-19-34.7-20.5c-2.9-0.4-7.9-0.8-13.6-0.7c-1.3,0.6-2.4,1.3-3.4,2
		C26.5,150.7,27.8,150.6,29.2,150.6z M33.3,147.3c3.6,0.1,6.8,0.4,9.3,0.7c18.2,2.6,30.7,10.2,36,21.6c0.3-0.1,0.6-0.1,0.9-0.2
		c0.2-0.8,0.3-1.5,0.4-2.4c0.3-8-8.6-17.8-25.6-20.2C45.1,145.6,38.3,146,33.3,147.3z M20.7,153.2c-5.7,1.6-7.4,4.8-7.9,6.5
		c-0.5,1.7,0.1,3.6,1.6,5.4c0.8,0.9,2,2,4,3.2c-1.4-3.5-1.4-6.7-1-8.3C17.9,157.9,18.9,155.5,20.7,153.2z"/>
	<path class="st0" d="M126.1,251c0,0,0.3,0.2,0.5,0.3c0.1,0.1,0.4,0.4,0.5,0.5c0,0.1,0.1,0.4,0.1,0.4c-0.1,0.3-0.2,0.7-0.3,1.1
		c-0.2,0.6,0.6,2.8,2.5,3.9c2.1,1.3,4.5,0.3,7-2.7c5.6-7,3.6-13.5,0.9-22.5c-2.8-9.2-6.4-20.6-3.8-37.4c3.9-25.9,7.2-57.3,2.1-83.2
		c0,0,0.2,0,0.4-0.2c0.2-0.2,0.9-1,0.9-1c5.4,26.4,2,58.3-1.9,84.7c-2.5,16.5,1,27.8,3.8,36.8c2.8,9.1,5,16.3-1.1,23.9
		c-2.4,2.9-4.5,3.8-6.2,3.8c-1.1,0-2-0.4-2.7-0.8c-2.4-1.4-3.7-4.4-3.1-5.8C125.8,251.5,126.1,251,126.1,251"/>
	<path class="st19" d="M81.1,169c0,0-1.3,0.3-1.7,0.4"/>
	<path class="st19" d="M80.6,170.7c0,0-1.9,0.5-2.9,0.7"/>
	<path class="st19" d="M78.5,169.6c0,0-0.9,0.2-1.5,0.3"/>
	<path class="st19" d="M73,170.8c0,0-1.1,0.2-1.5,0.3"/>
	<path class="st19" d="M73.2,172.3c0,0-1.1,0.2-1.5,0.3"/>
	<path class="st19" d="M20.6,169.4c0,0-1.6-0.8-2.2-1.1"/>
	<path class="st19" d="M22,171.6c0,0-1.9-0.8-2.5-1"/>
	<path class="st19" d="M22.4,151.2c0,0,2.3-0.4,2.9-0.4"/>
	<path class="st19" d="M20.7,153.2c0,0,1.3-0.4,2.6-0.6"/>
	<path class="st19" d="M70.3,177.4c0,0-1.7,1.7-2.3,2.1"/>
	<path class="st19" d="M72.5,176.6c0,0-0.8,1.6-1.3,2.1"/>
	<path class="st19" d="M28.3,178.7c0,0-2.2-1.2-3.3-2.1"/>
	<path class="st19" d="M33.5,179.4c0,0-3.1-1.1-4.8-2.2"/>
	<path class="st19" d="M25.3,149c0,0,2.4-1.3,3.3-1.7"/>
	<path class="st19" d="M28.8,148.8c0,0,3.3-1.3,4.5-1.5"/>
	<path class="st19" d="M78,172.4c0,0,0.7-1,0.9-1.2"/>
	<path class="st19" d="M79.7,172.5c0,0-0.7,1.1-1.1,1.5"/>
	<path class="st5" d="M212.2,380.4c0,0,4.3,1.1,4.5,3h0.2l0.3,0.6l0.6,0.5l1.4,3.2c0,0,0.2,0.5,0,0.7c0,0,0.3,1.3,0.5,1.7
		c0.2,0.4,1.3,3.8-2.3,4.2c-3.7,0.3-5.7-1.1-6.7-3.4c-1-2.3-2.7-6.3-3-7.2c-0.3-0.9-0.7-3.5,2-3.4c0,0,0.5,0,0.7,0"/>
	<path class="st3" d="M209.8,381.8c-0.8,0-0.2,1.9,1.7,6.4c1.9,4.5,4.5,4,5.7,4c1.1,0,0.3-1.8,0.3-1.8l-0.6-1.5c0,0-0.5-0.1-0.7-0.3
		c-0.2-0.2-1.3-2.7-1.4-3.1c-0.1-0.4,0.1-1.1,0.1-1.1l-0.1-0.4c0,0-0.8-1-2-1.5l-0.8-0.3"/>
	<path class="st4" d="M216.7,388.9c0,0,0-1.1,1.1-1.1c1,0,1.4,0.6,1.4,0.6"/>
	<path class="st4" d="M217.5,384.1c0,0-0.8-0.3-1.4,0c-0.6,0.3-1.2,0.9-1.2,0.9"/>
	<path class="st4" d="M216.7,383.3c0,0-1.3,0-1.9,0.7"/>
	<path class="st5" d="M209.4,373.8c0,0,0.3-0.7,0.4-0.9c0.1-0.1,0.3-0.1,0.3-0.1c0.2,0.1,0.7,1.1,0.9,1.5c0.1,0.4,0.3,1,0.7,1.7
		c0.4,0.7,0.2,0.9,0.1,1.5c-0.1,0.5-0.1,0.8,0,1c0.1,0.3,0.2,0.6,0.2,0.6s0.3,1.2,0.2,2.3c-0.1,1.1-0.5,1.7-0.8,1.6
		c-0.3-0.1-0.5-0.3-0.5-0.3L209.4,373.8z"/>
	<path class="st21" d="M210.4,378.2c0,0,0.2-1.1-0.1-2.4c-0.3-1.4-0.8-1.9-1-2c-0.2-0.2-0.5,0-0.6,0.1c-0.1,0.1-0.2,0.5-0.3,0.6
		c-0.1,0.1-0.4,0.1-0.4,0.1l-0.4,0.6l0.3,4.5"/>
	<path class="st4" d="M210.9,378.8c0,0,0.3-0.8,0.3-0.8c0-0.1,0-0.3-0.1-0.3C211,377.6,210.9,377.9,210.9,378.8z"/>
	<path class="st5" d="M212.6,393.3c0,0,0.6,1.6,1.4,2.7c0.7,1.1,1.6,3.2,3.1,3l1.5-0.4c0.1-0.3,0.1-0.7,0.1-0.7c0-0.2,0-4,0-5.1
		c0-1.1-1.3-1.6-1.5-1.6c-0.2,0-1.5,0-1.5,0c-0.1-0.3-1-0.4-1.5-0.4c-0.5,0-1,0.2-1,0.2c0.1,0.1,0.8,0.6,0.8,0.6s0.6-0.1,1.1,0.5
		c0.5,0.6,0.5,1.8,0.5,2.2c0,0.5,0.1,2.3-0.6,1.3c-0.7-1-1.1-1.8-1.1-1.8C212.9,393.5,212.6,393.3,212.6,393.3z M216.4,393.3
		c0-0.4-0.1-0.7-0.2-1h0.1c0,0,1.3-0.3,1.4,0.4c0.1,0.7,0.3,1.9,0.2,2.6c-0.1,0.7-0.3,1.6-1.2-0.9l-0.2,0
		C216.4,393.9,216.4,393.5,216.4,393.3z"/>
	<path class="st4" d="M215.7,391.2c0,0,0.3,0.4,0.5,1.1"/>
	<path class="st4" d="M216.4,394.3c-0.1,1.7-0.3,4.5,0.7,4.3"/>
	<path class="st7" d="M214.1,394c0.2,0.4,0.4,0.6,0.6,0.9c0.2,0.3,0.4,0.6,0.6,1c0,0,0.1-0.4,0.1-0.9c0-0.5,0-0.7,0-0.7
		S214.5,394.1,214.1,394L214.1,394z"/>
	<path class="st0" d="M210.1,384.6l3.9,6.2l-0.8,0.2c0,0-0.5-0.6-1-1.3c-0.5-0.8-1.5-3.7-2-4.6L210.1,384.6z"/>
	<path class="st18" d="M208.8,378.4c0,0-0.2,0.4-0.4,0.4l-0.2,1.5l0.1,0.1c0,0,0.6-0.2,1-0.2c0.5,0,1.2,0,1.2,0s-0.1-0.5-0.2-0.8
		c-0.1-0.3-0.3-0.4-0.7-0.6C209.2,378.6,208.8,378.4,208.8,378.4z"/>
	<path class="st7" d="M217.9,399.8l-1.7-2.5c0,0,0-1.6,0.1-2.8l3.1,4.7"/>
	<path class="st18" d="M135.3,272.7c0,0-0.2,1.8,0.1,4.1c0.3,2.3,1.8,4.2,2.8,5c0,0-0.1,1,0.6,1.3c0,0,0.2,0.1,0.3,0.1
		c0,0,0-0.7,0.4-0.8c0.4-0.1,1.2,0.2,1.4,0.5c0.2,0.2,0.5,0.7,0.5,0.7c1.3-0.5,0.4-1.3,0.4-1.3c0.2-0.4,0.1-1-0.2-1.2
		c-0.3-0.3-0.7-0.4-0.7-0.4c0.2-2-1.9-5.1-2.5-6c-0.6-0.9-3.3-4.4-3.3-4.4c0-0.6-0.4-0.7-0.4-0.7c0.1-0.8-0.6-1.1-0.6-1.1
		c0.1-0.7-0.4-1-0.4-1c0.1-1-0.8-1.2-0.8-1.2c0-1-0.9-1-0.8-1.1c0,0,0.1-0.2-0.1-0.7c-0.3-0.5-0.7-0.4-0.7-0.4s0.1-0.4-0.2-0.8
		c-0.4-0.4-0.9-0.2-1.2,0.1c-0.3,0.3-0.6,0.8-0.6,0.8c-0.6-0.4-1.5-0.2-1.5,0.5c0,0.7,0.5,0.8,0.5,0.8c-0.7,1,0.6,1.4,0.6,1.4
		c-0.1,0.5,0.5,1,0.5,1c0,0.7,0.6,1,0.6,1c0.1,0.5,0.6,0.8,0.6,0.8c-0.1,0.5,0.3,0.8,0.3,0.8c0.1,1,0.7,1.1,0.7,1.1
		c0,1.4,2.1,1.8,2.1,1.8s-1.1-1-0.9-1.5c0.1-0.5,0.8-0.8,0.8-0.8s1.2,1.3,1.9,2.2c0.7,0.9,2,2.8,2.8,4.1"/>
	<path class="st18" d="M138.5,274.8c0,0,0.1-0.7,1.2-1.4c1.1-0.7,2.5-1.2,2.9-1.3c0.4-0.1,0.7,0,0.9,0.5c0.2,0.4,0,0.8-0.9,1.1
		c-1,0.3-3.4,1-2.9,3c0,0-0.5-0.9-0.7-1.2C138.8,275.2,138.5,274.8,138.5,274.8z"/>
	<path class="st4" d="M136.7,274.6c0,0,0,2,0.4,3.2c0.4,1.2,1.7,2.6,2.3,3"/>
	<path class="st4" d="M128.3,265.4c0,0,0.8,0.1,5.5,5.6"/>
	<path class="st4" d="M129.3,264.1c0,0,2.5,1.6,5.8,6.1"/>
	<path class="st4" d="M130.1,264.8c0.3-0.3,0.7-0.6,1.2-0.7"/>
	<path class="st4" d="M128.9,266.8c0,0,0.1-0.3,0.3-0.8"/>
	<path class="st4" d="M130.9,265.5c0.3-0.2,0.7-0.3,1.3-0.4"/>
	<path class="st4" d="M129.5,267.8c0,0,0-0.5,0.4-1.1"/>
	<path class="st4" d="M131.8,266.3c0.3-0.1,0.7-0.1,1.2-0.1"/>
	<path class="st4" d="M130.1,268.8c0,0-0.1-0.8,0.3-1.5"/>
	<path class="st4" d="M132.6,267.2c0.3-0.1,0.7-0.1,1.1,0.2"/>
	<path class="st4" d="M130.7,269.6c0,0,0.2-0.7,0.7-1.3"/>
	<path class="st4" d="M133.5,268.2c0.2,0,0.4,0.1,0.7,0.2"/>
	<path class="st4" d="M131,270.4c0,0,0.2-0.9,0.8-1.6"/>
	<path class="st4" d="M134.5,269.3c0.1,0,0.2,0.1,0.3,0.1"/>
	<path class="st4" d="M131.8,271.5c0,0,0.1-1,0.8-1.7c0,0,0.1-0.1,0.1-0.1"/>
	<path class="st0" d="M132.9,272.1c0,0,1.7,2.2,2.3,2.8c0,0,0-0.9,0-1.3c0-0.4,0-0.8,0-0.8s0-0.2-0.5-0.8c-0.5-0.6-1-1.2-1-1.2
		s-0.3,0-0.5,0.3C133,271.5,132.8,271.7,132.9,272.1z"/>
	<path class="st0" d="M171.6,317.9c-14.5-15.5-29.7-34.1-34.5-40.1c0,0-0.2-0.7-0.3-1.3c-0.1-0.6,0-1.6,0-1.6
		c0.2,0.2,17,21.4,33.7,39.6"/>
	<path class="st18" d="M180.3,332.9c-0.3,0-0.6-0.2-0.6-0.5c-0.3-1.5-2-3.3-2.6-3.9c-0.3-0.2-0.3-0.6,0-0.9c0.2-0.3,0.6-0.3,0.9,0
		c0.1,0.1,2.5,2.3,3,4.5c0.1,0.3-0.1,0.7-0.5,0.8C180.4,332.9,180.4,332.9,180.3,332.9z"/>
	<path class="st4" d="M176.3,325.2c0,0-2.3-1.7-3.3-3.9c-0.9-2.2-1.9-4.6-2.2-5.3c-0.3-0.7-0.6-1.8,0-2.2c0.6-0.4,1.1-0.1,1.7,0.3
		c0.5,0.4,2.8,2.6,3.4,3.3c0.6,0.7,1.5,1.9,1.3,2.6c0,0,1.3,0.3,1.2,1.2c-0.1,0.9-0.1,1.5-0.5,1.6c0,0,0,1.3-0.2,1.4
		c-0.2,0.1-0.1,0.8-0.3,0.9"/>
	<path class="st4" d="M176.4,320.4c0,0-0.5-0.4-1.3-1.5c-0.9-1.1-1.9-2.1-2.2-2.4c0,0,1.4,3.4,2,4.5c0.6,1.1,0.9,1.5,1.2,1.8
		l-0.1-0.4c0,0-0.1-0.5-0.1-1C175.8,320.9,176,320.6,176.4,320.4z"/>
	<path class="st4" d="M176.4,320.4c0,0,0.6-0.4,0.8-0.3"/>
	<path class="st4" d="M178,322.8c0,0,0-0.9-0.8-1c-0.7-0.1-1.1,0.3-1.3,0.6"/>
	<path class="st4" d="M172.9,316.5c0,0-0.3-0.8-0.3-1c-0.1-0.2-0.2-1,0.2-0.6"/>
	<path class="st18" d="M175.7,322.9c0,0,0.2,0.2,0.3,0.6c0.3,1.3,0.5,2.6,0.5,2.6c0,0.3,0.3,0.5,0.6,0.5c0,0,0.1,0,0.1,0
		c0.3-0.1,0.6-0.4,0.5-0.7c0,0-0.2-1.3-0.5-2.6c-0.1-0.7-0.4-1.2-0.8-1.4c-0.5-0.3-0.9-0.2-1-0.2c-0.1,0-0.1,0-0.2,0.1L175.7,322.9z
		"/>
	<path class="st18" d="M174.3,323.3c-0.1,0.5-0.1,1.5,0.6,2.4c0.8,1.1,1.8,1.9,1.8,1.9c0.1,0.1,0.3,0.1,0.4,0.1
		c0.2,0,0.4-0.1,0.5-0.2c0.2-0.3,0.2-0.7-0.1-0.9c0,0-0.9-0.7-1.6-1.7l-0.4-0.4L174.3,323.3z"/>
	<path class="st18" d="M178.6,327.7c-0.1,0-0.2,0-0.3-0.1c-0.3-0.2-0.4-0.6-0.2-0.9c0,0,0-0.1,0.1-0.1c-0.4,0-0.5,0.3-0.5,0.4
		c-0.1,0.3-0.4,0.6-0.7,0.5c-0.3-0.1-0.6-0.4-0.5-0.7c0.1-0.7,0.7-1.6,1.9-1.5c0.6,0.1,0.9,0.4,1.1,0.6c0.3,0.6-0.1,1.3-0.1,1.4
		C179,327.6,178.8,327.7,178.6,327.7z"/>
	<path class="st18" d="M178.2,328.9l0.1,0.4c0.2,0,0.3-0.1,0.4-0.2c0.5-0.6,0.4-1.2,0.2-1.5c-0.4-0.5-1.3-0.5-2,0
		c-0.5,0.3-0.6,0.7-0.7,1c-0.1,0.6,0.2,1.2,0.3,1.2c0.1,0.2,0.3,0.3,0.5,0.3c0.1,0,0.1,0,0.2,0l-0.1-0.5c0,0-0.1-0.5,0.4-0.8
		C177.5,328.7,178.1,328.4,178.2,328.9z"/>
	<path class="st18" d="M179.1,328.3c0.2-0.4,0.1-1-0.2-1.4c-0.3-0.5-1.1-0.9-2.1-0.4c-1.3,0.7-1.3,1.9-0.9,2.6
		c0.1,0.2,0.2,0.3,0.4,0.3c0,0-0.2-0.6-0.1-1c0.1-0.3,0.5-0.8,0.8-0.9c0.3-0.1,0.8-0.4,1.4-0.2C179.1,327.5,179.1,328.3,179.1,328.3
		z"/>
	<path class="st18" d="M180.3,332.9c-0.3,0-0.6-0.2-0.6-0.5c-0.3-1.5-2-3.3-2.6-3.9c-0.3-0.2-0.3-0.6,0-0.9c0.2-0.3,0.6-0.3,0.9,0
		c0.1,0.1,2.5,2.3,3,4.5c0.1,0.3-0.1,0.7-0.5,0.8C180.4,332.9,180.4,332.9,180.3,332.9z"/>
	<path class="st18" d="M175.7,322.9c0,0,0.2,0.2,0.3,0.6c0.3,1.3,0.5,2.6,0.5,2.6c0,0.3,0.3,0.5,0.6,0.5c0,0,0.1,0,0.1,0
		c0.3-0.1,0.6-0.4,0.5-0.7c0,0-0.2-1.3-0.5-2.6c-0.1-0.7-0.4-1.2-0.8-1.4c-0.5-0.3-0.9-0.2-1-0.2c-0.1,0-0.1,0-0.2,0.1L175.7,322.9z
		"/>
	<path class="st18" d="M174.3,323.3c-0.1,0.5-0.1,1.5,0.6,2.4c0.8,1.1,1.8,1.9,1.8,1.9c0.1,0.1,0.3,0.1,0.4,0.1
		c0.2,0,0.4-0.1,0.5-0.2c0.2-0.3,0.2-0.7-0.1-0.9c0,0-0.9-0.7-1.6-1.7l-0.4-0.4L174.3,323.3z"/>
	<path class="st18" d="M178.6,327.7c-0.1,0-0.2,0-0.3-0.1c-0.3-0.2-0.4-0.6-0.2-0.9c0,0,0-0.1,0.1-0.1c-0.4,0-0.5,0.3-0.5,0.4
		c-0.1,0.3-0.4,0.6-0.7,0.5c-0.3-0.1-0.6-0.4-0.5-0.7c0.1-0.7,0.7-1.6,1.9-1.5c0.6,0.1,0.9,0.4,1.1,0.6c0.3,0.6-0.1,1.3-0.1,1.4
		C179,327.6,178.8,327.7,178.6,327.7z"/>
	<path class="st18" d="M178.2,328.9l0.1,0.4c0.2,0,0.3-0.1,0.4-0.2c0.5-0.6,0.4-1.2,0.2-1.5c-0.4-0.5-1.3-0.5-2,0
		c-0.5,0.3-0.6,0.7-0.7,1c-0.1,0.6,0.2,1.2,0.3,1.2c0.1,0.2,0.3,0.3,0.5,0.3c0.1,0,0.1,0,0.2,0l-0.1-0.5c0,0-0.1-0.5,0.4-0.8
		C177.5,328.7,178.1,328.4,178.2,328.9z"/>
	<path class="st18" d="M179.1,328.3c0.2-0.4,0.1-1-0.2-1.4c-0.3-0.5-1.1-0.9-2.1-0.4c-1.3,0.7-1.3,1.9-0.9,2.6
		c0.1,0.2,0.2,0.3,0.4,0.3c0,0-0.2-0.6-0.1-1c0.1-0.3,0.5-0.8,0.8-0.9c0.3-0.1,0.8-0.4,1.4-0.2C179.1,327.5,179.1,328.3,179.1,328.3
		z"/>
	<path class="st0" d="M172,313.3c-13.6-53.6-44.8-173.3-47.7-184.6c0,0,0.5,0,1,0l0.8-0.2c0,0,0,0,0,0.1c3.4,13.2,34.5,133,48,185.9
		c0,0,0.3,1.5,0.2,2c0,0-0.4,0.9-1,1L172,313.3z"/>
	<path class="st4" d="M138.2,281.8c0,0,0.2-0.9,1.2-1.1"/>
	<path class="st18" d="M205.7,376.8L139.2,283c0,0,0-0.4,0.2-0.5c0.2-0.1,0.5-0.2,0.8-0.1c0.3,0.1,0.8,0.6,0.8,0.6l65.1,91.7
		c0,0-0.1,0.2-0.2,0.3c-0.1,0.1-0.2,0.4-0.2,0.6C205.7,375.9,205.7,376.8,205.7,376.8z"/>
	<path class="st18" d="M178.5,329.2c6,8.8,30.9,45,31.4,46c0.5,1,0.8,2.6,0.5,3.8l-0.5-0.5L209,378c0-0.7-0.1-1.5-0.4-2.1
		c-0.6-1-20.3-29.7-31.4-46c0,0-0.2-0.4-0.1-0.7c0.1-0.3,0.3-0.6,0.7-0.6c0.3,0,0.5,0.4,0.5,0.4l0.1,0.1L178.5,329.2z"/>
	<path class="st5" d="M207.5,381.7l-0.5-0.2c-1.1-0.9-1.2-1.7-1.2-2c0-0.3,0-0.8,0-1.3c0-0.5-0.1-1.2-0.1-2c0-0.8,0.2-1.1,0.3-1.2
		c0.1-0.1,0.3-0.6,0.5-1.2c0.3-0.6,0.5-0.5,0.5-0.5c0.8,0.5,1.3,2.8,1.6,3.5c0.3,0.7,0.8,0.9,1.3,1.2c0.5,0.3,0.8,0.7,0.8,0.7
		s0.5,0.8,0.4,2.3c0,1.5-0.3,2.4-0.8,2.4c0,0-0.3,0.1-0.8-0.4c0,0,0-0.4,0-0.6c0-0.2,0.2-0.5,0.2-0.5c0.2,0.2,0.5,0.2,0.7-0.4
		c0.2-0.5,0.1-1.3-0.1-1.8c-0.1-0.6-0.9-0.8-1.3-1c-0.4-0.2-0.6-0.5-0.6-0.5s0,0.4,0,0.8c0,0.4-0.2,1.2-0.2,1.3
		c-0.1,0.1,0.1,0.3,0.1,0.3s-0.4,0.3-0.5,0.5C207.7,381.3,207.5,381.7,207.5,381.7z"/>
	<ellipse class="st4" cx="206.2" cy="377.5" rx="0.4" ry="1"/>
</g>
</svg>
