<svg xmlns="http://www.w3.org/2000/svg" viewBox="0 0 123.28074 404.8418"><title>MAESTRO-Pe06-rapport-mouflage-12</title><g id="Calque_2" data-name="Calque 2"><g id="Calque_1-2" data-name="Calque 1"><path d="M73.0157,16.9493a10.34294,10.34294,0,0,1-.21388-2.2461,1.14123,1.14123,0,1,1,2.28218.0351c-.0849,5.5889,5.8877,9.4277,5.9502,9.4649a1.1413,1.1413,0,1,1-1.2178,1.9306C79.5596,25.9707,74.167,22.5078,73.0157,16.9493Z" fill="#34b3d1" stroke="#000" stroke-width="0.8"/><path d="M51.9737,44.9942a21.9452,21.9452,0,0,1-9.5352-2.6543c-.26168-.1289-.4629-.2315-.59768-.2862-1.38372-.5722-5.04782-1.958-5.04782-1.958l.8076-2.1328s3.709,1.4024,5.1123,1.9824c.1641.0665.4141.1895.7373.3497,2.4629,1.2187,9.9619,4.9306,15.7051-.4512,2.0137-1.8828,3.3242-5.332,4.5918-8.6699,1.8018-4.7471,3.5049-9.2305,7.3281-10.1338,2.9453-.6924,6.4492.9365,11.01962,5.1445a1.14,1.14,0,1,1-1.545,1.6768c-3.85252-3.545-6.86232-5.0918-8.94922-4.6006-2.6455.624-4.1396,4.5595-5.7217,8.7236-1.3584,3.5781-2.7646,7.2793-5.16308,9.5264A12.40721,12.40721,0,0,1,51.9737,44.9942Z" fill="#34b3d1" stroke="#000" stroke-linecap="round" stroke-width="0.8"/><path d="M84.2227,129.2383s-2.5381-1.3057-2.8262-2.0185c-.2959-.7159-1.09468-2.7002-1.09468-2.7002s-1.25-1.6641-1.17772-2.251c.0693-.5879.2636-1.335.7304-1.3076a4.88655,4.88655,0,0,1,1.334.4687l.0547-1.1269s.124-1.1221.1777-1.8555c.0537-.7305-.9765-.6816-.4883-1.6016a13.61489,13.61489,0,0,1,1.57622-2.6425,19.98859,19.98859,0,0,0,1.957-.7364,15.57648,15.57648,0,0,1,.81058-2.0996,12.6542,12.6542,0,0,1,3.4023-3.0898c.5948-.336.3985-.7442.3985-.7442l-.0342-.4902a21.24949,21.24949,0,0,1,1.2275-3.4883c.6612-1.2597.6436-3.0156,3.1309-2.2715,2.48442.7481,9.9277,3.461,10.6357,7.6387a4.33089,4.33089,0,0,0,.1202,1.2022s-.0293,2.9834-2.5762,3.6494c-2.5508.666-2.6856,1.4375-3.02928,1.249-.33892-.1885.29488.7148-1.12892,2.0518-1.4248,1.3359-.7715,2.3828-1.1084,3.1503-.3389.7637-1.0615,1.4629-1.1953,2.2325-.1358.7675-.3936,2.3339-.8789,2.4228-.48248.0928-2.418.3623-2.418.3623a5.75109,5.75109,0,0,1-1.48048,2.2696,9.76272,9.76272,0,0,1-2.35842,2.1318c-.9619.4365-2.0215-.1221-3.7607-.4053" fill="#fff" stroke="#000" stroke-width="0.8"/><path d="M91.80282,115.1709a9.51938,9.51938,0,0,0-1.67092,3.0782c-.5694,1.8037-1.0625,1.9365-1.0625,1.9365s-.7129,1.3066-.9805,1.9756c-.2666.665-.0156,2.7197-.7363,3.1933-.71878.4717-1.127.8574-2.1817.5088a3.35985,3.35985,0,0,1-2.4726-3.291c-.0938-1.2051.64252-2.708,1.14252-4.6074.086-.336.25788-1.1426.43068-2.3086" fill="none" stroke="#000" stroke-width="0.8"/><path d="M91.7823,125.3594a21.58719,21.58719,0,0,0-.2891-4.0098" fill="none" stroke="#000" stroke-width="0.8"/><path d="M98.4405,115.045a9.55058,9.55058,0,0,0-2.503-5.084,11.63841,11.63841,0,0,0-4.4638-2.8867" fill="none" stroke="#000" stroke-width="0.8"/><path d="M81.1885,121.4297s1.36132.4785,1.5332,1.3799" fill="none" stroke="#000" stroke-width="0.8"/><path d="M84.46582,113.4668a5.86608,5.86608,0,0,0-.86322,2.4473,10.89678,10.89678,0,0,0,.1611,2.335" fill="none" stroke="#000" stroke-width="0.8"/><path d="M81.2432,120.3028a4.54625,4.54625,0,0,1,2.3975-2.9727" fill="none" stroke="#000" stroke-width="0.8"/><path d="M8.1719,298.9785s.1397,92.3438-.3369,94.9278c0,0-.5283,1.1015-.5991,5.4433,0,0-.0093.1309-.0298.3594l.0058-.0713c2.1827-.2168,3.0435-3.956,3.0435-3.956s.6079-85.0205.4648-96.3867l.0025-1.9639L10.711,68.2422h0a4.57766,4.57766,0,0,1,4.5742-4.5762h0a4.55816,4.55816,0,0,1,3.2339,1.3409l.0942.0927.0391.0254h0c.0923.0996.96042,1.543.96042,1.543l.71578-3.4736h0s-3.0771-2.0889-5.0434-2.0879h0a7.13687,7.13687,0,0,0-7.1367,7.1357l.0175,85.3516L8.1709,296.42Z" fill="#34b3d1" stroke="#000" stroke-linecap="round" stroke-width="0.8"/><path d="M46.50982,231.2246a4.57755,4.57755,0,0,0,3.84368-3.082h0L82.9239,123.9141a3.5347,3.5347,0,0,0,2.165,1.915L52.7793,228.9619a7.1378,7.1378,0,0,1-6.5888,4.8536Z" fill="#34b3d1" stroke="#000" stroke-linecap="round" stroke-width="0.8"/><path d="M10.07232,309.44536c-.89447-1.02149-2.94043.127-2.94043.127v1.53223a30.42136,30.42136,0,0,1,.51312,4.09082,9.94993,9.94993,0,0,1-.76849,3.19629v3.96191s2.8789.15039,6.77637-2.93848C17.35888,316.47465,10.9663,310.46489,10.07232,309.44536ZM8.272,321.28911c-.34418,0-.62555-.458-.62555-1.02539,0-.56836.28137-1.02735.62555-1.02735s.62445.459.62445,1.02735C8.89648,320.8311,8.6162,321.28911,8.272,321.28911Zm4.99658-3.15235a2.1091,2.1091,0,0,1-2.81452.6377,4.96652,4.96652,0,0,1-1.66058-3.5791v-2.30078c0-4.08985,2.93988.50976,3.7085,1.27929A5.01085,5.01085,0,0,1,13.26861,318.13676Z" fill="#ffd900"/><path d="M10.07232,309.44536c-.89447-1.02149-2.94043.127-2.94043.127v1.53223a30.42136,30.42136,0,0,1,.51312,4.09082,9.94993,9.94993,0,0,1-.76849,3.19629v3.96191s2.8789.15039,6.77637-2.93848C17.35888,316.47465,10.9663,310.46489,10.07232,309.44536ZM8.272,321.28911c-.34418,0-.62555-.458-.62555-1.02539,0-.56836.28137-1.02735.62555-1.02735s.62445.459.62445,1.02735C8.89648,320.8311,8.6162,321.28911,8.272,321.28911Zm4.99658-3.15235a2.1091,2.1091,0,0,1-2.81452.6377,4.96652,4.96652,0,0,1-1.66058-3.5791v-2.30078c0-4.08985,2.93988.50976,3.7085,1.27929A5.01085,5.01085,0,0,1,13.26861,318.13676Z" fill="none" stroke="#000" stroke-width="0.8"/><path d="M8.2744,317.5137a3.84779,3.84779,0,0,0-.6611,2.2285c0,1.3867.3008,1.7461,1.2051,1.4463a5.51863,5.51863,0,0,0,2.2881-1.4463" fill="none" stroke="#000" stroke-width="0.8"/><path d="M89.043,107.043l-1.25-1.0469,1.1562-3.7441.9668.3164-.0781-1.5527a2.61924,2.61924,0,0,1-.1416-1.4727,2.55653,2.55653,0,0,1,.85652-1.5762,9.53933,9.53933,0,0,1,.14548-3.3867c.4238-1.0957,1.5566-5.3965,2.248-6.6807.6934-1.2841.8809-.8105.7324-1.8212a9.59629,9.59629,0,0,1,.253-2.6631,9.54025,9.54025,0,0,1,.6357-3.8448,31.25113,31.25113,0,0,0,1.584-4.2197,11.84918,11.84918,0,0,1,1.2051-3.2637,13.88927,13.88927,0,0,0,.9355-1.1894,3.82574,3.82574,0,0,0,1.1875-1.3291,9.43119,9.43119,0,0,0-.1181-2.5801s.0918-1.9599.3779-2.2099c.2851-.2491-.0313-1.3721-.0313-1.3721a12.59256,12.59256,0,0,1,.04982-2.8145" fill="#fff" stroke="#000" stroke-width="0.8"/><path d="M97.7774,72.9141s4.8613.6777,7.2939-2.9697" fill="#fff" stroke="#000" stroke-width="0.8"/><path d="M110.7617,78.5157s-13.0703-.0293-9.4228-1.9346" fill="#fff" stroke="#000" stroke-width="0.8"/><path d="M104.4844,80.5196s-10.1055,3.4648-9.1182,2.4375c.9825-1.0235,1.9454-1.9825,1.9454-1.9825" fill="#fff" stroke="#000" stroke-width="0.8"/><path d="M105.9053,106.5996l-1.2871-3.3398s-5.1709-2.3398-5.7559-2.8584c-.5869-.5166-5.0976-3.793-7.1338-2.3271" fill="#fff" stroke="#000" stroke-width="0.8"/><path d="M89.1026,106.9102a13.94471,13.94471,0,0,1,1.081-3.1328c.7998-1.4785.6905-3.2989,3.2969-2.4844,2.5176.7891,9.8584,3.4141,10.5586,7.6992,0,0,.0176.0703.2158-.0293a.72739.72739,0,0,0,.25492-.1885c.081-.248.96778-.2353,1.15528-.1748.1855.0625,1.2578.3418,3-1.2168s1.9785-3.955,2.26172-4.8886a8.94281,8.94281,0,0,1,1.81738-3.1192c.9228-1.0722.3447-1.332.2285-2.6738-.1094-1.3369.7373-.7871,1.5439-2.3809a24.27028,24.27028,0,0,0,1.6709-5.496,19.43621,19.43621,0,0,1,1.0244-2.7559c.17-.6992.8164-2.5039.8164-2.5039l1.1954-3.6504s2.5849-4.5107,3.7949-5.5606" fill="#fff" stroke="#000" stroke-width="0.8"/><path d="M9.3872,404.8418A9.3191,9.3191,0,1,0,0,395.5225,9.35475,9.35475,0,0,0,9.3872,404.8418Z" fill="gray"/><path d="M7.3306,388.5127a1.16421,1.16421,0,0,1,1.0737.5,3.32093,3.32093,0,0,1-.1108,1.4112.77461.77461,0,0,1-.5454.2832A1.11713,1.11713,0,1,1,7.3306,388.5127Z" fill="#e6e6e6"/><path d="M7.2657,391.2285c.76412-.121,1.5605.5176,2.1206.7168a6.20827,6.20827,0,0,1,1.1601.3672,1.285,1.285,0,0,0,.2183.1309,1.14684,1.14684,0,0,0,.3496.0225c1.1142-.7588,1.70652.5517.9189.8476-.4863.1787-.6118-.1641-.9843-.2402-.127.2705-.5098.9599-.962.7168-.2212-.1192-.414-.3877-.6567-.4766-.4077-.1504-.4409.2178-.3267.4551a5.10834,5.10834,0,0,0,.5674,1.0635c.23492.1191.4658.0097.7671.0859a4.39144,4.39144,0,0,1,.5894.2188,3.32179,3.32179,0,0,1,.9175.5449c.1621.1562.2705.4414.4604.5625.4336.2763.8696.0215,1.0498.6289a6.508,6.508,0,0,1-.2412,2.3672c-.1152,1.1035.98392,1.291.1963,2.4316a.47011.47011,0,0,1-.1748.1533,1.04735,1.04735,0,0,1-.7871-.0869,1.40573,1.40573,0,0,1-.2178-.1953c-.0181-.0225-.0064-.0391-.0215-.0664a2.54958,2.54958,0,0,1-.3066-.8672,9.989,9.989,0,0,1-.044-3.5625,5.22253,5.22253,0,0,0-1.312-.1953c-.1748.0918-.0073.3555.044.4795.1049.249.3735.3174.4585.6279a10.24861,10.24861,0,0,1-.5689,2.8887,3.58356,3.58356,0,0,1-.3276,1.1709.98641.98641,0,0,1-1.5303-.1074c-.2524-.4502.0439-1.0157.21972-1.3682a4.553,4.553,0,0,0,.69878-2.1709c-.11278-.5361-.8433-.7764-1.0279-1.3682a1.85369,1.85369,0,0,1-.1084-.8261c.0293-.2266.2798-.3975.1729-.6485-.1055-.2558-.6021-.5215-.7656-.8291-.2491-.4717-.84178-2.7617-1.1153-.6279a6.54662,6.54662,0,0,1-.0654,1.0645c-.061.1875-.3267.3242-.41508.5644a.85657.85657,0,0,1,.37258.6504c.0352.3125-.481.8281-.8525.6074-1.0357-.6055.1313-1.2676-.2857-1.9746a1.03472,1.03472,0,0,1-.1748-.3926,1.80277,1.80277,0,0,1,.1089-.541,5.30768,5.30768,0,0,1,.1753-1.2363c.0439-.0781.1714-.1406.21922-.2197C6.1192,392.0362,6.4883,391.3477,7.2657,391.2285Z" fill="#e6e6e6"/><path d="M17.8741,334.3321c.1235,7.0078-.2315,25.789-.2315,25.789" fill="none" stroke="#827d80" stroke-linecap="round" stroke-linejoin="round" stroke-width="3.172"/><polyline points="15.44 337.473 17.86 332.521 20.406 337.567" fill="none" stroke="#827d80" stroke-linecap="round" stroke-linejoin="round" stroke-width="3.172"/><path d="M88.1524,140.5723c-1.876,6.749-7.5645,24.6543-7.5645,24.6543" fill="none" stroke="#827d80" stroke-linecap="round" stroke-linejoin="round" stroke-width="3.172"/><polyline points="84.924 142.889 88.655 138.832 89.659 144.393" fill="none" stroke="#827d80" stroke-linecap="round" stroke-linejoin="round" stroke-width="3.172"/><polygon points="14.44 374.223 2.871 378.324 2.871 376.293 14.44 372.188 14.44 374.223" fill="#fff"/><line x1="2.8711" y1="376.293" x2="14.4405" y2="372.1875" fill="none" stroke="#000" stroke-linecap="round" stroke-miterlimit="10" stroke-width="0.4"/><line x1="2.8711" y1="378.3243" x2="14.4405" y2="374.2227" fill="none" stroke="#000" stroke-linecap="round" stroke-miterlimit="10" stroke-width="0.4"/><path d="M19.6387,93.4512l.16312-23.6133h0a4.58248,4.58248,0,0,0-4.57422-4.5752h0a4.56657,4.56657,0,0,0-3.2334,1.3389l-.0952.0957-.0396.0273h0c-.0918.0987-.96,1.5411-.96,1.5411l-.7148-3.4727-.002-.0029s3.0791-2.0889,5.045-2.085h0c3.9399,0,7.1923,2.4688,7.13422,7.1328L22.1997,93.4512" fill="#34b3d1" stroke="#000" stroke-linecap="round" stroke-width="0.8"/><path d="M11.4727,35.6123l.2446-26.6904,1.0747-.0156s.0396-1.1699.1299-1.836A6.63348,6.63348,0,0,1,13.25,5.7901l-.2285-1.3467a9.44976,9.44976,0,0,1,1.26032-.4551S8.7305-.8222,8.3941,9.1182c-.9131,26.9814,2.7041,28.4326,2.9663,28.6084.9209.6152.0825.4414.5039.0713Z" fill="#fff" stroke="#000" stroke-width="0.8"/><path d="M14.023,38.6006c.9511-.5234,2.7016-1.9873,3.3716-5.3056,2.333-11.5479,1.0493-19.4366.6084-24.67-.2535-2.9931-.4185-2.3681-.4185-2.3681-.0229-.084-.7451-2.2862-1.9116-2.6748a4.70675,4.70675,0,0,0-3.728.4062c-.5884.3106,1.3168-.3125,2.0473,2.043a53.81683,53.81683,0,0,1,.8067,6.2773c.5322,5.7578-.0245,21.7696.1054,22.1446.06552.1836-.9951.9921-.9551,1.1884.1475.7237.5728.6514.2881,1.2959C13.7324,38.0811,14.023,38.6006,14.023,38.6006Z" fill="#fff" stroke="#000" stroke-width="0.8"/><path d="M22.8741,57.9092c-.9942-1.4092-4.1304-3.0195-6.4932-3.5381-2.3613-.5205-5.2593-.5722-6.9102,1.7032-1.6504,2.2714-.9902,6.2187-.311,8.247a35.77508,35.77508,0,0,0,2.2935,5.7852,4.97163,4.97163,0,0,0,8.2929.5859s1.1978-1.4639,2.47172-5.5771C23.4942,60.9981,23.8653,59.3145,22.8741,57.9092Zm-8.9292,3.957-.0025.001c-2.0513.4971-2.6631-.1367-3.1221-1.2207a4.2646,4.2646,0,0,1,.5303-3.1172,2.178,2.178,0,0,1,1.2705-.9072h.0025a2.15369,2.15369,0,0,1,1.5463.1953,4.23343,4.23343,0,0,1,1.94292,2.4951C16.2237,60.4844,15.9854,61.334,13.9449,61.8662Z" fill="#f2f2f2" stroke="#000" stroke-width="0.8"/><path d="M20.1841,61.0645s-.3686,1.4765-.3887,1.6152a.53494.53494,0,0,1-.3315.4121c-.1748.041-.2822-.0029-.8193-.4023a5.87354,5.87354,0,0,0-2.7754-.8301,6.06234,6.06234,0,0,0-4.0035,1.4727s-.58388.5957-.7104.7558a.56166.56166,0,0,1-.5884.1875c-.1762-.0879-.4629-.2207-.354-.834" fill="none" stroke="#000" stroke-width="0.6"/><path d="M15.9991,57.2588a2.03862,2.03862,0,0,1,2.8564-.2031s.1177.1055.1777.1738a.36819.36819,0,0,0,.57962-.0664,1.82051,1.82051,0,0,0,.23828-.998c-.002-.3057.0562-.4893-.2847-.6514l-.05758-.0254a15.04259,15.04259,0,0,0-3.12792-1.1172c-2.3613-.5205-5.2593-.5722-6.9102,1.7032a5.10531,5.10531,0,0,0-.8008,1.7949s-.0898.3261.4156.4062c.5058.0772,1.185.1768,1.4028.2051.2178.0293.39752.0498.5571-.3193l.0132-.0342a3.80262,3.80262,0,0,1,.292-.5977,2.178,2.178,0,0,1,1.2705-.9072h.0025a2.15369,2.15369,0,0,1,1.5463.1953,4.605,4.605,0,0,1,.9458.7627s.4156.4453.5894.624c.1729.1807.3389.1319.2705-.0966-.1099-.3672-.1299-.6934.0235-.8487" fill="#d9d9d9" stroke="#000" stroke-width="0.8"/><path d="M10.76082,57.8926l-.01172.0234c-.1124.2579-.2359.2422-.3897.2227-.1523-.0195-.6274-.0869-.9775-.1426-.3545-.0566-.292-.2851-.292-.2851a3.49588,3.49588,0,0,1,.5595-1.2539,4.38648,4.38648,0,0,1,.461-.5313c.19142-.1738.3052-.3633.4136.1084.1074.4756.2583,1.0752.2939,1.2022a.6517.6517,0,0,1,.02492.4316A1.88587,1.88587,0,0,1,10.76082,57.8926Z" fill="none" stroke="#000" stroke-width="0.6"/><line x1="15.1157" y1="57.5801" x2="15.1533" y2="57.6201" fill="none" stroke="#000" stroke-width="0.6"/><path d="M15.1533,57.6201c.42052.4483.5967-.0068.5967-.0068a2.10965,2.10965,0,0,1,.2491-.3545" fill="none" stroke="#000" stroke-width="0.6"/><path d="M14.4546,56.1641a.73983.73983,0,1,1,.7813.6943A.73771.73771,0,0,1,14.4546,56.1641Z" fill="#f2f2f2" stroke="#000" stroke-width="1.2"/><path d="M19.2061,58.0567a1.62939,1.62939,0,0,1,.0679.3144" fill="none" stroke="#000" stroke-width="0.6"/><polyline points="18.93 61.588 19.687 62.039 19.591 61.568" fill="none" stroke="#000" stroke-width="0.8"/><polyline points="18.146 61.471 18.549 61.904 18.57 61.56" fill="none" stroke="#000" stroke-width="1.3"/><path d="M20.0103,61.502c.0234-.0039.7212.289.7212.289l-.1973-.4228" fill="none" stroke="#000" stroke-width="0.8"/><polyline points="20.919 61.23 21.754 61.381 21.464 60.957" fill="none" stroke="#000" stroke-width="0.8"/><polyline points="21.826 60.718 22.633 60.764 22.267 60.371" fill="none" stroke="#000" stroke-width="0.8"/><polyline points="22.588 60.084 23.023 60.11 22.849 59.836" fill="none" stroke="#000" stroke-width="0.8"/><polyline points="23.088 59.551 23.458 59.389 23.268 59.254" fill="none" stroke="#000" stroke-width="0.8"/><path d="M23.4326,58.7832c.0367-.1709.1744-.0722.20322-.25.02778-.1699-.15242-.1484-.14942-.2968.00342-.1211.1665-.1114.1523-.2774-.0107-.1621-.14888-.1055-.1895-.2832-.0312-.1387.1607-.2363.0049-.4394a.2978.2978,0,0,0-.4131-.0401c-2.6123,2.3496-2.8979,2.585-3.3056,2.4639-.6299-.1895-.5152-.5664-.5152-.5664a1.73048,1.73048,0,0,0,.0645-.6231v-.0019s.1748-.166.249-.2403a.27759.27759,0,0,0,.0298-.0312A.28361.28361,0,0,0,19.5869,58c-.0097-.0771-.0493-.0908-.07808-.0703a.32926.32926,0,0,1-.042.0362l-.23582.1884a1.75967,1.75967,0,0,0-3.4595.5078l2.3452,2.7813c.0718.0859.3706.1162.8135.1445a4.69654,4.69654,0,0,0,1.9141-.3291,5.882,5.882,0,0,0,1.917-1.3349A2.10087,2.10087,0,0,0,23.4326,58.7832Zm-1.102.2842c-.1641-.1103-.5903-.376-.3276-.6055.3276-.2822.6284-.541.7412-.6357a.19967.19967,0,0,1,.27-.0156c.1138.1015.1055.3554-.1255.7519C22.65382,58.959,22.4971,59.1787,22.3306,59.0674Z" fill="#d9d9d9" stroke="#000" stroke-width="0.8"/><path d="M23.086,58.0176a3.59553,3.59553,0,0,1-.4278,1.3926,5.97536,5.97536,0,0,1-2.1015,1.4883,3.47838,3.47838,0,0,1-2.54588-.0332c-.26032-.2969-.30522-.416-.30332-.5508.0025-.0947.1475-.1084.1475-.1084a1.6478,1.6478,0,0,0,.792-.4092s.063-.0752.2896-.0322a6.83842,6.83842,0,0,0,.8789.082,1.349,1.349,0,0,0,1.06932-.417s.59368-.5117,1.11818-.9678" fill="none" stroke="#000" stroke-width="0.6"/><path d="M17.1411,60.0762a1.52407,1.52407,0,1,0-1.1284-1.3506Z" fill="#ccc" stroke="#000" stroke-width="0.6"/><path d="M23.086,58.0176a3.59553,3.59553,0,0,1-.4278,1.3926,5.97536,5.97536,0,0,1-2.1015,1.4883,3.47838,3.47838,0,0,1-2.54588-.0332c-.26032-.2969-.30522-.416-.30332-.5508.0025-.0947.1475-.1084.1475-.1084a1.6478,1.6478,0,0,0,.792-.4092s.063-.0752.2896-.0322a6.83842,6.83842,0,0,0,.8789.082,1.349,1.349,0,0,0,1.06932-.417s.59368-.5117,1.11818-.9678" fill="none" stroke="#000" stroke-width="0.6"/><path d="M16.9854,58.1114a.73511.73511,0,1,1,.0517,1.0351A.73786.73786,0,0,1,16.9854,58.1114Z" fill="none" stroke="#000" stroke-width="0.6"/><path d="M16.75882,57.9024a1.043,1.043,0,1,1,.07228,1.4717A1.04409,1.04409,0,0,1,16.75882,57.9024Z" fill="none" stroke="#000" stroke-width="0.6"/><path d="M16.75882,57.9024a1.043,1.043,0,1,1,.07228,1.4717A1.04409,1.04409,0,0,1,16.75882,57.9024Z" fill="#d9d9d9" stroke="#000" stroke-width="0.6"/><path d="M16.9854,58.1114a.73511.73511,0,1,1,.0517,1.0351A.73786.73786,0,0,1,16.9854,58.1114Z" fill="none" stroke="#000" stroke-width="0.8"/><path d="M10.9844,67.9571a4.81329,4.81329,0,1,1,5.083,4.5302A4.8141,4.8141,0,0,1,10.9844,67.9571Z" fill="#fff" stroke="#000" stroke-width="0.8" opacity="0.8"/><path d="M9.13582,64.3711a35.57183,35.57183,0,0,0,2.334,5.7647,4.97018,4.97018,0,0,0,8.29878.5254s1.186-1.4717,2.4321-5.5948c1.2442-4.125,1.6016-5.8105.59912-7.2099-1.00242-1.4033-4.15282-2.9883-6.51952-3.4912-2.3647-.502-5.2617-.5332-6.89548,1.7539C7.7505,58.4063,8.4405,62.3438,9.13582,64.3711Zm8.28848-6.5215a4.94959,4.94959,0,0,1,1.959.4707c1.315.5235,1.7847.7178,2.0298.8457.2432.1329.5733.2852.4605,1.0596-.11378.7725-.42,1.2129-.8741.8428a10.59288,10.59288,0,0,0-1.7578-1.0859,14.69576,14.69576,0,0,0-1.9497-.6563.74922.74922,0,0,1,.1323-1.4766Zm-6.1479-.291a2.1635,2.1635,0,0,1,1.2632-.9101l.0024-.003a2.15869,2.15869,0,0,1,1.54882.1827,4.25411,4.25411,0,0,1,1.95948,2.4824c.1196,1.1699-.1123,2.0205-2.1509,2.5683v.0039c-2.0498.5118-2.663-.1171-3.1279-1.1992A4.25546,4.25546,0,0,1,11.2764,57.5586Z" fill="#ffd900" stroke="#000" stroke-width="0.8"/><path d="M20.13382,61.0332s-.35452,1.4795-.375,1.6153c-.02242.1347-.15042.3789-.32522.417-.1772.04-.2876-.001-.8262-.3975a5.85336,5.85336,0,0,0-2.7812-.8086,6.061,6.061,0,0,0-3.9917,1.502s-.5796.6035-.7056.7578a.55583.55583,0,0,1-.5859.1943c-.1787-.0859-.4658-.2168-.3604-.831" fill="none" stroke="#000" stroke-width="0.6"/><path d="M17.5113,67.9356A1.74007,1.74007,0,1,1,16.044,65.961,1.73755,1.73755,0,0,1,17.5113,67.9356Z" fill="none" stroke="#000" stroke-width="1.2"/><path d="M17.1377,67.8809a1.36195,1.36195,0,1,1-1.1484-1.5488A1.3625,1.3625,0,0,1,17.1377,67.8809Z" fill="none" stroke="#000" stroke-width="0.6"/><path d="M14.9893,58.0782a1.86875,1.86875,0,0,1-1.8613,1.8789h0a1.86741,1.86741,0,0,1-1.876-1.8594l-.125-25.082a1.87306,1.87306,0,0,1,1.8603-1.8789h0a1.87039,1.87039,0,0,1,1.877,1.8613Z" fill="#ffd900" stroke="#000" stroke-width="0.8"/><rect x="10.27882" y="41.01365" width="5.65316" height="8.01815" transform="translate(-0.2411 0.07088) rotate(-0.30706)" fill="#ffd900" stroke="#000" stroke-width="0.8"/><polyline points="11.218 52.188 12.169 52.178 12.161 50.662 13.945 50.654 13.953 52.166 14.974 52.164" fill="none" stroke="#000" stroke-width="0.8"/><line x1="12.169" y1="52.1778" x2="11.1895" y2="53.3653" fill="none" stroke="#000" stroke-width="0.8"/><line x1="13.9961" y1="52.1739" x2="14.9805" y2="53.3555" fill="none" stroke="#000" stroke-width="0.8"/><path d="M12.6211,12.3106A6.1553,6.1553,0,1,0,6.4629,6.1563,6.156,6.156,0,0,0,12.6211,12.3106Z" fill="gray"/><path d="M15.8413,2.6133a.24377.24377,0,0,1,.252.1192c.0356.0449.1333.1171.1484.1777.0523.2461-.539.793-.6816.9141-.3638.3134-.6987.666-1.0625.9746a3.148,3.148,0,0,0-.6494.6347c-.2813.4102-1.0005.4326-.8116-.3252.025-.1025.26322-.167.3394-.3242-.1797-.083-.40618-.1611-.5908-.251-.7197-.3496-.8018.6104-1.4155-.3691-.52888-.8418,1.125-.7695,1.78612-.6641a3.2743,3.2743,0,0,1,.82518.3399c.0669.0293.186.122.2671.1025V3.9317c.3525-.1817.5888-.6094.8828-.8604.1221-.1006.3086-.1299.4292-.2353C15.6416,2.7618,15.7115,2.6348,15.8413,2.6133Z" fill="#d9d9d9"/><path d="M8.7871,2.6875a.52818.52818,0,0,1,.2774.0743c.3667.1826.561.5742.8564.8261.3174.2647.6162.5332.9307.7989.1435.1191.2519.2968.4004.4121a2.66155,2.66155,0,0,1,.48482.3974.42767.42767,0,0,1,.07478.3994c-.1915.5215-.753-.0586-.9434-.1464a2.23229,2.23229,0,0,0,.26462,2.2871c.11918.1562.34278.2031.51708.3105a1.98368,1.98368,0,0,0,1.8428-.0156,2.98236,2.98236,0,0,0,.4585-.4278c.1621-.1523.3711-.2656.4292-.5156a3.13073,3.13073,0,0,0,.0742-1.0781c-.0151-.1006-.11178-.2529-.061-.3672.0596-.1367.56-.6133.7993-.5488.1094.0293.2202.332.251.4433a3.31012,3.31012,0,0,1,.0591.3692c0,.0117-.0147.0703-.01618.0586-.018.0156.042.5732.03028.6953a2.96541,2.96541,0,0,1-2.0674,2.5654,3.35773,3.35773,0,0,1-2.5693-.3525c-.1343-.0928-.2061-.2744-.3232-.3838-.1612-.1514-.4102-.1924-.5455-.3711a4.01422,4.01422,0,0,1-.5195-1.8721,3.57326,3.57326,0,0,1,.3125-1.2422,4.58332,4.58332,0,0,0,.25-.4394A7.09963,7.09963,0,0,1,9.0074,3.5147C8.919,3.4073,8.2539,2.7383,8.7871,2.6875Z" fill="#d9d9d9"/><path d="M21.8809,109.7969a26.015,26.015,0,0,1-.1685-2.6094c0-1.8252.3477-17.165.1631-12.1211l-2.28068-.0273c.18008-4.5684-.16222,10.3105-.16222,12.1484a51.3304,51.3304,0,0,0,.5464,5.9434Z" fill="#34b3d1" stroke="#000" stroke-linecap="round" stroke-width="0.8"/><path d="M22.3457,285.5508H20.3184c0-3.8174-1.082-165.8916-1.09858-167.5273l2.02678-.0215C21.2647,119.6377,22.3457,281.7227,22.3457,285.5508Z" fill="#d9d9d9" stroke="#000" stroke-width="0.8"/><rect x="19.28621" y="271.9357" width="31.16323" height="2.0271" transform="translate(-236.55243 227.69326) rotate(-73.25391)" fill="#d9d9d9" stroke="#000" stroke-width="0.8"/><path d="M21.7124,107.1875a28.00317,28.00317,0,0,1-2.1362,6.2764,12.6892,12.6892,0,0,0-.5449,8.7451,2.09728,2.09728,0,0,0-.3413,2.1279,1.75482,1.75482,0,0,0,.2939.4502s.5132-.875,1.1841-.6953a2.34047,2.34047,0,0,1,1.2881,1.6514c.042.4482.0405,1.208.0405,1.208,2.0093.502,1.6157-1.2363,1.6157-1.2363a1.92533,1.92533,0,0,0,.7681-1.6944,2.06089,2.06089,0,0,0-.5879-1.04c1.8311-2.2793.8208-7.6484.8701-9.2139.0528-1.5634-.437-8.1338-.437-8.1338.4404-.7793.1431-1.1953.1431-1.1953a1.59834,1.59834,0,0,0,.2373-1.8125,1.49994,1.49994,0,0,0,.3037-1.4941,1.533,1.533,0,0,0,.0332-2.1182,1.52506,1.52506,0,0,0-.1309-1.957c.0679.0029.3233-.1338.3716-.9404a1.05043,1.05043,0,0,0-.59178-1.0625,1.2436,1.2436,0,0,0,.37158-1.1914,1.175,1.175,0,0,0-1.51458-.7871c-.55182.1328-1.40482.4072-1.40482.4072-.481-.9434-1.6734-1.5244-2.252-.6768a1.10208,1.10208,0,0,0-.0054,1.4278c-1.6357.705-.3764,2.2734-.3764,2.2734-.5747.5527-.1226,1.6094-.1226,1.6094a1.82648,1.82648,0,0,0-.0063,1.7246,1.95665,1.95665,0,0,0,.1094,1.4726,1.43506,1.43506,0,0,0-.2725,1.2657c-.73,1.2382-.0078,1.9121-.0078,1.9121-1.2139,1.7353.8222,3.8613.8222,3.8613s-.146-1.9766.334-2.6074c.5-.6543,1.7168-.3477,1.7168-.3477s.377,2.5957.5059,4.2031a55.224,55.224,0,0,1,.0591,7.2911" fill="#d9d9d9" stroke="#000" stroke-width="0.8"/><path d="M24.1543,113.2188a3.35092,3.35092,0,0,1,2.4834-1.1055,15.22782,15.22782,0,0,1,4.6953.3399,1.05038,1.05038,0,0,1,.875,1.2109c-.0644.707-.4951,1.0322-1.9677.7695-1.4727-.2636-5.1573-.9843-5.8863,1.9336,0,0-.0678-1.5762-.103-1.9931C24.21682,113.9551,24.1543,113.2188,24.1543,113.2188Z" fill="#d9d9d9" stroke="#000" stroke-width="0.8"/><path d="M22.1226,112.3946s-.686,2.2011-1.2075,4.0332a10.1222,10.1222,0,0,0,.3808,5.5" fill="none" stroke="#000" stroke-width="0.8"/><path d="M19.2866,94.2325s.876.7714,2.2217,11.3378" fill="none" stroke="#000" stroke-width="0.8"/><path d="M21.544,93.4815s1.7451,4.0176,2.1816,12.1513" fill="none" stroke="#000" stroke-width="0.8"/><path d="M22.0181,94.9649a5.06883,5.06883,0,0,1,2.07372.0879" fill="none" stroke="#000" stroke-width="0.8"/><path d="M18.9102,96.5059a5.51242,5.51242,0,0,1,.9433-.7149" fill="none" stroke="#000" stroke-width="0.8"/><path d="M22.4702,96.5039a4.67334,4.67334,0,0,1,1.8418.5518" fill="none" stroke="#000" stroke-width="0.8"/><path d="M18.7876,98.1153a4.89918,4.89918,0,0,1,1.3589-1.083" fill="none" stroke="#000" stroke-width="0.8"/><path d="M22.8311,98.1543a5.76723,5.76723,0,0,1,1.6118.8584" fill="none" stroke="#000" stroke-width="0.8"/><path d="M18.7813,99.8399a4.035,4.035,0,0,1,1.5874-1.5303" fill="none" stroke="#000" stroke-width="0.8"/><path d="M23.1582,100.0059a2.23571,2.23571,0,0,1,1.2515,1.125" fill="none" stroke="#000" stroke-width="0.8"/><path d="M18.8907,101.3125a8.81723,8.81723,0,0,1,1.8598-1.0605" fill="none" stroke="#000" stroke-width="0.8"/><path d="M23.437,101.8809a4.54661,4.54661,0,0,1,.669.7441" fill="none" stroke="#000" stroke-width="0.8"/><path d="M18.6182,102.5782a5.37206,5.37206,0,0,1,2.2773-1.3184" fill="none" stroke="#000" stroke-width="0.8"/><path d="M23.627,104.0948a1.79089,1.79089,0,0,1,.2417.3427" fill="none" stroke="#000" stroke-width="0.8"/><path d="M18.6104,104.4903a4.32838,4.32838,0,0,1,2.3623-1.4844c.0644-.0098.125-.0195.1889-.0254" fill="none" stroke="#000" stroke-width="0.8"/><path d="M19.0313,122.209a2.33385,2.33385,0,0,1,2.4033-.373" fill="none" stroke="#000" stroke-width="0.8"/><path d="M20.7207,117.5244c2.1035,12.126,6.7534,33.6124,13.8135,66.962q4.1763,19.73,9.4443,44.7617c.2247,1.749,1.0372,4.5674,3.6934,4.5674l.2754-2.1397c-1.1152,0-1.6289-2.1465-1.7217-2.8066-3.5176-16.7813-6.67578-31.7012-9.4599-44.8555-7.4068-34.9883-12.33788-57.7686-14.2183-69.4062-.062-.3829-.4248-2.3877-.4248-2.3877s-.1387.6171-.31978,1.2138c-.18172.5977-.461,1.5274-.54982,1.8291C21.1651,115.5625,20.7207,117.5244,20.7207,117.5244Z" fill="#34b3d1" stroke="#000" stroke-linecap="round" stroke-width="0.8"/><path d="M42.2783,251.2246a1.68215,1.68215,0,0,1-2.1132,1.0889h0a1.67845,1.67845,0,0,1-1.0879-2.1103l6.8574-21.4698a1.68409,1.68409,0,0,1,2.1113-1.0918h0a1.68575,1.68575,0,0,1,1.08892,2.1143Z" fill="#ffd900" stroke="#000" stroke-width="0.8"/><path d="M48.1944,232.6114c-.3692.039-1.044.3349-1.4971,1.7832l-.64648-.1993-.251-.0878-.61232-.211c.4864-1.4375.0821-2.084-.1933-2.333" fill="none" stroke="#000" stroke-width="0.8"/><rect x="40.6884" y="237.00495" width="7.20482" height="5.0781" transform="translate(-197.37957 208.91013) rotate(-72.3003)" fill="#ffd900" stroke="#000" stroke-width="0.8"/><polyline points="40.687 245.143 41.502 245.4 41.919 244.103 43.446 244.59 43.03 245.887 43.907 246.165" fill="none" stroke="#000" stroke-width="0.8"/><path d="M38.8897,265.5899a.91241.91241,0,0,1-.2471-1.1074c.9834-2.0118.7109-5.4805.5225-6.6456a.90557.90557,0,1,1,1.7881-.288c.0332.1972.7519,4.7968-.6836,7.7304a.9078.9078,0,0,1-1.2129.416A1.14726,1.14726,0,0,1,38.8897,265.5899Z" fill="#d9d9d9" stroke="#000" stroke-width="0.8"/><path d="M43.1299,248.5586a2.33828,2.33828,0,0,1,1.2061,1.169,2.93556,2.93556,0,0,1-.3321,2.3281c-.8779,1.7021-1.8222,3.3662-1.8222,3.3662a.90166.90166,0,0,1-1.2344.3438.92742.92742,0,0,1-.1191-.0801.90593.90593,0,0,1-.2237-1.1543c.0039-.0039.6895-1.2197,1.4307-2.6231,0,0,.2822-.9043.4189-1.2382C42.59082,250.3399,43.1299,248.5586,43.1299,248.5586Z" fill="#d9d9d9" stroke="#000" stroke-width="0.8"/><path d="M39.96682,252.3926l.14158.375a14.53408,14.53408,0,0,0,1.1016,3.0977.90468.90468,0,0,1-.3955,1.2187.89456.89456,0,0,1-.7754.0235.87439.87439,0,0,1-.4375-.4141,15.78485,15.78485,0,0,1-1.2666-3.5391,5.65121,5.65121,0,0,1,.2607-3.705,7.48624,7.48624,0,0,1,1.125-1.2637,23.80873,23.80873,0,0,0-.7031,2.5019,1.94012,1.94012,0,0,0,.2793,1.1387A4.22211,4.22211,0,0,0,39.96682,252.3926Z" fill="#d9d9d9" stroke="#000" stroke-width="0.8"/><path d="M41.5869,258.2325a.94045.94045,0,0,1-.2812-.3848.90629.90629,0,0,1,.5185-1.1699,1.11631,1.11631,0,0,0,.1739-.0918.66792.66792,0,0,0-.9854.0273.9168.9168,0,0,1-1.2822-.0566.90285.90285,0,0,1,.0596-1.2774,2.49384,2.49384,0,0,1,3.46972-.0254,1.76826,1.76826,0,0,1,.61718,1.6602,2.25473,2.25473,0,0,1-1.4014,1.457A.90873.90873,0,0,1,41.5869,258.2325Z" fill="#d9d9d9" stroke="#000" stroke-width="0.8"/><path d="M40.0811,259.2012l-.2119.4844a.91768.91768,0,0,0,.6748.1582,1.51776,1.51776,0,0,0,1.4726-1.4942,2.19427,2.19427,0,0,0-2.1933-1.8164,2.13794,2.13794,0,0,0-1.6182.4707,2.54092,2.54092,0,0,0-.8047,1.6162.90286.90286,0,0,0,.3389.7706.87607.87607,0,0,0,.2236.1308l.2764-.6445a1.19129,1.19129,0,0,1,1.1953-.5274S40.377,258.5274,40.0811,259.2012Z" fill="#d9d9d9" stroke="#000" stroke-width="0.8"/><path d="M41.625,259.336a2.17192,2.17192,0,0,0,1.0576-1.7549,2.11785,2.11785,0,0,0-1.9775-2.2295,2.73114,2.73114,0,0,0-3.31928,2.0234.89069.89069,0,0,0,.15128.7071s.3262-.9239.7998-1.1768a2.84693,2.84693,0,0,1,1.6661-.3486,2.54075,2.54075,0,0,1,1.791,1.0703A1.72371,1.72371,0,0,1,41.625,259.336Z" fill="#d9d9d9" stroke="#000" stroke-width="0.8"/><path d="M21.8994,281.6934a5.42019,5.42019,0,0,1,9.1709,3.7891" fill="#ffd900" stroke="#000" stroke-width="0.8"/><path d="M27.2271,281.7676a4.14508,4.14508,0,0,0-2.7725-.1484,4.39786,4.39786,0,0,1-1.0503.0859c-.4717-.0117-2.5268-.0019-3.1333-.0078-.6035-.0039-.7441-.0078-1.0293.1484-.2817.1563-.4604.6407-.7055,1.2344a11.19055,11.19055,0,0,0-.65338,2.6143c-.07082.7841.00978,1.208-.03222,2.3759a12.64707,12.64707,0,0,1-.3061,2.252s-.45368,1.9687-.6148,2.7051a11.63111,11.63111,0,0,0-.3808,2.3984,5.46665,5.46665,0,0,0,.7124,2.4805,5.38748,5.38748,0,0,0,2.4409,2.0918l.0073.0019a5.38709,5.38709,0,0,0,3.2075.2403,5.43434,5.43434,0,0,0,2.2515-1.2569,11.75181,11.75181,0,0,0,1.42532-1.9677c.40228-.6377,1.46868-2.3526,1.46868-2.3526a12.70743,12.70743,0,0,1,1.3716-1.8115c.7954-.8574,1.1519-1.0996,1.6548-1.709a11.11848,11.11848,0,0,0,1.37792-2.3125,2.66156,2.66156,0,0,0,.37108-1.373c-.0908-.3125-.1933-.4063-.626-.8321-.4316-.4257-1.8857-1.8789-2.22508-2.205a4.19948,4.19948,0,0,1-.68362-.8008,4.14649,4.14649,0,0,0-2.0717-1.8496Z" fill="#ffd900" stroke="#000" stroke-width="0.8"/><path d="M27.4204,286.3301a1.91049,1.91049,0,1,1-1.038-2.4941A1.90975,1.90975,0,0,1,27.4204,286.3301Z" fill="#ffd900" stroke="#000" stroke-width="0.8"/><path d="M27.0835,289.6914a3.84108,3.84108,0,0,0,1.6607-1.0839c.6631-.7549.7197-1.0098.7109-1.1504a.43776.43776,0,0,0-.3354-.417,3.21626,3.21626,0,0,0-.584-.1826.54929.54929,0,0,0-.3286.1308,5.11673,5.11673,0,0,0-.3511.4766,2.30052,2.30052,0,0,1-.9639.748,2.25016,2.25016,0,0,1-.3506.1133.53892.53892,0,0,0-.4458.4629,2.17575,2.17575,0,0,0,.0689.6533c.0464.1231.247.3955.47122.3526A4.30516,4.30516,0,0,0,27.0835,289.6914Z" fill="none" stroke="#000" stroke-width="0.8"/><path d="M21.7466,287.4932a3.86216,3.86216,0,0,1-.415-1.9424c.061-1.0049.2046-1.2246.3081-1.3183a.43712.43712,0,0,1,.5298-.0606,2.85852,2.85852,0,0,1,.5424.2852.50757.50757,0,0,1,.1436.3242,5.06884,5.06884,0,0,1-.084.584,2.286,2.286,0,0,0,.1514,1.2099,2.11273,2.11273,0,0,0,.17092.3272.54693.54693,0,0,1-.00782.6426,2.18073,2.18073,0,0,1-.5127.416c-.1192.0537-.4571.1054-.584-.084C21.9121,287.7578,21.8194,287.6328,21.7466,287.4932Z" fill="none" stroke="#000" stroke-width="0.8"/><path d="M22.836,292.4063a8.31577,8.31577,0,0,1-1.918-1.1416.83346.83346,0,0,0-.6665-.0557c-.2886.0801-.4312.3262-.5562.6758-.124.3516-.37448,1.2793-.37448,1.2793a8.49593,8.49593,0,0,0-.26362,1.6865,3.17216,3.17216,0,0,0,.2832,1.4658,2.74983,2.74983,0,0,0,1.3686,1.2442l.0083.0019a2.72653,2.72653,0,0,0,1.8433.084,3.15582,3.15582,0,0,0,1.24022-.8408,8.70853,8.70853,0,0,0,1.00048-1.3799s.4746-.8379.6343-1.1719a.90717.90717,0,0,0,.084-.8691.83558.83558,0,0,0-.5122-.4346,8.00759,8.00759,0,0,1-2.16458-.541Z" fill="#fff" stroke="#000" stroke-width="0.8"/><path d="M23.2461,291.3907a5.90933,5.90933,0,0,1-3.0879-2.7305c-.1386-.3428-.1211-.7744-.5722-.7881-.5225-.0117-.5293,1.7119-.7246,2.7275-.191,1.0176-.5752,2.8555-.5752,2.8555s-.3067,1.3301-.3531,1.7012a3.6349,3.6349,0,0,0,2.2818,3.5781l.0205.0078a3.63644,3.63644,0,0,0,4.1445-.9267c.2261-.294.9507-1.4561.9507-1.4561s1.02-1.5723,1.6045-2.4277c.5796-.8584,1.7886-2.085,1.40972-2.4434-.32872-.3096-.62072.0108-.96.1504a5.9141,5.9141,0,0,1-4.11722-.2383Z" fill="none" stroke="#000" stroke-width="0.8"/><path d="M19.8609,295.1817a1.68347,1.68347,0,0,1,2.2207-.8448h0a1.67842,1.67842,0,0,1,.8427,2.2217l-9.2241,20.5625a1.68057,1.68057,0,0,1-2.2207.8487h0a1.68384,1.68384,0,0,1-.8428-2.2237Z" fill="#ffd900" stroke="#000" stroke-width="0.8"/><path d="M11.8926,313.0157c.3691,0,1.07522-.2168,1.6851-1.6065l.6225.2725.2364.1133.5859.2812c-.6431,1.3711-.3135,2.0596-.0698,2.3398" fill="none" stroke="#000" stroke-width="0.8"/><rect x="12.94587" y="304.02472" width="7.20503" height="5.07907" transform="translate(-269.9632 196.26192) rotate(-65.85427)" fill="#ffd900" stroke="#000" stroke-width="0.8"/><polyline points="20.757 301.408 19.976 301.059 19.418 302.301 17.955 301.645 18.512 300.402 17.672 300.027" fill="none" stroke="#000" stroke-width="0.8"/><line x1="19.9756" y1="301.0586" x2="21.21682" y2="300.4493" fill="none" stroke="#000" stroke-width="0.8"/><line x1="18.4751" y1="300.3799" x2="18.1123" y2="299.0479" fill="none" stroke="#000" stroke-width="0.8"/><path d="M34.6299,38.4678s.2324-3.0381-4.1699-.6787l-.6226-2.1768s7.3179-2.4111,7.5327,2.7569Z" fill="#34b3d1" stroke="#000" stroke-width="0.8"/><path d="M33.59282,29.9004a5.7849,5.7849,0,0,0-1.32422-1.6933,23.49545,23.49545,0,0,0-2.2539-1.0586l-.6988.9326a7.90652,7.90652,0,0,1,2.10892,2.9248m-1.082-3.3633-.58592.8389m1.66792,2.5244a5.27455,5.27455,0,0,1,.28908,1.2637,4.97271,4.97271,0,0,1-.209,2.3613,8.91767,8.91767,0,0,1-.9062,2.1377s-.8301,1.749-1.959,2.1474a2.05736,2.05736,0,0,1-2.08888-.4912l-1.98-1.6064L21.9864,34.5645s-2.3873-2.1367-3.3877-3.1953c0,0-1.8472-1.7871-2.5674-2.6475a19.52669,19.52669,0,0,1-1.3999-1.6846,1.81222,1.81222,0,0,1,.0659-1.6445,2.59768,2.59768,0,0,1,.2583-.3623s.0171-1.5693.0205-2.1064c.0044-.5332.0073-1.1621.0073-1.1621a6.39545,6.39545,0,0,0-2.1787,1.8886,4.046,4.046,0,0,0-.7973,2.2071,4.83776,4.83776,0,0,0,.562,2.4921,9.18641,9.18641,0,0,0,1.64642,2.1973l1.23438,1.3086s1.45562,1.4902,2.22762,2.1797l1.48238,1.4043,2.4609,2.2012,1.6758,1.456s2.2046,1.8994,3.209,2.1045a4.53372,4.53372,0,0,0,2.1572.25,4.3896,4.3896,0,0,0,2.2149-.9531,7.00542,7.00542,0,0,0,1.7246-2.1162,12.96889,12.96889,0,0,0,1.1963-2.6192,8.221,8.221,0,0,0-.20608-5.8623M18.7276,22.7217a5.63623,5.63623,0,0,1,2.0918.2022l.3862.2509c.188.1504.4185.3243.57422.4639.15578.1416.38038.1328.67968-.2021.29932-.3331.6538-.6866.8315-.8838a.7088.7088,0,0,0-.1821-.9795l-1.1548-.8994s-.188-.211-1.52628-.3789a2.6434,2.6434,0,0,0-1.648-.1485s-.00442.6992-.01462,1.0986C18.7544,21.6446,18.7276,22.7217,18.7276,22.7217Z" fill="#d9d9d9" stroke="#000" stroke-width="0.8"/><path d="M30.4824,29.2774c.2022.2422.40042.8418.8067.6855.2822-.1094.499-.4511.6826-.6972.1709-.2266.374-.8887.0156-1.209" fill="none" stroke="#000" stroke-linecap="round" stroke-linejoin="round" stroke-width="0.8"/><line x1="31.7686" y1="28.2539" x2="30.75882" y2="29.6914" fill="#fff" stroke="#000" stroke-linecap="round" stroke-linejoin="round" stroke-width="0.8"/><path d="M21.4375,20.67c-.6899-.2999-1.2861-.2637-2.0468,1.2656a.39829.39829,0,0,0,.0268.4121" fill="none" stroke="#000" stroke-linecap="round" stroke-linejoin="round" stroke-width="0.8"/><path d="M29.3286,29.9414s.2491.1836.6387-.207a5.98416,5.98416,0,0,0,.7124-.9824c.4004-.6328.1045-.874.0469-.9258-.00778-.0039-.127-.1035-.3389-.2715-.12688-.0996-.2812-.0293-.6084-.3086-.4634-.3711-.292-.4072-.5478-.6133-2.5713-2.0517-7.5708-6.0507-7.5708-6.0507-.357-.2715-.7798.0214-1.1333.541-.3638.5293-.6748.7676-.2735,1.1416.4312.3994,1.273,1.0791,1.273,1.0791s.5708.4023.458.5078Z" fill="#d9d9d9" stroke="#000" stroke-width="0.8"/><path d="M29.92782,27.1817c.289-.4707.11808-.6739.11808-.6739l-.5346-.4843-.0201-.1524s-2.90038-2.4316-3.1132-2.6064c-.2007-.1787-.1983-.0664-.1983-.0664s-.289-.2276-.4971-.3877a.45135.45135,0,0,0-.4365-.1074l-.2387.2089c-.4419.6211-1.1988,1.587-1.7505,2.2022-.0645.0713-.293.331.0913.6396.3779.3233.4731.418.4731.418l-.0107.084,3.2085,2.7109h.1181l.5074.4004s.2451.2149.6518-.1787A12.836,12.836,0,0,0,29.92782,27.1817Z" fill="#d9d9d9" stroke="#000" stroke-width="0.8"/><path d="M21.4121,22.3535a.4056.4056,0,1,1,.5728.0098.40591.40591,0,0,1-.5728-.0098" fill="#ffd900" stroke="#000" stroke-width="0.8"/><path d="M30.5537,36.375s-.3984-.2715-.1064-.5761" fill="none" stroke="#000" stroke-width="0.8"/><path d="M33.7696,35.9004a2.292,2.292,0,0,1,.3408-.0322,1.97545,1.97545,0,0,1,.5859.0967,1.93454,1.93454,0,0,1,.60352.3789h0c.70608.5898.91118,2.1006.77348,3.5918h0a2.30651,2.30651,0,0,1-.6221,1.4394h0a3.00772,3.00772,0,0,1-3.0508.7412h0a5.97945,5.97945,0,0,1-2.1728-1.2978h0a4.28087,4.28087,0,0,1-1.3101-2.0117h0c-.0298-.0879.0098-.2862.3042-.6114h0a3.75754,3.75754,0,0,1,.6782-.5546h0c.1094-.0704.2027-.126.2652-.1592h0a.53115.53115,0,0,1,.0791-.043l-1.00538-2.0303H29.2373a6.38464,6.38464,0,0,0-1.6738,1.2442h0a2.96378,2.96378,0,0,0-.8633,2.6181h0a6.41235,6.41235,0,0,0,1.9854,3.2032h0a8.11563,8.11563,0,0,0,3.0136,1.7959h0A5.25009,5.25009,0,0,0,37.1104,42.92h0l.0068-.0098h0a4.61883,4.61883,0,0,0,1.2129-2.8027h0c.1084-1.6573.124-3.8575-1.48728-5.4258h0a4.36618,4.36618,0,0,0-1.93362-1.0205,5.47652,5.47652,0,0,0-.5547-.0869.15312.15312,0,0,0-.1455-.0352s-.0244.457-.1416,1.1699A10.11925,10.11925,0,0,1,33.7696,35.9004Z" fill="#34b3d1" stroke="#000" stroke-width="0.8"/><path d="M30.9317,36.128l-.1016.0468a3.12288,3.12288,0,0,0-.3574.1202h0a5.54182,5.54182,0,0,0,2.6045.8847h0a27.81737,27.81737,0,0,1,2.8808.6416,6.89064,6.89064,0,0,1,.0684,2.3858,26.81208,26.81208,0,0,0-3.2988-.7911h0a7.28228,7.28228,0,0,1-3.8174-1.4794h0a2.6211,2.6211,0,0,1-.8535-1.6045h0a1.74915,1.74915,0,0,1,.4799-1.4248h0a3.31635,3.31635,0,0,1,1.3609-.8145,15.5821,15.5821,0,0,1,1.7871-.4531,9.39581,9.39581,0,0,1-.2383,1.1553A9.56839,9.56839,0,0,1,30.9317,36.128Z" fill="#34b3d1" stroke="#000" stroke-width="0.8"/><path d="M92.253,89.6602C89.2676,77.3399,81.6397,63.3711,62.7969,58.9258c-9.915-2.3418-22.585-7.0127-26.6367-15.9824a2.81981,2.81981,0,0,1-.0928-2.7598s-.3818-.0761-.6494-.1523c-.2676-.0723-.8174-.2197-1.0313-.2715-.2158-.0508-.455-.1084-.455-.1084a5.35524,5.35524,0,0,0,.2646,4.1797c4.4121,9.7685,17.7197,14.7402,28.10552,17.1904C81.7901,65.6192,88.7451,80.6426,90.9756,93.7637c0,0,.24022-.7842.3438-1.1269.1035-.3438.3593-1.1875.4951-1.6231C91.9502,90.5772,92.253,89.6602,92.253,89.6602Z" fill="#34b3d1" stroke="#000" stroke-linecap="round" stroke-width="0.8"/><polygon points="66.125 55.45 59.936 66.051 58.622 64.496 64.813 53.896 66.125 55.45" fill="#fff"/><line x1="58.6221" y1="64.4961" x2="64.8135" y2="53.8965" fill="none" stroke="#000" stroke-linecap="round" stroke-miterlimit="10" stroke-width="0.4"/><line x1="59.9356" y1="66.0508" x2="66.125" y2="55.4502" fill="none" stroke="#000" stroke-linecap="round" stroke-miterlimit="10" stroke-width="0.4"/><path d="M92.1241,33.2686c1.0029.4014,1.958.7617,2.7949,1.0547a21.47626,21.47626,0,0,1,4.291,1.9541,4.07393,4.07393,0,0,1,1.751,1.6836.63988.63988,0,0,1-.1094.6328.68128.68128,0,0,1-.59178.3525,4.567,4.567,0,0,1-2.28912-.708,17.49179,17.49179,0,0,1-4.3593-3.5176c-.3467-.3847-.8633-.8847-1.4873-1.4521a66.49312,66.49312,0,0,1-8.9415-4.2315l-1.416-.8945-.1445.2285a83.18143,83.18143,0,0,1,9.9805,8.1739,20.96573,20.96573,0,0,0,4.915,3.9941,7.211,7.211,0,0,0,3.9746,1.1123,3.5091,3.5091,0,0,0,3.0322-4.585,6.46356,6.46356,0,0,0-2.8642-3.081,23.75467,23.75467,0,0,0-4.8457-2.2236,73.16955,73.16955,0,0,1-11.18168-5.0215L82.2989,25.2657l-1.4502,2.2949.9179.582" fill="#34b3d1" stroke="#000" stroke-width="0.8"/><path d="M85.9112,27.4659c-.0586.1728-.1045.3906-.1973.6123a19.29725,19.29725,0,0,0-.8799,3.9043,6.481,6.481,0,0,0-.0078.8183c.0049.041.0088.0772.0117.1035a1.58417,1.58417,0,0,0,.7578,1.0684,1.393,1.393,0,0,0,1.5625.0771,2.3457,2.3457,0,0,0,.8037-.8486c-.0273-.0166-.5029-.4238-.5224-.4521-.2276-.3233-.1455-.6407-.0391-1.1514l-.0078.0068a18.70556,18.70556,0,0,1,.7275-2.4424c.129-.3593.2403-.6699.3174-.9336.3252-1.1132-.47168-2.538-1.9433-3.4687a1.4828,1.4828,0,0,0-.5049-.2051A3.97847,3.97847,0,0,1,85.9112,27.4659Z" fill="#34b3d1" stroke="#000" stroke-width="0.8"/><path d="M81.1807,29.0694c-.1406-.0147-.2803-.0303-.418-.043-.4492-.043-.8906-.085-1.3125-.1494h0a2.77153,2.77153,0,0,0,.2031.5664l.003.0078c.0156.0303.0312.0606.0469.0898l.01362.0235c.01558.0273.03028.0566.04588.082l.0186.0264c.0156.0283.0322.0547.0498.081.0049.0088.01272.0166.0195.0264a2.08729,2.08729,0,0,0,.169.2178c.0127.0195.0273.0332.04.0508.0137.0156.0293.0312.043.0449.0156.0166.03322.0332.0507.0508a22.87076,22.87076,0,0,1,.0977.0957.353.353,0,0,0,.041.0351c.0205.0196.044.0401.0664.0586l.0352.0293c.0351.0264.0713.0567.1084.082a3.63161,3.63161,0,0,0,1.7529.6231,17.15116,17.15116,0,0,1,.3467-1.8272C82.1436,29.168,81.6582,29.1192,81.1807,29.0694Z" fill="#34b3d1" stroke="#000" stroke-width="0.8"/><path d="M83.6074,25.584c.0079-.0459.0176-.0957.02742-.1465a6.06269,6.06269,0,0,0,.05658-2.5625.05892.05892,0,0,0,.02642,0c-.00782-.039-.01562-.0791-.02542-.1201a2.63767,2.63767,0,0,0-2.2383-2.2197,1.379,1.379,0,0,0-.8056.1387,3.337,3.337,0,0,1,.6269,1.33,11.06039,11.06039,0,0,1,.1846,2.5c.0039.6319-.03418,1.4258-.042,1.8594l.042.0059c.6094.0625,1.2334.1269,1.8476.2402.0137-.0488.0284-.0976.043-.1445C83.4463,26.1436,83.5391,25.8321,83.6074,25.584Z" fill="#34b3d1" stroke="#000" stroke-width="0.8"/><path d="M84.3272,22.9785a1.29742,1.29742,0,0,0-.60938-.1035.05892.05892,0,0,1-.02642,0,6.06269,6.06269,0,0,1-.05658,2.5625c-.00982.0508-.01952.1006-.02742.1465-.0683.2481-.1611.5596-.2568.8809-.0146.0469-.0293.0957-.043.1445-.0293.0947-.0585.1943-.08778.294-.00492.0175-.00982.0322-.01272.0478-.02928.0957-.0586.1914-.086.291-.0127.041-.0254.084-.0381.124-.0166.0635-.0341.126-.0517.1875-.0127.0479-.0264.0948-.0391.1416-.0273.0948-.0527.1915-.081.2881h0c-.0352.1358-.07038.2705-.1075.4073v.0019h0l-.0966.3867c-.0049.0157-.0069.0332-.0127.0489-.0313.1367-.0635.2753-.0928.413a17.15116,17.15116,0,0,0-.3467,1.8272,5.55407,5.55407,0,0,0-.0332.873h0a1.53809,1.53809,0,0,0,1.41212,1.2979,1.961,1.961,0,0,0,1.208-.29s-.001-.0176-.00392-.045c-.0029-.0263-.0068-.0625-.0117-.1035a6.481,6.481,0,0,1,.0078-.8183,19.29725,19.29725,0,0,1,.8799-3.9043c.0928-.2217.1387-.4395.1973-.6123a3.97847,3.97847,0,0,0,.0781-2.9112A3.05315,3.05315,0,0,0,84.3272,22.9785Z" fill="#34b3d1" stroke="#000" stroke-width="0.8"/><path d="M81.46,26.3692l-.042-.0059c-.07718-.0078-.1563-.0166-.2344-.0273-.5625-.0703-1.1494-.1729-1.6367-.1875a1.62074,1.62074,0,0,1-.20608-.0137,4.8694,4.8694,0,0,1-1.21092-.2832l-1.7432-1.1133a2.77466,2.77466,0,0,0,.0186,2.1201,3.49911,3.49911,0,0,0,3.0449,2.0186c.4219.0644.8633.1064,1.3125.1494.1377.0127.2774.0283.418.043.4775.0498.9629.0986,1.4209.1718.0293-.1377.0615-.2763.0928-.413.0058-.0157.0078-.0332.0127-.0489.0302-.1289.0644-.2578.0966-.3867v-.0019c.03712-.1368.0723-.2715.1075-.4073.1328-.4853.2685-.9463.3964-1.374C82.6934,26.4961,82.0694,26.4317,81.46,26.3692Z" fill="#34b3d1" stroke="#000" stroke-width="0.8"/><path d="M79.0371,19.7813a1.3598,1.3598,0,0,0-1.52728,1.1513c.02248.0264.04388.0547.06638.0831.09962.1113.1895.2168.2744.3212.1104.1338.211.2647.3047.3995a5.379,5.379,0,0,1,.3486.5498.21807.21807,0,0,1,.041.1074c.0088.0127.0235.0303.0313.0439a.03779.03779,0,0,1,.0029.0176l.002.002a22.33631,22.33631,0,0,1,.3291,2.5078,4.156,4.156,0,0,0,.43062,1.1699,1.62074,1.62074,0,0,0,.20608.0137c.4873.0146,1.0742.1172,1.6367.1875.0781.0107.15722.0195.2344.0273.00682-.375.0371-1.0234.041-1.5996.001-.0879.001-.1719.001-.2598a11.06039,11.06039,0,0,0-.1846-2.5,3.337,3.337,0,0,0-.6269-1.33A2.48144,2.48144,0,0,0,79.0371,19.7813Z" fill="#34b3d1" stroke="#000" stroke-width="0.8"/><path d="M101.6729,44.3916a6.106,6.106,0,1,0-6.1084-6.1045A6.106,6.106,0,0,0,101.6729,44.3916Z" fill="gray"/><path d="M102.252,35.9395v.2578c0,.0234.0127.04.0224.04h3.7696c.0127,0,.0254-.0166.0254-.04v-1.626c0-.0234-.0127-.04-.0254-.04h-3.7696c-.0097,0-.0224.0166-.0224.04v.3272h.50582v1.0449Z" fill="#e5e5e5"/><path d="M101.1563,34.8887v-.3174c0-.0234-.0078-.04-.0176-.04H97.3809c-.0098,0-.0166.0166-.0166.04v1.626c0,.0234.0068.04.0166.04h3.7578c.0098,0,.0176-.0166.0176-.04v-.252h-.52248V34.8887Z" fill="#e5e5e5"/><path d="M99.9434,39.5498s1.0293-1.9521,1.2939-2.3056l.0157-.7364c-.0928-.041-2.16118,2.5987-2.16118,2.5987a1.87,1.87,0,0,0-2.44242,1.4111,1.9552,1.9552,0,0,0,.9795,1.668,4.20283,4.20283,0,0,0,2.418.8926c.83692.0859,1.00292-.6758,1.0674-1.0762A2.33263,2.33263,0,0,0,99.9434,39.5498Zm-2.1709.3282a2.41643,2.41643,0,0,1,2.8066,1.6709A2.46041,2.46041,0,0,1,97.7725,39.878Z" fill="#e6e6e6"/><path d="M102.2627,37.2764c.45712.749,1.2246,2.2734,1.2246,2.2734a2.33,2.33,0,0,0-1.1699,2.4522c.0615.4004.2295,1.1621,1.06642,1.0762a4.20535,4.20535,0,0,0,2.418-.8926,1.95741,1.95741,0,0,0,.97948-1.668,1.8703,1.8703,0,0,0-2.4424-1.4111s-1.2988-1.6182-1.9453-2.3838c-.082-.0957-.0742-.1094-.1309-.1719m.586,4.9981a2.4204,2.4204,0,0,1,2.8095-1.6709A2.46258,2.46258,0,0,1,102.8487,41.5489Z" fill="#e6e6e6"/><polyline points="100.564 35.105 101.681 35.105 101.681 35.732 100.564 35.732" fill="#e5e5e5"/><polyline points="103.297 35.732 102.263 35.732 102.263 35.105 103.297 35.105" fill="#e5e5e5"/><path d="M101.416,34.334h.6016a.0371.0371,0,0,1,.0371.0371v2.7568a.0401.0401,0,0,1-.0401.0401h-.5986a.04.04,0,0,1-.04-.04V34.374A.04.04,0,0,1,101.416,34.334Z" fill="#e5e5e5"/></g></g></svg>