<svg xmlns="http://www.w3.org/2000/svg" xmlns:xlink="http://www.w3.org/1999/xlink" viewBox="0 0 166.88328 289.56233"><defs><linearGradient id="linear-gradient" x1="-272.64235" y1="-111.5883" x2="-276.75588" y2="-97.60468" gradientTransform="matrix(0.52051, 0.50418, -1.87453, 0.14001, 70.59513, 253.39724)" gradientUnits="userSpaceOnUse"><stop offset="0" stop-color="#fff"/><stop offset="1" stop-color="#fff" stop-opacity="0"/></linearGradient><linearGradient id="linear-gradient-2" x1="163.04329" y1="-40.98763" x2="158.92994" y2="-27.00465" gradientTransform="matrix(0.52059, 0.96354, -1.87457, 0.26753, -21.61616, -57.48539)" xlink:href="#linear-gradient"/></defs><title>MAESTRO-Pe06-rapport-mouflage-13</title><g id="Calque_2" data-name="Calque 2"><g id="Calque_1-2" data-name="Calque 1"><line y1="23.39885" x2="120.9726" y2="23.39885" fill="#fff" stroke="#000" stroke-miterlimit="10" stroke-width="0.64245"/><line x1="60.4863" y1="23.39885" x2="60.4863" y2="52.86785" fill="#fff" stroke="#000" stroke-miterlimit="10" stroke-width="3.21226"/><path d="M57.3236,1.44531a17.83718,17.83718,0,0,0-4.62354,10.60645H51.08483A17.228,17.228,0,0,1,55.8446,1.56348H49.52135V.2041H57.3236Z"/><path d="M61.42126,5.15039H59.53405V3.26367h1.88721ZM59.53405,10.165h1.88721v1.88672H59.53405Z"/><path d="M68.90075,12.05176H67.45592V3.417H64.32848V2.26074c1.64893,0,3.14453-.4248,3.46729-2.26074h1.105Z"/><line x1="61.48905" y1="191.59595" x2="48.0915" y2="213.04715" fill="#fff" stroke="#000" stroke-miterlimit="10" stroke-width="3.21226"/><line x1="95.92155" y1="140.48015" x2="86.58615" y2="163.98515" fill="#fff" stroke="#000" stroke-miterlimit="10" stroke-width="3.21226"/><path d="M66.65835,197.20925a13.87085,13.87085,0,0,1-13.85443-13.856,14.15435,14.15435,0,0,1,.123-1.85895c.00958-.05715,6.58963-45.36615,11.2815-77.5254l4.42393.646c-4.692,32.15625-11.272,77.46525-11.272,77.46525a9.38739,9.38739,0,0,0,17.8755,5.0919l.0498-.12015,9.216-23.874,4.1697,1.6128-9.33688,24.16545A13.8934,13.8934,0,0,1,66.65835,197.20925Z" fill="gray" stroke="#000" stroke-linecap="round" stroke-width="0.64245"/><path d="M51.1017,273.33275H46.6311V62.24735a13.85483,13.85483,0,0,1,27.70965,0c.003.09885.0432,3.42915-1.2831,12.21825-.3999,2.6484-1.3821,9.3354-2.67345,18.15825L91.4106,136.0286a9.39047,9.39047,0,0,0,16.81635-.68265l20.2545-51.87885,4.16447,1.62585-20.29532,51.9771a13.85687,13.85687,0,0,1-24.8826,1.0635l-.1458-.2769L65.7627,93.33425l.09885-.6783c1.341-9.16695,2.36565-16.1382,2.77665-18.85695a86.56542,86.56542,0,0,0,1.2333-11.5188,9.38493,9.38493,0,1,0-18.7698-.03285Z" fill="#34b3d1" stroke="#000" stroke-linecap="round" stroke-width="0.64245"/><rect x="106.34379" y="95.40266" width="36.11561" height="9.71322" transform="translate(-14.24762 179.65745) rotate(-68.66429)" fill="url(#linear-gradient)"/><rect x="41.77142" y="201.35765" width="13.41943" height="21.79545" fill="#fff" stroke="#000" stroke-miterlimit="10" stroke-width="3.21226"/><rect x="56.53887" y="91.26413" width="21.79506" height="13.41924" transform="translate(-39.10977 150.83621) rotate(-81.84807)" fill="#fff" stroke="#000" stroke-miterlimit="10" stroke-width="3.21226"/><path d="M51.1062,62.24735a9.37973,9.37973,0,1,1,9.3801,9.37935A9.381,9.381,0,0,1,51.1062,62.24735Z" fill="#fff" stroke="#000" stroke-miterlimit="10" stroke-width="3.21226"/><path d="M57.279,183.35615a9.3798,9.3798,0,1,1,9.3801,9.3795A9.38181,9.38181,0,0,1,57.279,183.35615Z" fill="#fff" stroke="#000" stroke-miterlimit="10" stroke-width="3.21226"/><path d="M90.30465,133.1297a9.38,9.38,0,1,1,10.90935,7.5468A9.37967,9.37967,0,0,1,90.30465,133.1297Z" fill="#fff" stroke="#000" stroke-miterlimit="10" stroke-width="3.21226"/><path d="M62.66464,276.06233a13.49868,13.49868,0,1,1-13.5-13.5A13.50281,13.50281,0,0,1,62.66464,276.06233Z" fill="#686166"/><path d="M42.84988,269.51828l-.00265-.00463C42.8492,269.53093,42.84988,269.52889,42.84988,269.51828Z" fill="#d9d9d9"/><polygon points="42.224 284.802 42.229 284.803 42.231 284.796 42.224 284.802" fill="#d9d9d9"/><path d="M45.81587,270.3761c.00537.0013.00932.006.014.008h.00062Z" fill="#d9d9d9"/><path d="M56.13855,270.38672s.07709-.13023-.06375-.105a16.08751,16.08751,0,0,1-2.07571.18336c-.06116.28569-.19139.45579-.24187.7176a1.46245,1.46245,0,0,0,0,.3721.80244.80244,0,0,0,.72821.186A2.56245,2.56245,0,0,0,56.13855,270.38672Z" fill="#d9d9d9"/><path d="M52.18383,273.73814c.11825.09566.35081.1701.40136.34285a1.03093,1.03093,0,0,1,.01858.25514c1.02057-.101,2.2245.03456,3.21854-.10369a5.08354,5.08354,0,0,0,.80265-.13288,5.64737,5.64737,0,0,0,1.2996-2.11558c-.03191-.18336-.27243-.41061-.38007-.5262a2.62357,2.62357,0,0,1-.49831-.59534c.04055-.1256.07042-.2465.11295-.40659.35618-1.33022.085-2.83318-1.22524-2.71493a1.38268,1.38268,0,0,0-.87966.38938c-.06382.06375-.117.206-.19139.25378-.09566.06246-.21922.04123-.32421.09036a2.09827,2.09827,0,0,0-.65119.80666,2.02939,2.02939,0,0,0-.28433.78135c-.01334.07178-.06913.1754-.09437.25385a.97191.97191,0,0,1,.62854.02259,13.17,13.17,0,0,1,.804-1.40594c.44246.081,1.09229-.67113,1.41656,0a3.04627,3.04627,0,0,1-.0213,1.33946c-.04715.65249.28107.46117.495.47709a5.87024,5.87024,0,0,1-.85783,1.099,2.58541,2.58541,0,0,1-1.49364.804c-1.2438.15547-1.64781-1.15345-1.2438-2.32153-.19936.02388-.30032-.10635-.53553-.07178-.87572.13022-.88239.35611-1.33954.94219-.194.24977-.37074.50362-.5754.73747A3.86621,3.86621,0,0,0,52.18383,273.73814Z" fill="#d9d9d9"/><path d="M60.6833,275.36868c-.26977-.46116-1.55474-2.89033-2.02788-2.784-.24181.05314-.37469.52485-.501.73617a6.8354,6.8354,0,0,0-.64718,1.19863c-.04783.388.25779.52893.36148.75611a2.52887,2.52887,0,0,1,.2299.55683c.03055.16478-.0332.2844,0,.41061a10.22267,10.22267,0,0,0,1.01656,1.68367c.09968.19139.09036.38142.226.52893.2631-.44123.61921-.79469.88368-1.24122.19928-.35346.38135-.74815.55281-1.10562.04252-.093.05184-.2644.1156-.3242C60.93443,275.74207,60.70058,275.40188,60.6833,275.36868Z" fill="#d9d9d9"/><path d="M50.944,273.9428c-.29372-.4864-.51961-1.0073-1.23054-1.03391-.1688.34754-.66976,1.04317-1.083,1.74083-.01333-.014-.03191-.03783-.04388-.04919.0053-.03851-.03055-.07042-.04117-.09961.004.01993-.01864.03184-.028.01993-.05314-.07443-.01456.008-.08369-.06116a2.38536,2.38536,0,0,1-.34815-.51158c-.06913-.016-.07974-.08906-.13158-.113l.00932-.00266c-.04389-.0332-.1967-.30562-.24719-.34815l.00266.01334c-.02654-.01334-.02919-.02592-.02858-.04055a.04771.04771,0,0,1,.00068-.0166l-.002.002a.07206.07206,0,0,0-.002-.04055.05055.05055,0,0,1-.03586.01265l.004-.018h-.00136l.01728-.01327a2.24722,2.24722,0,0,0-.15948-.45313c.00932-.00932.01333-.00265.01333-.00265a.52592.52592,0,0,0-.07443-.10635c.00666-.01993.02789-.02789.03721-.03585-.024.01462-.13818-.2033-.13022-.21133l-.05851.02926c-.01994-.04117.0598-.04654.0266-.07838-.0877.02122-.0266-.06648-.07178-.05716a.03784.03784,0,0,1,.02129-.0332c-.04653.01327-.01864-.01728-.03456-.024-.01463.00531-.01061.01062-.02395.01994l-.02919-.02259c.01062-.01327.03185-.02926.04382-.0213a2.4643,2.4643,0,0,0-.21262-.50627c-.02653.02259.00667.03586-.03722.07307-.04116-.0053-.0066-.03456-.04252-.02918.07314-.04525-.00395-.0545.06777-.10764l-.04783.01456.02129-.02123c-.09171-.06913-.03055-.012-.06647-.09566-.02524-.03987-.09566-.03191-.089-.06913,0,0-.01728.02524-.03456.02123.03456-.02123-.04123-.01857-.00667-.04252-.012-.01191-.02653-.04783-.07042-.01062.0213-.01993.01728-.05844.04919-.05177-.00666-.012-.0053-.02661-.01728-.028l-.00932.0213c-.0266-.03586.004-.07573-.05314-.07709l-.01728.0266c-.012-.02259-.02524-.03592.01728-.07314l.03321.016a.16321.16321,0,0,0-.07974-.07845l.00136.01334c-.07042-.016-.22324-.2033-.30032-.20867l-.03191.03592-.05049-.01068a1.21342,1.21342,0,0,1,.12621-.04382.81969.81969,0,0,1-.11158-.24317c.01061-.03987.06375-.03456.06375-.03456-.02524-.02926-.04518.004-.0545-.024l.03722-.01327c-.008-.01061.00265-.02925-.01857-.01728-.00933.0213-.05586.03858-.08641.05981l-.01259-.03253.00333-.004.02654-.01266-.01858.00334c.00395-.0066.01062-.00864.01327-.0166a.1399.1399,0,0,1-.08368-.00334l-.00667-.00333a.31755.31755,0,0,1-.01592-.05048.51436.51436,0,0,1-.01729-.06246.17321.17321,0,0,0-.03191-.06512.06657.06657,0,0,1,.0279.00136l.008-.02258c-.02653.02653-.03055-.016-.03987.00394l-.00925-.00394s-.00667-.00531-.004-.01069l-.00265.008-.008-.00265c.00531-.00265-.02259-.0266-.016-.03191-.01191-.01327-.0332-.04783-.0345-.0266,0,0-.01864-.04253.0013-.0279a.1092.1092,0,0,1-.01592-.02123l-.00136.00926c-.02654-.02919-.03457-.05314-.06376-.06512l.0066.01463c-.01462-.01728-.03585-.02524-.03456-.04252l.028.01061a.30927.30927,0,0,0-.07906-.04382l-.016-.004a.58905.58905,0,0,1-.04055-.0611c.00933-.09437-.64711.05981-.73215-.04517l-.06512-.07444-.24983.03919a.66773.66773,0,0,1-.01994-.27705c-.04518-.01728-.01864-.05579-.05314-.07443l.01456.00136a.481.481,0,0,1-.02054-.14887,1.38217,1.38217,0,0,0,.35012-.24052,2.11514,2.11514,0,0,0,.44388-.61c.04783-.06375.05314.01463.05845.01728.02395-.10233-.01858-.05715.01326-.13818.01334-.01994.02395.01327.02259.02925.00932-.03857.03062-.06647.01728-.07579-.02789.04252-.05715.004-.09035.00932a.7078.7078,0,0,0,.03456-.10233l.02395.01592a1.21456,1.21456,0,0,1,.00531-.30032,1.20261,1.20261,0,0,0-.00265-.44646c.01326,0,.02918.03851.04252.07974,0-.0279-.012-.06648,0-.08907-.0213.04784-.02926-.07838-.03456-.04252a4.51176,4.51176,0,0,0-.31631-.3721,1.57223,1.57223,0,0,0-.27243.05184.77955.77955,0,0,0-.05708-.15948c.19663-.11825.38135-.24983.37074-.42789l.02259-.01191-.03722-.05184c-.03456-.07178-.081-.07709-.05981-.08906l.06512.08375c-.03987-.06647.00265-.03327.02789-.01864a.41468.41468,0,0,1-.04116-.07974c-.01864-.008-.00136.01463,0,.03062a.52131.52131,0,0,1-.109-.10233c-.0545-.05981.02524-.03457-.03585-.10764a1.75611,1.75611,0,0,0-1.25048-.63391c-.01061-.012.00129-.01062.01728-.01592a1.57253,1.57253,0,0,0-.396.04647.14967.14967,0,0,1-.06116-.02919c.01061.0066-.16343.04912-.32822.13553a2.00741,2.00741,0,0,0-.31359.18738l.01456.05579c-.10764.08376-.0664-.02524-.15547.07042.00266.0877-.15281.15819-.15812.21929,0,0-.04517.04517-.05715.02789.01864.04253-.0332.06382-.05048.10233-.00136.01728.01592-.00129.0332-.004-.01592.028-.02259.0545-.04252.08777-.02259.02259-.04647.02122-.03191-.01865a2.02788,2.02788,0,0,0-.291.81728,2.15668,2.15668,0,0,0,.08906.9209c.01728-.03987-.0279-.12091.012-.16343.03586.0664.01722.10763.05049.13022-.05185.05049.03456.16207,0,.23916l.04252.008-.00667.04524c.18337.279.15949.004.30434.2644.101.13825.198.13955.24181.22194-.004-.01327-.01592-.05579.02129-.02926-.01864.02926.04783.05321.04117.09437a.33047.33047,0,0,1,.03592.14683c.00728.03722.08171.11029.02259.08307.02919.02525.05715.05716.08368.0611l-.03721-.04116c.109.07838.16084.14614.24983.15016l-.03054-.04389c.06245.04253.1209.06512.13689.11832l-.0811-.02129a.84588.84588,0,0,0,.21792.07042.0657.0657,0,0,0,.01068.02524.11049.11049,0,0,1-.03857.01728c.02259-.0066.04783.11961.04123.12363l.04647-.00667c.00265.02524-.05178.01463-.03722.03721.07049-.004-.00265.03586.03722.03586-.0066.00265-.0066.01334-.02654.016.03722-.004.01062.01191.01858.01592.01061.00136.012-.00265.02395-.008l.01857.01327a.3223.3223,0,0,1-.03722.016.71214.71214,0,0,0,.01865.279c.02653-.00667.00265-.01728.04647-.02926.02789.00538-.004.016.01993.01729-.04313.01-.04116.01993-.0498.03123a2.38644,2.38644,0,0,0-.52825.21731l-.05184.008.00932.02926c-.02525.04252.03857.04783-.01463.05579l.004-.05185c-.01463.04123-.04123.01728-.07572.01062a.06965.06965,0,0,1-.028.04919c.02266.004.02395-.008.03858-.01728.01993.01728.07042.03191.04783.06246-.00136.03857-.08641.01993-.0877.06912l-.002.0166-.02062.00994-.04654-.03586a.07348.07348,0,0,1,.01865-.02259c-.01334-.01061-.03722.004-.03593.02525l.03722.03054c-.01191.03858-.03055-.0119-.04647.01865-.03457-.024-.01864-.05586-.00531-.07845-.0213.01728-.05715.01993-.03062.05055-.02789.01062-.03721-.03191-.06511-.01993-.004.02258.00932.06375-.02388.06776l-.008-.00667c-.04518.01463-.028.05845-.03722.09437-.01864.01728-.01463-.00666-.03191.01728H42.515v-.00666c-.02661,0-.02926.04783-.06512.0545l.01994.00394a.08937.08937,0,0,1-.016.03593c-.01592.01592-.02388.03585-.05314.03851l.01062.04388c-.08635.093-.18337.2631-.26045.36673l.00136-.008a6.65966,6.65966,0,0,0-.45845.65915c-.04524.00265-.06647.03715-.09436.05443.02122-.004.04116.01864.02524.03062-.06246.07436.01993.02388-.03055.10893a2.28609,2.28609,0,0,1-.45184.485c.008.07573-.07042.10369-.07573.16608l-.008-.0119c-.01994.05715-.26712.28038-.29637.34413l.012-.00129c-.00531.0664-.05048.02259-.093.04252a.11973.11973,0,0,1,.03722.11825l-.012-.01326a.66614.66614,0,0,1-.03456.15941l-.02259-.02388c.004.05579-.05579.10362-.07443.12757-.05314.03987-.15948.07974-.18207.17676l-.11424-.01993.00531.01456s.03851.03327.10233.08375l-.008.01592-.00538-.008a.60632.60632,0,0,0-.02388.12894l-.012.01456a.5193.5193,0,0,0,.00136.12491.60655.60655,0,0,0,.02653.12492l.01463.00266c.01728.04252-.01592.01728.00667.0598.02789.008.0332.06185.04912.07444a1.3431,1.3431,0,0,0-.02259.30433c-.01061.004-.0119-.00136-.0119-.00136.00925.03592.0066.06913.01857.10369a.05913.05913,0,0,1-.03987.02259c.02395-.00531.03586.20194.02926.20194l.05184-.0013c0,.03722-.05851.01728-.04252.05185.06906.008-.004.0611.03184.07307a.03456.03456,0,0,1-.0279.01728c.03586.00266.00933.01592.01994.02654l.0213-.008.01326.0266-.02925.01327a1.52639,1.52639,0,0,0-.01327.45449c.02123-.00932.00265-.03191.04783-.04517.0279.01857-.00667.0332.01728.03721-.06246.01191-.00932.04253-.07838.06246h.03715l-.02259.01721c.04654.07709.01994.01334.01463.09043.00932.04252.06117.05844.04518.08239,0,0,.01864-.012.02925-.00136-.02925.00136.02395.0266-.00932.03456.00531.00933.00266.04913.04783.03055-.02258.00531-.02918.03987-.04912.01858-.00136.01463-.00531.0266.00129.03721l.016-.01592c.004.03321-.02524.0558.01463.07444l.01592-.01463c.004.02259.00932.03987-.03722.05048l-.01326-.01993a.14613.14613,0,0,0,.03456.0877v-.01061c.04783.03191.089.22854.14744.25915l.03327-.01993.03055.02653-.10362-.008a2.9682,2.9682,0,0,1,.03184.4598c-.01728.02654-.05579.0066-.06375.01062.01462.02524.03851.00531.03721.03055-.004.00932-.02789,0-.02789,0-.00136.012-.008.024.00394.01993.01327-.01592.0545-.01326.08376-.02123l-.00265.03185-.02661.00272s.07573.00925.05981.04518a1.16281,1.16281,0,0,0,0,.16744.051.051,0,0,1-.03593-.0213s.00273.01858-.00925.01994c.0279-.012.02259.02259.02259.02259.07974.02129.01993.081.0664.11294l.099-.00265c-.06443.15349-.17071.4153-.20262.52627l-.04517.01191c.01592.03327-.01327.0532-.004.09573-.01061.01592-.0332.00265-.03585-.008.008.03722-.03191.06116-.01593.0877l.01327-.00129c.01592.0611-.08239.0598-.06647.12621h.00667c.01326.03191-.03191.04388-.04783.05851.00265.03456.04116.01994.04912.04647-.04253-.004.1954.17275.19139.19534.012-.02388.03055-.05049.06375-.0345-.01456.02919.30039.11955.27379.15146l.09967-.0066c-.01728.008-.01993.04116,0,.04783-.00666-.004-.00136-.01994.0013-.03593l.62459.09839c.06511-.02926.02395-.12227.1143-.14486.01061.01728.01592-.03191.03851-.004-.00531-.01327.00136-.02388.00265-.03851-.01728.01327-.02789.02259-.04919.01857a1.97127,1.97127,0,0,0,.07049-.21792c-.00136-.04783.089-.04117.089-.04117l-.03191-.00932.012-.04388c.02789.02129.07974.03191.08906.05184.01858.004.008-.012.008-.02524l-.02789-.004c.00666-.03321.09967-.10764.12621-.1422,0,0-.04913.01068-.06376-.02654.00334-.07838-.27841-.58336-.319-.75549l.02259-.00062c.00136.01062.00136.02389-.0066.02654a.02671.02671,0,0,0,.01327-.04116l-.03191.00462-.00129-.00394c-.002-.012.01925-.00735.01728-.02729.03055-.008.03449.01592.03851.03858.004-.01993.02259-.03858-.008-.04654.01061-.01463.03585-.00265.04919-.024-.01068-.01326-.04123-.02919-.02266-.04517l.00272-.00266c.03184-.04252-.04919-.05715-.016-.101l.00932.004c.01593-.01456-.00666-.0398.01062-.06375,0,0-.03055.01463-.03191,0,.01864-.0279-.004-.04389.02129-.06648l-.03456-.01857c.00136-.09437-.05844-.47443-.06913-.56873l.008.00265a4.48091,4.48091,0,0,0-.08239-.59669c.02789-.02661.02123-.05981.02524-.085-.012.01864-.0332.01327-.03191.00136.004-.07443-.01993-.00136-.0332-.07709a1.41669,1.41669,0,0,1,.00531-.50232c-.0492-.03722-.01865-.09036-.04253-.13159l.00531.00266c-.01592-.03851.01327-.29366-.00531-.33747l-.004.00265c-.02919-.03987.01728-.03987.03061-.07443a.078.078,0,0,1-.08375-.04124l.00932.00137a.24623.24623,0,0,0-.02926-.04981,2.22531,2.22531,0,0,0,.35081-.33822c.016.008.01068.01062.01333.01858.01994-.05049.05314-.08505.07573-.13288a.29837.29837,0,0,1,.05185.01728c-.02926-.012.14349-.22725.15281-.22459l-.04388-.04117c.02925-.04123.06382.03457.07974-.01061-.05314-.07178.06116-.05715.03721-.09968a.03636.03636,0,0,1,.03987.0066c-.03191-.03585.00667-.02524.00531-.04381-.004-.01334-.00932-.00667-.02524-.01463l.00932-.03851c.01993.00265.04382.01857.03851.03449a3.36146,3.36146,0,0,0,.42122-.44782c-.03585-.01463-.03715.02129-.0877-.00266-.008-.04116.03062-.02259.01334-.05177.07307.04381.05048-.03593.13152.008l-.03055-.03593.02925.00667c.01463-.05912.01463-.06647.01926-.06845a.61463.61463,0,0,0,.01531.10036c.05579-.0332.01592-.06246.101-.093.05314.02388-.01326.05049.04253.05579-.13288.04117-.02524.081-.15547.13424l.07444-.00666-.04525.02925c.08906.13553.03987.02654.03592.16078.01858.07974.12492.09035.089.1422,0,0,.04654-.03191.06783-.016-.06783.016.05049.03987-.012.06511.008.01728.008.08375.09164.03987-.04252.02259-.05579.08239-.0996.05586-.00136.02123-.00932.04382.01061.05178l.02259-.03055c.01728.06116-.05048.11029.03722.13689l.03456-.03191c.00925.03456.01857.07042-.06913.10369l-.03456-.03722a.20355.20355,0,0,0,.07178.1435V274.267c.09566.0492.20466.388.31624.42395l.06777-.03722.06116.04117c0-.00933-.22459.01993-.20064.00932a4.43134,4.43134,0,0,1,.08634.81326.11507.11507,0,0,1-.11029.03191c.01857.04647.06647.008.06246.0545-.012.01592-.05715.00925-.05715.00925s-.02388.03456.01326.02926c.0213-.02661.10764-.03457.16214-.05845l-.00129.05845-.05586.01061c0,.01061.15152.00265.12757.06117a.41557.41557,0,0,0,.002.06375l-.1854-.008c.00265-.01592.008-.03191.01728-.03586a.0359.0359,0,0,0-.02926.05178l.05981.008c.01864.03715-.03586.0066-.03321.04517-.04919,0-.05579-.03721-.06116-.06912-.008.03055-.04253.0545.00932.06912-.02259.02389-.0611-.00537-.08369.02389.01463.024.05579.05851.02919.08239l-.01191-.00129c-.05184.05844.07172.10362.01858.15941l-.01728-.01061c-.03055.01864.00265.06246-.0279.101.008-.01191.04654-.01994.05048.004-.0332.04388-.00265.07573-.04517.101l.04654.03327c-.016.14751.02388.58737.02258.73617l-.008-.00667a7.22758,7.22758,0,0,0,.081.94886c-.05185.03185-.04253.0824-.05845.11955.02123-.02123.05049-.008.04913.00667-.00926.11695.03055.00932.04919.12757a2.35128,2.35128,0,0,1-.101.776c.0664.06913.00925.14621.04912.21133l-.01728-.008c.02395.07307-.07042.45442-.04518.53416l.008-.01061c.03987.07042-.03714.05845-.06245.11029a.11854.11854,0,0,1,.12226.08376l-.01857-.00137a.87185.87185,0,0,1,.08368.17275l-.04518-.0053c.00933.00993.00667.024.01069.03585-.01933.008-.04123.01933-.03457.03191l.05049.02062-.00068.02061c-.01259-.00068-.0279-.004-.03252.01858-.05321-.01592-.05056-.05314-.0479-.085-.01327.0266-.05709.03851-.00531.06913-.0279.01857-.06246-.024-.0943.00129.00925.02524.05048.06777.01191.08239l-.00926-.0053c-.06912.04252.06906.02259,0,.0598l-.01333-.01326c-.03586.00925-.008.06239-.05178.08368.01463-.004.05443-.00136.05314.01994-.04389.02925-.02395.06776-.07042.08368l.04116.03987c-.05715.13955-.16479.69638-.2033.83456l-.00667-.00531c-.04252.21793-.35611.61922-.35876.85844-.05851.01592-.06246.06511-.0877.09566.02388-.0119.05715.00932.05048.0213-.03851.10362.03191.01592.01728.13288a1.491,1.491,0,0,1-.2352.59c.05184.07708-.02525.13417.00129.21l-.01592-.01333c.00531.06912-.1754.40135-.1754.47973l.01592-.00394c.02524.07436-.05178.04116-.09036.085a.13293.13293,0,0,1,.10635.11029l-.016-.008c.00265.03586-.18473.10492-.18867.16343l-.04518-.01864c.03191.05586-.01463.13158-.01864.16349-.04253.06376.03857.22058.06647.33489l-.14485.01857.01061.01463s.20269.0824.46708.18l-.19595-.03184c-.03123.18-.17547.81659-.18608.984l-.05178.02654c.0345.04123-.00136.07178.02259.12226-.008.02525-.04388.01062-.04919-.004.02524.04654-.01864.08641.00394.11566l.016-.008c.04518.07708-.0864.09573-.04123.17411h.00538c.02789.0332-.02661.0598-.04253.08239.01592.04116.05709.01327.077.04518-.05443.008-.02524.04123-.02259.07974.012-.03722.02661-.07573.07178-.06913-.00932.04654.05049.01728.02661.05851l-.06117-.0053c-.01592.01721-.008.0611.008.06246l.00266-.04253,1.7249.10893c.07838-.05048,1.4684.04253,1.58134-.01327.016.02123.00667-.04388.05185-.01333-.0213-.01191-.01062-.03184-.00932-.04252-.01729.016-.03722.03592-.05981.03456.00265-.09832-.19-.33489-.198-.43184-.01728-.05715.10233-.06117.101-.07443l-.04253-.004-.79332-.25181c.02524.002.01333-.01728.0213-.03653-.01327.00666-.04518.01728-.05314.00265-.00136-.04654.03449-.00932.05048-.05981,0,0-.0598.02661-.0877-.01592-.014-.08239-.3887-.31032-.57676-.46912.0047-.00531.00667-.01327.016-.01463-.01334-.0119-.016-.00129-.028-.00265-.01191-.01728-.04117-.05443-.01729-.06641.01069-.0266.06913.02123.08505-.012.097-.17676.02531-.41857.07444-.60731.01864.00136.01728.00531.01728.00531a1.59186,1.59186,0,0,0,.03055-.16207.391.391,0,0,1,.06912,0c-.03851-.00272.0558-.299.06777-.30039l-.07974-.02789c.016-.05716.093.00932.09437-.04117-.105-.06116.03987-.085-.01327-.12226a.05156.05156,0,0,1,.05178-.01062c-.05715-.02524-.004-.03055-.01191-.04783-.01463-.01333-.0213-.00265-.03987-.00265l-.008-.04123c.0213-.01327.06117-.004.05981.01463a3.018,3.018,0,0,0,.26582-.64052c-.05184,0-.03191.04253-.105.02926-.02926-.03858.02919-.03456-.008-.06382.109.0266.04253-.04919.15554-.03055l-.05852-.02789.04123-.00266c-.02129-.13825-.01864-.03721.02919-.13954.012-.06246-.06109-.12227-.01857-.14084,0,0-.04518.00265-.05579-.01864.05579.01864-.02395-.0545.03184-.04518.00136-.01858.02395-.06648-.05715-.07307.03858.00394.06912-.03321.09171.00129.00932-.01463.02661-.02524.01062-.04117l-.02388.01062c.00394-.0545.16213-.13288.10892-.186l.05321.15942c.008-.03321-.07845-.21262-.00531-.19663l.01456.03851a.20211.20211,0,0,0-.00394-.13955l-.008.01463c-.05321-.07838.06906-.2312-.00538-.31094l-.0611.008-.0332-.05844a1.14431,1.14431,0,0,1,.15145.07572,4.51711,4.51711,0,0,1,.19071-.61595c.00334.00069.01062-.00061.00463.0047.01334-.00667.03191-.008.03722-.01994l-.02259.00531c.018-.01.022-.018.03592-.02456a.18435.18435,0,0,1,.05314.02055.04669.04669,0,0,0-.02129-.04314c.0053-.004.016-.00735.01993-.01333a.23606.23606,0,0,0,.02395.01129c-.00531-.014.002-.01994-.00531-.02722.01327-.00932.02593-.02326.04117-.02061l-.02388.02789a.27713.27713,0,0,0,.0877-.09831l-.01334.01463a.94576.94576,0,0,0,.0877-.18071.35992.35992,0,0,0,.02259-.18738l-.01721.01994a.16344.16344,0,0,0-.01068-.04389l.04517.03191c0-.01061.00136-.02789.00266-.04783l.01333.00129-.00136-.02918c.02395-.03062-.02388-.0479.01994-.04525l-.00933.04525c.01334-.03062.03457-.00538.05852.01061a.06969.06969,0,0,1,.02259-.03858c-.01327-.008-.01592.00136-.02661.00667-.01326-.01592-.05313-.04518-.03055-.06375.00667-.03457.07042,0,.07974-.03987a3.24376,3.24376,0,0,0,.10764-.60337c.02259-.00265.01858.004.01858.004-.008-.0545.00265-.11294-.01062-.16874a.304.304,0,0,1,.06648-.024c-.03858.01062-.02259-.31229-.01069-.31358l-.07967-.012c.00265-.06116.089-.012.07437-.07178-.10628-.02789.01864-.089-.04117-.1156a.05609.05609,0,0,1,.05185-.02394c-.06246-.01062-.012-.02919-.0266-.04518-.01858-.008-.01858.00136-.03851.0053l-.01729-.03987c.01858-.01061.0558-.01326.0611-.00129a3.955,3.955,0,0,0,.07444-.402c.07572.09566.1654.24181.24187.26113l.05178-.03721.05851.03054a.99579.99579,0,0,1-.17411.01729,3.65363,3.65363,0,0,1,.1754.68038c-.02388.04116-.09035.02925-.09035.02925.02259.04117.05579.00395.05844.04382-.008.01062-.04647.01062-.05579.00531.01327.01463-.0053.03327.02395.03055.01592-.0279.09036-.0398.13288-.05709l.00531.04913-.04654.00932c.004.00932.13159-.008.121.04518a1.90941,1.90941,0,0,0,.04253.24452.092.092,0,0,1-.07049-.01864c.004.01334.01463.02661-.00266.04253.04389-.03185.03987.02129.05586.004.12492.02524.04117.12886.13288.16077l.07308-.02524a.12065.12065,0,0,1,.00932.03055c.01592.02524.00932.03191.00932.03191s.02721.04253.06239.0877c-.01524.20466-.00592.65052-.01191.776l-.00667-.008c.00137.22323-.21663.683-.17009.91429-.05314.02919-.04919.07974-.06375.11424.02123-.01858.05708-.008.05443.00667-.01858.11559.03327.012.04252.12628a1.44587,1.44587,0,0,1-.101.62853c.06777.06777.004.14084.04518.206l-.01728-.01061c.01993.06913-.08634.42789-.06777.50763l.01062-.01061c.03987.07042-.04117.05314-.07308.101a.14557.14557,0,0,1,.13159.085l-.0213-.00137c.01463.03722-.15546.14486-.15016.19806l-.04381-.008c.04381.05055.0119.1356.01592.16478-.02661.07444.08906.21.13689.315l-.13689.04783.012.01069s.07573.01326.18738.03122a5.6812,5.6812,0,0,0-.09968.5654l-.05184.02661c.03191.04252,0,.07838.02259.12757-.00667.02919-.03987.01462-.05049.00129.02388.04388-.01993.09437.008.12226l.01463-.012c.04116.07709-.0877.10764-.04654.18472h.00667c.0266.03457-.0266.06777-.04783.093.01857.04123.06511.00932.07974.04252-.05586.00933-.02259.04389-.02129.07845.01068-.03592.0266-.07974.07443-.06912-.01062.04517.05048.012.02259.0598l-.05715-.00136c-.01994.01728-.012.05981.00666.05851a.39889.39889,0,0,0,0-.04252l2.44645.1156c.07573-.05716.61656.00136.72958-.06246.01721.01864.01061-.04647.05313-.01728-.016-.012-.00932-.03321-.00666-.05049a.08339.08339,0,0,1-.06376.04116c.00266-.0996.03185-.206.02654-.303-.01592-.06375.101-.08634.101-.08634h-.04124l.00137-.05981c-.13288-.07041-.01729.07975-.19534-.03585.02259.00265-.17813-.101-.16881-.12227-.00932.00531-.03987.01994-.05313.00531.00394-.04654-.29767-.08641-.27107-.1422a1.87612,1.87612,0,0,1-.41462-.19268c-.016-.0724-.26977-.13819-.44586-.208l-.00333-.02456c.02524-.0266-.02524-.04783.01864-.04252l-.01068.04252c.01994-.0266.04252-.004.06647.01062a.05579.05579,0,0,1,.02395-.03191c-.01333-.01062-.01728.00136-.01728.00136-.02395-.01463-.06246-.04253-.03987-.05981.00395-.03191.07171.00531.081-.03055.0545-.19268-.06776-.41462-.05844-.61261.02123.00136.02123.0053.02123.0053a1.12376,1.12376,0,0,0-.00932-.16478.19227.19227,0,0,1,.06783-.01327c-.03722.0053-.00932-.30032.00265-.30964l-.0811-.01062c.00531-.05715.097-.00932.07974-.06382-.11165-.0332.01728-.0877-.03585-.11559a.04681.04681,0,0,1,.05177-.01593c-.0664-.01864-.01326-.03191-.02653-.04783-.01994-.008-.01994.00266-.04252.004l-.01729-.03851c.02123-.01327.05845-.01327.06376.00531a2.84121,2.84121,0,0,0,.12491-.679c-.04912.0066-.01993.04381-.09831.04912-.03722-.03456.01993-.04252-.02388-.05844.11559-.00266.0332-.06117.15016-.07308l-.06246-.012.03987-.00932c-.05185-.13424-.028-.03457-.00272-.13955-.00266-.06777-.08634-.10764-.05049-.13819,0,0-.04116.01327-.05314-.004.05314.004-.03721-.04912.01729-.05048-.004-.01729.008-.07042-.06913-.05981.03858-.0066.05851-.05048.09035-.01728.00137-.01858.01729-.03184,0-.04116l-.02258.01326c-.008-.05314.13294-.16342.06511-.206l.08906.1422c-.00136-.0332-.12226-.18608-.04654-.19268l.01994.03851a.18286.18286,0,0,0-.03184-.13554l-.00667.01463c-.07042-.06776.01857-.23786-.07042-.29766l-.05981.01728-.04388-.04783c-.004.00394.18738.03987.16744.03987a3.47722,3.47722,0,0,1,.06117-.68038c.03585-.03722.09164.00129.09164.00129-.0066-.04518-.04783-.02259-.04116-.05981.01327-.01061.04518.00531.0545.012-.00667-.01728.01463-.0279-.01334-.03055-.02122.01592-.0943-.00266-.14213.00129l.01327-.04382.04518.00531c.00129-.00932-.12492-.03858-.09172-.085.0266-.07307.01864-.16213.03987-.23922.02395.00265.03858.0213.0545.04252.00531-.01326-.00265-.02918.01857-.03585-.05313.01463-.03054-.03722-.05177-.02524a.09028.09028,0,0,1-.03055-.03525c.002-.00462.0066-.01061.00531-.01524l-.00735.01259-.00266-.00265c.018-.04586.03722-.07505.02994-.10832l-.016.01864c.00932-.03456.012-.06116.03191-.07307l.00266.03715a.51964.51964,0,0,0,.00136-.13553l-.004.01728a1.28038,1.28038,0,0,0-.03456-.15547c.00531-.01463.00667-.03055-.00395-.03722l-.00932-.00129-.004-.008a.14834.14834,0,0,0-.01327-.03585.06705.06705,0,0,1,.06647.04783c.0013-.03055.03055-.06641-.028-.06246.01463-.02926.06117-.01592.07845-.05049-.01994-.01857-.0758-.03456-.05185-.06647l.008-.00395c.03858-.07443-.101-.06912-.0611-.14084l.01858.0013c.0266-.0279-.02654-.0545-.00129-.09832-.008.01062-.04389.03184-.05716.01327.02525-.05049-.01333-.07178.01729-.11165l-.05586-.01327c-.02525-.14614-.19133-.52621-.2312-.67106l.008.004a5.89785,5.89785,0,0,0-.303-.8664c.04252-.04783.01728-.093.02129-.13424-.01333.0266-.05449.03327-.05585.01728-.01858-.1156-.03457,0-.08369-.10893a2.07971,2.07971,0,0,1-.12628-.7508c-.089-.03858-.05178-.13424-.11424-.17942l.01722.0013c-.04117-.05845-.06239-.44116-.10492-.50893l-.00537.01061c-.06246-.05313.02129-.06511.02925-.12355a.12678.12678,0,0,1-.15281-.03593l.01728-.00129c-.01864-.02524-.10634-.08375-.13288-.13288l.04783-.01061a.1185.1185,0,0,1-.05449-.07512l.19-.03524a.06366.06366,0,0,1-.01593.0479c.03457-.012.05049-.05321.02654-.06647l-.07573.01061c-.02789-.03987.04253-.02259.03321-.06375a.06769.06769,0,0,1,.09171.05715c.00265-.03191.04783-.07314-.02524-.07314.02524-.0345.07709-.01456.101-.05709-.02123-.01993-.0824-.04388-.05049-.07844l.012-.008c.05715-.0824-.10635-.09036-.04783-.16745l.02259.00137c.03191-.03328-.01729-.06784.01592-.11832-.01062.01463-.05579.03456-.06641.01068.0345-.05851-.00932-.08376.03715-.12757l-.06375-.02395c-.00463-.14288-.099-.59935-.14819-.85647l.02327-.01258a.90068.90068,0,0,0,.05048.08232c-.0053.01068-.01061.00932-.01061.00932a1.32023,1.32023,0,0,0,.093.09968.08494.08494,0,0,1-.02388.04252c.01721-.02259.17275.18337.16873.18867l.04123-.02919c.03055.04117-.03456.05049.00531.07709.05845-.028.03586.06375.07307.05709a.02454.02454,0,0,1-.012.03061c.03456-.016.02395.01592.03722.02123.01462-.00531.01061-.012.01061-.012l.03456.00666a.05383.05383,0,0,1-.01728.03191,2.40383,2.40383,0,0,0,.3123.47573c.012-.02661-.01728-.03457.01061-.07444.03191.00266.01061.03457.03858.01994-.04518.05715.02259.05715-.01994.1156l.03321-.01858-.01463.024c.097.05845.03191.0066.081.08369.03987.04252.09172.03055.097.06382,0,0,.00531-.02531.02525-.01994-.02525.01994.03721.01327.01728.04253.012.008.03191.04783.05586.00265-.00932.02123.00925.0611-.0213.05314,0,0,.008.02388.02395.02925l-.00136-.02259c.02926.03185.0213.07308.07042.07042l.00136-.02129c.01993.01864.03586.03592.0066.06913l-.02524-.01334a.21168.21168,0,0,0,.0877.07178l-.008-.01327a1.03838,1.03838,0,0,1,.2186.13485.96424.96424,0,0,0-.03789.52159,8.74425,8.74425,0,0,0,.62595.73753c.17669.22459.38271.46776.56472.71624-.0066.03123-.02055.06314.012.09171l.008-.00667c.02926.0213-.00129.05586-.00531.07709.02661.0279.04783-.008.06913.01068-.012.00728.014.01191.04919.01592.02259.03654.05579.0711.07573.10764.14614.25113.11961.64983.38938.76142a.48756.48756,0,0,0,.32556.02259,18.40174,18.40174,0,0,0,1.61591-3.75272C51.73471,274.60189,51.16326,274.3162,50.944,273.9428Zm-7.48025,6.24434a.0778.0778,0,0,1,.0166-.02061.11.11,0,0,1,.00864.02857Zm1.42458,1.06507-.00265.00068.002-.00136Z" fill="#d9d9d9"/><path d="M56.97175,275.20518c-.91158.03722-2.14212-.03456-3.08431-.02653-.33488.00394-1.20924-.03987-1.43247.178-.12492.12356-.11166.66705-.16214.87171-.07974.28971-.26181.509-.35217.796-.22323.72957-.33883,1.4286-.59934,2.09033a1.14189,1.14189,0,0,0-.14615.47838.3257.3257,0,0,0,.28835.295c.28569.04654.52491-.06109.74814.101l4.28165-.03456a2.40914,2.40914,0,0,0,1.25578-.117c.36679-.10628.71358.09035.8598-.27372.32291-.79734-1.07106-2.78534-1.32355-3.3355C57.16178,275.92278,57.09932,275.5268,56.97175,275.20518Z" fill="#d9d9d9"/><rect x="108.58195" y="79.25978" width="36.11639" height="18.56429" transform="translate(7.44167 186.87363) rotate(-74.48039)" fill="url(#linear-gradient-2)"/><polygon points="124.474 87.457 127.951 77.031 122.736 75.29 136.11 67.754 136.11 67.754 142.275 81.809 137.066 80.071 133.588 90.495 124.474 87.457" fill="#fff" stroke="#fff" stroke-linecap="round" stroke-linejoin="round" stroke-width="4"/><rect x="126.14003" y="87.26346" width="3.71958" height="9.60845" transform="translate(0.23149 184.45636) rotate(-71.59722)" stroke-width="4" stroke="#fff" stroke-linecap="round" stroke-linejoin="round" fill="#fff"/><rect x="125.74733" y="91.22456" width="1.8615" height="9.60834" transform="translate(-4.4802 185.84163) rotate(-71.56613)" stroke-width="4" stroke="#fff" stroke-linecap="round" stroke-linejoin="round" fill="#fff"/><polygon points="124.474 87.457 127.951 77.031 122.736 75.29 136.11 67.754 136.11 67.754 142.275 81.809 137.066 80.071 133.588 90.495 124.474 87.457" fill="#252525"/><rect x="126.14003" y="87.26346" width="3.71958" height="9.60845" transform="translate(0.23149 184.45636) rotate(-71.59722)" fill="#252525"/><rect x="125.74733" y="91.22456" width="1.8615" height="9.60834" transform="translate(-4.4802 185.84163) rotate(-71.56613)" fill="#252525"/><path d="M146.70672,24.20487a13.50613,13.50613,0,0,0-13.35716,11.53755c.35667-.0094.74417-.02149.83809-.03488a9.92845,9.92845,0,0,1,2.07172-.1301c.07648.00673.15825.01881.24812.0335a1.74146,1.74146,0,0,0,1.25106-.181,2.82623,2.82623,0,0,1,.35269-.14617,1.27734,1.27734,0,0,1,.26955-.05094,1.23586,1.23586,0,0,0,.43576-.1207,3.47407,3.47407,0,0,0,.61956-.822,5.363,5.363,0,0,1,.657-.9051,6.20657,6.20657,0,0,1,1.13043-.74157,9.66818,9.66818,0,0,0,.96552-.61145,5.19082,5.19082,0,0,0,.89439-.99772,5.99842,5.99842,0,0,1,.7-.82065,4.35672,4.35672,0,0,1,2.79721-.86357c.25479-.02684.51761-.04826.79924-.08445.29769-.03357.61283-.09392.9132-.15152.28829-.055.55914-.10862.80459-.13683a3.95593,3.95593,0,0,1,2.32114.48279,5.1077,5.1077,0,0,0,1.27661.4532c.067.01209.14479.02149.22526.03488.39292.059.98426.15022,1.12906.37548a.72022.72022,0,0,1-.15421.81125c-.57527.65039-2.01274.78447-3.07479.58331a1.31569,1.31569,0,0,1-.27757-.10992.88148.88148,0,0,0-.60473-.14617.85811.85811,0,0,0-.3299.2105.96018.96018,0,0,1-.20384.14885,4.72213,4.72213,0,0,1-1.79956.2199l.00535.00268-.012-.00268h.00666a1.49884,1.49884,0,0,0-.67853.01346c-.24669.14617-.39155,1.0808-.60473,2.59474a12.46717,12.46717,0,0,1-.27758,1.60108,6.03946,6.03946,0,0,1-1.30613,1.96983c-.17164.20253-.35667.41166-.52158.62223-.04559.05767-.08987.10059-.12873.14617a.985.985,0,0,0-.24.32715l-.03357.07649.06845.05094a1.77342,1.77342,0,0,1,.834,1.77807l-.0094.06035.05231.03893a1.10784,1.10784,0,0,1,.40226.69192c.03756.12736.07779.27222.13951.4291a2.86039,2.86039,0,0,0,1.91484,1.42,2.29284,2.29284,0,0,0,1.08484.03083,1.12882,1.12882,0,0,0,.49213-.2427l.11-.08713-.11266-.07916a3.81348,3.81348,0,0,0-1.231-.4291c-.92254-.21318-1.78878-.413-1.64268-1.349a.64106.64106,0,0,1,.16766-.42643c.2749-.24943,1.6547.0644,2.31847.21723.19045.04023.35269.08047.472.10058a9.08835,9.08835,0,0,0,1.0889.08047c.936.0322,2.0932.07106,2.38149.56992a.899.899,0,0,1-.11259.85416,1.86908,1.86908,0,0,1-.9695.8488,2.42022,2.42022,0,0,1-1.12378-.07642c-.14885-.0322-.28424-.06165-.42237-.08046l-.06839-.00941-.0335.05767c-.59271,1.00843-1.35034,1.04729-2.48613,1.109-.3634.02011-.78447.04558-1.227.10724a6.38713,6.38713,0,0,0-.9038.20116,4.66578,4.66578,0,0,1-2.07583.21991,8.84426,8.84426,0,0,1-1.699-.535,9.60765,9.60765,0,0,0-1.43616-.46934,2.85089,2.85089,0,0,0-1.48443.19176c-.15825.04964-.30174.09921-.43981.13278-.37411.08713-.77644.1542-1.16531.22657-.232.04291-.75358.07511-1.24839.11939a13.49766,13.49766,0,1,0,11.25723-20.94029Z" fill="#686166"/><path d="M149.96393,41.67745a9.08835,9.08835,0,0,1-1.0889-.08047c-.11932-.02011-.28156-.06035-.472-.10058-.66377-.15283-2.04357-.46666-2.31847-.21723a.64106.64106,0,0,0-.16766.42643c-.1461.936.72014,1.13579,1.64268,1.349a3.81348,3.81348,0,0,1,1.231.4291l.11266.07916-.11.08713a1.12882,1.12882,0,0,1-.49213.2427,2.29284,2.29284,0,0,1-1.08484-.03083,2.86039,2.86039,0,0,1-1.91484-1.42c-.06172-.15688-.10195-.30174-.13951-.4291a1.10784,1.10784,0,0,0-.40226-.69192l-.05231-.03893.0094-.06035a1.77342,1.77342,0,0,0-.834-1.77807l-.06845-.05094.03357-.07649a.985.985,0,0,1,.24-.32715c.03886-.04558.08314-.0885.12873-.14617.16491-.21057.34994-.4197.52158-.62223a6.03946,6.03946,0,0,0,1.30613-1.96983,12.46717,12.46717,0,0,0,.27758-1.60108c.21318-1.51394.358-2.44857.60473-2.59474a1.49884,1.49884,0,0,1,.67853-.01346,4.72213,4.72213,0,0,0,1.79956-.2199.96018.96018,0,0,0,.20384-.14885.85811.85811,0,0,1,.3299-.2105.88148.88148,0,0,1,.60473.14617,1.31569,1.31569,0,0,0,.27757.10992c1.062.20116,2.49952.06708,3.07479-.58331a.72022.72022,0,0,0,.15421-.81125c-.1448-.22526-.73614-.3165-1.12906-.37548-.08047-.01339-.15826-.02279-.22526-.03488a5.1077,5.1077,0,0,1-1.27661-.4532,3.95593,3.95593,0,0,0-2.32114-.48279c-.24545.02821-.5163.08183-.80459.13683-.30037.0576-.61551.118-.9132.15152-.28163.03619-.54445.05761-.79924.08445a4.35672,4.35672,0,0,0-2.79721.86357,5.99842,5.99842,0,0,0-.7.82065,5.19082,5.19082,0,0,1-.89439.99772,9.66818,9.66818,0,0,1-.96552.61145,6.20657,6.20657,0,0,0-1.13043.74157,5.363,5.363,0,0,0-.657.9051,3.47407,3.47407,0,0,1-.61956.822,1.23586,1.23586,0,0,1-.43576.1207,1.27734,1.27734,0,0,0-.26955.05094,2.82623,2.82623,0,0,0-.35269.14617,1.74146,1.74146,0,0,1-1.25106.181c-.08987-.01469-.17164-.02677-.24812-.0335a9.92845,9.92845,0,0,0-2.07172.1301c-.09392.01339-.48142.02548-.83809.03488a14.624,14.624,0,0,0-.14082,1.96448,13.42454,13.42454,0,0,0,2.24075,7.43826c.49481-.04428,1.0164-.07648,1.24839-.11939.38887-.07237.7912-.13944,1.16531-.22657.13807-.03357.28156-.08314.43981-.13278a2.85089,2.85089,0,0,1,1.48443-.19176,9.60765,9.60765,0,0,1,1.43616.46934,8.84426,8.84426,0,0,0,1.699.535,4.66578,4.66578,0,0,0,2.07583-.21991,6.38713,6.38713,0,0,1,.9038-.20116c.44249-.06166.86356-.08713,1.227-.10724,1.13579-.06173,1.89342-.10059,2.48613-1.109l.0335-.05767.06839.00941c.13813.01881.27352.04826.42237.08046a2.42022,2.42022,0,0,0,1.12378.07642,1.86908,1.86908,0,0,0,.9695-.8488.899.899,0,0,0,.11259-.85416C152.05713,41.74851,150.89993,41.70965,149.96393,41.67745Z" fill="#d9d9d9"/><polygon points="147.611 32.044 147.605 32.041 147.598 32.041 147.611 32.044" fill="#d9d9d9"/><path d="M152.55462,32.24656a1.70513,1.70513,0,0,0-.59937.16354,2.23047,2.23047,0,0,1-.48946.15963,10.81763,10.81763,0,0,1-1.14787.09385c-.33387.01607-.64228.02815-.928.067l-.08314.00941a6.44419,6.44419,0,0,0-1.79551.39958.94274.94274,0,0,0-.49481.63967.832.832,0,0,0,.173.72412c.19039.2333.3218.25342.6611.31514.063.012.14074.02279.22121.04154a3.88429,3.88429,0,0,1,.40233.10326,4.14417,4.14417,0,0,0,.68924.15152,9.58834,9.58834,0,0,0,2.90315-.23872c.28561-.05492.55646-.10724.82333-.14885a2.35772,2.35772,0,0,1,.30168-.02677.947.947,0,0,0,.43988-.0872,1.01,1.01,0,0,0,.46934-.72007,1.51124,1.51124,0,0,0-.33257-1.16531A1.35777,1.35777,0,0,0,152.55462,32.24656Z" fill="#d9d9d9"/><path d="M154.55129,36.29353c-.17164-.62491-.81262-.90648-1.75932-.77912a1.66662,1.66662,0,0,0-.362.10862,1.80852,1.80852,0,0,1-.34864.11665,13.17583,13.17583,0,0,1-3.36582.06577c-.10725-.00941-.22259-.02685-.3312-.04023-.68252-.0966-1.32618-.181-1.74725.26549-.2736.291-.36209.5404-.2736.76566.15421.39958,1.04063,1.11437,5.22169,1.42813l.17034.01339a4.64488,4.64488,0,0,0,1.75795-.07106A1.70541,1.70541,0,0,0,154.55129,36.29353Z" fill="#d9d9d9"/><path d="M152.29043,38.97807l.055-.01606c-.03618-.00268-.29769,0-.50552.0094-.37411.00666-.64633.01744-.7268.00666-.3728-.03748-.75762-.07106-1.17066-.10724-.70668-.05362-1.44282-.11266-2.16564-.2186a2.52767,2.52767,0,0,1-.43309-.11129,2.04686,2.04686,0,0,0-.93064-.1126.883.883,0,0,0-.71073.70263.9135.9135,0,0,0,.30175.98557,11.36077,11.36077,0,0,0,3.93437.98694,3.8119,3.8119,0,0,0,.66109-.012,2.55051,2.55051,0,0,1,.77369.012,1.641,1.641,0,0,1,.37013.14219,1.15728,1.15728,0,0,0,.78983.15015,1.58076,1.58076,0,0,0,1.00163-.76834.934.934,0,0,0,.13683-.99634A1.55778,1.55778,0,0,0,152.29043,38.97807Z" fill="#d9d9d9"/><path d="M130.55962,49.74828H162.855a3.52833,3.52833,0,0,1,3.52833,3.52833v7.118a3.52672,3.52672,0,0,1-3.52672,3.52672h-32.297a3.52672,3.52672,0,0,1-3.52672-3.52672V53.275A3.52672,3.52672,0,0,1,130.55962,49.74828Z" fill="#d9d9d9" stroke="#595959" stroke-miterlimit="10"/><path d="M144.932,52.89648h5.3164v1.398h-3.6538V56.0415h3.1665v1.292h-3.1665v3.124H144.932Z" fill="#252525"/></g></g></svg>