<svg xmlns="http://www.w3.org/2000/svg" xmlns:xlink="http://www.w3.org/1999/xlink" viewBox="0 0 260.33792 466.72949"><defs><linearGradient id="linear-gradient" x1="58.89248" y1="2.71056" x2="52.47536" y2="24.52502" gradientTransform="matrix(0.52051, 0.50418, -1.87453, 0.14001, 189.48586, 111.66841)" gradientUnits="userSpaceOnUse"><stop offset="0" stop-color="#fff"/><stop offset="1" stop-color="#fff" stop-opacity="0"/></linearGradient><linearGradient id="linear-gradient-2" x1="228.80628" y1="12.64254" x2="222.38946" y2="34.45599" gradientTransform="matrix(0.52059, 0.96354, -1.87457, 0.26753, 123.13577, -100.30517)" xlink:href="#linear-gradient"/></defs><title>MAESTRO-Pe06-rapport-mouflage-14</title><g id="Calque_2" data-name="Calque 2"><g id="Calque_1-2" data-name="Calque 1"><path d="M87.84634,453.42773h6.94239v1.71582H89.88736v1.98926h4.498v1.58594h-4.498v2.27539h5.00488V462.71h-7.0459Z" fill="#ff3301"/><path d="M106.17642,458.73242H99.611v-1.3916h6.56543Zm0,2.78223H99.611v-1.3916h6.56543Z"/><path d="M113.3649,457.28906c.793.06543,1.9375-.09082,1.9375-1.13086a1.201,1.201,0,0,0-1.28711-1.209c-.93652,0-1.417.68848-1.4043,1.625h-1.75488a3.01665,3.01665,0,0,1,3.14551-3.14649c1.456,0,3.05566.89747,3.05566,2.52247a1.80849,1.80849,0,0,1-1.27441,1.85839v.02637a2.02347,2.02347,0,0,1,1.6123,2.06738,3.39279,3.39279,0,0,1-6.76074-.32519h1.75586c.03808.98828.53223,1.79394,1.59863,1.79394a1.39958,1.39958,0,0,0,1.48242-1.42968c0-1.37793-1.209-1.35254-2.10644-1.35254Z" fill="#982e93"/><path d="M118.526,453.42773h6.52637v1.71582h-4.48535v2.14551h3.88672V458.875h-3.88672v3.835h-2.041Z" fill="#982e93"/><path d="M133.55337,458.73242h2.5879v1.39063h-2.5879V462.71h-1.39062v-2.58691h-2.58691v-1.39063h2.58691v-2.58789h1.39062Z"/><path d="M144.42154,460.60449h-3.84766v-1.69043l3.95215-5.30371h1.65039V459.083h1.209v1.52148h-1.209V462.71h-1.75488Zm0-4.68066h-.03906l-2.35254,3.15918h2.3916Z" fill="#982e93"/><path d="M148.49087,453.42773h6.52637v1.71582h-4.48535v2.14551h3.88672V458.875h-3.88672v3.835h-2.041Z" fill="#982e93"/><path d="M166.10611,458.73242h-6.56543v-1.3916h6.56543Zm0,2.78223h-6.56543v-1.3916h6.56543Z"/><path d="M177.05142,455.19629c-1.91113,1.67676-2.9375,5.083-2.97656,7.51367H172.0983a13.28955,13.28955,0,0,1,3.05566-7.38379h-4.31641v-1.71582h6.21387Z" fill="#982e93"/><path d="M178.45572,453.42773h6.52637v1.71582h-4.48536v2.14551h3.88672V458.875h-3.88672v3.835h-2.041Z" fill="#982e93"/><polygon points="72.523 466.121 72.539 449.531 66.542 449.525 76.75 439.342 86.935 449.544 80.939 449.538 80.923 466.129 72.523 466.121" fill="#ff3301"/><path d="M76.749,440.19031l8.73758,8.75256-5.147-.005-.01641,16.59045-7.2-.00708.01641-16.59051-5.1474-.00507,8.75684-8.73535m.00177-1.69672-.84925.84717-8.75684,8.73535L65.093,450.1228l2.89806.00287,3.94738.00385-.01522,15.39056-.0012,1.2,1.2.00116,7.2.00708,1.2.00116.00119-1.2.01523-15.3905,3.947.00384,2.89753.00281-2.04711-2.0506-8.73757-8.75256-.84749-.84894Z" fill="#fff"/><g opacity="0.2"><line y1="21.75254" x2="188.71725" y2="21.75254" fill="#fff" stroke="#000" stroke-miterlimit="10" stroke-width="1.00223"/><line x1="94.35863" y1="21.75254" x2="94.35863" y2="67.72418" fill="#fff" stroke="#000" stroke-miterlimit="10" stroke-width="5.01113"/><path d="M91.19546,1.44434a17.85177,17.85177,0,0,0-4.624,10.60742H84.95718A17.22451,17.22451,0,0,1,89.716,1.56348H83.39273V.2041h7.80273Z"/><path d="M95.29312,5.15039H93.4064V3.26367h1.88672ZM93.4064,10.165h1.88672v1.88672H93.4064Z"/><path d="M102.77261,12.05176H101.3273V3.417H98.19937V2.26074c1.64941,0,3.14551-.4248,3.46777-2.26074h1.10547Z"/><line x1="119.57793" y1="272.87909" x2="75.02274" y2="317.60388" fill="#fff" stroke="#000" stroke-miterlimit="10" stroke-width="5.01113"/><line x1="155.27091" y1="190.30995" x2="142.81369" y2="250.16423" fill="#fff" stroke="#000" stroke-miterlimit="10" stroke-width="5.01113"/><path d="M121.65956,294.39054a21.63853,21.63853,0,0,1-23.59512-19.43216,22.0816,22.0816,0,0,1-.08845-2.905c.00629-.09018,3.41272-71.43241,5.86392-122.07267l6.96633.33816c-2.45185,50.63562-5.85828,121.97785-5.85828,121.97785a14.64432,14.64432,0,0,0,28.52142,5.21943l.05926-.19405,8.56582-38.84974,6.71689,1.87748-8.7097,39.32046A21.6737,21.6737,0,0,1,121.65956,294.39054Z" fill="gray" stroke="#000" stroke-linecap="round" stroke-width="1.00223"/><path d="M79.71865,411.64942H72.74451V82.3562a21.61353,21.61353,0,0,1,43.22706,0c.00468.1542-1.13166,33.546-3.14616,47.30963L142.60053,197.455A14.64913,14.64913,0,0,0,168.834,196.39l31.597-80.931,6.49657,2.53632-31.6607,81.08428a21.61671,21.61671,0,0,1-38.81685,1.65906l-.22745-.432-30.45256-70.59079c2.092-14.30044,3.23064-47.26143,3.22947-47.30847a14.64049,14.64049,0,1,0-29.28089-.05124Z" fill="#34b3d1" stroke="#000" stroke-linecap="round" stroke-width="1.00223"/><rect x="165.89632" y="134.07847" width="56.34035" height="15.15262" transform="translate(-8.48749 270.88235) rotate(-68.66429)" fill="url(#linear-gradient)"/><rect x="65.16341" y="299.36826" width="20.93431" height="34.0009" fill="#fff" stroke="#000" stroke-miterlimit="10" stroke-width="5.01113"/><rect x="91.32086" y="127.62235" width="34.0003" height="20.93401" transform="translate(-39.04545 233.40588) rotate(-84.78317)" fill="#fff" stroke="#000" stroke-miterlimit="10" stroke-width="5.01113"/><path d="M79.72567,82.3562A14.63237,14.63237,0,1,1,94.35863,96.988,14.63443,14.63443,0,0,1,79.72567,82.3562Z" fill="#fff" stroke="#000" stroke-miterlimit="10" stroke-width="5.01113"/><path d="M105.01351,274.29013a14.63249,14.63249,0,1,1,15.97476,13.154A14.63563,14.63563,0,0,1,105.01351,274.29013Z" fill="#fff" stroke="#000" stroke-miterlimit="10" stroke-width="5.01113"/><path d="M141.12739,194.06153a14.6328,14.6328,0,1,1,17.89532,10.392A14.63229,14.63229,0,0,1,141.12739,194.06153Z" fill="#fff" stroke="#000" stroke-miterlimit="10" stroke-width="5.01113"/><path d="M97.75684,415.90755a21.05793,21.05793,0,1,1-21.06-21.06A21.06438,21.06438,0,0,1,97.75684,415.90755Z" fill="#686166"/><path d="M66.84581,405.69884l-.00414-.00722C66.84475,405.71858,66.84581,405.7154,66.84581,405.69884Z" fill="#d9d9d9"/><polygon points="65.869 429.542 65.878 429.543 65.88 429.532 65.869 429.542" fill="#d9d9d9"/><path d="M71.47275,407.03705c.00839.002.01454.00934.02187.01241h.001Z" fill="#d9d9d9"/><path d="M87.57614,407.0536s.12026-.20315-.09945-.16377a25.09616,25.09616,0,0,1-3.23811.286c-.09542.44568-.29857.711-.37732,1.11945a2.28127,2.28127,0,0,0,0,.58048,1.25182,1.25182,0,0,0,1.136.29018A3.99741,3.99741,0,0,0,87.57614,407.0536Z" fill="#d9d9d9"/><path d="M81.40678,412.28183c.18447.14923.54726.26535.62612.53483a1.6092,1.6092,0,0,1,.029.398c1.5921-.15762,3.47024.05392,5.02094-.16176a7.931,7.931,0,0,0,1.25212-.20729c.29019-.08289,2.1228-2.7488,2.02738-3.3003-.04978-.286-.425-.64056-.5929-.82089a4.09214,4.09214,0,0,1-.77737-.92872c.06326-.19593.10986-.38454.1762-.63429.55564-2.07513.13267-4.41976-1.91137-4.23528a2.15705,2.15705,0,0,0-1.37227.60743c-.09956.09945-.18246.32129-.29857.3959-.14924.09744-.342.06432-.50576.141a3.27309,3.27309,0,0,0-1.01586,1.25839,3.16587,3.16587,0,0,0-.44356,1.2189c-.0208.112-.10784.27363-.14721.396a1.51619,1.51619,0,0,1,.98051.03524,20.54717,20.54717,0,0,1,1.25425-2.19327c.69023.12641,1.704-1.047,2.20983,0a4.75217,4.75217,0,0,1-.03322,2.08957c-.07356,1.01788.43846.71941.77227.74425a9.15821,9.15821,0,0,1-1.33821,1.71437,4.03326,4.03326,0,0,1-2.33008,1.25425c-1.94034.24253-2.57059-1.79939-1.94034-3.62159-.311.03725-.4685-.1659-.83542-.112-1.36612.20315-1.37653.55554-2.08968,1.46982-.3026.38964-.57835.78565-.89762,1.15045A6.03124,6.03124,0,0,0,81.40678,412.28183Z" fill="#d9d9d9"/><path d="M94.666,414.82546c-.42085-.71941-2.4254-4.50891-3.16349-4.343-.37722.0829-.58451.81876-.78151,1.14843a10.66305,10.66305,0,0,0-1.0096,1.86986c-.07461.60532.40216.82513.56392,1.17953a3.94572,3.94572,0,0,1,.35865.86865c.04765.25707-.0518.44366,0,.64055a15.94665,15.94665,0,0,0,1.58583,2.62653c.15549.29857.14095.595.35249.82513.41044-.68832.966-1.23971,1.37854-1.9363.31088-.5514.59491-1.16711.86238-1.72477.06634-.14509.08088-.41246.18033-.50576C95.05771,415.408,94.69291,414.87726,94.666,414.82546Z" fill="#d9d9d9"/><path d="M79.4727,412.60109c-.4582-.75879-.81058-1.57139-1.91964-1.61289-.26333.54216-1.04483,1.62733-1.68952,2.71568-.02081-.02175-.04978-.059-.06846-.07673.00827-.06008-.04766-.10986-.06422-.15539.00616.0311-.02908.04967-.04362.0311-.0829-.11612-.02272.01241-.13055-.09542a3.72058,3.72058,0,0,1-.54312-.79807c-.10784-.02494-.1244-.13893-.20527-.17629l.01454-.00414c-.06846-.0518-.30685-.47678-.38561-.54312l.00414.0208c-.04139-.0208-.04553-.04044-.04458-.06326a.0745.0745,0,0,1,.00106-.02589c-.00414,0-.00106.002-.00307.00307a.11246.11246,0,0,0-.00319-.06325.07884.07884,0,0,1-.05593.01974l.00626-.028H74.3398c.01454-.0103.027-.0207.027-.0207a3.50435,3.50435,0,0,0-.2488-.70689c.01455-.01454.02081-.00414.02081-.00414a.82076.82076,0,0,0-.11612-.1659c.0104-.03109.04352-.04351.05806-.05593-.03736.02282-.21557-.31715-.20315-.32967l-.09128.04564c-.0311-.06422.09329-.0726.0415-.12227-.13682.03311-.0415-.1037-.112-.08916a.059.059,0,0,1,.03322-.0518c-.0726.0207-.02908-.027-.05392-.03736-.02282.00828-.01655.01656-.03736.0311l-.04553-.03524c.01656-.02069.04967-.04564.06835-.03322a3.844,3.844,0,0,0-.33168-.78978c-.0414.03523.0104.05593-.05806.114-.06422-.00828-.0103-.05392-.06634-.04553.1141-.07059-.00615-.085.10572-.16792l-.07462.02272.03322-.03312c-.14307-.10784-.04765-.01868-.1037-.14923-.03937-.0622-.14923-.04978-.13883-.10784,0,0-.027.03938-.05392.03312.05392-.03312-.06432-.029-.0104-.06634-.01868-.01857-.04139-.07462-.10985-.01656.03322-.0311.027-.09117.07674-.08077-.0104-.01868-.00828-.0415-.027-.04362l-.01454.03322c-.0415-.05594.00626-.11813-.0829-.12026l-.027.0415c-.01868-.03524-.03938-.056.027-.1141l.0518.02495a.2545.2545,0,0,0-.1244-.12238l.00212.0208c-.10985-.02494-.34824-.31714-.4685-.32553l-.04978.056-.07875-.01666a1.89208,1.89208,0,0,1,.19689-.06836,1.27844,1.27844,0,0,1-.17407-.37934c.01656-.0622.09945-.05392.09945-.05392-.03938-.04564-.07047.00626-.085-.03736l.05806-.0207c-.01242-.01655.00414-.04564-.029-.027-.01454.03323-.08714.06019-.1348.0933l-.01964-.05073.0052-.00627.0414-.01974-.029.0052c.00616-.01029.01656-.01348.0207-.0259a.21825.21825,0,0,1-.13055-.0052c-.00212-.00307-.0104,0-.0104-.0052a.49612.49612,0,0,1-.02484-.07875.803.803,0,0,1-.027-.09744.27028.27028,0,0,0-.04978-.10157.10373.10373,0,0,1,.04352.00212l.01242-.03524c-.0414.04139-.04766-.02494-.0622.00616l-.01444-.00616s-.0104-.00828-.00626-.01666l-.00414.01252-.01242-.00414c.00828-.00414-.03523-.0415-.02494-.04978-.01857-.0207-.0518-.07461-.05381-.0415,0,0-.02908-.06634.002-.04352a.17027.17027,0,0,1-.02483-.03311l-.00212.01443c-.0414-.04553-.05392-.08289-.09946-.10157l.0103.02282c-.02282-.027-.05594-.03938-.05392-.06634l.04362.01656a.48249.48249,0,0,0-.12333-.06836l-.02494-.00626a.9153.9153,0,0,1-.06326-.09531c.01454-.14722-1.0095.0933-1.14217-.07048l-.10158-.11611-.38974.06113a1.04188,1.04188,0,0,1-.0311-.4322c-.07048-.027-.02908-.087-.0829-.11611l.02272.00212a.7503.7503,0,0,1-.03206-.23224,2.156,2.156,0,0,0,.5462-.3752,3.29975,3.29975,0,0,0,.69245-.95154c.07462-.09945.0829.02282.09118.027.03736-.15963-.029-.08916.02069-.21557.02081-.0311.03737.0207.03524.04564.01454-.06018.04777-.1037.027-.11824-.04352.06634-.08916.00626-.14095.01454a1.10371,1.10371,0,0,0,.05392-.15963l.03736.02483a1.89486,1.89486,0,0,1,.00828-.4685,1.8758,1.8758,0,0,0-.00414-.69648c.0207,0,.04553.06007.06634.12439,0-.04351-.01869-.1037,0-.13893-.03323.07461-.04564-.12228-.05392-.06634a7.03451,7.03451,0,0,0-.49345-.58048,2.45474,2.45474,0,0,0-.425.08088,1.21685,1.21685,0,0,0-.08905-.24879c.30674-.18447.59491-.38975.57835-.66751l.03524-.01858-.05806-.08088c-.05391-.112-.12641-.12025-.09329-.13893l.10157.13066c-.06219-.1037.00414-.05191.04352-.02909a.64611.64611,0,0,1-.06421-.12439c-.02909-.01242-.00213.02282,0,.04776a.81283.81283,0,0,1-.17-.15963c-.085-.0933.03938-.05392-.05594-.16792a2.73951,2.73951,0,0,0-1.95073-.9889c-.01656-.01868.002-.01656.027-.02484a2.4539,2.4539,0,0,0-.61774.0725.23355.23355,0,0,1-.09542-.04554c.01656.0103-.25494.07664-.512.21143a3.13156,3.13156,0,0,0-.4892.29231l.02271.087c-.16791.13065-.10359-.03938-.24253.10985.00414.13681-.23839.24678-.24666.34209,0,0-.07048.07048-.08916.04352.02908.06633-.0518.09956-.07876.15963-.00212.027.02484-.002.0518-.00626-.02484.04362-.03524.085-.06634.13692-.03524.03524-.07249.03311-.04978-.02908a3.16366,3.16366,0,0,0-.454,1.27494,3.36457,3.36457,0,0,0,.13894,1.4366c.027-.06219-.04352-.18861.01868-.25494.05594.10359.02685.16791.07876.20315-.08088.07875.05392.25282,0,.37308l.06633.01242-.0104.07058c.28605.43528.24879.00615.47476.41246.15752.21567.30887.21769.37722.34622-.00615-.02069-.02483-.087.03323-.04564-.02909.04564.07461.083.06421.14722a.51533.51533,0,0,1,.056.22905c.01136.05806.12748.172.03524.1296.04553.03937.08916.08915.13055.09531l-.05806-.06422c.17.12228.25092.228.38975.23425l-.04766-.06846c.09744.06634.18861.10158.21355.18458l-.12651-.03322a1.31916,1.31916,0,0,0,.34.10985.10214.10214,0,0,0,.01666.03938.17241.17241,0,0,1-.06018.027c.03524-.01029.07462.18659.06432.19286l.0725-.01041c.00414.03938-.08077.02282-.05806.05806.11-.00626-.00414.05594.05806.05594-.0103.00414-.0103.0208-.0414.02494.05806-.00626.01656.01858.029.02484.01656.00212.01868-.00414.03736-.01242l.029.0207a.50179.50179,0,0,1-.05806.02494,1.111,1.111,0,0,0,.02908.43528c.04139-.0104.00414-.027.07249-.04564.04352.00838-.00615.02494.0311.027-.06729.0156-.06421.0311-.07769.04872a3.723,3.723,0,0,0-.82407.339l-.08088.01241.01454.04564c-.03937.06634.06018.07462-.02282.087l.00627-.08088c-.02282.06432-.06432.027-.11814.01656a.10863.10863,0,0,1-.04362.07674c.03534.00626.03736-.01242.06018-.027.0311.027.10985.04978.07462.09743-.00213.06018-.1348.0311-.13682.10784l-.00308.0259a.32084.32084,0,0,0-.03216.0155l-.0726-.05594a.11449.11449,0,0,1,.02909-.03524c-.02081-.01656-.05806.00626-.056.03938l.058.04766c-.01857.06018-.04765-.01858-.07249.02908-.05392-.03736-.02908-.08714-.00828-.12238-.03322.027-.08916.0311-.04776.07886-.04352.01656-.05806-.04978-.10158-.0311-.00615.03524.01454.09945-.03725.10572l-.01242-.0104c-.07048.02282-.04362.09117-.05806.14721-.02908.027-.02282-.0104-.04978.027h-.00828v-.0104c-.0415,0-.04564.07461-.10157.085l.0311.00615a.1391.1391,0,0,1-.025.056c-.02483.02484-.03725.05594-.08289.06008l.01656.06846c-.13469.14509-.28605.41044-.40631.57209l.00213-.01242a10.38748,10.38748,0,0,0-.71517,1.02828c-.07058.00414-.1037.058-.14722.08492.03312-.00616.06422.02908.03938.04776-.09744.116.0311.03725-.04766.16993a3.56642,3.56642,0,0,1-.70487.75667c.01242.11813-.10985.16175-.11813.25908l-.01242-.01857c-.0311.08916-.4167.4374-.46234.53685l.01868-.002c-.00828.10359-.07876.03523-.1451.06633a.18678.18678,0,0,1,.05806.18447l-.01868-.02069a1.03907,1.03907,0,0,1-.05392.24868l-.03524-.03725c.00627.087-.087.16165-.11611.199-.0829.0622-.24879.12439-.284.27575l-.17821-.0311.00828.02271s.06007.05191.15963.13066L62.99,412.885l-.00838-.01242a.94519.94519,0,0,0-.03726.20113c-.01655.02272-.01868.02272-.01868.02272a.80977.80977,0,0,0,.00213.19487.94612.94612,0,0,0,.04139.19487l.02282.00414c.027.06634-.02484.027.0104.0933.04352.01252.0518.09648.07663.11612a2.09541,2.09541,0,0,0-.03523.47476c-.01656.00615-.01858-.00213-.01858-.00213.01444.05605.0103.10784.029.16176a.09219.09219,0,0,1-.0622.03524c.03736-.00828.05594.315.04564.315l.08088-.002c0,.058-.09128.02695-.06634.08087.10773.01242-.00626.09532.04967.114a.05391.05391,0,0,1-.04351.027c.05593.00414.01454.02483.0311.04139l.03322-.01242.0207.0415-.04564.0207a2.38123,2.38123,0,0,0-.0207.709c.03311-.01454.00414-.04978.07461-.07047.04352.029-.0104.05179.027.05806-.09743.01857-.01454.06633-.12227.09743h.05795l-.03524.02685c.0726.12026.0311.02081.02282.14106.01455.06634.09542.09118.07048.12854,0,0,.02908-.01868.04564-.00212-.04564.00212.03736.0415-.01454.05392.00828.01454.00414.07663.07462.04765-.03524.00828-.04554.0622-.07664.029-.00212.02282-.00828.0415.002.05806l.02494-.02484c.00616.0518-.03937.087.02282.11612l.02484-.02282c.00616.03523.01454.06219-.05806.07875l-.0207-.0311a.228.228,0,0,0,.05392.13682v-.01656c.07462.04978.13883.35652.23.40428l.0519-.03109.04766.04139-.16165-.01242a4.63185,4.63185,0,0,1,.04967.71729c-.027.0414-.087.0103-.09945.01656.02282.03938.06007.00828.05805.04766-.00626.01454-.04351,0-.04351,0-.00213.01868-.01253.03736.00615.0311.0207-.02484.085-.0207.13066-.03312l-.00414.04967-.0415.00425s.11813.01443.0933.07048a1.81583,1.81583,0,0,0,0,.26121.07953.07953,0,0,1-.056-.03323s.00424.029-.01444.0311c.04352-.01868.03524.03524.03524.03524.1244.03322.0311.12641.10359.17619l.15444-.00414c-.10052.23945-.26631.64788-.31609.821l-.07048.01858c.02484.0519-.02069.083-.00626.14934-.01656.02483-.05179.00414-.05593-.01253.01242.05806-.04978.09542-.02484.13682l.0207-.002c.02483.09531-.12854.0933-.1037.19689h.0104c.0207.04978-.04978.06846-.07462.09128.00414.05392.06422.0311.07664.07249-.06634-.00616.30483.26949.29857.30473.01868-.03726.04765-.07876.09945-.05382-.02271.04554.46861.18649.42711.23627l.15549-.01029c-.027.01241-.0311.06421,0,.07461-.0104-.00626-.00212-.0311.002-.056l.97436.15348c.10157-.04564.03736-.19073.17831-.226.01656.027.02484-.04978.06008-.00627-.00828-.02069.00212-.03725.00414-.06007-.027.0207-.04352.03524-.07674.029a3.07918,3.07918,0,0,0,.11-.34c-.00212-.07462.13883-.06421.13883-.06421l-.04978-.01454.01868-.06846c.04352.03322.1244.04977.13894.08087.029.00627.01242-.01868.01242-.03937l-.04352-.00627c.0104-.05179.15549-.16791.19689-.22183,0,0-.07663.01667-.09945-.04139.0052-.12228-.43433-.91-.49759-1.17858l.03524-.00095c.00212.01656.00212.03725-.01029.04139a.04167.04167,0,0,0,.02069-.06421l-.04978.00722-.002-.00616c-.00319-.01868.03-.01146.027-.04256.04765-.01242.05381.02483.06007.06018.00626-.0311.03524-.06018-.01242-.0726.01656-.02282.05594-.00414.07674-.03736-.01666-.0207-.06432-.04554-.03534-.07048l.00424-.00414c.04968-.06633-.07674-.08915-.02494-.15751l.01454.00616c.02484-.02272-.0104-.06209.01656-.09946,0,0-.04766.02282-.04978,0,.02908-.04351-.00616-.06846.03322-.10369l-.05392-.029c.00212-.14722-.09117-.74011-.10784-.88722l.01253.00414a6.98922,6.98922,0,0,0-.12854-.93084c.04352-.04151.03312-.0933.03938-.13268-.01868.02908-.05179.0207-.04978.00212.00626-.11611-.0311-.00212-.05179-.12025a2.21041,2.21041,0,0,1,.00827-.78363c-.07673-.05806-.02908-.14095-.06633-.20528l.00828.00414c-.02484-.06007.02069-.45809-.00828-.52645l-.00626.00414c-.04554-.0622.02695-.0622.04776-.11612a.12161.12161,0,0,1-.13066-.06432l.01454.00213a.38527.38527,0,0,0-.04564-.0777,3.47165,3.47165,0,0,0,.54726-.52762c.02494.01242.01666.01656.0208.029.0311-.07876.0829-.13268.11813-.20729a.46621.46621,0,0,1,.08088.027c-.04564-.01868.22385-.35451.23839-.35037l-.06846-.06421c.04564-.06432.09956.05392.1244-.01656-.0829-.112.09542-.08916.05806-.1555a.0567.0567,0,0,1,.06219.0103c-.04978-.05594.01041-.03938.00828-.06835-.00626-.02081-.01454-.01041-.03938-.02282l.01455-.06008c.03109.00414.06835.029.06007.05381a5.24425,5.24425,0,0,0,.65711-.69861c-.05593-.02282-.058.03323-.13681-.00414-.01242-.06421.04776-.03523.0208-.08077.114.06836.07876-.056.20517.01242l-.04766-.056.04564.0104c.02282-.09224.02282-.1037.03-.10678a.961.961,0,0,0,.02388.15656c.087-.0518.02484-.09744.15751-.14509.0829.03725-.0207.07875.06634.087-.20729.06422-.03938.12641-.24253.20941l.11612-.0104-.07059.04564c.13894.21143.0622.0414.05605.25081.029.1244.19487.141.13883.22183,0,0,.0726-.04978.10582-.02494-.10582.02494.07875.0622-.01868.10158.01241.02695.01241.13065.143.06219-.06634.03524-.087.12854-.15539.08714-.00212.03312-.01454.06836.01656.08078l.03523-.04766c.027.09542-.07875.17205.05806.21355l.05392-.04978c.01444.05392.029.10986-.10784.16176l-.05392-.05806a.31757.31757,0,0,0,.112.22385v-.027c.14923.07674.31927.60531.49334.66136l.10571-.05806.09542.06421c0-.01454-.35036.0311-.313.01454a6.91435,6.91435,0,0,1,.13469,1.26869.17949.17949,0,0,1-.172.04978c.029.07249.10369.01242.09743.085-.01868.02483-.08915.01443-.08915.01443s-.03726.05392.02069.04564c.03322-.0415.16792-.05392.25293-.09117l-.002.09117-.08714.01656c0,.01656.23637.00414.199.09542a.64837.64837,0,0,0,.00318.09945l-.28923-.01242c.00414-.02483.01242-.04978.027-.05593a.056.056,0,0,0-.04564.08077l.0933.01252c.02908.058-.05594.0103-.0518.07048-.07674,0-.087-.05806-.09542-.10784-.01242.04766-.06634.085.01454.10784-.03524.03726-.09531-.00838-.13055.03726.02282.03736.087.09128.04554.12853l-.01858-.002c-.08088.09118.11187.16165.029.24869l-.027-.01656c-.04766.02908.00414.09744-.04352.15751.01242-.01857.0726-.0311.07876.00626-.0518.06846-.00414.11814-.07048.15752l.0726.0519c-.02494.23011.03725.9163.03524,1.14843l-.01242-.0104a11.27362,11.27362,0,0,0,.12641,1.48022c-.08088.04967-.06634.12853-.09117.18649.03311-.03312.07875-.01242.07663.0104-.01444.18245.04766.01454.07674.199a3.66785,3.66785,0,0,1-.15751,1.21063c.10359.10783.01443.22809.07663.32967l-.027-.01242c.03736.114-.10985.7089-.07048.8333l.01242-.01656c.0622.10986-.05795.09118-.09743.17205a.18492.18492,0,0,1,.19073.13066l-.029-.00212a1.35891,1.35891,0,0,1,.13055.26949l-.07047-.00828c.01454.0155.0104.03736.01666.05593-.03014.01242-.06432.03015-.05392.04978l.07876.03216c0,.01242,0,.01964-.00106.03216-.01964-.00106-.04352-.00626-.05074.029-.083-.02484-.07886-.08289-.07472-.13267-.0207.0415-.08905.06007-.00828.10783-.04352.029-.09743-.03736-.14711.002.01444.03938.07876.10572.01858.12854l-.01444-.00828c-.10784.06633.10773.03524,0,.09329l-.0208-.02069c-.05594.01443-.01242.09733-.08077.13055.02282-.00626.08491-.00212.08289.0311-.06846.04564-.03736.10571-.10985.13055l.06421.0622c-.08916.21769-.25707,1.08633-.31714,1.3019l-.01041-.00827c-.06633.34-.55553.966-.55967,1.33916-.09128.02483-.09744.10157-.13681.14923.03725-.01857.08915.01454.07875.03322-.06007.16165.04978.02484.027.20729a2.326,2.326,0,0,1-.36692.92044c.08088.12026-.03938.20931.002.32755l-.02483-.0208c.00828.10784-.27363.62612-.27363.74839l.02484-.00616c.03937.116-.08078.06422-.141.13268a.20733.20733,0,0,1,.1659.172l-.02494-.01242c.00414.05594-.28817.16367-.29433.255l-.07048-.02908c.04978.08714-.02282.20527-.02908.255-.06634.09945.06018.3441.1037.52242l-.226.029.01656.02282s.31619.12854.72864.28085l-.30568-.04967c-.04872.28084-.27373,1.27388-.29029,1.53509l-.08077.0414c.05381.06432-.00212.112.03524.19073-.01253.03938-.06846.01656-.07674-.00626.03938.0726-.02908.13479.00615.18043l.025-.01252c.07047.12026-.1348.14934-.06432.27161h.00838c.04352.0518-.0415.0933-.06634.12854.02484.06421.08906.02069.12015.07047-.08491.01242-.03937.06432-.03523.1244.01868-.05806.0415-.11813.112-.10784-.01454.0726.07876.027.0415.09128l-.09542-.00828c-.02483.02686-.01241.09532.01242.09744l.00414-.06634,2.69085.16993c.12228-.07876,2.29071.06634,2.4669-.0207.02494.03312.0104-.06846.08088-.0208-.03323-.01857-.01656-.04967-.01454-.06634-.027.025-.05806.056-.0933.05392.00414-.15337-.29645-.52242-.30887-.67367-.027-.08915.15964-.09542.15751-.11611l-.06633-.00627-1.23759-.39282c.03938.00308.0208-.027.03322-.057-.0207.0104-.07048.02695-.08289.00413-.00213-.07259.05381-.01454.07875-.09329,0,0-.0933.0415-.13681-.02484-.02176-.12853-.60638-.4841-.89975-.73183.00733-.00828.0104-.0207.02495-.02282-.02081-.01858-.02495-.002-.04363-.00414-.01857-.027-.06421-.08491-.027-.10359.01667-.0415.10784.03311.13268-.01868.15135-.27575.03948-.653.11611-.94741.02909.00213.027.00828.027.00828a2.47953,2.47953,0,0,0,.04766-.25282.60962.60962,0,0,1,.10784,0c-.06008-.00425.087-.46648.10571-.46861l-.12439-.04351c.02494-.08916.14509.01454.14721-.06422-.16377-.09542.0622-.13267-.02069-.19073a.08043.08043,0,0,1,.08077-.01656c-.08916-.03938-.00616-.04766-.01858-.07462-.02282-.0208-.03322-.00413-.06219-.00413l-.01253-.06433c.03322-.02069.09542-.00626.0933.02282a4.70779,4.70779,0,0,0,.41468-.99919c-.08087,0-.04977.06633-.16377.04564-.04564-.06018.04554-.05392-.01252-.09956.17.0415.06633-.07674.24263-.04766l-.09128-.04352.06432-.00414c-.03322-.21567-.02908-.058.04554-.21769.01868-.09743-.09532-.19073-.029-.21971,0,0-.07048.00414-.087-.02908.087.02908-.03737-.085.04967-.07048.00212-.029.03736-.10369-.08916-.114.06018.00616.10784-.0518.14308.002.01454-.02282.0415-.03938.01656-.06422l-.03726.01656c.00616-.085.25293-.20729.16993-.29018l.083.24868c.01242-.0518-.12238-.33169-.00828-.30674l.02272.06007a.31532.31532,0,0,0-.00616-.21769l-.01242.02282c-.083-.12227.10773-.36066-.00838-.48506l-.09532.01242-.05179-.09117a1.7828,1.7828,0,0,1,.23626.11813,7.04365,7.04365,0,0,1,.29751-.96088c.0052.00106.01656-.001.00722.00732.0208-.0104.04978-.01242.05806-.0311l-.03524.00828c.028-.0156.03428-.028.056-.03831a.28734.28734,0,0,1,.0829.032.07285.07285,0,0,0-.03322-.06729c.00827-.00627.02494-.01147.03109-.02081a.36778.36778,0,0,0,.03737.01762c-.00828-.02176.00307-.0311-.00828-.04245.02069-.01454.04044-.0363.06421-.03216l-.03725.04351a.43217.43217,0,0,0,.13681-.15337l-.0208.02282a1.47572,1.47572,0,0,0,.13681-.2819.56151.56151,0,0,0,.03524-.29231l-.02685.0311a.254.254,0,0,0-.01667-.06846l.07048.04978c0-.01656.00212-.04352.00414-.07462l.0208.002L70.43,423.184c.03736-.04776-.03726-.07472.0311-.07058l-.01454.07058c.0208-.04776.05392-.00838.09128.01656a.1088.1088,0,0,1,.03523-.06018c-.02069-.01242-.02483.00212-.0415.0104-.02069-.02484-.08289-.07048-.04765-.09945.0104-.05392.10985,0,.12439-.0622a5.06193,5.06193,0,0,0,.16792-.94125c.03523-.00414.029.00627.029.00627-.01242-.085.00414-.1762-.01656-.26323a.47441.47441,0,0,1,.1037-.03736c-.06018.01656-.03524-.48718-.01666-.4892l-.12429-.01868c.00414-.09542.13883-.01868.116-.112-.16579-.04351.02908-.13883-.06421-.18033a.0875.0875,0,0,1,.08087-.03736c-.09743-.01656-.01868-.04553-.0415-.07047-.029-.01242-.029.00212-.06007.00827l-.027-.06219c.029-.01656.087-.0207.09531-.002a6.16885,6.16885,0,0,0,.11612-.62707c.11813.14923.258.37722.37732.40736l.08078-.05806.09128.04766a1.55264,1.55264,0,0,1-.27161.027,5.6997,5.6997,0,0,1,.27362,1.06139c-.03725.06422-.14095.04564-.14095.04564.03524.06422.087.00616.09117.06836-.01241.01656-.07249.01656-.087.00828.0207.02282-.00828.0519.03736.04765.02484-.04351.14095-.06209.20729-.089l.00828.07664-.0726.01454c.00626.01454.20527-.01242.18872.07047a2.98007,2.98007,0,0,0,.06633.38147.14358.14358,0,0,1-.11-.02908c.00627.0208.02282.0415-.00414.06633.06846-.04967.0622.03323.08714.00627.19488.03937.06422.201.2073.2508l.114-.03937a.1876.1876,0,0,1,.01454.04765c.02484.03938.01454.04978.01454.04978s.04246.06634.09733.13682c-.02377.31926-.00923,1.0148-.01857,1.21062l-.0104-.01241c.00212.34824-.338,1.06553-.26535,1.4263-.0829.04553-.07674.12439-.09946.17821.03312-.029.08905-.01242.08492.0104-.029.18033.0519.01868.06633.197a2.25588,2.25588,0,0,1-.15751.98052c.10572.10572.00626.21971.07048.32129l-.027-.01656c.0311.10784-.13469.66751-.10572.79191l.01656-.01656c.0622.10985-.06421.08289-.114.15751a.2271.2271,0,0,1,.20527.13267l-.03322-.00212c.02282.05806-.24253.226-.23425.309l-.06835-.01252c.06835.07886.01857.21153.02483.25707-.0415.11611.13894.32754.21356.49132l-.21356.07461.01868.01667s.11814.0207.29231.04872a8.86345,8.86345,0,0,0-.15549.882l-.08088.0415c.04978.06633,0,.12227.03524.199-.0104.04553-.0622.02282-.07876.002.03726.06846-.0311.14721.01242.19073l.02282-.01868c.06421.12025-.13681.16791-.0726.28817h.0104c.0415.05392-.0415.10571-.07461.14509.029.06432.10157.01454.12439.06634-.08714.01454-.03524.06846-.03322.12238.01666-.05605.0415-.1244.11612-.10784-.01656.07047.07875.01868.03523.09329l-.08915-.00212c-.0311.027-.01868.0933.0104.09128a.62492.62492,0,0,0,0-.06634l3.81646.18034c.11813-.08916.96184.00212,1.13813-.09744.02686.02908.01656-.07249.0829-.027-.02494-.01868-.01454-.0518-.0104-.07876a.13007.13007,0,0,1-.09946.06422c.00414-.15539.04968-.32129.0414-.47264-.02484-.09945.15762-.13469.15762-.13469h-.06432l.00212-.0933c-.20729-.10985-.027.1244-.30473-.05593.03524.00414-.27787-.15762-.26333-.19074-.01454.00828-.0622.0311-.0829.00828.00616-.0726-.46436-.1348-.42286-.22183a2.927,2.927,0,0,1-.64681-.30059c-.02494-.11293-.42084-.21557-.69553-.32447l-.0052-.03831c.03937-.0415-.03938-.07462.02908-.06634l-.01666.06634c.03109-.0415.06633-.00626.10369.01656a.08693.08693,0,0,1,.03736-.04978c-.0208-.01656-.02695.00212-.02695.00212-.03737-.02282-.09744-.06634-.0622-.0933.00615-.04978.11187.00828.12641-.04765.085-.30059-.10572-.64682-.09117-.95569.03311.00213.03311.00828.03311.00828a1.75433,1.75433,0,0,0-.01454-.25707.30031.30031,0,0,1,.10582-.02069c-.05806.00828-.01454-.4685.00414-.483l-.12652-.01656c.00828-.08916.15136-.01454.1244-.09956-.17418-.0518.027-.13682-.05594-.18033a.073.073,0,0,1,.08077-.02484c-.10359-.02908-.02069-.04978-.04139-.07462-.0311-.01252-.0311.00414-.06634.00616l-.027-.06007c.03312-.0207.09118-.0207.09946.00827a4.4322,4.4322,0,0,0,.19487-1.05927c-.07663.0103-.0311.06836-.15337.07663-.05806-.05391.0311-.06633-.03726-.09117.18033-.00414.0518-.09542.23425-.114l-.09743-.01868.06219-.01454c-.08087-.20942-.04362-.05392-.00424-.2177-.00414-.10571-.13469-.16791-.07876-.21557,0,0-.06421.0207-.08289-.00626.08289.00626-.05806-.07663.027-.07875-.00627-.027.01242-.10986-.10784-.0933.06018-.0103.09128-.07876.141-.027.00213-.029.027-.04967,0-.06421l-.03524.02069c-.01241-.08289.2074-.25494.10158-.32128l.13894.22183c-.00213-.0518-.19074-.29029-.0726-.30059l.0311.06008a.28515.28515,0,0,0-.04968-.21143l-.0104.02282c-.10985-.10572.029-.37107-.10985-.46436l-.0933.027-.06846-.07462c-.00616.00616.29231.0622.26121.0622a5.42449,5.42449,0,0,1,.09542-1.0614c.05593-.05806.143.002.143.002-.0103-.07048-.07462-.03524-.06422-.0933.0207-.01656.07048.00828.085.01868-.0104-.027.02282-.04351-.0208-.04765-.03312.02483-.14711-.00414-.22173.002l.0207-.06835.07048.00828c.002-.01454-.19488-.06018-.14308-.13268.0415-.114.02908-.25293.0622-.37318.03736.00414.06018.03322.085.06633.00828-.02069-.00414-.04553.029-.05593-.08289.02282-.04765-.05806-.08077-.03938a.14083.14083,0,0,1-.04766-.055c.00308-.00722.0103-.01656.00828-.02377l-.01146.01963-.00414-.00414c.028-.07154.05806-.11707.0467-.169l-.02494.02908c.01454-.05392.01868-.09542.04978-.114l.00414.058a.80995.80995,0,0,0,.00212-.21143l-.00626.027a1.99676,1.99676,0,0,0-.05392-.24253c.00828-.02282.0104-.04766-.00616-.05806l-.01454-.002-.00626-.01252a.23128.23128,0,0,0-.0207-.05594.10465.10465,0,0,1,.1037.07462c.002-.04766.04766-.10359-.04362-.09744.02282-.04564.09542-.02483.12238-.07875-.0311-.029-.11824-.05392-.08088-.1037l.01242-.00616c.06018-.11611-.15751-.10783-.09532-.21971l.029.002c.0415-.04352-.0414-.085-.002-.15337-.01252.01656-.06846.04967-.08915.0207.03937-.07876-.02081-.112.02695-.17418l-.08714-.0207c-.03937-.228-.29846-.82088-.36066-1.04685l.01242.00616a9.20233,9.20233,0,0,0-.47264-1.35159c.06634-.07461.027-.14509.03322-.20941-.0208.0415-.085.0519-.08714.027-.029-.18033-.05392,0-.13055-.16993a3.2442,3.2442,0,0,1-.197-1.17125c-.13884-.06018-.08078-.20941-.17821-.27989l.02685.002c-.06421-.09118-.09733-.68821-.16367-.79393l-.00838.01656c-.09744-.08289.03322-.10157.04564-.19275a.19778.19778,0,0,1-.23839-.056l.027-.002c-.02908-.03937-.1659-.13065-.20729-.20729l.07461-.01655a.18486.18486,0,0,1-.085-.11718l.29644-.055a.09926.09926,0,0,1-.02483.07472c.05392-.01868.07875-.083.04139-.1037l-.11813.01656c-.04352-.0622.06634-.03524.05179-.09945a.10561.10561,0,0,1,.14308.08915c.00414-.04978.07462-.1141-.03938-.1141.03938-.05381.12026-.02271.15751-.089-.03311-.0311-.12853-.06846-.07875-.12238l.01868-.01242c.08916-.12853-.1659-.141-.07462-.2612l.03524.00212c.04978-.0519-.027-.10582.02484-.18458-.01656.02282-.087.05392-.10359.01667.05381-.09128-.01455-.13066.058-.199l-.09946-.03736c-.00721-.22289-.15443-.935-.23117-1.33608.01242-.00722.02176-.01242.0363-.01964a1.40112,1.40112,0,0,0,.07876.12843c-.00828.01666-.01656.01454-.01656.01454a2.06078,2.06078,0,0,0,.14509.1555.13239.13239,0,0,1-.03725.06633c.02685-.03523.26949.286.26322.29433l.06432-.04554c.04766.06422-.05391.07876.00828.12026.09118-.04362.05594.09945.114.089a.03828.03828,0,0,1-.01868.04776c.05392-.02494.03736.02484.05806.03312.02282-.00828.01655-.01868.01655-.01868l.05392.0104a.084.084,0,0,1-.027.04978,3.75039,3.75039,0,0,0,.48718.74213c.01868-.0415-.027-.05392.01656-.11612.04978.00414.01656.05392.06018.0311-.07047.08916.03524.08916-.0311.18033l.0518-.029-.02282.03736c.15135.09117.04978.01029.12641.13055.0622.06634.14308.04766.15136.09956,0,0,.00828-.03949.03937-.0311-.03937.0311.05806.0207.027.06634.01868.01241.04978.07461.08714.00414-.01454.03311.01444.09531-.03322.08289,0,0,.01242.03726.03736.04564l-.00212-.03524c.04564.04968.03322.114.10986.10986l.00212-.03323c.0311.02909.05593.056.01029.10784l-.03937-.0208a.33034.33034,0,0,0,.13681.112l-.01242-.0207a1.619,1.619,0,0,1,.341.21037,1.50408,1.50408,0,0,0-.05912.81366,13.6411,13.6411,0,0,0,.97648,1.15056c.27565.35036.597.72971.881,1.11733-.0103.04872-.032.0985.01868.14307l.01242-.0104c.04564.03322-.002.08714-.00828.12026.0415.04352.07462-.01242.10784.01666-.01868.01136.02176.01858.07674.02484.03524.057.087.11092.11813.16791.228.39176.18659,1.01374.60744,1.18781a.76053.76053,0,0,0,.50787.03524c.228-.10986,2.583-5.224,2.52082-5.85424C80.70615,413.62927,79.81469,413.18359,79.4727,412.60109Zm-11.66919,9.74118a.12159.12159,0,0,1,.0259-.03216.17134.17134,0,0,1,.01348.04457Zm2.22235,1.6615-.00414.00107.00308-.00213Z" fill="#d9d9d9"/><path d="M88.87593,414.57041c-1.42206.05806-3.3417-.05392-4.81152-.0414-.52242.00616-1.88642-.06219-2.23466.27777-.19488.19275-.17418,1.04059-.25293,1.35986-.1244.45194-.40843.794-.54938,1.24173-.34825,1.13813-.52858,2.22861-.935,3.26092a1.78131,1.78131,0,0,0-.228.74627.5081.5081,0,0,0,.44982.46022c.44568.0726.81886-.09531,1.16711.15762l6.67936-.05392a3.75835,3.75835,0,0,0,1.959-.18245c.5722-.16579,1.11319.14095,1.34128-.427.50374-1.24385-1.67085-4.34514-2.06473-5.20339C89.17238,415.68986,89.07494,415.07213,88.87593,414.57041Z" fill="#d9d9d9"/><rect x="169.38784" y="108.89558" width="56.34157" height="28.9603" transform="translate(25.82089 280.71973) rotate(-74.48039)" fill="url(#linear-gradient-2)"/><polygon points="194.18 121.683 199.604 105.419 191.468 102.703 212.332 90.946 212.332 90.946 221.949 112.873 213.823 110.16 208.397 126.423 194.18 121.683" fill="#fff" stroke="#fff" stroke-linecap="round" stroke-linejoin="round" stroke-width="6.24"/><rect x="196.77844" y="121.38132" width="5.80255" height="14.98919" transform="translate(14.35652 277.65865) rotate(-71.59722)" stroke-width="6.24" stroke="#fff" stroke-linecap="round" stroke-linejoin="round" fill="#fff"/><rect x="196.16584" y="127.56064" width="2.90394" height="14.98901" transform="translate(7.00374 279.82725) rotate(-71.56613)" stroke-width="6.24" stroke="#fff" stroke-linecap="round" stroke-linejoin="round" fill="#fff"/><polygon points="194.18 121.683 199.604 105.419 191.468 102.703 212.332 90.946 212.332 90.946 221.949 112.873 213.823 110.16 208.397 126.423 194.18 121.683" fill="#252525"/><rect x="196.77844" y="121.38132" width="5.80255" height="14.98919" transform="translate(14.35652 277.65865) rotate(-71.59722)" fill="#252525"/><rect x="196.16584" y="127.56064" width="2.90394" height="14.98901" transform="translate(7.00374 279.82725) rotate(-71.56613)" fill="#252525"/><path d="M228.86248,23.00992A21.06956,21.06956,0,0,0,208.02531,41.0085c.55641-.01467,1.16091-.03352,1.30742-.05441a15.488,15.488,0,0,1,3.23188-.203c.11932.0105.24688.02935.38708.05227a2.71686,2.71686,0,0,0,1.95165-.28233,4.4042,4.4042,0,0,1,.5502-.228,1.99237,1.99237,0,0,1,.42049-.07947,1.92782,1.92782,0,0,0,.67979-.18829,5.41965,5.41965,0,0,0,.96651-1.28236,8.3686,8.3686,0,0,1,1.025-1.412,9.68208,9.68208,0,0,1,1.76348-1.15683,15.0829,15.0829,0,0,0,1.50621-.95387,8.09807,8.09807,0,0,0,1.39525-1.55645,9.35815,9.35815,0,0,1,1.09193-1.28022c1.1338-1.04384,2.48932-1.1714,4.36365-1.34716.39746-.04187.80746-.07529,1.2468-.13173.4644-.05238.956-.14652,1.4246-.23638.44973-.08579.87225-.16944,1.25515-.21346a6.17133,6.17133,0,0,1,3.621.75316,7.96812,7.96812,0,0,0,1.9915.707c.10453.01885.22588.03353.35141.05441.613.092,1.53545.23435,1.76133.58576a1.12353,1.12353,0,0,1-.24056,1.26554c-.89742,1.0146-3.13987,1.22378-4.79667.91a2.05182,2.05182,0,0,1-.433-.17147,1.3752,1.3752,0,0,0-.94338-.228,1.33864,1.33864,0,0,0-.51463.32838,1.49759,1.49759,0,0,1-.318.23221,7.36647,7.36647,0,0,1-2.80731.343l.00835.00418-.01874-.00418h.01039a2.33829,2.33829,0,0,0-1.05851.021c-.38483.228-.61082,1.686-.94338,4.0478a19.44919,19.44919,0,0,1-.433,2.49768,9.42174,9.42174,0,0,1-2.03756,3.07293c-.26776.316-.55641.6422-.81367.97069-.07112.09-.1402.15691-.20082.228a1.53632,1.53632,0,0,0-.37444.51036l-.05237.11931.10678.07947a2.76655,2.76655,0,0,1,1.3011,2.77379l-.01467.09415.08161.06073a1.72828,1.72828,0,0,1,.62753,1.0794c.05859.19867.12135.42466.21764.6694a4.46224,4.46224,0,0,0,2.98714,2.21524,3.57687,3.57687,0,0,0,1.69236.04809,1.76091,1.76091,0,0,0,.76772-.37861l.17158-.13592-.17576-.12349a5.94935,5.94935,0,0,0-1.92038-.6694c-1.43916-.33256-2.7905-.64424-2.56258-2.10439a1.00011,1.00011,0,0,1,.26155-.66523c.42885-.38911,2.58132.10047,3.61681.33888.29711.06276.55019.12553.73634.15691a14.17919,14.17919,0,0,0,1.69868.12552c1.46015.05024,3.2654.11086,3.71513.88908a1.40245,1.40245,0,0,1-.17565,1.33248,2.91572,2.91572,0,0,1-1.51242,1.32414,3.77547,3.77547,0,0,1-1.75309-.11921c-.2322-.05023-.44341-.09618-.6589-.12553l-.10668-.01467-.05227.09c-.92463,1.57315-2.10653,1.63377-3.87836,1.73006-.5669.03138-1.22377.07111-1.91406.16729a9.965,9.965,0,0,0-1.40992.31382,7.27869,7.27869,0,0,1-3.23831.343,13.79675,13.79675,0,0,1-2.6504-.83466,14.98763,14.98763,0,0,0-2.24041-.73217,4.4475,4.4475,0,0,0-2.31571.29915c-.24687.07743-.47072.15476-.68611.20714-.58361.13591-1.21124.24055-1.81788.35344-.36191.06694-1.17558.11717-1.94748.18626a21.05635,21.05635,0,1,0,17.56127-32.66686Z" fill="#686166"/><path d="M233.94373,50.26714a14.17919,14.17919,0,0,1-1.69868-.12552c-.18615-.03138-.43923-.09415-.73634-.15691-1.03549-.23841-3.188-.728-3.61681-.33888a1.00011,1.00011,0,0,0-.26155.66523c-.22792,1.46015,1.12342,1.77183,2.56258,2.10439a5.94935,5.94935,0,0,1,1.92038.6694l.17576.12349-.17158.13592a1.76091,1.76091,0,0,1-.76772.37861,3.57687,3.57687,0,0,1-1.69236-.04809,4.46224,4.46224,0,0,1-2.98714-2.21524c-.09629-.24474-.159-.47073-.21764-.6694a1.72828,1.72828,0,0,0-.62753-1.0794l-.08161-.06073.01467-.09415a2.76655,2.76655,0,0,0-1.3011-2.77379l-.10678-.07947.05237-.11931a1.53632,1.53632,0,0,1,.37444-.51036c.06062-.07111.1297-.138.20082-.228.25726-.32849.54591-.65473.81367-.97069a9.42174,9.42174,0,0,0,2.03756-3.07293,19.44919,19.44919,0,0,0,.433-2.49768c.33256-2.36176.55855-3.81977.94338-4.0478a2.33829,2.33829,0,0,1,1.05851-.021,7.36647,7.36647,0,0,0,2.80731-.343,1.49759,1.49759,0,0,0,.318-.23221,1.33864,1.33864,0,0,1,.51463-.32838,1.3752,1.3752,0,0,1,.94338.228,2.05182,2.05182,0,0,0,.433.17147c1.6568.31382,3.89925.10464,4.79667-.91a1.12353,1.12353,0,0,0,.24056-1.26554c-.22588-.35141-1.14837-.49376-1.76133-.58576-.12553-.02088-.24688-.03556-.35141-.05441a7.96812,7.96812,0,0,1-1.9915-.707,6.17133,6.17133,0,0,0-3.621-.75316c-.3829.044-.80542.12767-1.25515.21346-.46859.08986-.9602.184-1.4246.23638-.43934.05644-.84934.08986-1.2468.13173-1.87433.17576-3.22985.30332-4.36365,1.34716a9.35815,9.35815,0,0,0-1.09193,1.28022,8.09807,8.09807,0,0,1-1.39525,1.55645,15.0829,15.0829,0,0,1-1.50621.95387,9.68208,9.68208,0,0,0-1.76348,1.15683,8.3686,8.3686,0,0,0-1.025,1.412,5.41965,5.41965,0,0,1-.96651,1.28236,1.92782,1.92782,0,0,1-.67979.18829,1.99237,1.99237,0,0,0-.42049.07947,4.4042,4.4042,0,0,0-.5502.228,2.71686,2.71686,0,0,1-1.95165.28233c-.1402-.02292-.26776-.04177-.38708-.05227a15.488,15.488,0,0,0-3.23188.203c-.14651.02089-.751.03974-1.30742.05441a22.81552,22.81552,0,0,0-.21967,3.06458,20.94229,20.94229,0,0,0,3.49557,11.6037c.7719-.06909,1.58557-.11932,1.94748-.18626.60664-.11289,1.23427-.21753,1.81788-.35344.21539-.05238.43924-.12971.68611-.20714a4.4475,4.4475,0,0,1,2.31571-.29915,14.98763,14.98763,0,0,1,2.24041.73217,13.79675,13.79675,0,0,0,2.6504.83466,7.27869,7.27869,0,0,0,3.23831-.343,9.965,9.965,0,0,1,1.40992-.31382c.69029-.09618,1.34716-.13591,1.91406-.16729,1.77183-.09629,2.95373-.15691,3.87836-1.73006l.05227-.09.10668.01467c.21549.02935.4267.0753.6589.12553a3.77547,3.77547,0,0,0,1.75309.11921,2.91572,2.91572,0,0,0,1.51242-1.32414,1.40245,1.40245,0,0,0,.17565-1.33248C237.20913,50.378,235.40388,50.31738,233.94373,50.26714Z" fill="#d9d9d9"/><polygon points="230.272 35.239 230.264 35.235 230.254 35.235 230.272 35.239" fill="#d9d9d9"/><path d="M237.98521,35.555a2.66018,2.66018,0,0,0-.935.25512,3.47981,3.47981,0,0,1-.76355.249,16.876,16.876,0,0,1-1.79068.14641c-.52085.02506-1.002.04391-1.44762.10453l-.12971.01468a10.0535,10.0535,0,0,0-2.801.62334,1.47069,1.47069,0,0,0-.7719.9979,1.298,1.298,0,0,0,.2699,1.12963c.297.36394.502.39532,1.03131.49161.09821.01874.21956.03556.34509.06479a6.06135,6.06135,0,0,1,.62763.16109,6.46535,6.46535,0,0,0,1.07522.23638,14.95748,14.95748,0,0,0,4.52891-.3724c.44556-.08569.86808-.1673,1.2844-.23221a3.67946,3.67946,0,0,1,.47062-.04177,1.47724,1.47724,0,0,0,.68621-.136,1.57556,1.57556,0,0,0,.73217-1.12331,2.35747,2.35747,0,0,0-.51881-1.81788A2.11808,2.11808,0,0,0,237.98521,35.555Z" fill="#d9d9d9"/><path d="M241.1,41.86823c-.26776-.97487-1.26769-1.4141-2.74455-1.21542a2.59937,2.59937,0,0,0-.56476.16944,2.82048,2.82048,0,0,1-.54388.182,20.5538,20.5538,0,0,1-5.25069.1026c-.1673-.01467-.34723-.04188-.51667-.06276-1.06473-.1507-2.06883-.28243-2.7257.41417-.42681.45391-.56487.843-.42681,1.19443.24055.62335,1.62338,1.73841,8.14583,2.22788l.26572.02089a7.24561,7.24561,0,0,0,2.74241-.11086A2.66044,2.66044,0,0,0,241.1,41.86823Z" fill="#d9d9d9"/><path d="M237.57307,46.05612l.08579-.02506c-.05644-.00418-.4644,0-.78861.01467-.58361.01039-1.00828.0272-1.13381.01039-.58157-.05848-1.18189-.11085-1.82623-.1673-1.10243-.08365-2.2508-.17576-3.3784-.341a3.94317,3.94317,0,0,1-.67562-.17361,3.19328,3.19328,0,0,0-1.4518-.17566,1.3775,1.3775,0,0,0-1.10874,1.09611,1.42506,1.42506,0,0,0,.47072,1.53748c1.01246.728,4.26951,1.37448,6.13762,1.53963a5.94808,5.94808,0,0,0,1.03131-.01874,3.97881,3.97881,0,0,1,1.207.01874,2.56079,2.56079,0,0,1,.5774.22181,1.80526,1.80526,0,0,0,1.23213.23424,2.466,2.466,0,0,0,1.56255-1.1986,1.45711,1.45711,0,0,0,.21346-1.5543A2.43017,2.43017,0,0,0,237.57307,46.05612Z" fill="#d9d9d9"/><path d="M203.673,62.85763h50.38073a5.50419,5.50419,0,0,1,5.50419,5.50419v11.104a5.50168,5.50168,0,0,1-5.50168,5.50168H203.673a5.50168,5.50168,0,0,1-5.50168-5.50168V68.35931A5.50168,5.50168,0,0,1,203.673,62.85763Z" fill="#d9d9d9" stroke="#595959" stroke-miterlimit="10" stroke-width="1.56"/><path d="M226.0939,67.76172h8.29492v2.18066h-5.70117v2.72754h4.94141v2.01563h-4.94141v4.875H226.0939Z" fill="#252525"/></g><path d="M92.2858,188.1748c-2.07911-.11035-3.57422-1.42382-3.38965-3.60058a2.89756,2.89756,0,0,1,3.09961-2.87207c2.748.23144,2.72265,3.166,4.47754,4.64551l.3623-4.29,1.58106.13379-.56153,6.66211c-2.11328-.17872-2.873-1.54786-3.81543-3.20606-.49121-.83789-.9414-1.999-2.05566-2.09277a1.30776,1.30776,0,0,0-1.51465,1.24316c-.0918,1.08789,1.00586,1.5332,1.96484,1.61426Z" fill="#982e93"/><path d="M89.2565,180.25586l.54785-6.50586,1.71094.14355-.37793,4.47168,2.13965.18067.32617-3.876,1.58105.13379-.32617,3.875,3.82422.32324-.17187,2.03418Z" fill="#982e93"/><path d="M158.65884,231.15723c2.041.40429,3.33008,1.917,2.83789,4.043a2.89489,2.89489,0,0,1-3.47461,2.39746c-2.68359-.6211-2.23925-3.51953-3.76367-5.23145l-.96875,4.18945-1.54492-.35644,1.50586-6.50684c2.06348.47657,2.61816,1.93848,3.31445,3.71387.36524.89844.64551,2.11035,1.73438,2.3623a1.30712,1.30712,0,0,0,1.6748-1.01367c.24512-1.06347-.77636-1.66015-1.71289-1.876Z" fill="#982e93"/><path d="M160.51724,239.43555,159.04752,245.79l-1.6709-.38574,1.00976-4.36719-2.08886-.4834-.876,3.78418-1.54395-.35644.876-3.78516-3.73438-.86426.46-1.98633Z" fill="#982e93"/><path d="M125.04605,95.79492c-.10352.78906-.00293,1.93946,1.03613,1.98926a1.20127,1.20127,0,0,0,1.26953-1.22754c.04493-.93457-.62011-1.44824-1.55566-1.48047l.085-1.75293a3.01815,3.01815,0,0,1,2.99121,3.29395c-.07031,1.4541-1.04394,3.00781-2.667,2.92969a1.80833,1.80833,0,0,1-1.79492-1.36231l-.02637-.001a2.02271,2.02271,0,0,1-2.14258,1.51075,3.39237,3.39237,0,0,1,.65039-6.73633l-.084,1.75293c-.98926-.00879-1.81836.44629-1.86914,1.51074a1.39942,1.39942,0,0,0,1.35644,1.54883c1.377.0664,1.40918-1.14258,1.45215-2.03809Z" fill="#982e93"/><path d="M128.64761,101.19043l-.36718,6.51855-1.71387-.09668.252-4.47949-2.14258-.12109-.21875,3.88281-1.584-.08984.21875-3.88281-3.83008-.21583.11426-2.03906Z" fill="#982e93"/><path d="M63.529,273.14258c.06445-.793-.0918-1.93653-1.13086-1.93653a1.20174,1.20174,0,0,0-1.21,1.28711c0,.93555.68945,1.417,1.626,1.4043v1.75488a3.01742,3.01742,0,0,1-3.14649-3.14648c0-1.45606.89649-3.05469,2.52149-3.05469a1.80963,1.80963,0,0,1,1.85937,1.27344h.02637a2.02265,2.02265,0,0,1,2.06738-1.61133,3.39235,3.39235,0,0,1-.32519,6.75977v-1.75489c.9873-.03906,1.79394-.5332,1.79394-1.59961a1.39955,1.39955,0,0,0-1.43066-1.48144c-1.37793,0-1.35156,1.209-1.35156,2.10547Z" fill="#982e93"/><path d="M59.66763,267.97852v-6.52637h1.71582v4.48535H63.529v-3.8877H65.1149v3.8877h3.835v2.041Z" fill="#982e93"/><path d="M112.18233,89.32486q.03131-.7859.05853-1.50134" fill="none" stroke="#a4459f" stroke-linecap="square"/><path d="M112.38576,83.77225c.03039-.925.0451-1.44873.04437-1.47425a18.07182,18.07182,0,0,0-36.14355.05787V256.06546" fill="none" stroke="#a4459f" stroke-linecap="square" stroke-dasharray="3.0377 4.05027"/><line x1="76.28658" y1="258.08463" x2="76.28658" y2="259.58463" fill="none" stroke="#a4459f" stroke-linecap="square"/><path d="M138.5065,159.8916l2.61133,5.98242-1.57227.68653-1.7959-4.11133-1.96582.8584,1.55567,3.56347-1.4541.63477-1.55567-3.56348-3.51562,1.53516-.81641-1.87109Z" fill="#982e93"/><line x1="183.20676" y1="169.74014" x2="182.66122" y2="171.13736" fill="none" stroke="#a4459f" stroke-linecap="square"/><path d="M181.20932,174.85562l-8.99341,23.03321a18.34318,18.34318,0,0,1-32.88647,1.28564l-.20569-.38989-6.34748-14.54615" fill="none" stroke="#a4459f" stroke-linecap="square" stroke-dasharray="2.99384 3.99178"/><line x1="131.97806" y1="182.40909" x2="131.37814" y2="181.03433" fill="none" stroke="#a4459f" stroke-linecap="square"/><line x1="193.51006" y1="143.35227" x2="177.93664" y2="183.31893" fill="none" stroke="#982e93" stroke-linecap="square"/><path d="M173.36783,155.42188l2.375-6.082,1.59863.624-1.63184,4.17968,1.999.78028,1.415-3.62207,1.47754.57715-1.41407,3.62207,3.57422,1.3955-.74316,1.90235Z" fill="#982e93"/><path d="M60.58755,365.71777c1.67774,1.91114,5.084,2.93848,7.51465,2.97754v1.97657a13.29664,13.29664,0,0,1-7.38379-3.05567v4.31641H59.00162v-6.21485Z" fill="#982e93"/><path d="M58.82,364.32617v-6.52539H60.5358v4.48438h2.1455v-3.88672h1.58594v3.88672h3.835v2.041Z" fill="#982e93"/><line x1="75.76211" y1="356.5419" x2="75.76211" y2="358.0419" fill="none" stroke="#a4459f" stroke-linecap="square"/><line x1="75.76211" y1="361.34683" x2="75.76211" y2="371.26138" fill="none" stroke="#a4459f" stroke-linecap="square" stroke-dasharray="2.47864 3.30485"/><line x1="75.76211" y1="372.91373" x2="75.76211" y2="374.41373" fill="none" stroke="#a4459f" stroke-linecap="square"/><line x1="75.76209" y1="338.23675" x2="75.76209" y2="356.54191" fill="none" stroke="#982e93" stroke-linecap="square" stroke-width="7"/><path d="M104.55044,301.22266l2.71875-2.71973,1.19434,1.19434.95508,6.54-1.166,1.167-3.86718-3.86719-.8545.85449-1.07519-1.07519.85449-.8545-1.48828-1.4873,1.24023-1.24023Zm3.30665,3.30664.02832-.02735-.57032-3.8955-1.68945,1.69043Z" fill="#982e93"/><path d="M106.736,309.17676l-4.61133,4.61133-1.21289-1.21289,3.16992-3.16895-1.51562-1.51562L99.819,310.6377l-1.12012-1.1211,2.7461-2.74609-2.71-2.71,1.44238-1.44239Z" fill="#982e93"/><line x1="103.55013" y1="289.46685" x2="91.16441" y2="302.22685" fill="none" stroke="#982e93" stroke-linecap="square" stroke-width="4"/><path d="M110.83,117.14431c.60567-8.56232,1.35921-28.79076,1.60012-34.84634" fill="none" stroke="#982e93" stroke-linecap="square" stroke-width="3"/><line x1="76.28655" y1="244.36735" x2="76.28655" y2="293.35786" fill="none" stroke="#982e93" stroke-linecap="square" stroke-width="3"/><path d="M105.68615,185.8849c-2.07089,43.03472-4.1347,86.24993-4.1347,86.24993a18.25476,18.25476,0,0,0,.06836,2.47852,17.96784,17.96784,0,0,0,17.94531,16.30371c.58105,0,1.16992-.02832,1.751-.085a18.06849,18.06849,0,0,0,15.377-12.23535l.12695-.40918,7.397-35.14329" fill="none" stroke="#a4459f" stroke-linecap="square" stroke-dasharray="3 4"/><path d="M108.03387,157.68792c-.49724,10.27883-2.73116,37.43189-3.26213,48.46592" fill="none" stroke="#982e93" stroke-linecap="square" stroke-width="2"/><line x1="75.76209" y1="374.41373" x2="75.76209" y2="392.92836" fill="none" stroke="#982e93" stroke-linecap="square" stroke-width="7"/><line x1="135.06294" y1="189.37717" x2="120.69064" y2="156.54255" fill="none" stroke="#982e93" stroke-linecap="square"/><line x1="140.65516" y1="259.27995" x2="151.31702" y2="209.31167" fill="none" stroke="#982e93" stroke-linecap="square" stroke-width="2"/></g></g></svg>