<svg xmlns="http://www.w3.org/2000/svg" xmlns:xlink="http://www.w3.org/1999/xlink" viewBox="0 0 141.99834 326.46235"><defs><clipPath id="clip-path"><polygon points="0.113 326.462 -9.874 274.224 85.385 273.567 95.372 325.805 0.113 326.462" fill="none"/></clipPath><linearGradient id="Dégradé_sans_nom_2" x1="-317.8418" y1="256.40464" x2="-316.3418" y2="256.40464" gradientTransform="matrix(-3.85948, -20.18715, -137.12248, 0.94564, 33976.13628, -6352.21997)" gradientUnits="userSpaceOnUse"><stop offset="0" stop-color="#fff"/><stop offset="1"/></linearGradient><clipPath id="clip-path-2"><rect x="44.28351" y="75.06969" width="72.94173" height="76.29221" transform="translate(-48.66053 62.31522) rotate(-33.0302)" fill="none"/></clipPath><linearGradient id="Dégradé_sans_nom_2-2" x1="-316.02543" y1="257.78289" x2="-314.52543" y2="257.78289" gradientTransform="matrix(0, -15.99412, -14.92602, 0.00012, 3928.42784, -4941.36464)" xlink:href="#Dégradé_sans_nom_2"/><clipPath id="clip-path-3"><rect x="72.36148" y="132.7541" width="36.72083" height="38.44868" transform="translate(-76.55062 94.11815) rotate(-40.08464)" fill="none"/></clipPath><linearGradient id="Dégradé_sans_nom_2-3" x1="-317.51352" y1="259.11347" x2="-316.01352" y2="259.11347" gradientTransform="matrix(0, -14.24563, -14.24563, 0, 3781.95707, -4366.57838)" xlink:href="#Dégradé_sans_nom_2"/><clipPath id="clip-path-4" transform="translate(9.87456)"><polygon points="0 274.397 0.06 325.874 85.497 325.637 85.439 274.157 0 274.397" fill="none"/></clipPath><mask id="mask" x="-10.09927" y="272.84219" width="125.44469" height="54.34419" maskUnits="userSpaceOnUse"><g transform="translate(9.87456)"><g clip-path="url(#clip-path)"><polygon points="-9.736 327.186 -19.974 273.637 95.233 272.842 105.471 326.392 -9.736 327.186" fill="url(#Dégradé_sans_nom_2)"/></g></g></mask><linearGradient id="Dégradé_sans_nom_98" x1="-317.84179" y1="256.40464" x2="-316.34179" y2="256.40464" gradientTransform="matrix(-3.85948, -20.18715, -137.12248, 0.94564, 33986.01069, -6352.22118)" gradientUnits="userSpaceOnUse"><stop offset="0" stop-color="#fff"/><stop offset="1" stop-color="#fff"/></linearGradient><clipPath id="clip-path-5" transform="translate(9.87456)"><rect x="24.44252" y="54.50618" width="38.01151" height="199.24802" fill="none"/></clipPath><clipPath id="clip-path-7" transform="translate(9.87456)"><rect x="71.00138" y="83.98488" width="19.50601" height="58.46411" transform="translate(-48.66344 62.32125) rotate(-33.03278)" fill="none"/></clipPath><mask id="mask-2" x="-8.13977" y="14.4048" width="197.53661" height="197.62283" maskUnits="userSpaceOnUse"><g transform="translate(9.87456)"><g clip-path="url(#clip-path-2)"><rect x="9.41865" y="41.73644" width="142.67065" height="142.95953" transform="translate(-48.66077 62.31496) rotate(-33.03015)" fill="url(#Dégradé_sans_nom_2-2)"/></g></g></mask><linearGradient id="Dégradé_sans_nom_98-2" x1="-316.02543" y1="257.78285" x2="-314.52543" y2="257.78285" gradientTransform="matrix(0, -15.99412, -14.92602, 0.00012, 3928.42626, -4941.36635)" xlink:href="#Dégradé_sans_nom_98"/><clipPath id="clip-path-8" transform="translate(9.87456)"><rect x="82.11779" y="135.65997" width="17.20895" height="32.63694" transform="translate(-10.84401 7.02235) rotate(-4.18301)" fill="none"/></clipPath><mask id="mask-3" x="48.02875" y="99.40888" width="105.13605" height="105.13914" maskUnits="userSpaceOnUse"><g transform="translate(9.87456)"><g clip-path="url(#clip-path-3)"><rect x="53.41966" y="114.66317" width="74.6051" height="74.63056" transform="translate(-76.55137 94.12072) rotate(-40.08545)" fill="url(#Dégradé_sans_nom_2-3)"/></g></g></mask><linearGradient id="Dégradé_sans_nom_98-3" x1="-317.51352" y1="259.11344" x2="-316.01352" y2="259.11344" gradientTransform="matrix(0, -14.24563, -14.24563, 0, 3781.95505, -4366.5799)" xlink:href="#Dégradé_sans_nom_98"/></defs><title>MAESTRO-Pe06-rapport-mouflage-16</title><g id="Calque_2" data-name="Calque 2"><g id="Calque_1-2" data-name="Calque 1"><polyline points="35.778 322.2 35.778 266.439 17.365 266.439 54.184 239.169 90.994 266.439 72.561 266.439 72.561 322.2" fill="#ccc"/><polyline points="35.778 322.2 35.778 266.439 17.365 266.439 54.184 239.169 90.994 266.439 72.561 266.439 72.561 322.2" fill="none" stroke="#252525" stroke-width="1.2"/><g clip-path="url(#clip-path-4)"><g mask="url(#mask)"><polygon points="9.987 326.462 0 274.225 95.259 273.568 105.246 325.805 9.987 326.462" fill="url(#Dégradé_sans_nom_98)"/></g></g><line x1="46.18387" y1="232.6957" x2="43.84383" y2="235.5247" fill="none" stroke="#000" stroke-linecap="round" stroke-linejoin="round" stroke-width="0.6"/><path d="M52.84593,245.66694l-3.543-2.93548-10.81948-8.955a1.79691,1.79691,0,0,0-2.3475.705c-1.20149,1.4385-1.18648,2.013-.1815,2.83948,1.002.834,14.20948,11.7675,14.20948,11.7675s.726.198,1.90952-1.239c1.191-1.4355,1.011-1.989.77252-2.1825" transform="translate(9.87456)" fill="#d9d9d9" fill-rule="evenodd"/><path d="M52.84593,245.66694l-3.543-2.93548-10.81948-8.955a1.79691,1.79691,0,0,0-2.3475.705c-1.20149,1.4385-1.18648,2.013-.1815,2.83948,1.002.834,14.20948,11.7675,14.20948,11.7675s.726.198,1.90952-1.239C53.26442,246.41394,53.08443,245.86046,52.84593,245.66694Z" transform="translate(9.87456)" fill="none" stroke="#000" stroke-linecap="round" stroke-linejoin="round" stroke-width="0.6"/><path d="M37.7433,235.03794a.91045.91045,0,1,1-1.278.117.90765.90765,0,0,1,1.278-.117" transform="translate(9.87456)" fill="#fff" fill-rule="evenodd"/><path d="M37.7433,235.03794a.91045.91045,0,1,1-1.278.117A.90765.90765,0,0,1,37.7433,235.03794Z" transform="translate(9.87456)" fill="none" stroke="#000" stroke-linecap="round" stroke-linejoin="round" stroke-width="0.6"/><polygon points="62.384 243.288 49.583 232.692 49.068 233.313 47.774 232.243 45.479 235.023 48.545 237.553 47.552 238.75 46.599 237.958 45.8 238.917 57.789 248.839 58.583 247.885 55.974 245.721 56.924 244.573 59.523 246.735 62.384 243.288" fill="#fff" fill-rule="evenodd"/><polygon points="62.384 243.288 49.583 232.692 49.068 233.313 47.774 232.243 45.479 235.023 48.545 237.553 47.552 238.75 46.599 237.958 45.8 238.917 57.789 248.839 58.583 247.885 55.974 245.721 56.924 244.573 59.523 246.735 62.384 243.288" fill="none" stroke="#000" stroke-linecap="round" stroke-linejoin="round" stroke-width="0.6"/><path d="M33.74867,235.26655s-1.83751-.46649-2.763.56851" transform="translate(9.87456)" fill="none" stroke="#000" stroke-linecap="round" stroke-linejoin="round" stroke-width="0.6"/><path d="M35.99583,56.65524a12.33187,12.33187,0,0,1,12.276-.69447c5.184,2.769,4.78651,7.707,7.17751,15.9765.43647,1.51048,1.30348,4.488,1.614,5.079.3045.594,1.527,2.145-.684,3.97352-2.217,1.82547-6.606-1.69052-10.416-1.6305-3.813.0585-14.22753-11.21549-13.896-13.9125.33151-2.69549,3.92852-8.79153,3.92852-8.79153" transform="translate(9.87456)" fill="#f2f2f2"/><path d="M35.99583,56.65524a12.33187,12.33187,0,0,1,12.276-.69447c5.184,2.769,4.78651,7.707,7.17751,15.9765.43647,1.51048,1.30348,4.488,1.614,5.079.3045.594,1.527,2.145-.684,3.97352-2.217,1.82547-6.606-1.69052-10.416-1.6305-3.813.0585-14.22753-11.21549-13.896-13.9125C32.39882,62.75128,35.99583,56.65524,35.99583,56.65524Z" transform="translate(9.87456)" fill="none" stroke="#000" stroke-miterlimit="10" stroke-width="0.6"/><path d="M58.7682,61.93271c-.1755-4.59751-2.223-5.41649-3.291-5.50951a26.47977,26.47977,0,0,1-8.14952-1.05148c-4.72952-1.314-6.558-1.929-8.475-1.47-2.922.699-4.8555,4.1385-5.157,5.32352-.306,1.18048,2.274,1.88548,2.274,1.88548a35.18433,35.18433,0,0,0-1.161,7.83c.051,3.318-1.245,16.28252-1.245,16.28252l2.295,3.066s-1.63353,11.793,6.072,12.10051,7.86-10.5,7.86-10.5,4.65-1.158,6.021-4.80149c2.877-7.638,1.24951-16.06352,1.24951-16.06352s1.806-4.515,1.707-7.092m-13.875,32.574c-1.179,2.89952-3.927,2.2185-5.1735.654-1.254-1.56151-.381-5.7465.114-6.26551.4275-.4395.79651.13351,2.025.399,1.23.267,2.51248-.543,3.093-.1905.58054.351,1.119,2.50049-.05846,5.403" transform="translate(9.87456)" fill="#ffd900" stroke="#000" stroke-width="1.2"/><path d="M58.7682,61.93271c-.1755-4.59751-2.223-5.41649-3.291-5.50951a26.47977,26.47977,0,0,1-8.14952-1.05148c-4.72952-1.314-6.558-1.929-8.475-1.47-2.922.699-4.8555,4.1385-5.157,5.32352-.306,1.18048,2.274,1.88548,2.274,1.88548a35.18433,35.18433,0,0,0-1.161,7.83c.051,3.318-1.245,16.28252-1.245,16.28252l2.295,3.066s-1.63353,11.793,6.072,12.10051,7.86-10.5,7.86-10.5,4.65-1.158,6.021-4.80149c2.877-7.638,1.24951-16.06352,1.24951-16.06352S58.86717,64.50973,58.7682,61.93271Zm-13.875,32.574c-1.179,2.89952-3.927,2.2185-5.1735.654-1.254-1.56151-.381-5.7465.114-6.26551.4275-.4395.79651.13351,2.025.399,1.23.267,2.51248-.543,3.093-.1905C45.5322,89.45469,46.07066,91.60419,44.8932,94.50669Z" transform="translate(9.87456)" fill="none" stroke="#000" stroke-miterlimit="10" stroke-width="0.6"/><path d="M46.14857,55.02038c1.662.33454,5.892,3.795,6.195,4.656.2985.8595-2.061,6.441-2.061,6.441" transform="translate(9.87456)" fill="none" stroke="#000" stroke-miterlimit="10" stroke-width="0.6"/><path d="M43.692,54.33772s6.32547,4.077,6.63,5.08351c.30148,1.002-1.173,3.255-1.173,3.255" transform="translate(9.87456)" fill="none" stroke="#000" stroke-miterlimit="10" stroke-width="0.375"/><path d="M56.12132,57.31149S53.9073,72.184,50.98082,74.101" transform="translate(9.87456)" fill="none" stroke="#000" stroke-miterlimit="10" stroke-width="0.375"/><path d="M49.15009,71.9716c.219.13953,2.26048,1.764,1.122,2.646-1.14.882-3.024.189-3.82049-.159C45.65506,74.1121,49.15009,71.9716,49.15009,71.9716Z" transform="translate(9.87456)" fill="none" stroke="#000" stroke-miterlimit="10" stroke-width="0.6"/><line x1="57.97581" y1="73.93147" x2="60.49278" y2="73.7485" fill="none" stroke="#000" stroke-miterlimit="10" stroke-width="0.375"/><path d="M57.06166,69.02438a113.40787,113.40787,0,0,0-7.272,20.865" transform="translate(9.87456)" fill="none" stroke="#000" stroke-miterlimit="10" stroke-width="0.6"/><path d="M37.29076,87.351c1.383.915,5.30246,2.86652,8.35647.22952,3.057-2.6385,4.086-5.89952,3.9885-7.5525" transform="translate(9.87456)" fill="none" stroke="#000" stroke-miterlimit="10" stroke-width="0.6"/><path d="M38.26337,217.7323s5.59346-.9,8.151-.939c2.55451-.039,8.41352.24449,10.335,3.456,1.917,3.207,3.3555,15.525,1.743,20.03849-.855,2.397-3.741,7.7235-7.068,10.08151-3.33152,2.358-8.682,3.0645-11.532-.069-2.8515-3.13351-6.894-14.4105-6.894-14.4105Z" transform="translate(9.87456)" fill="#ffd900" stroke="#000" stroke-width="1.2"/><path d="M38.26337,217.7323s5.59346-.9,8.151-.939c2.55451-.039,8.41352.24449,10.335,3.456,1.917,3.207,3.3555,15.525,1.743,20.03849-.855,2.397-3.741,7.7235-7.068,10.08151-3.33152,2.358-8.682,3.0645-11.532-.069-2.8515-3.13351-6.894-14.4105-6.894-14.4105Z" transform="translate(9.87456)" fill="none" stroke="#000" stroke-miterlimit="10" stroke-width="0.6"/><path d="M45.53778,216.68349a8.35479,8.35479,0,0,1,7.33649,6.864,73.60722,73.60722,0,0,1,1.41,10.5135,4.97161,4.97161,0,0,1,.465,1.86c-.051.74849-.07352,3.36749.30748,3.795.381.432.639.73949.639.73949a31.29194,31.29194,0,0,1-1.30948,4.131,11.62751,11.62751,0,0,0-1.035,1.57649c-.17848.49951-.81752,3.50251-2.54851,4.404" transform="translate(9.87456)" fill="none" stroke="#000" stroke-miterlimit="10" stroke-width="0.6"/><path d="M43.4079,252.11364a9.03565,9.03565,0,0,0,5.505-2.89048,6.4449,6.4449,0,0,0,1.668-4.95c-.198-.61951-.324-.681-.45749-1.2375-.135-.5595-.2325-2.98651-.2325-2.98651a2.9615,2.9615,0,0,0,2.14948-2.1555,12.082,12.082,0,0,0,.62553-3.624l.43351-.441s.279-9.975-2.763-13.044" transform="translate(9.87456)" fill="none" stroke="#000" stroke-miterlimit="10" stroke-width="0.6"/><path d="M33.35028,233.14254l9.399-11.17648-1.416-122.19752a8.20191,8.20191,0,0,1-3.093-1.032l1.413,122.12249-3.33,3.957-1.938-146.26048-3.08249.04349Z" transform="translate(9.87456)" fill="#f2f2f2"/><path d="M33.35028,233.14254l9.399-11.17648-1.416-122.19752a8.20191,8.20191,0,0,1-3.093-1.032l1.413,122.12249-3.33,3.957-1.938-146.26048-3.08249.04349Z" transform="translate(9.87456)" fill="#01a0c6" stroke="#000" stroke-width="0.8"/><path d="M43.75067,92.52038a6.24565,6.24565,0,0,1,1.8225.603l-1.362,2.766c-.822-.4065-1.119-.321-1.122-.321-.7365.59851-.168,5.2695.705,7.1565,1.179,2.54248,1.587,11.10749,1.59151,11.19149l-3.08254.13651c-.126-2.862-.67049-8.661-1.3065-10.03352-.4065-.879-2.70447-8.07449-.051-10.66049a3.1447,3.1447,0,0,1,2.805-.83851" transform="translate(9.87456)" fill="#01a0c6" stroke="#000" stroke-width="0.8"/><path d="M43.75067,92.52038a6.24565,6.24565,0,0,1,1.8225.603l-1.362,2.766c-.822-.4065-1.119-.321-1.122-.321-.7365.59851-.168,5.2695.705,7.1565,1.179,2.54248,1.587,11.10749,1.59151,11.19149l-3.08254.13651c-.126-2.862-.67049-8.661-1.3065-10.03352-.4065-.879-2.70447-8.07449-.051-10.66049A3.1447,3.1447,0,0,1,43.75067,92.52038Z" transform="translate(9.87456)" fill="none" stroke="#000" stroke-miterlimit="10" stroke-width="0.6"/><path d="M43.94115,104.94819c.144,1.056,1.70549,21.5565,3.3555,43.26,2.352,30.9075,5.016,65.9385,5.39245,68.6925.07352.528.16054,1.101.255,1.71.44852,2.883.99449,6.435.42151,9.264a14.41472,14.41472,0,0,1,.91649,5.118c3.414-3.852,2.406-10.362,1.70851-14.856-.09-.588-.17551-1.14451-.246-1.653-.366-2.66251-3.144-39.17251-5.37451-68.50651-2.25751-29.6865-3.261-42.774-3.38549-43.5195a39.72642,39.72642,0,0,1-.33151-6.1485,5.802,5.802,0,0,1-3.093,1.782,40.16362,40.16362,0,0,0,.38105,4.857" transform="translate(9.87456)" fill="#f2f2f2"/><path d="M43.94115,104.94819c.144,1.056,1.70549,21.5565,3.3555,43.26,2.352,30.9075,5.016,65.9385,5.39245,68.6925.07352.528.16054,1.101.255,1.71.44852,2.883.99449,6.435.42151,9.264a14.41472,14.41472,0,0,1,.91649,5.118c3.414-3.852,2.406-10.362,1.70851-14.856-.09-.588-.17551-1.14451-.246-1.653-.366-2.66251-3.144-39.17251-5.37451-68.50651-2.25751-29.6865-3.261-42.774-3.38549-43.5195a39.72642,39.72642,0,0,1-.33151-6.1485,5.802,5.802,0,0,1-3.093,1.782A40.16362,40.16362,0,0,0,43.94115,104.94819Z" transform="translate(9.87456)" fill="#01a0c6" stroke="#000" stroke-width="0.8"/><path d="M52.19115,81.704c-.01053.67053-.04651,1.42053-.08853,2.271-.03447.708-.0705,1.467-.096,2.28452l-.6015,19.662c-1.12651,36.7755-3.477,113.301-3.53252,116.874-.0585,3.8895-1.29148,6.231-4.113,7.83l1.51648,2.6835c3.795-2.148,5.60253-5.475,5.68048-10.467.057-3.54751,2.403-80.0595,3.531-116.82752l.6015-19.662c.024-.79953.0585-1.53754.093-2.2305.153-3.18.273-5.66854-1.119-7.99654Z" transform="translate(9.87456)" fill="#f2f2f2"/><path d="M52.19115,81.704c-.01053.67053-.04651,1.42053-.08853,2.271-.03447.708-.0705,1.467-.096,2.28452l-.6015,19.662c-1.12651,36.7755-3.477,113.301-3.53252,116.874-.0585,3.8895-1.29148,6.231-4.113,7.83l1.51648,2.6835c3.795-2.148,5.60253-5.475,5.68048-10.467.057-3.54751,2.403-80.0595,3.531-116.82752l.6015-19.662c.024-.79953.0585-1.53754.093-2.2305.153-3.18.273-5.66854-1.119-7.99654Z" transform="translate(9.87456)" fill="#01a0c6" stroke="#000" stroke-width="0.8"/><path d="M51.29008,65.95993c-.681-2.00849-1.326-2.013-1.782-5.13149-.18452-1.308-6.48752-7.99351-12.24-7.182-2.787.393-6.19052,4.70549-6.77852,8.53047a90.91144,90.91144,0,0,0-1.062,10.5315c-.033,2.37753-.279,14.47952,6.9435,15.807,7.22548,1.32751,9.174-7.5585,9.525-8.21246.348-.6525,6.07352-12.339,5.394-14.343M38.16962,68.39441c-2.91454.528-4.03954-.79949-4.371-3.435-.33-2.63553,2.106-6.705,3.8265-6.879,1.67848-.168,2.721,1.87949,3.42448,4.12647.70949,2.244.04349,5.66551-2.88,6.1875" transform="translate(9.87456)" fill="#ffd900" stroke="#000" stroke-width="1.2"/><path d="M51.29008,65.95993c-.681-2.00849-1.326-2.013-1.782-5.13149-.18452-1.308-6.48752-7.99351-12.24-7.182-2.787.393-6.19052,4.70549-6.77852,8.53047a90.91144,90.91144,0,0,0-1.062,10.5315c-.033,2.37753-.279,14.47952,6.9435,15.807,7.22548,1.32751,9.174-7.5585,9.525-8.21246C46.24411,79.65045,51.96959,67.96393,51.29008,65.95993ZM38.16962,68.39441c-2.91454.528-4.03954-.79949-4.371-3.435-.33-2.63553,2.106-6.705,3.8265-6.879,1.67848-.168,2.721,1.87949,3.42448,4.12647C41.75908,64.45091,41.09308,67.87242,38.16962,68.39441Z" transform="translate(9.87456)" fill="none" stroke="#000" stroke-miterlimit="10" stroke-width="0.6"/><path d="M44.34105,63.69084c.01048.687-.38553,1.254-.89552,1.2615-.501.009-.918-.54446-.92849-1.233-.012-.687.387-1.257.891-1.263C43.915,62.44737,44.329,63.00387,44.34105,63.69084Z" transform="translate(9.87456)" fill="none" stroke="#000" stroke-miterlimit="10" stroke-width="0.6"/><path d="M39.2097,79.44954a2.8286,2.8286,0,0,1-2.571,3.039,3.02558,3.02558,0,0,1-.09151-5.99547A2.82981,2.82981,0,0,1,39.2097,79.44954Z" transform="translate(9.87456)" fill="none" stroke="#000" stroke-miterlimit="10" stroke-width="0.6"/><path d="M43.446,64.952a7.21774,7.21774,0,0,1,3.96446,4.5,3.841,3.841,0,0,0,.77252-2.511,8.94175,8.94175,0,0,0-.6-1.623c-.003-.144-2.736-2.982-4.17453-2.862" transform="translate(9.87456)" fill="none" stroke="#000" stroke-miterlimit="10" stroke-width="0.6"/><line x1="58.17801" y1="62.18786" x2="57.45799" y2="65.31837" fill="none" stroke="#000" stroke-miterlimit="10" stroke-width="0.375"/><path d="M46.66576,68.02238s-1.41152,5.016-2.367,5.319c-1.02-.75151-2.41653-4.068-6.68852-4.122a6.65854,6.65854,0,0,0-5.33849,2.676" transform="translate(9.87456)" fill="none" stroke="#000" stroke-miterlimit="10" stroke-width="0.375"/><path d="M47.74622,234.41337c.03-6.174-.363-11.217-1.64553-13.56151-1.284-2.349-2.193-4.827-7.48947-4.62151-2.81552.111-6.735,3.783-6.96,9.08251-.22948,5.301-.79948,12.6015.993,15.87749,1.79553,3.27452,5.58453,10.25551,10.56454,9.9315a6.24074,6.24074,0,0,0,6.138-6.018c-.08248-1.4325-1.629-4.5225-1.60047-10.69049m-4.35,12.78c-1.80152.33751-5.736-4.089-6.82351-5.9415-1.089-1.84948-.252-4.35,2.853-4.7775,3.04646-.423,4.06947.996,4.209,2.115a40.38651,40.38651,0,0,0,1.4415,4.65c.333,1.053.123,3.6105-1.68,3.954" transform="translate(9.87456)" fill="#ffd900" stroke="#000" stroke-width="1.2"/><path d="M47.74622,234.41337c.03-6.174-.363-11.217-1.64553-13.56151-1.284-2.349-2.193-4.827-7.48947-4.62151-2.81552.111-6.735,3.783-6.96,9.08251-.22948,5.301-.79948,12.6015.993,15.87749,1.79553,3.27452,5.58453,10.25551,10.56454,9.9315a6.24074,6.24074,0,0,0,6.138-6.018C49.26421,243.67136,47.7177,240.58136,47.74622,234.41337Zm-4.35,12.78c-1.80152.33751-5.736-4.089-6.82351-5.9415-1.089-1.84948-.252-4.35,2.853-4.7775,3.04646-.423,4.06947.996,4.209,2.115a40.38651,40.38651,0,0,0,1.4415,4.65C45.40919,244.29236,45.19922,246.84987,43.39622,247.19335Z" transform="translate(9.87456)" fill="none" stroke="#000" stroke-miterlimit="10" stroke-width="0.6"/><path d="M34.02992,234.124a8.236,8.236,0,0,0,5.568,1.224c2.361-.40949,3.957-1.932,4.578-2.19149" transform="translate(9.87456)" fill="none" stroke="#000" stroke-miterlimit="10" stroke-width="0.375"/><path d="M40.8723,225.1708a2.96078,2.96078,0,0,1-2.631,3.219,3.22545,3.22545,0,0,1-.099-6.357A2.96749,2.96749,0,0,1,40.8723,225.1708Z" transform="translate(9.87456)" fill="none" stroke="#000" stroke-miterlimit="10" stroke-width="0.6"/><path d="M40.364,62.59358a2.91478,2.91478,0,0,1-2.595,3.165,3.16463,3.16463,0,0,1-.099-6.24A2.91391,2.91391,0,0,1,40.364,62.59358Z" transform="translate(9.87456)" fill="none" stroke="#000" stroke-linecap="round" stroke-linejoin="round" stroke-width="0.6"/><g opacity="0.8"><g clip-path="url(#clip-path-5)"><g clip-path="url(#clip-path-5)"><path d="M56.51385,110.32119c.01946-1.485-1.00053-16.17449-1.08-16.98a15.58484,15.58484,0,0,1-4.2615.3435c-1.158-.12451-6.07352-1.3455-12.42-1.9665a55.67161,55.67161,0,0,0-10.281.009l-1.53149.17551-1.42653,33.5985s-2.30548,7.6035,1.05753,13.6575c3.363,6.057,6.792,6.003,6.792,6.003s-6.1365,4.434-5.08648,8.91752c1.0485,4.485,4.584,11.17948,4.584,11.17948s-6.48,3.4755-5.30548,5.547a7.2313,7.2313,0,0,0,2.82147,2.85s-1.91551,2.92351-2.04749,4.8555c-.135,1.929-.58351,4.668.588,6.0945a8.703,8.703,0,0,0,3.135,2.20349s-4.677,3.92851-1.059,5.319c0,0-3.20251,4.3905,1.74147,6.88651,0,0-1.24195,4.19549-1.04548,6.282.19652,2.085-.123,2.41351-.402,5.63251a60.90269,60.90269,0,0,0-.051,7.23449l.399.606c1.97553.1995,11.085,1.0785,13.236.606,2.41653-.5265,13.63953-1.563,13.63953-1.563s2.2965-.0135,1.94549-1.455a12.517,12.517,0,0,0-1.1895-2.87551s2.41049-2.6085,1.902-3.726c-.504-1.11752-2.628-1.341-2.628-1.341s4.734-.39752,3.36452-4.23c-1.365-3.837-3.28052-11.361-3.28052-11.361s1.746-3.08249-1.212-4.3215c0,0-1.08-6.41249-2.72552-7.03049,0,0,6.999-12.162,4.83151-15.0225a14.8139,14.8139,0,0,0-3.81752-3.798s3.522-4.87351,3.13651-8.5635a80.30325,80.30325,0,0,0-2.622-10.887s4.31547-6.33751,3.2325-12.91352c-1.08454-6.57-3.07952-8.394-2.934-19.9665" transform="translate(9.87456)" fill="#f2f2f2"/><path d="M56.51385,110.32119c.01946-1.485-1.00053-16.17449-1.08-16.98a15.58484,15.58484,0,0,1-4.2615.3435c-1.158-.12451-6.07352-1.3455-12.42-1.9665a55.67161,55.67161,0,0,0-10.281.009l-1.53149.17551-1.42653,33.5985s-2.30548,7.6035,1.05753,13.6575c3.363,6.057,6.792,6.003,6.792,6.003s-6.1365,4.434-5.08648,8.91752c1.0485,4.485,4.584,11.17948,4.584,11.17948s-6.48,3.4755-5.30548,5.547a7.2313,7.2313,0,0,0,2.82147,2.85s-1.91551,2.92351-2.04749,4.8555c-.135,1.929-.58351,4.668.588,6.0945a8.703,8.703,0,0,0,3.135,2.20349s-4.677,3.92851-1.059,5.319c0,0-3.20251,4.3905,1.74147,6.88651,0,0-1.24195,4.19549-1.04548,6.282.19652,2.085-.123,2.41351-.402,5.63251a60.90269,60.90269,0,0,0-.051,7.23449l.399.606c1.97553.1995,11.085,1.0785,13.236.606,2.41653-.5265,13.63953-1.563,13.63953-1.563s2.2965-.0135,1.94549-1.455a12.517,12.517,0,0,0-1.1895-2.87551s2.41049-2.6085,1.902-3.726c-.504-1.11752-2.628-1.341-2.628-1.341s4.734-.39752,3.36452-4.23c-1.365-3.837-3.28052-11.361-3.28052-11.361s1.746-3.08249-1.212-4.3215c0,0-1.08-6.41249-2.72552-7.03049,0,0,6.999-12.162,4.83151-15.0225a14.8139,14.8139,0,0,0-3.81752-3.798s3.522-4.87351,3.13651-8.5635a80.30325,80.30325,0,0,0-2.622-10.887s4.31547-6.33751,3.2325-12.91352C58.36331,123.71769,56.36833,121.8937,56.51385,110.32119Z" transform="translate(9.87456)" fill="none" stroke="#000" stroke-miterlimit="10" stroke-width="0.6"/><path d="M54.35912,79.80563c-1.731-.261-4.77-10.428-5.64-14.02647-1.08-4.449-3.627-10.74449-8.67-10.95452-5.472-.228-10.49249,1.6035-10.863,5.502-.369,3.891-.72,18.4455-.831,20.607s-1.857,10.1115-1.41449,10.968c0,0,.564-.081,1.53-.174a55.65732,55.65732,0,0,1,10.28247-.0105c6.345.621,11.262,1.8435,12.41854,1.968a15.55061,15.55061,0,0,0,4.263-.345,2.92244,2.92244,0,0,0,1.764-.9015c.702-1.164.49951-14.26948.49951-14.26948-.81747,3.168-3.339,1.63646-3.339,1.63646" transform="translate(9.87456)" fill="#f2f2f2"/><path d="M54.35912,79.80563c-1.731-.261-4.77-10.428-5.64-14.02647-1.08-4.449-3.627-10.74449-8.67-10.95452-5.472-.228-10.49249,1.6035-10.863,5.502-.369,3.891-.72,18.4455-.831,20.607s-1.857,10.1115-1.41449,10.968c0,0,.564-.081,1.53-.174a55.65732,55.65732,0,0,1,10.28247-.0105c6.345.621,11.262,1.8435,12.41854,1.968a15.55061,15.55061,0,0,0,4.263-.345,2.92244,2.92244,0,0,0,1.764-.9015c.702-1.164.49951-14.26948.49951-14.26948C56.88062,81.33717,54.35912,79.80563,54.35912,79.80563Z" transform="translate(9.87456)" fill="none" stroke="#000" stroke-miterlimit="10" stroke-width="0.6"/><path d="M59.42747,232.95054a31.21315,31.21315,0,0,0,.10346-6.336c-.14548-1.37249-1.02-8.802-1.02-8.802s-11.2245,1.03652-13.63948,1.563c-2.1525.47251-11.26053-.40651-13.236-.606-.243-.027-.38251-.039-.38251-.039s-.0525,5.739-.09,8.75551c-.039,3.0165-.339,5.78549-.333,6.73949,0,.9525-.12451,7.143-.12451,7.143s-.879,2.343.4785,3.96748c1.359,1.623,3.054,4.4415,4.269,5.6445,1.218,1.203,4.33649,3.282,7.83147,2.1435,3.492-1.137,3.42-1.83149,4.137-2.6355,4.54354-5.094,12.0645-5.499,12.0645-5.499s1.47153-.4515,1.419-1.254c-.054-.79649-1.77749-8.019-1.47748-10.785" transform="translate(9.87456)" fill="#f2f2f2"/><path d="M59.42747,232.95054a31.21315,31.21315,0,0,0,.10346-6.336c-.14548-1.37249-1.02-8.802-1.02-8.802s-11.2245,1.03652-13.63948,1.563c-2.1525.47251-11.26053-.40651-13.236-.606-.243-.027-.38251-.039-.38251-.039s-.0525,5.739-.09,8.75551c-.039,3.0165-.339,5.78549-.333,6.73949,0,.9525-.12451,7.143-.12451,7.143s-.879,2.343.4785,3.96748c1.359,1.623,3.054,4.4415,4.269,5.6445,1.218,1.203,4.33649,3.282,7.83147,2.1435,3.492-1.137,3.42-1.83149,4.137-2.6355,4.54354-5.094,12.0645-5.499,12.0645-5.499s1.47153-.4515,1.419-1.254C60.85094,242.93905,59.12746,235.71655,59.42747,232.95054Z" transform="translate(9.87456)" fill="none" stroke="#000" stroke-miterlimit="10" stroke-width="0.6"/><path d="M60.40443,241.02473s-3.27154.225-4.275.37951a24.98555,24.98555,0,0,0-3.957.99,36.94364,36.94364,0,0,0-7.43252,5.064c-2.925,2.88451-5.2815,2.37452-7.2.91652a72.8432,72.8432,0,0,1-6.83551-7.005" transform="translate(9.87456)" fill="#f2f2f2"/><path d="M60.40443,241.02473s-3.27154.225-4.275.37951a24.98555,24.98555,0,0,0-3.957.99,36.94364,36.94364,0,0,0-7.43252,5.064c-2.925,2.88451-5.2815,2.37452-7.2.91652a72.8432,72.8432,0,0,1-6.83551-7.005" transform="translate(9.87456)" fill="none" stroke="#000" stroke-miterlimit="10" stroke-width="0.6"/><path d="M54.986,218.29628a43.8198,43.8198,0,0,1,1.98,7.914,55.38512,55.38512,0,0,1,.0705,7.41,58.38571,58.38571,0,0,0,.363,7.4385c.171.63,1.035,3.801.5685,4.098" transform="translate(9.87456)" fill="#f2f2f2"/><path d="M54.986,218.29628a43.8198,43.8198,0,0,1,1.98,7.914,55.38512,55.38512,0,0,1,.0705,7.41,58.38571,58.38571,0,0,0,.363,7.4385c.171.63,1.035,3.801.5685,4.098" transform="translate(9.87456)" fill="none" stroke="#000" stroke-miterlimit="10" stroke-width="0.6"/><path d="M43.50165,244.92563c-.02555,1.623-1.068,2.92651-2.32952,2.90552-1.2615-.0195-2.265-1.347-2.244-2.9685.024-1.62452,1.0665-2.928,2.331-2.907,1.2615.015,2.26652,1.347,2.24254,2.97" transform="translate(9.87456)" fill="#f2f2f2"/><path d="M43.50165,244.92563c-.02555,1.623-1.068,2.92651-2.32952,2.90552-1.2615-.0195-2.265-1.347-2.244-2.9685.024-1.62452,1.0665-2.928,2.331-2.907C42.52061,241.97065,43.52563,243.30266,43.50165,244.92563Z" transform="translate(9.87456)" fill="none" stroke="#000" stroke-miterlimit="10" stroke-width="0.6"/><path d="M32.861,165.25869c3.018-1.41749,13.605-5.706,10.41746-8.97" transform="translate(9.87456)" fill="#f2f2f2"/><path d="M32.861,165.25869c3.018-1.41749,13.605-5.706,10.41746-8.97" transform="translate(9.87456)" fill="none" stroke="#000" stroke-miterlimit="10" stroke-width="0.6"/><path d="M56.21507,143.20105c-1.75653,2.07751-5.73454,1.62-6.567,3.6795-1.09351,2.6925,1.83449,3.273,3.21451,5.1495" transform="translate(9.87456)" fill="#f2f2f2"/><path d="M56.21507,143.20105c-1.75653,2.07751-5.73454,1.62-6.567,3.6795-1.09351,2.6925,1.83449,3.273,3.21451,5.1495" transform="translate(9.87456)" fill="none" stroke="#000" stroke-miterlimit="10" stroke-width="0.6"/><path d="M32.8185,169.05849c5.76146,1.365,12.462,1.08451,17.38948-2.53649" transform="translate(9.87456)" fill="#f2f2f2"/><path d="M32.8185,169.05849c5.76146,1.365,12.462,1.08451,17.38948-2.53649" transform="translate(9.87456)" fill="none" stroke="#000" stroke-miterlimit="10" stroke-width="0.6"/><path d="M32.05247,186.80949c3.34946-.05848,8.20047-1.257,11.5275-1.596,1.0725-.1095,2.262-.39,3.08547.045-4.29,3.033-11.4105,3.85949-15.672,6.87" transform="translate(9.87456)" fill="#f2f2f2"/><path d="M32.05247,186.80949c3.34946-.05848,8.20047-1.257,11.5275-1.596,1.0725-.1095,2.262-.39,3.08547.045-4.29,3.033-11.4105,3.85949-15.672,6.87" transform="translate(9.87456)" fill="none" stroke="#000" stroke-miterlimit="10" stroke-width="0.6"/><path d="M57.41176,188.50285c-2.478,1.128-7.893,3.5625-9.57454,5.676a15.67676,15.67676,0,0,0,8.42253.294" transform="translate(9.87456)" fill="#f2f2f2"/><path d="M57.41176,188.50285c-2.478,1.128-7.893,3.5625-9.57454,5.676a15.67676,15.67676,0,0,0,8.42253.294" transform="translate(9.87456)" fill="none" stroke="#000" stroke-miterlimit="10" stroke-width="0.6"/><path d="M58.53978,208.41594c-1.66653-.26848-14.694-4.269-15.357-2.271-.756,2.2605,5.331,3.768,6.585,3.98549,1.701.30151,3.477.2775,5.16.50851" transform="translate(9.87456)" fill="#f2f2f2"/><path d="M58.53978,208.41594c-1.66653-.26848-14.694-4.269-15.357-2.271-.756,2.2605,5.331,3.768,6.585,3.98549,1.701.30151,3.477.2775,5.16.50851" transform="translate(9.87456)" fill="none" stroke="#000" stroke-miterlimit="10" stroke-width="0.6"/><path d="M34.69785,215.77524c4.57347.19052,9.084.28052,13.6875.20851" transform="translate(9.87456)" fill="#f2f2f2"/><path d="M34.69785,215.77524c4.57347.19052,9.084.28052,13.6875.20851" transform="translate(9.87456)" fill="none" stroke="#000" stroke-miterlimit="10" stroke-width="0.6"/><path d="M29.2077,61.66794s3.93448-3.345,7.533-3.5745c4.0275-.25648,6.228-.82049,8.03851,4.485,1.81051,5.29949,5.63251,17.736,7.692,19.08449,2.25453,1.476,3.714,1.239,5.271-.65849" transform="translate(9.87456)" fill="none" stroke="#000" stroke-miterlimit="10" stroke-width="0.6"/><path d="M54.5289,93.53108a22.872,22.872,0,0,0,.05246-3.048c-.111-.88048.04051-3.729-.00746-6.876-.048-3.144.15-2.952-.21451-3.801" transform="translate(9.87456)" fill="#f2f2f2"/><path d="M54.5289,93.53108a22.872,22.872,0,0,0,.05246-3.048c-.111-.88048.04051-3.729-.00746-6.876-.048-3.144.15-2.952-.21451-3.801" transform="translate(9.87456)" fill="none" stroke="#000" stroke-miterlimit="10" stroke-width="0.6"/></g></g></g><path d="M50.43333,69.9736c2.46149,2.385,6.888,9.82352,8.81548,12.735.996,2.001,18.759,29.31747,34.8945,54.309.573-.681,2.1975-2.316,2.79451-2.9865-17.289-26.5245-33.3615-50.52147-34.56152-53.136l-.1095-.231c-2.82449-4.242-7.61247-11.526-10.431-14.259,0,0-.62251-.66746-.61652-.645a2.41233,2.41233,0,0,1,.01951,1.51653c-.24152.975-.387,1.476-.519,1.869-.132.3945-.28647.828-.28647.828" transform="translate(9.87456)" fill="#f2f2f2"/><path d="M50.43333,69.9736c2.46149,2.385,6.888,9.82352,8.81548,12.735.996,2.001,18.759,29.31747,34.8945,54.309.573-.681,2.1975-2.316,2.79451-2.9865-17.289-26.5245-33.3615-50.52147-34.56152-53.136l-.1095-.231c-2.82449-4.242-7.61247-11.526-10.431-14.259,0,0-.62251-.66746-.61652-.645a2.41233,2.41233,0,0,1,.01951,1.51653c-.24152.975-.387,1.476-.519,1.869C50.58783,69.54014,50.43333,69.9736,50.43333,69.9736Z" transform="translate(9.87456)" fill="#01a0c6" stroke="#000" stroke-width="0.8"/><g clip-path="url(#clip-path-7)"><g mask="url(#mask-2)"><rect x="44.28391" y="75.07019" width="72.94169" height="76.29196" transform="translate(-38.78606 62.31533) rotate(-33.03013)" fill="url(#Dégradé_sans_nom_98-2)"/></g></g><path d="M126.34877,109.268a62.63,62.63,0,0,1-8.535-1.986c-1.62754-.5655-3.666-1.13551-3.666-1.13551l-13.017-.7185-2.3085,9.693,2.55748,7.905,5.80952,2.838a22.0865,22.0865,0,0,0,4.50449,1.4745,28.07837,28.07837,0,0,1,4.0155.915,64.63284,64.63284,0,0,1,6.49952,2.553" transform="translate(9.87456)" fill="none" stroke="#000" stroke-miterlimit="10" stroke-width="0.6"/><path d="M70.115,108.68063s-2.109.159-2.91751-.678c-.807-.846-1.428-.4365-1.644-2.4345-.21748-1.995-.105-2.5215,1.026-3.66a16.20351,16.20351,0,0,0,1.773-2.0625A2.55749,2.55749,0,0,1,67.094,98.24515a5.15952,5.15952,0,0,1,1.39051-3.402,4.79194,4.79194,0,0,1,3.465-1.269c1.086.23552,2.229.855,3.66147,1.134,1.4355.2715,3.483.18148,4.2675.29549a25.5941,25.5941,0,0,1,3.603,1.15951,11.065,11.065,0,0,1,4.2165-.966c1.809.12,4.00649.55351,4.9335,1.446a7.67918,7.67918,0,0,0,2.74649,1.74449,3.92985,3.92985,0,0,0,2.091.4365c.49952.04951,3.97651.48452,3.849,2.70751,0,0,1.368-.942,1.068.174a13.88416,13.88416,0,0,1,4.569.5625c2.08347.70951,2.67449,1.28851,3.891,1.59a5.37774,5.37774,0,0,0,1.878.2145c.558.018,1.446.37649,1.42351,2.0745,0,0-1.047-.16049-1.69648,1.293-.648,1.45051-3.147,6.63-3.31352,8.3865-.165,1.75951-.77248,5.556-.79948,6.981a9.0384,9.0384,0,0,0,.39747,3.099,1.19546,1.19546,0,0,0,.95252.92251,2.817,2.817,0,0,1-1.239.45,3.65643,3.65643,0,0,1-3.63752-.984s-.702,1.983-3.55348.70949a1.31276,1.31276,0,0,1-1.188,1.008,12.90407,12.90407,0,0,1-2.58746-.45,6.90043,6.90043,0,0,1-3.669.525l-1.10248-.387s-.219.186-.459.3645c-.24152.177-.90752-.2385-1.04251.093-.13651.336-.39752,1.11452-1.077,1.281a3.42718,3.42718,0,0,1-2.30246-.057s-.924,1.45049-2.07454,1.42348c-1.152-.0285-1.02.46951-2.826.01051-1.8045-.459-2.439-.9435-2.27252-1.482,0,0-1.8105.09-2.41351-.87451-.6015-.96751-1.608-1.488-1.398-2.955.21149-1.46249.27448-2.151.27448-2.151a3.93113,3.93113,0,0,1-2.643-.85952c-1.248-1.008-1.944-3.507-1.755-5.589a6.723,6.723,0,0,1-2.904-1.29448,4.17761,4.17761,0,0,1-1.47-2.649,4.38089,4.38089,0,0,1,.72-2.97,14.72773,14.72773,0,0,1,1.047-1.311" transform="translate(9.87456)" fill="#fff"/><path d="M70.115,108.68063s-2.109.159-2.91751-.678c-.807-.846-1.428-.4365-1.644-2.4345-.21748-1.995-.105-2.5215,1.026-3.66a16.20351,16.20351,0,0,0,1.773-2.0625A2.55749,2.55749,0,0,1,67.094,98.24515a5.15952,5.15952,0,0,1,1.39051-3.402,4.79194,4.79194,0,0,1,3.465-1.269c1.086.23552,2.229.855,3.66147,1.134,1.4355.2715,3.483.18148,4.2675.29549a25.5941,25.5941,0,0,1,3.603,1.15951,11.065,11.065,0,0,1,4.2165-.966c1.809.12,4.00649.55351,4.9335,1.446a7.67918,7.67918,0,0,0,2.74649,1.74449,3.92985,3.92985,0,0,0,2.091.4365c.49952.04951,3.97651.48452,3.849,2.70751,0,0,1.368-.942,1.068.174a13.88416,13.88416,0,0,1,4.569.5625c2.08347.70951,2.67449,1.28851,3.891,1.59a5.37774,5.37774,0,0,0,1.878.2145c.558.018,1.446.37649,1.42351,2.0745,0,0-1.047-.16049-1.69648,1.293-.648,1.45051-3.147,6.63-3.31352,8.3865-.165,1.75951-.77248,5.556-.79948,6.981a9.0384,9.0384,0,0,0,.39747,3.099,1.19546,1.19546,0,0,0,.95252.92251,2.817,2.817,0,0,1-1.239.45,3.65643,3.65643,0,0,1-3.63752-.984s-.702,1.983-3.55348.70949a1.31276,1.31276,0,0,1-1.188,1.008,12.90407,12.90407,0,0,1-2.58746-.45,6.90043,6.90043,0,0,1-3.669.525l-1.10248-.387s-.219.186-.459.3645c-.24152.177-.90752-.2385-1.04251.093-.13651.336-.39752,1.11452-1.077,1.281a3.42718,3.42718,0,0,1-2.30246-.057s-.924,1.45049-2.07454,1.42348c-1.152-.0285-1.02.46951-2.826.01051-1.8045-.459-2.439-.9435-2.27252-1.482,0,0-1.8105.09-2.41351-.87451-.6015-.96751-1.608-1.488-1.398-2.955.21149-1.46249.27448-2.151.27448-2.151a3.93113,3.93113,0,0,1-2.643-.85952c-1.248-1.008-1.944-3.507-1.755-5.589a6.723,6.723,0,0,1-2.904-1.29448,4.17761,4.17761,0,0,1-1.47-2.649,4.38089,4.38089,0,0,1,.72-2.97A14.72773,14.72773,0,0,1,70.115,108.68063Z" transform="translate(9.87456)" fill="none" stroke="#000" stroke-miterlimit="10" stroke-width="0.6"/><path d="M68.35277,99.84609a8.08075,8.08075,0,0,1,2.613-1.422c1.37251-.381,3.00151-.71248,4.5645-1.0185a22.29527,22.29527,0,0,1,4.071-.882c1.98747-.13348,3.021-.021,3.88051-.36" transform="translate(9.87456)" fill="none" stroke="#000" stroke-miterlimit="10" stroke-width="0.6"/><path d="M70.115,108.68063s1.12949-.9,1.818-1.506c.69-.6045,1.689-1.026,1.764-1.602a.73978.73978,0,0,0-.82947-.78449,5.07737,5.07737,0,0,0-1.12349.53849" transform="translate(9.87456)" fill="none" stroke="#000" stroke-miterlimit="10" stroke-width="0.6"/><path d="M72.7224,116.90575a10.36582,10.36582,0,0,1,1.209-4.04549" transform="translate(9.87456)" fill="none" stroke="#000" stroke-miterlimit="10" stroke-width="0.6"/><path d="M77.11981,123.354s.132-1.002-.40054-1.056a1.32773,1.32773,0,0,0-1.15947.8085" transform="translate(9.87456)" fill="none" stroke="#000" stroke-miterlimit="10" stroke-width="0.6"/><path d="M87.8307,129.38169a3.75274,3.75274,0,0,0-3.4665.07951" transform="translate(9.87456)" fill="none" stroke="#000" stroke-miterlimit="10" stroke-width="0.6"/><path d="M101.25751,127.00434a8.87024,8.87024,0,0,0-2.28154-.93148c-1.02448-.19952-3.945-.50551-4.317-1.76251a13.39959,13.39959,0,0,1-.054-8.5485c1.35452-4.25851,2.47952-10.734,6.7125-14.2305" transform="translate(9.87456)" fill="none" stroke="#000" stroke-miterlimit="10" stroke-width="0.6"/><path d="M96.18768,98.69184s3.5235,1.443,3.88047,3.138" transform="translate(9.87456)" fill="none" stroke="#000" stroke-miterlimit="10" stroke-width="0.6"/><path d="M112.05048,105.1708s-2.298,1.5555-3.77555,6.2625c-1.4805,4.713-2.38046,7.998-2.33546,9.78751.048,1.79249-.126,4.09649-1.128,5.0745" transform="translate(9.87456)" fill="none" stroke="#000" stroke-miterlimit="10" stroke-width="0.6"/><path d="M73.5558,90.65575c3.936,5.685,7.113,11.80051,10.87949,17.58751.78749,1.209,2.736.08251,1.94247-1.137-3.76648-5.787-6.94349-11.901-10.87948-17.58751-.819-1.1835-2.772-.06-1.94248,1.137" transform="translate(9.87456)"/><path d="M79.21458,106.52138c2.19.975,4.287,2.14952,6.555,2.94452a1.13342,1.13342,0,0,0,1.42346-1.086,37.00431,37.00431,0,0,0-.44847-6.9345c-.23552-1.4295-2.403-.822-2.17049.5985a33.78625,33.78625,0,0,1,.369,6.336q.71328-.54228,1.42351-1.08451c-2.08049-.7305-4.005-1.81949-6.015-2.7165-1.314-.58649-2.46,1.353-1.137,1.94249" transform="translate(9.87456)"/><path d="M90.06615,129.46223a32.915,32.915,0,0,1,2.88446,14.65652c-.486,11.304-.21749,17.08649,2.676,21.46648l-2.50346,1.65152c-3.351-5.07152-3.6855-11.2695-3.16951-23.247a30.53454,30.53454,0,0,0-3.44252-14.988,8.26,8.26,0,0,1,1.03052.25951,3.95873,3.95873,0,0,0,1.06952.327,4.7515,4.7515,0,0,0,.996-.036c.20851-.042.459-.09.459-.09" transform="translate(9.87456)" fill="#fff"/><path d="M90.06615,129.46223a32.915,32.915,0,0,1,2.88446,14.65652c-.486,11.304-.21749,17.08649,2.676,21.46648l-2.50346,1.65152c-3.351-5.07152-3.6855-11.2695-3.16951-23.247a30.53454,30.53454,0,0,0-3.44252-14.988,8.26,8.26,0,0,1,1.03052.25951,3.95873,3.95873,0,0,0,1.06952.327,4.7515,4.7515,0,0,0,.996-.036C89.81561,129.51025,90.06615,129.46223,90.06615,129.46223Z" transform="translate(9.87456)" fill="#01a0c6" stroke="#000" stroke-width="0.8"/><g clip-path="url(#clip-path-8)"><g mask="url(#mask-3)"><rect x="72.36139" y="132.75279" width="36.72174" height="38.44984" transform="translate(-66.67631 94.12052) rotate(-40.08543)" fill="url(#Dégradé_sans_nom_98-3)"/></g></g><path d="M83.19417,80.74678h7.5293v1.98047h-5.1748v2.47461h4.48486v1.83007H85.54867v4.42481h-2.3545Z" transform="translate(9.87456)" fill="#252525"/><path d="M35.00116,56.1235c-.501.033-.939-.468-.981-1.12047a1.07478,1.07478,0,0,1,.82049-1.24649c.50253-.033.942.46949.984,1.125A1.07053,1.07053,0,0,1,35.00116,56.1235Z" transform="translate(9.87456)" fill="none" stroke="#000" stroke-linecap="round" stroke-linejoin="round" stroke-width="0.6"/><path d="M47.73647,25.76887c.984,2.385.963,4.77452.97045,7.683.01053,2.57551.03754,15.756-.375,22.0605,1.07854.22352,2.154.456,3.2325.684.04354.009.08853.012.13353.021l.18.00449c.37052-.021.741-.024,1.116-.05246.483-8.247.85052-27.80105-.807-31.88851-1.869-4.60652-6.69448-6.65249-12.792-5.214-7.05753,1.66351-9.366,7.63349-10.152,9.675a6.39806,6.39806,0,0,0-.0645,3.144,1.29917,1.29917,0,0,0-.144.726c.03.453.15449,2.54549.15449,2.54549l2.12851,4.91253,4.4085.765-.05251-3.54748-.774-2.42849s-.2265-2.52754-.2535-2.922c-.02848-.396-.744-.594-.744-.594a7.02551,7.02551,0,0,0,.80251-1.737,8.8778,8.8778,0,0,1,3.99751-4.86c2.37-1.167,7.656-2.31752,9.03452,1.023" transform="translate(9.87456)" fill="#f2f2f2"/><path d="M47.73647,25.76887c.984,2.385.963,4.77452.97045,7.683.01053,2.57551.03754,15.756-.375,22.0605,1.07854.22352,2.154.456,3.2325.684.04354.009.08853.012.13353.021l.18.00449c.37052-.021.741-.024,1.116-.05246.483-8.247.85052-27.80105-.807-31.88851-1.869-4.60652-6.69448-6.65249-12.792-5.214-7.05753,1.66351-9.366,7.63349-10.152,9.675a6.39806,6.39806,0,0,0-.0645,3.144,1.29917,1.29917,0,0,0-.144.726c.03.453.15449,2.54549.15449,2.54549l2.12851,4.91253,4.4085.765-.05251-3.54748-.774-2.42849s-.2265-2.52754-.2535-2.922c-.02848-.396-.744-.594-.744-.594a7.02551,7.02551,0,0,0,.80251-1.737,8.8778,8.8778,0,0,1,3.99751-4.86C41.07193,23.57889,46.358,22.42839,47.73647,25.76887Z" transform="translate(9.87456)" fill="none" stroke="#000" stroke-width="0.6"/><path d="M40.30833,61.82019a7.98614,7.98614,0,0,1-.453-1.095,3.011,3.011,0,0,1-1.017-.92853c-.64051-1.12047-1.33649-1.07849-1.827-1.9005a4.45024,4.45024,0,0,1-.486-3.183l-.825-2.3025-3.0525.13948-1.69648,3.513s-.144,2.001,1.872,4.653a17.5989,17.5989,0,0,0,5.50951,4.995,3.39869,3.39869,0,0,0,1.97552-3.891" transform="translate(9.87456)" fill="#f2f2f2"/><path d="M40.30833,61.82019a7.98614,7.98614,0,0,1-.453-1.095,3.011,3.011,0,0,1-1.017-.92853c-.64051-1.12047-1.33649-1.07849-1.827-1.9005a4.45024,4.45024,0,0,1-.486-3.183l-.825-2.3025-3.0525.13948-1.69648,3.513s-.144,2.001,1.872,4.653a17.5989,17.5989,0,0,0,5.50951,4.995A3.39869,3.39869,0,0,0,40.30833,61.82019Z" transform="translate(9.87456)" fill="none" stroke="#000" stroke-width="0.6"/><path d="M33.90257,31.34274a15.45966,15.45966,0,0,0-3.453.159c-.303.213-.28954.94652-.21753,1.488a1.52292,1.52292,0,0,0,.468.96451.60947.60947,0,0,1,.228.52648" transform="translate(9.87456)" fill="none" stroke="#000" stroke-linecap="round" stroke-linejoin="round" stroke-width="0.6"/><path d="M29.17845,31.8862a23.85132,23.85132,0,0,1,.342,2.739" transform="translate(9.87456)" fill="none" stroke="#000" stroke-linecap="round" stroke-linejoin="round" stroke-width="0.375"/><path d="M30.567,34.57419a3.19183,3.19183,0,0,1-.5625-1.59c-.144-1.1115-.4785-2.451-.2205-3.0645a2.46793,2.46793,0,0,1,2.157-1.47148c1.17151-.042,2.742-.13051,2.88451.489" transform="translate(9.87456)" fill="none" stroke="#000" stroke-linecap="round" stroke-linejoin="round" stroke-width="0.375"/><path d="M36.4704,55.78508a1.25884,1.25884,0,0,1-.861,1.37851,6.966,6.966,0,0,1-1.4295.25351" transform="translate(9.87456)" fill="none" stroke="#000" stroke-linecap="round" stroke-linejoin="round" stroke-width="0.6"/><path d="M38.46107,59.31686c.006.06752.318.96451-.261,1.233a3.21154,3.21154,0,0,1-1.89.309,6.50079,6.50079,0,0,1-1.5915-.513,4.908,4.908,0,0,1-1.42049-.618,2.131,2.131,0,0,1-.82951-1.45949" transform="translate(9.87456)" fill="none" stroke="#000" stroke-linecap="round" stroke-linejoin="round" stroke-width="0.375"/><path d="M32.66327,38.89254a7.545,7.545,0,0,1-.147-1.671,3.78931,3.78931,0,0,1,.4215-1.401,1.69517,1.69517,0,0,0-.01648-1.341c-.17253-.14548-.17253-.1155-.40049-.096-.59551.051-3.47251.318-3.9825.363-.504.04349-.642.20549-.48454,1.995.15152,1.791.36451,4.209.36451,4.209s-.114.0585-.0975.25653c.015.20247.0705.79646.087.99449.01648.201.28647.339.28647.339l.186,2.127a.26851.26851,0,0,0-.174.29554c.0195.24.066.756.08249.936.012.17848.279.234.279.234l.195,2.24849a.286.286,0,0,0-.231.3225c.027.276.072.83551.08249.933.006.10048.27452.195.27452.195l.18,2.02949a.39656.39656,0,0,0-.246.44248c.03149.35852.069.8145.09,1.014a.32949.32949,0,0,0,.22353.264s.147,1.71.183,2.08649c.02852.378.189.56547.49054.618a1.284,1.284,0,0,1,.882.52949c.36.41254.792,1.515,1.14,1.587.348.069,1.76248-.099,1.848-.486a13.77037,13.77037,0,0,0-.111-2.01448c-.01648-.41854-.027-1.79252.474-2.0625a1.59034,1.59034,0,0,1,1.3065-.126c.48147.261.621,2.07152.621,2.07152s.735-.021.936-.0195a.2555.2555,0,0,0,.2775-.282c-.01351-.141-.21451-2.4705-.21451-2.4705a.48586.48586,0,0,0,.15-.351c-.01648-.19949-.072-.79651-.08551-.957-.01351-.156-.354-.411-.354-.411l-.17249-1.98747s.31348-.087.29549-.264c-.01653-.18-.0705-.837-.084-.9765-.01048-.13953-.42-.44554-.42-.44554l-.168-1.93049s.324-.186.33-.348c.00751-.16049-.06752-.777-.07951-.933-.0135-.159-.37349-.39-.37349-.39l-.177-2.02954s.315-.027.3-.24747c-.0195-.216-.08551-.951-.102-1.1505a.42873.42873,0,0,0-.18452-.306s-.0255-1.422-.05251-2.22c-.03149-.79948-.24-3.54-.2985-3.663s-.25347-.16351-.465-.15a4.10135,4.10135,0,0,1-.474-.003,1.02155,1.02155,0,0,0-.255.387,1.43817,1.43817,0,0,0-.006.71851,7.311,7.311,0,0,1,.354,1.119,14.32951,14.32951,0,0,1,.25054,2.3865,3.64886,3.64886,0,0,1-.22353.627,7.381,7.381,0,0,1-1.8045.05251c-.2385-.144-.54749-.144-.70647-.648" transform="translate(9.87456)" fill="#f2f2f2"/><path d="M32.66327,38.89254a7.545,7.545,0,0,1-.147-1.671,3.78931,3.78931,0,0,1,.4215-1.401,1.69517,1.69517,0,0,0-.01648-1.341c-.17253-.14548-.17253-.1155-.40049-.096-.59551.051-3.47251.318-3.9825.363-.504.04349-.642.20549-.48454,1.995.15152,1.791.36451,4.209.36451,4.209s-.114.0585-.0975.25653c.015.20247.0705.79646.087.99449.01648.201.28647.339.28647.339l.186,2.127a.26851.26851,0,0,0-.174.29554c.0195.24.066.756.08249.936.012.17848.279.234.279.234l.195,2.24849a.286.286,0,0,0-.231.3225c.027.276.072.83551.08249.933.006.10048.27452.195.27452.195l.18,2.02949a.39656.39656,0,0,0-.246.44248c.03149.35852.069.8145.09,1.014a.32949.32949,0,0,0,.22353.264s.147,1.71.183,2.08649c.02852.378.189.56547.49054.618a1.284,1.284,0,0,1,.882.52949c.36.41254.792,1.515,1.14,1.587.348.069,1.76248-.099,1.848-.486a13.77037,13.77037,0,0,0-.111-2.01448c-.01648-.41854-.027-1.79252.474-2.0625a1.59034,1.59034,0,0,1,1.3065-.126c.48147.261.621,2.07152.621,2.07152s.735-.021.936-.0195a.2555.2555,0,0,0,.2775-.282c-.01351-.141-.21451-2.4705-.21451-2.4705a.48586.48586,0,0,0,.15-.351c-.01648-.19949-.072-.79651-.08551-.957-.01351-.156-.354-.411-.354-.411l-.17249-1.98747s.31348-.087.29549-.264c-.01653-.18-.0705-.837-.084-.9765-.01048-.13953-.42-.44554-.42-.44554l-.168-1.93049s.324-.186.33-.348c.00751-.16049-.06752-.777-.07951-.933-.0135-.159-.37349-.39-.37349-.39l-.177-2.02954s.315-.027.3-.24747c-.0195-.216-.08551-.951-.102-1.1505a.42873.42873,0,0,0-.18452-.306s-.0255-1.422-.05251-2.22c-.03149-.79948-.24-3.54-.2985-3.663s-.25347-.16351-.465-.15a4.10135,4.10135,0,0,1-.474-.003,1.02155,1.02155,0,0,0-.255.387,1.43817,1.43817,0,0,0-.006.71851,7.311,7.311,0,0,1,.354,1.119,14.32951,14.32951,0,0,1,.25054,2.3865,3.64886,3.64886,0,0,1-.22353.627,7.381,7.381,0,0,1-1.8045.05251C33.13124,39.39659,32.82225,39.39659,32.66327,38.89254Z" transform="translate(9.87456)" fill="none" stroke="#000" stroke-width="0.6"/><line x1="45.06757" y1="34.43498" x2="45.52954" y2="39.74499" fill="none" stroke="#000" stroke-linecap="round" stroke-linejoin="round" stroke-width="0.375"/><path d="M33.48949,39.62048c.22046.024,2.709.357,2.80948-.111" transform="translate(9.87456)" fill="none" stroke="#000" stroke-linecap="round" stroke-linejoin="round" stroke-width="0.6"/><line x1="46.21898" y1="40.28561" x2="38.29294" y2="40.95015" fill="none" stroke="#000" stroke-linecap="round" stroke-linejoin="round" stroke-width="0.375"/><path d="M36.33124,41.99064s-7.4745.573-7.638.54905" transform="translate(9.87456)" fill="none" stroke="#000" stroke-linecap="round" stroke-linejoin="round" stroke-width="0.375"/><line x1="46.38158" y1="44.01941" x2="38.75404" y2="44.66742" fill="none" stroke="#000" stroke-linecap="round" stroke-linejoin="round" stroke-width="0.375"/><path d="M36.63,45.69084s-7.227.576-7.563.44252" transform="translate(9.87456)" fill="none" stroke="#000" stroke-linecap="round" stroke-linejoin="round" stroke-width="0.375"/><path d="M36.79848,47.6215s-.29554.13051-7.53452.76053" transform="translate(9.87456)" fill="none" stroke="#000" stroke-linecap="round" stroke-linejoin="round" stroke-width="0.375"/><path d="M37.00653,49.30749a60.05787,60.05787,0,0,1-7.617.525" transform="translate(9.87456)" fill="none" stroke="#000" stroke-linecap="round" stroke-linejoin="round" stroke-width="0.375"/><path d="M37.17934,51.29529s-5.82.672-7.611.567" transform="translate(9.87456)" fill="none" stroke="#000" stroke-linecap="round" stroke-linejoin="round" stroke-width="0.375"/><path d="M37.46942,53.01355a50.39611,50.39611,0,0,1-7.833.56854" transform="translate(9.87456)" fill="none" stroke="#000" stroke-linecap="round" stroke-linejoin="round" stroke-width="0.375"/><path d="M34.54262,53.83972c.573-.336,2.589-.72748,2.42248,1.602" transform="translate(9.87456)" fill="none" stroke="#000" stroke-linecap="round" stroke-linejoin="round" stroke-width="0.375"/><path d="M34.49432,53.85446a1.55422,1.55422,0,0,0-.924,1.69652,20.21756,20.21756,0,0,0,.231,2.42248" transform="translate(9.87456)" fill="none" stroke="#000" stroke-linecap="round" stroke-linejoin="round" stroke-width="0.375"/><path d="M35.174,39.48864c.32547-.021.66.009.786-.41395a5.25027,5.25027,0,0,0,.036-2.00853,4.5581,4.5581,0,0,0-.56548-1.845l-.0585-.654.15147-.2265" transform="translate(9.87456)" fill="none" stroke="#000" stroke-linecap="round" stroke-linejoin="round" stroke-width="0.375"/><path d="M40.06517,249.86364a1.10567,1.10567,0,0,0-.639-.58648.98355.98355,0,0,0-1.11149.86249,1.04529,1.04529,0,0,0,.89849,1.296" transform="translate(9.87456)" fill="none" stroke="#000" stroke-linecap="round" stroke-linejoin="round" stroke-width="0.6"/><path d="M38.29848,251.229a1.28484,1.28484,0,0,1-.28954-1.245c.17253-.66.501-.744.6975-.78752a1.46726,1.46726,0,0,1,.82653.111" transform="translate(9.87456)" fill="none" stroke="#000" stroke-linecap="round" stroke-linejoin="round" stroke-width="0.6"/><path d="M40.33759,248.73279s-.06153-.33449-.933-.6a5.25633,5.25633,0,0,0-2.0235-.483,1.11012,1.11012,0,0,0-.8145,1.011" transform="translate(9.87456)" fill="none" stroke="#000" stroke-linecap="round" stroke-linejoin="round" stroke-width="0.6"/><path d="M43.34193,243.46674a3.09086,3.09086,0,0,0-1.2225-1.3185,3.1213,3.1213,0,0,0-1.32152-.186,15.57579,15.57579,0,0,0-5.29948,5.04449c-.006-.04349-1.38,2.80351-1.38,2.80351l5.3985,3.075,1.416-1.78349.927-3.4845a5.11252,5.11252,0,0,0,.87749-.49651c.1155-.081.25951-.204.41551-.33749.09449-.555.501-1.08.501-1.62751a3.72949,3.72949,0,0,0-.312-1.689" transform="translate(9.87456)" fill="#ffd900" stroke="#000" stroke-width="0.8"/><path d="M43.34193,243.46674a3.09086,3.09086,0,0,0-1.2225-1.3185,3.1213,3.1213,0,0,0-1.32152-.186,15.57579,15.57579,0,0,0-5.29948,5.04449c-.006-.04349-1.38,2.80351-1.38,2.80351l5.3985,3.075,1.416-1.78349.927-3.4845a5.11252,5.11252,0,0,0,.87749-.49651c.1155-.081.25951-.204.41551-.33749.09449-.555.501-1.08.501-1.62751A3.72949,3.72949,0,0,0,43.34193,243.46674Z" transform="translate(9.87456)" fill="none" stroke="#000" stroke-width="0.6"/><path d="M54.362,247.34409a6.63552,6.63552,0,0,1-1.28553,1.461,19.62681,19.62681,0,0,1-.05251,2.415c-.12749,1.923-2.817,20.247-4.065,25.23-1.248,4.989-2.59648,6.7815-5.11047,6.7815a10.09488,10.09488,0,0,1-8.403-4.4955c-1.49547-2.481-1.08449-2.57851-1.1445-3.24451a8.12951,8.12951,0,0,0-.4785-1.74s.78749-.045.849-.276c.06-.234.91352-3.5205.91352-3.5205l-5.535-1.653a25.67787,25.67787,0,0,0-.813,3.8565c.144.28352-.828,1.99052-.738,2.355s.57449,6.0495,4.557,9.381c3.978,3.33,12.189,6.471,17.382,1.09349,2.592-2.68049,3.2325-8.56948,3.83254-11.769.5955-3.198,3.3435-18.09,3.45-22.629a16.589,16.589,0,0,0-.64948-5.32649,4.04258,4.04258,0,0,0-2.709,2.08049" transform="translate(9.87456)" fill="#ffd900" stroke="#000" stroke-width="1.2"/><path d="M54.362,247.34409a6.63552,6.63552,0,0,1-1.28553,1.461,19.62681,19.62681,0,0,1-.05251,2.415c-.12749,1.923-2.817,20.247-4.065,25.23-1.248,4.989-2.59648,6.7815-5.11047,6.7815a10.09488,10.09488,0,0,1-8.403-4.4955c-1.49547-2.481-1.08449-2.57851-1.1445-3.24451a8.12951,8.12951,0,0,0-.4785-1.74s.78749-.045.849-.276c.06-.234.91352-3.5205.91352-3.5205l-5.535-1.653a25.67787,25.67787,0,0,0-.813,3.8565c.144.28352-.828,1.99052-.738,2.355s.57449,6.0495,4.557,9.381c3.978,3.33,12.189,6.471,17.382,1.09349,2.592-2.68049,3.2325-8.56948,3.83254-11.769.5955-3.198,3.3435-18.09,3.45-22.629a16.589,16.589,0,0,0-.64948-5.32649A4.04258,4.04258,0,0,0,54.362,247.34409Z" transform="translate(9.87456)" fill="none" stroke="#000" stroke-width="0.6"/><path d="M33.822,273.75234a13.15763,13.15763,0,0,1-3.144-.753c-.5895-.234-.711-.24749-.669-.594a4.3243,4.3243,0,0,1,.41551-1.413c.186-.23249.79949-.336.909-.93" transform="translate(9.87456)" fill="none" stroke="#000" stroke-linecap="round" stroke-linejoin="round" stroke-width="0.6"/><path d="M30.05,272.075s-1.431,2.223-.15454,3.3435c1.27954,1.12352,4.20451,1.6965,4.374.3105" transform="translate(9.87456)" fill="none" stroke="#000" stroke-linecap="round" stroke-linejoin="round" stroke-width="0.375"/><path d="M30.03978,269.41345a18.26226,18.26226,0,0,1-.78754,2.95052" transform="translate(9.87456)" fill="none" stroke="#000" stroke-linecap="round" stroke-linejoin="round" stroke-width="0.6"/><path d="M43.052,246.6103s.45-.618-.669-1.17a3.94206,3.94206,0,0,0-2.46451-.534c-.6525.093-2.37149.4335-3.579,3.669" transform="translate(9.87456)" fill="none" stroke="#000" stroke-linecap="round" stroke-linejoin="round" stroke-width="0.375"/><path d="M42.05434,247.26938a1.70947,1.70947,0,0,1-.003.97953c-.13651.72-1.278,4.75348-1.278,4.75348a.78192.78192,0,0,1,.11549.3675c-.02252.129-.1755.921-.22352,1.0215a4.05,4.05,0,0,1-.489.49051l-.47851,1.6875s.294.2685.2385.55049a6.13193,6.13193,0,0,1-.22948.78,1.83427,1.83427,0,0,1-.435.4755l-.465,1.743a.80626.80626,0,0,1,.1545.5625,5.54669,5.54669,0,0,1-.15752.714,2.52588,2.52588,0,0,1-.456.444l-.504,1.79249s.26847.26251.231.468c-.039.20551-.252.90751-.28651,1.0875a.44928.44928,0,0,1-.2385.273s-.243.855-.30748,1.056c-.06449.204-.0975,1.07249-.207,1.503-.10949.429-.82351,2.925-.882,3.099-.06.1755-.363.09-.7875-.04349-.429-.13651-6.6465-1.662-6.897-1.737-.25351-.07649-.34351-.1455-.3-.378.042-.231.819-3.192.90152-3.468.07649-.276.31947-.57752.348-.732.03149-.153.372-1.392.372-1.392s-.111-.05551-.0645-.29251c.045-.2385.2655-.8535.303-1.05751.04052-.20549.336-.25648.336-.25648l.54451-1.932a.71015.71015,0,0,1-.144-.54c.07049-.2715.21748-.77549.261-.909.042-.1335.32849-.1485.32849-.1485l.582-2.034s-.25951-.12-.216-.357c.04948-.23849.2145-.9015.24746-1.017.0645-.237.37953-.228.37953-.228l.465-1.683a.95113.95113,0,0,1-.147-.63151c.06-.32549.2325-.84149.2775-.993a.357.357,0,0,1,.1815-.21148l1.368-4.467a1.63451,1.63451,0,0,1,.702.1125c.2715.1425.30451.285.30451.285l-.282,1.293s-.0765-.04351.55947.1485c.63753.1935,2.02955.42149,1.977.9795-.05251.5565-.171,1.434.429,1.74749,1.134.594,1.797.072,1.938-.468a1.25112,1.25112,0,0,0-.05552-.843c.222-.798.591-2.71651.95549-2.916.28953-.159,1.03354.321,1.03354.321" transform="translate(9.87456)" fill="#ffd900" stroke="#000" stroke-width="1.2"/><path d="M42.05434,247.26938a1.70947,1.70947,0,0,1-.003.97953c-.13651.72-1.278,4.75348-1.278,4.75348a.78192.78192,0,0,1,.11549.3675c-.02252.129-.1755.921-.22352,1.0215a4.05,4.05,0,0,1-.489.49051l-.47851,1.6875s.294.2685.2385.55049a6.13193,6.13193,0,0,1-.22948.78,1.83427,1.83427,0,0,1-.435.4755l-.465,1.743a.80626.80626,0,0,1,.1545.5625,5.54669,5.54669,0,0,1-.15752.714,2.52588,2.52588,0,0,1-.456.444l-.504,1.79249s.26847.26251.231.468c-.039.20551-.252.90751-.28651,1.0875a.44928.44928,0,0,1-.2385.273s-.243.855-.30748,1.056c-.06449.204-.0975,1.07249-.207,1.503-.10949.429-.82351,2.925-.882,3.099-.06.1755-.363.09-.7875-.04349-.429-.13651-6.6465-1.662-6.897-1.737-.25351-.07649-.34351-.1455-.3-.378.042-.231.819-3.192.90152-3.468.07649-.276.31947-.57752.348-.732.03149-.153.372-1.392.372-1.392s-.111-.05551-.0645-.29251c.045-.2385.2655-.8535.303-1.05751.04052-.20549.336-.25648.336-.25648l.54451-1.932a.71015.71015,0,0,1-.144-.54c.07049-.2715.21748-.77549.261-.909.042-.1335.32849-.1485.32849-.1485l.582-2.034s-.25951-.12-.216-.357c.04948-.23849.2145-.9015.24746-1.017.0645-.237.37953-.228.37953-.228l.465-1.683a.95113.95113,0,0,1-.147-.63151c.06-.32549.2325-.84149.2775-.993a.357.357,0,0,1,.1815-.21148l1.368-4.467a1.63451,1.63451,0,0,1,.702.1125c.2715.1425.30451.285.30451.285l-.282,1.293s-.0765-.04351.55947.1485c.63753.1935,2.02955.42149,1.977.9795-.05251.5565-.171,1.434.429,1.74749,1.134.594,1.797.072,1.938-.468a1.25112,1.25112,0,0,0-.05552-.843c.222-.798.591-2.71651.95549-2.916C41.31033,246.7894,42.05434,247.26938,42.05434,247.26938Z" transform="translate(9.87456)" fill="none" stroke="#000" stroke-width="0.6"/><path d="M34.60712,246.73913s-.411.843-.177,1.224c.147.246.2655.20249.78749.336" transform="translate(9.87456)" fill="none" stroke="#000" stroke-linecap="round" stroke-linejoin="round" stroke-width="0.375"/><path d="M40.77406,253.00285a10.2,10.2,0,0,0-3.762-1.5285,12.49742,12.49742,0,0,0-3.888-.39749" transform="translate(9.87456)" fill="none" stroke="#000" stroke-linecap="round" stroke-linejoin="round" stroke-width="0.375"/><path d="M40.39169,254.37834a13.35131,13.35131,0,0,0-4.554-1.62749,18.20857,18.20857,0,0,0-3.02252-.243" transform="translate(9.87456)" fill="none" stroke="#000" stroke-linecap="round" stroke-linejoin="round" stroke-width="0.375"/><path d="M39.69749,256.5697a14.13,14.13,0,0,0-4.563-1.587,10.871,10.871,0,0,0-2.787-.387" transform="translate(9.87456)" fill="none" stroke="#000" stroke-linecap="round" stroke-linejoin="round" stroke-width="0.375"/><path d="M39.43231,257.94235a14.53112,14.53112,0,0,0-4.155-1.54948,17.053,17.053,0,0,0-3.441-.47251" transform="translate(9.87456)" fill="none" stroke="#000" stroke-linecap="round" stroke-linejoin="round" stroke-width="0.375"/><path d="M38.80682,260.11764a22.34382,22.34382,0,0,0-4.137-1.3575,12.93617,12.93617,0,0,0-3.315-.52949" transform="translate(9.87456)" fill="none" stroke="#000" stroke-linecap="round" stroke-linejoin="round" stroke-width="0.375"/><path d="M38.50067,261.5092a14.40368,14.40368,0,0,0-4.12651-1.47748,21.07268,21.07268,0,0,0-3.5235-.53851" transform="translate(9.87456)" fill="none" stroke="#000" stroke-linecap="round" stroke-linejoin="round" stroke-width="0.375"/><path d="M37.84442,263.63169a25.8061,25.8061,0,0,0-3.972-1.236,17.44292,17.44292,0,0,0-3.507-.6345" transform="translate(9.87456)" fill="none" stroke="#000" stroke-linecap="round" stroke-linejoin="round" stroke-width="0.375"/><path d="M37.4577,265.32219a18.96279,18.96279,0,0,0-3.98254-1.2765c-2.379-.5595-3.58347-.708-3.58347-.708" transform="translate(9.87456)" fill="none" stroke="#000" stroke-linecap="round" stroke-linejoin="round" stroke-width="0.375"/><path d="M41.06566,247.18149s-.51453,2.67-.747,3.414c-.234.741-.501.82952-.77549.87452" transform="translate(9.87456)" fill="none" stroke="#000" stroke-linecap="round" stroke-linejoin="round" stroke-width="0.375"/><path d="M45.0792,304.30924a13.606,13.606,0,1,0-13.60421-13.606,13.60507,13.60507,0,0,0,13.60421,13.606" transform="translate(9.87456)" fill="#595959"/><path d="M47.16375,284.6595s.11357-.19054-.09349-.15022a23.366,23.366,0,0,1-3.01027.26383c-.08617.41591-.28221.66692-.3573,1.04253a2.4515,2.4515,0,0,0,0,.5405,1.14806,1.14806,0,0,0,1.06081.27117,3.705,3.705,0,0,0,2.40025-1.96781" transform="translate(9.87456)" fill="#d9d9d9"/><path d="M41.42031,289.52989c.17222.14292.50933.251.58442.5002a1.57931,1.57931,0,0,1,.02567.37012c1.48229-.14475,3.23388.05313,4.68128-.15025a7.71193,7.71193,0,0,0,1.16532-.18689c.26565-.07879,1.977-2.56509,1.89087-3.07812a1.98759,1.98759,0,0,0-.55887-.76586,4.27033,4.27033,0,0,1-.72186-.8648c.06229-.18689.1026-.36644.1612-.59547.52219-1.93115.13012-4.11881-1.7754-3.94292a2.04936,2.04936,0,0,0-1.28436.56615c-.09164.08979-.16674.29683-.273.36462-.14107.09344-.32609.06412-.47634.13192a3.05948,3.05948,0,0,0-.93992,1.17444,2.98216,2.98216,0,0,0-.42143,1.13781,2.29515,2.29515,0,0,1-.13744.36461,1.43374,1.43374,0,0,1,.91795.03663,18.24177,18.24177,0,0,1,1.1708-2.04108c.64492.11178,1.58669-.98022,2.05755,0a4.37684,4.37684,0,0,1-.03294,1.94031c-.06782.94544.40488.67609.71823.69808a8.61679,8.61679,0,0,1-1.24411,1.59586,3.75956,3.75956,0,0,1-2.16747,1.17079c-1.81393.22536-2.39471-1.67831-1.81393-3.3786-.2803.0348-.43423-.15391-.77682-.10444-1.27156.19054-1.28257.51851-1.94583,1.37416-.28215.35911-.535.73106-.83548,1.07a5.62707,5.62707,0,0,0,2.03194,2.61272" transform="translate(9.87456)" fill="#d9d9d9"/><path d="M53.77158,291.89876c-.394-.66875-2.25733-4.20126-2.94441-4.04368-.35176.07512-.546.7622-.731,1.07a10.55345,10.55345,0,0,0-.94177,1.74243c-.066.56249.37563.76953.52767,1.09932a3.71827,3.71827,0,0,1,.33163.808c.04585.24369-.04764.41225,0,.59731a14.99046,14.99046,0,0,0,1.4786,2.44417c.14661.284.13375.55883.328.76953.38659-.63944.90509-1.1488,1.288-1.80656.28953-.5057.5497-1.081.80618-1.60319.055-.13192.06967-.38293.16858-.469.055-.06412-.2803-.56249-.31144-.6083" transform="translate(9.87456)" fill="#d9d9d9"/><path d="M39.61667,289.83038c-.42327-.70539-.75854-1.46393-1.79011-1.50608-.47454.98391-2.78494,3.88247-2.41853,4.98a12.82271,12.82271,0,0,0,.91247,1.07734,12.09677,12.09677,0,0,1,1.12495,1.47493c.21074.36094.17591.94175.56619,1.103a.705.705,0,0,0,.4727.02748,26.59834,26.59834,0,0,0,2.35071-5.45634c-.06777-.73838-.89961-1.16344-1.21838-1.70029" transform="translate(9.87456)" fill="#d9d9d9"/><path d="M48.38415,291.66259c-1.32837.05315-3.11663-.04946-4.48531-.03664-.49652.00733-1.76254-.05679-2.08137.25468-.18507.18322-.16489.9729-.24,1.26972-.11541.42325-.3829.74205-.50933,1.15612-.328,1.059-.49652,2.07591-.87031,3.04514a1.62551,1.62551,0,0,0-.21437.68525.47307.47307,0,0,0,.41958.4324c.41226.07146.76038-.0861,1.08469.15025l6.224-.04947a3.56287,3.56287,0,0,0,1.823-.16857c.53683-.15757,1.03336.12459,1.25137-.40125.46907-1.15613-1.55555-4.051-1.91832-4.84987-.21617-.44706-.30412-1.0187-.48366-1.48776" transform="translate(9.87456)" fill="#d9d9d9"/><path d="M42.6907,27.212A13.606,13.606,0,1,0,29.08,13.607,13.60617,13.60617,0,0,0,42.6907,27.212" transform="translate(9.87456)" fill="#595959"/><path d="M50.3685,6.044a.53887.53887,0,0,0-.56175-.26791c-.28268.05177-.4342.33445-.61713.49521-.26424.22545-.67814.28827-.94424.51551-.65778.55251-1.18073,1.50594-1.95862,1.90692v.024c-.17554.04066-.44164-.16815-.58944-.2273a7.41324,7.41324,0,0,0-1.82746-.75759c-1.45417-.23464-5.11643-.39354-3.94308,1.47638,1.35436,2.15819,1.53548.03513,3.13011.81116.40646.1959.90725.37324,1.30451.5525-.17.35847-.69849.49149-.74654.7188-.41756,1.67775,1.17335,1.63156,1.79234.71874A6.86179,6.86179,0,0,1,46.8374,10.608c.80744-.67994,1.54473-1.46342,2.35222-2.15633.31042-.27163,1.62046-1.47452,1.50407-2.0233-.03513-.13116-.2476-.29007-.32519-.38435" transform="translate(9.87456)" fill="#d9d9d9"/><path d="M49.02429,13.18229c.00919.02588.03879-.09789.03879-.12744a6.38726,6.38726,0,0,0-.13488-.8186c-.06654-.24575-.3049-.91091-.55064-.97931-.52848-.13489-1.63715.91835-1.76465,1.21028-.12191.26057.10167.5913.13122.813a6.75342,6.75342,0,0,1-.16263,2.3873c-.12935.54883-.5931.802-.946,1.13827a7.09847,7.09847,0,0,1-1.01625.94971,4.37538,4.37538,0,0,1-4.07621.024c-.38615-.231-.87211-.33445-1.13822-.67994a4.9388,4.9388,0,0,1-.58943-5.05553c.41948.19218,1.6667,1.48011,2.08612.32706a.95064.95064,0,0,0-.15891-.88322,5.92138,5.92138,0,0,0-1.07906-.87951c-.33078-.255-.56542-.64487-.87956-.91649-.69105-.58577-1.3618-1.17149-2.05285-1.75726-.67075-.55983-1.08832-1.42462-1.89953-1.82741a1.17464,1.17464,0,0,0-.62265-.16629c-1.166.11453.29931,1.59277.49887,1.83113a15.98572,15.98572,0,0,0,2.30971,2.31337,8.69573,8.69573,0,0,1-.5525.97931,7.72658,7.72658,0,0,0-.67995,2.73843,8.89989,8.89989,0,0,0,1.1345,4.1445c.30123.388.85182.4841,1.20848.81855.266.24022.42128.63748.71874.84629a7.43707,7.43707,0,0,0,5.67637.78161,6.55882,6.55882,0,0,0,4.56578-5.68c.03327-.26238-.10528-1.4893-.06462-1.53182" transform="translate(9.87456)" fill="#d9d9d9"/></g></g></svg>