<svg xmlns="http://www.w3.org/2000/svg" xmlns:xlink="http://www.w3.org/1999/xlink" viewBox="0 0 184.35111 249.56127"><defs><linearGradient id="linear-gradient" x1="2256.3262" y1="-497.87423" x2="2252.49674" y2="-484.85629" gradientTransform="matrix(-0.69336, 0.52057, -0.19257, -1.87454, 1628.3556, -1962.89314)" gradientUnits="userSpaceOnUse"><stop offset="0" stop-color="#fff"/><stop offset="1" stop-color="#fff" stop-opacity="0"/></linearGradient></defs><title>MAESTRO-Pe06-rapport-mouflage-17</title><g id="Calque_2" data-name="Calque 2"><g id="Calque_1-2" data-name="Calque 1"><path d="M71.88808,7.95508h1.63183V9.23047H71.88808v2.82129H70.52822V9.23047H65.24208V7.83594L70.73232,0h1.15576Zm-1.35986,0V2.05664h-.0337L66.48281,7.95508Z"/><path d="M77.516,5.15039H75.6288V3.26367H77.516ZM75.6288,10.165H77.516v1.88672H75.6288Z"/><path d="M84.9955,12.05176H83.55068V3.417H80.42324V2.26074c1.64892,0,3.14453-.4248,3.46728-2.26074h1.105Z"/><line x1="79.34718" y1="233.33694" x2="69.66292" y2="193.85465" fill="#fff" stroke="#000" stroke-miterlimit="10" stroke-width="2.59567"/><line x1="96.11847" y1="233.68825" x2="104.53494" y2="193.91641" fill="#fff" stroke="#000" stroke-miterlimit="10" stroke-width="2.59567"/><line y1="25.09745" x2="167.47636" y2="25.09745" fill="#fff" stroke="#000" stroke-miterlimit="10" stroke-width="0.51913"/><line x1="128.02381" y1="25.09745" x2="128.02381" y2="60.26548" fill="#fff" stroke="#000" stroke-miterlimit="10" stroke-width="2.59567"/><line x1="80.95745" y1="55.3149" x2="80.95745" y2="25.09745" fill="#fff" stroke="#000" stroke-miterlimit="10" stroke-width="2.59567"/><rect x="153.64163" y="115.63426" width="12.439" height="33.62356" transform="translate(-32.84951 55.24408) rotate(-17.81041)" fill="url(#linear-gradient)"/><path d="M97.8351,186.24586a8.52767,8.52767,0,0,0,8.51237,7.67953,8.347,8.347,0,0,0,8.13184-5.79075l.0349-121.858a12.97176,12.97176,0,0,1,25.32025-3.96984l27.07814,84.4079-4.20169,1.3473-27.0795-84.40581a8.5581,8.5581,0,0,0-16.70426,2.62045s.89639,118.13286-.22739,123.15575-6.67848,8.90925-12.35018,8.90925a12.92614,12.92614,0,0,1-12.89192-11.55623S92.6411,73.21238,91.23231,66.2301s-8.71364-7.11447-8.71364-7.11447-9.37735.59768-8.69956,10.37287,6.86832,115.88276,6.86832,115.88276a12.77369,12.77369,0,1,1-25.54435,0V25.09745h3.63623V185.37126a8.55317,8.55317,0,0,0,8.67875,8.416c4.87809,0,8.68014-2.63552,8.68014-8.69589h.17721S69.81547,78.65825,70.04821,70.97775s.43272-15.74457,12.43534-16.67554,13.39909,12.119,13.39909,22.2496S97.8351,186.235,97.8351,186.235" fill="#34b3d1" stroke="#000" stroke-linecap="round" stroke-width="0.64245"/><path d="M101.27113,236.06127a13.49868,13.49868,0,1,1-13.5-13.5A13.50281,13.50281,0,0,1,101.27113,236.06127Z" fill="#686166"/><path d="M81.45637,229.51723l-.00266-.00463C81.45569,229.52988,81.45637,229.52784,81.45637,229.51723Z" fill="#d9d9d9"/><polygon points="80.83 244.801 80.836 244.802 80.837 244.795 80.83 244.801" fill="#d9d9d9"/><path d="M84.42236,230.37505c.00537.00129.00932.006.014.008H84.437Z" fill="#d9d9d9"/><path d="M94.745,230.38566s.07709-.13022-.06375-.105a16.08767,16.08767,0,0,1-2.07571.18336c-.06117.2857-.19139.45579-.24188.7176a1.46293,1.46293,0,0,0,0,.3721.80247.80247,0,0,0,.72822.186A2.56246,2.56246,0,0,0,94.745,230.38566Z" fill="#d9d9d9"/><path d="M90.79032,233.73709c.11825.09566.35081.17009.40136.34284a1.0316,1.0316,0,0,1,.01857.25515c1.02058-.101,2.22451.03456,3.21855-.10369a5.08507,5.08507,0,0,0,.80265-.13288,5.64722,5.64722,0,0,0,1.29959-2.11558c-.03191-.18336-.27242-.41061-.38006-.52621a2.623,2.623,0,0,1-.49831-.59533c.04055-.1256.07042-.2465.11294-.4066.35618-1.33021.08505-2.83318-1.22523-2.71493a1.38269,1.38269,0,0,0-.87966.38939c-.06382.06375-.117.20595-.1914.25378-.09566.06246-.21921.04123-.3242.09035a2.09827,2.09827,0,0,0-.65119.80666,2.02929,2.02929,0,0,0-.28433.78135c-.01334.07178-.06913.17541-.09437.25385a.972.972,0,0,1,.62854.02259,13.172,13.172,0,0,1,.804-1.40594c.44246.081,1.09229-.67113,1.41656,0a3.04631,3.04631,0,0,1-.0213,1.33947c-.04715.65249.28107.46116.49505.47708a5.87,5.87,0,0,1-.85783,1.099,2.58537,2.58537,0,0,1-1.49364.804c-1.24381.15547-1.64782-1.15345-1.24381-2.32153-.19935.02388-.30032-.10634-.53552-.07178-.87572.13023-.88239.35611-1.33954.9422-.194.24976-.37074.50361-.5754.73746A3.86618,3.86618,0,0,0,90.79032,233.73709Z" fill="#d9d9d9"/><path d="M99.28979,235.36762c-.26977-.46116-1.55474-2.89033-2.02788-2.784-.24181.05314-.37469.52484-.501.73617a6.83571,6.83571,0,0,0-.64718,1.19863c-.04783.388.2578.52893.36149.75611a2.52879,2.52879,0,0,1,.2299.55682c.03055.16479-.0332.2844,0,.41061a10.22275,10.22275,0,0,0,1.01656,1.68368c.09968.19139.09036.38142.226.52892.2631-.44122.61921-.79468.88368-1.24122.19928-.35345.38135-.74814.55281-1.10562.04252-.093.05184-.26439.11559-.3242C99.54092,235.741,99.30707,235.40083,99.28979,235.36762Z" fill="#d9d9d9"/><path d="M89.55053,233.94175c-.29372-.48641-.51961-1.00731-1.23054-1.03391-.1688.34754-.66977,1.04316-1.083,1.74082-.01334-.01394-.03191-.03782-.04389-.04919.00531-.03851-.03054-.07042-.04116-.0996.004.01993-.01864.03184-.028.01993-.05314-.07443-.01456.008-.08369-.06117a2.38494,2.38494,0,0,1-.34815-.51157c-.06913-.016-.07974-.08907-.13159-.113l.00933-.00265c-.04389-.0332-.1967-.30563-.24719-.34815l.00266.01333c-.02654-.01333-.02919-.02592-.02858-.04055a.04773.04773,0,0,1,.00068-.0166l-.002.002a.07218.07218,0,0,0-.002-.04056.05053.05053,0,0,1-.03586.01266l.004-.018H86.2602l.01728-.01327a2.24578,2.24578,0,0,0-.15948-.45313c.00932-.00933.01334-.00266.01334-.00266a.52613.52613,0,0,0-.07443-.10634c.00666-.01994.02789-.0279.03721-.03586-.02395.01463-.13818-.2033-.13022-.21132l-.05852.02925c-.01993-.04116.05981-.04654.02661-.07838-.0877.02123-.02661-.06647-.07178-.05715a.03784.03784,0,0,1,.02129-.0332c-.04654.01327-.01864-.01728-.03456-.024-.01463.00531-.01061.01061-.02395.01993l-.02919-.02259c.01062-.01326.03184-.02925.04382-.02129a2.4643,2.4643,0,0,0-.21262-.50627c-.02654.02259.00667.03585-.03722.07307-.04116-.00531-.0066-.03456-.04252-.02919.07314-.04524-.004-.0545.06776-.10764l-.04783.01457.0213-.02123c-.09172-.06913-.03055-.012-.06647-.09566-.02525-.03987-.09567-.03191-.089-.06913,0,0-.01728.02524-.03456.02123.03456-.02123-.04123-.01858-.00667-.04253-.012-.0119-.02653-.04783-.07042-.01061.0213-.01994.01728-.05845.04919-.05178-.00666-.012-.0053-.0266-.01728-.028l-.00932.02129c-.0266-.03585.004-.07572-.05314-.07708l-.01728.0266c-.012-.02259-.02524-.03592.01728-.07314l.0332.016a.163.163,0,0,0-.07974-.07845l.00136.01333c-.07041-.016-.22323-.20329-.30032-.20867l-.03191.03593-.05048-.01069a1.2131,1.2131,0,0,1,.12621-.04381.81955.81955,0,0,1-.11158-.24317c.01061-.03987.06375-.03456.06375-.03456-.02524-.02926-.04518.004-.0545-.024l.03722-.01327c-.008-.01062.00265-.02926-.01858-.01728-.00932.02129-.05586.03857-.0864.0598l-.01259-.03252.00333-.004.02654-.01266-.01858.00333c.004-.00659.01062-.00864.01327-.0166a.13987.13987,0,0,1-.08369-.00333l-.00666-.00333a.31872.31872,0,0,1-.01593-.05049.51586.51586,0,0,1-.01728-.06246.17323.17323,0,0,0-.03191-.06511.06657.06657,0,0,1,.0279.00136l.008-.02259c-.02654.02654-.03055-.016-.03987.004l-.00925-.004s-.00667-.00531-.004-.01068l-.00265.008-.008-.00266c.0053-.00265-.02259-.0266-.016-.0319-.01191-.01327-.0332-.04784-.0345-.02661,0,0-.01864-.04252.0013-.02789a.109.109,0,0,1-.01593-.02123l-.00136.00925c-.02653-.02919-.03456-.05314-.06375-.06511l.0066.01463c-.01463-.01728-.03585-.02524-.03456-.04253l.028.01062a.309.309,0,0,0-.07906-.04382l-.016-.004a.58905.58905,0,0,1-.04055-.0611c.00932-.09437-.64711.0598-.73216-.04518l-.06511-.07443-.24984.03919a.66789.66789,0,0,1-.01993-.27705c-.04518-.01729-.01864-.0558-.05314-.07444l.01456.00136a.48108.48108,0,0,1-.02055-.14886,1.38229,1.38229,0,0,0,.35013-.24052,2.11514,2.11514,0,0,0,.44388-.61c.04783-.06375.05314.01463.05844.01728.02395-.10233-.01857-.05715.01327-.13819.01334-.01993.02395.01327.02259.02926.00932-.03858.03062-.06647.01728-.07579-.02789.04252-.05715.004-.09035.00932a.70821.70821,0,0,0,.03456-.10233l.02395.01592a1.21457,1.21457,0,0,1,.00531-.30032,1.20245,1.20245,0,0,0-.00266-.44647c.01327,0,.02919.03851.04253.07974,0-.02789-.012-.06647,0-.08906-.0213.04783-.02926-.07838-.03457-.04252a4.50787,4.50787,0,0,0-.31631-.3721,1.57113,1.57113,0,0,0-.27242.05184.78073.78073,0,0,0-.05708-.15948c.19663-.11825.38135-.24984.37074-.42789l.02258-.01191-.03721-.05184c-.03457-.07178-.081-.07709-.05981-.08907l.06511.08376c-.03987-.06647.00266-.03327.0279-.01864a.41526.41526,0,0,1-.04116-.07974c-.01865-.008-.00136.01462,0,.03061a.52078.52078,0,0,1-.109-.10233c-.0545-.0598.02524-.03456-.03586-.10763a1.75612,1.75612,0,0,0-1.25047-.63392c-.01061-.012.00129-.01061.01728-.01592a1.57344,1.57344,0,0,0-.396.04647.14984.14984,0,0,1-.06117-.02918c.01062.0066-.16342.04912-.32821.13553a2.0069,2.0069,0,0,0-.31359.18737l.01456.0558c-.10764.08375-.06641-.02525-.15547.07042.00266.0877-.15281.15818-.15812.21928,0,0-.04518.04518-.05715.0279.01864.04252-.0332.06382-.05048.10233-.00137.01728.01592-.00129.0332-.004-.01592.028-.02259.0545-.04253.08777-.02258.02259-.04647.02123-.03191-.01864a2.02819,2.02819,0,0,0-.291.81727,2.15678,2.15678,0,0,0,.08907.9209c.01728-.03987-.0279-.1209.012-.16343.03586.06641.01721.10764.05049.13023-.05185.05048.03456.16207,0,.23915l.04252.008-.00667.04525c.18336.279.15948.004.30434.2644.101.13825.198.13954.2418.22194-.00394-.01327-.01592-.0558.0213-.02926-.01864.02926.04783.05321.04116.09437a.33035.33035,0,0,1,.03593.14683c.00728.03721.08171.11028.02259.08307.02918.02524.05715.05715.08368.0611l-.03721-.04117c.109.07838.16084.14615.24983.15017l-.03055-.04389c.06246.04252.12091.06511.1369.11832l-.08111-.0213a.84566.84566,0,0,0,.21793.07042.06554.06554,0,0,0,.01068.02524.1107.1107,0,0,1-.03857.01729c.02258-.0066.04783.11961.04123.12362l.04647-.00667c.00265.02525-.05178.01463-.03722.03722.07049-.004-.00265.03586.03722.03586-.0066.00265-.0066.01333-.02654.016.03722-.004.01062.0119.01858.01592.01061.00136.012-.00266.02395-.008l.01857.01326a.3223.3223,0,0,1-.03722.016.71219.71219,0,0,0,.01865.279c.02653-.00667.00265-.01728.04647-.02926.02789.00538-.00395.016.01993.01728-.04314.01-.04116.01994-.0498.03123a2.387,2.387,0,0,0-.52825.21732l-.05185.008.00932.02925c-.02524.04253.03858.04783-.01462.05579l.004-.05184c-.01463.04123-.04123.01728-.07573.01061a.06956.06956,0,0,1-.028.04919c.02266.004.024-.008.03858-.01728.01993.01728.07042.03191.04783.06246-.00136.03858-.08641.01994-.0877.06913l-.002.0166-.02061.00993-.04654-.03585a.07337.07337,0,0,1,.01864-.02259c-.01333-.01061-.03721.004-.03592.02524l.03722.03055c-.01191.03858-.03055-.01191-.04647.01864-.03457-.024-.01865-.05586-.00531-.07845-.0213.01729-.05715.01994-.03062.05056-.02789.01061-.03722-.03191-.06511-.01994-.004.02259.00932.06375-.02388.06777l-.008-.00667c-.04518.01463-.028.05845-.03722.09437-.01864.01728-.01463-.00667-.03191.01728h-.00531v-.00667c-.0266,0-.02925.04783-.06511.0545l.01994.00395a.0894.0894,0,0,1-.016.03592c-.01592.01592-.02388.03586-.05314.03851l.01061.04389c-.08634.093-.18336.2631-.26045.36672l.00136-.008a6.66092,6.66092,0,0,0-.45844.65916c-.04524.00265-.06647.03714-.09437.05443.02123-.004.04117.01864.02525.03061-.06246.07437.01993.02388-.03055.10893a2.28664,2.28664,0,0,1-.45184.48505c.008.07572-.07042.10369-.07573.16608l-.008-.01191c-.01994.05715-.26712.28039-.29638.34414l.012-.00129c-.00531.0664-.05049.02258-.093.04252a.11973.11973,0,0,1,.03722.11825l-.012-.01327a.66632.66632,0,0,1-.03456.15942l-.02259-.02389c.004.0558-.05579.10363-.07443.12758-.05314.03987-.15948.07974-.18207.17676l-.11424-.01994.00531.01456s.03851.03327.10233.08376l-.008.01592-.00538-.008a.60624.60624,0,0,0-.02388.12893l-.012.01456a.51877.51877,0,0,0,.00136.12492.60655.60655,0,0,0,.02653.12492l.01463.00265c.01728.04253-.01592.01728.00667.05981.02789.008.0332.06184.04912.07443a1.34323,1.34323,0,0,0-.02259.30434c-.01061.00394-.0119-.00136-.0119-.00136.00925.03592.00659.06912.01857.10369a.05908.05908,0,0,1-.03987.02258c.02395-.0053.03586.20194.02926.20194l.05184-.00129c0,.03722-.05851.01728-.04252.05184.06906.008-.004.0611.03184.07308a.03456.03456,0,0,1-.0279.01728c.03586.00265.00932.01592.01994.02653l.02129-.008.01327.02661-.02925.01326a1.52646,1.52646,0,0,0-.01327.4545c.02123-.00932.00265-.03191.04783-.04518.02789.01858-.00667.0332.01728.03722-.06246.0119-.00932.04252-.07838.06246h.03715l-.02259.01721c.04654.07709.01994.01334.01463.09042.00932.04253.06116.05845.04518.0824,0,0,.01864-.012.02925-.00136-.02925.00136.02395.0266-.00932.03456.00531.00932.00265.04912.04783.03055-.02259.00531-.02919.03987-.04912.01857-.00136.01463-.00531.02661.00129.03722l.016-.01592c.004.0332-.02524.05579.01463.07443l.01592-.01462c.00395.02258.00932.03987-.03722.05048l-.01327-.01994a.14621.14621,0,0,0,.03457.08771v-.01062c.04783.03191.089.22854.14744.25916l.03327-.01994.03055.02654-.10363-.008a2.96689,2.96689,0,0,1,.03185.4598c-.01729.02654-.05579.0066-.06376.01061.01463.02525.03851.00531.03722.03055-.004.00932-.02789,0-.02789,0-.00136.012-.008.024.00394.01994.01327-.01592.0545-.01327.08376-.02123l-.00266.03184-.0266.00272s.07573.00926.05981.04518a1.16282,1.16282,0,0,0,0,.16744.051.051,0,0,1-.03593-.02129s.00272.01857-.00925.01993c.02789-.012.02259.02259.02259.02259.07974.0213.01993.081.0664.11294l.099-.00265c-.06443.1535-.17071.41531-.20262.52628l-.04518.0119c.01592.03327-.01326.05321-.004.09573-.01061.01592-.0332.00266-.03586-.008.008.03722-.03191.06117-.01592.08771l.01327-.0013c.01592.0611-.08239.05981-.06647.12621h.00666c.01327.03191-.03191.04389-.04783.05852.00266.03456.04117.01993.04913.04647-.04253-.004.1954.17275.19139.19533.012-.02388.03055-.05048.06375-.03449-.01456.02919.30039.11954.27379.15145l.09967-.0066c-.01728.008-.01993.04117,0,.04783-.00667-.004-.00136-.01993.00129-.03592l.62459.09838c.06512-.02925.02395-.12226.11431-.14485.01061.01728.01592-.03191.03851-.004-.00531-.01326.00136-.02388.00265-.0385-.01728.01326-.02789.02258-.04919.01857a1.97285,1.97285,0,0,0,.07049-.21793c-.00136-.04783.089-.04116.089-.04116l-.03191-.00932.012-.04389c.02789.0213.07974.03191.08906.05185.01857.004.008-.012.008-.02524l-.0279-.004c.00667-.0332.09968-.10763.12621-.1422,0,0-.04912.01069-.06375-.02653.00334-.07838-.27841-.58336-.319-.7555l.02259-.00061c.00136.01061.00136.02388-.0066.02653a.02671.02671,0,0,0,.01327-.04116l-.03191.00463-.0013-.004c-.002-.012.01926-.00735.01729-.02728.03054-.008.03449.01592.0385.03858.004-.01994.02259-.03858-.008-.04654.01062-.01463.03586-.00266.0492-.02395-.01069-.01327-.04124-.02919-.02266-.04518l.00272-.00265c.03184-.04253-.04919-.05715-.016-.101l.00932.004c.01592-.01456-.00666-.03981.01062-.06376,0,0-.03055.01463-.03191,0,.01864-.02789-.004-.04388.02129-.06647l-.03456-.01857c.00136-.09437-.05845-.47443-.06913-.56874l.008.00266a4.48106,4.48106,0,0,0-.08239-.5967c.02789-.0266.02122-.0598.02524-.085-.012.01864-.0332.01326-.03191.00136.004-.07444-.01994-.00136-.0332-.07709a1.41674,1.41674,0,0,1,.0053-.50233c-.04919-.03721-.01864-.09035-.04252-.13158l.00531.00265c-.01592-.03851.01326-.29365-.00531-.33747l-.004.00266c-.02919-.03988.01728-.03988.03061-.07444a.078.078,0,0,1-.08375-.04123l.00932.00136a.247.247,0,0,0-.02926-.0498,2.22576,2.22576,0,0,0,.35081-.33822c.016.008.01068.01061.01333.01857.01994-.05048.05314-.085.07573-.13287a.29826.29826,0,0,1,.05184.01728c-.02925-.012.1435-.22725.15282-.2246l-.04389-.04116c.02926-.04123.06382.03456.07974-.01061-.05313-.07178.06117-.05716.03722-.09968a.03636.03636,0,0,1,.03987.0066c-.03191-.03586.00667-.02524.00531-.04382-.004-.01333-.00932-.00666-.02524-.01463l.00932-.0385c.01993.00265.04381.01857.03851.03449a3.36346,3.36346,0,0,0,.42122-.44783c-.03585-.01463-.03715.0213-.0877-.00265-.008-.04116.03062-.02259.01334-.05178.07307.04382.05048-.03592.13151.008l-.03055-.03592.02926.00667c.01463-.05913.01463-.06648.01926-.06845a.61609.61609,0,0,0,.0153.10036c.0558-.03321.01593-.06246.101-.093.05314.02388-.01326.05048.04253.05579-.13288.04116-.02525.081-.15547.13424L81.556,233.47l-.04524.02926c.08906.13553.03987.02653.03592.16077.01858.07974.12492.09036.089.1422,0,0,.04653-.03191.06783-.016-.06783.016.05048.03987-.012.06512.008.01728.008.08375.09164.03987-.04252.02258-.05579.08239-.09961.05586-.00136.02122-.00932.04381.01062.05177l.02259-.03055c.01728.06117-.05049.11029.03721.1369l.03457-.03191c.00925.03456.01857.07042-.06913.10369l-.03456-.03722a.20347.20347,0,0,0,.07178.14349V234.266c.09566.04919.20466.388.31624.42395l.06777-.03722.06116.04116c0-.00932-.22459.01994-.20064.00932a4.43231,4.43231,0,0,1,.08634.81326.115.115,0,0,1-.11029.03191c.01857.04647.06647.008.06246.0545-.012.01592-.05716.00926-.05716.00926s-.02388.03456.01327.02925c.0213-.0266.10764-.03456.16214-.05844l-.0013.05844-.05585.01062c0,.01061.15152.00265.12757.06116a.41549.41549,0,0,0,.002.06375l-.18541-.008c.00266-.01592.008-.03191.01729-.03585a.03588.03588,0,0,0-.02926.05177l.0598.008c.01865.03715-.03585.0066-.0332.04518-.04919,0-.05579-.03722-.06116-.06913-.008.03055-.04253.0545.00932.06913-.02259.02388-.0611-.00537-.08369.02388.01463.024.05579.05851.02919.0824l-.01191-.0013c-.05184.05845.07171.10363.01858.15942l-.01729-.01062c-.03054.01865.00266.06246-.02789.101.008-.01191.04654-.01993.05048.004-.0332.04388-.00265.07572-.04517.101l.04653.03327c-.016.14751.02389.58738.02259.73618l-.008-.00667a7.22758,7.22758,0,0,0,.081.94886c-.05185.03184-.04253.08239-.05845.11954.02123-.02122.05049-.008.04912.00667-.00925.117.03055.00932.0492.12757a2.35134,2.35134,0,0,1-.101.776c.0664.06912.00925.14621.04912.21132l-.01728-.008c.02395.07308-.07042.45443-.04518.53417l.008-.01061c.03987.07042-.03715.05844-.06246.11029a.11853.11853,0,0,1,.12227.08375l-.01858-.00136a.871.871,0,0,1,.08369.17275l-.04518-.00531c.00932.00994.00667.02395.01068.03586-.01932.008-.04123.01932-.03456.03191l.05049.02061-.00068.02062c-.01259-.00068-.0279-.004-.03253.01857-.0532-.01592-.05055-.05313-.0479-.085-.01326.0266-.05708.03851-.0053.06912-.0279.01858-.06246-.024-.0943.0013.00925.02524.05048.06776.0119.08239l-.00925-.00531c-.06913.04253.06906.02259,0,.05981l-.01334-.01327c-.03585.00925-.008.06239-.05177.08369.01463-.004.05443-.00136.05314.01993-.04389.02926-.02395.06777-.07042.08369l.04116.03987c-.05715.13955-.16479.69637-.2033.83456l-.00667-.00531c-.04252.21793-.35611.61922-.35876.85844-.05852.01592-.06246.06511-.0877.09566.02388-.01191.05715.00932.05048.0213-.03851.10362.03191.01592.01728.13287a1.49093,1.49093,0,0,1-.23521.59c.05185.07709-.02524.13417.0013.21l-.01592-.01334c.0053.06913-.17541.40136-.17541.47974l.01592-.004c.02525.07437-.05177.04117-.09035.085a.13288.13288,0,0,1,.10634.11029l-.016-.008c.00266.03586-.18472.10491-.18867.16343l-.04517-.01864c.03191.05585-.01463.13158-.01864.16349-.04253.06375.03857.22058.06647.33488l-.14485.01858.01061.01463s.20268.08239.46708.18l-.19595-.03185c-.03123.18-.17547.8166-.18608.984l-.05178.02654c.0345.04123-.00136.07178.02259.12226-.008.02524-.04389.01061-.04919-.004.02524.04653-.01865.0864.00394.11566l.016-.008c.04518.07709-.08641.09573-.04123.17411h.00538c.02789.0332-.02661.05981-.04253.0824.01592.04116.05709.01326.077.04517-.05443.008-.02524.04123-.02259.07974.012-.03721.02661-.07572.07178-.06912-.00932.04654.05049.01728.02661.05851l-.06117-.00531c-.01592.01722-.008.0611.008.06246l.00265-.04252,1.72491.10893c.07838-.05049,1.4684.04252,1.58134-.01327.016.02123.00667-.04388.05185-.01333-.0213-.01191-.01062-.03185-.00933-.04253-.01728.016-.03721.03593-.0598.03456.00265-.09831-.19-.33488-.198-.43183-.01728-.05716.10233-.06117.101-.07444l-.04253-.004-.79332-.25181c.02524.002.01333-.01728.02129-.03654-.01326.00667-.04517.01728-.05313.00266-.00137-.04654.03449-.00933.05048-.05981,0,0-.05981.0266-.0877-.01592-.014-.08239-.3887-.31032-.57676-.46912.00469-.00531.00667-.01327.016-.01463-.01334-.01191-.016-.00129-.028-.00266-.0119-.01728-.04116-.05443-.01728-.0664.01068-.0266.06913.02123.085-.012.097-.17676.02531-.41857.07443-.6073.01865.00136.01729.0053.01729.0053a1.59167,1.59167,0,0,0,.03055-.16206.38911.38911,0,0,1,.06912,0c-.03851-.00273.05579-.299.06777-.30039l-.07974-.0279c.016-.05715.093.00932.09437-.04116-.105-.06117.03987-.085-.01327-.12227a.05157.05157,0,0,1,.05178-.01061c-.05716-.02524-.004-.03055-.01191-.04783-.01463-.01334-.0213-.00265-.03987-.00265l-.008-.04124c.0213-.01326.06117-.004.05981.01463a3.01774,3.01774,0,0,0,.26582-.64051c-.05184,0-.03191.04252-.105.02926-.02926-.03858.02919-.03457-.008-.06382.109.0266.04252-.04919.15553-.03055l-.05851-.0279.04123-.00265c-.02129-.13825-.01864-.03722.02919-.13955.012-.06246-.0611-.12226-.01857-.14084,0,0-.04518.00266-.05579-.01864.05579.01864-.02395-.0545.03184-.04518.00136-.01857.02395-.06647-.05715-.07307.03857.004.06912-.0332.09171.00129.00932-.01462.0266-.02524.01061-.04116l-.02388.01061c.004-.05449.16214-.13287.10893-.186l.05321.15941c.008-.0332-.07845-.21262-.00531-.19663l.01456.03851a.20217.20217,0,0,0-.00394-.13955l-.008.01463c-.05321-.07838.06905-.23119-.00538-.31093l-.0611.008-.0332-.05845a1.143,1.143,0,0,1,.15145.07573,4.51484,4.51484,0,0,1,.19071-.61595c.00334.00068.01062-.00061.00463.0047.01334-.00667.03191-.008.03722-.01994l-.02259.00531c.018-.01.022-.018.03592-.02456a.18416.18416,0,0,1,.05314.02054.04667.04667,0,0,0-.0213-.04313c.00531-.004.016-.00735.01994-.01334a.23648.23648,0,0,0,.02395.0113c-.00531-.01395.002-.01994-.00531-.02722.01327-.00932.02592-.02327.04116-.02062l-.02388.0279a.27694.27694,0,0,0,.0877-.09831l-.01333.01462a.94545.94545,0,0,0,.0877-.18071.35988.35988,0,0,0,.02259-.18737l-.01721.01993a.16294.16294,0,0,0-.01069-.04388l.04518.03191c0-.01062.00136-.0279.00265-.04783l.01334.00129-.00136-.02919c.02395-.03062-.02388-.0479.01993-.04524l-.00932.04524c.01334-.03062.03457-.00537.05852.01062a.06974.06974,0,0,1,.02258-.03858c-.01326-.008-.01592.00136-.0266.00667-.01327-.01593-.05314-.04518-.03055-.06376.00667-.03456.07042,0,.07974-.03987a3.24365,3.24365,0,0,0,.10764-.60336c.02259-.00265.01857.004.01857.004-.008-.05449.00266-.11294-.01061-.16873a.30362.30362,0,0,1,.06647-.02395c-.03857.01061-.02259-.31229-.01068-.31359l-.07967-.012c.00265-.06117.089-.012.07436-.07178-.10627-.0279.01865-.089-.04116-.1156a.05611.05611,0,0,1,.05185-.02395c-.06246-.01061-.012-.02919-.02661-.04518-.01857-.008-.01857.00136-.03851.00531l-.01728-.03987c.01858-.01061.05579-.01327.0611-.00129a3.95576,3.95576,0,0,0,.07443-.402c.07573.09566.1654.24181.24188.26113l.05178-.03722.05851.03055a.99471.99471,0,0,1-.17411.01728,3.65383,3.65383,0,0,1,.1754.68038c-.02388.04117-.09035.02926-.09035.02926.02259.04116.05579.004.05844.04382-.008.01061-.04647.01061-.05579.0053.01327.01463-.00531.03328.02395.03055.01592-.02789.09036-.0398.13288-.05708l.00531.04912-.04654.00932c.004.00933.13158-.008.121.04518a1.911,1.911,0,0,0,.04252.24453.092.092,0,0,1-.07048-.01864c.004.01333.01462.0266-.00266.04252.04389-.03184.03987.0213.05586.004.12492.02524.04117.12886.13288.16077l.07307-.02524a.12018.12018,0,0,1,.00932.03055c.01593.02524.00933.03191.00933.03191s.02721.04252.06239.0877c-.01524.20466-.00592.65051-.01191.776l-.00667-.008c.00136.22324-.21663.683-.17009.9143-.05314.02919-.04919.07974-.06375.11424.02122-.01858.05708-.008.05443.00666-.01858.1156.03327.012.04252.12628a1.44618,1.44618,0,0,1-.101.62854c.06777.06776.004.14084.04518.206l-.01728-.01061c.01993.06912-.08634.42789-.06777.50763l.01061-.01061c.03988.07041-.04116.05313-.07307.101a.1456.1456,0,0,1,.13159.08505l-.0213-.00136c.01463.03722-.15547.14485-.15016.19806l-.04382-.008c.04382.05055.01191.1356.01593.16479-.02661.07443.08906.21.13689.315l-.13689.04783.012.01068s.07573.01327.18738.03123a5.6807,5.6807,0,0,0-.09968.5654l-.05184.0266c.03191.04252,0,.07838.02259.12757-.00667.02919-.03988.01463-.05049.0013.02388.04388-.01993.09436.008.12226l.01463-.012c.04116.07708-.0877.10763-.04654.18472h.00667c.0266.03456-.0266.06776-.04783.093.01857.04123.06511.00932.07974.04252-.05586.00932-.02259.04389-.0213.07845.01069-.03593.02661-.07974.07444-.06913-.01062.04518.05048.012.02259.05981l-.05716-.00136c-.01993.01728-.012.0598.00667.05851a.402.402,0,0,0,0-.04252l2.44645.11559c.07573-.05715.61656.00136.72957-.06246.01722.01865.01062-.04647.05314-.01728-.016-.012-.00932-.0332-.00667-.05048a.08339.08339,0,0,1-.06375.04116c.00266-.09961.03184-.206.02654-.303-.01592-.06375.101-.08634.101-.08634h-.04123l.00136-.05981c-.13288-.07042-.01728.07974-.19533-.03586.02258.00266-.17813-.101-.16881-.12226-.00932.00531-.03987.01994-.05314.00531.004-.04654-.29766-.08641-.27106-.1422a1.87619,1.87619,0,0,1-.41462-.19269c-.016-.07239-.26978-.13818-.44586-.208l-.00333-.02456c.02524-.0266-.02524-.04783.01864-.04253l-.01068.04253c.01993-.0266.04252-.004.06647.01061a.05582.05582,0,0,1,.02395-.03191c-.01333-.01061-.01728.00136-.01728.00136-.02395-.01462-.06246-.04252-.03987-.0598.004-.03191.07171.0053.081-.03055.0545-.19269-.06776-.41463-.05844-.61262.02123.00136.02123.00531.02123.00531a1.124,1.124,0,0,0-.00933-.16479.19259.19259,0,0,1,.06784-.01327c-.03722.00531-.00932-.30032.00265-.30964l-.0811-.01061c.00531-.05715.097-.00932.07974-.06382-.11165-.0332.01728-.0877-.03585-.1156a.0468.0468,0,0,1,.05177-.01592c-.0664-.01864-.01327-.03191-.02653-.04783-.01994-.008-.01994.00265-.04253.004l-.01728-.03851c.02123-.01327.05845-.01327.06375.0053a2.84055,2.84055,0,0,0,.12492-.679c-.04912.0066-.01993.04382-.09831.04913-.03722-.03457.01993-.04253-.02388-.05845.11559-.00265.0332-.06117.15016-.07307l-.06246-.012.03987-.00932c-.05185-.13424-.028-.03456-.00272-.13954-.00266-.06777-.08635-.10764-.05049-.13819,0,0-.04116.01327-.05314-.004.05314.004-.03721-.04913.01728-.05049-.004-.01728.008-.07042-.06912-.0598.03858-.0066.05851-.05049.09035-.01729.00136-.01857.01728-.03184,0-.04116l-.02259.01327c-.008-.05314.133-.16343.06512-.206l.08906.1422c-.00136-.03321-.12227-.18609-.04654-.19269l.01994.03851a.18279.18279,0,0,0-.03185-.13553l-.00666.01463c-.07042-.06777.01857-.23786-.07042-.29767l-.05981.01728-.04388-.04783c-.004.004.18737.03987.16744.03987a3.478,3.478,0,0,1,.06116-.68038c.03586-.03722.09165.00129.09165.00129-.0066-.04517-.04783-.02258-.04116-.0598.01327-.01062.04518.00531.0545.012-.00667-.01728.01463-.02789-.01334-.03055-.02123.01592-.0943-.00265-.14213.0013l.01327-.04382.04518.00531c.00129-.00932-.12492-.03858-.09172-.085.0266-.07307.01864-.16214.03987-.23922.02395.00265.03858.02129.0545.04252.00531-.01327-.00265-.02919.01857-.03586-.05313.01463-.03055-.03721-.05177-.02524a.09018.09018,0,0,1-.03055-.03524c.002-.00463.0066-.01062.0053-.01524l-.00734.01259-.00266-.00266c.018-.04586.03722-.075.02994-.10832l-.016.01865c.00932-.03457.012-.06117.03191-.07308l.00265.03715a.5192.5192,0,0,0,.00136-.13553l-.004.01728a1.28034,1.28034,0,0,0-.03456-.15546c.0053-.01463.00666-.03055-.004-.03722l-.00932-.00129-.004-.008a.14834.14834,0,0,0-.01326-.03586.06708.06708,0,0,1,.06647.04783c.00129-.03055.03055-.0664-.028-.06246.01463-.02925.06116-.01592.07844-.05048-.01993-.01858-.07579-.03456-.05184-.06647l.008-.004c.03858-.07443-.101-.06913-.0611-.14084l.01858.00129c.0266-.02789-.02654-.0545-.0013-.09831-.008.01061-.04388.03184-.05715.01327.02524-.05049-.01333-.07178.01728-.11166l-.05586-.01326c-.02524-.14615-.19132-.52621-.23119-.67106l.008.00394a5.89943,5.89943,0,0,0-.303-.8664c.04252-.04783.01728-.093.02129-.13423-.01333.0266-.0545.03327-.05586.01728-.01857-.1156-.03456,0-.08368-.10893a2.07971,2.07971,0,0,1-.12628-.7508c-.089-.03858-.05178-.13424-.11424-.17942l.01722.00129c-.04117-.05844-.0624-.44116-.10492-.50892l-.00537.01061c-.06246-.05314.02129-.06511.02925-.12356a.12678.12678,0,0,1-.15281-.03592l.01728-.00129c-.01864-.02525-.10634-.08376-.13288-.13288l.04783-.01062a.11844.11844,0,0,1-.0545-.07511l.19-.03524a.06363.06363,0,0,1-.01592.0479c.03457-.012.05049-.05321.02654-.06648l-.07573.01062c-.02789-.03987.04253-.02259.0332-.06376a.06771.06771,0,0,1,.09172.05716c.00265-.03191.04783-.07314-.02524-.07314.02524-.0345.07708-.01457.101-.05709-.02123-.01993-.0824-.04388-.05049-.07845l.012-.008c.05715-.08239-.10635-.09035-.04783-.16744l.02258.00136c.03191-.03327-.01728-.06783.01593-.11832-.01062.01463-.0558.03457-.06641.01068.0345-.05851-.00932-.08375.03715-.12757l-.06375-.024c-.00463-.14288-.099-.59934-.14819-.85646l.02327-.01259a.89947.89947,0,0,0,.05048.08233c-.0053.01068-.01061.00932-.01061.00932a1.32023,1.32023,0,0,0,.093.09968.085.085,0,0,1-.02388.04252c.01721-.02259.17274.18336.16873.18867l.04123-.02919c.03055.04116-.03456.05049.00531.07709.05844-.028.03585.06375.07307.05708a.02455.02455,0,0,1-.012.03062c.03456-.016.02395.01592.03721.02123.01463-.00531.01062-.012.01062-.012l.03456.00667a.05383.05383,0,0,1-.01728.03191,2.40371,2.40371,0,0,0,.31229.47572c.012-.0266-.01728-.03456.01062-.07443.03191.00265.01061.03456.03858.01993-.04518.05716.02259.05716-.01994.1156l.0332-.01857-.01462.02395c.097.05844.03191.0066.081.08368.03987.04253.09171.03055.097.06382,0,0,.00531-.02531.02524-.01993-.02524.01993.03722.01327.01729.04252.012.008.03191.04783.05585.00266-.00932.02122.00926.06109-.02129.05313,0,0,.008.02388.02395.02926l-.00136-.02259c.02925.03184.02129.07307.07042.07042l.00136-.0213c.01993.01865.03585.03593.0066.06913l-.02524-.01333a.21169.21169,0,0,0,.0877.07178l-.008-.01327a1.038,1.038,0,0,1,.2186.13485.9642.9642,0,0,0-.03789.52158,8.74267,8.74267,0,0,0,.626.73753c.17669.2246.38271.46777.56471.71624-.0066.03123-.02054.06314.012.09172l.008-.00667c.02926.0213-.00129.05586-.00531.07709.0266.02789.04783-.008.06913.01068-.012.00728.01395.01191.04919.01592.02259.03654.05579.0711.07573.10764.14614.25113.11961.64983.38938.76141a.48749.48749,0,0,0,.32556.02259,18.40164,18.40164,0,0,0,1.61591-3.75271C90.3412,234.60083,89.76975,234.31514,89.55053,233.94175Zm-7.48025,6.24434a.078.078,0,0,1,.0166-.02062.11.11,0,0,1,.00864.02858Zm1.42458,1.06507-.00265.00068.002-.00136Z" fill="#d9d9d9"/><path d="M95.57824,235.20413c-.91158.03722-2.14212-.03456-3.08431-.02654-.33488.004-1.20924-.03987-1.43248.17806-.12491.12356-.11165.667-.16213.8717-.07974.28971-.26181.509-.35217.796-.22323.72958-.33883,1.4286-.59935,2.09034a1.1418,1.1418,0,0,0-.14614.47838.3257.3257,0,0,0,.28834.295c.2857.04654.52492-.0611.74815.101l4.28165-.03457a2.40925,2.40925,0,0,0,1.25578-.117c.36679-.10628.71358.09035.85979-.27372.32291-.79734-1.071-2.78535-1.32354-3.33551C95.76827,235.92173,95.70581,235.52574,95.57824,235.20413Z" fill="#d9d9d9"/><polygon points="172.538 104.564 175.818 115.053 181.066 113.414 174.629 127.35 174.629 127.35 161.406 119.558 166.648 117.921 163.37 107.431 172.538 104.564" fill="#fff" stroke="#fff" stroke-linecap="round" stroke-linejoin="round" stroke-width="4"/><rect x="162.17715" y="101.02685" width="9.60845" height="3.71958" transform="translate(-23.12959 54.65528) rotate(-17.40391)" stroke-width="4" stroke="#fff" stroke-linecap="round" stroke-linejoin="round" fill="#fff"/><rect x="160.93171" y="97.97022" width="9.60834" height="1.8615" transform="translate(-21.97013 53.99843) rotate(-17.37282)" stroke-width="4" stroke="#fff" stroke-linecap="round" stroke-linejoin="round" fill="#fff"/><polygon points="172.538 104.564 175.818 115.053 181.066 113.414 174.629 127.35 174.629 127.35 161.406 119.558 166.648 117.921 163.37 107.431 172.538 104.564" fill="#252525"/><rect x="162.17715" y="101.02685" width="9.60845" height="3.71958" transform="translate(-23.12959 54.65528) rotate(-17.40391)" fill="#252525"/><rect x="160.93171" y="97.97022" width="9.60834" height="1.8615" transform="translate(-21.97013 53.99843) rotate(-17.37282)" fill="#252525"/><path d="M164.17454,130.49412a13.50612,13.50612,0,0,0-13.35716,11.53755c.35668-.00941.74417-.02149.8381-.03488a9.92835,9.92835,0,0,1,2.07171-.1301c.07649.00673.15826.01881.24813.0335a1.74147,1.74147,0,0,0,1.25106-.181,2.82409,2.82409,0,0,1,.35269-.14617,1.27713,1.27713,0,0,1,.26954-.05094,1.23591,1.23591,0,0,0,.43577-.1207,3.47463,3.47463,0,0,0,.61956-.822,5.36415,5.36415,0,0,1,.657-.90511,6.20774,6.20774,0,0,1,1.13043-.74156,9.667,9.667,0,0,0,.96552-.61145,5.19082,5.19082,0,0,0,.89439-.99772,5.99847,5.99847,0,0,1,.7-.82066,4.35677,4.35677,0,0,1,2.79721-.86356c.25478-.02684.5176-.04827.79923-.08445.2977-.03357.61283-.09392.91321-.15152.28828-.055.55914-.10862.80458-.13684a3.956,3.956,0,0,1,2.32115.4828,5.10788,5.10788,0,0,0,1.2766.4532c.067.01208.1448.02149.22526.03488.39293.059.98427.15022,1.12906.37548a.72022.72022,0,0,1-.1542.81125c-.57527.65038-2.01274.78447-3.07479.58331a1.31554,1.31554,0,0,1-.27758-.10992.88146.88146,0,0,0-.60473-.14617.858.858,0,0,0-.32989.2105.96068.96068,0,0,1-.20384.14885,4.72218,4.72218,0,0,1-1.79957.2199l.00536.00268-.012-.00268h.00665a1.49884,1.49884,0,0,0-.67853.01346c-.24668.14617-.39155,1.08079-.60473,2.59474a12.4657,12.4657,0,0,1-.27758,1.60108,6.03943,6.03943,0,0,1-1.30612,1.96983c-.17164.20253-.35667.41166-.52159.62223-.04558.05767-.08987.10058-.12873.14617a.98472.98472,0,0,0-.24.32715l-.03357.07648.06845.051a1.77344,1.77344,0,0,1,.834,1.77807l-.00941.06035.05232.03893a1.10784,1.10784,0,0,1,.40226.69192c.03755.12736.07779.27222.13951.4291a2.8604,2.8604,0,0,0,1.91483,1.42,2.293,2.293,0,0,0,1.08485.03083,1.12872,1.12872,0,0,0,.49213-.24271l.11-.08712-.11267-.07916a3.81365,3.81365,0,0,0-1.231-.42911c-.92254-.21317-1.78878-.413-1.64268-1.349a.641.641,0,0,1,.16766-.42643c.2749-.24943,1.65469.0644,2.31846.21723.19046.04023.35269.08047.472.10058a9.08833,9.08833,0,0,0,1.08889.08047c.936.0322,2.09321.07106,2.3815.56992a.899.899,0,0,1-.1126.85416,1.86908,1.86908,0,0,1-.9695.8488,2.42018,2.42018,0,0,1-1.12377-.07642c-.14885-.0322-.28424-.06165-.42238-.08046l-.06838-.00941-.0335.05767c-.59272,1.00843-1.35034,1.04729-2.48613,1.109-.3634.02012-.78447.04559-1.227.10725a6.38669,6.38669,0,0,0-.90379.20116,4.66584,4.66584,0,0,1-2.07584.21991,8.8447,8.8447,0,0,1-1.699-.535,9.6069,9.6069,0,0,0-1.43616-.46934,2.85087,2.85087,0,0,0-1.48442.19176c-.15826.04964-.30175.09921-.43982.13278-.37411.08712-.77644.1542-1.16531.22657-.232.04291-.75357.07511-1.24838.11939a13.49766,13.49766,0,1,0,11.25722-20.94029Z" fill="#686166"/><path d="M167.43175,147.9667a9.08833,9.08833,0,0,1-1.08889-.08047c-.11933-.02011-.28156-.06035-.472-.10058-.66377-.15283-2.04356-.46666-2.31846-.21723a.641.641,0,0,0-.16766.42643c-.1461.936.72014,1.13579,1.64268,1.349a3.81365,3.81365,0,0,1,1.231.42911l.11267.07916-.11.08712a1.12872,1.12872,0,0,1-.49213.24271,2.293,2.293,0,0,1-1.08485-.03083,2.8604,2.8604,0,0,1-1.91483-1.42c-.06172-.15688-.102-.30174-.13951-.4291a1.10784,1.10784,0,0,0-.40226-.69192l-.05232-.03893.00941-.06035a1.77344,1.77344,0,0,0-.834-1.77807l-.06845-.051.03357-.07648a.98472.98472,0,0,1,.24-.32715c.03886-.04559.08315-.0885.12873-.14617.16492-.21057.35-.4197.52159-.62223a6.03943,6.03943,0,0,0,1.30612-1.96983,12.4657,12.4657,0,0,0,.27758-1.60108c.21318-1.514.35805-2.44857.60473-2.59474a1.49884,1.49884,0,0,1,.67853-.01346,4.72218,4.72218,0,0,0,1.79957-.2199.96068.96068,0,0,0,.20384-.14885.858.858,0,0,1,.32989-.2105.88146.88146,0,0,1,.60473.14617,1.31554,1.31554,0,0,0,.27758.10992c1.062.20116,2.49952.06707,3.07479-.58331a.72022.72022,0,0,0,.1542-.81125c-.14479-.22526-.73613-.31651-1.12906-.37548-.08046-.01339-.15825-.0228-.22526-.03488a5.10788,5.10788,0,0,1-1.2766-.4532,3.956,3.956,0,0,0-2.32115-.4828c-.24544.02822-.5163.08184-.80458.13684-.30038.0576-.61551.118-.91321.15152-.28163.03618-.54445.05761-.79923.08445a4.35677,4.35677,0,0,0-2.79721.86356,5.99847,5.99847,0,0,0-.7.82066,5.19082,5.19082,0,0,1-.89439.99772,9.667,9.667,0,0,1-.96552.61145,6.20774,6.20774,0,0,0-1.13043.74156,5.36415,5.36415,0,0,0-.657.90511,3.47463,3.47463,0,0,1-.61956.822,1.23591,1.23591,0,0,1-.43577.1207,1.27713,1.27713,0,0,0-.26954.05094,2.82409,2.82409,0,0,0-.35269.14617,1.74147,1.74147,0,0,1-1.25106.181c-.08987-.01469-.17164-.02677-.24813-.0335a9.92835,9.92835,0,0,0-2.07171.1301c-.09393.01339-.48142.02547-.8381.03488a14.62562,14.62562,0,0,0-.14081,1.96447,13.42458,13.42458,0,0,0,2.24075,7.43827c.49481-.04428,1.01639-.07648,1.24838-.11939.38887-.07237.7912-.13945,1.16531-.22657.13807-.03357.28156-.08314.43982-.13278a2.85087,2.85087,0,0,1,1.48442-.19176,9.6069,9.6069,0,0,1,1.43616.46934,8.8447,8.8447,0,0,0,1.699.535,4.66584,4.66584,0,0,0,2.07584-.21991,6.38669,6.38669,0,0,1,.90379-.20116c.4425-.06166.86357-.08713,1.227-.10725,1.13579-.06172,1.89341-.10058,2.48613-1.109l.0335-.05767.06838.00941c.13814.01881.27353.04826.42238.08046a2.42018,2.42018,0,0,0,1.12377.07642,1.86908,1.86908,0,0,0,.9695-.8488.899.899,0,0,0,.1126-.85416C169.525,148.03776,168.36775,147.9989,167.43175,147.9667Z" fill="#d9d9d9"/><polygon points="165.078 138.333 165.073 138.331 165.066 138.331 165.078 138.333" fill="#d9d9d9"/><path d="M170.02245,138.53581a1.70524,1.70524,0,0,0-.59938.16354,2.23056,2.23056,0,0,1-.48945.15963,10.81785,10.81785,0,0,1-1.14787.09385c-.33388.01607-.64229.02815-.928.067l-.08314.0094a6.4447,6.4447,0,0,0-1.79551.39959.94276.94276,0,0,0-.49481.63967.832.832,0,0,0,.173.72412c.19038.2333.32179.25341.66109.31514.063.012.14075.02279.22121.04153a3.88875,3.88875,0,0,1,.40233.10326,4.14333,4.14333,0,0,0,.68925.15153,9.58834,9.58834,0,0,0,2.90315-.23872c.28561-.05493.55646-.10724.82333-.14885a2.35773,2.35773,0,0,1,.30167-.02677.947.947,0,0,0,.43989-.0872,1.00994,1.00994,0,0,0,.46933-.72007,1.5112,1.5112,0,0,0-.33257-1.16531A1.35772,1.35772,0,0,0,170.02245,138.53581Z" fill="#d9d9d9"/><path d="M172.01912,142.58278c-.17164-.62492-.81262-.90648-1.75933-.77912a1.66616,1.66616,0,0,0-.362.10862,1.808,1.808,0,0,1-.34864.11664,13.17542,13.17542,0,0,1-3.36583.06578c-.10724-.00941-.22258-.02685-.3312-.04024-.68252-.0966-1.32617-.181-1.74724.2655-.2736.291-.3621.5404-.2736.76566.1542.39958,1.04063,1.11437,5.22168,1.42813l.17034.01339a4.64492,4.64492,0,0,0,1.758-.07106A1.70542,1.70542,0,0,0,172.01912,142.58278Z" fill="#d9d9d9"/><path d="M169.75826,145.26732l.055-.01606c-.03618-.00268-.2977,0-.50552.0094-.37411.00666-.64633.01744-.7268.00666-.37281-.03748-.75763-.07106-1.17067-.10724-.70668-.05362-1.44282-.11266-2.16563-.2186a2.52836,2.52836,0,0,1-.43309-.11129,2.0469,2.0469,0,0,0-.93064-.1126.883.883,0,0,0-.71074.70263.91352.91352,0,0,0,.30175.98557,11.36077,11.36077,0,0,0,3.93437.98694,3.813,3.813,0,0,0,.6611-.012,2.55051,2.55051,0,0,1,.77369.012,1.641,1.641,0,0,1,.37013.14219,1.15725,1.15725,0,0,0,.78983.15015,1.58081,1.58081,0,0,0,1.00163-.76834.934.934,0,0,0,.13683-.99634A1.5578,1.5578,0,0,0,169.75826,145.26732Z" fill="#d9d9d9"/><path d="M148.02744,156.03752h32.29534a3.52833,3.52833,0,0,1,3.52833,3.52833v7.118a3.52672,3.52672,0,0,1-3.52672,3.52672h-32.297a3.52672,3.52672,0,0,1-3.52672-3.52672v-7.11958A3.52672,3.52672,0,0,1,148.02744,156.03752Z" fill="#d9d9d9" stroke="#595959" stroke-miterlimit="10"/><path d="M162.3998,159.18066h5.3164v1.39844h-3.6538v1.74707h3.1665v1.292h-3.1665v3.124h-1.6626Z" fill="#252525"/><path d="M59.10162,187.45154A8.7326,8.7326,0,1,0,65.502,176.89091,8.7333,8.7333,0,0,0,59.10162,187.45154Z" fill="#fff" stroke="#000" stroke-miterlimit="10" stroke-width="2.59567"/><path d="M97.80061,183.56317a8.73329,8.73329,0,1,0,10.3505-6.73491A8.73329,8.73329,0,0,0,97.80061,183.56317Z" fill="#fff" stroke="#000" stroke-miterlimit="10" stroke-width="2.59567"/><path d="M73.75166,67.84892A8.7319,8.7319,0,1,0,82.485,59.11563,8.73448,8.73448,0,0,0,73.75166,67.84892Z" fill="#fff" stroke="#000" stroke-miterlimit="10" stroke-width="2.59567"/><path d="M118.728,66.75134a8.732,8.732,0,1,1,8.732,8.73189A8.734,8.734,0,0,1,118.728,66.75134Z" fill="#fff" stroke="#000" stroke-miterlimit="10" stroke-width="2.59567"/></g></g></svg>