<svg xmlns="http://www.w3.org/2000/svg" viewBox="0 0 312.14062 433.73113"><title>MAESTRO-Pe06-rapport-mouflage-18</title><g id="Calque_2" data-name="Calque 2"><g id="Calque_1-2" data-name="Calque 1"><path d="M161.6833,420.4248h6.94239v1.71582h-4.90137v1.98926h4.499v1.58594h-4.499v2.27539h5.00488V429.707h-7.0459Z" fill="#ff3301"/><path d="M180.01436,425.72949H173.448v-1.3916h6.56641Zm0,2.78223H173.448v-1.3916h6.56641Z"/><path d="M184.71944,424.10449c-.06543-2.08008,1.11718-3.67969,3.30175-3.67969a2.89728,2.89728,0,0,1,3.12012,2.84766c0,2.75586-2.92578,2.97656-4.25195,4.84863h4.30371V429.707h-6.68262c0-2.11914,1.30078-2.99023,2.87305-4.06933.793-.5586,1.91211-1.1045,1.91211-2.22266a1.30741,1.30741,0,0,0-1.36524-1.4043c-1.09179,0-1.44336,1.13086-1.44336,2.09375Z" fill="#982e93"/><path d="M192.363,420.4248h6.52637v1.71582H194.404v2.14551h3.88769v1.58594H194.404v3.835h-2.041Z" fill="#982e93"/><path d="M207.39131,425.72949h2.58692v1.39063h-2.58692V429.707h-1.3916v-2.58691H203.4128v-1.39063h2.58691V423.1416h1.3916Z"/><path d="M214.68428,424.10449c-.06543-2.08008,1.11719-3.67969,3.30176-3.67969a2.89728,2.89728,0,0,1,3.12012,2.84766c0,2.75586-2.92579,2.97656-4.252,4.84863h4.30371V429.707H214.4753c0-2.11914,1.30078-2.99023,2.873-4.06933.793-.5586,1.91211-1.1045,1.91211-2.22266a1.3074,1.3074,0,0,0-1.36523-1.4043c-1.0918,0-1.44336,1.13086-1.44336,2.09375Z" fill="#982e93"/><path d="M222.32784,420.4248h6.52636v1.71582h-4.48535v2.14551h3.8877v1.58594h-3.8877v3.835h-2.041Z" fill="#982e93"/><path d="M239.94307,425.72949h-6.56543v-1.3916h6.56543Zm0,2.78223h-6.56543v-1.3916h6.56543Z"/><path d="M248.22334,427.60156h-3.84765v-1.69043l3.95215-5.30371h1.65136v5.47266h1.209v1.52148h-1.209V429.707h-1.75586Zm0-4.68066h-.03906l-2.35254,3.15918h2.3916Z" fill="#982e93"/><path d="M252.29268,420.4248h6.52637v1.71582h-4.48536v2.14551h3.8877v1.58594h-3.8877v3.835h-2.041Z" fill="#982e93"/><polygon points="146.36 433.123 146.376 416.532 140.379 416.526 150.587 406.343 160.772 416.546 154.776 416.54 154.76 433.13 146.36 433.123" fill="#ff3301"/><path d="M150.5862,407.19194l8.73755,8.75256-5.147-.005L154.16033,432.53l-7.2-.00708.01639-16.59057-5.14737-.005,8.75683-8.73535m.00177-1.69678-.84927.84717-8.75681,8.73535-2.05178,2.04676,2.8981.0028,3.94736.00391-.01523,15.3905-.00116,1.20008,1.2.00109,7.2.00708,1.2.00123.00119-1.2.01523-15.3905,3.947.00379,2.89753.00293-2.04712-2.05066-8.73755-8.75257-.84748-.849Z" fill="#fff"/><path d="M77.06514,184.83008l-.00586-6.52539,1.71582-.002.00391,4.48438,2.1455-.002-.00292-3.88672,1.58593-.001.00293,3.88672,3.835-.00293.002,2.041Z" fill="#982e93"/><path d="M117.31709,349.85742c-2.00586.55274-3.83691-.22168-4.35058-2.34472a2.89732,2.89732,0,0,1,2.03418-3.70215c2.67968-.64746,3.582,2.14453,5.71191,2.99414l-1.01074-4.1836,1.543-.37207,1.56836,6.49414c-2.06055.49805-3.21192-.56054-4.63086-1.83593-.72852-.64063-1.52149-1.59864-2.6084-1.335a1.306,1.306,0,0,0-1.04492,1.65527c.25683,1.0625,1.43847,1.13769,2.373.91211Z" fill="#982e93"/><path d="M111.94991,343.30371l-1.53321-6.34277,1.668-.40332,1.05371,4.35937,2.085-.5039-.91308-3.77832,1.542-.373.91309,3.7793,3.72753-.90137.4795,1.9834Z" fill="#982e93"/><path d="M181.74776,336.08008c2.04785.376,3.36035,1.86914,2.89746,4.00488a2.89615,2.89615,0,0,1-3.44141,2.44824c-2.69531-.582-2.292-3.48828-3.8418-5.17968l-.90917,4.20507-1.54981-.33593,1.41211-6.5293c2.07129.44726,2.64746,1.90234,3.36914,3.667.37988.89356.67676,2.10156,1.76953,2.33789a1.30694,1.30694,0,0,0,1.66113-1.03711c.23145-1.06738-.7998-1.65039-1.74121-1.85351Z" fill="#982e93"/><path d="M183.73116,344.31738l-1.37989,6.37793-1.67676-.3623.94727-4.38379-2.09766-.45313-.82031,3.79883L177.153,348.959l.82227-3.79882-3.74805-.81055.43164-1.99414Z" fill="#982e93"/><path d="M108.071,185.48535l-.37793-6.51465,1.71289-.09961.25977,4.47754,2.1416-.124-.22559-3.88086,1.584-.0918.22558,3.88086,3.82813-.22265.11816,2.03711Z" fill="#982e93"/><path d="M140.21162,185.0752l-.11718-6.52442,1.71484-.03125.08008,4.48438,2.14551-.03809-.06934-3.88672,1.58594-.02832.06933,3.88672,3.834-.06836.03711,2.04Z" fill="#982e93"/><path d="M217.73311,178.99707l-.00781,6.52539-1.71582-.00195.00586-4.48438-2.14551-.00293-.00489,3.88672L212.279,184.918l.00488-3.88672-3.835-.00391.002-2.041Z" fill="#982e93"/><path d="M281.21065,176.2207l2.00976,6.209-1.63281.52832-1.38184-4.2666-2.041.66015,1.19726,3.69824-1.50878.48926-1.19629-3.69922-3.64844,1.18164-.62891-1.9414Z" fill="#982e93"/><g opacity="0.2"><line x1="134.34949" y1="376.46652" x2="117.95224" y2="309.61568" fill="#fff" stroke="#000" stroke-miterlimit="10" stroke-width="4.39495"/><line x1="162.7464" y1="377.06135" x2="176.99704" y2="309.72025" fill="#fff" stroke="#000" stroke-miterlimit="10" stroke-width="4.39495"/><line y1="23.87843" x2="283.56853" y2="23.87843" fill="#fff" stroke="#000" stroke-miterlimit="10" stroke-width="0.87899"/><line x1="216.76806" y1="23.87843" x2="216.76806" y2="83.42443" fill="#fff" stroke="#000" stroke-miterlimit="10" stroke-width="4.39495"/><line x1="139.65996" y1="75.19344" x2="139.65996" y2="23.87843" fill="#fff" stroke="#000" stroke-miterlimit="10" stroke-width="4.39495"/><path d="M165.653,296.73259a14.43894,14.43894,0,0,0,14.413,13.00286,14.133,14.133,0,0,0,13.76871-9.80482l.05909-206.32812a21.9636,21.9636,0,0,1,42.87188-6.72168L282.614,229.79906l-7.11423,2.28123L229.64913,89.1656a14.49044,14.49044,0,0,0-28.28341,4.43691s1.51776,200.02084-.385,208.52552-11.30789,15.085-20.91113,15.085a21.88636,21.88636,0,0,1-21.82842-19.56683s-1.38258-192.149-3.76793-203.9713-14.7538-12.04613-14.7538-12.04613-15.87761,1.012-14.73,17.5632,11.62935,196.05974,11.62935,196.05974a21.62823,21.62823,0,1,1-43.25132,0V23.87843h6.1568V295.25172A14.48211,14.48211,0,0,0,114.219,309.50155c8.25953,0,14.69709-4.46242,14.69709-14.72376h.3S118.60462,114.724,118.60462,101.71355c0-14.62942,3.78274-27.23472,21.05534-27.23472,18.55257,0,22.68713,15.75092,22.68713,36.67263,0,17.153,3.30588,185.5627,3.30588,185.5627" fill="#34b3d1" stroke="#000" stroke-linecap="round" stroke-width="1.08779"/><path d="M171.4708,381.07931a22.85576,22.85576,0,1,1-22.858-22.858A22.86276,22.86276,0,0,1,171.4708,381.07931Z" fill="#686166"/><path d="M137.92074,369.999l-.00449-.00784C137.91959,370.02045,137.92074,370.017,137.92074,369.999Z" fill="#d9d9d9"/><polygon points="136.861 395.878 136.87 395.879 136.872 395.866 136.861 395.878" fill="#d9d9d9"/><path d="M142.94271,371.45148c.0091.00219.01578.01014.02373.01348h.001Z" fill="#d9d9d9"/><path d="M160.42093,371.46946s.13052-.2205-.10795-.17776a27.239,27.239,0,0,1-3.51456.31047c-.10356.48373-.32406.77173-.40954,1.215a2.47637,2.47637,0,0,0,0,.63,1.35871,1.35871,0,0,0,1.233.315A4.33875,4.33875,0,0,0,160.42093,371.46946Z" fill="#d9d9d9"/><path d="M153.72485,377.144c.20022.162.594.288.67958.5805a1.74613,1.74613,0,0,1,.03145.432c1.728-.17107,3.7665.05853,5.44959-.17556a8.60876,8.60876,0,0,0,1.359-.225c.315-.09,2.304-2.98348,2.20046-3.58207-.054-.31047-.46127-.69524-.64351-.891a4.4414,4.4414,0,0,1-.84374-1.008c.06866-.21266.11924-.41737.19124-.68844.60307-2.2523.144-4.7971-2.07455-4.59688a2.34124,2.34124,0,0,0-1.48944.6593c-.108.10794-.198.34872-.32406.4297-.162.10576-.37118.06981-.54893.153a3.55261,3.55261,0,0,0-1.10259,1.36583,3.43616,3.43616,0,0,0-.48143,1.323c-.02258.12153-.117.297-.15978.42981a1.64563,1.64563,0,0,1,1.06423.03825,22.30144,22.30144,0,0,1,1.36133-2.38052c.74915.13721,1.84944-1.13634,2.39849,0a5.15791,5.15791,0,0,1-.03606,2.268c-.07983,1.10478.4759.78083.83821.80779a9.94,9.94,0,0,1-1.45246,1.86073,4.37759,4.37759,0,0,1-2.529,1.36133c-2.106.26324-2.79006-1.953-2.106-3.93078-.33754.04044-.5085-.18006-.90675-.12154-1.48275.2205-1.494.603-2.26808,1.59531-.32844.4229-.62773.85272-.97426,1.24867A6.54614,6.54614,0,0,0,153.72485,377.144Z" fill="#d9d9d9"/><path d="M168.116,379.90484c-.45678-.78084-2.63247-4.89387-3.43358-4.71381-.40942.09-.63441.88867-.84822,1.24648a11.573,11.573,0,0,0-1.0958,2.0295c-.081.657.4365.89558.61207,1.28023a4.28239,4.28239,0,0,1,.38926.94281c.05173.279-.05622.48154,0,.69524a17.30812,17.30812,0,0,0,1.72122,2.85077c.16877.32406.153.64582.38259.89557.44548-.74708,1.04844-1.34555,1.49623-2.10161.33742-.59847.6457-1.26676.936-1.872.072-.15748.08778-.44768.19573-.54894C168.54123,380.53706,168.14529,379.96106,168.116,379.90484Z" fill="#d9d9d9"/><path d="M151.62566,377.49056c-.49733-.82357-.8798-1.70555-2.08353-1.75059-.28582.58844-1.134,1.76626-1.83378,2.94754-.02258-.02362-.054-.06406-.0743-.08329.009-.06521-.05173-.11924-.0697-.16866.00668.03375-.03156.05392-.04735.03375-.09-.126-.02465.01348-.14169-.10356a4.038,4.038,0,0,1-.58949-.8662c-.117-.02707-.135-.1508-.2228-.19135l.01578-.00449c-.0743-.05622-.333-.51749-.41852-.58949l.00449.02258c-.04493-.02258-.04942-.04389-.04838-.06866a.08072.08072,0,0,1,.00115-.02811c-.00449,0-.00115.00219-.00334.00334a.122.122,0,0,0-.00346-.06866.08554.08554,0,0,1-.06071.02143l.0068-.03041h-.00231c.01579-.01118.02926-.02247.02926-.02247a3.80274,3.80274,0,0,0-.27-.76724c.01579-.01578.02258-.00449.02258-.00449a.891.891,0,0,0-.126-.18006c.01129-.03375.04723-.04723.063-.06071-.04055.02477-.234-.34422-.2205-.35781l-.09907.04953c-.03376-.06969.10126-.0788.045-.13271-.14849.03594-.045-.11255-.12154-.09677a.06407.06407,0,0,1,.03606-.05622c-.07879.02247-.03156-.02926-.05852-.04055-.02477.009-.018.018-.04055.03376l-.04942-.03825c.018-.02246.05391-.04954.07419-.03606a4.17239,4.17239,0,0,0-.36-.85721c-.04492.03825.01129.06071-.063.12373-.0697-.009-.01118-.05853-.072-.04943.12384-.0766-.00668-.09227.11474-.18224l-.081.02465.03606-.03594c-.15529-.11705-.05173-.02028-.11255-.162-.04274-.06751-.162-.054-.15068-.117,0,0-.02927.04274-.05853.03594.05853-.03594-.06981-.03145-.01129-.072-.02027-.02016-.04493-.081-.11923-.018.03606-.03376.02926-.099.08329-.08767-.01129-.02027-.009-.045-.02926-.04735l-.01578.03606c-.04505-.06071.00679-.12822-.09-.13052l-.02926.045c-.02027-.03825-.04274-.06082.02926-.12384l.05622.02707a.27622.27622,0,0,0-.135-.13282l.0023.02257c-.11923-.02707-.378-.34422-.5085-.35332l-.054.06083-.08548-.01809a2.05416,2.05416,0,0,1,.2137-.07419,1.388,1.388,0,0,1-.18893-.41173c.018-.0675.10795-.05852.10795-.05852-.04274-.04954-.0765.0068-.09228-.04055l.063-.02246c-.01347-.018.0045-.04954-.03145-.02926-.01578.036-.09458.06531-.1463.10126l-.02131-.05507.00564-.0068.04493-.02142-.03145.00564c.00668-.01117.018-.01463.02246-.02811a.23688.23688,0,0,1-.14169-.00564c-.00231-.00334-.01129,0-.01129-.00565a.53794.53794,0,0,1-.027-.08548.87068.87068,0,0,1-.02926-.10575.29341.29341,0,0,0-.054-.11025.11262.11262,0,0,1,.04723.0023l.01348-.03824c-.04493.04493-.05172-.02707-.06751.00668l-.01566-.00668s-.01129-.009-.0068-.01809a.03551.03551,0,0,0-.00449.0136l-.01348-.0045c.009-.00449-.03825-.045-.02708-.054-.02016-.02246-.05621-.081-.0584-.045,0,0-.03157-.072.00219-.04723a.18484.18484,0,0,1-.027-.036l-.0023.01567c-.04493-.04942-.05853-.09-.10795-.11025l.01118.02477c-.02477-.02926-.06071-.04274-.05853-.072l.04735.018a.52371.52371,0,0,0-.13386-.07419l-.02707-.00679a.99427.99427,0,0,1-.06866-.10345c.01578-.15979-1.09568.10126-1.23968-.0765l-.11025-.126-.423.06636a1.13086,1.13086,0,0,1-.03376-.4691c-.07649-.02926-.03156-.09447-.09-.126l.02466.0023a.81439.81439,0,0,1-.0348-.25206,2.34033,2.34033,0,0,0,.59283-.40724,3.58137,3.58137,0,0,0,.75157-1.03277c.081-.108.09.02476.099.02926.04055-.17327-.03145-.09677.02247-.234.02257-.03375.04055.02247.03824.04954.01578-.06532.05184-.11255.02926-.12833-.04723.072-.09677.00679-.153.01578a1.19879,1.19879,0,0,0,.05852-.17326l.04055.02695a2.0566,2.0566,0,0,1,.009-.5085,2.03557,2.03557,0,0,0-.00449-.75595c.02247,0,.04942.06521.072.135,0-.04723-.02027-.11255,0-.1508-.03606.081-.04953-.13271-.05852-.072a7.63583,7.63583,0,0,0-.53557-.63,2.66338,2.66338,0,0,0-.46127.08779,1.32012,1.32012,0,0,0-.09665-.27c.33293-.20022.6457-.423.62773-.72451l.03825-.02016-.063-.08778c-.05852-.12154-.1372-.13052-.10126-.1508l.11025.14182c-.06751-.11256.00449-.05634.04723-.03157a.70163.70163,0,0,1-.06969-.135c-.03157-.01347-.00231.02477,0,.05185a.88241.88241,0,0,1-.18456-.17327c-.09227-.10126.04274-.05852-.06071-.18225a2.97342,2.97342,0,0,0-2.11728-1.07333c-.018-.02027.00219-.018.02926-.02695a2.663,2.663,0,0,0-.67047.07868.25359.25359,0,0,1-.10357-.04942c.018.01117-.27671.08317-.55573.22948a3.39883,3.39883,0,0,0-.531.31726l.02465.09447c-.18225.14181-.11244-.04274-.26323.11923.00449.1485-.25875.26784-.26773.3713,0,0-.0765.07649-.09677.04723.03156.072-.05622.10806-.08548.17326-.0023.02926.027-.00219.05622-.0068-.027.04735-.03825.09228-.072.14861-.03825.03825-.07868.036-.054-.03156a3.43377,3.43377,0,0,0-.49272,1.3838,3.65167,3.65167,0,0,0,.1508,1.55924c.02926-.0675-.04723-.20471.02028-.27671.06071.11244.02914.18225.08548.2205-.08779.08548.05852.27441,0,.40493l.072.01348-.01129.07661c.31046.47244.27.00668.51529.44767.171.23409.33524.23628.40943.37578-.00668-.02246-.027-.09446.03606-.04953-.03157.04953.081.09009.06969.15978a.55946.55946,0,0,1,.06083.24861c.01232.063.13835.18674.03824.14066.04943.04274.09677.09677.1417.10345l-.063-.0697c.18455.13271.27233.24745.423.25425l-.05173-.0743c.10576.072.20471.11024.23179.20033l-.13732-.03606a1.43245,1.43245,0,0,0,.369.11924.11084.11084,0,0,0,.01808.04274.18738.18738,0,0,1-.06532.02926c.03825-.01118.081.20252.06982.20932l.07868-.01129c.00449.04274-.08767.02477-.063.063.11935-.00679-.00449.06071.063.06071-.01118.0045-.01118.02258-.04493.02708.063-.0068.018.02016.03145.02695.018.00231.02027-.00449.04055-.01348l.03145.02247a.54484.54484,0,0,1-.063.02707,1.206,1.206,0,0,0,.03157.47244c.04493-.01129.00449-.02926.07868-.04953.04723.0091-.00668.02707.03376.02926-.073.01693-.0697.03375-.08433.05287a4.04118,4.04118,0,0,0-.89442.368l-.08779.01348.01579.04953c-.04274.072.06531.081-.02477.09447l.00679-.08779c-.02476.06982-.06981.02926-.12821.018a.118.118,0,0,1-.04735.0833c.03836.00679.04055-.01348.06532-.02927.03375.02927.11923.054.081.10576-.0023.06532-.1463.03375-.14849.117l-.00334.02811a.351.351,0,0,0-.03491.01682l-.0788-.06071a.1244.1244,0,0,1,.03157-.03825c-.02258-.018-.063.0068-.06083.04274l.063.05173c-.02016.06532-.05173-.02016-.07868.03156-.05853-.04055-.03157-.09458-.009-.13282-.03606.02926-.09677.03375-.05184.08559-.04723.018-.063-.054-.11025-.03375-.00668.03824.01578.10794-.04043.11474l-.01348-.01129c-.0765.02477-.04735.099-.063.15978-.03156.02926-.02477-.01129-.054.02926h-.009v-.01129c-.04505,0-.04954.081-.11025.09228l.03375.00668a.15105.15105,0,0,1-.02707.06083c-.027.027-.04043.06071-.09.0652l.018.07431c-.14619.15748-.31047.44548-.441.62093l.0023-.01348a11.27752,11.27752,0,0,0-.77622,1.11607c-.07661.0045-.11255.0629-.15979.09216.036-.00668.0697.03157.04274.05184-.10575.12592.03376.04044-.05172.18444a3.87107,3.87107,0,0,1-.76505.82127c.01348.12822-.11924.17557-.12822.28121l-.01348-.02016c-.03375.09677-.45228.47474-.50182.58269l.02028-.00219c-.009.11243-.08548.03824-.15748.072a.20273.20273,0,0,1,.063.20022l-.02027-.02247a1.12783,1.12783,0,0,1-.05852.26992l-.03825-.04044c.0068.09447-.09447.17546-.126.216-.09.0675-.27.135-.30828.29929l-.19342-.03375.009.02465s.06521.05633.17327.14181l-.01348.027-.0091-.01348a1.02549,1.02549,0,0,0-.04044.21831c-.018.02465-.02028.02465-.02028.02465a.8796.8796,0,0,0,.00231.21151,1.0272,1.0272,0,0,0,.04493.21151l.02477.00449c.02926.072-.027.02926.01129.10126.04723.0136.05621.10472.08317.126a2.27441,2.27441,0,0,0-.03825.5153c-.018.00668-.02016-.00231-.02016-.00231.01567.06083.01118.117.03145.17557a.10008.10008,0,0,1-.0675.03825c.04055-.009.06071.34192.04953.34192l.08779-.00219c0,.063-.09908.02926-.072.08778.11693.01348-.00679.10345.05392.12373a.05856.05856,0,0,1-.04723.02926c.06071.00449.01578.02695.03375.04493l.03606-.01348.02246.045-.04953.02246a2.58449,2.58449,0,0,0-.02247.76955c.03594-.01578.00449-.054.081-.07649.04723.03145-.01129.05621.02926.063-.10576.02016-.01578.072-.13271.10576h.0629l-.03825.02914c.0788.13052.03375.02258.02477.1531.01578.072.10356.099.07649.13951,0,0,.03157-.02027.04954-.0023-.04954.0023.04055.045-.01578.05852.009.01578.00449.08318.081.05173-.03824.009-.04942.0675-.08317.03145-.00231.02476-.009.045.00219.063l.02707-.027c.00668.05622-.04274.09447.02477.126l.02695-.02476c.00669.03824.01579.0675-.063.08548l-.02247-.03376a.24749.24749,0,0,0,.05853.1485v-.018c.081.054.15068.387.24964.43881l.05633-.03376.05173.04493-.17545-.01348a5.02715,5.02715,0,0,1,.05391.77853c-.02926.04493-.09447.01118-.10794.018.02476.04274.0652.009.063.05173-.0068.01578-.04723,0-.04723,0-.00231.02027-.0136.04055.00668.03375.02246-.02695.09228-.02246.14181-.03594l-.00449.05391-.045.00461s.12822.01567.10126.0765a1.9708,1.9708,0,0,0,0,.28351.08637.08637,0,0,1-.06083-.03606s.00461.03145-.01567.03375c.04724-.02027.03825.03825.03825.03825.135.03606.03376.1372.11244.19123l.16762-.00449c-.1091.25989-.289.70319-.34307.89108l-.0765.02016c.027.05634-.02246.09009-.00679.16209-.018.027-.05622.00449-.06072-.01359.01348.063-.054.10356-.02695.14849l.02246-.00219c.027.10345-.13951.10126-.11255.2137h.01129c.02246.054-.054.07431-.081.09907.0045.05853.0697.03376.08318.07869-.072-.00669.33086.29249.32406.33074.02028-.04044.05173-.08548.10794-.05841-.02465.04942.50862.20241.46357.25644l.16877-.01117c-.02926.01347-.03375.06969,0,.081-.01129-.00679-.0023-.03375.00219-.06082l1.05755.16658c.11025-.04954.04055-.207.19354-.24527.018.02926.027-.054.0652-.00679-.009-.02247.00231-.04044.00449-.06521-.02926.02247-.04723.03825-.08329.03145a3.33876,3.33876,0,0,0,.11935-.369c-.0023-.081.15069-.06969.15069-.06969l-.054-.01579.02027-.0743c.04723.03606.135.054.1508.08778.03145.0068.01348-.02027.01348-.04274l-.04723-.00679c.01129-.05622.16877-.18225.21369-.24078,0,0-.08317.01809-.10794-.04492.00565-.13272-.4714-.98774-.54006-1.2792l.03824-.001c.00231.018.00231.04044-.01117.04493a.04522.04522,0,0,0,.02246-.06969l-.054.00783-.00218-.00668c-.00346-.02028.0326-.01244.02926-.0462.05172-.01348.0584.027.0652.06532.0068-.03375.03825-.06532-.01348-.0788.018-.02476.06071-.00449.08329-.04055-.01808-.02246-.06981-.04942-.03836-.07649l.00461-.00449c.05391-.072-.08329-.09677-.02707-.171l.01578.00668c.027-.02465-.01129-.06739.018-.10794,0,0-.05172.02476-.054,0,.03157-.04724-.00668-.07431.03606-.11256l-.05852-.03145c.0023-.15978-.099-.80329-.11705-.963l.0136.00449a7.58881,7.58881,0,0,0-.13951-1.01031c.04723-.04505.03594-.10127.04274-.144-.02028.03157-.05622.02247-.054.00231.00679-.126-.03376-.00231-.05622-.13053a2.39875,2.39875,0,0,1,.009-.85053c-.0833-.063-.03157-.153-.072-.2228l.009.0045c-.027-.06521.02246-.49721-.009-.5714l-.00679.00449c-.04942-.06751.02926-.06751.05184-.126a.132.132,0,0,1-.14181-.06981l.01578.0023a.418.418,0,0,0-.04954-.08432,3.76823,3.76823,0,0,0,.594-.57267c.02707.01348.01809.018.02258.03145.03375-.08548.09-.144.12822-.225a.50724.50724,0,0,1,.08778.02926c-.04954-.02027.243-.38477.25874-.38028l-.0743-.06969c.04953-.06981.10806.05852.135-.018-.09-.12154.10357-.09677.063-.16877a.06155.06155,0,0,1,.06751.01117c-.054-.06071.01129-.04274.009-.07419-.00679-.02258-.01578-.01129-.04274-.02477l.01579-.0652c.03375.00449.07419.03145.0652.05841a5.69377,5.69377,0,0,0,.71321-.75826c-.06071-.02477-.0629.03606-.14849-.00449-.01348-.0697.05184-.03825.02258-.08767.12372.07419.08548-.06083.22268.01348l-.05173-.06083.04954.01129c.02477-.10011.02477-.11255.0326-.11589a1.04306,1.04306,0,0,0,.02592.16992c.09447-.05622.027-.10575.171-.15748.09.04044-.02246.08548.072.09447-.225.06969-.04274.1372-.26323.22729l.126-.01129-.07661.04954c.1508.22948.06751.04492.06083.27222.03145.135.2115.153.15068.24077,0,0,.0788-.054.11485-.02708-.11485.02708.08548.06751-.02027.11025.01348.02926.01348.14182.15518.06751-.072.03825-.09447.13951-.16866.09458-.0023.03594-.01578.07419.018.08767l.03825-.05173c.02926.10357-.08548.18674.063.23179l.05853-.054c.01566.05852.03145.11923-.11705.17557l-.05852-.063a.34459.34459,0,0,0,.12154.243v-.02926c.162.08329.34652.657.53545.71782l.11474-.063.10357.0697c0-.01578-.38028.03375-.33973.01578a7.50412,7.50412,0,0,1,.14619,1.377.19482.19482,0,0,1-.18674.054c.03145.07868.11255.01348.10575.09228-.02027.027-.09677.01567-.09677.01567s-.04043.05852.02247.04953c.03606-.045.18225-.05852.27452-.099l-.00219.099-.09458.018c0,.018.25656.0045.216.10357a.7044.7044,0,0,0,.00345.10794l-.31392-.01348c.00449-.02695.01348-.054.02926-.06071a.06078.06078,0,0,0-.04954.08767l.10127.0136c.03156.0629-.06072.01117-.05622.07649-.08329,0-.09447-.063-.10357-.11705-.01348.05173-.072.09228.01578.11705-.03824.04043-.10345-.0091-.14169.04043.02477.04056.09446.09908.04942.13951l-.02016-.00219c-.08779.099.12142.17546.03145.26992l-.02926-.018c-.05173.03157.00449.10575-.04724.171.01348-.02016.0788-.03376.08548.0068-.05621.0743-.00449.12821-.07649.171l.0788.05634c-.02707.24975.04043.99453.03824,1.24648l-.01347-.01129a12.23645,12.23645,0,0,0,.1372,1.60659c-.08778.05392-.072.13951-.099.20241.036-.03594.08548-.01348.08318.01129-.01567.198.05172.01578.08329.216a3.98092,3.98092,0,0,1-.171,1.314c.11244.117.01567.24757.08318.35781l-.02927-.01347c.04055.12372-.11923.76942-.07649.90444l.01348-.018c.06751.11923-.0629.099-.10576.18674a.2007.2007,0,0,1,.207.14181l-.03145-.0023a1.47539,1.47539,0,0,1,.1417.29249l-.0765-.009c.01579.01682.01129.04055.01809.06071-.03272.01348-.06981.03272-.05852.054l.08548.03491c0,.01347,0,.02131-.00115.0349-.02132-.00115-.04724-.0068-.05507.03145-.09009-.027-.08559-.09-.0811-.144-.02247.045-.09666.0652-.009.117-.04723.03145-.10575-.04055-.15967.00219.01567.04274.08548.11474.02016.13951l-.01566-.009c-.11705.072.11693.03824,0,.10126l-.02258-.02247c-.06071.01567-.01348.10564-.08767.1417.02477-.0068.09216-.0023.09.03376-.0743.04953-.04055.11474-.11923.14169l.06969.06751c-.09676.23628-.279,1.17909-.34422,1.41306l-.01129-.009c-.072.369-.603,1.04845-.60745,1.4535-.09908.027-.10576.11025-.1485.162.04044-.02016.09677.01578.08548.03606-.0652.17545.054.027.02926.225a2.52445,2.52445,0,0,1-.39825.999c.08779.13053-.04274.22718.00219.35551l-.027-.02258c.009.11705-.297.67958-.297.81229l.02695-.00668c.04274.12591-.08767.06969-.153.144a.225.225,0,0,1,.18006.18674l-.02708-.01348c.0045.06071-.31277.17764-.31945.27671l-.07649-.03156c.054.09458-.02477.2228-.03157.27683-.072.10794.06532.37348.11255.567l-.24526.03145.018.02477s.34318.13951.79086.30482l-.33178-.05391c-.05288.30482-.29711,1.38264-.31508,1.66615l-.08767.04493c.05841.06981-.0023.12154.03825.207-.01359.04274-.0743.018-.08329-.0068.04274.0788-.03157.1463.00668.19584l.02707-.01359c.0765.13052-.1463.16209-.06981.2948h.0091c.04724.05622-.045.10126-.072.13951.027.06969.09666.02246.13041.07649-.09216.01348-.04274.06981-.03825.135.02028-.063.04505-.12822.12154-.11705-.01578.0788.08548.02926.045.09907l-.10356-.009c-.027.02914-.01348.10345.01348.10575l.00449-.072,2.92058.18444c.13271-.08548,2.48628.072,2.67751-.02246.02707.03594.01129-.07431.08778-.02258-.03605-.02016-.018-.05392-.01578-.072-.02926.02707-.063.06082-.10126.05852.00449-.16647-.32176-.567-.33524-.73118-.02926-.09677.17327-.10357.171-.126l-.072-.0068-1.34325-.42636c.04274.00334.02258-.02926.03606-.06186-.02246.01128-.07649.02926-.09.00449-.0023-.0788.05841-.01578.08548-.10126,0,0-.10126.045-.1485-.027-.02361-.13951-.65814-.52543-.97656-.79431.00795-.009.01129-.02247.02708-.02477-.02258-.02016-.02708-.00219-.04735-.00449-.02016-.02927-.0697-.09217-.02926-.11244.01808-.045.117.03594.144-.02028.16428-.29929.04285-.70871.126-1.02828.03156.0023.02926.009.02926.009a2.69015,2.69015,0,0,0,.05173-.27441.66291.66291,0,0,1,.117,0c-.0652-.0046.09447-.50631.11474-.50861l-.135-.04723c.02708-.09677.15748.01578.15979-.0697-.17776-.10357.06751-.144-.02247-.207a.08732.08732,0,0,1,.08767-.018c-.09677-.04274-.00668-.05172-.02016-.081-.02477-.02258-.03606-.0045-.06751-.0045l-.01359-.06981c.03606-.02246.10357-.0068.10126.02477a5.10939,5.10939,0,0,0,.45009-1.08451c-.08778,0-.054.072-.17775.04954-.04954-.06532.04942-.05852-.0136-.10806.18456.04505.072-.08329.26335-.05172l-.09907-.04724.06981-.00449c-.03605-.23409-.03156-.063.04943-.23628.02027-.10575-.10346-.207-.03145-.23846,0,0-.0765.00449-.09447-.03157.09447.03157-.04055-.09227.05391-.07649.00231-.03145.04056-.11255-.09676-.12373.06531.00668.117-.05622.15529.00219.01578-.02477.045-.04274.018-.0697l-.04044.018c.00668-.09228.27453-.225.18444-.315l.09009.26991c.01348-.05622-.13283-.36-.009-.33293l.02465.0652a.34218.34218,0,0,0-.00668-.23627l-.01348.02476c-.09008-.13271.11693-.39145-.0091-.52646l-.10345.01347-.05622-.099a1.93676,1.93676,0,0,1,.25644.12821,7.64427,7.64427,0,0,1,.32291-1.04291c.00565.00115.018-.001.00783.00795.02258-.01129.054-.01348.063-.03376l-.03825.009c.03042-.01694.03721-.03041.06083-.04159a.31225.31225,0,0,1,.09.03479.07905.07905,0,0,0-.03606-.073c.009-.00679.02708-.01244.03376-.02258a.39977.39977,0,0,0,.04055.01913c-.009-.02362.00334-.03376-.009-.04608.02247-.01579.04389-.0394.0697-.03491l-.04044.04723a.46915.46915,0,0,0,.1485-.16646l-.02258.02477a1.60191,1.60191,0,0,0,.14849-.306.60941.60941,0,0,0,.03825-.31726l-.02915.03375a.2759.2759,0,0,0-.01808-.0743l.07649.054c0-.018.00231-.04724.00449-.081l.02258.00219-.0023-.04942c.04055-.05184-.04044-.0811.03375-.07661l-.01578.07661c.02258-.05184.05852-.0091.09907.018a.11816.11816,0,0,1,.03825-.06532c-.02246-.01348-.027.0023-.045.01129-.02247-.027-.09-.07649-.05173-.10794.01129-.05853.11924,0,.135-.06751a5.49463,5.49463,0,0,0,.18225-1.02161c.03824-.00449.03145.0068.03145.0068-.01348-.09228.00449-.19123-.018-.2857a.51457.51457,0,0,1,.11256-.04055c-.06532.018-.03825-.52877-.01809-.531l-.1349-.02028c.00449-.10356.15068-.02027.12591-.12154-.17994-.04723.03157-.15068-.06969-.19572a.095.095,0,0,1,.08778-.04055c-.10575-.018-.02027-.04942-.045-.0765-.03145-.01348-.03145.00231-.06521.009l-.02926-.06751c.03145-.018.09447-.02246.10345-.00219a6.69645,6.69645,0,0,0,.126-.68061c.12822.162.28006.40943.40954.44215l.08767-.063.09907.05173a1.68565,1.68565,0,0,1-.2948.02926,6.18605,6.18605,0,0,1,.297,1.152c-.04043.0697-.153.04954-.153.04954.03824.06969.09446.00668.099.07419-.01347.018-.07868.018-.09446.009.02246.02477-.009.05633.04055.05173.027-.04724.153-.0674.225-.09666l.009.08318-.07879.01578c.00679.01578.2228-.01348.20482.07649a3.23658,3.23658,0,0,0,.072.414.15583.15583,0,0,1-.11934-.03157c.00679.02258.02476.04505-.0045.072.07431-.05391.06751.03606.09458.0068.21151.04274.0697.21819.225.27222l.12373-.04274a.20367.20367,0,0,1,.01578.05173c.027.04274.01578.054.01578.054s.04608.072.10564.14849c-.0258.34653-.01,1.10144-.02016,1.314l-.01129-.01348c.00231.378-.3668,1.1565-.288,1.54807-.09.04942-.08329.135-.10794.19342.03594-.03145.09665-.01347.09216.01129-.03145.19573.05633.02028.072.21382a2.44857,2.44857,0,0,1-.171,1.06423c.11474.11474.0068.23846.07649.34871l-.02926-.018c.03376.117-.14619.7245-.11474.85952l.018-.018c.06751.11923-.06969.09-.12372.171a.24651.24651,0,0,1,.2228.144l-.03606-.00231c.02477.063-.26324.24526-.25425.33535l-.07419-.01359c.07419.08559.02016.22959.027.279-.04505.126.15079.35551.23178.53326l-.23178.081.02027.01809s.12822.02246.31727.05287a9.61988,9.61988,0,0,0-.16877.95733l-.08779.045c.054.072,0,.13271.03825.216-.01129.04942-.06751.02477-.08548.00219.04044.07431-.03375.15978.01348.207l.02477-.02028c.06969.13052-.1485.18225-.0788.31277h.01129c.045.05853-.04505.11474-.081.15748.03145.06982.11025.01579.135.072-.09458.01579-.03825.07431-.03606.13283.01809-.06083.045-.135.126-.117-.018.07649.08548.02027.03825.10126l-.09677-.00231c-.03376.02927-.02028.10127.01129.09908a.679.679,0,0,0,0-.072l4.14229.19572c.12822-.09677,1.04395.00231,1.2353-.10575.02915.03156.018-.07868.09-.02926-.02707-.02028-.01578-.05622-.01129-.08548a.14118.14118,0,0,1-.10794.0697c.00449-.16866.05392-.34872.04493-.513-.027-.10794.17107-.14619.17107-.14619h-.06981l.00231-.10126c-.225-.11923-.02927.135-.33075-.06071.03825.00449-.30159-.17107-.28581-.207-.01578.009-.06751.03376-.09.009.00668-.0788-.504-.14631-.459-.24077a3.1766,3.1766,0,0,1-.702-.32625c-.02707-.12258-.45678-.234-.75492-.35217l-.00564-.04159c.04274-.045-.04274-.081.03156-.072l-.01808.072c.03375-.045.072-.0068.11255.018a.0944.0944,0,0,1,.04055-.054c-.02258-.018-.02926.00231-.02926.00231-.04055-.02477-.10576-.072-.06751-.10126.00668-.054.12142.009.13721-.05173.09227-.32625-.11474-.702-.099-1.03727.03594.0023.03594.009.03594.009a1.90379,1.90379,0,0,0-.01578-.279.3258.3258,0,0,1,.11485-.02247c-.063.009-.01578-.5085.0045-.52428l-.13732-.018c.009-.09677.16427-.01578.135-.10806-.189-.05622.02926-.14849-.06071-.19573a.07927.07927,0,0,1,.08767-.02695c-.11244-.03157-.02246-.054-.04493-.081-.03375-.01359-.03375.00449-.072.00668l-.02926-.0652c.03594-.02247.099-.02247.10794.009a4.81012,4.81012,0,0,0,.21151-1.14971c-.08317.01118-.03375.07419-.16646.08318-.063-.05852.03375-.072-.04044-.099.19573-.00449.05622-.10356.25425-.12372l-.10575-.02028.0675-.01578c-.08778-.22729-.04734-.05852-.0046-.23628-.0045-.11474-.1462-.18225-.08548-.234,0,0-.0697.02246-.09-.0068.09.0068-.063-.08318.02926-.08548-.00679-.02926.01348-.11923-.117-.10126.06532-.01118.09907-.08548.153-.02926.0023-.03145.02926-.05392,0-.0697l-.03825.02246c-.01348-.09.2251-.27671.11025-.34871l.1508.24077c-.00231-.05622-.207-.31507-.0788-.32625l.03375.06521a.3095.3095,0,0,0-.05391-.22949l-.01129.02477c-.11923-.11474.03145-.40274-.11923-.504l-.10127.02926-.0743-.081c-.00668.00668.31726.06751.28351.06751a5.88806,5.88806,0,0,1,.10357-1.152c.06071-.063.15517.00219.15517.00219-.01117-.0765-.081-.03825-.0697-.10127.02247-.018.0765.009.09228.02028-.01129-.02926.02477-.04723-.02258-.05173-.03594.027-.15967-.00449-.24065.00219l.02246-.07419.07649.009c.00219-.01578-.21151-.06532-.15529-.144.04505-.12373.03157-.27453.06751-.40505.04055.00449.06532.03606.09228.072.009-.02246-.0045-.04942.03145-.06071-.09.02477-.05173-.063-.08767-.04274a.15294.15294,0,0,1-.05173-.05967c.00334-.00784.01118-.018.009-.02581l-.01244.02131-.0045-.00449c.03042-.07765.063-.12707.05069-.1834l-.02707.03156c.01578-.05852.02028-.10356.054-.12372l.00449.0629a.8794.8794,0,0,0,.00231-.22948l-.0068.02926a2.16946,2.16946,0,0,0-.05852-.26324c.009-.02476.01129-.05172-.00668-.063l-.01579-.00219-.00679-.01359a.25081.25081,0,0,0-.02247-.06072.11357.11357,0,0,1,.11255.081c.00219-.05172.05173-.11244-.04734-.10575.02476-.04954.10356-.027.13282-.08548-.03375-.03145-.12833-.05852-.08778-.11255l.01348-.00669c.06532-.126-.171-.117-.10345-.23846l.03145.00219c.045-.04724-.04493-.09228-.00219-.16647-.01359.018-.07431.05391-.09677.02246.04274-.08547-.02258-.12153.02926-.189l-.09458-.02246c-.04274-.24746-.32394-.891-.39145-1.13623l.01348.00668a9.98735,9.98735,0,0,0-.513-1.467c.072-.081.02927-.15748.03606-.22729-.02258.045-.09227.05634-.09458.02926-.03145-.19572-.05852,0-.1417-.18443a3.52143,3.52143,0,0,1-.21381-1.27125c-.15068-.06532-.08767-.22729-.19342-.30379l.02914.00219c-.06969-.099-.10564-.747-.17764-.8617l-.0091.018c-.10575-.09.03606-.11025.04954-.20921a.21467.21467,0,0,1-.25874-.06082l.02926-.00219c-.03157-.04274-.18006-.14181-.225-.225l.081-.018a.20061.20061,0,0,1-.09228-.12718l.32176-.05968a.10775.10775,0,0,1-.027.0811c.05852-.02027.08548-.09008.04493-.11255l-.12822.018c-.04723-.0675.072-.03824.05622-.10794a.11463.11463,0,0,1,.15529.09677c.00449-.054.081-.12384-.04274-.12384.04274-.05841.13052-.02466.171-.09666-.03594-.03375-.13951-.0743-.08548-.13282l.02027-.01348c.09677-.13951-.18-.153-.081-.28351l.03825.0023c.054-.05633-.02927-.11485.02695-.20033-.018.02477-.09446.05852-.11243.01808.0584-.09907-.01579-.14181.0629-.216l-.10795-.04055c-.00783-.24192-.16762-1.01481-.25091-1.45015.01348-.00784.02362-.01348.0394-.02132a1.52452,1.52452,0,0,0,.08548.1394c-.009.01808-.018.01578-.018.01578a2.23633,2.23633,0,0,0,.15748.16877.14364.14364,0,0,1-.04044.072c.02915-.03825.2925.31047.2857.31945l.06982-.04942c.05172.0697-.05853.08548.009.13053.099-.04735.06071.10794.12373.09665a.04155.04155,0,0,1-.02028.05184c.05852-.02707.04055.027.063.03594.02477-.009.018-.02027.018-.02027l.05852.01129a.0912.0912,0,0,1-.02926.054,4.07027,4.07027,0,0,0,.52877.80548c.02028-.045-.02926-.05852.018-.126.054.0045.018.05853.06531.03376-.07649.09677.03825.09677-.03375.19573l.05622-.03145-.02477.04055c.16428.099.054.01117.13721.14169.0675.072.15529.05173.16427.10806,0,0,.009-.04285.04274-.03375-.04274.03375.063.02246.02926.072.02028.01348.054.081.09458.00449-.01578.03594.01567.10345-.03605.09,0,0,.01347.04044.04055.04954l-.00231-.03825c.04954.05392.03606.12373.11924.11924l.0023-.03606c.03375.03156.06071.06083.01117.117l-.04274-.02258a.35846.35846,0,0,0,.1485.12154l-.01348-.02246a1.757,1.757,0,0,1,.37014.22833,1.63268,1.63268,0,0,0-.06417.88313,14.80615,14.80615,0,0,0,1.05986,1.24878c.29917.38028.648.792.95617,1.21272-.01118.05288-.03479.10691.02027.1553l.01348-.01129c.04954.036-.00219.09458-.009.13052.04505.04723.081-.01348.11705.01809-.02028.01232.02362.02016.08329.02695.03825.06187.09446.12039.12822.18225.24745.42521.20252,1.10029.6593,1.28922a.82555.82555,0,0,0,.55123.03825c.24746-.11924,2.80354-5.67,2.736-6.354C152.96441,378.60652,151.99683,378.12279,151.62566,377.49056ZM138.9602,388.06339a.13206.13206,0,0,1,.02811-.0349.186.186,0,0,1,.01463.04838Zm2.41208,1.80336-.00449.00115.00334-.0023Z" fill="#d9d9d9"/><path d="M161.83168,379.628c-1.54346.063-3.627-.05852-5.2223-.04493-.567.00668-2.04747-.06751-2.42545.30148-.21151.20921-.189,1.12944-.27452,1.476-.135.49053-.4433.86182-.59629,1.34774-.378,1.2353-.5737,2.41888-1.0148,3.53933a1.93337,1.93337,0,0,0-.24746.81.5515.5515,0,0,0,.48823.49951c.48373.0788.88877-.10345,1.26675.17108l7.24962-.05853a4.07908,4.07908,0,0,0,2.12627-.198c.62105-.17994,1.20823.153,1.45579-.46345.54675-1.35005-1.81349-4.71611-2.241-5.64763C162.15344,380.843,162.04768,380.17257,161.83168,379.628Z" fill="#d9d9d9"/><polygon points="292.139 158.429 297.692 176.189 306.579 173.414 295.679 197.011 295.679 197.011 273.29 183.817 282.165 181.045 276.615 163.284 292.139 158.429" fill="#fff" stroke="#fff" stroke-linecap="round" stroke-linejoin="round" stroke-width="6.77274"/><rect x="274.59599" y="152.441" width="16.2689" height="6.29794" transform="translate(-33.59446 91.68928) rotate(-17.40391)" stroke-width="6.77274" stroke="#fff" stroke-linecap="round" stroke-linejoin="round" fill="#fff"/><rect x="272.48723" y="147.26556" width="16.2687" height="3.15186" transform="translate(-31.64093 90.58012) rotate(-17.37282)" stroke-width="6.77274" stroke="#fff" stroke-linecap="round" stroke-linejoin="round" fill="#fff"/><polygon points="292.139 158.429 297.692 176.189 306.579 173.414 295.679 197.011 295.679 197.011 273.29 183.817 282.165 181.045 276.615 163.284 292.139 158.429" fill="#252525"/><rect x="274.59599" y="152.441" width="16.2689" height="6.29794" transform="translate(-33.59446 91.68928) rotate(-17.40391)" fill="#252525"/><rect x="272.48723" y="147.26556" width="16.2687" height="3.15186" transform="translate(-31.64093 90.58012) rotate(-17.37282)" fill="#252525"/><path d="M277.978,202.33454a22.86839,22.86839,0,0,0-22.61615,19.53522c.60391-.01593,1.26-.03639,1.419-.05906a16.81049,16.81049,0,0,1,3.5078-.22029c.1295.01139.26795.03185.42012.05673a2.94879,2.94879,0,0,0,2.11828-.30643,4.77964,4.77964,0,0,1,.59717-.24749,2.16141,2.16141,0,0,1,.45639-.08626,2.09257,2.09257,0,0,0,.73783-.20437,5.883,5.883,0,0,0,1.049-1.39184,9.08146,9.08146,0,0,1,1.1125-1.5325,10.50865,10.50865,0,0,1,1.914-1.2556,16.36945,16.36945,0,0,0,1.6348-1.03531,8.78888,8.78888,0,0,0,1.51437-1.68933,10.15648,10.15648,0,0,1,1.18515-1.38951c1.23061-1.133,2.70185-1.27141,4.7362-1.46218.4314-.04545.8764-.08172,1.35325-.143.50405-.05685,1.03763-.159,1.54622-.25656.48813-.09312.94673-.18391,1.36232-.23169a6.69829,6.69829,0,0,1,3.93013.81746,8.64808,8.64808,0,0,0,2.16152.76736c.11346.02046.24517.03638.38141.05905.66529.09986,1.66654.25435,1.91171.63577a1.21947,1.21947,0,0,1-.26109,1.37359c-.974,1.10122-3.408,1.32825-5.20619.98765a2.2274,2.2274,0,0,1-.47-.18612,1.49256,1.49256,0,0,0-1.02391-.24749,1.453,1.453,0,0,0-.55858.35642,1.62546,1.62546,0,0,1-.34514.252,7.99517,7.99517,0,0,1-3.047.37235l.00907.00453-.02035-.00453h.01128a2.53781,2.53781,0,0,0-1.14888.02278c-.41768.2475-.663,1.83-1.02392,4.39338a21.10915,21.10915,0,0,1-.47,2.71092,10.22587,10.22587,0,0,1-2.21152,3.33528c-.29062.34294-.60391.697-.88314,1.05356-.07718.09765-.15216.17031-.218.2475a1.66734,1.66734,0,0,0-.40641.55392l-.05684.1295.1159.08626a3.00277,3.00277,0,0,1,1.41219,3.0106l-.01593.10219.08858.06591a1.87578,1.87578,0,0,1,.6811,1.17155c.06359.21564.13171.46093.23622.72655a4.84321,4.84321,0,0,0,3.24217,2.40437,3.88231,3.88231,0,0,0,1.83684.0522,1.91122,1.91122,0,0,0,.83327-.41094l.18623-.14752-.19076-.134a6.45735,6.45735,0,0,0-2.08434-.72656c-1.562-.361-3.02874-.69923-2.78136-2.28405a1.08548,1.08548,0,0,1,.28388-.722c.46546-.42233,2.8017.109,3.92559.36781.32248.06812.59717.13625.79921.17031a15.39237,15.39237,0,0,0,1.8437.13624c1.58482.05452,3.54419.12032,4.03232.965a1.52223,1.52223,0,0,1-.19065,1.44625,3.16467,3.16467,0,0,1-1.64155,1.43718,4.098,4.098,0,0,1-1.90275-.12939c-.252-.05452-.48127-.10439-.71516-.13624l-.11579-.01593-.05673.09765c-1.00357,1.70746-2.28637,1.77326-4.20947,1.87776-.6153.03406-1.32826.07719-2.07748.18158a10.81665,10.81665,0,0,0-1.53029.34061,7.9001,7.9001,0,0,1-3.51478.37235,14.97455,14.97455,0,0,1-2.87668-.90593,16.26652,16.26652,0,0,0-2.43169-.79467,4.82713,4.82713,0,0,0-2.51341.32468c-.26795.08405-.51091.168-.74469.22482-.63343.14752-1.31465.2611-1.97308.38362-.39281.07266-1.276.12718-2.11375.20216a22.854,22.854,0,1,0,19.06057-35.4558Z" fill="#686166"/><path d="M283.493,231.91886a15.39237,15.39237,0,0,1-1.8437-.13624c-.202-.03406-.47673-.10219-.79921-.17031-1.12389-.25877-3.46013-.79014-3.92559-.36781a1.08548,1.08548,0,0,0-.28388.722c-.24738,1.58482,1.21933,1.9231,2.78136,2.28405a6.45735,6.45735,0,0,1,2.08434.72656l.19076.134-.18623.14752a1.91122,1.91122,0,0,1-.83327.41094,3.88231,3.88231,0,0,1-1.83684-.0522,4.84321,4.84321,0,0,1-3.24217-2.40437c-.10451-.26562-.17263-.51091-.23622-.72655a1.87578,1.87578,0,0,0-.6811-1.17155l-.08858-.06591.01593-.10219a3.00277,3.00277,0,0,0-1.41219-3.0106l-.1159-.08626.05684-.1295a1.66734,1.66734,0,0,1,.40641-.55392c.0658-.07719.14078-.14985.218-.2475.27923-.35653.59252-.71062.88314-1.05356a10.22587,10.22587,0,0,0,2.21152-3.33528,21.10915,21.10915,0,0,0,.47-2.71092c.361-2.56339.60624-4.14588,1.02392-4.39338a2.53781,2.53781,0,0,1,1.14888-.02278,7.99517,7.99517,0,0,0,3.047-.37235,1.62546,1.62546,0,0,0,.34514-.252,1.453,1.453,0,0,1,.55858-.35642,1.49256,1.49256,0,0,1,1.02391.24749,2.2274,2.2274,0,0,0,.47.18612c1.79824.3406,4.23214.11357,5.20619-.98765a1.21947,1.21947,0,0,0,.26109-1.37359c-.24517-.38142-1.24642-.53591-1.91171-.63577-.13624-.02267-.26795-.03859-.38141-.05905a8.64808,8.64808,0,0,1-2.16152-.76736,6.69829,6.69829,0,0,0-3.93013-.81746c-.41559.04778-.87419.13857-1.36232.23169-.50859.09753-1.04217.19971-1.54622.25656-.47685.06126-.92185.09753-1.35325.143-2.03435.19077-3.50559.32922-4.7362,1.46218a10.15648,10.15648,0,0,0-1.18515,1.38951,8.78888,8.78888,0,0,1-1.51437,1.68933,16.36945,16.36945,0,0,1-1.6348,1.03531,10.50865,10.50865,0,0,0-1.914,1.2556,9.08146,9.08146,0,0,0-1.1125,1.5325,5.883,5.883,0,0,1-1.049,1.39184,2.09257,2.09257,0,0,1-.73783.20437,2.16141,2.16141,0,0,0-.45639.08626,4.77964,4.77964,0,0,0-.59717.24749,2.94879,2.94879,0,0,1-2.11828.30643c-.15217-.02488-.29062-.04534-.42012-.05673a16.81049,16.81049,0,0,0-3.5078.22029c-.159.02267-.81514.04313-1.419.05906a24.76365,24.76365,0,0,0-.23842,3.32622,22.73026,22.73026,0,0,0,3.794,12.59436c.8378-.075,1.72094-.1295,2.11375-.20216.65843-.12252,1.33965-.2361,1.97308-.38362.23378-.05684.47674-.14077.74469-.22482a4.82713,4.82713,0,0,1,2.51341-.32468,16.26652,16.26652,0,0,1,2.43169.79467,14.97455,14.97455,0,0,0,2.87668.90593,7.9001,7.9001,0,0,0,3.51478-.37235,10.81665,10.81665,0,0,1,1.53029-.34061c.74922-.10439,1.46218-.14752,2.07748-.18158,1.9231-.1045,3.2059-.1703,4.20947-1.87776l.05673-.09765.11579.01593c.23389.03185.46313.08172.71516.13624a4.098,4.098,0,0,0,1.90275.12939,3.16467,3.16467,0,0,0,1.64155-1.43718,1.52223,1.52223,0,0,0,.19065-1.44625C287.0372,232.03918,285.07783,231.97338,283.493,231.91886Z" fill="#d9d9d9"/><polygon points="279.508 215.608 279.499 215.603 279.488 215.603 279.508 215.608" fill="#d9d9d9"/><path d="M287.87954,215.95061a2.88735,2.88735,0,0,0-1.01485.27691,3.77688,3.77688,0,0,1-.82874.27028,18.31612,18.31612,0,0,1-1.94356.15891c-.56531.0272-1.0875.04766-1.57121.11346l-.14078.01592a10.91181,10.91181,0,0,0-3.04013.67657,1.59627,1.59627,0,0,0-.8378,1.08309,1.40877,1.40877,0,0,0,.29294,1.22607c.32236.395.54486.42907,1.11936.53358.1066.02034.23831.03859.37455.07033a6.57744,6.57744,0,0,1,.68122.17484,7.01646,7.01646,0,0,0,1.167.25656,16.23464,16.23464,0,0,0,4.91557-.4042c.48359-.093.94219-.18158,1.394-.252a3.99052,3.99052,0,0,1,.51079-.04534,1.60343,1.60343,0,0,0,.74481-.14764,1.71006,1.71006,0,0,0,.79467-1.21921,2.55875,2.55875,0,0,0-.56311-1.97309A2.29891,2.29891,0,0,0,287.87954,215.95061Z" fill="#d9d9d9"/><path d="M291.26028,222.80288c-.29063-1.05809-1.37592-1.53483-2.97887-1.31919a2.8215,2.8215,0,0,0-.613.18391,3.06157,3.06157,0,0,1-.59031.19751,22.30841,22.30841,0,0,1-5.699.11136c-.18158-.01592-.37688-.04545-.56078-.06812-1.15563-.16356-2.24546-.30655-2.95841.44953-.46325.49266-.61309.915-.46325,1.29641.26109.67656,1.762,1.88683,8.84128,2.41808l.28841.02267a7.864,7.864,0,0,0,2.97655-.12032A2.88758,2.88758,0,0,0,291.26028,222.80288Z" fill="#d9d9d9"/><path d="M287.43221,227.34832l.09312-.02721c-.06127-.00453-.50406,0-.85594.01593-.63344.01128-1.09436.02953-1.23061.01128-.63123-.06348-1.2828-.12032-1.98215-.18158-1.19655-.09079-2.443-.19077-3.66683-.37014a4.27813,4.27813,0,0,1-.73329-.18844,3.46594,3.46594,0,0,0-1.57575-.19065,1.49511,1.49511,0,0,0-1.20341,1.18969,1.54671,1.54671,0,0,0,.51092,1.66875c1.09889.79014,4.634,1.49182,6.66162,1.67107a6.455,6.455,0,0,0,1.11935-.02034,4.31833,4.31833,0,0,1,1.31.02034,2.77933,2.77933,0,0,1,.62669.24075,1.95938,1.95938,0,0,0,1.33733.25424,2.67661,2.67661,0,0,0,1.69595-1.30094,1.58149,1.58149,0,0,0,.23168-1.687A2.63765,2.63765,0,0,0,287.43221,227.34832Z" fill="#d9d9d9"/><path d="M250.63791,245.58427h54.68473a5.97138,5.97138,0,0,1,5.97138,5.97138v12.052a5.97411,5.97411,0,0,1-5.97411,5.97411h-54.682a5.97138,5.97138,0,0,1-5.97138-5.97138V251.55565A5.97138,5.97138,0,0,1,250.63791,245.58427Z" fill="#d9d9d9" stroke="#595959" stroke-miterlimit="10" stroke-width="1.69319"/><path d="M274.97432,250.89941h9.00781v2.36914H277.7917v2.96094h5.36524V258.418H277.7917v5.29394h-2.81738Z" fill="#252525"/><path d="M100.07,298.774a14.7859,14.7859,0,1,0,10.83707-17.88109A14.78709,14.78709,0,0,0,100.07,298.774Z" fill="#fff" stroke="#000" stroke-miterlimit="10" stroke-width="4.39495"/><path d="M165.59457,292.19029a14.78708,14.78708,0,1,0,17.52532-11.40345A14.78709,14.78709,0,0,0,165.59457,292.19029Z" fill="#fff" stroke="#000" stroke-miterlimit="10" stroke-width="4.39495"/><path d="M124.87524,96.41587a14.78472,14.78472,0,1,0,14.78708-14.78709A14.7891,14.7891,0,0,0,124.87524,96.41587Z" fill="#fff" stroke="#000" stroke-miterlimit="10" stroke-width="4.39495"/><path d="M201.02855,94.40619a14.78486,14.78486,0,1,1,14.785,14.78472A14.78825,14.78825,0,0,1,201.02855,94.40619Z" fill="#fff" stroke="#000" stroke-miterlimit="10" stroke-width="4.39495"/><path d="M133.42256,7.95508h1.63184V9.23047h-1.63184v2.82129h-1.36035V9.23047h-5.28613V7.83594L132.26631,0h1.15625Zm-1.36035,0V2.05664h-.0332l-4.01172,5.89844Z"/><path d="M139.05049,5.15039H137.1628V3.26367h1.88769ZM137.1628,10.165h1.88769v1.88672H137.1628Z"/><path d="M146.53,12.05176h-1.44531V3.417h-3.12695V2.26074c1.64844,0,3.14453-.4248,3.46679-2.26074H146.53Z"/></g><path d="M198.72559,151.394c-.09906-20.15444-.22467-39.9824-.35963-57.76855a17.51143,17.51143,0,0,1,17.48633-17.50879h.00586a17.43079,17.43079,0,0,1,16.64648,12.13086l16.07291,50.098m-87.79066,108.001c.27673,27.1978.43034,47.96561.45311,51.12081a18.92176,18.92176,0,0,0,18.8291,16.74609c8.34472,0,16.41211-5.71484,17.9834-12.74023.53372-2.54325.78826-23.36675.86291-52.56317m-73.656-95.73062c-1.60516-27.0287-2.90275-48.57915-3.26358-53.77945-.40332-5.82715,1.01953-10.64161,4.23046-14.30957,5.13868-5.8711,12.97168-6.43457,13.30176-6.45606l.123-.00781.12305.00293c5.11132.09277,15.376,3.23242,17.63964,14.45215.832,4.124,1.53843,28.75908,2.10926,59.60178M96.36792,245.06441v50.187c0,10.63281,8.13086,18.96191,18.50976,18.96191a18.64926,18.64926,0,0,0,18.74121-18.87793c-.093-1.59179-1.2411-21.24729-2.7855-47.58106" fill="none" stroke="#a4459f" stroke-linecap="square" stroke-dasharray="3 4"/><line x1="118.65922" y1="314.15163" x2="131.47472" y2="365.18066" fill="none" stroke="#a4459f" stroke-linecap="square" stroke-width="2"/><line x1="176.2125" y1="314.15163" x2="165.26106" y2="365.41367" fill="none" stroke="#a4459f" stroke-linecap="square" stroke-width="2"/><path d="M130.83339,247.75431c-1.67222-28.51315-3.809-64.85571-5.574-94.575" fill="none" stroke="#a4459f" stroke-linecap="square"/><path d="M159.52307,152.68325c.5501,29.72314.97433,65.21142,1.26381,93.66315" fill="none" stroke="#a4459f" stroke-linecap="square"/><line x1="248.57754" y1="138.34545" x2="269.44516" y2="203.38819" fill="none" stroke="#a4459f" stroke-linecap="square"/><path d="M198.9154,248.9099c.071-27.77179-.02075-63.11934-.18981-97.51594" fill="none" stroke="#a4459f" stroke-linecap="square"/><line x1="96.36792" y1="26.87834" x2="96.36792" y2="245.06441" fill="none" stroke="#a4459f" stroke-linecap="square"/></g></g></svg>