<svg xmlns="http://www.w3.org/2000/svg" xmlns:xlink="http://www.w3.org/1999/xlink" viewBox="0 0 139.57599 328.35443"><defs><clipPath id="clip-path"><polygon points="28.8 328.354 18.813 276.116 114.072 275.459 124.059 327.697 28.8 328.354" fill="none"/></clipPath><linearGradient id="Dégradé_sans_nom_2" x1="-312.33638" y1="-214.56012" x2="-310.83638" y2="-214.56012" gradientTransform="matrix(-3.85948, -20.18715, -137.12248, 0.94564, -30553.78431, -5793.82551)" gradientUnits="userSpaceOnUse"><stop offset="0" stop-color="#fff"/><stop offset="1"/></linearGradient><clipPath id="clip-path-2"><rect x="-9.65454" y="230.52186" width="36.55454" height="33.12945" transform="translate(-196.4507 108.98873) rotate(-54.04473)" fill="none"/></clipPath><linearGradient id="Dégradé_sans_nom_2-2" x1="-320.5371" y1="-197.39588" x2="-319.0371" y2="-197.39588" gradientTransform="translate(4570.10524 3059.0236) scale(14.24517)" xlink:href="#Dégradé_sans_nom_2"/><clipPath id="clip-path-3" transform="translate(15.51855)"><polygon points="28.686 276.289 28.749 327.766 114.183 327.529 114.124 276.049 28.686 276.289" fill="none"/></clipPath><mask id="mask" x="24.23218" y="274.73427" width="125.44469" height="54.34419" maskUnits="userSpaceOnUse"><g transform="translate(15.51855)"><g clip-path="url(#clip-path)"><polygon points="18.952 329.078 8.714 275.529 123.92 274.734 134.158 328.284 18.952 329.078" fill="url(#Dégradé_sans_nom_2)"/></g></g></mask><linearGradient id="Dégradé_sans_nom_98" x1="-312.33638" y1="-214.5601" x2="-310.83638" y2="-214.5601" gradientTransform="matrix(-3.85948, -20.18715, -137.12248, 0.94564, -30538.26588, -5793.82658)" gradientUnits="userSpaceOnUse"><stop offset="0" stop-color="#fff"/><stop offset="1" stop-color="#fff"/></linearGradient><clipPath id="clip-path-4" transform="translate(15.51855)"><rect x="51.69896" y="52.58272" width="38.01004" height="199.24949" fill="none"/></clipPath><clipPath id="clip-path-6" transform="translate(15.51855)"><rect x="-7.6939" y="238.48108" width="32.63401" height="17.21025" transform="translate(-238.47198 255.45071) rotate(-89.94003)" fill="none"/></clipPath><mask id="mask-2" x="-23.30846" y="199.61838" width="94.89949" height="94.93715" maskUnits="userSpaceOnUse"><g transform="translate(15.51855)"><g clip-path="url(#clip-path-2)"><rect x="-25.40074" y="213.14818" width="68.04694" height="67.87755" transform="matrix(0.58717, -0.80947, 0.80947, 0.58717, -196.44852, 108.98519)" fill="url(#Dégradé_sans_nom_2-2)"/></g></g></mask><linearGradient id="Dégradé_sans_nom_98-2" x1="-320.5371" y1="-197.39588" x2="-319.0371" y2="-197.39588" gradientTransform="translate(4570.10451 3059.0248) scale(14.24517)" xlink:href="#Dégradé_sans_nom_98"/></defs><title>MAESTRO-Pe06-rapport-mouflage-20</title><g id="Calque_2" data-name="Calque 2"><g id="Calque_1-2" data-name="Calque 1"><polyline points="70.109 324.092 70.109 268.331 51.696 268.331 88.515 241.061 125.325 268.331 106.892 268.331 106.892 324.092" fill="#ccc"/><polyline points="70.109 324.092 70.109 268.331 51.696 268.331 88.515 241.061 125.325 268.331 106.892 268.331 106.892 324.092" fill="none" stroke="#252525" stroke-width="1.2"/><g clip-path="url(#clip-path-3)"><g mask="url(#mask)"><polygon points="44.317 328.354 34.33 276.117 129.589 275.46 139.576 327.697 44.317 328.354" fill="url(#Dégradé_sans_nom_98)"/></g></g><line x1="93.36044" y1="73.6415" x2="95.70044" y2="70.81252" fill="none" stroke="#000" stroke-linecap="round" stroke-linejoin="round" stroke-width="0.6"/><path d="M61.30527,60.67026l3.543,2.9355,10.81947,8.955s1.16849.72753,2.3475-.705c1.2-1.43848,1.18653-2.013.18151-2.83946-1.002-.834-14.20949-11.7675-14.20949-11.7675s-.726-.198-1.90952,1.239c-1.191,1.4355-1.011,1.989-.77247,2.18248" transform="translate(15.51855)" fill="#d9d9d9" fill-rule="evenodd"/><path d="M61.30527,60.67026l3.543,2.9355,10.81947,8.955s1.16849.72753,2.3475-.705c1.2-1.43848,1.18653-2.013.18151-2.83946-1.002-.834-14.20949-11.7675-14.20949-11.7675s-.726-.198-1.90952,1.239C60.88673,59.92328,61.06673,60.47676,61.30527,60.67026Z" transform="translate(15.51855)" fill="none" stroke="#000" stroke-linecap="round" stroke-linejoin="round" stroke-width="0.6"/><path d="M76.40771,71.29912a.91034.91034,0,1,1,1.2795-.117.9076.9076,0,0,1-1.2795.117" transform="translate(15.51855)" fill="#fff" fill-rule="evenodd"/><path d="M76.40771,71.29912a.91034.91034,0,1,1,1.2795-.117A.9076.9076,0,0,1,76.40771,71.29912Z" transform="translate(15.51855)" fill="none" stroke="#000" stroke-linecap="round" stroke-linejoin="round" stroke-width="0.6"/><polygon points="77.161 63.049 89.962 73.647 90.476 73.024 91.771 74.094 94.066 71.314 90.998 68.784 91.993 67.587 92.945 68.379 93.745 67.42 81.755 57.498 80.962 58.452 83.57 60.616 82.621 61.764 80.021 59.602 77.161 63.049" fill="#fff" fill-rule="evenodd"/><polygon points="77.161 63.049 89.962 73.647 90.476 73.024 91.771 74.094 94.066 71.314 90.998 68.784 91.993 67.587 92.945 68.379 93.745 67.42 81.755 57.498 80.962 58.452 83.57 60.616 82.621 61.764 80.021 59.602 77.161 63.049" fill="none" stroke="#000" stroke-linecap="round" stroke-linejoin="round" stroke-width="0.6"/><path d="M80.40239,71.07065s1.83746.465,2.763-.5685" transform="translate(15.51855)" fill="none" stroke="#000" stroke-linecap="round" stroke-linejoin="round" stroke-width="0.6"/><path d="M78.15523,249.682a12.32953,12.32953,0,0,1-12.27452.69452c-5.184-2.769-4.788-7.707-7.179-15.9765-.43648-1.5105-1.30348-4.488-1.614-5.079-.30451-.594-1.527-2.145.684-3.9735,2.217-1.8255,6.606,1.69049,10.416,1.6305,3.813-.0585,14.22752,11.21549,13.896,13.9125-.33,2.69549-3.92848,8.79148-3.92848,8.79148" transform="translate(15.51855)" fill="#f2f2f2"/><path d="M78.15523,249.682a12.32953,12.32953,0,0,1-12.27452.69452c-5.184-2.769-4.788-7.707-7.179-15.9765-.43648-1.5105-1.30348-4.488-1.614-5.079-.30451-.594-1.527-2.145.684-3.9735,2.217-1.8255,6.606,1.69049,10.416,1.6305,3.813-.0585,14.22752,11.21549,13.896,13.9125C81.75371,243.586,78.15523,249.682,78.15523,249.682Z" transform="translate(15.51855)" fill="none" stroke="#000" stroke-miterlimit="10" stroke-width="0.6"/><path d="M55.383,244.40437c.17546,4.59751,2.223,5.41652,3.29095,5.50951a26.48439,26.48439,0,0,1,8.14952,1.05151c4.72952,1.314,6.558,1.929,8.475,1.47,2.92053-.69749,4.8555-4.1385,5.157-5.32349.306-1.18051-2.274-1.88551-2.274-1.88551a35.18458,35.18458,0,0,0,1.161-7.83c-.051-3.318,1.245-16.2825,1.245-16.2825l-2.295-3.066s1.63352-11.793-6.07348-12.10051c-7.704-.3075-7.85852,10.5-7.85852,10.5s-4.65,1.158-6.021,4.80151c-2.877,7.638-1.24951,16.0635-1.24951,16.0635s-1.806,4.515-1.70695,7.092m13.875-32.574c1.179-2.8995,3.927-2.21848,5.17346-.654,1.254,1.56151.381,5.7465-.114,6.26551-.4275.4395-.7965-.13351-2.025-.399-1.23-.267-2.51249.543-3.093.1905-.58053-.351-1.119-2.50049.05851-5.403" transform="translate(15.51855)" fill="#f2f2f2"/><path d="M55.383,244.40437c.17546,4.59751,2.223,5.41652,3.29095,5.50951a26.48439,26.48439,0,0,1,8.14952,1.05151c4.72952,1.314,6.558,1.929,8.475,1.47,2.92053-.69749,4.8555-4.1385,5.157-5.32349.306-1.18051-2.274-1.88551-2.274-1.88551a35.18458,35.18458,0,0,0,1.161-7.83c-.051-3.318,1.245-16.2825,1.245-16.2825l-2.295-3.066s1.63352-11.793-6.07348-12.10051c-7.704-.3075-7.85852,10.5-7.85852,10.5s-4.65,1.158-6.021,4.80151c-2.877,7.638-1.24951,16.0635-1.24951,16.0635S55.284,241.82737,55.383,244.40437Zm13.875-32.574c1.179-2.8995,3.927-2.21848,5.17346-.654,1.254,1.56151.381,5.7465-.114,6.26551-.4275.4395-.7965-.13351-2.025-.399-1.23-.267-2.51249.543-3.093.1905C68.619,216.88239,68.08049,214.73289,69.258,211.83037Z" transform="translate(15.51855)" fill="#ffe501" stroke="#000" stroke-miterlimit="10" stroke-width="0.6"/><path d="M68.00249,251.31665c-1.662-.33449-5.892-3.795-6.195-4.656-.29851-.8595,2.061-6.441,2.061-6.441" transform="translate(15.51855)" fill="none" stroke="#000" stroke-miterlimit="10" stroke-width="0.6"/><path d="M70.459,251.99931s-6.32552-4.077-6.63-5.08348c-.30148-1.002,1.173-3.255,1.173-3.255" transform="translate(15.51855)" fill="none" stroke="#000" stroke-miterlimit="10" stroke-width="0.375"/><path d="M58.02988,249.0257s2.21246-14.87249,5.14045-16.78949" transform="translate(15.51855)" fill="none" stroke="#000" stroke-miterlimit="10" stroke-width="0.375"/><path d="M65.001,234.36562c-.219-.13948-2.26053-1.764-1.122-2.646,1.14-.882,3.024-.189,3.8205.159C68.496,232.22514,65.001,234.36562,65.001,234.36562Z" transform="translate(15.51855)" fill="none" stroke="#000" stroke-miterlimit="10" stroke-width="0.6"/><line x1="81.56831" y1="232.40556" x2="79.0513" y2="232.58858" fill="none" stroke="#000" stroke-miterlimit="10" stroke-width="0.375"/><path d="M57.0894,237.31281a113.41119,113.41119,0,0,0,7.272-20.865" transform="translate(15.51855)" fill="none" stroke="#000" stroke-miterlimit="10" stroke-width="0.6"/><path d="M76.86044,218.98611c-1.383-.915-5.3025-2.8665-8.35652-.2295-3.057,2.6385-4.086,5.89952-3.98849,7.5525" transform="translate(15.51855)" fill="none" stroke="#000" stroke-miterlimit="10" stroke-width="0.6"/><path d="M75.8877,88.60474s-5.59351.9-8.151.939c-2.5545.039-8.41351-.24449-10.335-3.456-1.917-3.207-3.3555-15.525-1.743-20.03851.855-2.397,3.741-7.72348,7.068-10.08152,3.33151-2.358,8.682-3.0645,11.532.069,2.8515,3.13349,6.894,14.4105,6.894,14.4105Z" transform="translate(15.51855)" fill="#f2f2f2"/><path d="M75.8877,88.60474s-5.59351.9-8.151.939c-2.5545.039-8.41351-.24449-10.335-3.456-1.917-3.207-3.3555-15.525-1.743-20.03851.855-2.397,3.741-7.72348,7.068-10.08152,3.33151-2.358,8.682-3.0645,11.532.069,2.8515,3.13349,6.894,14.4105,6.894,14.4105Z" transform="translate(15.51855)" fill="#ffe501" stroke="#000" stroke-miterlimit="10" stroke-width="0.6"/><path d="M68.61328,89.6537a8.35471,8.35471,0,0,1-7.33653-6.864,73.60772,73.60772,0,0,1-1.41-10.5135,4.97145,4.97145,0,0,1-.465-1.86c.051-.74849.07352-3.36749-.30748-3.79651-.381-.43048-.639-.738-.639-.738a31.37132,31.37132,0,0,1,1.30948-4.1325,11.53215,11.53215,0,0,0,1.035-1.575c.17848-.49952.81752-3.50249,2.54851-4.404" transform="translate(15.51855)" fill="none" stroke="#000" stroke-miterlimit="10" stroke-width="0.6"/><path d="M70.74312,54.22339a9.03624,9.03624,0,0,0-5.505,2.8905,6.44494,6.44494,0,0,0-1.668,4.95c.198.61949.324.681.45749,1.23747.135.55953.2325,2.98654.2325,2.98654a2.96122,2.96122,0,0,0-2.14948,2.154,12.08826,12.08826,0,0,0-.62553,3.624l-.43351.44247s-.27749,9.975,2.763,13.044" transform="translate(15.51855)" fill="none" stroke="#000" stroke-miterlimit="10" stroke-width="0.6"/><path d="M80.80078,73.19467l-9.399,11.17653,1.416,122.19747a8.202,8.202,0,0,1,3.093,1.032l-1.413-122.12247,3.33-3.957,1.938,146.26046,3.08249-.04349Z" transform="translate(15.51855)" fill="#34b3d1" stroke="#000" stroke-linecap="round" stroke-linejoin="round" stroke-width="0.4"/><path d="M80.80078,73.19467l-9.399,11.17653,1.416,122.19747a8.202,8.202,0,0,1,3.093,1.032l-1.413-122.12247,3.33-3.957,1.938,146.26046,3.08249-.04349Z" transform="translate(15.51855)" fill="#34b3d1" stroke="#000" stroke-linecap="round" stroke-linejoin="round" stroke-width="0.4"/><path d="M70.40039,213.81665a6.24432,6.24432,0,0,1-1.82254-.603l1.362-2.766c.822.40649,1.119.321,1.122.321.7365-.5985.168-5.2695-.705-7.15649-1.17751-2.54249-1.587-11.1075-1.59151-11.1915l3.08254-.1365c.126,2.862.67048,8.661,1.3065,10.03351.40649.879,2.70447,8.0745.051,10.6605a3.14455,3.14455,0,0,1-2.805.83848" transform="translate(15.51855)" fill="#34b3d1" stroke="#000" stroke-linecap="round" stroke-linejoin="round" stroke-width="0.4"/><path d="M70.40039,213.81665a6.24432,6.24432,0,0,1-1.82254-.603l1.362-2.766c.822.40649,1.119.321,1.122.321.7365-.5985.168-5.2695-.705-7.15649-1.17751-2.54249-1.587-11.1075-1.59151-11.1915l3.08254-.1365c.126,2.862.67048,8.661,1.3065,10.03351.40649.879,2.70447,8.0745.051,10.6605A3.14455,3.14455,0,0,1,70.40039,213.81665Z" transform="translate(15.51855)" fill="none" stroke="#000" stroke-miterlimit="10" stroke-width="0.6"/><path d="M70.21005,201.389c-.144-1.056-1.70553-21.55648-3.35554-43.26-2.352-30.90749-5.016-65.9385-5.39246-68.69249-.07352-.528-.162-1.101-.255-1.71-.44852-2.883-.99449-6.435-.42151-9.264a14.44989,14.44989,0,0,1-.918-5.118c-3.41249,3.852-2.40449,10.362-1.707,14.856.09.588.17551,1.14448.246,1.653C58.77255,92.516,61.549,129.026,63.781,158.36c2.2575,29.6865,3.261,42.774,3.38548,43.51951a39.53055,39.53055,0,0,1,.33,6.14849,5.81183,5.81183,0,0,1,3.09453-1.782,40.48382,40.48382,0,0,0-.381-4.857" transform="translate(15.51855)" fill="#34b3d1" stroke="#000" stroke-linecap="round" stroke-linejoin="round" stroke-width="0.4"/><path d="M70.21005,201.389c-.144-1.056-1.70553-21.55648-3.35554-43.26-2.352-30.90749-5.016-65.9385-5.39246-68.69249-.07352-.528-.162-1.101-.255-1.71-.44852-2.883-.99449-6.435-.42151-9.264a14.44989,14.44989,0,0,1-.918-5.118c-3.41249,3.852-2.40449,10.362-1.707,14.856.09.588.17551,1.14448.246,1.653C58.77255,92.516,61.549,129.026,63.781,158.36c2.2575,29.6865,3.261,42.774,3.38548,43.51951a39.53055,39.53055,0,0,1,.33,6.14849,5.81183,5.81183,0,0,1,3.09453-1.782A40.48382,40.48382,0,0,0,70.21005,201.389Z" transform="translate(15.51855)" fill="#34b3d1" stroke="#000" stroke-linecap="round" stroke-linejoin="round" stroke-width="0.4"/><path d="M61.96005,224.63315c.01049-.67049.04647-1.42049.08849-2.271.03447-.708.069-1.467.096-2.28449l.6-19.662c1.128-36.7755,3.4785-113.301,3.534-116.874.0585-3.88953,1.29149-6.231,4.113-7.83L68.875,73.02818c-3.795,2.148-5.60248,5.475-5.68048,10.467-.057,3.54748-2.403,80.05948-3.531,116.82747l-.6015,19.662c-.024.79951-.0585,1.53751-.093,2.2305-.153,3.18-.273,5.66851,1.119,7.99651Z" transform="translate(15.51855)" fill="#34b3d1" stroke="#000" stroke-linecap="round" stroke-linejoin="round" stroke-width="0.4"/><path d="M61.96005,224.63315c.01049-.67049.04647-1.42049.08849-2.271.03447-.708.069-1.467.096-2.28449l.6-19.662c1.128-36.7755,3.4785-113.301,3.534-116.874.0585-3.88953,1.29149-6.231,4.113-7.83L68.875,73.02818c-3.795,2.148-5.60248,5.475-5.68048,10.467-.057,3.54748-2.403,80.05948-3.531,116.82747l-.6015,19.662c-.024.79951-.0585,1.53751-.093,2.2305-.153,3.18-.273,5.66851,1.119,7.99651Z" transform="translate(15.51855)" fill="#34b3d1" stroke="#000" stroke-linecap="round" stroke-linejoin="round" stroke-width="0.4"/><path d="M62.86093,240.37715c.681,2.00851,1.326,2.013,1.782,5.13151.18453,1.308,6.48752,7.99349,12.24,7.182,2.787-.393,6.19052-4.70549,6.77852-8.53049a90.91069,90.91069,0,0,0,1.062-10.5315c.033-2.37751.279-14.4795-6.94349-15.807-7.22548-1.32751-9.174,7.55848-9.525,8.21249-.348.65249-6.07351,12.339-5.394,14.343m13.12052-2.4345c2.91449-.528,4.03949.79951,4.371,3.435.33,2.63551-2.106,6.705-3.82649,6.879-1.67848.168-2.721-1.87951-3.42448-4.12651-.70949-2.244-.04349-5.66549,2.88-6.1875" transform="translate(15.51855)" fill="#ffe501"/><path d="M62.86093,240.37715c.681,2.00851,1.326,2.013,1.782,5.13151.18453,1.308,6.48752,7.99349,12.24,7.182,2.787-.393,6.19052-4.70549,6.77852-8.53049a90.91069,90.91069,0,0,0,1.062-10.5315c.033-2.37751.279-14.4795-6.94349-15.807-7.22548-1.32751-9.174,7.55848-9.525,8.21249C67.90691,226.68665,62.18143,238.37315,62.86093,240.37715Zm13.12052-2.4345c2.91449-.528,4.03949.79951,4.371,3.435.33,2.63551-2.106,6.705-3.82649,6.879-1.67848.168-2.721-1.87951-3.42448-4.12651C72.39194,241.88617,73.05794,238.46466,75.98145,237.94265Z" transform="translate(15.51855)" fill="none" stroke="#000" stroke-miterlimit="10" stroke-width="0.6"/><path d="M69.81015,242.64636c-.01053-.687.38548-1.254.89548-1.26149.501-.009.918.54449.92848,1.233.012.687-.387,1.257-.891,1.263C70.23615,243.88987,69.82214,243.33337,69.81015,242.64636Z" transform="translate(15.51855)" fill="none" stroke="#000" stroke-miterlimit="10" stroke-width="0.6"/><path d="M74.9415,226.8875A2.642,2.642,0,1,1,77.604,229.844,2.82855,2.82855,0,0,1,74.9415,226.8875Z" transform="translate(15.51855)" fill="none" stroke="#000" stroke-miterlimit="10" stroke-width="0.6"/><path d="M70.70517,241.38515a7.20588,7.20588,0,0,1-3.96451-4.5,3.84111,3.84111,0,0,0-.77252,2.511,8.94386,8.94386,0,0,0,.6,1.623c.003.144,2.736,2.982,4.17453,2.862" transform="translate(15.51855)" fill="none" stroke="#000" stroke-miterlimit="10" stroke-width="0.6"/><line x1="81.3663" y1="244.14922" x2="82.08627" y2="241.01873" fill="none" stroke="#000" stroke-miterlimit="10" stroke-width="0.375"/><path d="M67.48544,238.31481s1.41147-5.016,2.367-5.319c1.02.75149,2.41654,4.068,6.68852,4.122a6.65848,6.65848,0,0,0,5.33849-2.676" transform="translate(15.51855)" fill="none" stroke="#000" stroke-miterlimit="10" stroke-width="0.375"/><path d="M66.40494,71.92387c-.03,6.174.363,11.217,1.64552,13.56148,1.284,2.349,2.193,4.827,7.488,4.62152,2.817-.111,6.73649-3.783,6.96148-9.08252.22948-5.301.79949-12.6015-.993-15.87748-1.79553-3.27452-5.58453-10.25551-10.5645-9.93151a6.23948,6.23948,0,0,0-6.138,6.018c.08249,1.43253,1.629,4.52253,1.60048,10.69052m4.35-12.78c1.80149-.33747,5.736,4.089,6.82348,5.94154,1.089,1.84946.252,4.35-2.853,4.7775-3.04646.423-4.071-.996-4.209-2.115a40.3866,40.3866,0,0,0-1.44149-4.65c-.333-1.053-.123-3.612,1.68-3.954" transform="translate(15.51855)" fill="#ffe501"/><path d="M66.40494,71.92387c-.03,6.174.363,11.217,1.64552,13.56148,1.284,2.349,2.193,4.827,7.488,4.62152,2.817-.111,6.73649-3.783,6.96148-9.08252.22948-5.301.79949-12.6015-.993-15.87748-1.79553-3.27452-5.58453-10.25551-10.5645-9.93151a6.23948,6.23948,0,0,0-6.138,6.018C64.887,62.66588,66.43346,65.75588,66.40494,71.92387Zm4.35-12.78c1.80149-.33747,5.736,4.089,6.82348,5.94154,1.089,1.84946.252,4.35-2.853,4.7775-3.04646.423-4.071-.996-4.209-2.115a40.3866,40.3866,0,0,0-1.44149-4.65C68.742,62.04488,68.95193,59.48589,70.755,59.14385Z" transform="translate(15.51855)" fill="none" stroke="#000" stroke-miterlimit="10" stroke-width="0.6"/><path d="M80.12114,72.21323a8.23625,8.23625,0,0,0-5.568-1.224c-2.361.40947-3.957,1.932-4.578,2.1915" transform="translate(15.51855)" fill="none" stroke="#000" stroke-miterlimit="10" stroke-width="0.375"/><path d="M73.2789,81.1664a2.71943,2.71943,0,1,1,2.73,3.138A2.96075,2.96075,0,0,1,73.2789,81.1664Z" transform="translate(15.51855)" fill="none" stroke="#000" stroke-miterlimit="10" stroke-width="0.6"/><path d="M73.78706,243.74345a2.67821,2.67821,0,1,1,2.694,3.075A2.91576,2.91576,0,0,1,73.78706,243.74345Z" transform="translate(15.51855)" fill="none" stroke="#000" stroke-linecap="round" stroke-linejoin="round" stroke-width="0.6"/><g opacity="0.8"><g clip-path="url(#clip-path-4)"><g clip-path="url(#clip-path-4)"><path d="M57.63716,196.016c-.0195,1.485,1.00049,16.1745,1.08,16.98a15.59556,15.59556,0,0,1,4.263-.34351c1.1565.12451,6.072,1.34551,12.41849,1.96651a55.50565,55.50565,0,0,0,10.281-.01051l1.53149-.174L88.63765,180.836s2.30548-7.6035-1.05753-13.65749c-3.363-6.057-6.792-6.003-6.792-6.003s6.1365-4.434,5.08648-8.91751c-1.0485-4.485-4.584-11.1795-4.584-11.1795s6.48-3.4755,5.30553-5.547a7.221,7.221,0,0,0-2.82152-2.85s1.91552-2.92351,2.04749-4.8555c.135-1.929.58351-4.668-.588-6.09451a8.681,8.681,0,0,0-3.135-2.20349s4.677-3.9285,1.059-5.319c0,0,3.204-4.39051-1.74-6.88651,0,0,1.24054-4.1955,1.044-6.282-.19652-2.085.123-2.4135.402-5.63249a61.0635,61.0635,0,0,0,.05251-7.2345l-.4005-.606c-1.97553-.1995-11.085-1.0785-13.236-.606-2.41653.52652-13.63953,1.563-13.63953,1.563s-2.2965.0135-1.94549,1.455a12.56488,12.56488,0,0,0,1.1895,2.874s-2.41049,2.61-1.9005,3.7275c.50249,1.11749,2.628,1.341,2.628,1.341s-4.73552.3975-3.366,4.23c1.365,3.837,3.28052,11.361,3.28052,11.361s-1.746,3.08251,1.212,4.32152c0,0,1.08,6.41249,2.72552,7.03049,0,0-6.999,12.162-4.83151,15.0225a14.8139,14.8139,0,0,0,3.81752,3.798s-3.522,4.87349-3.13651,8.5635a80.30366,80.30366,0,0,0,2.622,10.887s-4.31547,6.33751-3.2325,12.91351c1.08454,6.57,3.07952,8.394,2.934,19.96649" transform="translate(15.51855)" fill="#f2f2f2"/><path d="M57.63716,196.016c-.0195,1.485,1.00049,16.1745,1.08,16.98a15.59556,15.59556,0,0,1,4.263-.34351c1.1565.12451,6.072,1.34551,12.41849,1.96651a55.50565,55.50565,0,0,0,10.281-.01051l1.53149-.174L88.63765,180.836s2.30548-7.6035-1.05753-13.65749c-3.363-6.057-6.792-6.003-6.792-6.003s6.1365-4.434,5.08648-8.91751c-1.0485-4.485-4.584-11.1795-4.584-11.1795s6.48-3.4755,5.30553-5.547a7.221,7.221,0,0,0-2.82152-2.85s1.91552-2.92351,2.04749-4.8555c.135-1.929.58351-4.668-.588-6.09451a8.681,8.681,0,0,0-3.135-2.20349s4.677-3.9285,1.059-5.319c0,0,3.204-4.39051-1.74-6.88651,0,0,1.24054-4.1955,1.044-6.282-.19652-2.085.123-2.4135.402-5.63249a61.0635,61.0635,0,0,0,.05251-7.2345l-.4005-.606c-1.97553-.1995-11.085-1.0785-13.236-.606-2.41653.52652-13.63953,1.563-13.63953,1.563s-2.2965.0135-1.94549,1.455a12.56488,12.56488,0,0,0,1.1895,2.874s-2.41049,2.61-1.9005,3.7275c.50249,1.11749,2.628,1.341,2.628,1.341s-4.73552.3975-3.366,4.23c1.365,3.837,3.28052,11.361,3.28052,11.361s-1.746,3.08251,1.212,4.32152c0,0,1.08,6.41249,2.72552,7.03049,0,0-6.999,12.162-4.83151,15.0225a14.8139,14.8139,0,0,0,3.81752,3.798s-3.522,4.87349-3.13651,8.5635a80.30366,80.30366,0,0,0,2.622,10.887s-4.31547,6.33751-3.2325,12.91351C55.78766,182.61951,57.78264,184.44351,57.63716,196.016Z" transform="translate(15.51855)" fill="none" stroke="#000" stroke-miterlimit="10" stroke-width="0.6"/><path d="M59.79208,226.53156c1.731.261,4.77,10.428,5.64,14.02652,1.08,4.4475,3.627,10.74449,8.67,10.95449,5.472.228,10.49249-1.6035,10.863-5.502.369-3.891.72-18.4455.831-20.607s1.857-10.1115,1.41449-10.968c0,0-.564.081-1.53.174a55.65822,55.65822,0,0,1-10.28247.0105c-6.345-.621-11.262-1.8435-12.41849-1.968a15.61113,15.61113,0,0,0-4.263.345,2.92238,2.92238,0,0,0-1.764.9015c-.702,1.164-.49952,14.2695-.49952,14.2695.81748-3.168,3.339-1.63651,3.339-1.63651" transform="translate(15.51855)" fill="#f2f2f2"/><path d="M59.79208,226.53156c1.731.261,4.77,10.428,5.64,14.02652,1.08,4.4475,3.627,10.74449,8.67,10.95449,5.472.228,10.49249-1.6035,10.863-5.502.369-3.891.72-18.4455.831-20.607s1.857-10.1115,1.41449-10.968c0,0-.564.081-1.53.174a55.65822,55.65822,0,0,1-10.28247.0105c-6.345-.621-11.262-1.8435-12.41849-1.968a15.61113,15.61113,0,0,0-4.263.345,2.92238,2.92238,0,0,0-1.764.9015c-.702,1.164-.49952,14.2695-.49952,14.2695C57.27054,225.00007,59.79208,226.53156,59.79208,226.53156Z" transform="translate(15.51855)" fill="none" stroke="#000" stroke-miterlimit="10" stroke-width="0.6"/><path d="M54.72372,73.38652a31.21207,31.21207,0,0,0-.1035,6.33605c.14548,1.37246,1.02,8.802,1.02,8.802s11.22451-1.03652,13.63948-1.563c2.1525-.47251,11.26053.40649,13.236.606.243.027.38251.039.38251.039s.0525-5.739.09-8.75551c.039-3.01648.339-5.78549.333-6.73947.00151-.95252.126-7.143.126-7.143s.87749-2.343-.48-3.96748c-1.359-1.623-3.054-4.4415-4.2675-5.646-1.21948-1.2015-4.338-3.28047-7.833-2.142-3.492,1.137-3.41853,1.83147-4.137,2.63548-4.54353,5.094-12.0645,5.499-12.0645,5.499s-1.47.45149-1.419,1.254c.054.79647,1.7775,8.019,1.47752,10.785" transform="translate(15.51855)" fill="#f2f2f2"/><path d="M54.72372,73.38652a31.21207,31.21207,0,0,0-.1035,6.33605c.14548,1.37246,1.02,8.802,1.02,8.802s11.22451-1.03652,13.63948-1.563c2.1525-.47251,11.26053.40649,13.236.606.243.027.38251.039.38251.039s.0525-5.739.09-8.75551c.039-3.01648.339-5.78549.333-6.73947.00151-.95252.126-7.143.126-7.143s.87749-2.343-.48-3.96748c-1.359-1.623-3.054-4.4415-4.2675-5.646-1.21948-1.2015-4.338-3.28047-7.833-2.142-3.492,1.137-3.41853,1.83147-4.137,2.63548-4.54353,5.094-12.0645,5.499-12.0645,5.499s-1.47.45149-1.419,1.254C53.30022,63.398,55.0237,70.62053,54.72372,73.38652Z" transform="translate(15.51855)" fill="none" stroke="#000" stroke-miterlimit="10" stroke-width="0.6"/><path d="M53.74663,65.3123s3.2715-.22348,4.275-.37948a24.98108,24.98108,0,0,0,3.957-.99,36.9451,36.9451,0,0,0,7.43253-5.064c2.925-2.88451,5.28149-2.37452,7.2-.915a72.48657,72.48657,0,0,1,6.83551,7.005" transform="translate(15.51855)" fill="#f2f2f2"/><path d="M53.74663,65.3123s3.2715-.22348,4.275-.37948a24.98108,24.98108,0,0,0,3.957-.99,36.9451,36.9451,0,0,0,7.43253-5.064c2.925-2.88451,5.28149-2.37452,7.2-.915a72.48657,72.48657,0,0,1,6.83551,7.005" transform="translate(15.51855)" fill="none" stroke="#000" stroke-miterlimit="10" stroke-width="0.6"/><path d="M59.16508,88.04091a43.84837,43.84837,0,0,1-1.98-7.914,55.38513,55.38513,0,0,1-.07049-7.41,58.38411,58.38411,0,0,0-.363-7.43852c-.171-.63-1.035-3.801-.5685-4.098" transform="translate(15.51855)" fill="#f2f2f2"/><path d="M59.16508,88.04091a43.84837,43.84837,0,0,1-1.98-7.914,55.38513,55.38513,0,0,1-.07049-7.41,58.38411,58.38411,0,0,0-.363-7.43852c-.171-.63-1.035-3.801-.5685-4.098" transform="translate(15.51855)" fill="none" stroke="#000" stroke-miterlimit="10" stroke-width="0.6"/><path d="M70.64937,61.41142c.0255-1.623,1.068-2.92648,2.32947-2.90547,1.263.0195,2.26652,1.347,2.244,2.96851-.024,1.62446-1.0665,2.928-2.331,2.907-1.2615-.015-2.26652-1.347-2.24249-2.97" transform="translate(15.51855)" fill="#f2f2f2"/><path d="M70.64937,61.41142c.0255-1.623,1.068-2.92648,2.32947-2.90547,1.263.0195,2.26652,1.347,2.244,2.96851-.024,1.62446-1.0665,2.928-2.331,2.907C71.63036,64.36643,70.62534,63.03442,70.64937,61.41142Z" transform="translate(15.51855)" fill="none" stroke="#000" stroke-miterlimit="10" stroke-width="0.6"/><path d="M81.29008,141.07851c-3.018,1.41751-13.605,5.706-10.41751,8.9685" transform="translate(15.51855)" fill="#f2f2f2"/><path d="M81.29008,141.07851c-3.018,1.41751-13.605,5.706-10.41751,8.9685" transform="translate(15.51855)" fill="none" stroke="#000" stroke-miterlimit="10" stroke-width="0.6"/><path d="M57.93613,163.136c1.75648-2.07749,5.73449-1.62,6.567-3.67948,1.09351-2.6925-1.83449-3.273-3.21451-5.1495" transform="translate(15.51855)" fill="#f2f2f2"/><path d="M57.93613,163.136c1.75648-2.07749,5.73449-1.62,6.567-3.67948,1.09351-2.6925-1.83449-3.273-3.21451-5.1495" transform="translate(15.51855)" fill="none" stroke="#000" stroke-miterlimit="10" stroke-width="0.6"/><path d="M81.33252,137.2787c-5.76151-1.365-12.462-1.08449-17.38953,2.53652" transform="translate(15.51855)" fill="#f2f2f2"/><path d="M81.33252,137.2787c-5.76151-1.365-12.462-1.08449-17.38953,2.53652" transform="translate(15.51855)" fill="none" stroke="#000" stroke-miterlimit="10" stroke-width="0.6"/><path d="M82.09872,119.5277c-3.3495.05851-8.20051,1.257-11.52754,1.596-1.07249.1095-2.262.39-3.08546-.045,4.29-3.033,11.41049-3.8595,15.672-6.87" transform="translate(15.51855)" fill="#f2f2f2"/><path d="M82.09872,119.5277c-3.3495.05851-8.20051,1.257-11.52754,1.596-1.07249.1095-2.262.39-3.08546-.045,4.29-3.033,11.41049-3.8595,15.672-6.87" transform="translate(15.51855)" fill="none" stroke="#000" stroke-miterlimit="10" stroke-width="0.6"/><path d="M56.73926,117.83437c2.478-1.128,7.893-3.5625,9.57449-5.676a15.67676,15.67676,0,0,0-8.42253-.294" transform="translate(15.51855)" fill="#f2f2f2"/><path d="M56.73926,117.83437c2.478-1.128,7.893-3.5625,9.57449-5.676a15.67676,15.67676,0,0,0-8.42253-.294" transform="translate(15.51855)" fill="none" stroke="#000" stroke-miterlimit="10" stroke-width="0.6"/><path d="M55.61142,97.92126c1.66649.2685,14.694,4.269,15.357,2.271.756-2.26051-5.331-3.768-6.585-3.987-1.701-.3-3.477-.276-5.16-.507" transform="translate(15.51855)" fill="#f2f2f2"/><path d="M55.61142,97.92126c1.66649.2685,14.694,4.269,15.357,2.271.756-2.26051-5.331-3.768-6.585-3.987-1.701-.3-3.477-.276-5.16-.507" transform="translate(15.51855)" fill="none" stroke="#000" stroke-miterlimit="10" stroke-width="0.6"/><path d="M79.45317,90.56181c-4.57352-.19049-9.084-.28049-13.6875-.20848" transform="translate(15.51855)" fill="#f2f2f2"/><path d="M79.45317,90.56181c-4.57352-.19049-9.084-.28049-13.6875-.20848" transform="translate(15.51855)" fill="none" stroke="#000" stroke-miterlimit="10" stroke-width="0.6"/><path d="M84.9435,244.66926s-3.93453,3.345-7.533,3.57452c-4.02749.25648-6.228.82049-8.03851-4.485-1.8105-5.29951-5.63251-17.736-7.692-19.08449-2.25453-1.476-3.714-1.239-5.271.65849" transform="translate(15.51855)" fill="none" stroke="#000" stroke-miterlimit="10" stroke-width="0.6"/><path d="M59.62212,212.806a22.86986,22.86986,0,0,0-.05251,3.048c.111.88049-.04051,3.7305.00746,6.876.048,3.144-.15,2.952.21451,3.801" transform="translate(15.51855)" fill="#f2f2f2"/><path d="M59.62212,212.806a22.86986,22.86986,0,0,0-.05251,3.048c.111.88049-.04051,3.7305.00746,6.876.048,3.144-.15,2.952.21451,3.801" transform="translate(15.51855)" fill="none" stroke="#000" stroke-miterlimit="10" stroke-width="0.6"/></g></g></g><path d="M63.71773,236.36362c-2.46-2.385-6.888-9.8235-8.81552-12.735-.996-2.001-18.759-29.31749-34.893-54.309-.5745.681-2.199,2.316-2.796,2.98649,17.289,26.52453,33.36149,50.52153,34.56152,53.136l.111.231c2.823,4.242,7.611,11.526,10.431,14.259,0,0,.621.66749.615.645a2.41233,2.41233,0,0,1-.0195-1.51651c.24152-.975.387-1.476.519-1.869.132-.3945.28652-.828.28652-.828" transform="translate(15.51855)" fill="#34b3d1" stroke="#000" stroke-linecap="round" stroke-linejoin="round" stroke-width="0.4"/><path d="M63.71773,236.36362c-2.46-2.385-6.888-9.8235-8.81552-12.735-.996-2.001-18.759-29.31749-34.893-54.309-.5745.681-2.199,2.316-2.796,2.98649,17.289,26.52453,33.36149,50.52153,34.56152,53.136l.111.231c2.823,4.242,7.611,11.526,10.431,14.259,0,0,.621.66749.615.645a2.41233,2.41233,0,0,1-.0195-1.51651c.24152-.975.387-1.476.519-1.869C63.56319,236.79712,63.71773,236.36362,63.71773,236.36362Z" transform="translate(15.51855)" fill="none" stroke="#000" stroke-miterlimit="10" stroke-width="0.6"/><path d="M45.7896,134.63166a62.84935,62.84935,0,0,0-2.499,8.4c-.315,1.6935-.82649,3.74851-.82649,3.74851l-5.82449,11.66549-9.561-2.79451-5.604-6.13348.411-6.45452a22.20028,22.20028,0,0,1,.948-4.644,27.5138,27.5138,0,0,0,1.194-3.94349,63.9321,63.9321,0,0,0,.999-6.91052" transform="translate(15.51855)" fill="none" stroke="#000" stroke-miterlimit="10" stroke-width="0.6"/><path d="M18.4644,183.78305s-1.18652,1.752-.85652,2.87251c.333,1.119-.32552,1.458,1.302,2.631,1.62748,1.176,2.136,1.338,3.687.91951a16.33806,16.33806,0,0,1,2.67-.519,2.557,2.557,0,0,0,.768,1.8855,5.15579,5.15579,0,0,0,3.64348.477,4.78246,4.78246,0,0,0,2.817-2.382c.333-1.0605.36-2.3595.82951-3.7425.47251-1.383,1.5645-3.11549,1.854-3.855a25.29834,25.29834,0,0,0,.7755-3.70349,11.04261,11.04261,0,0,0,2.928-3.1875c.789-1.629,1.50147-3.75451,1.185-4.99951a7.66,7.66,0,0,1-.1545-3.25049,3.93412,3.93412,0,0,1,.654-2.034c.20549-.459,1.54948-3.696-.44852-4.6845,0,0,1.49854-.72.378-1.014a13.87767,13.87767,0,0,0,1.77448-4.24951c.414-2.16.20553-2.95949.54451-4.167a5.39293,5.39293,0,0,1,.744-1.737c.261-.495.387-1.443-1.095-2.26351,0,0-.381.987-1.965.834-1.581-.156-7.3185-.549-8.928-1.272-1.6095-.729-5.208-2.08049-6.46047-2.763a9.01985,9.01985,0,0,1-2.49751-1.881,1.18991,1.18991,0,0,1-.32849-1.281,2.81365,2.81365,0,0,0-1.00653.8535,3.653,3.653,0,0,0-.945,3.648s-2.07-.375-2.37447,2.736a1.31415,1.31415,0,0,0-1.46553.534,12.88287,12.88287,0,0,0-.888,2.469,6.88617,6.88617,0,0,0-2.27252,2.92951l-.21,1.149s-.27.096-.54451.216c-.273.123-.24151.909-.597.8625a1.846,1.846,0,0,0-1.644.3015,3.40411,3.40411,0,0,0-1.092,2.0265s-1.716.08551-2.2635,1.0995-.915.651-1.4085,2.448c-.495,1.797-.3885,2.58748.16352,2.709,0,0-.975,1.53-.4335,2.53049.54,1.002.49351,2.133,1.87348,2.67751,1.37554.54,2.004.828,2.004.828a3.91845,3.91845,0,0,0-.55948,2.71948c.25351,1.584,2.082,3.42451,3.984,4.29152a6.73794,6.73794,0,0,0-.3105,3.16648,4.16554,4.16554,0,0,0,1.57347,2.58451,4.39094,4.39094,0,0,0,2.937.849,15.71152,15.71152,0,0,0,1.659-.26251" transform="translate(15.51855)" fill="#fff"/><path d="M18.4644,183.78305s-1.18652,1.752-.85652,2.87251c.333,1.119-.32552,1.458,1.302,2.631,1.62748,1.176,2.136,1.338,3.687.91951a16.33806,16.33806,0,0,1,2.67-.519,2.557,2.557,0,0,0,.768,1.8855,5.15579,5.15579,0,0,0,3.64348.477,4.78246,4.78246,0,0,0,2.817-2.382c.333-1.0605.36-2.3595.82951-3.7425.47251-1.383,1.5645-3.11549,1.854-3.855a25.29834,25.29834,0,0,0,.7755-3.70349,11.04261,11.04261,0,0,0,2.928-3.1875c.789-1.629,1.50147-3.75451,1.185-4.99951a7.66,7.66,0,0,1-.1545-3.25049,3.93412,3.93412,0,0,1,.654-2.034c.20549-.459,1.54948-3.696-.44852-4.6845,0,0,1.49854-.72.378-1.014a13.87767,13.87767,0,0,0,1.77448-4.24951c.414-2.16.20553-2.95949.54451-4.167a5.39293,5.39293,0,0,1,.744-1.737c.261-.495.387-1.443-1.095-2.26351,0,0-.381.987-1.965.834-1.581-.156-7.3185-.549-8.928-1.272-1.6095-.729-5.208-2.08049-6.46047-2.763a9.01985,9.01985,0,0,1-2.49751-1.881,1.18991,1.18991,0,0,1-.32849-1.281,2.81365,2.81365,0,0,0-1.00653.8535,3.653,3.653,0,0,0-.945,3.648s-2.07-.375-2.37447,2.736a1.31415,1.31415,0,0,0-1.46553.534,12.88287,12.88287,0,0,0-.888,2.469,6.88617,6.88617,0,0,0-2.27252,2.92951l-.21,1.149s-.27.096-.54451.216c-.273.123-.24151.909-.597.8625a1.846,1.846,0,0,0-1.644.3015,3.40411,3.40411,0,0,0-1.092,2.0265s-1.716.08551-2.2635,1.0995-.915.651-1.4085,2.448c-.495,1.797-.3885,2.58748.16352,2.709,0,0-.975,1.53-.4335,2.53049.54,1.002.49351,2.133,1.87348,2.67751,1.37554.54,2.004.828,2.004.828a3.91845,3.91845,0,0,0-.55948,2.71948c.25351,1.584,2.082,3.42451,3.984,4.29152a6.73794,6.73794,0,0,0-.3105,3.16648,4.16554,4.16554,0,0,0,1.57347,2.58451,4.39094,4.39094,0,0,0,2.937.849A15.71152,15.71152,0,0,0,18.4644,183.78305Z" transform="translate(15.51855)" fill="none" stroke="#000" stroke-miterlimit="10" stroke-width="0.6"/><path d="M25.26718,189.68781a8.0756,8.0756,0,0,0,2.5275-1.566c1.011-1.005,2.1075-2.25451,3.144-3.465a22.07686,22.07686,0,0,0,2.78252-3.0975c1.098-1.662,1.515-2.6145,2.23352-3.1935" transform="translate(15.51855)" fill="none" stroke="#000" stroke-miterlimit="10" stroke-width="0.6"/><path d="M18.4644,183.78305s1.33946-.53549,2.208-.83249c.86549-.3015,1.728-.96151,2.262-.74249a.74078.74078,0,0,1,.273,1.11,5.09354,5.09354,0,0,1-1.023.711" transform="translate(15.51855)" fill="none" stroke="#000" stroke-miterlimit="10" stroke-width="0.6"/><path d="M12.60507,177.44616a10.38891,10.38891,0,0,0,4.11447.95251" transform="translate(15.51855)" fill="none" stroke="#000" stroke-miterlimit="10" stroke-width="0.6"/><path d="M9.18164,170.434s.93448.37951.71846.87a1.3235,1.3235,0,0,1-1.278.606" transform="translate(15.51855)" fill="none" stroke="#000" stroke-miterlimit="10" stroke-width="0.6"/><path d="M9.24614,158.14236s-.135,2.20351-1.785,2.973" transform="translate(15.51855)" fill="none" stroke="#000" stroke-miterlimit="10" stroke-width="0.6"/><path d="M17.959,147.65405a8.88314,8.88314,0,0,1-.318,2.44352c-.336.987-1.518,3.67649-.6075,4.623a13.38065,13.38065,0,0,0,7.401,4.2765c4.368.933,10.554,3.162,15.684,1.21349" transform="translate(15.51855)" fill="none" stroke="#000" stroke-miterlimit="10" stroke-width="0.6"/><path d="M40.04892,166.073s.49049-3.7755-.807-4.92449" transform="translate(15.51855)" fill="none" stroke="#000" stroke-miterlimit="10" stroke-width="0.6"/><path d="M42.271,149.08386s-2.487,1.227-7.30952.18c-4.82849-1.047-8.127-1.8915-9.66-2.817s-3.62251-1.91549-4.968-1.52849" transform="translate(15.51855)" fill="none" stroke="#000" stroke-miterlimit="10" stroke-width="0.6"/><path d="M37.774,188.58621c-2.99254-6.234-6.73352-12.0225-9.897-18.159-.66449-1.29-2.6055-.15149-1.94247,1.13549,3.16347,6.1365,6.90449,11.925,9.897,18.16051.627,1.3065,2.56649.165,1.94252-1.137" transform="translate(15.51855)"/><path d="M27.09375,176.93346c.216-2.187.21748-4.39949.612-6.56549q-.828.33525-1.653.672a34.11053,34.11053,0,0,1,5.33546,3.46648c1.1175.9045,2.71953-.67648,1.59151-1.59148a37.27637,37.27637,0,0,0-5.79-3.81752,1.13673,1.13673,0,0,0-1.65449.6735c-.43053,2.3685-.456,4.7715-.6915,7.16249-.1425,1.44452,2.109,1.42951,2.25,0" transform="translate(15.51855)"/><path d="M6.87012,159.4286a3.83931,3.83931,0,0,1,.59546-1.518.64989.64989,0,0,1,.504-.31349c.61652-.04951.993.5955,1.1895,1.1025a4.83141,4.83141,0,0,1,.345-1.45349,4.713,4.713,0,0,1,.627-.909,1.71955,1.71955,0,0,1,.42151-.3945,2.654,2.654,0,0,1,.28349-.123,3.73092,3.73092,0,0,0-5.77048.28949c-1.2675,1.6875-2.619,5.712.25946,21.1005,3.147,16.821,5.298,55.068-.08546,83.733l2.94749.55348c5.45549-29.04149,3.2775-67.79249.08849-84.84-.51-2.72548-.882-5.064-1.1445-7.071a3.048,3.048,0,0,1-.819-.5595c-.20549-.2625-.19052-.16051-.34652-.50851-.15747-.3465-.6135-1.3455-.70949-1.695a2.1847,2.1847,0,0,1,.042-1.47448c.246-.59851.438-.94952.438-.94952a.72.72,0,0,1-.46948-.696,11.05236,11.05236,0,0,1,.30748-2.01151,7.37062,7.37062,0,0,1,.4395-1.167,4.57607,4.57607,0,0,1,.45451-.579c.19647-.2235.402-.516.402-.516" transform="translate(15.51855)" fill="#34b3d1" stroke="#000" stroke-linecap="round" stroke-linejoin="round" stroke-width="0.4"/><path d="M6.87012,159.4286a3.83931,3.83931,0,0,1,.59546-1.518.64989.64989,0,0,1,.504-.31349c.61652-.04951.993.5955,1.1895,1.1025a4.83141,4.83141,0,0,1,.345-1.45349,4.713,4.713,0,0,1,.627-.909,1.71955,1.71955,0,0,1,.42151-.3945,2.654,2.654,0,0,1,.28349-.123,3.73092,3.73092,0,0,0-5.77048.28949c-1.2675,1.6875-2.619,5.712.25946,21.1005,3.147,16.821,5.298,55.068-.08546,83.733l2.94749.55348c5.45549-29.04149,3.2775-67.79249.08849-84.84-.51-2.72548-.882-5.064-1.1445-7.071a3.048,3.048,0,0,1-.819-.5595c-.20549-.2625-.19052-.16051-.34652-.50851-.15747-.3465-.6135-1.3455-.70949-1.695a2.1847,2.1847,0,0,1,.042-1.47448c.246-.59851.438-.94952.438-.94952a.72.72,0,0,1-.46948-.696,11.05236,11.05236,0,0,1,.30748-2.01151,7.37062,7.37062,0,0,1,.4395-1.167,4.57607,4.57607,0,0,1,.45451-.579C6.66458,159.72112,6.87012,159.4286,6.87012,159.4286Z" transform="translate(15.51855)" fill="none" stroke="#000" stroke-width="0.6"/><g clip-path="url(#clip-path-6)"><g mask="url(#mask-2)"><rect x="-9.655" y="230.52149" width="36.55542" height="33.13096" transform="translate(-180.93001 108.98523) rotate(-54.04371)" fill="url(#Dégradé_sans_nom_98-2)"/></g></g><path d="M42.19961,180.11316h7.5293v1.98046h-5.1748v2.47461H49.039v1.83008H44.55411v4.42481h-2.3545Z" transform="translate(15.51855)" fill="#252525"/><path d="M69.97275,283.73526a3.687,3.687,0,0,1-3.19354-.831" transform="translate(15.51855)" fill="none" stroke="#000" stroke-width="0.375"/><path d="M79.18364,250.44516c.501-.03149.939.46651.981,1.12051a1.07456,1.07456,0,0,1-.822,1.2465c-.501.033-.94052-.46949-.9825-1.125A1.07058,1.07058,0,0,1,79.18364,250.44516Z" transform="translate(15.51855)" fill="none" stroke="#000" stroke-linecap="round" stroke-linejoin="round" stroke-width="0.6"/><path d="M66.44847,280.79961c-.984-2.385-.963-4.7745-.972-7.683-.009-2.5755-.036-15.756.375-22.06051-1.077-.222-2.1525-.456-3.231-.684-.04354-.009-.09-.012-.13353-.021l-.18-.00448c-.37052.021-.741.024-1.116.05248-.483,8.24851-.85052,27.801.807,31.8885,1.869,4.608,6.69447,6.6525,12.792,5.214,7.056-1.6635,9.36452-7.63348,10.152-9.675a6.39812,6.39812,0,0,0,.0645-3.144,1.29622,1.29622,0,0,0,.144-.72451c-.03-.45451-.15449-2.547-.15449-2.547l-2.12851-4.91252-4.4085-.765.05251,3.54751.77248,2.43s.228,2.526.25351,2.92049c.03.396.744.594.744.594a7.02551,7.02551,0,0,0-.80251,1.737,8.86682,8.86682,0,0,1-3.996,4.86c-2.37,1.167-7.656,2.31749-9.03447-1.023" transform="translate(15.51855)" fill="#ffe501"/><path d="M66.44847,280.79961c-.984-2.385-.963-4.7745-.972-7.683-.009-2.5755-.036-15.756.375-22.06051-1.077-.222-2.1525-.456-3.231-.684-.04354-.009-.09-.012-.13353-.021l-.18-.00448c-.37052.021-.741.024-1.116.05248-.483,8.24851-.85052,27.801.807,31.8885,1.869,4.608,6.69447,6.6525,12.792,5.214,7.056-1.6635,9.36452-7.63348,10.152-9.675a6.39812,6.39812,0,0,0,.0645-3.144,1.29622,1.29622,0,0,0,.144-.72451c-.03-.45451-.15449-2.547-.15449-2.547l-2.12851-4.91252-4.4085-.765.05251,3.54751.77248,2.43s.228,2.526.25351,2.92049c.03.396.744.594.744.594a7.02551,7.02551,0,0,0-.80251,1.737,8.86682,8.86682,0,0,1-3.996,4.86C73.113,282.98962,67.82693,284.14011,66.44847,280.79961Z" transform="translate(15.51855)" fill="none" stroke="#000" stroke-width="0.6"/><path d="M73.87646,244.74831a7.99151,7.99151,0,0,1,.453,1.095,3.02571,3.02571,0,0,1,1.017.92851c.6405,1.12049,1.33648,1.07849,1.827,1.90049a4.44535,4.44535,0,0,1,.4845,3.183l.82649,2.30251,3.05251-.1395,1.69647-3.513s.144-2.001-1.872-4.653a17.59887,17.59887,0,0,0-5.50951-4.995,3.39858,3.39858,0,0,0-1.97548,3.891" transform="translate(15.51855)" fill="#ffe501"/><path d="M73.87646,244.74831a7.99151,7.99151,0,0,1,.453,1.095,3.02571,3.02571,0,0,1,1.017.92851c.6405,1.12049,1.33648,1.07849,1.827,1.90049a4.44535,4.44535,0,0,1,.4845,3.183l.82649,2.30251,3.05251-.1395,1.69647-3.513s.144-2.001-1.872-4.653a17.59887,17.59887,0,0,0-5.50951-4.995A3.39858,3.39858,0,0,0,73.87646,244.74831Z" transform="translate(15.51855)" fill="none" stroke="#000" stroke-width="0.6"/><path d="M80.28223,275.2259a15.45868,15.45868,0,0,0,3.453-.159c.303-.213.28954-.94652.21753-1.488a1.51541,1.51541,0,0,0-.468-.96451.60867.60867,0,0,1-.22651-.52649" transform="translate(15.51855)" fill="none" stroke="#000" stroke-linecap="round" stroke-linejoin="round" stroke-width="0.6"/><path d="M85.00648,274.68247a23.84262,23.84262,0,0,1-.342-2.739" transform="translate(15.51855)" fill="none" stroke="#000" stroke-linecap="round" stroke-linejoin="round" stroke-width="0.375"/><path d="M83.61777,271.99445a3.19275,3.19275,0,0,1,.5625,1.59c.144,1.1115.47845,2.451.22046,3.063a2.46659,2.46659,0,0,1-2.157,1.473c-1.1715.042-2.742.13048-2.8845-.489" transform="translate(15.51855)" fill="none" stroke="#000" stroke-linecap="round" stroke-linejoin="round" stroke-width="0.375"/><path d="M77.7144,250.78356a1.25877,1.25877,0,0,1,.861-1.37848,6.9653,6.9653,0,0,1,1.42951-.25351" transform="translate(15.51855)" fill="none" stroke="#000" stroke-linecap="round" stroke-linejoin="round" stroke-width="0.6"/><path d="M75.72372,247.2518c-.006-.0675-.318-.966.261-1.233a3.21324,3.21324,0,0,1,1.89-.309,6.55219,6.55219,0,0,1,1.59151.51151,4.96386,4.96386,0,0,1,1.42048.61951,2.12548,2.12548,0,0,1,.82952,1.45949" transform="translate(15.51855)" fill="none" stroke="#000" stroke-linecap="round" stroke-linejoin="round" stroke-width="0.375"/><path d="M81.52153,267.67612a7.54817,7.54817,0,0,1,.147,1.671,3.79745,3.79745,0,0,1-.42151,1.401,1.69514,1.69514,0,0,0,.01648,1.341c.17253.1455.17253.11552.4005.096.5955-.051,3.4725-.318,3.98254-.363.504-.04351.642-.20549.4845-1.995-.15152-1.791-.36452-4.209-.36452-4.209s.114-.05851.099-.25651c-.01652-.20249-.072-.79649-.08853-.99449-.01648-.201-.285-.339-.285-.339l-.1875-2.127a.26848.26848,0,0,0,.174-.29551c-.01946-.24-.066-.756-.08249-.936-.012-.1785-.279-.234-.279-.234l-.195-2.24849a.28493.28493,0,0,0,.231-.32249c-.027-.27752-.072-.83551-.08249-.933-.006-.099-.27452-.195-.27452-.195l-.17849-2.0295a.39819.39819,0,0,0,.246-.44249c-.033-.3585-.0705-.8145-.09151-1.014a.32943.32943,0,0,0-.22353-.264s-.147-1.71-.1815-2.08649c-.03-.378-.189-.5655-.492-.618a1.28387,1.28387,0,0,1-.882-.5295c-.36-.41251-.792-1.515-1.14-1.587-.348-.069-1.76248.099-1.848.486a13.57017,13.57017,0,0,0,.11252,2.0145c.015.41851.0255,1.79251-.47552,2.0625a1.59027,1.59027,0,0,1-1.30651.126c-.48147-.261-.621-2.07149-.621-2.07149s-.735.021-.936.0195a.25619.25619,0,0,0-.27749.282c.0135.141.21451,2.47051.21451,2.47051a.48585.48585,0,0,0-.15.351c.01648.19949.072.79651.08551.957.0135.156.354.40949.354.40949l.17249,1.989s-.312.087-.29549.264c.01653.18.0705.837.084.9765.01049.13951.42.44552.42.44552l.168,1.93048s-.324.186-.33.348c-.00751.16049.06752.777.081.933.012.159.372.39.372.39l.177,2.02952s-.315.027-.3.24749c.0195.216.08551.951.102,1.15049a.42877.42877,0,0,0,.18453.306s.027,1.422.0525,2.22c.033.79951.24,3.54.29851,3.663s.25346.1635.465.15a4.10554,4.10554,0,0,1,.474.003,1.02182,1.02182,0,0,0,.255-.387,1.43794,1.43794,0,0,0,.006-.71851,7.31176,7.31176,0,0,1-.354-1.119,14.32921,14.32921,0,0,1-.25053-2.38651,3.648,3.648,0,0,1,.22352-.627,7.38208,7.38208,0,0,1,1.80451-.05251c.23849.144.546.144.70651.648" transform="translate(15.51855)" fill="#ffe501"/><path d="M81.52153,267.67612a7.54817,7.54817,0,0,1,.147,1.671,3.79745,3.79745,0,0,1-.42151,1.401,1.69514,1.69514,0,0,0,.01648,1.341c.17253.1455.17253.11552.4005.096.5955-.051,3.4725-.318,3.98254-.363.504-.04351.642-.20549.4845-1.995-.15152-1.791-.36452-4.209-.36452-4.209s.114-.05851.099-.25651c-.01652-.20249-.072-.79649-.08853-.99449-.01648-.201-.285-.339-.285-.339l-.1875-2.127a.26848.26848,0,0,0,.174-.29551c-.01946-.24-.066-.756-.08249-.936-.012-.1785-.279-.234-.279-.234l-.195-2.24849a.28493.28493,0,0,0,.231-.32249c-.027-.27752-.072-.83551-.08249-.933-.006-.099-.27452-.195-.27452-.195l-.17849-2.0295a.39819.39819,0,0,0,.246-.44249c-.033-.3585-.0705-.8145-.09151-1.014a.32943.32943,0,0,0-.22353-.264s-.147-1.71-.1815-2.08649c-.03-.378-.189-.5655-.492-.618a1.28387,1.28387,0,0,1-.882-.5295c-.36-.41251-.792-1.515-1.14-1.587-.348-.069-1.76248.099-1.848.486a13.57017,13.57017,0,0,0,.11252,2.0145c.015.41851.0255,1.79251-.47552,2.0625a1.59027,1.59027,0,0,1-1.30651.126c-.48147-.261-.621-2.07149-.621-2.07149s-.735.021-.936.0195a.25619.25619,0,0,0-.27749.282c.0135.141.21451,2.47051.21451,2.47051a.48585.48585,0,0,0-.15.351c.01648.19949.072.79651.08551.957.0135.156.354.40949.354.40949l.17249,1.989s-.312.087-.29549.264c.01653.18.0705.837.084.9765.01049.13951.42.44552.42.44552l.168,1.93048s-.324.186-.33.348c-.00751.16049.06752.777.081.933.012.159.372.39.372.39l.177,2.02952s-.315.027-.3.24749c.0195.216.08551.951.102,1.15049a.42877.42877,0,0,0,.18453.306s.027,1.422.0525,2.22c.033.79951.24,3.54.29851,3.663s.25346.1635.465.15a4.10554,4.10554,0,0,1,.474.003,1.02182,1.02182,0,0,0,.255-.387,1.43794,1.43794,0,0,0,.006-.71851,7.31176,7.31176,0,0,1-.354-1.119,14.32921,14.32921,0,0,1-.25053-2.38651,3.648,3.648,0,0,1,.22352-.627,7.38208,7.38208,0,0,1,1.80451-.05251C81.05351,267.17212,81.361,267.17212,81.52153,267.67612Z" transform="translate(15.51855)" fill="none" stroke="#000" stroke-width="0.6"/><line x1="94.51035" y1="272.13366" x2="94.04832" y2="266.82367" fill="none" stroke="#000" stroke-linecap="round" stroke-linejoin="round" stroke-width="0.375"/><path d="M80.6955,266.948c-.222-.024-2.709-.357-2.80953.111" transform="translate(15.51855)" fill="none" stroke="#000" stroke-linecap="round" stroke-linejoin="round" stroke-width="0.6"/><line x1="93.35893" y1="266.28305" x2="101.28493" y2="265.61856" fill="none" stroke="#000" stroke-linecap="round" stroke-linejoin="round" stroke-width="0.375"/><path d="M77.85356,264.578s7.47446-.573,7.638-.549" transform="translate(15.51855)" fill="none" stroke="#000" stroke-linecap="round" stroke-linejoin="round" stroke-width="0.375"/><line x1="93.19633" y1="262.54912" x2="100.82382" y2="261.90113" fill="none" stroke="#000" stroke-linecap="round" stroke-linejoin="round" stroke-width="0.375"/><path d="M77.55478,260.8778s7.227-.576,7.563-.4425" transform="translate(15.51855)" fill="none" stroke="#000" stroke-linecap="round" stroke-linejoin="round" stroke-width="0.375"/><path d="M77.38646,258.94716s.29549-.13049,7.53447-.76048" transform="translate(15.51855)" fill="none" stroke="#000" stroke-linecap="round" stroke-linejoin="round" stroke-width="0.375"/><path d="M77.17827,257.261a60.06093,60.06093,0,0,1,7.617-.525" transform="translate(15.51855)" fill="none" stroke="#000" stroke-linecap="round" stroke-linejoin="round" stroke-width="0.375"/><path d="M77.00546,255.27322s5.82-.672,7.611-.567" transform="translate(15.51855)" fill="none" stroke="#000" stroke-linecap="round" stroke-linejoin="round" stroke-width="0.375"/><path d="M76.71538,253.555a50.39791,50.39791,0,0,1,7.833-.5685" transform="translate(15.51855)" fill="none" stroke="#000" stroke-linecap="round" stroke-linejoin="round" stroke-width="0.375"/><path d="M79.64218,252.7289c-.573.336-2.589.7275-2.42253-1.602" transform="translate(15.51855)" fill="none" stroke="#000" stroke-linecap="round" stroke-linejoin="round" stroke-width="0.375"/><path d="M79.69048,252.7142a1.55415,1.55415,0,0,0,.924-1.69649,20.21639,20.21639,0,0,0-.231-2.42249" transform="translate(15.51855)" fill="none" stroke="#000" stroke-linecap="round" stroke-linejoin="round" stroke-width="0.375"/><path d="M79.011,267.07986c-.32551.021-.66-.009-.78754.414a5.26082,5.26082,0,0,0-.03447,2.00851,4.55838,4.55838,0,0,0,.56548,1.845l.0585.654-.153.2265" transform="translate(15.51855)" fill="none" stroke="#000" stroke-linecap="round" stroke-linejoin="round" stroke-width="0.375"/><path d="M74.11963,56.70488a1.10544,1.10544,0,0,0,.639.58653.98553.98553,0,0,0,1.113-.86252,1.047,1.047,0,0,0-.9-1.296" transform="translate(15.51855)" fill="none" stroke="#000" stroke-linecap="round" stroke-linejoin="round" stroke-width="0.6"/><path d="M75.88646,55.33969a1.2851,1.2851,0,0,1,.28949,1.245c-.17253.66-.501.744-.6975.78749a1.46181,1.46181,0,0,1-.825-.111" transform="translate(15.51855)" fill="none" stroke="#000" stroke-linecap="round" stroke-linejoin="round" stroke-width="0.6"/><path d="M73.84721,57.83569s.06148.33454.93448.6a5.24566,5.24566,0,0,0,2.022.483,1.10832,1.10832,0,0,0,.8145-1.011" transform="translate(15.51855)" fill="none" stroke="#000" stroke-linecap="round" stroke-linejoin="round" stroke-width="0.6"/><path d="M70.84424,63.1019a2.33988,2.33988,0,0,0,2.54246,1.50453,15.60958,15.60958,0,0,0,5.301-5.04451c.006.04349,1.37851-2.80348,1.37851-2.80348l-5.3985-3.075-1.416,1.78349-.92551,3.4845a5.15543,5.15543,0,0,0-.879.49654c-.114.081-.258.204-.41546.33746-.09453.555-.501,1.08-.501,1.62753a3.72725,3.72725,0,0,0,.31352,1.689" transform="translate(15.51855)" fill="#f2f2f2"/><path d="M70.84424,63.1019a2.33988,2.33988,0,0,0,2.54246,1.50453,15.60958,15.60958,0,0,0,5.301-5.04451c.006.04349,1.37851-2.80348,1.37851-2.80348l-5.3985-3.075-1.416,1.78349-.92551,3.4845a5.15543,5.15543,0,0,0-.879.49654c-.114.081-.258.204-.41546.33746-.09453.555-.501,1.08-.501,1.62753A3.72725,3.72725,0,0,0,70.84424,63.1019Z" transform="translate(15.51855)" fill="none" stroke="#000" stroke-width="0.6"/><path d="M59.823,59.22441a6.63732,6.63732,0,0,1,1.28549-1.461,19.62632,19.62632,0,0,1,.05251-2.415c.126-1.923,2.8185-20.247,4.0665-25.23,1.248-4.989,2.59648-6.78149,5.11047-6.78149a10.092,10.092,0,0,1,8.40152,4.49551c1.497,2.481,1.08449,2.5785,1.146,3.2445a8.16116,8.16116,0,0,0,.477,1.74s-.78749.045-.849.276c-.0585.234-.912,3.52052-.912,3.52052l5.535,1.653a25.50352,25.50352,0,0,0,.81152-3.85652c-.144-.28349.82947-1.99049.738-2.355s-.57449-6.04953-4.55548-9.381c-3.978-3.33-12.19052-6.471-17.382-1.0935-2.5935,2.68048-3.234,8.56947-3.83249,11.769-.597,3.198-3.345,18.09-3.45,22.62905a16.54562,16.54562,0,0,0,.64948,5.32649A4.03678,4.03678,0,0,0,59.823,59.22441" transform="translate(15.51855)" fill="#f2f2f2"/><path d="M59.823,59.22441a6.63732,6.63732,0,0,1,1.28549-1.461,19.62632,19.62632,0,0,1,.05251-2.415c.126-1.923,2.8185-20.247,4.0665-25.23,1.248-4.989,2.59648-6.78149,5.11047-6.78149a10.092,10.092,0,0,1,8.40152,4.49551c1.497,2.481,1.08449,2.5785,1.146,3.2445a8.16116,8.16116,0,0,0,.477,1.74s-.78749.045-.849.276c-.0585.234-.912,3.52052-.912,3.52052l5.535,1.653a25.50352,25.50352,0,0,0,.81152-3.85652c-.144-.28349.82947-1.99049.738-2.355s-.57449-6.04953-4.55548-9.381c-3.978-3.33-12.19052-6.471-17.382-1.0935-2.5935,2.68048-3.234,8.56947-3.83249,11.769-.597,3.198-3.345,18.09-3.45,22.62905a16.54562,16.54562,0,0,0,.64948,5.32649A4.03678,4.03678,0,0,0,59.823,59.22441Z" transform="translate(15.51855)" fill="none" stroke="#000" stroke-width="0.6"/><path d="M80.36279,32.8163a13.14377,13.14377,0,0,1,3.144.753c.591.234.711.24751.67053.594a4.324,4.324,0,0,1-.41551,1.413c-.1875.2325-.801.336-.909.93" transform="translate(15.51855)" fill="none" stroke="#000" stroke-linecap="round" stroke-linejoin="round" stroke-width="0.6"/><path d="M84.13646,34.49345s1.42946-2.22148.15147-3.342c-1.27647-1.12349-4.203-1.698-4.374-.3105" transform="translate(15.51855)" fill="none" stroke="#000" stroke-linecap="round" stroke-linejoin="round" stroke-width="0.375"/><path d="M84.145,37.15508a18.25942,18.25942,0,0,1,.78749-2.95047" transform="translate(15.51855)" fill="none" stroke="#000" stroke-linecap="round" stroke-linejoin="round" stroke-width="0.6"/><path d="M71.13446,59.95834s-.45154.618.66747,1.17005a3.94393,3.94393,0,0,0,2.4645.534c.6525-.093,2.373-.4335,3.579-3.669" transform="translate(15.51855)" fill="none" stroke="#000" stroke-linecap="round" stroke-linejoin="round" stroke-width="0.375"/><path d="M72.13046,59.29912a1.7272,1.7272,0,0,1,.003-.97948c.138-.72,1.27652-4.75351,1.27652-4.75351a.79638.79638,0,0,1-.114-.36749c.024-.129.17551-.921.22352-1.0215a4.16524,4.16524,0,0,1,.489-.49049l.48-1.6875s-.29549-.26853-.24-.55051a5.86941,5.86941,0,0,1,.231-.78,1.83576,1.83576,0,0,1,.4335-.47553l.46651-1.74147a.81549.81549,0,0,1-.156-.5625,5.23259,5.23259,0,0,1,.159-.71553,2.47846,2.47846,0,0,1,.45447-.444l.504-1.79252s-.267-.26248-.22948-.468c.039-.204.252-.90751.285-1.08751a.44983.44983,0,0,1,.24-.273s.243-.855.30748-1.056c.0645-.204.096-1.0725.20549-1.503.111-.429.822-2.925.88051-3.099.063-.17551.36451-.09.789.04349.43048.1365,6.648,1.662,6.897,1.737.25351.07649.345.14547.30153.378-.045.231-.8205,3.192-.903,3.46953-.0765.27447-.31948.576-.348.7305-.03.153-.372,1.392-.372,1.392s.111.05552.0645.29251c-.045.23849-.264.8535-.303,1.05752-.04051.20549-.336.25649-.336.25649l-.54451,1.932a.70872.70872,0,0,1,.14548.54c-.0705.2715-.219.7755-.264.909-.04052.13348-.327.14849-.327.14849l-.58054,2.034s.258.12.21451.357c-.048.2385-.21451.90152-.246,1.017-.0645.237-.381.228-.381.228l-.46349,1.683a.95118.95118,0,0,1,.147.63153c-.06148.32547-.2325.84146-.279.993a.352.352,0,0,1-.1815.21149l-1.368,4.467a1.62923,1.62923,0,0,1-.70052-.11247c-.273-.141-.3045-.285-.3045-.285l.28052-1.29149s.07649.042-.55948-.15c-.63753-.1935-2.02954-.42151-1.977-.97952.05251-.55651.17253-1.434-.4275-1.746-1.134-.5955-1.79846-.07347-1.9395.46651a1.26788,1.26788,0,0,0,.05553.84453c-.222.79646-.591,2.715-.95549,2.91449-.28954.159-1.0335-.321-1.0335-.321" transform="translate(15.51855)" fill="#f2f2f2"/><path d="M72.13046,59.29912a1.7272,1.7272,0,0,1,.003-.97948c.138-.72,1.27652-4.75351,1.27652-4.75351a.79638.79638,0,0,1-.114-.36749c.024-.129.17551-.921.22352-1.0215a4.16524,4.16524,0,0,1,.489-.49049l.48-1.6875s-.29549-.26853-.24-.55051a5.86941,5.86941,0,0,1,.231-.78,1.83576,1.83576,0,0,1,.4335-.47553l.46651-1.74147a.81549.81549,0,0,1-.156-.5625,5.23259,5.23259,0,0,1,.159-.71553,2.47846,2.47846,0,0,1,.45447-.444l.504-1.79252s-.267-.26248-.22948-.468c.039-.204.252-.90751.285-1.08751a.44983.44983,0,0,1,.24-.273s.243-.855.30748-1.056c.0645-.204.096-1.0725.20549-1.503.111-.429.822-2.925.88051-3.099.063-.17551.36451-.09.789.04349.43048.1365,6.648,1.662,6.897,1.737.25351.07649.345.14547.30153.378-.045.231-.8205,3.192-.903,3.46953-.0765.27447-.31948.576-.348.7305-.03.153-.372,1.392-.372,1.392s.111.05552.0645.29251c-.045.23849-.264.8535-.303,1.05752-.04051.20549-.336.25649-.336.25649l-.54451,1.932a.70872.70872,0,0,1,.14548.54c-.0705.2715-.219.7755-.264.909-.04052.13348-.327.14849-.327.14849l-.58054,2.034s.258.12.21451.357c-.048.2385-.21451.90152-.246,1.017-.0645.237-.381.228-.381.228l-.46349,1.683a.95118.95118,0,0,1,.147.63153c-.06148.32547-.2325.84146-.279.993a.352.352,0,0,1-.1815.21149l-1.368,4.467a1.62923,1.62923,0,0,1-.70052-.11247c-.273-.141-.3045-.285-.3045-.285l.28052-1.29149s.07649.042-.55948-.15c-.63753-.1935-2.02954-.42151-1.977-.97952.05251-.55651.17253-1.434-.4275-1.746-1.134-.5955-1.79846-.07347-1.9395.46651a1.26788,1.26788,0,0,0,.05553.84453c-.222.79646-.591,2.715-.95549,2.91449C72.87442,59.77913,72.13046,59.29912,72.13046,59.29912Z" transform="translate(15.51855)" fill="none" stroke="#000" stroke-width="0.6"/><path d="M79.57768,59.82935s.41249-.843.17848-1.224c-.14849-.246-.267-.20252-.78749-.336" transform="translate(15.51855)" fill="none" stroke="#000" stroke-linecap="round" stroke-linejoin="round" stroke-width="0.375"/><path d="M73.41074,53.56581a10.18939,10.18939,0,0,0,3.762,1.527,12.47162,12.47162,0,0,0,3.888.399" transform="translate(15.51855)" fill="none" stroke="#000" stroke-linecap="round" stroke-linejoin="round" stroke-width="0.375"/><path d="M73.79443,52.19032a13.33869,13.33869,0,0,0,4.55246,1.62754,18.228,18.228,0,0,0,3.024.243" transform="translate(15.51855)" fill="none" stroke="#000" stroke-linecap="round" stroke-linejoin="round" stroke-width="0.375"/><path d="M74.48877,49.99883a14.09067,14.09067,0,0,0,4.56148,1.587,10.863,10.863,0,0,0,2.78549.387" transform="translate(15.51855)" fill="none" stroke="#000" stroke-linecap="round" stroke-linejoin="round" stroke-width="0.375"/><path d="M74.75249,48.62631a14.54914,14.54914,0,0,0,4.155,1.54953,17.0672,17.0672,0,0,0,3.441.47251" transform="translate(15.51855)" fill="none" stroke="#000" stroke-linecap="round" stroke-linejoin="round" stroke-width="0.375"/><path d="M75.37949,46.451a22.29257,22.29257,0,0,0,4.137,1.35754,12.938,12.938,0,0,0,3.31348.5295" transform="translate(15.51855)" fill="none" stroke="#000" stroke-linecap="round" stroke-linejoin="round" stroke-width="0.375"/><path d="M75.68413,45.05946a14.41808,14.41808,0,0,0,4.128,1.47753,21.05047,21.05047,0,0,0,3.522.53851" transform="translate(15.51855)" fill="none" stroke="#000" stroke-linecap="round" stroke-linejoin="round" stroke-width="0.375"/><path d="M76.34038,42.93681a25.85267,25.85267,0,0,0,3.972,1.236,17.44331,17.44331,0,0,0,3.507.63451" transform="translate(15.51855)" fill="none" stroke="#000" stroke-linecap="round" stroke-linejoin="round" stroke-width="0.375"/><path d="M76.7271,41.24648a19.08787,19.08787,0,0,0,3.984,1.27652c2.379.55952,3.58351.708,3.58351.708" transform="translate(15.51855)" fill="none" stroke="#000" stroke-linecap="round" stroke-linejoin="round" stroke-width="0.375"/><path d="M73.12065,59.387s.513-2.67.747-3.414c.234-.741.501-.82951.774-.87451" transform="translate(15.51855)" fill="none" stroke="#000" stroke-linecap="round" stroke-linejoin="round" stroke-width="0.375"/><path d="M69.553,28.996A14.498,14.498,0,1,0,55.05,14.499,14.4982,14.4982,0,0,0,69.553,28.996" transform="translate(15.51855)" fill="#595959"/><path d="M77.7344,6.44028a.57578.57578,0,0,0-.59858-.28547c-.30121.05516-.46266.35637-.65758.52768-.28156.24022-.7226.30716-1.00614.5493-.70091.58873-1.25815,1.60467-2.087,2.03194v.0256c-.187.04332-.47059-.17918-.62808-.24221a7.89974,7.89974,0,0,0-1.94727-.80726c-1.5495-.25-5.45186-.41934-4.20159,1.57318,1.44315,2.29968,1.63615.03743,3.33533.86434.4331.20874.96672.39771,1.39.58872-.18116.382-.74429.52371-.79548.76592-.44494,1.78774,1.25027,1.73853,1.90984.76586a7.31213,7.31213,0,0,1,1.524-1.49441c.86037-.72451,1.646-1.55935,2.50643-2.29769.33078-.28944,1.7267-1.5712,1.60268-2.15595-.03743-.13976-.26384-.30909-.34652-.40955" transform="translate(15.51855)" fill="#d9d9d9"/><path d="M76.302,14.04653c.00979.02758.03936-.10431.03936-.1358a6.451,6.451,0,0,0-.14175-.87227c-.0709-.26185-.32488-.97063-.58674-1.04351-.56313-.14373-1.74448.97856-1.88034,1.28963-.1299.27765.10834.63006.13982.86632a7.19609,7.19609,0,0,1-.17329,2.54381c-.13783.58482-.632.85454-1.00806,1.2129a7.56438,7.56438,0,0,1-1.08287,1.012,4.66228,4.66228,0,0,1-4.34346.0256c-.41147-.24612-.93127-.35637-1.21283-.72452a5.26271,5.26271,0,0,1-.63-5.387c.44891.20477,1.77789,1.57714,2.22481.3485a1.008,1.008,0,0,0-.17124-.94113,6.23162,6.23162,0,0,0-1.14789-.93716c-.35247-.27171-.60248-.68715-.93722-.97659-.73636-.62417-1.45109-1.24829-2.18744-1.87246-.71473-.59654-1.15967-1.518-2.02407-1.94721a1.25371,1.25371,0,0,0-.66545-.1772c-1.2424.122.31894,1.6972.53357,1.95118a17.03394,17.03394,0,0,0,2.46113,2.465,9.26691,9.26691,0,0,1-.58873,1.04351,8.2334,8.2334,0,0,0-.72452,2.918,9.45984,9.45984,0,0,0,1.20888,4.41621c.321.41346.90766.51584,1.2877.87221.28349.256.44891.67928.76586.90178a7.92468,7.92468,0,0,0,6.04852.83285,6.98883,6.98883,0,0,0,4.86512-6.05242c.03545-.27958-.11218-1.58694-.06886-1.63224" transform="translate(15.51855)" fill="#d9d9d9"/><path d="M72.63717,305.20126a13.606,13.606,0,1,0-13.60421-13.606,13.60506,13.60506,0,0,0,13.60421,13.606" transform="translate(15.51855)" fill="#595959"/><path d="M74.72172,285.55152s.11356-.19054-.09349-.15023a23.36433,23.36433,0,0,1-3.01028.26384c-.08616.4159-.2822.66692-.35545,1.04252a2.33517,2.33517,0,0,0,0,.5405,1.14276,1.14276,0,0,0,1.059.27118,3.70507,3.70507,0,0,0,2.40025-1.96781" transform="translate(15.51855)" fill="#d9d9d9"/><path d="M68.97828,290.42191c.17222.14292.50933.251.58442.5002a1.57982,1.57982,0,0,1,.02566.37011c1.4823-.14475,3.23388.05314,4.68129-.15024a7.74959,7.74959,0,0,0,1.16532-.18689c.26565-.07879,1.97513-2.56509,1.89086-3.07812a1.98749,1.98749,0,0,0-.55886-.76586,4.27014,4.27014,0,0,1-.72186-.86481c.06229-.18688.1026-.36643.1612-.59546.52219-1.93115.13011-4.11881-1.7754-3.94292a2.04936,2.04936,0,0,0-1.28436.56615c-.09165.08978-.16674.29682-.273.36462-.14108.09343-.3261.06412-.47634.13192a3.08058,3.08058,0,0,0-.94177,1.17444,3.01277,3.01277,0,0,0-.41958,1.13781,2.295,2.295,0,0,1-.13744.3646,1.43374,1.43374,0,0,1,.91795.03664,18.24177,18.24177,0,0,1,1.1708-2.04108c.64492.11177,1.58669-.98022,2.05754,0a4.37683,4.37683,0,0,1-.03293,1.94031c-.06782.94543.40488.67609.71638.69808a8.5303,8.5303,0,0,1-1.24226,1.59586,3.75955,3.75955,0,0,1-2.16747,1.17078c-1.81393.22537-2.39472-1.6783-1.81393-3.3786-.2803.03481-.43423-.1539-.77682-.10443-1.27156.19054-1.28257.51851-1.94583,1.37416-.28215.35911-.535.73105-.83548,1.07a5.627,5.627,0,0,0,2.03194,2.61272" transform="translate(15.51855)" fill="#d9d9d9"/><path d="M81.32955,292.79078c-.394-.66876-2.25733-4.20126-2.94441-4.04368-.35176.07512-.546.7622-.731,1.07a10.55271,10.55271,0,0,0-.94177,1.74243c-.066.56248.37563.76952.52766,1.09932a3.71728,3.71728,0,0,1,.33163.808c.04585.24369-.04763.41224,0,.59731a14.99122,14.99122,0,0,0,1.47861,2.44417c.14661.284.13375.55882.328.76952.38659-.63944.90509-1.14879,1.288-1.80656.28953-.50569.5497-1.081.80618-1.60318.055-.13192.06967-.38293.16858-.46906.055-.06412-.2803-.56248-.31144-.60829" transform="translate(15.51855)" fill="#d9d9d9"/><path d="M67.17464,290.7224c-.42327-.70539-.75854-1.46393-1.79011-1.50608-.47455.9839-2.78494,3.88246-2.41853,4.98a12.8227,12.8227,0,0,0,.91247,1.07733,11.72816,11.72816,0,0,1,1.12316,1.47493c.21253.361.1777.94176.568,1.103a.705.705,0,0,0,.4727.02749,26.59944,26.59944,0,0,0,2.35071-5.45634c-.06777-.73838-.89961-1.16344-1.21838-1.70029" transform="translate(15.51855)" fill="#d9d9d9"/><path d="M75.942,292.55461c-1.32658.05315-3.11663-.04946-4.48531-.03664-.49652.00732-1.76254-.0568-2.08137.25468-.18323.18322-.16489.9729-.24,1.26972-.11541.42325-.3829.742-.50933,1.15612-.328,1.059-.49467,2.0759-.87031,3.04514a1.62551,1.62551,0,0,0-.21437.68525.47318.47318,0,0,0,.42143.4324c.41041.07146.76038-.08611,1.08468.15024l6.22219-.04947a3.56266,3.56266,0,0,0,1.823-.16857c.53683-.15756,1.0352.1246,1.25321-.40124.46907-1.15613-1.55739-4.051-1.92016-4.84987-.21438-.44706-.30412-1.01871-.48366-1.48776" transform="translate(15.51855)" fill="#d9d9d9"/></g></g></svg>