<svg xmlns="http://www.w3.org/2000/svg" viewBox="0 0 139.01089 242.21614"><title>MAESTRO-Pe06-rapport-mouflage-21</title><g id="Calque_2" data-name="Calque 2"><g id="Calque_1-2" data-name="Calque 1"><line y1="24.20058" x2="106.47822" y2="24.20058" fill="#fff" stroke="#000" stroke-miterlimit="10" stroke-width="0.49081"/><line x1="55.35861" y1="188.85374" x2="49.09252" y2="220.64709" fill="#fff" stroke="#000" stroke-miterlimit="10" stroke-width="2.45406"/><line x1="79.82382" y1="191.71546" x2="58.81567" y2="221.27362" fill="#fff" stroke="#000" stroke-miterlimit="10" stroke-width="2.45406"/><path d="M51.72845,1.47852H46.86713l-.646,3.46777.03369.03418A3.05,3.05,0,0,1,48.499,4.11328c2.1416,0,3.89258,1.36035,3.89258,4.13086a3.93443,3.93443,0,0,1-4.21582,4.01172,3.54052,3.54052,0,0,1-3.8418-3.45117h1.44532A2.37241,2.37241,0,0,0,48.312,10.98047,2.54478,2.54478,0,0,0,50.86127,8.125a2.60974,2.60974,0,0,0-2.71973-2.73633,2.86751,2.86751,0,0,0-2.24365,1.13867L44.65717,6.459,45.77924.2041h5.94921Z"/><path d="M56.4892,5.15039H54.602V3.26367H56.4892ZM54.602,10.165H56.4892v1.88672H54.602Z"/><path d="M63.96869,12.05176H62.52386V3.417H59.39642V2.26074c1.64844,0,3.14453-.4248,3.46729-2.26074h1.105Z"/><line x1="53.12459" y1="24.20058" x2="53.12459" y2="53.50949" fill="#fff" stroke="#000" stroke-miterlimit="10" stroke-width="2.59567"/><line x1="82.27707" y1="51.39169" x2="82.27707" y2="24.20126" fill="#fff" stroke="#000" stroke-miterlimit="10" stroke-width="2.45406"/><line x1="67.21053" y1="164.76656" x2="67.10411" y2="165.17795" fill="#34b3d1" stroke="#000" stroke-linecap="round" stroke-width="0.49081"/><path d="M39.90556,227.89678h-.0415a2.29239,2.29239,0,0,1-2.251-2.332c.02686-1.5166,2.67969-151.74121,2.67969-162.19726,0-8.57422,4.23584-13.37012,12.59033-14.25489a12.93982,12.93982,0,0,1,9.82471,3.75586,10.5864,10.5864,0,0,1,2.769,9.21485C64.35674,70.08917,51.08916,172.2962,50.27422,179.62042c-.57373,5.15136,1.71386,8.3623,6.79882,9.543a7.09044,7.09044,0,0,0,5.73633-1.36621,9.02427,9.02427,0,0,0,3.397-6.915c.40381-7.27539,2.44825-111.63281,2.15723-119.02636-.292-7.42969,4.4834-12.32715,12.46289-12.78223a11.28923,11.28923,0,0,1,9.1919,3.25488c2.51709,2.7295,3.41455,6.83887,2.668,12.21387l-.49463,3.56543c-9.98584,72.01172-15.64942,112.11719-16.37842,115.97949-.92481,4.90332.49853,8.10645,4.35156,9.792a9.17451,9.17451,0,0,0,7.21484-.11035,7.88446,7.88446,0,0,0,4.2793-5.165c2.25537-7.4873,22.1211-81.54785,22.32129-82.29492a2.2921,2.2921,0,0,1,4.42773,1.1875c-.81933,3.05371-20.085,74.876-22.36035,82.42969A12.44692,12.44692,0,0,1,89.303,197.93a13.7575,13.7575,0,0,1-10.97509.14843c-5.84912-2.55859-8.3418-7.8291-7.01856-14.84082.49854-2.64355,3.73877-24.873,16.34229-115.75976l.49463-3.56641c.541-3.89551.023-6.82617-1.498-8.47656-1.522-1.65039-3.8667-1.88281-5.561-1.78516-3.85009.21973-8.38867,1.79-8.14355,8.02637.29248,7.42676-1.75586,112.16211-2.16016,119.46a13.52155,13.52155,0,0,1-5.22363,10.32715,11.70719,11.70719,0,0,1-9.52393,2.165c-7.28418-1.69141-11.14111-7.11719-10.31738-14.51563.81592-7.334,14.09766-109.65136,15.21826-117.66406A6.06738,6.06738,0,0,0,59.41338,56.055,8.53738,8.53738,0,0,0,53.3665,53.6712c-4.40967.46679-8.48975,1.96484-8.48975,9.69629,0,10.49609-2.6538,160.76074-2.68066,162.27734A2.2922,2.2922,0,0,1,39.90556,227.89678Z" fill="#34b3d1" stroke="#000" stroke-linecap="round" stroke-width="0.64245"/><path d="M50.15055,179.413a8.25557,8.25557,0,1,1,6.504,9.69617A8.25528,8.25528,0,0,1,50.15055,179.413Z" fill="#fff" stroke="#000" stroke-miterlimit="10" stroke-width="2.45406"/><path d="M76.8553,181.526a8.25557,8.25557,0,1,1,1.97818,11.50671A8.25527,8.25527,0,0,1,76.8553,181.526Z" fill="#fff" stroke="#000" stroke-miterlimit="10" stroke-width="2.45406"/><path d="M72.79725,60.50813a8.25573,8.25573,0,1,0,9.41722-6.90184A8.25865,8.25865,0,0,0,72.79725,60.50813Z" fill="#fff" stroke="#000" stroke-miterlimit="10" stroke-width="2.45406"/><path d="M44.86775,61.76632a8.25657,8.25657,0,1,1,8.25684,8.25551A8.25754,8.25754,0,0,1,44.86775,61.76632Z" fill="#fff" stroke="#000" stroke-miterlimit="10" stroke-width="2.45406"/><polygon points="119.732 142.045 122.344 131.37 117.004 130.061 129.717 121.456 129.717 121.456 137.011 134.961 131.677 133.654 129.063 144.328 119.732 142.045" fill="#fff" stroke="#fff" stroke-linecap="round" stroke-linejoin="round" stroke-width="4"/><rect x="121.76263" y="141.54784" width="3.71958" height="9.60845" transform="translate(-47.86107 231.7619) rotate(-76.28875)" stroke-width="4" stroke="#fff" stroke-linecap="round" stroke-linejoin="round" fill="#fff"/><rect x="121.69835" y="145.60377" width="1.8615" height="9.60834" transform="translate(-52.60452 233.79633) rotate(-76.25766)" stroke-width="4" stroke="#fff" stroke-linecap="round" stroke-linejoin="round" fill="#fff"/><polygon points="119.732 142.045 122.344 131.37 117.004 130.061 129.717 121.456 129.717 121.456 137.011 134.961 131.677 133.654 129.063 144.328 119.732 142.045" fill="#252525"/><rect x="121.76263" y="141.54784" width="3.71958" height="9.60845" transform="translate(-47.86107 231.7619) rotate(-76.28875)" fill="#252525"/><rect x="121.69835" y="145.60377" width="1.8615" height="9.60834" transform="translate(-52.60452 233.79633) rotate(-76.25766)" fill="#252525"/><path d="M116.54,76.826a13.50613,13.50613,0,0,0-13.35716,11.53755c.35667-.0094.74417-.02149.83809-.03488a9.92849,9.92849,0,0,1,2.07172-.1301c.07648.00673.15825.01881.24812.0335a1.74149,1.74149,0,0,0,1.25107-.181,2.825,2.825,0,0,1,.35269-.14617,1.27713,1.27713,0,0,1,.26954-.05094,1.23591,1.23591,0,0,0,.43577-.1207,3.47442,3.47442,0,0,0,.61955-.822,5.36411,5.36411,0,0,1,.657-.90511,6.2074,6.2074,0,0,1,1.13043-.74156,9.667,9.667,0,0,0,.96552-.61145,5.19082,5.19082,0,0,0,.89439-.99772,5.99847,5.99847,0,0,1,.7-.82066,4.35677,4.35677,0,0,1,2.79721-.86356c.25478-.02684.5176-.04826.79923-.08445.2977-.03357.61283-.09392.9132-.15152.28829-.055.55914-.10862.80459-.13683a3.956,3.956,0,0,1,2.32115.48279,5.10748,5.10748,0,0,0,1.2766.4532c.067.01209.1448.02149.22526.03488.39292.059.98426.15022,1.12906.37548a.72023.72023,0,0,1-.1542.81125c-.57528.65039-2.01274.78447-3.07479.58331a1.31554,1.31554,0,0,1-.27758-.10992.88146.88146,0,0,0-.60473-.14617.85818.85818,0,0,0-.3299.2105.96018.96018,0,0,1-.20384.14885,4.7221,4.7221,0,0,1-1.79956.2199l.00536.00268-.012-.00268h.00666a1.49884,1.49884,0,0,0-.67853.01346c-.24669.14617-.39155,1.0808-.60473,2.59474a12.46536,12.46536,0,0,1-.27758,1.60108,6.03959,6.03959,0,0,1-1.30612,1.96983c-.17165.20253-.35668.41166-.52159.62223-.04559.05767-.08987.10058-.12873.14617a.98483.98483,0,0,0-.24.32715l-.03358.07649.06845.05094a1.77343,1.77343,0,0,1,.83405,1.77807l-.00941.06035.05232.03893a1.10789,1.10789,0,0,1,.40226.69192c.03755.12736.07778.27222.13951.4291a2.8604,2.8604,0,0,0,1.91483,1.42,2.29287,2.29287,0,0,0,1.08485.03083,1.12893,1.12893,0,0,0,.49213-.2427l.11-.08713-.11266-.07916a3.81363,3.81363,0,0,0-1.231-.42911c-.92254-.21317-1.78878-.413-1.64268-1.349a.64114.64114,0,0,1,.16766-.42643c.27491-.24943,1.6547.0644,2.31847.21723.19046.04023.35269.08047.472.10058a9.08816,9.08816,0,0,0,1.08889.08047c.936.0322,2.09321.07106,2.3815.56992a.899.899,0,0,1-.1126.85416,1.86908,1.86908,0,0,1-.9695.8488,2.42017,2.42017,0,0,1-1.12377-.07642c-.14885-.0322-.28424-.06165-.42238-.08046l-.06838-.00941-.03351.05767c-.59271,1.00843-1.35034,1.04729-2.48612,1.109-.3634.02011-.78448.04558-1.227.10724a6.38669,6.38669,0,0,0-.90379.20116,4.66584,4.66584,0,0,1-2.07584.21991,8.8447,8.8447,0,0,1-1.699-.535,9.6069,9.6069,0,0,0-1.43616-.46934,2.85091,2.85091,0,0,0-1.48443.19176c-.15825.04964-.30174.09921-.43981.13278-.37411.08713-.77644.1542-1.16531.22657-.232.04291-.75358.07511-1.24839.11939A13.49766,13.49766,0,1,0,116.54,76.826Z" fill="#686166"/><path d="M119.79718,94.29854a9.08816,9.08816,0,0,1-1.08889-.08047c-.11933-.02011-.28156-.06035-.472-.10058-.66377-.15283-2.04356-.46666-2.31847-.21723a.64114.64114,0,0,0-.16766.42643c-.1461.936.72014,1.13579,1.64268,1.349a3.81363,3.81363,0,0,1,1.231.42911l.11266.07916-.11.08713a1.12893,1.12893,0,0,1-.49213.2427,2.29287,2.29287,0,0,1-1.08485-.03083,2.8604,2.8604,0,0,1-1.91483-1.42c-.06173-.15688-.102-.30174-.13951-.4291a1.10789,1.10789,0,0,0-.40226-.69192l-.05232-.03893.00941-.06035a1.77343,1.77343,0,0,0-.83405-1.77807l-.06845-.05094.03358-.07649a.98483.98483,0,0,1,.24-.32715c.03886-.04559.08314-.0885.12873-.14617.16491-.21057.34994-.4197.52159-.62223a6.03959,6.03959,0,0,0,1.30612-1.96983,12.46536,12.46536,0,0,0,.27758-1.60108c.21318-1.51394.358-2.44857.60473-2.59474a1.49884,1.49884,0,0,1,.67853-.01346,4.7221,4.7221,0,0,0,1.79956-.2199.96018.96018,0,0,0,.20384-.14885.85818.85818,0,0,1,.3299-.2105.88146.88146,0,0,1,.60473.14617,1.31554,1.31554,0,0,0,.27758.10992c1.062.20116,2.49951.06708,3.07479-.58331a.72023.72023,0,0,0,.1542-.81125c-.1448-.22526-.73614-.3165-1.12906-.37548-.08046-.01339-.15825-.02279-.22526-.03488a5.10748,5.10748,0,0,1-1.2766-.4532,3.956,3.956,0,0,0-2.32115-.48279c-.24545.02821-.5163.08183-.80459.13683-.30037.0576-.6155.11795-.9132.15152-.28163.03619-.54445.05761-.79923.08445a4.35677,4.35677,0,0,0-2.79721.86356,5.99847,5.99847,0,0,0-.7.82066,5.19082,5.19082,0,0,1-.89439.99772,9.667,9.667,0,0,1-.96552.61145,6.2074,6.2074,0,0,0-1.13043.74156,5.36411,5.36411,0,0,0-.657.90511,3.47442,3.47442,0,0,1-.61955.822,1.23591,1.23591,0,0,1-.43577.1207,1.27713,1.27713,0,0,0-.26954.05094,2.825,2.825,0,0,0-.35269.14617,1.74149,1.74149,0,0,1-1.25107.181c-.08987-.01469-.17164-.02677-.24812-.0335a9.92849,9.92849,0,0,0-2.07172.1301c-.09392.01339-.48142.02548-.83809.03488A14.62562,14.62562,0,0,0,103.042,90.328a13.42457,13.42457,0,0,0,2.24074,7.43827c.49481-.04428,1.0164-.07648,1.24839-.11939.38887-.07237.7912-.13944,1.16531-.22657.13807-.03357.28156-.08314.43981-.13278a2.85091,2.85091,0,0,1,1.48443-.19176,9.6069,9.6069,0,0,1,1.43616.46934,8.8447,8.8447,0,0,0,1.699.535,4.66584,4.66584,0,0,0,2.07584-.21991,6.38669,6.38669,0,0,1,.90379-.20116c.44249-.06166.86357-.08713,1.227-.10724,1.13578-.06173,1.89341-.10059,2.48612-1.109l.03351-.05767.06838.00941c.13814.01881.27353.04826.42238.08046a2.42017,2.42017,0,0,0,1.12377.07642,1.86908,1.86908,0,0,0,.9695-.8488.899.899,0,0,0,.1126-.85416C121.89039,94.3696,120.73318,94.33074,119.79718,94.29854Z" fill="#d9d9d9"/><polygon points="117.444 84.665 117.438 84.662 117.432 84.662 117.444 84.665" fill="#d9d9d9"/><path d="M122.38787,84.86765a1.70519,1.70519,0,0,0-.59937.16354,2.23056,2.23056,0,0,1-.48945.15963,10.81807,10.81807,0,0,1-1.14787.09385c-.33388.01607-.64229.02815-.928.067l-.08314.00941a6.44435,6.44435,0,0,0-1.79551.39958.94274.94274,0,0,0-.49481.63967.832.832,0,0,0,.173.72412c.19039.2333.3218.25342.6611.31514.063.012.14075.02279.22121.04154a3.88591,3.88591,0,0,1,.40233.10325,4.14344,4.14344,0,0,0,.68924.15153,9.58834,9.58834,0,0,0,2.90315-.23872c.28561-.05492.55647-.10724.82333-.14885a2.35772,2.35772,0,0,1,.30168-.02677.94706.94706,0,0,0,.43989-.0872,1.01,1.01,0,0,0,.46933-.72007,1.5112,1.5112,0,0,0-.33257-1.16531A1.35773,1.35773,0,0,0,122.38787,84.86765Z" fill="#d9d9d9"/><path d="M124.38455,88.91462c-.17164-.62491-.81262-.90648-1.75933-.77912a1.66662,1.66662,0,0,0-.362.10862,1.80757,1.80757,0,0,1-.34864.11664,13.17533,13.17533,0,0,1-3.36582.06578c-.10724-.00941-.22259-.02685-.3312-.04023-.68252-.0966-1.32617-.181-1.74725.26549-.27359.291-.36209.5404-.27359.76566.1542.39958,1.04063,1.11437,5.22168,1.42813l.17034.01339a4.64488,4.64488,0,0,0,1.75795-.07106A1.70543,1.70543,0,0,0,124.38455,88.91462Z" fill="#d9d9d9"/><path d="M122.12368,91.59916l.055-.01606c-.03619-.00268-.2977,0-.50552.0094-.37411.00666-.64634.01744-.7268.00666-.37281-.03748-.75763-.07106-1.17067-.10724-.70668-.05362-1.44282-.11266-2.16564-.2186a2.52824,2.52824,0,0,1-.43308-.11129,2.0469,2.0469,0,0,0-.93064-.1126.883.883,0,0,0-.71074.70263.9135.9135,0,0,0,.30175.98557,11.36077,11.36077,0,0,0,3.93437.98694,3.812,3.812,0,0,0,.6611-.012,2.55051,2.55051,0,0,1,.77369.012,1.64115,1.64115,0,0,1,.37013.14219,1.15723,1.15723,0,0,0,.78982.15015,1.5808,1.5808,0,0,0,1.00164-.76834.934.934,0,0,0,.13683-.99634A1.5578,1.5578,0,0,0,122.12368,91.59916Z" fill="#d9d9d9"/><path d="M100.39287,102.36937h32.29534a3.52833,3.52833,0,0,1,3.52833,3.52833v7.118a3.52672,3.52672,0,0,1-3.52672,3.52672h-32.297a3.52672,3.52672,0,0,1-3.52672-3.52672v-7.11958A3.52672,3.52672,0,0,1,100.39287,102.36937Z" fill="#d9d9d9" stroke="#595959" stroke-miterlimit="10"/><path d="M114.76556,105.5127H120.082v1.39843h-3.65381v1.7461h3.16651v1.293h-3.16651v3.123h-1.6626Z" fill="#252525"/><path d="M62.812,228.71614a13.49868,13.49868,0,1,1-13.5-13.5A13.50281,13.50281,0,0,1,62.812,228.71614Z" fill="#686166"/><path d="M42.99721,222.17209l-.00266-.00463C42.99653,222.18475,42.99721,222.1827,42.99721,222.17209Z" fill="#d9d9d9"/><polygon points="42.371 237.456 42.377 237.457 42.378 237.449 42.371 237.456" fill="#d9d9d9"/><path d="M45.96319,223.02992c.00538.00129.00933.006.014.008h.00061Z" fill="#d9d9d9"/><path d="M56.28588,223.04053s.07709-.13023-.06375-.105a16.08767,16.08767,0,0,1-2.07571.18336c-.06117.28569-.19139.45579-.24188.7176a1.46293,1.46293,0,0,0,0,.3721.80247.80247,0,0,0,.72822.186A2.56246,2.56246,0,0,0,56.28588,223.04053Z" fill="#d9d9d9"/><path d="M52.33116,226.392c.11825.09567.35081.1701.40136.34285a1.03148,1.03148,0,0,1,.01857.25514c1.02057-.101,2.22451.03457,3.21855-.10369a5.08361,5.08361,0,0,0,.80264-.13288,5.647,5.647,0,0,0,1.2996-2.11558c-.03191-.18336-.27242-.41061-.38006-.5262a2.62331,2.62331,0,0,1-.49831-.59534c.04055-.1256.07042-.2465.11294-.40659.35618-1.33022.08505-2.83318-1.22523-2.71493a1.38273,1.38273,0,0,0-.87966.38938c-.06382.06375-.117.206-.1914.25378-.09566.06246-.21922.04124-.3242.09036a2.09827,2.09827,0,0,0-.65119.80666,2.02923,2.02923,0,0,0-.28433.78135c-.01334.07178-.06913.1754-.09437.25385a.97188.97188,0,0,1,.62853.02259,13.17178,13.17178,0,0,1,.804-1.40594c.44245.081,1.09229-.67113,1.41656,0a3.04631,3.04631,0,0,1-.0213,1.33947c-.04715.65248.28107.46116.495.47708a5.87065,5.87065,0,0,1-.85783,1.099,2.58538,2.58538,0,0,1-1.49364.804c-1.24381.15547-1.64782-1.15345-1.24381-2.32153-.19935.02388-.30032-.10634-.53553-.07178-.87571.13022-.88238.35611-1.33953.94219-.194.24977-.37074.50362-.5754.73747A3.86609,3.86609,0,0,0,52.33116,226.392Z" fill="#d9d9d9"/><path d="M60.83063,228.02249c-.26978-.46116-1.55474-2.89033-2.02788-2.784-.24181.05314-.37469.52485-.501.73618a6.83535,6.83535,0,0,0-.64718,1.19863c-.04783.388.2578.52892.36149.7561a2.52935,2.52935,0,0,1,.2299.55683c.03055.16479-.0332.2844,0,.41061a10.22267,10.22267,0,0,0,1.01656,1.68367c.09968.19139.09036.38142.226.52893.2631-.44123.61921-.79469.88368-1.24122.19928-.35346.38135-.74815.55281-1.10562.04252-.093.05184-.2644.11559-.3242C61.08176,228.39588,60.84791,228.05569,60.83063,228.02249Z" fill="#d9d9d9"/><path d="M51.09137,226.59661c-.29372-.4864-.51961-1.0073-1.23054-1.0339-.1688.34753-.66977,1.04316-1.083,1.74082-.01334-.01395-.03191-.03783-.04389-.04919.00531-.03851-.03055-.07042-.04116-.09961.004.01994-.01864.03184-.028.01994-.05314-.07444-.01456.008-.08369-.06117a2.385,2.385,0,0,1-.34815-.51158c-.06913-.016-.07974-.08906-.13159-.113l.00932-.00265c-.04388-.03321-.19669-.30563-.24718-.34816l.00265.01334c-.02653-.01334-.02918-.02592-.02857-.04055a.04772.04772,0,0,1,.00068-.0166l-.002.002a.07207.07207,0,0,0-.002-.04055.05058.05058,0,0,1-.03585.01266l.004-.018H47.801l.01728-.01326a2.24587,2.24587,0,0,0-.15948-.45314c.00932-.00932.01334-.00265.01334-.00265a.52557.52557,0,0,0-.07444-.10635c.00667-.01993.0279-.02789.03722-.03585-.02395.01463-.13818-.2033-.13022-.21133l-.05852.02926c-.01993-.04117.05981-.04654.02661-.07838-.08771.02123-.02661-.06648-.07178-.05715a.03786.03786,0,0,1,.02129-.03321c-.04654.01327-.01864-.01728-.03456-.02395-.01463.00531-.01062.01062-.02395.01994l-.02919-.02259c.01061-.01327.03184-.02926.04382-.0213a2.46532,2.46532,0,0,0-.21262-.50627c-.02654.02259.00667.03586-.03722.07308-.04116-.00531-.0066-.03457-.04252-.02919.07314-.04525-.004-.0545.06776-.10764l-.04783.01456.0213-.02123c-.09172-.06912-.03055-.012-.06648-.09566-.02524-.03987-.09566-.03191-.089-.06913,0,0-.01728.02525-.03456.02123.03456-.02123-.04123-.01857-.00667-.04252-.012-.01191-.02654-.04783-.07042-.01062.0213-.01993.01728-.05844.04919-.05177-.00667-.012-.00531-.02661-.01728-.028l-.00932.0213c-.0266-.03586.004-.07573-.05314-.07709l-.01728.02661c-.012-.02259-.02524-.03593.01728-.07315l.0332.016a.16311.16311,0,0,0-.07974-.07844l.00136.01333c-.07042-.016-.22323-.2033-.30032-.20867l-.03191.03592-.05048-.01068a1.21261,1.21261,0,0,1,.12621-.04382.81944.81944,0,0,1-.11158-.24317c.01061-.03987.06375-.03456.06375-.03456-.02524-.02926-.04518.004-.0545-.02395l.03722-.01327c-.008-.01061.00265-.02925-.01858-.01728-.00932.0213-.05586.03858-.08641.05981l-.01258-.03252.00333-.004.02654-.01265-.01858.00333c.004-.0066.01062-.00864.01327-.0166a.14.14,0,0,1-.08369-.00333l-.00667-.00334a.31961.31961,0,0,1-.01592-.05048.51586.51586,0,0,1-.01728-.06246.17315.17315,0,0,0-.03191-.06511.06638.06638,0,0,1,.0279.00136l.008-.02259c-.02654.02653-.03055-.016-.03987.00394l-.00926-.00394s-.00666-.00531-.004-.01068l-.00265.008-.008-.00265c.0053-.00265-.02259-.0266-.016-.03191-.01191-.01327-.03321-.04783-.0345-.0266,0,0-.01864-.04253.00129-.0279a.1092.1092,0,0,1-.01592-.02123l-.00136.00926c-.02653-.02919-.03456-.05314-.06375-.06512l.0066.01463c-.01463-.01728-.03586-.02524-.03456-.04252l.028.01061a.30889.30889,0,0,0-.07906-.04381l-.016-.004a.58738.58738,0,0,1-.04055-.0611c.00932-.09436-.64711.05981-.73216-.04517l-.06511-.07444-.24984.03919a.66788.66788,0,0,1-.01993-.27705c-.04518-.01728-.01864-.05579-.05314-.07443l.01456.00136a.48115.48115,0,0,1-.02055-.14887,1.38224,1.38224,0,0,0,.35013-.24051,2.11515,2.11515,0,0,0,.44388-.61c.04783-.06375.05314.01463.05844.01729.024-.10233-.01857-.05716.01327-.13819.01334-.01994.02395.01327.02259.02926.00932-.03858.03062-.06648.01728-.0758-.02789.04253-.05715.004-.09035.00932a.7078.7078,0,0,0,.03456-.10233l.02395.01592a1.21456,1.21456,0,0,1,.00531-.30032,1.2024,1.2024,0,0,0-.00266-.44646c.01327,0,.02919.03851.04253.07974,0-.0279-.012-.06648,0-.08906-.0213.04783-.02926-.07838-.03457-.04253a4.50787,4.50787,0,0,0-.31631-.3721,1.57336,1.57336,0,0,0-.27242.05185A.78024.78024,0,0,0,45.033,220.02c.19664-.11825.38136-.24983.37075-.42789l.02258-.0119-.03721-.05185c-.03457-.07178-.081-.07709-.05981-.08906l.06511.08375c-.03987-.06647.00266-.03327.0279-.01864a.41468.41468,0,0,1-.04116-.07974c-.01865-.008-.00136.01463,0,.03062a.5208.5208,0,0,1-.109-.10233c-.0545-.05981.02524-.03456-.03586-.10764a1.75607,1.75607,0,0,0-1.25047-.63391c-.01061-.012.00129-.01061.01728-.01592a1.573,1.573,0,0,0-.396.04647.14974.14974,0,0,1-.06117-.02919c.01062.0066-.16343.04912-.32821.13553a2.00741,2.00741,0,0,0-.31359.18738l.01456.05579c-.10764.08376-.06641-.02524-.15547.07042.00265.0877-.15281.15819-.15812.21929,0,0-.04518.04518-.05715.02789.01864.04253-.0332.06382-.05049.10233-.00136.01729.01593-.00129.03321-.004-.01592.028-.02259.0545-.04253.08777-.02259.02259-.04647.02123-.03191-.01864a2.02791,2.02791,0,0,0-.291.81727,2.1568,2.1568,0,0,0,.08907.9209c.01728-.03987-.0279-.12091.012-.16343.03586.0664.01721.10764.05048.13022-.05184.05049.03457.16207,0,.23916l.04253.008-.00667.04524c.18336.279.15948.004.30434.2644.101.13825.198.13955.2418.22194-.00394-.01327-.01592-.05579.0213-.02925-.01864.02925.04783.0532.04116.09436a.33038.33038,0,0,1,.03593.14683c.00728.03722.08171.11029.02259.08308.02918.02524.05715.05715.08368.06109l-.03721-.04116c.109.07838.16084.14615.24983.15016l-.03055-.04388c.06246.04252.12091.06511.1369.11831l-.08111-.02129a.84605.84605,0,0,0,.21793.07042.06539.06539,0,0,0,.01068.02524.11046.11046,0,0,1-.03858.01728c.02259-.0066.04784.11961.04124.12363l.04647-.00667c.00265.02524-.05178.01463-.03722.03722.07049-.004-.00265.03585.03722.03585-.0066.00266-.0066.01334-.02654.016.03722-.004.01061.01191.01858.01592.01061.00136.012-.00265.02394-.008l.01858.01327a.3223.3223,0,0,1-.03722.016.71232.71232,0,0,0,.01864.279c.02654-.00666.00266-.01728.04647-.02925.0279.00537-.00394.016.01994.01728-.04314.01-.04116.01993-.0498.03123a2.38673,2.38673,0,0,0-.52825.21731l-.05185.008.00932.02926c-.02524.04252.03858.04783-.01462.05579l.004-.05185c-.01463.04124-.04123.01729-.07573.01062a.06961.06961,0,0,1-.028.04919c.02266.004.024-.008.03858-.01728.01993.01728.07042.03191.04783.06246-.00136.03858-.08641.01993-.0877.06912l-.002.01661-.02061.00993-.04654-.03586a.07351.07351,0,0,1,.01864-.02259c-.01333-.01061-.03721.004-.03592.02525l.03721.03055c-.0119.03857-.03054-.01191-.04647.01864-.03456-.02395-.01864-.05586-.0053-.07845-.0213.01728-.05715.01994-.03062.05055-.02789.01062-.03722-.03191-.06511-.01993-.00395.02259.00932.06375-.02388.06776l-.008-.00666c-.04518.01462-.028.05844-.03722.09436-.01864.01729-.01463-.00666-.03191.01729h-.00531v-.00667c-.0266,0-.02925.04783-.06511.0545l.01994.00394a.08945.08945,0,0,1-.016.03593c-.01592.01592-.02389.03585-.05314.03851l.01061.04388c-.08634.093-.18336.26311-.26045.36673l.00136-.008a6.65959,6.65959,0,0,0-.45844.65915c-.04524.00265-.06647.03715-.09437.05443.02123-.00394.04117.01864.02524.03062-.06245.07436.01994.02388-.03054.10893a2.28613,2.28613,0,0,1-.45185.485c.008.07573-.07042.10369-.07572.16608l-.008-.0119c-.01994.05715-.26712.28038-.29638.34413l.012-.00129c-.00531.06641-.05049.02259-.093.04253a.11972.11972,0,0,1,.03722.11825l-.012-.01327a.66614.66614,0,0,1-.03456.15941l-.02259-.02388c.004.05579-.05579.10362-.07443.12757-.05314.03987-.15949.07974-.18207.17676l-.11424-.01993.00531.01456s.03851.03327.10233.08375l-.008.01593-.00538-.008a.60612.60612,0,0,0-.02388.12893l-.012.01456a.51907.51907,0,0,0,.00137.12492.60637.60637,0,0,0,.02653.12491l.01463.00266c.01728.04252-.01592.01728.00667.0598.02789.008.0332.06185.04912.07444a1.34314,1.34314,0,0,0-.02259.30433c-.01061.004-.01191-.00136-.01191-.00136.00926.03593.0066.06913.01858.10369a.05909.05909,0,0,1-.03987.02259c.02395-.00531.03585.20194.02925.20194l.05185-.0013c0,.03722-.05851.01729-.04252.05185.069.008-.004.0611.03184.07307a.03456.03456,0,0,1-.0279.01728c.03586.00266.00932.01593.01994.02654l.02129-.008.01327.0266-.02926.01327a1.52639,1.52639,0,0,0-.01326.45449c.02122-.00932.00265-.03191.04783-.04517.02789.01857-.00667.0332.01728.03721-.06246.01191-.00932.04253-.07838.06246h.03715l-.02259.01722c.04654.07708.01993.01333.01463.09042.00932.04252.06116.05844.04518.08239,0,0,.01864-.012.02925-.00136-.02925.00136.02395.02661-.00932.03457.00531.00932.00265.04912.04783.03055-.02259.0053-.02919.03987-.04912.01857-.00136.01463-.00531.0266.00129.03722l.016-.01592c.00395.0332-.02524.05579.01463.07443l.01592-.01463c.00394.02259.00932.03987-.03722.05049l-.01327-.01994a.14615.14615,0,0,0,.03457.0877v-.01061c.04783.03191.089.22854.14744.25915l.03327-.01993.03055.02653-.10363-.008a2.96949,2.96949,0,0,1,.03185.45981c-.01729.02653-.0558.0066-.06376.01061.01463.02524.03851.00531.03722.03055-.004.00932-.02789,0-.02789,0-.00137.012-.008.02395.00394.01993.01327-.01592.0545-.01326.08376-.02122l-.00266.03184-.0266.00272s.07573.00925.05981.04518a1.16281,1.16281,0,0,0,0,.16744.051.051,0,0,1-.03593-.0213s.00272.01858-.00925.01994c.02789-.012.02259.02259.02259.02259.07974.02129.01993.081.0664.11294l.099-.00265c-.06443.15349-.17071.4153-.20262.52627l-.04518.01191c.01592.03327-.01326.0532-.004.09573-.01062.01592-.0332.00265-.03586-.008.008.03722-.03191.06117-.01592.0877l.01327-.00129c.01592.0611-.0824.0598-.06647.12621h.00666c.01327.03191-.03191.04388-.04783.05851.00266.03457.04117.01994.04913.04647-.04253-.00394.1954.17275.19139.19534.012-.02388.03055-.05048.06375-.0345-.01456.02919.30039.11955.27378.15146l.09968-.0066c-.01728.008-.01993.04116,0,.04783-.00667-.004-.00136-.01994.00129-.03593l.62459.09839c.06512-.02926.024-.12227.11431-.14486.01061.01729.01592-.03191.03851-.004-.00531-.01327.00136-.02388.00265-.03851-.01728.01327-.02789.02259-.04919.01858a1.97422,1.97422,0,0,0,.07049-.21793c-.00136-.04783.089-.04116.089-.04116l-.03191-.00933.012-.04388c.02789.0213.07974.03191.08906.05185.01857.004.008-.012.008-.02525l-.0279-.004c.00667-.0332.09968-.10764.12621-.1422,0,0-.04912.01068-.06375-.02654.00334-.07838-.27841-.58336-.319-.75549l.02259-.00061c.00136.01061.00136.02388-.0066.02653a.02671.02671,0,0,0,.01327-.04116l-.03191.00462-.0013-.00394c-.002-.012.01926-.00735.01728-.02729.03055-.008.0345.01593.03851.03858.004-.01993.02259-.03858-.008-.04654.01062-.01462.03586-.00265.04919-.024-.01068-.01326-.04123-.02918-.02265-.04517l.00272-.00266c.03184-.04252-.04919-.05715-.016-.101l.00932.00394c.01592-.01456-.00667-.0398.01062-.06375,0,0-.03055.01463-.03191,0,.01864-.0279-.00395-.04389.02129-.06647l-.03456-.01858c.00136-.09437-.05845-.47443-.06913-.56873l.008.00265a4.48255,4.48255,0,0,0-.08239-.59669c.02789-.0266.02122-.05981.02524-.08505-.012.01864-.0332.01327-.03191.00136.004-.07443-.01994-.00136-.0332-.07709a1.41669,1.41669,0,0,1,.0053-.50232c-.04919-.03722-.01864-.09036-.04252-.13159l.00531.00266c-.01593-.03851.01326-.29366-.00531-.33747l-.004.00265c-.02918-.03987.01729-.03987.03062-.07443a.078.078,0,0,1-.08375-.04123l.00932.00136a.247.247,0,0,0-.02926-.04981,2.22531,2.22531,0,0,0,.35081-.33822c.016.008.01068.01062.01333.01858.01994-.05048.05314-.085.07573-.13288a.29939.29939,0,0,1,.05184.01728c-.02925-.012.1435-.22725.15282-.22459l-.04389-.04116c.02926-.04124.06382.03456.07974-.01062-.05313-.07178.06117-.05715.03722-.09967a.03634.03634,0,0,1,.03987.0066c-.03191-.03586.00667-.02525.00531-.04382-.004-.01334-.00932-.00667-.02524-.01463l.00932-.03851c.01993.00265.04381.01858.03851.0345a3.36346,3.36346,0,0,0,.42122-.44783c-.03586-.01463-.03715.02129-.0877-.00265-.008-.04117.03062-.02259.01333-.05178.07308.04381.05049-.03593.13152.008l-.03055-.03593.02926.00667c.01463-.05912.01463-.06647.01925-.06844a.61687.61687,0,0,0,.01531.10035c.05579-.0332.01592-.06246.101-.093.05314.02389-.01327.05049.04253.0558-.13288.04116-.02525.081-.15547.13423l.07443-.00666-.04524.02925c.08906.13554.03987.02654.03592.16078.01858.07974.12492.09035.089.1422,0,0,.04653-.03191.06783-.016-.06783.016.05048.03987-.012.06511.008.01728.008.08376.09165.03987-.04252.02259-.05579.0824-.09961.05586-.00136.02123-.00932.04382.01062.05178l.02259-.03055c.01728.06116-.05049.11029.03721.13689l.03457-.03191c.00925.03456.01857.07042-.06913.10369l-.03456-.03722a.20349.20349,0,0,0,.07178.1435v-.01728c.09566.04919.20466.388.31624.42394l.06776-.03722.06117.04117c0-.00932-.22459.01993-.20064.00932a4.43231,4.43231,0,0,1,.08634.81326.11507.11507,0,0,1-.11029.03191c.01857.04647.06647.008.06246.0545-.012.01592-.05716.00925-.05716.00925s-.02388.03456.01327.02926c.0213-.02661.10764-.03457.16214-.05845l-.0013.05845-.05586.01061c0,.01062.15153.00265.12758.06117a.41553.41553,0,0,0,.002.06375l-.18541-.008c.00266-.01592.008-.03191.01728-.03586a.03589.03589,0,0,0-.02925.05178l.0598.008c.01865.03715-.03585.0066-.0332.04518-.04919,0-.05579-.03722-.06117-.06913-.008.03055-.04252.0545.00933.06913-.02259.02388-.0611-.00538-.08369.02388.01463.024.05579.05851.02919.08239l-.01191-.00129c-.05184.05844.07171.10362.01858.15941l-.01729-.01061c-.03055.01864.00266.06246-.02789.101.008-.01191.04654-.01994.05048.004-.0332.04389-.00265.07573-.04518.101l.04654.03327c-.016.14751.02388.58737.02259.73617l-.008-.00666a7.22784,7.22784,0,0,0,.081.94886c-.05184.03184-.04252.08239-.05844.11954.02123-.02123.05048-.008.04912.00667-.00925.117.03055.00932.04919.12757a2.351,2.351,0,0,1-.101.776c.0664.06913.00925.14622.04912.21133l-.01728-.008c.02395.07307-.07042.45443-.04518.53417l.008-.01062c.03987.07042-.03715.05845-.06246.11029a.11855.11855,0,0,1,.12227.08376l-.01858-.00136a.87074.87074,0,0,1,.08369.17275l-.04518-.00531c.00932.00993.00667.024.01068.03585-.01932.008-.04123.01933-.03456.03191l.05048.02062-.00068.02062c-.01258-.00068-.02789-.004-.03252.01857-.0532-.01592-.05055-.05314-.0479-.085-.01326.02661-.05708.03851-.0053.06913-.0279.01857-.06246-.02395-.0943.00129.00925.02524.05048.06777.0119.0824l-.00925-.00531c-.06913.04252.06906.02259,0,.0598l-.01334-.01326c-.03585.00925-.008.06239-.05177.08368.01462-.004.05443-.00136.05313.01994-.04388.02926-.02395.06777-.07042.08369l.04117.03987c-.05715.13954-.16479.69637-.2033.83455l-.00667-.0053c-.04252.21792-.35611.61921-.35876.85843-.05852.01592-.06246.06512-.0877.09567.02388-.01191.05715.00932.05048.02129-.03851.10362.03191.01592.01728.13288a1.491,1.491,0,0,1-.23521.59c.05185.07708-.02524.13417.0013.21l-.01592-.01333c.0053.06912-.17541.40135-.17541.47973l.01592-.00394c.02525.07436-.05177.04116-.09035.085a.13288.13288,0,0,1,.10634.11029l-.016-.008c.00266.03585-.18472.10491-.18867.16342l-.04517-.01864c.03191.05586-.01463.13159-.01865.1635-.04252.06375.03858.22058.06648.33488l-.14486.01857.01062.01463s.20268.0824.46708.18l-.196-.03184c-.03123.18-.17547.81659-.18608.984l-.05178.02653c.03449.04123-.00136.07178.02259.12227-.008.02524-.04389.01061-.04919-.004.02524.04654-.01865.08641.00394.11567l.016-.008c.04518.07709-.08641.09573-.04123.17411h.00537c.0279.0332-.0266.0598-.04252.08239.01592.04117.05709.01327.077.04518-.05443.008-.02524.04123-.02259.07974.012-.03722.0266-.07573.07178-.06913-.00932.04654.05049.01729.0266.05852l-.06116-.00531c-.01592.01721-.008.0611.008.06246l.00265-.04253,1.72491.10893c.07838-.05048,1.4684.04253,1.58134-.01326.016.02122.00667-.04389.05184-.01334-.02129-.01191-.01061-.03184-.00932-.04252-.01728.016-.03721.03592-.0598.03456.00265-.09832-.19-.33488-.198-.43184-.01728-.05715.10233-.06116.101-.07443l-.04253-.004-.79332-.25181c.02524.002.01333-.01728.02129-.03653-.01326.00667-.04517.01728-.05314.00265-.00136-.04654.0345-.00932.05049-.0598,0,0-.05981.0266-.0877-.01593-.01395-.08239-.3887-.31032-.57676-.46912.00469-.00531.00667-.01327.016-.01463-.01334-.0119-.016-.00129-.028-.00265-.0119-.01728-.04116-.05443-.01728-.06641.01068-.0266.06913.02123.085-.012.097-.17676.02531-.41857.07443-.60731.01865.00136.01728.00531.01728.00531a1.58912,1.58912,0,0,0,.03055-.16207.39112.39112,0,0,1,.06913,0c-.03851-.00272.05579-.299.06777-.30039l-.07974-.02789c.016-.05716.093.00932.09437-.04117-.105-.06116.03987-.085-.01327-.12226a.05153.05153,0,0,1,.05177-.01061c-.05715-.02525-.00394-.03055-.0119-.04784-.01463-.01333-.0213-.00265-.03987-.00265l-.008-.04123c.0213-.01327.06117-.004.0598.01463a3.01769,3.01769,0,0,0,.26583-.64051c-.05185,0-.03191.04252-.105.02925-.02926-.03857.02919-.03456-.008-.06382.109.02661.04252-.04919.15553-.03055l-.05851-.02789.04123-.00266c-.02129-.13825-.01864-.03721.02919-.13954.012-.06246-.0611-.12227-.01857-.14084,0,0-.04518.00265-.0558-.01864.0558.01864-.02394-.0545.03185-.04518.00136-.01857.02395-.06647-.05716-.07307.03858.00394.06913-.03321.09172.00129.00932-.01463.0266-.02524.01061-.04116l-.02388.01061c.004-.0545.16214-.13288.10893-.186l.05321.15942c.008-.03321-.07845-.21262-.00531-.19663l.01456.03851a.20212.20212,0,0,0-.004-.13955l-.008.01463c-.0532-.07838.06906-.2312-.00537-.31094l-.0611.008-.0332-.05844a1.143,1.143,0,0,1,.15145.07573,4.51484,4.51484,0,0,1,.19071-.61595c.00334.00068.01062-.00062.00463.00469.01333-.00667.03191-.008.03722-.01993l-.02259.0053c.018-.01.022-.018.03592-.02456a.18435.18435,0,0,1,.05314.02055.0467.0467,0,0,0-.0213-.04314c.00531-.004.016-.00735.01994-.01333a.23606.23606,0,0,0,.02395.01129c-.00531-.01395.002-.01993-.00531-.02721.01327-.00933.02592-.02327.04116-.02062l-.02388.0279a.27705.27705,0,0,0,.0877-.09832l-.01333.01463a.94637.94637,0,0,0,.0877-.18071.35992.35992,0,0,0,.02259-.18738l-.01722.01994a.16278.16278,0,0,0-.01068-.04389l.04518.03191c0-.01061.00136-.02789.00265-.04783l.01334.0013-.00136-.02919c.02395-.03062-.02388-.0479.01993-.04525l-.00932.04525c.01334-.03062.03457-.00538.05851.01061a.06981.06981,0,0,1,.02259-.03858c-.01326-.008-.01592.00136-.0266.00667-.01327-.01592-.05314-.04518-.03055-.06375.00667-.03456.07042,0,.07974-.03987a3.24462,3.24462,0,0,0,.10764-.60336c.02259-.00266.01857.004.01857.004-.008-.0545.00266-.11294-.01061-.16873a.30362.30362,0,0,1,.06647-.024c-.03858.01061-.02259-.3123-.01068-.31359l-.07967-.012c.00265-.06116.089-.012.07436-.07178-.10627-.02789.01865-.089-.04116-.11559a.05609.05609,0,0,1,.05185-.024c-.06246-.01062-.012-.02919-.02661-.04518-.01857-.008-.01857.00136-.03851.00531l-.01728-.03987c.01858-.01062.05579-.01327.0611-.0013a3.9552,3.9552,0,0,0,.07443-.402c.07573.09567.1654.24181.24188.26113l.05178-.03721.05851.03055a.99568.99568,0,0,1-.17411.01728,3.65363,3.65363,0,0,1,.1754.68038c-.02388.04116-.09035.02926-.09035.02926.02259.04116.05579.00394.05844.04381-.008.01062-.04647.01062-.05579.00531.01327.01463-.00531.03327.02395.03055.01592-.0279.09035-.0398.13288-.05708l.00531.04912-.04654.00932c.004.00932.13158-.008.121.04518a1.91158,1.91158,0,0,0,.04252.24453.092.092,0,0,1-.07048-.01865c.004.01334.01462.02661-.00266.04253.04389-.03184.03987.02129.05586.004.12492.02524.04116.12887.13288.16078l.07307-.02525a.12018.12018,0,0,1,.00932.03055c.01592.02525.00933.03191.00933.03191s.02721.04253.06239.0877c-.01524.20466-.00592.65052-.01191.776l-.00667-.008c.00136.22323-.21663.683-.17009.91429-.05314.02919-.0492.07975-.06376.11424.02123-.01857.05709-.008.05444.00667-.01858.1156.03327.012.04252.12628a1.44616,1.44616,0,0,1-.101.62853c.06777.06777.004.14084.04518.206l-.01728-.01062c.01993.06913-.08634.42789-.06777.50763l.01061-.01061c.03987.07042-.04116.05314-.07307.101a.14559.14559,0,0,1,.13159.085l-.0213-.00136c.01463.03721-.15547.14485-.15016.19806l-.04382-.008c.04382.05055.01191.1356.01592.16479-.0266.07443.08907.21.1369.31494l-.1369.04783.012.01069s.07573.01326.18738.03123a5.68106,5.68106,0,0,0-.09968.56539l-.05184.02661c.03191.04252,0,.07838.02258.12757-.00666.02919-.03987.01463-.05048.00129.02388.04389-.01994.09437.008.12227l.01463-.012c.04116.07709-.0877.10764-.04654.18472h.00667c.0266.03457-.0266.06777-.04783.093.01857.04123.06511.00932.07974.04253-.05586.00932-.02259.04388-.0213.07844.01068-.03592.02661-.07974.07444-.06912-.01062.04518.05048.012.02258.0598l-.05715-.00136c-.01993.01728-.012.05981.00667.05852a.4022.4022,0,0,0,0-.04253l2.44645.1156c.07573-.05715.61656.00136.72957-.06246.01722.01864.01062-.04647.05314-.01728-.016-.012-.00932-.0332-.00667-.05049a.08337.08337,0,0,1-.06375.04117c.00265-.09961.03184-.206.02654-.303-.01593-.06375.101-.08634.101-.08634H49.3319l.00136-.0598c-.13288-.07042-.01728.07974-.19534-.03586.02259.00265-.17812-.101-.1688-.12226-.00932.0053-.03987.01993-.05314.0053.004-.04654-.29766-.08641-.27106-.1422a1.87612,1.87612,0,0,1-.41462-.19268c-.016-.07239-.26978-.13819-.44586-.208l-.00333-.02457c.02524-.0266-.02525-.04783.01864-.04252l-.01068.04252c.01993-.0266.04252-.004.06647.01062a.05574.05574,0,0,1,.02395-.03191c-.01334-.01062-.01728.00136-.01728.00136-.02395-.01463-.06246-.04252-.03987-.05981.00394-.03191.07171.00531.081-.03055.0545-.19268-.06776-.41462-.05844-.61261.02122.00136.02122.00531.02122.00531a1.1239,1.1239,0,0,0-.00932-.16479.19236.19236,0,0,1,.06784-.01327c-.03722.00531-.00932-.30032.00265-.30964l-.0811-.01062c.00531-.05715.097-.00932.07974-.06382-.11165-.0332.01728-.0877-.03586-.11559a.04682.04682,0,0,1,.05178-.01592c-.0664-.01865-.01327-.03191-.02653-.04783-.01994-.008-.01994.00265-.04253.00394l-.01728-.03851c.02123-.01327.05845-.01327.06375.00531a2.84074,2.84074,0,0,0,.12492-.679c-.04912.0066-.01993.04381-.09831.04912-.03722-.03456.01993-.04252-.02389-.05844.1156-.00266.03321-.06117.15016-.07308l-.06245-.012.03987-.00932c-.05185-.13424-.028-.03457-.00273-.13955-.00265-.06776-.08634-.10763-.05048-.13818,0,0-.04116.01326-.05314-.004.05314.004-.03721-.04912.01728-.05048-.004-.01728.008-.07042-.06912-.05981.03857-.0066.05851-.05048.09035-.01728.00136-.01857.01728-.03184,0-.04116l-.02259.01326c-.008-.05313.133-.16342.06512-.206l.08906.1422c-.00136-.0332-.12227-.18608-.04654-.19268l.01993.03851a.18274.18274,0,0,0-.03184-.13553l-.00666.01462c-.07042-.06776.01857-.23786-.07042-.29766l-.05981.01728-.04388-.04783c-.00395.00394.18737.03987.16744.03987a3.478,3.478,0,0,1,.06116-.68038c.03586-.03722.09165.00129.09165.00129-.0066-.04518-.04783-.02259-.04116-.05981.01327-.01061.04518.00531.0545.012-.00667-.01728.01462-.0279-.01334-.03055-.02123.01592-.0943-.00265-.14213.00129l.01327-.04381.04517.0053c.0013-.00932-.12491-.03858-.09171-.085.0266-.07307.01864-.16213.03987-.23922.024.00266.03858.0213.0545.04253.0053-.01327-.00266-.02919.01857-.03586-.05314.01463-.03055-.03722-.05178-.02524a.09024.09024,0,0,1-.03054-.03525c.002-.00462.0066-.01061.0053-.01524l-.00735.01259-.00265-.00265c.018-.04586.03722-.07505.02994-.10832l-.016.01864c.00932-.03456.012-.06116.03191-.07307l.00265.03715a.5192.5192,0,0,0,.00136-.13553l-.004.01728a1.28278,1.28278,0,0,0-.03456-.15547c.0053-.01463.00666-.03055-.004-.03722l-.00932-.00129-.004-.008a.14828.14828,0,0,0-.01326-.03585.06708.06708,0,0,1,.06647.04783c.00129-.03055.03055-.06641-.028-.06246.01462-.02926.06116-.01592.07844-.05049-.01993-.01857-.07579-.03456-.05184-.06647l.008-.00394c.03858-.07444-.101-.06913-.0611-.14084l.01858.00129c.0266-.0279-.02654-.0545-.0013-.09832-.008.01062-.04388.03185-.05715.01327.02524-.05048-.01333-.07178.01728-.11165l-.05586-.01327c-.02524-.14614-.19132-.5262-.23119-.67106l.008.004a5.899,5.899,0,0,0-.303-.8664c.04252-.04783.01728-.093.02129-.13424-.01333.0266-.0545.03327-.05586.01728-.01857-.11559-.03456,0-.08368-.10893a2.07964,2.07964,0,0,1-.12628-.7508c-.089-.03858-.05178-.13424-.11424-.17941l.01721.00129c-.04116-.05845-.06239-.44116-.10491-.50893l-.00538.01062c-.06245-.05314.0213-.06512.02926-.12356a.12679.12679,0,0,1-.15281-.03592l.01728-.0013c-.01864-.02524-.10635-.08375-.13288-.13288l.04783-.01061a.11849.11849,0,0,1-.0545-.07511l.19-.03525a.06362.06362,0,0,1-.01592.0479c.03457-.012.05049-.05321.02654-.06647l-.07573.01061c-.0279-.03987.04252-.02259.0332-.06375a.0677.0677,0,0,1,.09172.05715c.00265-.03191.04783-.07314-.02524-.07314.02524-.03449.07708-.01456.101-.05708-.02122-.01994-.08239-.04389-.05048-.07845l.012-.008c.05715-.0824-.10635-.09036-.04784-.16744l.02259.00136c.03191-.03327-.01728-.06784.01592-.11832-.01061.01463-.05579.03456-.0664.01068.03449-.05851-.00932-.08375.03715-.12757l-.06375-.02395c-.00463-.14288-.099-.59935-.14819-.85647l.02327-.01258a.89846.89846,0,0,0,.05048.08232c-.0053.01069-.01061.00933-.01061.00933a1.3201,1.3201,0,0,0,.093.09967.08492.08492,0,0,1-.02389.04253c.01722-.02259.17275.18336.16874.18866l.04123-.02918c.03055.04116-.03456.05048.00531.07708.05844-.028.03585.06376.07307.05709a.02455.02455,0,0,1-.012.03062c.03456-.016.02395.01592.03721.02122.01463-.0053.01062-.012.01062-.012l.03456.00667a.05387.05387,0,0,1-.01728.03191,2.40371,2.40371,0,0,0,.31229.47572c.012-.0266-.01728-.03456.01062-.07443.03191.00265.01061.03456.03858.01993-.04518.05715.02258.05715-.01994.1156l.0332-.01858-.01463.024c.097.05845.03191.0066.081.08369.03987.04252.09171.03055.097.06382,0,0,.00531-.02531.02524-.01994-.02524.01994.03722.01327.01728.04253.012.008.03191.04783.05586.00265-.00932.02123.00926.0611-.02129.05314,0,0,.008.02388.02395.02926l-.00136-.02259c.02925.03184.02129.07307.07042.07042l.00136-.0213c.01993.01864.03585.03592.0066.06913l-.02525-.01334a.21171.21171,0,0,0,.08771.07178l-.008-.01327a1.03809,1.03809,0,0,1,.2186.13486.96431.96431,0,0,0-.0379.52158,8.74639,8.74639,0,0,0,.626.73753c.17669.22459.38271.46776.56471.71624-.0066.03123-.02054.06314.012.09171l.008-.00666c.02925.02129-.00129.05586-.00531.07708.0266.0279.04783-.008.06913.01069-.012.00728.014.0119.04919.01592.02259.03653.05579.0711.07573.10763.14614.25113.11961.64984.38938.76142a.48755.48755,0,0,0,.32556.02259,18.40174,18.40174,0,0,0,1.61591-3.75272C51.882,227.2557,51.31059,226.97,51.09137,226.59661ZM43.61112,232.841a.078.078,0,0,1,.0166-.02061.11.11,0,0,1,.00864.02857ZM45.0357,233.906l-.00266.00068.002-.00136Z" fill="#d9d9d9"/><path d="M57.11908,227.859c-.91158.03722-2.14212-.03456-3.08431-.02653-.33489.004-1.20924-.03987-1.43248.17806-.12492.12355-.11165.667-.16213.8717-.07974.28971-.26181.509-.35217.796-.22323.72957-.33883,1.4286-.59935,2.09034a1.14179,1.14179,0,0,0-.14614.47837.32572.32572,0,0,0,.28834.295c.2857.04653.52492-.0611.74815.101l4.28164-.03456a2.40912,2.40912,0,0,0,1.25578-.117c.3668-.10627.71359.09036.8598-.27372.32291-.79734-1.071-2.78534-1.32354-3.3355C57.30911,228.57659,57.24665,228.18061,57.11908,227.859Z" fill="#d9d9d9"/></g></g></svg>