<svg xmlns="http://www.w3.org/2000/svg" viewBox="0 0 250.46424 450.14309"><title>MAESTRO-Pe06-rapport-mouflage-22</title><g id="Calque_2" data-name="Calque 2"><g id="Calque_1-2" data-name="Calque 1"><g opacity="0.2"><line y1="26.01765" x2="191.84818" y2="26.01765" fill="#fff" stroke="#000" stroke-miterlimit="10" stroke-width="0.88432"/><line x1="99.74292" y1="322.6831" x2="88.45294" y2="379.96709" fill="#fff" stroke="#000" stroke-miterlimit="10" stroke-width="4.42162"/><line x1="143.82335" y1="327.83924" x2="105.97172" y2="381.09594" fill="#fff" stroke="#000" stroke-miterlimit="10" stroke-width="4.42162"/><line x1="95.71775" y1="26.01765" x2="95.71775" y2="78.82527" fill="#fff" stroke="#000" stroke-miterlimit="10" stroke-width="4.67678"/><line x1="148.24353" y1="75.0095" x2="148.24353" y2="26.01887" fill="#fff" stroke="#000" stroke-miterlimit="10" stroke-width="4.42162"/><line x1="121.09724" y1="279.28378" x2="120.90549" y2="280.02502" fill="#34b3d1" stroke="#000" stroke-linecap="round" stroke-width="0.88432"/><path d="M71.90024,393.02929h-.07478a4.13035,4.13035,0,0,1-4.05572-4.20176C67.81813,386.095,72.5979,115.42631,72.5979,96.587c0-15.44869,7.632-24.08974,22.68475-25.68388,5.02962-.54369,12.72229,1.61877,17.70176,6.76716,2.91379,3.01231,6.14517,8.33842,4.98915,16.60293-2.01818,14.42464-25.92317,198.57716-27.3915,211.77365-1.03372,9.28152,3.088,15.06686,12.24986,17.19414a12.77533,12.77533,0,0,0,10.33549-2.46159c3.65366-2.74135,5.82756-7.16657,6.12052-12.45924.72757-13.1085,4.41115-201.13552,3.88681-214.45693-.5261-13.38651,8.078-22.21056,22.45513-23.0305,6.8349-.3959,12.717,1.69267,16.56159,5.86452,4.53519,4.91789,6.1522,12.322,4.807,22.00645l-.8912,6.424c-17.99209,129.74782-28.19649,202.00825-29.51,208.96719-1.66627,8.83461.89824,14.60587,7.84047,17.64282a16.53034,16.53034,0,0,0,12.99942-.19883,14.206,14.206,0,0,0,7.71026-9.30616c4.06364-13.49032,39.8569-146.92964,40.21761-148.27568a4.12982,4.12982,0,0,1,7.97771,2.13959c-1.47625,5.502-36.18828,134.90853-40.288,148.5185a22.42642,22.42642,0,0,1-12.15221,14.42112,24.78778,24.78778,0,0,1-19.77449.26745c-10.53871-4.61-15.02991-14.10617-12.64575-26.7396.89824-4.763,6.73637-44.81526,29.44488-208.5713l.8912-6.4258c.97478-7.01877.04135-12.29913-2.69912-15.27274-2.74223-2.9736-6.96686-3.39237-10.01965-3.21642-6.93695.3959-15.11437,3.22522-14.67273,14.46159.527,13.38123-3.16364,202.08918-3.89208,215.23816-.43109,7.77009-3.77332,14.37713-9.41174,18.607a21.09349,21.09349,0,0,1-17.15982,3.90088c-13.12435-3.04751-20.07361-12.82346-18.58945-26.15367,1.47009-13.21408,25.40059-197.56543,27.41965-212.00238.56569-4.0434-.33167-7.22288-2.74486-9.71789a15.38237,15.38237,0,0,0-10.895-4.295c-7.94516.84106-15.29648,3.54018-15.29648,17.47039,0,18.91144-4.78153,289.65225-4.82992,292.3848A4.13,4.13,0,0,1,71.90024,393.02929Z" fill="#34b3d1" stroke="#000" stroke-linecap="round" stroke-width="1.15755"/><path d="M90.35925,305.67312a14.87455,14.87455,0,1,1,11.71862,17.47017A14.874,14.874,0,0,1,90.35925,305.67312Z" fill="#fff" stroke="#000" stroke-miterlimit="10" stroke-width="4.42162"/><path d="M138.4748,309.48034a14.87455,14.87455,0,1,1,3.5642,20.73233A14.874,14.874,0,0,1,138.4748,309.48034Z" fill="#fff" stroke="#000" stroke-miterlimit="10" stroke-width="4.42162"/><path d="M131.16317,91.43512a14.87484,14.87484,0,1,0,16.96755-12.43545A14.88008,14.88008,0,0,0,131.16317,91.43512Z" fill="#fff" stroke="#000" stroke-miterlimit="10" stroke-width="4.42162"/><path d="M80.84091,93.70209a14.87635,14.87635,0,1,1,14.87684,14.87444A14.87809,14.87809,0,0,1,80.84091,93.70209Z" fill="#fff" stroke="#000" stroke-miterlimit="10" stroke-width="4.42162"/><polygon points="215.728 238.345 220.435 219.111 210.812 216.753 233.718 201.249 233.718 201.249 246.861 225.58 237.251 223.226 232.54 242.458 215.728 238.345" fill="#fff" stroke="#fff" stroke-linecap="round" stroke-linejoin="round" stroke-width="7.20704"/><rect x="219.38703" y="237.44923" width="6.70179" height="17.31213" transform="translate(-69.14933 404.1617) rotate(-76.28875)" stroke-width="7.20704" stroke="#fff" stroke-linecap="round" stroke-linejoin="round" fill="#fff"/><rect x="219.2712" y="244.75705" width="3.35397" height="17.31192" transform="translate(-77.69815 407.83651) rotate(-76.25766)" stroke-width="7.20704" stroke="#fff" stroke-linecap="round" stroke-linejoin="round" fill="#fff"/><polygon points="215.728 238.345 220.435 219.111 210.812 216.753 233.718 201.249 233.718 201.249 246.861 225.58 237.251 223.226 232.54 242.458 215.728 238.345" fill="#252525"/><rect x="219.38703" y="237.44923" width="6.70179" height="17.31213" transform="translate(-69.14933 404.1617) rotate(-76.28875)" fill="#252525"/><rect x="219.2712" y="244.75705" width="3.35397" height="17.31192" transform="translate(-77.69815 407.83651) rotate(-76.25766)" fill="#252525"/><path d="M209.977,120.83594a24.33479,24.33479,0,0,0-24.06639,20.7879c.64263-.017,1.34081-.03872,1.51-.06284a17.88826,17.88826,0,0,1,3.73273-.23442c.13781.01213.28514.0339.44706.06037a4.2628,4.2628,0,0,0,1.10653.05567,4.3058,4.3058,0,0,0,1.14759-.38175,5.085,5.085,0,0,1,.63546-.26336,2.29993,2.29993,0,0,1,.48566-.09179,2.227,2.227,0,0,0,.78514-.21747,6.26016,6.26016,0,0,0,1.11629-1.4811,9.66542,9.66542,0,0,1,1.18384-1.63077,11.18341,11.18341,0,0,1,2.03677-1.33612,17.41851,17.41851,0,0,0,1.73963-1.10169,9.35258,9.35258,0,0,0,1.61148-1.79765A10.80811,10.80811,0,0,1,204.71,131.6623c1.30952-1.20561,2.8751-1.35294,5.0399-1.55594.45906-.04837.9326-.087,1.44-.15215.53637-.06049,1.10417-.16923,1.64537-.273.51943-.09908,1.00744-.19569,1.44967-.24654a7.12783,7.12783,0,0,1,4.18215.86988,9.20283,9.20283,0,0,0,2.30013.81657c.12074.02177.26089.03871.40587.06284.708.10626,1.77341.27066,2.03429.67653a1.29766,1.29766,0,0,1-.27783,1.46167c-1.03651,1.17184-3.62648,1.41343-5.54,1.051a2.37007,2.37007,0,0,1-.50014-.198,1.58828,1.58828,0,0,0-1.08957-.26336,1.54606,1.54606,0,0,0-.59439.37927,1.72982,1.72982,0,0,1-.36728.26819,8.50809,8.50809,0,0,1-3.24237.39622l.00965.00482-.02165-.00482h.012a2.7006,2.7006,0,0,0-1.22256.02425c-.44446.26336-.70548,1.94733-1.08957,4.6751a22.46242,22.46242,0,0,1-.50013,2.88475,10.88185,10.88185,0,0,1-2.35333,3.54916c-.30925.36492-.64263.74172-.93977,1.12112-.08214.10391-.16193.18122-.23194.26336a1.77446,1.77446,0,0,0-.43247.58944l-.06049.13781.12333.09179a3.19528,3.19528,0,0,1,1.50275,3.20365l-.017.10874.09426.07014a1.99612,1.99612,0,0,1,.72478,1.24668c.06766.22947.14015.49048.25136.77314a5.15384,5.15384,0,0,0,3.45007,2.55855,4.13134,4.13134,0,0,0,1.95463.05554,2.03385,2.03385,0,0,0,.88671-.43729l.19817-.157-.203-.14263a6.87147,6.87147,0,0,0-2.218-.77314c-1.6622-.3841-3.223-.74408-2.95972-2.43052a1.15507,1.15507,0,0,1,.30209-.76832c.4953-.44941,2.98136.116,4.17732.3914.34315.07249.63546.145.85046.18123a16.38046,16.38046,0,0,0,1.96192.145c1.68644.058,3.77146.128,4.29088,1.02685a1.61979,1.61979,0,0,1-.20287,1.539,3.36752,3.36752,0,0,1-1.74681,1.52934,4.36064,4.36064,0,0,1-2.02476-.13768c-.26819-.058-.51213-.11109-.761-.145l-.12321-.017-.06037.10391c-1.06793,1.81695-2.433,1.887-4.4794,1.99817-.65476.03625-1.41343.08214-2.2107.19323a11.50735,11.50735,0,0,0-1.62842.36245,8.4069,8.4069,0,0,1-3.74016.39622,15.93518,15.93518,0,0,1-3.06115-.964,17.31031,17.31031,0,0,0-2.58762-.84563,5.1367,5.1367,0,0,0-2.67458.3455c-.28513.08944-.54367.17875-.79244.23924-.67406.157-1.39895.27784-2.09961.40822-.418.07732-1.35776.13533-2.24929.21512A24.31955,24.31955,0,1,0,209.977,120.83594Z" fill="#686166"/><path d="M215.84575,152.31734a16.38046,16.38046,0,0,1-1.96192-.145c-.215-.03625-.50731-.10874-.85046-.18123-1.196-.27536-3.682-.84081-4.17732-.3914a1.15507,1.15507,0,0,0-.30209.76832c-.26324,1.68644,1.29752,2.04642,2.95972,2.43052a6.87147,6.87147,0,0,1,2.218.77314l.203.14263-.19817.157a2.03385,2.03385,0,0,1-.88671.43729,4.13134,4.13134,0,0,1-1.95463-.05554,5.15384,5.15384,0,0,1-3.45007-2.55855c-.11121-.28266-.1837-.54367-.25136-.77314a1.99612,1.99612,0,0,0-.72478-1.24668l-.09426-.07014.017-.10874a3.19528,3.19528,0,0,0-1.50275-3.20365l-.12333-.09179.06049-.13781a1.77446,1.77446,0,0,1,.43247-.58944c.07-.08214.1498-.15945.23194-.26336.29714-.3794.63052-.7562.93977-1.12112a10.88185,10.88185,0,0,0,2.35333-3.54916,22.46242,22.46242,0,0,0,.50013-2.88475c.38409-2.72777.64511-4.41174,1.08957-4.6751a2.7006,2.7006,0,0,1,1.22256-.02425,8.50809,8.50809,0,0,0,3.24237-.39622,1.72982,1.72982,0,0,0,.36728-.26819,1.54606,1.54606,0,0,1,.59439-.37927,1.58828,1.58828,0,0,1,1.08957.26336,2.37007,2.37007,0,0,0,.50014.198c1.91355.36245,4.50352.12086,5.54-1.051a1.29766,1.29766,0,0,0,.27783-1.46167c-.26088-.40587-1.32634-.57027-2.03429-.67653-.145-.02413-.28513-.04107-.40587-.06284a9.20283,9.20283,0,0,1-2.30013-.81657,7.12783,7.12783,0,0,0-4.18215-.86988c-.44223.05085-.93024.14746-1.44967.24654-.5412.10379-1.109.21253-1.64537.273-.50743.06519-.981.10378-1.44.15215-2.1648.203-3.73038.35033-5.0399,1.55594a10.80811,10.80811,0,0,0-1.26115,1.47862,9.35258,9.35258,0,0,1-1.61148,1.79765,17.41851,17.41851,0,0,1-1.73963,1.10169,11.18341,11.18341,0,0,0-2.03677,1.33612,9.66542,9.66542,0,0,0-1.18384,1.63077,6.26016,6.26016,0,0,1-1.11629,1.4811,2.227,2.227,0,0,1-.78514.21747,2.29993,2.29993,0,0,0-.48566.09179,5.085,5.085,0,0,0-.63546.26336,4.3058,4.3058,0,0,1-1.14759.38175,4.2628,4.2628,0,0,1-1.10653-.05567c-.16192-.02647-.30925-.04824-.44706-.06037a17.88826,17.88826,0,0,0-3.73273.23442c-.16923.02412-.86741.04589-1.51.06284a26.34967,26.34967,0,0,0-.25372,3.53951,24.18787,24.18787,0,0,0,4.03729,13.402c.89153-.07979,1.8313-.1378,2.24929-.21512.70066-.13038,1.42555-.25124,2.09961-.40822.24877-.06049.50731-.1498.79244-.23924a5.1367,5.1367,0,0,1,2.67458-.3455,17.31031,17.31031,0,0,1,2.58762.84563,15.93518,15.93518,0,0,0,3.06115.964,8.4069,8.4069,0,0,0,3.74016-.39622,11.50735,11.50735,0,0,1,1.62842-.36245c.79727-.11109,1.55594-.157,2.2107-.19323,2.04641-.11121,3.41147-.18122,4.4794-1.99817l.06037-.10391.12321.017c.24889.03389.49283.087.761.145a4.36064,4.36064,0,0,0,2.02476.13768,3.36752,3.36752,0,0,0,1.74681-1.52934,1.61979,1.61979,0,0,0,.20287-1.539C219.61721,152.44537,217.53219,152.37535,215.84575,152.31734Z" fill="#d9d9d9"/><polygon points="211.605 134.96 211.596 134.955 211.584 134.955 211.605 134.96" fill="#d9d9d9"/><path d="M220.51356,135.32514a3.0724,3.0724,0,0,0-1.07993.29466,4.01868,4.01868,0,0,1-.88188.28761,19.49064,19.49064,0,0,1-2.06818.1691c-.60157.02895-1.15725.05072-1.672.12073l-.14981.017a11.61154,11.61154,0,0,0-3.23507.72,1.69859,1.69859,0,0,0-.89153,1.15254,1.49912,1.49912,0,0,0,.31173,1.30469c.343.42035.5798.45659,1.19114.5678.11343.02165.25359.04107.39857.07484a7.00025,7.00025,0,0,1,.72489.186,7.46578,7.46578,0,0,0,1.24186.273,17.27589,17.27589,0,0,0,5.23077-.43011c.51461-.099,1.00262-.19323,1.48345-.26819a4.24725,4.24725,0,0,1,.54355-.04824,1.70613,1.70613,0,0,0,.79256-.15711,1.81973,1.81973,0,0,0,.84564-1.29739,2.72286,2.72286,0,0,0-.59922-2.09961A2.44631,2.44631,0,0,0,220.51356,135.32514Z" fill="#d9d9d9"/><path d="M224.11108,142.6168c-.30925-1.12594-1.46414-1.63325-3.16988-1.40378a3.00244,3.00244,0,0,0-.65229.1957,3.25711,3.25711,0,0,1-.62816.21017,23.73883,23.73883,0,0,1-6.06441.11851c-.19322-.017-.401-.04837-.59674-.07249-1.22973-.174-2.38945-.3262-3.14812.47836-.493.52425-.65241.97366-.493,1.37953.27783.72,1.875,2.00782,9.40822,2.57315l.30691.02412a8.36854,8.36854,0,0,0,3.16741-.128A3.07275,3.07275,0,0,0,224.11108,142.6168Z" fill="#d9d9d9"/><path d="M220.03755,147.45371l.09908-.029c-.06519-.00482-.53637,0-.91082.017-.67406.012-1.16454.03142-1.30952.012-.6717-.06754-1.36506-.128-2.10926-.19322-1.27327-.09662-2.59961-.203-3.902-.39387a4.553,4.553,0,0,1-.78031-.20053,3.6883,3.6883,0,0,0-1.6768-.20287,1.591,1.591,0,0,0-1.28057,1.266,1.6459,1.6459,0,0,0,.54368,1.77575c1.16936.84081,4.93116,1.58748,7.08879,1.77823a6.86962,6.86962,0,0,0,1.19113-.02165,4.59547,4.59547,0,0,1,1.394.02165,2.9575,2.9575,0,0,1,.66688.25619,2.08508,2.08508,0,0,0,1.42308.27054,2.84818,2.84818,0,0,0,1.8047-1.38436,1.68289,1.68289,0,0,0,.24654-1.79518A2.80679,2.80679,0,0,0,220.03755,147.45371Z" fill="#d9d9d9"/><path d="M180.88384,166.859h58.18845a6.35719,6.35719,0,0,1,6.35719,6.35719v12.82487a6.35429,6.35429,0,0,1-6.35429,6.35429H180.88384a6.35429,6.35429,0,0,1-6.35429-6.35429V173.21332A6.35429,6.35429,0,0,1,180.88384,166.859Z" fill="#d9d9d9" stroke="#595959" stroke-miterlimit="10" stroke-width="1.80176"/><path d="M206.78037,172.52148h9.582V175.041h-6.585v3.14941h5.707v2.3291h-5.707v5.63086h-2.99707Z" fill="#252525"/><path d="M113.17208,394.50557a24.32137,24.32137,0,1,1-24.32376-24.32376A24.32882,24.32882,0,0,1,113.17208,394.50557Z" fill="#686166"/><path d="M77.47064,382.71477l-.00478-.00834C77.46941,382.73757,77.47064,382.73389,77.47064,382.71477Z" fill="#d9d9d9"/><polygon points="76.343 410.253 76.353 410.254 76.355 410.241 76.343 410.253" fill="#d9d9d9"/><path d="M82.81464,384.26036c.00968.00233.01679.01079.02525.01435H82.841Z" fill="#d9d9d9"/><path d="M101.41364,384.27949s.13889-.23464-.11487-.18916a28.98332,28.98332,0,0,1-3.73993.33038c-.1102.51475-.34484.82122-.4358,1.29294a2.63518,2.63518,0,0,0,0,.67044,1.44583,1.44583,0,0,0,1.31207.33515A4.617,4.617,0,0,0,101.41364,384.27949Z" fill="#d9d9d9"/><path d="M94.28818,390.318c.21306.17236.63207.30647.72315.61772a1.858,1.858,0,0,1,.03347.45971c1.83883-.182,4.008.06227,5.79905-.18683a9.16044,9.16044,0,0,0,1.44617-.23941c.33516-.09574,2.45177-3.1748,2.34157-3.81177-.0575-.33037-.49085-.73982-.68478-.9481a4.72577,4.72577,0,0,1-.89784-1.07264c.07306-.2263.12688-.44414.2035-.73259.64175-2.39673.15323-5.10471-2.20758-4.89165A2.49131,2.49131,0,0,0,99.46,380.214c-.115.11487-.21073.37108-.34484.45726-.17236.11253-.395.07429-.58414.1628a3.78041,3.78041,0,0,0-1.17329,1.4534,3.6564,3.6564,0,0,0-.5123,1.40781c-.024.12933-.12455.316-.17.45738a1.75115,1.75115,0,0,1,1.13247.0407,23.73142,23.73142,0,0,1,1.44863-2.53317c.79719.146,1.968-1.20921,2.55229,0a5.48857,5.48857,0,0,1-.03837,2.4134c-.085,1.17562.50641.8309.89195.85959a10.57678,10.57678,0,0,1-1.54559,1.98005,4.65831,4.65831,0,0,1-2.69118,1.44863c-2.241.28011-2.969-2.07825-2.241-4.18285-.35919.043-.54111-.1916-.9649-.12933-1.57783.23464-1.58985.64163-2.41352,1.69761-.3495.45-.668.9074-1.03673,1.32873A6.96592,6.96592,0,0,0,94.28818,390.318Z" fill="#d9d9d9"/><path d="M109.60218,393.25578c-.48606-.8309-2.80127-5.20768-3.65375-5.01607-.43568.09574-.67509.94564-.90262,1.3264a12.31521,12.31521,0,0,0-1.16606,2.15965c-.08618.69912.46449.953.65131,1.36232a4.55688,4.55688,0,0,1,.41423,1.00326c.055.29691-.05982.51242,0,.73983.261.96489,1.36233,2.16442,1.83159,3.03357.1796.34484.1628.68723.40712.953.47405-.795,1.11568-1.43183,1.59218-2.23638.35906-.63685.68711-1.348.996-1.99206.07662-.16758.09341-.47638.20828-.58413C110.05465,393.92855,109.63332,393.31561,109.60218,393.25578Z" fill="#d9d9d9"/><path d="M92.05438,390.6867c-.52922-.87639-.93621-1.81493-2.21714-1.86286-.30414.62618-1.20676,1.87953-1.95136,3.13655-.024-.02513-.05749-.06816-.07907-.08863.00956-.06939-.055-.12688-.07417-.17947.00711.03592-.03359.05737-.05038.03592-.09574-.13411-.02623.01434-.15078-.11021a4.2973,4.2973,0,0,1-.62729-.92174c-.12455-.02881-.14367-.16047-.23709-.20362l.0168-.00478c-.07907-.05983-.3544-.55067-.44536-.62729l.00478.024c-.04781-.024-.05259-.04671-.05149-.07306a.08579.08579,0,0,1,.00123-.02992c-.00479,0-.00123.00233-.00356.00356a.12976.12976,0,0,0-.00368-.07306.0911.0911,0,0,1-.0646.0228l.00723-.03236H86.126c.01679-.0119.03114-.02391.03114-.02391a4.04742,4.04742,0,0,0-.28735-.81644c.01679-.01679.024-.00478.024-.00478a.94767.94767,0,0,0-.13412-.19161c.012-.03591.05027-.05026.06706-.0646-.04315.02636-.249-.36629-.23463-.38076l-.10543.05271c-.03592-.07416.10776-.08385.04793-.14122-.158.03825-.04793-.11977-.12933-.103a.06819.06819,0,0,1,.03837-.05983c-.08385.02391-.03359-.03113-.06227-.04315-.02636.00957-.01913.01913-.04315.03592l-.05259-.0407c.01912-.0239.05737-.05271.07894-.03837a4.44043,4.44043,0,0,0-.38309-.91218c-.04781.0407.012.06461-.067.13166-.07417-.00956-.01189-.06227-.07662-.05259.13178-.08152-.00711-.09819.1221-.19393l-.08618.02623.03837-.03825c-.16525-.12455-.055-.02157-.11977-.17236-.04548-.07183-.17236-.05749-.16035-.12455,0,0-.03113.04548-.06227.03825.06227-.03825-.07429-.03347-.012-.07662-.02157-.02145-.0478-.08618-.12687-.01912.03837-.03592.03113-.1053.08863-.09329-.012-.02158-.00956-.04793-.03114-.05038l-.01679.03837c-.04794-.06461.00723-.13645-.09575-.1389l-.03113.04793c-.02158-.04069-.04548-.06472.03113-.13178l.05983.02881a.29391.29391,0,0,0-.14368-.14134l.00245.024c-.12687-.0288-.40221-.36629-.5411-.376l-.05749.06473-.091-.01925a2.183,2.183,0,0,1,.22741-.07894,1.4768,1.4768,0,0,1-.201-.43813c.01913-.07184.11487-.06228.11487-.06228-.04548-.05271-.0814.00723-.0982-.04315l.06706-.0239c-.01434-.01913.00478-.05272-.03347-.03114-.01679.03837-.10064.06951-.15568.10775l-.02268-.05859.006-.00724.04781-.0228-.03346.006c.00711-.01189.01912-.01557.0239-.02991a.2521.2521,0,0,1-.15078-.006c-.00245-.00355-.012,0-.012-.006a.57322.57322,0,0,1-.02868-.091.92449.92449,0,0,1-.03114-.11253.31237.31237,0,0,0-.05749-.11732.11981.11981,0,0,1,.05026.00245l.01434-.0407c-.04781.04781-.055-.02881-.07184.00711l-.01667-.00711s-.012-.00956-.00723-.01924a.03774.03774,0,0,0-.00478.01446l-.01435-.00478c.00957-.00478-.04069-.04793-.0288-.05749-.02146-.02391-.05983-.08618-.06216-.04794,0,0-.03358-.07661.00233-.05026a.19678.19678,0,0,1-.02868-.03824l-.00245.01667c-.04781-.05259-.06228-.09574-.11487-.11732l.01189.02636c-.02635-.03114-.0646-.04548-.06227-.07662l.05038.01912a.5566.5566,0,0,0-.14245-.07894l-.02881-.00724a1.05831,1.05831,0,0,1-.07306-.11008c.0168-.17-1.16594.10775-1.31917-.0814l-.11732-.13411-.45014.07061a1.20325,1.20325,0,0,1-.03592-.49918c-.0814-.03114-.03359-.10052-.09574-.13411l.02623.00245a.86664.86664,0,0,1-.037-.26822,2.49064,2.49064,0,0,0,.63084-.43335,3.81106,3.81106,0,0,0,.79976-1.099c.08618-.11487.09575.02636.10531.03114.04315-.18438-.03347-.103.0239-.249.024-.03592.04315.0239.0407.05271.0168-.0695.05517-.11977.03114-.13656-.05026.07662-.103.00723-.1628.01679a1.27452,1.27452,0,0,0,.06228-.18437l.04315.02869a2.18794,2.18794,0,0,1,.00956-.54111,2.16647,2.16647,0,0,0-.00478-.80442c.0239,0,.05259.06938.07662.14367,0-.05026-.02158-.11977,0-.16047-.03837.08618-.05272-.14122-.06228-.07662a8.12362,8.12362,0,0,0-.56991-.67043,2.83264,2.83264,0,0,0-.49085.09341,1.40479,1.40479,0,0,0-.10285-.28735c.35428-.21306.68711-.45014.668-.771l.0407-.02145-.06706-.09341c-.06227-.12933-.146-.1389-.10775-.16047l.11731.15091c-.07183-.11977.00478-.06.05026-.03359a.74748.74748,0,0,1-.07416-.14368c-.03359-.01434-.00245.02636,0,.05517a.9383.9383,0,0,1-.19639-.18438c-.09819-.10775.04548-.06227-.0646-.19393a3.16411,3.16411,0,0,0-2.25306-1.14216c-.01912-.02157.00233-.01912.03114-.02868a2.83356,2.83356,0,0,0-.71346.08373.26969.26969,0,0,1-.11021-.0526c.01912.0119-.29446.08851-.59137.2442a3.61615,3.61615,0,0,0-.565.33761l.02624.10052c-.19394.15091-.11965-.04548-.28012.12688.00478.158-.27533.285-.28489.3951,0,0-.0814.0814-.103.05026.03359.07662-.05982.115-.091.18438-.00245.03114.02869-.00233.05982-.00723-.02868.05038-.0407.09819-.07661.15813-.0407.0407-.08373.03825-.0575-.03358a3.65387,3.65387,0,0,0-.52431,1.47253,3.886,3.886,0,0,0,.16047,1.65923c.03114-.07183-.05026-.21784.02158-.29445.0646.11964.031.19393.091.23463-.09342.091.06227.292,0,.4309l.07661.01434-.012.08152c.33038.50274.28735.00711.54834.47638.18192.2491.35673.25143.43568.39988-.00711-.0239-.02869-.10052.03837-.05271-.03359.05271.08618.09587.07416.17a.59512.59512,0,0,1,.06473.26455c.01312.067.14723.19871.0407.14968.05259.04548.103.103.15078.11008l-.067-.07416c.19638.14122.2898.26332.45014.27055l-.055-.07907c.11254.07662.21784.11732.24665.21318l-.14613-.03837a1.52415,1.52415,0,0,0,.39265.12688.11794.11794,0,0,0,.01925.04548.19918.19918,0,0,1-.06951.03114c.0407-.01189.08618.21551.07429.22274l.08373-.012c.00478.04548-.09329.02635-.06706.06705.127-.00723-.00478.06461.06706.06461-.01189.00478-.01189.024-.04781.02881.06706-.00724.01912.02145.03347.02868.01912.00245.02157-.00478.04315-.01434l.03346.0239a.57859.57859,0,0,1-.067.02881,1.28321,1.28321,0,0,0,.03359.50274c.04781-.012.00478-.03114.08373-.05272.05026.00969-.00711.02881.03591.03114-.07772.018-.07416.03592-.08973.05627a4.30045,4.30045,0,0,0-.95178.39155l-.09341.01434.01679.05271c-.04548.07662.06951.08618-.02635.10053l.00723-.09342c-.02636.07429-.07429.03114-.13644.01913a.12548.12548,0,0,1-.05038.08863c.04082.00723.04315-.01434.0695-.03114.03592.03114.12688.05749.08618.11254-.00245.0695-.15568.03592-.158.12455l-.00356.02991a.37066.37066,0,0,0-.03714.0179l-.08385-.06461a.13227.13227,0,0,1,.03359-.0407c-.024-.01912-.06706.00724-.06473.04548l.06706.055c-.02146.0695-.05505-.02146-.08373.03358-.06228-.04315-.03359-.10064-.00956-.14134-.03837.03114-.103.03592-.05517.09108-.05026.01913-.06706-.05749-.11732-.03592-.00711.0407.0168.11487-.043.1221l-.01434-.012c-.0814.02636-.05038.1053-.067.17-.03359.03114-.02636-.012-.0575.03114h-.00956v-.012c-.04793,0-.05271.08618-.11732.0982l.03592.00711a.16068.16068,0,0,1-.02881.06472c-.02868.02869-.043.06461-.09574.06939l.01913.07907c-.15557.16758-.33038.47405-.46927.66075l.00245-.01434a11.99653,11.99653,0,0,0-.826,1.18763c-.08152.00479-.11977.06694-.17.09807.03824-.00711.07416.03359.04548.05517-.11254.134.03592.043-.055.19626a4.11961,4.11961,0,0,1-.81411.87394c.01434.13644-.12688.18682-.13645.29924l-.01434-.02146c-.03592.103-.48128.50519-.534.62l.02157-.00232c-.00956.11964-.091.0407-.16758.07661a.21574.21574,0,0,1,.06706.21306l-.02158-.0239a1.2,1.2,0,0,1-.06227.28722l-.0407-.043c.00723.10053-.10052.18671-.13411.22986-.09574.07183-.28735.14367-.32805.31848l-.20583-.03592.00957.02624s.06938.05994.18437.1509l-.01434.02869-.00969-.01434a1.092,1.092,0,0,0-.043.2323c-.01912.02624-.02157.02624-.02157.02624a.93585.93585,0,0,0,.00245.22507,1.09339,1.09339,0,0,0,.04781.22507l.02636.00478c.03113.07662-.02869.03114.012.10776.05026.01446.05982.11143.08851.13411a2.41956,2.41956,0,0,0-.0407.54834c-.01912.00711-.02145-.00245-.02145-.00245.01667.06472.01189.12455.03346.18682a.1065.1065,0,0,1-.07183.0407c.04315-.00956.0646.36384.05271.36384l.09341-.00233c0,.06706-.10542.03114-.07662.09342.12443.01434-.00723.11008.05738.13166a.06231.06231,0,0,1-.05027.03113c.06461.00478.0168.02869.03592.04781l.03837-.01434.02391.04793-.05272.02391a2.75069,2.75069,0,0,0-.0239.81889c.03825-.0168.00478-.0575.08618-.0814.05026.03346-.012.05982.03114.067-.11254.02146-.0168.07662-.14123.11254h.06694l-.0407.031c.08385.13889.03592.024.02636.16292.01679.07661.1102.1053.08139.14845,0,0,.03359-.02158.05272-.00245-.05272.00245.04315.04793-.0168.06227.00956.0168.00478.08851.08618.055-.0407.00956-.05259.07183-.08851.03346-.00245.02636-.00956.04793.00233.06706l.02881-.02869c.00711.05983-.04548.10052.02636.13411l.02868-.02635c.00711.0407.0168.07183-.06705.091l-.02391-.03592a.26332.26332,0,0,0,.06228.158v-.01913c.08618.0575.16034.41178.26565.46694l.05994-.03592.055.04781-.1867-.01434a5.34819,5.34819,0,0,1,.05737.82845c-.03113.04781-.10052.01189-.11486.01913.02635.04548.06938.00956.067.055-.00723.01679-.05026,0-.05026,0-.00245.02157-.01446.04315.00711.03592.02391-.02869.0982-.02391.15091-.03825l-.00478.05737-.04793.0049s.13644.01668.10775.0814a2.09894,2.09894,0,0,0,0,.30169.09187.09187,0,0,1-.06473-.03837s.00491.03347-.01667.03592c.05026-.02157.0407.0407.0407.0407.14368.03837.03592.146.11965.2035l.17836-.00478c-.11609.27656-.30757.74828-.36506.94822l-.0814.02145c.02868.05995-.02391.09587-.00724.17248-.01912.02869-.05982.00478-.0646-.01446.01434.067-.05749.11021-.02869.158l.02391-.00233c.02869.11008-.14846.10775-.11977.2274h.012c.02391.05749-.05749.07907-.08618.10542.00479.06228.07417.03592.08851.08373-.07661-.00711.35208.31125.34484.35195.02158-.043.05505-.091.11487-.06215-.02623.05259.54123.21539.4933.27288l.17959-.01189c-.03114.01434-.03592.07417,0,.08618-.012-.00723-.00245-.03592.00233-.06473l1.12536.17727c.11732-.05272.04315-.22029.206-.261.01912.03113.02868-.0575.06938-.00724-.00956-.0239.00246-.043.00478-.06938-.03113.0239-.05026.0407-.08863.03347a3.55422,3.55422,0,0,0,.127-.39266c-.00245-.08618.16035-.07416.16035-.07416l-.05749-.0168.02157-.07907c.05026.03837.14368.0575.16047.09342.03347.00723.01434-.02158.01434-.04548l-.05026-.00724c.012-.05982.17959-.19393.2274-.25621,0,0-.08851.01925-.11486-.04781.006-.14122-.50163-1.05107-.5747-1.36122l.0407-.0011c.00245.01912.00245.043-.01189.04781a.04814.04814,0,0,0,.02391-.07417l-.0575.00834-.00233-.00711c-.00367-.02158.0347-.01324.03114-.04916.055-.01434.06215.02869.06939.06951.00723-.03592.04069-.06951-.01435-.08385.01913-.02636.06461-.00478.08863-.04315-.01924-.02391-.07428-.05259-.04082-.0814l.00491-.00478c.05737-.07662-.08864-.103-.02881-.18192l.01679.00711c.02869-.02624-.012-.07172.01913-.11487,0,0-.05505.02636-.0575,0,.03359-.05026-.00711-.07907.03837-.11977l-.06227-.03347c.00245-.17-.10531-.85481-.12455-1.02471l.01446.00478a8.07385,8.07385,0,0,0-.14845-1.0751c.05026-.04793.03825-.10776.04548-.15324-.02158.03359-.05982.02391-.0575.00245.00724-.13411-.03591-.00245-.05982-.13889a2.55289,2.55289,0,0,1,.00956-.90507c-.08863-.06706-.03359-.1628-.07661-.23709l.00956.00479c-.02869-.06939.0239-.5291-.00956-.608l-.00724.00478c-.05259-.07184.03114-.07184.05517-.13411a.14048.14048,0,0,1-.15091-.07429l.0168.00245a.44544.44544,0,0,0-.05272-.08974,4.00941,4.00941,0,0,0,.63207-.60938c.02881.01434.01925.01912.024.03346.03591-.091.09574-.15323.13644-.23941a.53817.53817,0,0,1,.09341.03114c-.05271-.02158.25854-.40945.27533-.40467l-.07907-.07417c.05272-.07428.115.06228.14368-.01912-.09574-.12933.1102-.103.067-.17959a.0655.0655,0,0,1,.07184.01189c-.05749-.0646.012-.04548.00956-.079-.00723-.024-.01679-.012-.04548-.02635l.0168-.06939c.03591.00478.07894.03347.06938.06215a6.05858,6.05858,0,0,0,.75895-.80687c-.06461-.02636-.06694.03837-.158-.00478-.01434-.07417.05516-.0407.024-.09329.13166.07894.091-.06473.237.01434l-.055-.06473.05271.012c.02636-.10653.02636-.11977.03469-.12333a1.10945,1.10945,0,0,0,.02759.18082c.10052-.05982.02868-.11254.18192-.16758.09574.043-.02391.091.07662.10052-.23942.07417-.04548.146-.28012.24187l.13411-.012-.08152.05271c.16047.2442.07184.04781.06473.28968.03346.14367.22507.16279.16034.25621,0,0,.08385-.0575.12222-.02881-.12222.02881.091.07184-.02157.11732.01434.03113.01434.1509.16513.07183-.07662.0407-.10053.14846-.17947.10065-.00246.03824-.0168.07894.01912.09329l.0407-.055c.03114.11021-.091.19872.06706.24665l.06227-.05749c.01667.06227.03347.12688-.12455.18682l-.06227-.067a.36669.36669,0,0,0,.12933.25854v-.03114c.17236.08863.36874.69912.56979.76385l.1221-.06706.1102.07417c0-.0168-.40466.03592-.36151.01679a7.98475,7.98475,0,0,1,.15556,1.4653.20732.20732,0,0,1-.19871.0575c.03346.08372.11977.01434.11253.09819-.02157.02869-.103.01667-.103.01667s-.043.06228.0239.05272c.03837-.04794.19394-.06228.29213-.10531l-.00233.10531-.10064.01912c0,.01912.273.00478.22985.11021a.75014.75014,0,0,0,.00368.11486l-.33405-.01434c.00478-.02869.01434-.0575.03113-.06461a.06467.06467,0,0,0-.05271.09329l.10776.01447c.03358.06693-.06461.01189-.05983.0814-.08863,0-.10052-.06706-.1102-.12455-.01435.055-.07662.09819.01679.12455-.0407.043-.11008-.00969-.15078.043.02635.04315.10052.10542.05259.14845l-.02146-.00233c-.09341.10531.12921.1867.03347.28723l-.03114-.01913c-.055.03359.00478.11254-.05026.18192.01434-.02145.08385-.03591.091.00724-.05982.07907-.00478.13644-.0814.18192l.08385.05994c-.0288.26578.043,1.05831.0407,1.32641l-.01434-.012a13.02213,13.02213,0,0,0,.146,1.70962c-.09341.05737-.07661.14845-.1053.21538.03825-.03824.091-.01434.08851.012-.01667.21073.055.01679.08863.22985a4.236,4.236,0,0,1-.18192,1.39825c.11965.12455.01667.26344.08851.38076l-.03114-.01435c.04315.13166-.12688.81877-.0814.96244l.01434-.01912c.07184.12688-.06693.1053-.11253.19872a.21356.21356,0,0,1,.22029.1509l-.03347-.00245a1.57009,1.57009,0,0,1,.15079.31125l-.0814-.00956c.01679.0179.012.04315.01924.06461-.03481.01434-.07428.03481-.06227.05749l.091.03714c0,.01435,0,.02268-.00123.03715-.02267-.00123-.05026-.00723-.05859.03347-.09587-.02869-.09109-.09575-.08631-.15324-.0239.04793-.10285.06938-.00956.12455-.05026.03347-.11253-.04315-.1699.00233.01667.04548.091.1221.02145.14845l-.01667-.00956c-.12455.07662.12442.0407,0,.10776l-.024-.02391c-.06461.01667-.01434.11242-.09329.15079.02636-.00724.09807-.00246.09574.03591-.07907.05272-.04315.1221-.12688.15079l.07417.07183c-.103.25143-.29691,1.2547-.3663,1.50367l-.012-.00956c-.07662.39265-.64163,1.11568-.64641,1.5467-.10543.02869-.11254.11732-.158.17236.043-.02145.103.0168.091.03837-.06938.1867.0575.02869.03114.23942a2.68636,2.68636,0,0,1-.42379,1.06308c.09342.1389-.04548.24175.00233.37831l-.02868-.024c.00956.12455-.316.72315-.316.86438l.02869-.00711c.04548.134-.09329.07416-.1628.15323a.23947.23947,0,0,1,.19161.19872l-.02881-.01435c.00478.06461-.33283.189-.33994.29446l-.0814-.03359c.0575.10065-.02635.23709-.03359.29458-.07661.11487.06951.39743.11977.60338l-.261.03347.01913.02636s.36519.14845.84157.32437l-.35306-.05738c-.05627.32437-.31615,1.47131-.33528,1.773l-.09329.04781c.06215.07429-.00245.12933.0407.22029-.01446.04548-.07907.01913-.08863-.00723.04548.08385-.03359.15569.00711.2084l.02881-.01447c.0814.1389-.15569.17249-.07429.31371h.00968c.05027.05982-.04793.10775-.07661.14845.02868.07417.10285.02391.13877.0814-.09807.01434-.04548.07429-.0407.14367.02157-.067.04793-.13644.12933-.12455-.0168.08386.091.03114.04793.10543l-.11021-.00956c-.02868.031-.01434.11008.01435.11254l.00478-.07662,3.10786.19626c.14122-.091,2.6457.07662,2.8492-.0239.02881.03824.012-.07907.09341-.024-.03837-.02145-.01912-.05737-.01679-.07662-.03114.02881-.06706.06473-.10776.06228.00478-.17714-.34239-.60338-.35673-.77807-.03114-.103.18437-.11021.18192-.13411l-.07662-.00724-1.42938-.4537c.04548.00356.024-.03113.03837-.06583-.0239.012-.0814.03114-.09574.00478-.00245-.08385.06215-.01679.091-.10775,0,0-.10775.04793-.158-.02869-.02514-.14845-.70035-.55912-1.03919-.84524.00846-.00957.012-.02391.02881-.02636-.024-.02145-.02881-.00233-.05038-.00478-.02146-.03114-.07417-.09807-.03114-.11965.01925-.04793.12455.03825.15324-.02157.17481-.31849.0456-.75417.13411-1.09423.03359.00245.03113.00956.03113.00956a2.862,2.862,0,0,0,.05505-.292.7038.7038,0,0,1,.12455,0c-.06939-.00491.10052-.53878.1221-.54123l-.14368-.05026c.02881-.103.16758.01679.17-.07417-.18915-.1102.07184-.15323-.0239-.22029a.09288.09288,0,0,1,.09329-.01912c-.103-.04548-.00711-.055-.02146-.08618-.02635-.024-.03837-.00478-.07183-.00478l-.01447-.07429c.03837-.02391.11021-.00723.10776.02635a5.437,5.437,0,0,0,.47895-1.154c-.09341,0-.05749.07661-.18915.05271-.05272-.06951.05259-.06228-.01447-.115.19639.04793.07662-.08863.28024-.055l-.10543-.05026.07429-.00478c-.03837-.2491-.03359-.06706.05259-.25143.02158-.11254-.11008-.22029-.03347-.25376,0,0-.08139.00478-.10052-.03359.10052.03359-.04315-.09819.05737-.0814.00245-.03346.04315-.11977-.103-.13166.06951.00711.12455-.05982.16525.00233.01679-.02635.04793-.04548.01912-.07416l-.043.01912c.00711-.09819.29213-.23942.19627-.33516l.09586.28723c.01434-.05983-.14134-.38309-.00956-.35428l.02623.06938a.36419.36419,0,0,0-.00711-.25143l-.01434.02636c-.09586-.14122.12443-.41656-.00968-.56023l-.11009.01434-.05982-.1053a2.06,2.06,0,0,1,.27288.13644,8.13461,8.13461,0,0,1,.34362-1.10979c.006.00122.01912-.00111.00833.00846.024-.012.0575-.01435.06706-.03592l-.0407.00956c.03236-.018.03959-.03236.06472-.04426a.33224.33224,0,0,1,.09575.037.08412.08412,0,0,0-.03837-.07772c.00956-.00724.0288-.01324.03591-.024a.42451.42451,0,0,0,.04316.02035c-.00957-.02513.00355-.03592-.00957-.049.02391-.01679.04671-.04192.07417-.03714l-.043.05026a.49923.49923,0,0,0,.158-.17714l-.024.02636a1.7049,1.7049,0,0,0,.158-.3256.64859.64859,0,0,0,.0407-.33761l-.031.03592a.2936.2936,0,0,0-.01924-.07907l.08139.05749c0-.01912.00246-.05026.00478-.08618l.024.00233-.00245-.05259c.04315-.05516-.043-.0863.03592-.08152l-.0168.08152c.024-.05516.06228-.00968.10543.01913a.12566.12566,0,0,1,.0407-.06951c-.02391-.01434-.02869.00245-.04793.012-.02391-.02868-.09574-.0814-.055-.11486.012-.06228.12687,0,.14367-.07184a5.84545,5.84545,0,0,0,.19393-1.08711c.0407-.00478.03347.00723.03347.00723-.01434-.09819.00478-.2035-.01912-.304a.54718.54718,0,0,1,.11977-.04315c-.06951.01912-.0407-.56268-.01925-.565l-.14355-.02158c.00478-.1102.16034-.02157.134-.12933-.19149-.05026.03359-.16034-.07417-.20828a.10109.10109,0,0,1,.09341-.04315c-.11253-.01912-.02157-.05259-.04793-.0814-.03346-.01434-.03346.00246-.06938.00957l-.03114-.07184c.03347-.01912.10052-.02391.11008-.00233a7.12654,7.12654,0,0,0,.13412-.72425c.13644.17236.298.43568.4358.47049l.09329-.06705.10542.055a1.79375,1.79375,0,0,1-.3137.03114,6.58386,6.58386,0,0,1,.316,1.22588c-.043.07417-.16279.05271-.16279.05271.04069.07417.10052.00711.1053.079-.01434.01912-.08373.01912-.10052.00956.0239.02636-.00957.06.04315.055.02868-.05026.16279-.07171.23941-.10285l.00956.08851-.08385.0168c.00724.01679.23709-.01435.218.0814a3.44264,3.44264,0,0,0,.07661.44058.16581.16581,0,0,1-.127-.03359c.00724.024.02636.04793-.00478.07662.07907-.05737.07184.03837.10065.00723.22507.04548.07416.23218.23941.28968l.13166-.04548a.2165.2165,0,0,1,.0168.055c.02868.04548.01679.05749.01679.05749s.049.07662.11241.158c-.02746.36874-.01066,1.17207-.02145,1.39824l-.012-.01434c.00245.40221-.39032,1.23067-.30647,1.64734-.09574.05259-.08863.14368-.11487.20583.03825-.03347.10285-.01434.09807.012-.03346.20828.06.02158.07662.22753a2.60569,2.60569,0,0,1-.18192,1.13247c.1221.1221.00723.25376.0814.37107l-.03114-.01912c.03592.12455-.15556.771-.1221.91463l.01913-.01912c.07183.12688-.07417.09574-.13166.18192a.26229.26229,0,0,1,.23708.15324l-.03837-.00246c.02636.06706-.28011.261-.27055.35686l-.07895-.01447c.07895.09109.02145.24432.02869.29691-.04793.13412.16047.37831.24665.56747l-.24665.08618.02157.01924s.13644.02391.33761.05627a10.23671,10.23671,0,0,0-.17959,1.01871l-.09341.04793c.05749.07662,0,.14122.0407.22986-.012.05259-.07184.02635-.091.00232.043.07907-.03592.17.01434.2203l.02636-.02158c.07416.13889-.158.19394-.08386.33283h.012c.04793.06227-.04793.1221-.08618.16758.03347.07429.11732.01679.14367.07661-.10064.0168-.0407.07907-.03837.14135.01925-.06473.04793-.14367.13411-.12455-.01912.0814.091.02157.0407.10775l-.103-.00245c-.03592.03114-.02158.10776.012.10543a.7227.7227,0,0,0,0-.07662l4.40792.20828c.13644-.103,1.11089.00245,1.31451-.11254.031.03359.01913-.08373.09574-.03113-.0288-.02158-.01679-.05983-.012-.091a.15024.15024,0,0,1-.11487.07417c.00479-.17947.05738-.37107.04781-.54589-.02868-.11486.182-.15556.182-.15556h-.07429l.00245-.10776c-.23941-.12688-.03114.14368-.352-.0646.0407.00478-.32094-.182-.30414-.22029-.0168.00956-.07184.03592-.09574.00956.00711-.08385-.53633-.15569-.4884-.25621a3.38059,3.38059,0,0,1-.74705-.34717c-.02881-.13043-.48606-.249-.80332-.37475l-.006-.04426c.04548-.04793-.04548-.08618.03359-.07662l-.01925.07662c.03592-.04793.07662-.00723.11977.01913a.10047.10047,0,0,1,.04315-.0575c-.024-.01912-.03113.00245-.03113.00245-.04315-.02635-.11254-.07661-.07184-.10775.00711-.0575.12921.00956.146-.055.0982-.34717-.1221-.74706-.1053-1.10379.03825.00245.03825.00956.03825.00956a2.02627,2.02627,0,0,0-.0168-.29691.34678.34678,0,0,1,.12222-.0239c-.06705.00956-.01679-.54111.00478-.5579l-.14612-.01913c.00956-.103.17481-.01679.14367-.115-.20117-.05983.03114-.158-.0646-.20828a.08435.08435,0,0,1,.09329-.02869c-.11965-.03359-.02391-.05749-.04781-.08618-.03592-.01446-.03592.00478-.07662.00711l-.03114-.06938c.03825-.02391.10531-.02391.11487.00956a5.11936,5.11936,0,0,0,.22507-1.22343c-.08851.01189-.03592.07894-.17714.08851-.06706-.06228.03592-.07662-.043-.10531.20828-.00478.05982-.1102.27055-.13166l-.11253-.02157.07183-.0168c-.09341-.24186-.05038-.06227-.0049-.25143-.00478-.12209-.15556-.19393-.091-.249,0,0-.07417.0239-.09574-.00724.09574.00724-.06706-.08851.03114-.091-.00724-.03113.01434-.12688-.12455-.10775.0695-.01189.10542-.091.16279-.03114.00246-.03347.03114-.05737,0-.07417l-.0407.02391c-.01434-.09574.23954-.29446.11732-.37108l.16047.25621c-.00245-.05982-.22029-.33528-.08385-.34717l.03592.06939a.3294.3294,0,0,0-.05737-.2442l-.012.02636c-.12688-.1221.03347-.42857-.12688-.53633l-.10775.03114-.07907-.08618c-.00711.00711.33761.07184.30169.07184a6.26556,6.26556,0,0,1,.11021-1.22589c.0646-.067.16512.00233.16512.00233-.01189-.0814-.08618-.0407-.07416-.10775.0239-.01913.0814.00956.09819.02157-.012-.03113.02636-.05026-.024-.055-.03824.02869-.1699-.00478-.25608.00233l.0239-.07895.0814.00956c.00233-.01679-.22507-.0695-.16525-.15323.04793-.13166.03359-.29213.07184-.431.04315.00478.0695.03837.09819.07662.00956-.02391-.00478-.05259.03347-.06461-.09574.02636-.055-.067-.09329-.04548a.16254.16254,0,0,1-.05505-.0635c.00356-.00834.0119-.01912.00957-.02746l-.01324.02268-.00478-.00478c.03236-.08263.067-.13522.05394-.19516l-.02881.03359c.01679-.06228.02157-.11021.05749-.13166l.00478.06693a.93592.93592,0,0,0,.00245-.2442l-.00723.03114a2.30814,2.30814,0,0,0-.06227-.28011c.00956-.02636.012-.055-.00711-.06706l-.0168-.00233-.00723-.01446a.26674.26674,0,0,0-.02391-.06461.12086.12086,0,0,1,.11977.08618c.00233-.055.055-.11964-.05038-.11253.02636-.05272.11021-.02869.14134-.091-.03592-.03347-.13656-.06228-.09341-.11977l.01434-.00711c.06951-.13412-.18192-.12455-.11008-.25376l.03347.00233c.04793-.05026-.04781-.0982-.00233-.17714-.01447.01912-.07907.05737-.103.0239.04548-.091-.024-.12933.03114-.20117l-.10065-.0239c-.04548-.26332-.34471-.9481-.41655-1.20909l.01434.00711a10.628,10.628,0,0,0-.54588-1.561c.07661-.08618.03113-.16758.03837-.24187-.024.04793-.0982.06-.10065.03114-.03347-.20828-.06227,0-.15078-.19627a3.74714,3.74714,0,0,1-.22753-1.35276c-.16034-.06951-.09329-.24187-.20582-.32327l.031.00233c-.07416-.1053-.11241-.79486-.189-.917l-.00968.01913c-.11254-.09575.03837-.11732.05271-.22262a.22845.22845,0,0,1-.27534-.06473l.03114-.00233c-.03359-.04548-.1916-.15091-.23941-.23942l.08618-.01912a.21349.21349,0,0,1-.0982-.13534l.34239-.0635a.11466.11466,0,0,1-.02868.0863c.06227-.02157.091-.09586.04781-.11976l-.13644.01912c-.05027-.07184.07661-.0407.05982-.11487a.122.122,0,0,1,.16525.103c.00478-.0575.08618-.13178-.04548-.13178.04548-.06216.13889-.02624.18192-.10286-.03825-.03591-.14846-.07907-.091-.14134l.02157-.01434c.103-.14846-.1916-.1628-.08618-.30169l.0407.00245c.0575-.05995-.03113-.12222.02869-.21318-.01912.02635-.10052.06227-.11965.01924.06216-.10542-.01679-.1509.06694-.22985l-.11487-.04315c-.00833-.25744-.17837-1.07988-.267-1.54315.01435-.00833.02513-.01434.04193-.02267a1.61864,1.61864,0,0,0,.091.14833c-.00956.01924-.01912.01679-.01912.01679a2.37694,2.37694,0,0,0,.16757.17959.15294.15294,0,0,1-.043.07662c.031-.0407.31125.33038.304.33994l.07429-.05259c.055.07417-.06227.091.00957.13889.1053-.05038.0646.11487.13166.10285a.04423.04423,0,0,1-.02158.05517c.06227-.02881.04315.02868.06706.03825.02635-.00957.01912-.02158.01912-.02158l.06227.012a.09707.09707,0,0,1-.03113.0575,4.33143,4.33143,0,0,0,.56268.85714c.02157-.04793-.03114-.06228.01912-.13411.0575.00478.01913.06227.06951.03591-.0814.103.0407.103-.03592.20828l.05982-.03346-.02635.04315c.17481.1053.05749.01189.146.15078.07184.07662.16525.055.17481.115,0,0,.00956-.0456.04548-.03592-.04548.03592.06706.0239.03114.07662.02158.01434.05749.08618.10064.00478-.01679.03825.01668.11008-.03837.09574,0,0,.01435.043.04316.05271l-.00246-.0407c.05272.05738.03837.13166.12688.12688l.00245-.03837c.03592.03359.06461.06473.0119.12455l-.04548-.024a.38153.38153,0,0,0,.158.12933l-.01434-.02391a1.87008,1.87008,0,0,1,.39388.243,1.73737,1.73737,0,0,0-.06829.93976,15.755,15.755,0,0,0,1.12782,1.32886c.31836.40467.68956.8428,1.01748,1.29049-.01189.05627-.037.11376.02158.16525l.01434-.012c.05271.03837-.00233.10064-.00956.13889.04793.05026.08618-.01434.12455.01925-.02158.01311.02513.02145.08863.02868.0407.06583.10052.12811.13644.19394.26332.45247.21551,1.17084.70157,1.37189a.87845.87845,0,0,0,.58659.04069c.26332-.12687,2.98331-6.03355,2.91148-6.76148C93.479,391.87421,92.44936,391.35946,92.05438,390.6867ZM78.57676,401.9375a.14063.14063,0,0,1,.02991-.03715.19839.19839,0,0,1,.01557.05149Zm2.56675,1.919-.00478.00122.00356-.00245Z" fill="#d9d9d9"/><path d="M102.91486,392.9612c-1.64244.06706-3.85958-.06227-5.55718-.04781-.60338.00711-2.17877-.07183-2.581.32082-.22507.22262-.20117,1.20185-.29213,1.5706-.14367.522-.47172.91708-.63452,1.43416-.40221,1.31452-.61049,2.574-1.07988,3.76629a2.0573,2.0573,0,0,0-.26332.86192.58685.58685,0,0,0,.51953.53154c.51475.08385.94577-.11008,1.348.182l7.7145-.06227a4.34067,4.34067,0,0,0,2.26261-.21073c.66088-.19148,1.28571.1628,1.54915-.49317.58181-1.43662-1.92979-5.01853-2.38471-6.00978C103.25725,394.25414,103.14471,393.54068,102.91486,392.9612Z" fill="#d9d9d9"/><path d="M121.70664,1.47852h-4.86133l-.646,3.46777.03369.03418a3.05,3.05,0,0,1,2.24414-.86719c2.1416,0,3.89258,1.36035,3.89258,4.13086a3.93443,3.93443,0,0,1-4.21582,4.01172,3.54052,3.54052,0,0,1-3.8418-3.45117h1.44532a2.37241,2.37241,0,0,0,2.53271,2.17578A2.54478,2.54478,0,0,0,120.83945,8.125a2.60974,2.60974,0,0,0-2.71973-2.73633,2.86751,2.86751,0,0,0-2.24365,1.13867L114.63535,6.459,115.75742.2041h5.94922Z"/><path d="M126.46738,5.15039h-1.88721V3.26367h1.88721ZM124.58017,10.165h1.88721v1.88672h-1.88721Z"/><path d="M133.94687,12.05176h-1.44482V3.417H129.3746V2.26074c1.64844,0,3.14454-.4248,3.46729-2.26074h1.105Z"/></g><path d="M102.14218,436.83594h6.94239v1.71582H104.1832V440.541h4.49853V442.127H104.1832v2.27539h5.00537v1.71582h-7.04639Z" fill="#ff3301"/><path d="M120.47275,442.14062h-6.56543V440.749h6.56543Zm0,2.78223h-6.56543v-1.3916h6.56543Z"/><path d="M125.59384,436.83594h6.52637v1.71582h-4.48535v2.14551h3.88721v1.58593h-3.88721v3.835h-2.041Z" fill="#982e93"/><path d="M140.62167,442.14062h2.58741v1.39063h-2.58741v2.58691h-1.39111v-2.58691h-2.58691v-1.39063h2.58691v-2.58789h1.39111Z"/><path d="M147.91464,440.51562c-.06494-2.08007,1.11817-3.67968,3.30225-3.67968a2.89727,2.89727,0,0,1,3.12012,2.84765c0,2.75586-2.9253,2.97657-4.251,4.84864h4.30273v1.58593h-6.68212c0-2.11914,1.30029-2.99023,2.873-4.06933.793-.5586,1.91114-1.10449,1.91114-2.22266a1.307,1.307,0,0,0-1.36475-1.40429c-1.09229,0-1.44336,1.13085-1.44336,2.09374Z" fill="#982e93"/><path d="M155.55869,436.83594h6.52636v1.71582H157.5997v2.14551h3.88721v1.58593H157.5997v3.835h-2.041Z" fill="#982e93"/><path d="M170.58652,442.14062h2.5874v1.39063h-2.5874v2.58691h-1.39111v-2.58691h-2.58692v-1.39063h2.58692v-2.58789h1.39111Z"/><path d="M177.87949,440.51562c-.06494-2.08007,1.11816-3.67968,3.30224-3.67968a2.89727,2.89727,0,0,1,3.12012,2.84765c0,2.75586-2.92529,2.97657-4.251,4.84864h4.30274v1.58593h-6.68213c0-2.11914,1.30029-2.99023,2.87305-4.06933.793-.5586,1.91113-1.10449,1.91113-2.22266a1.307,1.307,0,0,0-1.36475-1.40429c-1.09228,0-1.44336,1.13085-1.44336,2.09374Z" fill="#982e93"/><path d="M185.52353,436.83594h6.52637v1.71582h-4.48535v2.14551h3.8872v1.58593h-3.8872v3.835h-2.041Z" fill="#982e93"/><path d="M203.13876,442.14062h-6.56543V440.749h6.56543Zm0,2.78223h-6.56543v-1.3916h6.56543Z"/><path d="M213.86337,438.53906h-3.75683l-.36426,2.06739.02637.02539a2.31274,2.31274,0,0,1,1.78076-.70118,2.81622,2.81622,0,0,1,2.8081,3.09375,3.29371,3.29371,0,0,1-3.37988,3.27637c-1.76806,0-3.34131-.97558-3.38037-2.88672h1.84619a1.45193,1.45193,0,0,0,1.49512,1.36524,1.64679,1.64679,0,0,0,1.57324-1.75489,1.565,1.565,0,0,0-1.57324-1.70312,1.50745,1.50745,0,0,0-1.39111.72754h-1.66407l.897-5.03028h5.083Z" fill="#982e93"/><path d="M215.48789,436.83594h6.52636v1.71582H217.5289v2.14551h3.88721v1.58593H217.5289v3.835h-2.041Z" fill="#982e93"/><polygon points="86.819 449.534 86.835 432.944 80.839 432.938 91.046 422.756 101.231 432.958 95.235 432.952 95.219 449.543 86.819 449.534" fill="#ff3301"/><path d="M91.045,423.60391l8.73758,8.75256-5.147-.005-.0164,16.59045-7.2-.00708.01641-16.59045-5.14739-.00513,8.75684-8.73535m.00177-1.69678-.84926.84717-8.75684,8.73535L79.389,433.5364l2.898.00281,3.94739.004-.01521,15.39038-.00119,1.20007,1.2.0011,7.2.00708,1.2.00122.00119-1.19995.01521-15.3905,3.94705.00378,2.89754.00293-2.0471-2.05066-8.73758-8.75256-.84749-.849Z" fill="#fff"/><path d="M73.28215,302.17585c-.608,35.0208-1.09179,62.512-1.23822,70.8112" fill="none" stroke="#a4459f" stroke-linecap="square"/><path d="M105.94183,153.15437c3.96106-30.42069,7.13264-54.60214,7.814-59.47151.73633-5.26953-.55273-9.66113-3.832-13.05175A19.74254,19.74254,0,0,0,96.79,75.08521a10.0023,10.0023,0,0,0-1.06934.05469c-8.09082.85644-18.86328,4.01269-18.86328,21.44726,0,12.52227-2.13563,122.66193-3.57525,205.58869" fill="none" stroke="#a4459f" stroke-linecap="square" stroke-dasharray="3 4"/><path d="M96.60363,225.15183c3.089-23.90927,6.42686-49.63861,9.3382-71.99746" fill="none" stroke="#a4459f" stroke-linecap="square"/><path d="M125.467,226.53226c-.80975,40.84591-1.62327,76.56553-1.926,82.02365-.36426,6.56934-3.14161,12.12012-7.81836,15.62988a17.6316,17.6316,0,0,1-10.48926,3.58106,14.889,14.889,0,0,1-3.36621-.37793c-11.11817-2.58106-16.77442-10.53223-15.51758-21.81445.609-5.47415,5.08294-40.39819,10.254-80.42264" fill="none" stroke="#a4459f" stroke-linecap="square" stroke-dasharray="3 4"/><path d="M126.79784,153.6046c-.37044,22.60783-.85,48.67164-1.33084,72.92766" fill="none" stroke="#a4459f" stroke-linecap="square"/><path d="M155.03828,153.87706q3.21023-23.07815,6.85135-49.33482l.89062-6.42676c1.14454-8.24023-.1416-14.64941-3.71972-18.53222-2.73926-2.96973-6.81348-4.53907-11.78321-4.53907-.4873,0-.958.01465-1.4092.041-12.15427.69336-18.876,7.47656-18.43845,18.61133.17774,4.50595-.12491,28.97127-.63183,59.90806" fill="none" stroke="#a4459f" stroke-linecap="square" stroke-dasharray="3 4"/><path d="M144.9286,226.29788q4.341-30.9507,10.10968-72.42082" fill="none" stroke="#a4459f" stroke-linecap="square"/><path d="M191.38494,242.32719c-9.76064,36.18584-20.05268,74.13765-22.16035,81.135a18.52916,18.52916,0,0,1-10,11.94336,20.55244,20.55244,0,0,1-8.56641,1.82422,19.91492,19.91492,0,0,1-7.92773-1.59082c-11.09473-4.85352-11.73438-14.82422-10.31738-22.334.80968-4.293,5.07044-33.92428,12.51553-87.00706" fill="none" stroke="#a4459f" stroke-linecap="square" stroke-dasharray="3 4"/><path d="M204.166,194.84688c-3.48338,12.9632-8.07033,30.01608-12.78107,47.48031" fill="none" stroke="#a4459f" stroke-linecap="square"/><path d="M55.43857,342.10449l.15918-6.52344,1.71582.042-.10938,4.48242,2.14454.05176.09472-3.88575,1.58594.03907-.09473,3.88574,3.834.09375-.04981,2.041Z" fill="#982e93"/><path d="M82.45078,353.52539c-2.05274-.34082-3.39063-1.81152-2.96582-3.95508a2.89652,2.89652,0,0,1,3.39892-2.50683c2.7041.53613,2.352,3.44824,3.93018,5.11328l.83691-4.22071,1.55567.3086-1.29981,6.55469c-2.07812-.41211-2.67969-1.85743-3.43262-3.60938-.39355-.88769-.71191-2.09082-1.80859-2.30762a1.30663,1.30663,0,0,0-1.64258,1.06641c-.21289,1.07129.82862,1.63477,1.772,1.82227Z" fill="#982e93"/><path d="M80.32773,345.32324l1.26953-6.40039,1.68262.334-.87256,4.39843,2.10449.417.75635-3.8125,1.55566.30859-.75634,3.8125,3.76171.74609-.397,2.002Z" fill="#982e93"/><path d="M109.38974,356.20117c-1.731-1.15527-2.34424-3.04785-1.07471-4.82519a2.89727,2.89727,0,0,1,4.12989-.88477c2.24365,1.60254.72363,4.11133,1.47607,6.27832l2.501-3.501,1.29052.92188-3.8833,5.43652c-1.72461-1.23144-1.67822-2.7959-1.6416-4.70312.00586-.96973.21143-2.19727-.69873-2.84668a1.30739,1.30739,0,0,0-1.936.29492c-.63428.88867.08154,1.832.86425,2.39063Z" fill="#982e93"/><path d="M110.83164,347.85254l3.79248-5.31055,1.39648.998-2.606,3.64844,1.74561,1.24707,2.25879-3.16309,1.29053.92188-2.25879,3.16308,3.12109,2.22949-1.18652,1.66016Z" fill="#982e93"/><path d="M84.9747,186.94922l.79395-6.47656,1.70312.209-.5459,4.45117,2.12891.25977.47266-3.85742,1.57422.19336-.47266,3.85742,3.80664.46679-.24805,2.02539Z" fill="#982e93"/><path d="M110.38828,187.96484l.127-6.52441,1.71582.0332-.08691,4.48438,2.14453.041.07519-3.88672,1.58594.03125-.0752,3.88672,3.834.07325-.04,2.04Z" fill="#982e93"/><path d="M133.22031,188.32031l.8667-6.46777,1.70019.22754-.5957,4.44433,2.127.28516.51612-3.85254,1.57128.21-.51611,3.85352,3.80176.50879-.271,2.02343Z" fill="#982e93"/><path d="M180.5416,218.52441l1.70166-6.2998,1.65625.44727-1.16944,4.3291,2.07129.55957,1.01319-3.75293,1.53125.41406-1.01319,3.75293,3.70215.999-.53223,1.97071Z" fill="#982e93"/><line x1="98.51347" y1="330.34636" x2="90.82417" y2="371.23948" fill="none" stroke="#a4459f" stroke-linecap="square" stroke-width="2"/><line x1="137.30951" y1="337.33664" x2="107.60083" y2="378.22976" fill="none" stroke="#a4459f" stroke-linecap="square" stroke-width="2"/></g></g></svg>