<svg xmlns="http://www.w3.org/2000/svg" xmlns:xlink="http://www.w3.org/1999/xlink" viewBox="0 0 120.9711 212.72778"><defs><clipPath id="clip-path"><polygon points="25.712 212.727 15.725 160.489 110.984 159.832 120.971 212.07 25.712 212.727" fill="none"/></clipPath><linearGradient id="Dégradé_sans_nom_2" x1="-0.34255" y1="2064.15112" x2="1.15745" y2="2064.15112" gradientTransform="matrix(-3.85948, -20.18715, -137.12248, 0.94564, 283109.8046, -1766.0294)" gradientUnits="userSpaceOnUse"><stop offset="0" stop-color="#fff"/><stop offset="1"/></linearGradient><clipPath id="clip-path-2"><polygon points="25.6 160.662 25.66 212.139 111.097 211.902 111.038 160.422 25.6 160.662" fill="none"/></clipPath><mask id="mask" x="5.62578" y="159.10762" width="125.44469" height="54.34419" maskUnits="userSpaceOnUse"><g clip-path="url(#clip-path)"><polygon points="15.864 213.452 5.626 159.902 120.833 159.108 131.07 212.657 15.864 213.452" fill="url(#Dégradé_sans_nom_2)"/></g></mask><linearGradient id="Dégradé_sans_nom_98" x1="-0.34257" y1="2064.15112" x2="1.15743" y2="2064.15112" gradientTransform="matrix(-3.85948, -20.18715, -137.12248, 0.94564, 283109.80456, -1766.02986)" gradientUnits="userSpaceOnUse"><stop offset="0" stop-color="#fff"/><stop offset="1" stop-color="#fff"/></linearGradient></defs><title>MAESTRO-Pe06-rapport-mouflage-2</title><g id="Calque_2" data-name="Calque 2"><g id="Calque_1-2" data-name="Calque 1"><polyline points="51.503 208.465 51.503 152.704 33.09 152.704 69.909 125.434 106.719 152.704 88.286 152.704 88.286 208.465" fill="#ccc"/><polyline points="51.503 208.465 51.503 152.704 33.09 152.704 69.909 125.434 106.719 152.704 88.286 152.704 88.286 208.465" fill="none" stroke="#252525" stroke-width="1.2"/><g clip-path="url(#clip-path-2)"><g mask="url(#mask)"><polygon points="25.712 212.728 15.725 160.49 110.984 159.833 120.971 212.071 25.712 212.728" fill="url(#Dégradé_sans_nom_98)"/></g></g><path d="M35.7868,75.7709a58.59465,58.59465,0,0,1,2.22329-14.48335,96.72471,96.72471,0,0,1,7.094-18.1381c3.73928-7.07016,4.65477-8.153,5.87275-8.42684a6.876,6.876,0,0,1,1.39825-.17957c1.63607-.244,4.26146-.37015,4.58841.09494.32732.4679.165.749-.2189,1.41187a127.14608,127.14608,0,0,0-6.124,11.9003A88.94712,88.94712,0,0,0,46.903,59.1672,2.33042,2.33042,0,0,0,49.289,61.85605c2.14931.18946,3.24236.19267,5.12013.48531a.837.837,0,0,1,.20474.05908A15.88682,15.88682,0,1,1,35.90753,78.644c-.00365-.06683-.001-.132-.00172-.19935A26.44293,26.44293,0,0,1,35.7868,75.7709Z" fill="#ffd900" stroke="#000" stroke-width="1.2"/><path d="M54.71959,39.54626a2.32434,2.32434,0,0,0-1.7546-.571,29.75342,29.75342,0,0,0-3.40463.35863,2.44583,2.44583,0,0,0-1.89893,1.57594c-.6337,1.2568-4.63527,9.17869-5.9905,13.05766-1.35473,3.88173-1.91226,8.961,1.50067,8.82992A14.65043,14.65043,0,0,0,48.463,61.77244" fill="none" stroke="#000" stroke-linecap="round" stroke-linejoin="round" stroke-width="0.5"/><path d="M47.91783,78.35771a4.09758,4.09758,0,1,0,3.93636-4.25237A4.09645,4.09645,0,0,0,47.91783,78.35771Z" fill="none" stroke="#000" stroke-linecap="round" stroke-linejoin="round" stroke-width="0.8"/><path d="M39.43559,78.50792A12.356,12.356,0,1,0,51.30732,65.68464,12.35714,12.35714,0,0,0,39.43559,78.50792Z" fill="none" stroke="#000" stroke-linecap="round" stroke-linejoin="round" stroke-width="0.5"/><path d="M80.55806,82.36657c-.28-1.35865-.39118-4.45118-.42873-4.84088a72.89381,72.89381,0,0,0-4.8842-14.89388c-2.25516-4.81634-5.365-12.422-10.346-17.40583-2.76624-2.76328-5.21329-3.38421-7.43962-3.33513-3.62386.0751-6.14749,1.01788-11.85605,9.50288-.67711,1.00487-3.94142,6.58776-4.16821,7.07726a1.32481,1.32481,0,0,0-.13276.8489l-2.2522,5.05895s-.71909.16307-1.20711,1.37c-.49083,1.20844-3.13289,7.83524-3.58912,9.36849-.45624,1.53621-1.08279,8.02447,1.60838,12.25182.72764,1.14621,2.26814,3.00589,2.26814,3.00589,3.24406,3.41585,13.00093,12.33683,15.4193,13.47017,2.98859,1.39754,7.24757.63527,8.89924-2.35184,1.65448-2.99007,2.41971-8.2656,5.02288-9.66447,2.60731-1.399,12.71648-5.53115,12.71648-7.62885,0-.03327-.00148-.0621-.00281-.09521.2469-.143.38394-.22383.38394-.22383S80.83674,83.728,80.55806,82.36657ZM57.61975,100.98366a4.16163,4.16163,0,0,1-4.64307-2.35333c-1.52468-3.1141.192-3.75085,3.052-4.259,2.86159-.50827,4.3876.38113,4.51459,1.96923C60.669,97.93164,59.20788,100.47553,57.61975,100.98366Zm-4.95058-51.129A5.58338,5.58338,0,0,1,57.78,46.65811c2.68109,0,4.63157,2.365,5.13982,3.8332.61206,1.75708.60629,4.02377-5.10951,4.02377S51.39139,52.28018,52.66917,49.85471Z" fill="#ffd900" stroke="#000" stroke-width="1.2"/><path d="M72.51964,192.31978h-3.5V79.8271L45.8297,81.9272c-.31543,2.5752-.978,8.0044-1.2334,10.30615-.35449,3.18994-19.38476,48.8584-23.1958,57.981L18.171,148.8647c8.97217-21.47461,22.48779-54.38916,22.95068-57.04834.33741-3.04541,1.396-11.63232,1.40674-11.71875l.17285-1.40137,29.81836-2.70019Z" fill="#01a0c6" stroke="#000" stroke-width="0.8"/><line x1="4.83667" y1="12.80125" x2="101.23748" y2="12.80125" fill="none" stroke="#595959" stroke-width="0.8" stroke-dasharray="2.8 2.8"/><path d="M60.03221,43.11379c.05781-5.26105.02025-14.75092-.075-18.87271-.1199-5.16435-.34225-7.09027-1.22294-8.19331a1.006,1.006,0,0,0-1.70652.04036l-.73344,4.34281s.39563.41292.46053,4.72394c.04479,3.10406.19056,12.76276.26567,17.96038,0,0,.90389-.0578,1.38023-.05485C58.8758,43.06618,60.03221,43.11379,60.03221,43.11379Z" fill="#fff" stroke="#000" stroke-linecap="round" stroke-linejoin="round" stroke-width="0.8"/><path d="M75.24513,62.63181c-2.25516-4.81634-5.365-12.422-10.346-17.40583-2.76624-2.76328-5.21329-3.38421-7.43962-3.33513-3.62386.0751-6.14749,1.01788-11.85605,9.50288-.67711,1.00487-3.94142,6.58776-4.16821,7.07726a1.32481,1.32481,0,0,0-.13276.8489l-2.2522,5.05895s-.71909.16307-1.20711,1.37c-.46334,1.14783-2.86574,7.16537-3.501,9.09129l.04482.10408s2.45723.32185,3.04046.32185c.58471,0,1.08133.05928,1.22722-.14578.14725-.205.31475-8.01131,3.68581-10.652,3.36839-2.642,12.962-7.26487,22.08364-2.46006,5.96418,3.14294,9.58508,14.1631,10.13239,15.347.5457,1.1839-.02455,1.412-.43465,1.64014a3.23,3.23,0,0,0-1.47841,2.912c.1372,1.77586,2.18582,3.16615,4.441,1.66172a24.81188,24.81188,0,0,0,2.86736-2.2074c.10822-.10837.25978-.24409.41721-.3798-.14444-1.44085-.2123-3.17044-.23965-3.45621A72.89381,72.89381,0,0,0,75.24513,62.63181ZM57.81032,54.51508c-5.7158,0-6.41893-2.2349-5.14115-4.66037A5.58338,5.58338,0,0,1,57.78,46.65811c2.68109,0,4.63157,2.365,5.13982,3.8332C63.53189,52.24839,63.52612,54.51508,57.81032,54.51508Z" fill="#fff" stroke="#000" stroke-linecap="round" stroke-linejoin="round" stroke-width="0.8"/><path d="M75.99009,79.08481A.99163.99163,0,0,0,76.992,78.721c.319-.32037,2.77629-2.41394,2.73167-2.91482" fill="none" stroke="#000" stroke-linecap="round" stroke-linejoin="round" stroke-width="0.8"/><path d="M75.55692,78.0381c.41014-2.52792,1.77586-6.89823-2.11793-14.27575-3.89385-7.3762-10.92779-18.304-15.98245-18.10039-5.053.20506-14.0707,12.09009-16.4601,16.59744-.989,1.86235-3.96165,7.92335-3.21094,12.22565" fill="none" stroke="#000" stroke-linecap="round" stroke-linejoin="round" stroke-width="0.5"/><path d="M77.40212,81.56808A2.1173,2.1173,0,1,1,75.284,79.44865,2.116,2.116,0,0,1,77.40212,81.56808Z" fill="none" stroke="#000" stroke-linecap="round" stroke-linejoin="round" stroke-width="0.5"/><path d="M74.73407,77.8462c.10538.283.52407,1.04671.9874,1.16646.465.11842,1.37743.24113,1.708.70165.32776.465.65685,1.36294.86619,1.69218.21082.3291.7942.70446,1.19692.37537" fill="none" stroke="#000" stroke-linecap="round" stroke-linejoin="round" stroke-width="0.8"/><path d="M45.176,68.67833c-.71746.42445-2.32153,1.26758-3.18921,1.73254-.86634.46777-1.98948.9586-1.99244,2.385a18.38878,18.38878,0,0,0,1.80912,7.92631c1.64724,3.42738,6.4247,7.46993,9.32946,8.50659,4.13646,1.47692,7.87427,1.43212,8.94833.58618,1.07273-.84609,2.54108-4.82077,2.54108-4.82077" fill="#fff" stroke="#000" stroke-linecap="round" stroke-linejoin="round" stroke-width="0.8"/><path d="M69.616,69.52a13.34251,13.34251,0,1,1-16.57142-9.022A13.33938,13.33938,0,0,1,69.616,69.52Z" fill="#fff" stroke="#000" stroke-linecap="round" stroke-linejoin="round" stroke-width="0.8"/><path d="M49.47124,85.244c2.08913-.80854,4.41214-1.62861,5.63064-1.43228a10.65549,10.65549,0,1,0-7.54369-15.7889,13.51542,13.51542,0,0,0-1.16067,3.03767c-.21957.768-1.84948,3.29181-3.17194,5.72009l-.3495-.33486s-.48651.64385-1.038,1.55351c-.16028.27-.88943,1.68627-1.04245,2.01684-.15005.33072-.3594.71037.40863,1.874a39.85181,39.85181,0,0,0,3.89518,4.86838,1.61111,1.61111,0,0,0,1.63154.33634c.42445-.12419,3.45192-1.33973,3.45192-1.33973Z" fill="#ffd900" stroke="#000" stroke-linecap="round" stroke-linejoin="round" stroke-width="0.8"/><path d="M59.745,72.432a3.05049,3.05049,0,1,1-3.78989-2.06445A3.04891,3.04891,0,0,1,59.745,72.432Z" fill="none" stroke="#000" stroke-linecap="round" stroke-linejoin="round" stroke-width="0.8"/><path d="M62.61232,72.88114a5.87131,5.87131,0,0,0-.22383-1.22871,5.80958,5.80958,0,1,0-.28442,4.044s1.422.29878,1.55777.3248c.143.02883.25414.04909.27572-.05485.0275-.12418-.05914-.14148-.1573-.169-.13143-.03607-2.90048-.67134-2.90048-.67134l.45328-2.19454s2.72721.52409,2.85716.54006c.1285.01434.23388.05766.26286-.07806.02158-.10393-.08516-.16307-.27144-.19633C64.03,73.1712,62.61232,72.88114,62.61232,72.88114Z" fill="none" stroke="#000" stroke-linecap="round" stroke-linejoin="round" stroke-width="0.8"/><path d="M43.22558,76.78057c-.2945.57466-1.19544,2.22929-1.47264,2.73889-.2772.50813-.71315.96008.14728,2.30572a33.15693,33.15693,0,0,0,3.6296,4.34133,1.42734,1.42734,0,0,0,1.48845.09669c.45047-.16884,1.92459-.80559,2.453-1.01921" fill="none" stroke="#000" stroke-linecap="round" stroke-linejoin="round" stroke-width="0.8"/><path d="M44.265,80.312a.92171.92171,0,1,1-1.14339-.62654A.92236.92236,0,0,1,44.265,80.312Z" fill="none" stroke="#000" stroke-linecap="round" stroke-linejoin="round" stroke-width="0.5"/><path d="M47.2319,84.20585a.92253.92253,0,1,1-1.14632-.62374A.91975.91975,0,0,1,47.2319,84.20585Z" fill="none" stroke="#000" stroke-linecap="round" stroke-linejoin="round" stroke-width="0.5"/><line x1="59.72766" y1="72.31225" x2="62.62666" y2="72.90568" fill="none" stroke="#000" stroke-linecap="round" stroke-linejoin="round" stroke-width="0.8"/><line x1="59.25265" y1="75.14058" x2="62.10407" y2="75.69646" fill="none" stroke="#000" stroke-linecap="round" stroke-linejoin="round" stroke-width="0.8"/><line x1="61.60881" y1="75.57656" x2="61.71996" y2="75.31961" fill="none" stroke="#000" stroke-linecap="round" stroke-linejoin="round" stroke-width="0.8"/><line x1="62.19216" y1="73.12507" x2="62.21093" y2="72.81609" fill="none" stroke="#000" stroke-linecap="round" stroke-linejoin="round" stroke-width="0.8"/><line x1="60.49865" y1="72.51287" x2="59.88943" y2="75.27334" fill="none" stroke="#000" stroke-linecap="round" stroke-linejoin="round" stroke-width="0.5"/><path d="M59.91675,73.2565a3.05135,3.05135,0,1,1-3.052-3.05216A3.05177,3.05177,0,0,1,59.91675,73.2565Z" fill="#fff" stroke="#000" stroke-linecap="round" stroke-linejoin="round" stroke-width="0.8"/><path d="M38.65894,75.47115c-.18776,1.68774,1.68626,6.08969,1.874,7.12058.18761,1.03089-1.59251,5.90356-2.06178,6.27893a1.33608,1.33608,0,0,1-1.96628-.37537c-.46924-.84313-3.51416-4.82211-2.03857-13.65512Z" fill="#fff" fill-opacity="0.6" stroke="#000" stroke-linecap="round" stroke-linejoin="round" stroke-width="0.8"/><path d="M35.5982,87.03847c2.24939,4.66628,6.66287,7.35594,10.09616,7.255a70.00909,70.00909,0,0,0,19.31593-3.17635,93.88658,93.88658,0,0,0,15.62583-7.27655s.26848-.1545-.013-1.516c-.28163-1.357-.39991-4.44674-.43746-4.8394a72.92262,72.92262,0,0,0-4.91022-14.885c-2.26518-4.81072-5.38671-12.4106-10.37913-17.38572-2.77067-2.76048-5.21772-3.37549-7.44553-3.3236-3.62238.08235-6.146,1.02808-11.83728,9.523-.67563,1.00782-3.93137,6.598-4.158,7.086a1.33808,1.33808,0,0,0-.12848.8489l-2.24362,5.06471s-.71747.16174-1.20549,1.37152c-.488,1.20711-3.12,7.83967-3.57478,9.37574A17.6214,17.6214,0,0,0,35.5982,87.03847ZM52.67494,49.86329A5.5854,5.5854,0,0,1,57.78,46.65811c2.68242-.00577,4.63583,2.35628,5.14691,3.82315.61517,1.75708.61517,4.02229-5.10078,4.03382C52.109,54.5238,51.40144,52.29171,52.67494,49.86329ZM51.12143,64.25746a31.596,31.596,0,0,1,5.81249,6.0378c.40287.5544.87211,1.14355,1.194,1.70223A1.74637,1.74637,0,0,1,58.48314,73.05a1.79368,1.79368,0,0,1-1.77009,1.77867c-1.23728.03326-2.12222-1.8826-2.53088-2.4645a22.65064,22.65064,0,0,0-6.37266-5.92943Z" fill="#ffd900" stroke="#000" stroke-width="1.2"/><path d="M40.20372,83.5317a2.48106,2.48106,0,1,1-2.4846-2.4747A2.48176,2.48176,0,0,1,40.20372,83.5317Z" fill="none" stroke="#000" stroke-linecap="round" stroke-linejoin="round" stroke-width="0.8"/><path d="M53.08638,53.8668A31.70625,31.70625,0,0,0,46.549,51.35041c-.71466-.14148-1.23876.62226-1.23876.62226a2.0255,2.0255,0,0,0-1.61988.71747c-.52262.76522-1.75842,2.77068-1.99526,3.24554a11.61613,11.61613,0,0,0,.19486,3.055s-2.3273,4.34-3.182,6.58363c-.85466,2.24214-3.13288,8.06335-3.32212,8.8747-.18909.81-.04612,1.28636.8115,1.23728a12.91246,12.91246,0,0,1,2.71848-.00429,1.25653,1.25653,0,0,0,1.57229-.81283c.42873-.86057,5.23224-7.30538,8.51811-9.40752a27.9617,27.9617,0,0,1,6.76547-2.97129,1.67448,1.67448,0,0,0,.9991-1.61989s3.05069-.38971,3.09681-1.53325C59.91246,58.2068,59.14727,56.955,53.08638,53.8668Z" fill="#ffd900" stroke="#000" stroke-linecap="round" stroke-linejoin="round" stroke-width="0.8"/><path d="M51.18781,58.01757c1.37021.70313,3.34371,1.669.67282,3.097a36.39067,36.39067,0,0,0-8.38106,6.50113c-.51537.49674-1.28636,1.33691-2.47736.76817-1.19263-.57184-1.62285-.9991-1.19689-2.336.42738-1.33544,3.99048-8.11244,4.41936-8.97154.42578-.859.94988-1.33544,2.33307-.90952A29.18289,29.18289,0,0,1,51.18781,58.01757Z" fill="none" stroke="#000" stroke-linecap="round" stroke-linejoin="round" stroke-width="0.5"/><path d="M38.0627,79.98871a.59122.59122,0,1,1-.59048-.58915A.59118.59118,0,0,1,38.0627,79.98871Z" fill="none" stroke="#000" stroke-linecap="round" stroke-linejoin="round" stroke-width="0.5"/><path d="M59.91675,73.2565a3.05135,3.05135,0,1,1-3.052-3.05216A3.05177,3.05177,0,0,1,59.91675,73.2565Z" fill="#ffd900" stroke="#000" stroke-linecap="round" stroke-linejoin="round" stroke-width="0.8"/><path d="M57.757,17.41781c-.30174-.306-.618,1.05824-.69308,1.66764a7.77048,7.77048,0,0,1-.5442,1.74111c-.12714.30751-.35378.72915-.35378.72915a.966.966,0,0,1,.92548,1.07835c.00577.24837.09965,6.62117.09965,6.62117.25118.02307.42.04332.51685.05485.27146.03179.41424.11842.42.36665.00724.24541.06786,8.70158.05928,9.34114-.00724.63956-.21806.76374-.4895.82584a2.34773,2.34773,0,0,1-.43169.06638s0,.54567.0102,1.24732a1.14886,1.14886,0,0,1-.74644,1.05691.96338.96338,0,0,1-.47073.11266l.00727.33205s.10967.10393.69157.66114a1.63458,1.63458,0,0,1,.57318,1.3659c.04332.3897.156,1.12891.3118,1.86811,0,0,.81578.1675.99038.21082a8.87014,8.87014,0,0,1,1.16084.3523l-.30751,1.29641c-.24985,1.35718-.976,2.9194-2.476,2.954A2.63455,2.63455,0,0,1,54.52,49.48363c-.30024-.7392-.485-1.49141-.93554-2.5569a6.99215,6.99215,0,0,1-.5356-2.21479c-.07661-.55721.12993-.66114.40136-.92977.27427-.27143.63956-.62935.63956-.62935L54.071,42.298a1.28655,1.28655,0,0,1-.98461-.34062,1.18793,1.18793,0,0,1-.35231-.99053c-.01448-.592-.02454-1.07406-.02454-1.07406v.00576a6.4719,6.4719,0,0,1-.74644-.13571c-.10674-.03031-.18761-.169-.19633-.52838-.00577-.35807-.04037-9.06395-.03756-9.45661,0-.39266.09093-.49526.5717-.51685.12714-.00577.26138-.01153.42164-.0173,0,0-.03755-3.02333-.05337-4.87991l.00429-.0173c-.16455-.06653-.2945-.36827-.30171-.73343-.01009-.38557.11975-.71038.29594-.75946l.00148-.026a1.51847,1.51847,0,0,1,.30307-.92977.40964.40964,0,0,1,.27011-.00576,6.08592,6.08592,0,0,0-.12862-1.19973,4.67906,4.67906,0,0,1,.14148-3.091,9.80463,9.80463,0,0,1,1.55646-3.2037,2.07487,2.07487,0,0,1,1.78163-.64828,1.91674,1.91674,0,0,1,1.80321,1.28488c.3696.9688.53133,1.28784.53133,1.28784" fill="#fff" stroke="#000" stroke-linecap="round" stroke-linejoin="round" stroke-width="0.8"/><path d="M57.191,29.25523a18.92484,18.92484,0,0,0-2.18449-.0578c-1.19973.0275-1.83928.03755-2.284.04627" fill="none" stroke="#000" stroke-linecap="round" stroke-linejoin="round" stroke-width="0.8"/><line x1="54.07099" y1="42.298" x2="54.01615" y2="40.03131" fill="none" stroke="#000" stroke-linecap="round" stroke-linejoin="round" stroke-width="0.8"/><path d="M55.14949,40.00529s.0275,1.13483.03607,1.61413c.013.47648.08238.70179.36384.70756.283.00281.5096,0,.5096,0" fill="none" stroke="#000" stroke-linecap="round" stroke-linejoin="round" stroke-width="0.8"/><path d="M55.00224,41.14307s.03755,1.66025.04184,1.85658c.00576.19648.3047.47073.55869.64976s1.41779,1.093,1.58677.23241" fill="none" stroke="#000" stroke-linecap="round" stroke-linejoin="round" stroke-width="0.5"/><line x1="56.06627" y1="42.65903" x2="55.29526" y2="43.02567" fill="none" stroke="#000" stroke-linecap="round" stroke-linejoin="round" stroke-width="0.5"/><path d="M53.24235,21.89205a1.79376,1.79376,0,0,1,.0822.50236c.00576.27439.0275,1.18686.039,1.67488a2.36827,2.36827,0,0,0,.22235,1.12034,1.67235,1.67235,0,0,0,.94854.17327c.45624-.01168.86191-.02026.86191-.02026s.0649-2.08632.08368-2.68833c.02025-.60348.28592-1.18819.68583-1.0986" fill="none" stroke="#000" stroke-linecap="round" stroke-linejoin="round" stroke-width="0.8"/><path d="M52.66917,24.36379c-.00872-.68731-.0102-1.21421-.00872-1.36871.003-.05632.00429-.11265.00872-.1675" fill="none" stroke="#000" stroke-linecap="round" stroke-linejoin="round" stroke-width="0.8"/><path d="M53.35488,23.68668s-.0361,1.50576-.03033,1.832c.0102.32628.08087.4793.29317.488.21215.00429,1.23875-.01878,1.40758-.03326.17623-.01582.35379-.11118.37256-.68288" fill="none" stroke="#000" stroke-linecap="round" stroke-linejoin="round" stroke-width="0.8"/><path d="M55.47429,22.85064a8.49664,8.49664,0,0,1,.143-2.34179c.2426-.51389,1.552-2.22337,1.35717-.97012" fill="none" stroke="#000" stroke-linecap="round" stroke-linejoin="round" stroke-width="0.5"/><path d="M57.266,39.91009s-.54716.06933-2.37343.09816a14.91164,14.91164,0,0,1-2.183-.1097" fill="none" stroke="#000" stroke-linecap="round" stroke-linejoin="round" stroke-width="0.8"/><path d="M57.422,23.49464c.01.42016-.14151.76226-.33932.76522-.19633.00429-.36531-.32924-.37537-.74793-.00857-.4172.143-.75945.34077-.76522C57.24439,22.7439,57.41322,23.07876,57.422,23.49464Z" fill="#fff" stroke="#000" stroke-linecap="round" stroke-linejoin="round" stroke-width="0.8"/><path d="M57.64282,46.55418a3.56867,3.56867,0,0,0,.32347,1.16084" fill="#fff" stroke="#000" stroke-linecap="round" stroke-linejoin="round" stroke-width="0.8"/><path d="M56.25477,27a13.5,13.5,0,1,0-13.5029-13.4991A13.50215,13.50215,0,0,0,56.25477,27Z" fill="#595959"/><path d="M63.31827,5.7329a.51735.51735,0,0,1,.5474.2583c.0854.0986.2964.2558.3276.3896.1167.5415-1.1802,1.7393-1.48969,2.0059-.79791.6845-1.53321,1.4624-2.33351,2.1357a6.86834,6.86834,0,0,0-1.4219,1.3936c-.6152.9004-2.1953.9502-1.7798-.7119.0571-.2232.5781-.3653.7446-.712-.3955-.1836-.89639-.3559-1.2939-.5507-1.583-.7696-1.7617,1.3398-3.1084-.8091-1.16109-1.8501,2.4712-1.6919,3.9146-1.4575a7.19218,7.19218,0,0,1,1.8129.7456c.1431.0659.4131.2685.5865.227V8.6127c.7758-.3881,1.29-1.3305,1.94091-1.8759.26369-.2241.67229-.2881.938-.5161C62.88327,6.0605,63.03507,5.7827,63.31827,5.7329Z" fill="#e5e5e5"/><path d="M47.84567,5.895a1.1747,1.1747,0,0,1,.6147.1616c.7979.4004,1.2241,1.2612,1.877,1.813.6938.583,1.351,1.1684,2.0415,1.7466.3134.2675.5488.6538.872.9062a6.00148,6.00148,0,0,1,1.0679.874.92211.92211,0,0,1,.1602.8755c-.4126,1.1431-1.6519-.1279-2.0718-.3237a4.90075,4.90075,0,0,0,.58641,5.0171c.26369.3437.74709.4473,1.12939.6802a4.35826,4.35826,0,0,0,4.0474-.0313,7.52232,7.52232,0,0,0,1.0063-.939c.3516-.3315.8071-.582.9361-1.1328a6.753,6.753,0,0,0,.163-2.3647c-.0356-.2212-.2465-.5488-.1308-.8096.1279-.291,1.227-1.3374,1.7495-1.1963.2412.0645.4814.7237.5517.9693a6.49915,6.49915,0,0,1,.1275.8091c0,.0273-.0303.1562-.0332.1308-.0415.0386.0972,1.2568.064,1.5215a6.515,6.515,0,0,1-4.5303,5.6323,7.3755,7.3755,0,0,1-5.6323-.7768c-.2964-.2061-.4502-.6016-.712-.8409-.3559-.3305-.9028-.4238-1.1997-.8081a8.8312,8.8312,0,0,1-1.1308-4.1132A7.72829,7.72829,0,0,1,50.08,10.977a9.34262,9.34262,0,0,0,.5474-.9697,15.32534,15.32534,0,0,1-2.2959-2.2988C48.13567,7.4751,46.68058,6.0087,47.84567,5.895Z" fill="#e5e5e5"/><path d="M84.075,180.11868a13.499,13.499,0,1,1-13.5009-13.5A13.50421,13.50421,0,0,1,84.075,180.11868Z" fill="#595959"/><path d="M64.25962,173.57528l-.002-.0054C64.25962,173.588,64.25962,173.585,64.25962,173.57528Z" fill="#d9d9d9"/><polygon points="63.634 188.859 63.64 188.859 63.64 188.852 63.634 188.859" fill="#d9d9d9"/><polygon points="67.225 174.433 67.24 174.44 67.241 174.44 67.225 174.433" fill="#d9d9d9"/><path d="M77.54872,174.44338s.0771-.1299-.06449-.1045a16.23631,16.23631,0,0,1-2.07621.1836c-.0615.2847-.1914.4546-.2421.7168a1.45427,1.45427,0,0,0,0,.3716.80323.80323,0,0,0,.7285.186A2.567,2.567,0,0,0,77.54872,174.44338Z" fill="#d9d9d9"/><path d="M73.59362,177.795c.1191.0952.34961.1699.4004.3428a.97509.97509,0,0,1,.0195.2544c1.0195-.1016,2.2236.0346,3.2188-.1036a5.09369,5.09369,0,0,0,.8017-.1328,5.6162,5.6162,0,0,0,1.2988-2.1157,1.3886,1.3886,0,0,0-.3798-.5259,2.64059,2.64059,0,0,1-.4961-.5952c.04-.126.06931-.2466.11031-.4067.35739-1.3301.08689-2.833-1.22461-2.7149a1.38829,1.38829,0,0,0-.8799.3892c-.0634.0635-.1162.206-.1914.2539-.0947.0625-.2178.0415-.3242.0898a2.102,2.102,0,0,0-.6514.8077,2.06455,2.06455,0,0,0-.2832.7807c-.0136.0718-.06929.1753-.0937.2534a.97193.97193,0,0,1,.6279.0235,12.78153,12.78153,0,0,1,.8047-1.4068c.4404.0811,1.09281-.6713,1.416,0a3.08094,3.08094,0,0,1-.0205,1.3404c-.0478.6513.28031.4609.4941.4765a5.79317,5.79317,0,0,1-.8584,1.0987,2.577,2.577,0,0,1-1.4931.8042c-1.2432.1552-1.6485-1.1529-1.2432-2.3218-.2012.0244-.3017-.106-.53509-.0713-.877.1309-.88281.3564-1.33991.9419-.1933.2495-.372.5044-.5762.7373A3.88542,3.88542,0,0,0,73.59362,177.795Z" fill="#d9d9d9"/><path d="M82.09162,179.42438c-.2675-.4605-1.5537-2.8902-2.0273-2.7837-.2422.0532-.375.5254-.499.7363a6.77917,6.77917,0,0,0-.6485,1.1988c-.0478.3881.2569.5288.36041.7563a2.55475,2.55475,0,0,1,.23239.5557c.0293.1655-.0352.2851,0,.4121a10.11091,10.11091,0,0,0,1.01561,1.6831c.09959.1914.08889.3813.22559.5298.2627-.4419.6192-.7959.8848-1.2427.1992-.3521.3799-.7476.5527-1.104.042-.0947.0508-.2647.1133-.3252C82.34552,179.79888,82.11123,179.45808,82.09162,179.42438Z" fill="#d9d9d9"/><path d="M72.35532,177.99858c-.2959-.4858-.5225-1.0063-1.2324-1.0332-.168.3472-.668,1.043-1.083,1.7412-.01469-.0141-.0323-.0386-.043-.0498.0059-.0386-.0312-.0698-.042-.0991.0049.0195-.0195.0312-.0264.0195-.0527-.0747-.0166.0078-.0869-.0615a2.45214,2.45214,0,0,1-.3466-.5107c-.0684-.0166-.0801-.0894-.1309-.1138l.0088-.002c-.043-.0337-.1973-.3061-.2481-.3491l.003.0147c-.0264-.0147-.0293-.0264-.0284-.042a.03273.03273,0,0,1,.002-.0161l-.0029.0019a.07345.07345,0,0,0-.002-.0405c-.0107.0122-.0234.0107-.0351.0127l.0029-.0176h0l.0156-.0132a2.06069,2.06069,0,0,0-.1601-.4536c.0117-.0088.0136-.0029.0136-.0029a.46967.46967,0,0,0-.07419-.106c.00779-.02.02929-.0278.03809-.0361-.0234.0141-.1387-.2031-.1299-.211l-.0596.0298c-.0175-.042.0616-.0473.02641-.0791-.08691.021-.02641-.0664-.07131-.0571a.03763.03763,0,0,1,.0215-.0327c-.0449.0132-.0185-.0176-.0351-.0244-.0127.0053-.0098.0107-.0245.0195l-.0283-.022c.01171-.0132.0313-.0288.0449-.0215a2.44544,2.44544,0,0,0-.2119-.5058c-.02729.022.0039.0356-.0381.0727-.042-.0053-.0078-.0341-.042-.0293.0713-.0444-.0048-.0546.0655-.1074l-.0469.0142.0205-.02c-.0898-.0704-.02829-.0137-.0654-.0967-.0244-.0401-.0957-.0313-.08889-.0689,0,0-.01761.0254-.03321.02.03321-.02-.042-.018-.00879-.0415-.01171-.0122-.02631-.0473-.06931-.0112.0224-.0195.0166-.0581.0488-.0508-.0058-.0117-.0058-.0263-.0176-.0293l-.0088.022c-.0283-.0361.00491-.0757-.0546-.0771l-.0157.0263c-.0127-.0229-.0263-.0346.0157-.0722l.0351.0156a.17552.17552,0,0,0-.0801-.0786v.0136c-.0683-.0156-.2226-.2031-.2998-.2089l-.0312.0361-.0508-.0107a1.04411,1.04411,0,0,1,.1279-.0435.81687.81687,0,0,1-.1133-.2441c.0118-.0396.0645-.0332.0645-.0332-.0264-.0308-.0449.0034-.0547-.0245l.0361-.0131c-.0078-.0113.003-.0293-.0185-.0186-.0078.022-.05569.04-.085.0605l-.01269-.0322.002-.0049.02729-.0122-.0185.0044c.0039-.0073.0088-.0093.0136-.0176a.147.147,0,0,1-.0839-.0029l-.0069-.0034a.22767.22767,0,0,1-.01559-.0503.4051.4051,0,0,1-.01761-.063.18448.18448,0,0,0-.0302-.0649.05886.05886,0,0,1,.0263.001l.0078-.022c-.02629.0268-.0302-.0152-.039.0039l-.0098-.0039s-.0078-.0054-.0059-.0108l-.0019.0074-.0068-.002c.0048-.0029-.0215-.0273-.0176-.0317-.0088-.0137-.03129-.0484-.0332-.0269,0,0-.0196-.042.00191-.0273a.07375.07375,0,0,1-.01561-.022l-.0029.0098c-.0264-.0298-.0342-.0533-.06349-.0655l.00779.0147c-.0166-.0171-.0361-.0254-.0342-.0425l.02641.0107a.35252.35252,0,0,0-.07811-.0444l-.0166-.0034c-.0127-.022-.0381-.0527-.0401-.0615.00981-.0943-.6465.06-.7314-.045l-.0674-.0747-.249.0391a.68906.68906,0,0,1-.0186-.2769c-.0459-.017-.0195-.0556-.0537-.0742l.0147.002a.45679.45679,0,0,1-.0215-.1494,1.37374,1.37374,0,0,0,.3496-.2408,2.04052,2.04052,0,0,0,.4433-.6098c.0489-.064.05381.0146.0596.0171.0244-.1011-.0195-.0567.0137-.1377.0127-.0205.0244.0132.0244.0293.0068-.0391.0283-.0669.0147-.0762-.0264.0425-.0557.0044-.0899.0093a.58779.58779,0,0,0,.0342-.1026l.0234.0162a1.27872,1.27872,0,0,1,.0059-.3013,1.17438,1.17438,0,0,0-.002-.4448c.0137,0,.0284.0385.042.0795,0-.0283-.0117-.0664,0-.0893-.0215.0483-.0283-.0786-.0351-.042a4.072,4.072,0,0,0-.3164-.3735,1.706,1.706,0,0,0-.2705.0517.91514.91514,0,0,0-.0586-.1592c.1962-.1176.3818-.2495.372-.4272l.0215-.0122-.03809-.0518c-.03321-.0713-.08011-.0771-.05761-.0888l.0645.084c-.0401-.0665.0019-.0337.0283-.0191a.33938.33938,0,0,1-.042-.0801c-.0195-.0073,0,.0152,0,.0318a.56292.56292,0,0,1-.1094-.1026c-.0537-.0605.0264-.0351-.0342-.1074a1.75076,1.75076,0,0,0-1.2519-.6338c-.0108-.0127.0019-.0112.0185-.0166a1.54953,1.54953,0,0,0-.3964.0469.131.131,0,0,1-.0596-.0293c.00881.0059-.166.0483-.3301.1352a2.02564,2.02564,0,0,0-.3144.1871l.0166.0556c-.1094.0845-.0674-.0254-.15729.0713.002.0869-.15131.1582-.15721.2188,0,0-.0449.0454-.0576.0273.0176.043-.03319.064-.0508.1025,0,.0186.01561-.0009.0332-.0034-.01559.0279-.0225.0542-.042.0865-.0234.0234-.0469.0219-.0312-.0176a2.01857,2.01857,0,0,0-.292.8169,2.09855,2.09855,0,0,0,.0908.9214c.0156-.0401-.0313-.1206.00981-.1631.03609.0664.01949.1074.05069.1289-.05069.0508.0342.1636,0,.2402l.0411.0073-.0049.0464c.1836.2788.16011.0034.3037.2642.1015.1377.1992.1387.2412.2222-.002-.0147-.0156-.0572.0225-.0298-.0186.0298.0478.0527.041.0932a.31483.31483,0,0,1,.0361.1485c.0068.0361.082.1098.0244.0825.0283.0254.0547.0566.082.06l-.038-.039c.1084.0766.1611.1445.25.1494l-.0284-.044c.05961.0425.1182.0645.1348.1172l-.0801-.02a.83055.83055,0,0,0,.2188.0698.04968.04968,0,0,0,.0088.0254.09441.09441,0,0,1-.0391.0171c.02441-.0063.0488.1197.044.124l.0439-.0073c.0019.0254-.0508.0142-.0371.0376.0723-.0039-.002.0362.0371.0362-.0049.0024-.0049.0131-.0264.0156.0381-.0034.0117.0122.0186.0156.0097.0015.0127-.0024.0234-.0073l.0196.0136c-.01369.0069-.0372.0157-.0372.0157a.71425.71425,0,0,0,.0176.2788c.0274-.0073.003-.0171.0488-.0288.0264.0044-.0068.0156.0176.0166-.042.0102-.039.0205-.0488.0312a2.41717,2.41717,0,0,0-.5273.2173l-.0528.0083.0098.0293c-.02639.0425.0371.0474-.0156.0557l.0058-.0518c-.01659.0405-.0429.0171-.0762.0108-.0068.0185-.0097.0371-.0273.0488.0205.0044.0225-.0078.0361-.0171.0215.0171.0723.0322.0489.062,0,.0391-.085.0205-.0889.0689l-.001.0161-.0185.0112-.0489-.0356a.08724.08724,0,0,1,.0196-.023c-.0137-.0107-.0381.0039-.0362.0254l.0381.0303c-.0136.0385-.0332-.0122-.0478.018-.0352-.0229-.0186-.0556-.0049-.0771-.0215.0166-.0567.019-.0303.0498-.02929.0102-.0371-.0317-.0664-.0195-.00289.0224.0108.0639-.0234.0673l-.0078-.0058c-.045.0137-.0264.0576-.0381.0942-.01759.0166-.0127-.0073-.0313.0166h-.0058v-.0063c-.0264,0-.0293.0473-.06249.0547l.01749.0039a.07366.07366,0,0,1-.0156.0361c-.0156.0156-.0234.0347-.0527.0381l.0107.0439c-.08589.0928-.1836.2632-.2607.3667l.0019-.0083a6.32044,6.32044,0,0,0-.4589.6592c-.0459.0029-.0674.0376-.0938.0542.0215-.0034.04.0191.0244.0317-.0615.0733.0205.0225-.0293.1084a2.3597,2.3597,0,0,1-.4521.4854c.0078.0747-.0713.1035-.0762.165l-.0088-.0112c-.0195.0571-.2646.2808-.2939.3438l.0088-.001c-.004.0659-.0489.0224-.0928.0415a.12233.12233,0,0,1,.0381.1201l-.0118-.0146a.93072.93072,0,0,1-.0332.1601l-.0244-.0239c.0049.0556-.0556.104-.07519.1264-.05271.0411-.15911.0801-.17871.1778l-.1152-.0205.00391.0156s.03809.0327.10159.0835l-.0079.0156-.0048-.0083a.5988.5988,0,0,0-.0235.1289l-.0117.0142a.585.585,0,0,0,0,.126.72691.72691,0,0,0,.0264.1245l.0156.0019c.0176.044-.0156.0186.0059.0606.0293.0088.0361.0625.0507.0742a1.38712,1.38712,0,0,0-.0234.3047c-.0107.0039-.0107-.001-.0107-.001a.62892.62892,0,0,0,.0195.1035.06127.06127,0,0,1-.042.022c.0244-.0049.0352.2017.03031.2017l.05079-.001c0,.0371-.0586.018-.044.0517.0703.0083-.0019.0616.03321.0733a.03389.03389,0,0,1-.02641.0171c.0342.0029.0069.0161.0176.0263l.0225-.0073.0137.0264-.0293.0136a1.56458,1.56458,0,0,0-.0137.4542c.0205-.0093.0019-.0313.0469-.0445.0293.0181-.0039.0322.0195.0366-.0645.0118-.0107.043-.0791.062h.0361l-.0215.0181c.045.0767.0186.0137.01371.0899.01079.0429.06059.059.044.083,0,0,.02049-.0122.02929-.003-.02929.003.0244.0284-.0069.0357.0049.0093.002.0493.0469.0307-.0225.0054-.02829.0391-.0488.0186,0,.0146-.0059.0264.0019.0376l.01561-.0171c.003.0337-.02631.0566.01269.0747l.0166-.0146c.0059.0234.0108.04-.038.0507l-.0127-.0205a.14925.14925,0,0,0,.0341.0884v-.0112c.0489.0327.0918.228.1495.2598l.0322-.0206.0312.0264-.1035-.0068a3.02479,3.02479,0,0,1,.0332.4594c-.0195.0264-.0566.0064-.0644.0098.0136.0254.03711.0064.03711.0318-.00591.0092-.02931,0-.02931,0,0,.0122-.0078.0239.0058.019.0127-.0156.0528-.0132.0821-.02l-.003.0312-.0263.002s.0771.0097.0615.0459a.8622.8622,0,0,0,0,.167.04952.04952,0,0,1-.0371-.0205s.0019.0175-.0088.0195c.0264-.0122.0215.0225.0215.0225.0801.0219.0205.081.0674.1137l.0976-.0034c-.06439.1533-.1709.4155-.2021.5264l-.0459.0112c.01661.0342-.0127.0532-.002.0967-.0107.0161-.0342.0029-.0371-.0083.0078.0376-.0322.062-.0166.0884l.0127-.001c.01661.06-.082.0586-.06539.125H61.952c.0137.0317-.0322.0439-.04879.0596.00289.0336.041.019.04879.0454-.042-.0035.1973.1728.1904.1958.0137-.0244.0332-.0508.0645-.0352-.01369.0288.3007.1196.2744.1524l.1006-.0074a.0267.0267,0,0,0,0,.0484c-.0078-.0039-.003-.0205,0-.0367l.625.0982c.0654-.0293.0244-.1221.1142-.1436.0108.0171.0157-.0327.04011-.0048-.00691-.0137,0-.024.00289-.0391-.0195.0142-.0293.0234-.0508.0195.0215-.0737.0576-.1445.0713-.2182-.0029-.0474.0879-.0411.0879-.0411l-.03129-.0097.01269-.0435c.0264.0215.0801.0313.087.0518.0195.0039.0087-.0122.0087-.0254l-.0263-.0034c.00491-.0342.0967-.1079.125-.1426,0,0-.0479.0112-.0645-.0264.0039-.0786-.2763-.583-.3193-.7553l.0244-.001c0,.0107,0,.0239-.0068.0273a.02831.02831,0,0,0,.0127-.042l-.0323.0049v-.0049c-.0029-.0107.0196-.0068.01471-.0273.03319-.0068.03609.0166.041.0386.00289-.0191.02149-.0386-.00781-.0454.0107-.0147.0342-.003.04781-.0245-.01071-.0131-.04-.0288-.02141-.0449l.0029-.0029c.0312-.0425-.0508-.0571-.0166-.1006l.0088.0034c.0156-.0141-.0059-.0395.0097-.0639,0,0-.0283.0151-.0312,0,.0176-.0274-.002-.0435.0215-.066l-.0352-.018c.0029-.0948-.0586-.4746-.0683-.5694l.00681.003a4.10235,4.10235,0,0,0-.08111-.5967c.0284-.0264.0215-.0601.0264-.0855-.0137.0181-.0361.0132-.0312.001.00191-.0737-.0225-.001-.0362-.0771a1.49419,1.49419,0,0,1,.0049-.502c-.0469-.0376-.0176-.0903-.042-.1318l.0049.0034c-.0156-.0381.0137-.2944-.0049-.3379l-.0019.0029c-.0293-.04.0156-.04.0293-.0752a.07462.07462,0,0,1-.0831-.0405l.00791.0024a.19884.19884,0,0,0-.02931-.0507,2.00623,2.00623,0,0,0,.3505-.3384c.0166.0083.01181.0107.0147.0185.0205-.0502.0527-.0849.07711-.1328a.50624.50624,0,0,1,.05079.0171c-.0312-.0112.1416-.227.1524-.2236l-.044-.043c.0283-.0405.0635.0357.0791-.0097-.0527-.0723.0606-.0572.0371-.0997a.03679.03679,0,0,1,.041.0069c-.0332-.0362.0069-.0249.0049-.0445-.0029-.0131-.0088-.0058-.0244-.0141l.0078-.0391c.0205.0039.045.0196.0401.0352a3.45448,3.45448,0,0,0,.4209-.4478c-.0362-.0146-.0381.022-.0889-.0024-.00879-.041.03321-.023.0137-.0518.0752.0435.0508-.0366.1328.0069l-.03129-.0352.02839.0064c.01561-.0582.01561-.0665.0195-.0684a.743.743,0,0,0,.0156.1011c.0547-.0337.0156-.0625.1006-.0928.0527.0229-.0137.0493.042.0552-.1338.041-.0225.081-.1533.1342l.07421-.0058-.04491.0283c.08691.1358.039.0264.0341.1611.0186.0796.125.0904.0899.1416,0,0,.04591-.0322.0674-.0161-.0674.0161.0498.0396-.0108.065.0069.0176.0069.0844.0899.0395-.043.0235-.0557.0835-.0987.0572-.00189.0205-.0107.0434.0118.0517l.0214-.0312c.0176.0615-.0507.1113.0362.1377l.0342-.0328c.0117.0352.01851.0699-.0684.1036l-.0352-.0372a.20827.20827,0,0,0,.0723.1436v-.0166c.0957.0493.2051.3872.3164.4233l.0693-.0371.0606.041c0-.0087-.2266.0206-.2022.0093a4.58546,4.58546,0,0,1,.0889.814.12339.12339,0,0,1-.1133.0312c.0196.0469.0664.0088.0645.0542-.0137.0162-.0576.0098-.0576.0098s-.0244.0337.0127.0288c.02051-.0264.1084-.0332.1611-.0576v.0576l-.0547.0112c0,.0108.1514.0025.127.0611a.34672.34672,0,0,0,.0019.0635l-.1846-.0074c.002-.0161.0069-.0322.0166-.0361-.0244,0-.0429.0347-.0292.0518l.0595.0083c.0196.0361-.03709.0058-.0332.0444-.0478,0-.0576-.0371-.0625-.0684-.0078.0298-.041.0542.0117.0684-.0244.0244-.0625-.0044-.0859.0244.0156.0244.0557.0576.0293.082l-.0098-.0009c-.05369.059.07131.1035.0186.1591l-.0186-.0112c-.0302.0195.002.063-.0273.1016.0078-.0117.0459-.0205.0498.0039-.03319.0449-.002.0761-.0449.1015l.0449.0323c-.0156.1484.0244.5879.0244.7363l-.0068-.0059a7.02148,7.02148,0,0,0,.08.9493c-.0507.0312-.0429.0815-.0605.1191.0225-.022.0508-.0088.0508.0063-.0108.1167.0293.0093.0488.128a2.37754,2.37754,0,0,1-.1016.7758c.0665.0689.0118.146.0508.2115l-.0175-.0088c.02241.0742-.0704.4556-.0459.5351l.0078-.0107c.04.0698-.0371.0591-.0616.1094a.11961.11961,0,0,1,.12211.0849l-.01761-.0014a.805.805,0,0,1,.0821.1728l-.045-.0058c.0108.0097.0069.0234.0108.0356-.0195.0083-.0401.0191-.0352.0327l.0508.02v.021c-.0127-.0019-.0283-.0048-.0322.0181-.05369-.0156-.0498-.0532-.0479-.0845-.0127.0264-.0586.0381-.00579.0689-.02831.018-.06351-.0239-.09571.0014.01171.0254.0508.0674.0136.0821l-.0107-.0049c-.0684.042.0684.0215,0,.0591l-.0127-.0132c-.0342.0093-.0078.0625-.0508.084.0137-.0039.0528-.002.0528.0195-.045.0293-.02349.0679-.0713.084l.042.04c-.0577.1392-.1641.6963-.2041.8345l-.0059-.0054c-.042.2183-.3564.6187-.3584.8594-.0586.0156-.0635.0635-.0879.0952.0244-.0122.0567.0093.0508.02-.04.104.0322.0176.0156.1329a1.45564,1.45564,0,0,1-.2334.5903c.0508.0776-.0263.1348,0,.2104l-.0156-.0136c.0049.0688-.1768.4023-.1768.4795l.0166-.004c.0264.0752-.0498.0416-.0888.0865a.12685.12685,0,0,1,.1054.1093l-.0166-.0083c.003.0362-.1826.1055-.1884.1641l-.045-.0176c.03131.0547-.01269.1304-.0195.1626-.042.064.04.2193.0664.334l-.14259.0191.01079.0151s.2021.082.4668.1797l-.1963-.0318c-.0322.1797-.1758.8165-.1856.9844l-.05369.0264c.03419.0415,0,.0713.02349.1221-.0069.0253-.045.0107-.0498-.0039.02631.0458-.0196.0859.0048.1147l.0166-.0068c.04591.0766-.0869.0952-.0429.1738h.00581c.02929.0327-.02631.0591-.04291.082.0166.041.0586.0132.0771.0454-.0527.0078-.0234.0415-.0215.0801.0108-.0376.0264-.0762.07231-.0703-.01071.0474.05079.0186.02639.0596l-.0616-.0059c-.0156.0176-.00779.061.0088.0625,0,0,0-.0205.002-.0425l1.7256.1089c.0771-.0508,1.46681.043,1.581-.0132.0156.0215.0049-.0434.05081-.0136-.02151-.0118-.01071-.0313-.00781-.042-.0186.0156-.0381.0361-.0615.0346.0029-.0986-.1895-.3354-.1963-.4321-.0196-.0581.10061-.0615.10061-.0747l-.043-.0034-.79391-.2515c.0263.0015.0136-.0185.0205-.0371-.0137.0068-.045.0166-.0528.0024,0-.0459.03421-.0083.0508-.059,0,0-.05859.0263-.0879-.0157-.01369-.0835-.38769-.311-.5762-.4697.0049-.0049.0069-.0132.0157-.0146-.0137-.0118-.0157-.001-.0274-.003-.0127-.0171-.042-.0547-.0185-.0654.01071-.0273.0693.02.0859-.0122.0967-.1777.0264-.4189.0752-.6079.01661.0015.01661.0054.01661.0054.00489-.0567.02929-.1026.02929-.1617a.2768.2768,0,0,1,.0693,0c-.0361-.0039.0567-.2998.0703-.3007l-.08-.0279c.0156-.0571.0927.0083.0927-.041-.1044-.0615.0401-.0854-.0127-.1216a.05137.05137,0,0,1,.0528-.0117c-.0596-.0249-.0069-.0303-.01369-.0478-.01271-.0132-.02151-.0025-.03911-.0025l-.0087-.0405c.0214-.0137.0615-.0054.0615.0141a2.95255,2.95255,0,0,0,.2656-.6411c-.0527,0-.0322.044-.1064.0293-.0284-.0381.0293-.0341-.0088-.0634.1093.0273.04291-.0489.1572-.0308l-.0576-.0283.04-.002c-.0215-.1391-.0195-.0376.02931-.1401.01269-.0615-.06251-.1221-.02051-.1406,0,0-.0449.0029-.0547-.0186.0547.0186-.0244-.0547.0323-.0449.00191-.0191.0224-.0664-.0567-.0737.0371.0053.0703-.0323.0899.0009.01171-.0141.0263-.0239.01171-.0405l-.02441.0107c.0058-.0542.163-.1328.1093-.186l.0537.1592c.0069-.0337-.0771-.2119-.0058-.1968l.0146.0391a.19723.19723,0,0,0-.0048-.1397l-.0079.0147c-.05269-.0782.0704-.2315-.0048-.3111l-.0616.0083-.0312-.059a1.14173,1.14173,0,0,1,.1513.0761,4.55047,4.55047,0,0,1,.1905-.6162c.0029.0005.0107-.0005.0029.0054.0137-.0073.03321-.0083.0381-.0205l-.0215.0049c.01761-.0088.0215-.0176.0342-.0235a.17211.17211,0,0,1,.0537.0196.04342.04342,0,0,0-.0225-.0425.09873.09873,0,0,0,.0225-.0132.17392.17392,0,0,1,.0234.0112c-.0048-.0141.002-.0205-.0048-.0268.0136-.0098.0244-.024.04-.0215l-.0234.0278a.27347.27347,0,0,0,.0869-.0976l-.0137.0146a.94574.94574,0,0,0,.0889-.1816.38936.38936,0,0,0,.02341-.1866l-.01951.0191a.16313.16313,0,0,0-.0088-.0435l.0439.0327c0-.0107.002-.0288.002-.0483l.0137.001v-.0288c.0244-.0303-.0235-.0484.0195-.0459l-.00879.0459c.01369-.0303.03609-.0064.05759.0107a.084.084,0,0,1,.0225-.039c-.0127-.0079-.0157.0019-.0274.0068-.01269-.0161-.05269-.0449-.0283-.064.0049-.0342.0693,0,.0791-.0395a3.09324,3.09324,0,0,0,.10651-.6045c.02439-.002.01849.0054.01849.0054a1.24661,1.24661,0,0,0-.0107-.1695.37842.37842,0,0,1,.0674-.0239c-.03719.0107-.0215-.313-.0108-.314l-.0791-.0107c.002-.0615.0899-.0127.0723-.0723-.1055-.0278.0195-.0893-.0391-.1157a.05663.05663,0,0,1,.0508-.023c-.0615-.0112-.0117-.0307-.0264-.0463-.0185-.0074-.0185.0014-.0381.0053l-.0175-.039c.0175-.0108.0556-.0147.0615-.0025a3.537,3.537,0,0,0,.07321-.4013c.07819.0952.167.2412.24319.2617l.0527-.0376.0576.0303a1.01472,1.01472,0,0,1-.1738.0175,3.69379,3.69379,0,0,1,.1738.6802c-.0244.0405-.0898.0293-.0898.0293.0244.0405.0557.0044.0586.0435-.0078.0117-.0459.0117-.0566.0053.0126.0147-.004.0337.0244.0303.0156-.0278.0898-.0395.1328-.0566l.0058.0493-.0459.0097c.002.0083.1299-.0083.12021.0445,0,.0835.03409.1621.04189.2456a.09227.09227,0,0,1-.0683-.0195c.0019.0131.0127.0263-.0029.0419.042-.0312.039.022.0556.0049.126.0254.0391.1284.1328.1607l.0723-.0254a.10775.10775,0,0,1,.0107.0303c.0157.0253.00691.0327.00691.0327a1.00976,1.00976,0,0,0,.06439.0864c-.0156.2056-.0058.6519-.0136.7764l-.0049-.0074c0,.2227-.2178.6822-.16989.9141-.05281.0288-.04981.0796-.06451.1143.02251-.0186.0557-.0078.0537.0063-.0176.1162.0352.0122.042.1265a1.40035,1.40035,0,0,1-.1016.6284c.07041.0679.0059.1411.0469.206l-.0166-.0107c.0186.0693-.08789.4273-.0693.5083l.0107-.0107c.0391.0698-.04.0527-.07129.1015a.14619.14619,0,0,1,.12989.084l-.0215-.001c.0157.0371-.1533.1451-.14839.1978l-.04591-.0083c.04591.0508.0127.1357.0176.1655-.0264.0737.0888.2095.1377.315l-.1377.0468.0127.0113s.0742.0131.1855.0302c-.0371.1919-.0898.4341-.0986.566l-.0537.0263c.0332.044,0,.0786.02441.128-.00781.0292-.03911.0146-.05081.0014.0244.044-.0195.0943.00881.1221l.01269-.0122c.043.0771-.0869.1084-.0459.1845h.0068c.02641.0352-.0263.0694-.0478.0938.0195.041.0654.0088.0791.043-.0557.0097-.0205.0429-.0205.0786.0107-.0366.0263-.0806.0742-.0689-.0108.0445.0508.0108.02341.0586l-.05761-.0009c-.0195.017-.0117.0595.0068.0576v-.042l2.4463.1162c.0772-.0567.6153.001.72951-.063.01659.0181.01169-.0464.05369-.0171-.0156-.0117-.01069-.0337-.0078-.0508a.08156.08156,0,0,1-.0635.0415c.003-.0991.0313-.2055.0274-.3032-.0166-.064.0986-.0859.0986-.0859h-.039v-.0601c-.1328-.0698-.0157.0796-.19339-.0366.02049.0029-.17871-.0996-.16991-.1216-.0088.0064-.04009.0191-.0537.0064.0049-.0474-.2979-.0874-.2715-.1426a1.89684,1.89684,0,0,1-.4141-.1934c-.0146-.0732-.2685-.1377-.4453-.208l-.0039-.0244c.02641-.0273-.0244-.0474.0186-.043l-.0108.043c.0215-.0273.042-.0039.0664.0103a.04962.04962,0,0,1,.0244-.0313c-.0136-.0107-.0166.001-.0166.001-.0234-.0142-.0634-.0425-.039-.0601.0029-.0312.0703.0059.0801-.0303.0546-.1928-.0674-.414-.0596-.6123.0215.001.0215.0049.0215.0049a1.01864,1.01864,0,0,0-.0088-.164.19292.19292,0,0,1,.0683-.0147c-.038.0064-.0088-.2988.002-.3091l-.07909-.0107c.00489-.0567.09469-.0083.07909-.0635-.1123-.0332.0156-.0869-.03709-.1147a.04951.04951,0,0,1,.05269-.0171c-.0664-.0181-.01269-.0313-.0264-.0474-.0224-.0083-.0224.0025-.0419.0039l-.0196-.0386c.0215-.0131.0586-.0131.0635.0054a2.71267,2.71267,0,0,0,.126-.6792c-.0489.0064-.0196.044-.0996.0493-.0371-.0346.0224-.0429-.0244-.059.1181-.0025.0361-.0601.1523-.0723l-.0635-.0122.0401-.0098c-.0508-.1338-.0274-.0332-.003-.1387-.0019-.0683-.0849-.1088-.0508-.1386,0,0-.039.0132-.0527-.0034.0527.0034-.0371-.0499.0186-.0508-.0049-.0171.0078-.0699-.0694-.0601.03811-.0063.0596-.0498.0909-.0176,0-.0175.0156-.0312,0-.041l-.0245.0132c-.0068-.0527.1329-.1626.0664-.2061l.0889.1421c0-.0322-.123-.1855-.0459-.1914l.0186.0371a.177.177,0,0,0-.03129-.1352l-.00581.0146c-.0713-.0678.0185-.2382-.0713-.2968l-.0596.0166-.0439-.0484c-.002.0049.1884.0405.166.0405a3.61722,3.61722,0,0,1,.0615-.6801c.03811-.0376.0937.0009.0937.0009-.0087-.0458-.0488-.0224-.0429-.06.0136-.0112.0449.0058.0556.0122-.0087-.0171.01371-.0283-.0127-.0303-.0224.0156-.0957-.0024-.1445.001l.0137-.0435.0459.0049c.0029-.0093-.125-.0385-.0908-.0844.0263-.0738.0185-.1631.04-.2403.0244.0034.03711.0215.0537.0435.0049-.0132-.0029-.0288.0176-.0362-.0537.0142-.0293-.0376-.0498-.0253a.106.106,0,0,1-.0322-.0357c.0019-.0044.0087-.0098.00581-.0151l-.00681.0127-.0029-.0025c.0175-.0449.038-.0752.0302-.1079l-.0156.0181c.0078-.0342.0107-.0606.0313-.0723l.0029.0361a.44941.44941,0,0,0,0-.1352l-.0029.0181c-.0049-.0254-.0157-.0884-.0333-.1558.0049-.0151.0049-.0298-.0068-.0371l-.0068-.0015-.0059-.0088a.08108.08108,0,0,0-.0137-.0351.065.065,0,0,1,.0665.0473c.0029-.0297.0322-.0664-.0264-.0629.0127-.0289.0615-.0152.0771-.0489-.0185-.0195-.0742-.0351-.0507-.0664l.0087-.0054c.0372-.0737-.1015-.0683-.0615-.1411l.0195.002c.0264-.0283-.0263-.0547-.00289-.0982-.00881.0108-.04291.0328-.05661.0132.0234-.0508-.0127-.0713.01561-.1113l-.05571-.0132c-.0234-.146-.1904-.5264-.2304-.6714l.0068.0039a5.45005,5.45005,0,0,0-.30269-.8672c.04289-.0463.01949-.0922.02239-.1337-.0136.0263-.0537.0341-.0556.0185-.0196-.1162-.0362,0-.084-.1103a2.08394,2.08394,0,0,1-.126-.751c-.0889-.0386-.05079-.1338-.1152-.1782l.0185.0009c-.0429-.059-.0625-.4414-.1064-.5092l-.0049.0107c-.0625-.0532.0225-.0654.0293-.123a.12413.12413,0,0,1-.1514-.0362l.0157-.0014c-.0196-.0254-.1055-.0845-.1329-.1329l.0479-.0107a.10954.10954,0,0,1-.0527-.0757l.1884-.0342a.0575.0575,0,0,1-.0156.0474c.0332-.0122.0498-.0532.0264-.0669l-.0752.0112c-.0283-.04.043-.0229.0312-.0639a.06972.06972,0,0,1,.0938.0566c.0029-.0312.0478-.0722-.0264-.0722.0264-.0352.0772-.0147.1016-.0567-.0225-.021-.0821-.0449-.0508-.0791l.0127-.0078c.0566-.082-.1065-.0908-.0469-.1685l.0205.002c.0332-.0332-.0156-.0679.0157-.1187-.0088.0157-.0557.0347-.0665.0108.0352-.0576-.0068-.083.0381-.127l-.0654-.0239c-.0029-.1431-.0967-.6001-.1465-.8564l.0235-.0127a.63161.63161,0,0,0,.05071.082c-.00681.0107-.01171.0098-.01171.0098.0342.0312.05571.0698.0938.0991a.07178.07178,0,0,1-.0244.043c.0195-.0225.1718.1835.1699.1884l.04-.0293c.0313.0415-.0342.0508.0049.0782.0586-.0289.0371.0625.0752.0566a.02349.02349,0,0,1-.01369.0298c.03519-.0156.02349.0156.03809.022.0147-.0064.0098-.0123.0098-.0123l.0342.0059a.06082.06082,0,0,1-.0157.0327,2.37331,2.37331,0,0,0,.3115.4756c.0127-.0264-.0156-.0347.0108-.0747.0312.0024.0088.0352.04.0205-.0459.0566.0196.0566-.0215.1148l.0342-.0181-.0166.0239c.0987.0581.03321.0078.084.0835.0391.0425.0889.0308.0947.064,0,0,.0049-.0254.0264-.0196-.0264.0196.03811.0137.0166.0425.0127.0073.0303.0484.0547.0025-.0068.0214.0107.0615-.0205.0527,0,0,.0068.0244.0244.0293v-.0215c.0283.0313.0205.0723.0693.0698l.002-.0219c.01761.0195.0342.0366.0049.0703l-.0235-.0147a.20834.20834,0,0,0,.0869.0723l-.0068-.0132a1.06627,1.06627,0,0,1,.2168.1348.961.961,0,0,0-.0371.5219,8.5987,8.5987,0,0,0,.626.7378c.1767.2246.3818.4673.56541.7159-.00781.0312-.02251.0634.01069.0918l.0079-.0064c.0293.0205,0,.0557-.0049.0767.02631.0288.0469-.0078.06831.0102-.01071.0083.01469.0122.05079.0161.0205.0367.0557.0718.07421.1079.14649.25.12019.6499.39069.7613a.48079.48079,0,0,0,.3242.0224,18.35646,18.35646,0,0,0,1.6152-3.7524C73.14442,178.65778,72.57212,178.37308,72.35532,177.99858Zm-7.4824,6.2451a.11859.11859,0,0,1,.0176-.0215.11171.11171,0,0,1,.0088.0298Zm1.4238,1.065-.0019.0009.0019-.0009Z" fill="#d9d9d9"/><path d="M78.38172,179.26128c-.9112.0376-2.1416-.0347-3.086-.0264-.333.0039-1.2089-.0395-1.4316.1773-.125.1245-.1113.6679-.1621.873-.0801.2901-.26079.5083-.3506.7954-.2246.729-.3398,1.4287-.6006,2.0913a1.13738,1.13738,0,0,0-.1465.4776.32767.32767,0,0,0,.2901.2949c.2832.0469.5224-.0605.7451.1016l4.2832-.0357a2.40428,2.40428,0,0,0,1.2578-.1167c.3652-.1064.7119.0904.8574-.2734.32331-.7974-1.0722-2.7852-1.3232-3.335C78.57012,179.97908,78.50962,179.58258,78.38172,179.26128Z" fill="#d9d9d9"/><path d="M15.14531,145.16018A13.50611,13.50611,0,0,0,1.78815,156.69773c.35667-.00941.74417-.02149.83809-.03488a9.92835,9.92835,0,0,1,2.07171-.1301c.07649.00673.15826.01881.24813.0335a2.3661,2.3661,0,0,0,.61413.0309,2.38933,2.38933,0,0,0,.63693-.21188,2.82257,2.82257,0,0,1,.35269-.14617,1.27722,1.27722,0,0,1,.26955-.05094,1.23586,1.23586,0,0,0,.43576-.1207,3.47449,3.47449,0,0,0,.61956-.822,5.36442,5.36442,0,0,1,.657-.9051,6.207,6.207,0,0,1,1.13044-.74156,9.66932,9.66932,0,0,0,.96552-.61145,5.19115,5.19115,0,0,0,.89439-.99772,5.99841,5.99841,0,0,1,.69995-.82066,4.35665,4.35665,0,0,1,2.79721-.86356c.25479-.02685.5176-.04827.79923-.08445.2977-.03357.61283-.09392.91321-.15152.28829-.055.55914-.10862.80459-.13684a3.956,3.956,0,0,1,2.32114.4828,5.10816,5.10816,0,0,0,1.2766.4532c.067.01208.1448.02149.22527.03488.39292.059.98426.15022,1.12906.37548a.72022.72022,0,0,1-.15421.81125c-.57527.65038-2.01274.78447-3.07479.58331a1.316,1.316,0,0,1-.27758-.10992.88145.88145,0,0,0-.60472-.14617.85792.85792,0,0,0-.3299.2105.96018.96018,0,0,1-.20384.14885,4.72213,4.72213,0,0,1-1.79956.2199l.00535.00268-.012-.00268h.00666a1.49888,1.49888,0,0,0-.67854.01346c-.24668.14617-.39155,1.08079-.60472,2.59474a12.46931,12.46931,0,0,1-.27758,1.60108,6.03962,6.03962,0,0,1-1.30613,1.96983c-.17164.20253-.35667.41166-.52158.62223-.04559.05767-.08988.10058-.12874.14617a.98486.98486,0,0,0-.24.32715l-.03357.07648.06845.051a1.77342,1.77342,0,0,1,.834,1.77807l-.00941.06035.05232.03893a1.10784,1.10784,0,0,1,.40226.69192c.03756.12736.07779.27222.13951.4291a2.86045,2.86045,0,0,0,1.91484,1.42,2.293,2.293,0,0,0,1.08484.03083,1.12872,1.12872,0,0,0,.49213-.24271l.11-.08712-.11267-.07916a3.81365,3.81365,0,0,0-1.231-.42911c-.92254-.21318-1.78878-.413-1.64268-1.349a.641.641,0,0,1,.16766-.42643c.2749-.24943,1.65469.0644,2.31847.21723.19045.04023.35269.08047.472.10058a9.09043,9.09043,0,0,0,1.0889.08047c.936.0322,2.0932.07106,2.38149.56992a.899.899,0,0,1-.1126.85415,1.869,1.869,0,0,1-.9695.84881,2.42018,2.42018,0,0,1-1.12377-.07642c-.14885-.0322-.28424-.06165-.42238-.08046l-.06838-.00941-.0335.05767c-.59272,1.00843-1.35034,1.04729-2.48613,1.109-.3634.02012-.78447.04559-1.227.10725a6.38651,6.38651,0,0,0-.9038.20116,4.66581,4.66581,0,0,1-2.07584.21991,8.84438,8.84438,0,0,1-1.699-.535A9.60765,9.60765,0,0,0,8.226,165.43a2.85089,2.85089,0,0,0-1.48443.19176c-.15825.04964-.30175.09921-.43982.13278-.37411.08712-.77643.1542-1.16531.22657-.232.04291-.75357.07511-1.24838.11939a13.49766,13.49766,0,1,0,11.25723-20.94029Z" fill="#686166"/><path d="M18.40252,162.63276a9.09043,9.09043,0,0,1-1.0889-.08047c-.11932-.02011-.28156-.06035-.472-.10058-.66378-.15283-2.04357-.46666-2.31847-.21723a.641.641,0,0,0-.16766.42643c-.1461.936.72014,1.13578,1.64268,1.349a3.81365,3.81365,0,0,1,1.231.42911l.11267.07916-.11.08712a1.12872,1.12872,0,0,1-.49213.24271,2.293,2.293,0,0,1-1.08484-.03083,2.86045,2.86045,0,0,1-1.91484-1.42c-.06172-.15688-.102-.30174-.13951-.4291a1.10784,1.10784,0,0,0-.40226-.69192l-.05232-.03893.00941-.06035a1.77342,1.77342,0,0,0-.834-1.77807l-.06845-.051.03357-.07648a.98486.98486,0,0,1,.24-.32715c.03886-.04559.08315-.0885.12874-.14617.16491-.21057.34994-.4197.52158-.62223a6.03962,6.03962,0,0,0,1.30613-1.96983,12.46931,12.46931,0,0,0,.27758-1.60108c.21317-1.51395.358-2.44857.60472-2.59474a1.49888,1.49888,0,0,1,.67854-.01346,4.72213,4.72213,0,0,0,1.79956-.2199.96018.96018,0,0,0,.20384-.14885.85792.85792,0,0,1,.3299-.2105.88145.88145,0,0,1,.60472.14617,1.316,1.316,0,0,0,.27758.10992c1.062.20116,2.49952.06707,3.07479-.58331a.72022.72022,0,0,0,.15421-.81125c-.1448-.22526-.73614-.31651-1.12906-.37548-.08047-.01339-.15826-.0228-.22527-.03488a5.10816,5.10816,0,0,1-1.2766-.4532,3.956,3.956,0,0,0-2.32114-.4828c-.24545.02822-.5163.08184-.80459.13684-.30038.0576-.61551.118-.91321.15152-.28163.03618-.54444.0576-.79923.08445a4.35665,4.35665,0,0,0-2.79721.86356,5.99841,5.99841,0,0,0-.69995.82066,5.19115,5.19115,0,0,1-.89439.99772,9.66932,9.66932,0,0,1-.96552.61145,6.207,6.207,0,0,0-1.13044.74156,5.36442,5.36442,0,0,0-.657.9051,3.47449,3.47449,0,0,1-.61956.822,1.23586,1.23586,0,0,1-.43576.1207,1.27722,1.27722,0,0,0-.26955.05094,2.82257,2.82257,0,0,0-.35269.14617,2.38933,2.38933,0,0,1-.63693.21188,2.3661,2.3661,0,0,1-.61413-.0309c-.08987-.01469-.17164-.02677-.24813-.0335a9.92835,9.92835,0,0,0-2.07171.1301c-.09392.01339-.48142.02547-.83809.03488a14.624,14.624,0,0,0-.14082,1.96447,13.42458,13.42458,0,0,0,2.24075,7.43827c.49481-.04428,1.01639-.07648,1.24838-.11939.38888-.07237.7912-.13945,1.16531-.22657.13807-.03357.28157-.08314.43982-.13278A2.85089,2.85089,0,0,1,8.226,165.43a9.60765,9.60765,0,0,1,1.43616.46934,8.84438,8.84438,0,0,0,1.699.535,4.66581,4.66581,0,0,0,2.07584-.21991,6.38651,6.38651,0,0,1,.9038-.20116c.44249-.06166.86356-.08713,1.227-.10725,1.13579-.06172,1.89341-.10058,2.48613-1.109l.0335-.05767.06838.00941c.13814.01881.27353.04826.42238.08046a2.42018,2.42018,0,0,0,1.12377.07642,1.869,1.869,0,0,0,.9695-.84881.899.899,0,0,0,.1126-.85415C20.49572,162.70382,19.33851,162.665,18.40252,162.63276Z" fill="#d9d9d9"/><polygon points="16.049 152.999 16.044 152.997 16.037 152.997 16.049 152.999" fill="#d9d9d9"/><path d="M20.99321,153.20187a1.70513,1.70513,0,0,0-.59937.16354,2.23064,2.23064,0,0,1-.48946.15962,10.81522,10.81522,0,0,1-1.14787.09386c-.33388.01606-.64228.02815-.928.067l-.08315.0094a6.4447,6.4447,0,0,0-1.79551.39959.94276.94276,0,0,0-.49481.63967.83205.83205,0,0,0,.173.72412c.19038.2333.32179.25341.6611.31514.063.012.14074.02279.22121.04153a3.88749,3.88749,0,0,1,.40233.10326,4.14322,4.14322,0,0,0,.68924.15153,9.58834,9.58834,0,0,0,2.90315-.23872c.28561-.05493.55646-.10724.82333-.14885a2.35772,2.35772,0,0,1,.30168-.02677.947.947,0,0,0,.43988-.0872,1.01,1.01,0,0,0,.46934-.72007,1.51121,1.51121,0,0,0-.33258-1.16531A1.35771,1.35771,0,0,0,20.99321,153.20187Z" fill="#d9d9d9"/><path d="M22.98988,157.24884c-.17164-.62492-.81262-.90648-1.75933-.77912a1.66616,1.66616,0,0,0-.362.10862,1.808,1.808,0,0,1-.34864.11664,13.17542,13.17542,0,0,1-3.36583.06578c-.10724-.00941-.22258-.02685-.3312-.04024-.68251-.0966-1.32617-.181-1.74724.2655-.2736.291-.3621.5404-.2736.76566.15421.39958,1.04063,1.11437,5.22169,1.42813l.17033.01338a4.64451,4.64451,0,0,0,1.758-.07106A1.70539,1.70539,0,0,0,22.98988,157.24884Z" fill="#d9d9d9"/><path d="M20.729,159.93338l.055-.01606c-.03618-.00268-.29769,0-.50552.0094-.37411.00666-.64633.01744-.7268.00666-.3728-.03748-.75762-.07106-1.17066-.10724-.70669-.05362-1.44282-.11267-2.16564-.2186a2.52744,2.52744,0,0,1-.43309-.1113,2.047,2.047,0,0,0-.93064-.11259.883.883,0,0,0-.71073.70263.91349.91349,0,0,0,.30174.98557,11.36083,11.36083,0,0,0,3.93438.98694,3.81292,3.81292,0,0,0,.66109-.012,2.55051,2.55051,0,0,1,.77369.012,1.641,1.641,0,0,1,.37013.14219,1.15725,1.15725,0,0,0,.78983.15015,1.58084,1.58084,0,0,0,1.00163-.76834.934.934,0,0,0,.13683-.99635A1.5578,1.5578,0,0,0,20.729,159.93338Z" fill="#d9d9d9"/><polygon points="11.489 116.786 7.025 126.829 2 124.597 6.793 139.181 6.793 139.181 20.824 132.961 15.805 130.732 20.267 120.689 11.489 116.786" fill="#fff" stroke="#fff" stroke-linecap="round" stroke-linejoin="round" stroke-width="4"/><rect x="15.34201" y="110.95492" width="3.71958" height="9.60845" transform="translate(-95.54332 84.3805) rotate(-65.99503)" stroke-width="4" stroke="#fff" stroke-linecap="round" stroke-linejoin="round" fill="#fff"/><rect x="17.96647" y="107.13891" width="1.8615" height="9.60834" transform="translate(-91.06694 83.72532) rotate(-66.02612)" stroke-width="4" stroke="#fff" stroke-linecap="round" stroke-linejoin="round" fill="#fff"/><polygon points="11.489 116.786 7.025 126.829 2 124.597 6.793 139.181 6.793 139.181 20.824 132.961 15.805 130.732 20.267 120.689 11.489 116.786" fill="#252525"/><rect x="15.34201" y="110.95492" width="3.71958" height="9.60845" transform="translate(-95.54332 84.3805) rotate(-65.99503)" fill="#252525"/><rect x="17.96647" y="107.13891" width="1.8615" height="9.60834" transform="translate(-91.06694 83.72532) rotate(-66.02612)" fill="#252525"/></g></g></svg>