<svg xmlns="http://www.w3.org/2000/svg" xmlns:xlink="http://www.w3.org/1999/xlink" viewBox="0 0 169.01262 192.83222"><defs><linearGradient id="linear-gradient" x1="-953.70738" y1="1299.21702" x2="-957.54882" y2="1312.27566" gradientTransform="matrix(-0.5276, 0.51146, -0.14649, -1.84164, -246.37831, 3012.83757)" gradientUnits="userSpaceOnUse"><stop offset="0" stop-color="#fff"/><stop offset="1" stop-color="#fff" stop-opacity="0"/></linearGradient></defs><title>MAESTRO-Pe06-rapport-mouflage-3</title><g id="Calque_2" data-name="Calque 2"><g id="Calque_1-2" data-name="Calque 1"><line y1="24.27133" x2="112.9782" y2="24.27133" fill="#fff" stroke="#000" stroke-miterlimit="10" stroke-width="0.6"/><path d="M29.05464,166.64313V82.29888a8.58485,8.58485,0,0,1,16.2378-3.88845l37.84425,81.7779,4.01505-1.86915L49.27314,76.47093a13.01251,13.01251,0,0,0-24.646,5.828v84.34425Z" fill="#34b3d1" stroke="#000" stroke-linecap="round" stroke-width="0.6"/><path d="M47.19811,77.52891a10.68388,10.68388,0,0,0-20.24366,4.76953" fill="#34b3d1" stroke="#000" stroke-linecap="round" stroke-width="0.6"/><path d="M29.1066,83.78923A8.76362,8.76362,0,1,1,36.264,90.93815,8.77068,8.77068,0,0,1,29.1066,83.78923Z" fill="#fff" stroke="#000" stroke-miterlimit="10" stroke-width="3"/><path d="M83.809,98.30176h-3.3374V96.24365h9.123v2.05811h-3.3374v9.07617H83.809Z" fill="#982e93"/><path d="M90.64251,99.31543h2.105v1.49707h.03125A2.83357,2.83357,0,0,1,95.352,99.09717a1.65067,1.65067,0,0,1,.4834.07812v2.0586a4.0336,4.0336,0,0,0-.79541-.07813c-1.63721,0-2.18311,1.15381-2.18311,2.58887v3.6333H90.64251Z" fill="#982e93"/><path d="M96.61711,101.79492c.125-2.0581,1.98047-2.69775,3.78956-2.69775,1.60595,0,3.54.35888,3.54,2.29248v4.19482a4.12553,4.12553,0,0,0,.28077,1.79346h-2.2461a3.31254,3.31254,0,0,1-.15576-.77979,3.67406,3.67406,0,0,1-2.71338.99805c-1.54394,0-2.74463-.76416-2.74463-2.417.03125-3.665,5.458-1.69971,5.36475-3.50879,0-.93555-.65527-1.0918-1.43506-1.0918-.85742,0-1.38769.34327-1.46582,1.21631Zm5.11524,1.6377a4.40906,4.40906,0,0,1-1.84033.46777c-.686.12451-1.31006.374-1.31006,1.18506s.63965,1.0293,1.35693,1.0293a1.6401,1.6401,0,0,0,1.79346-1.85547Z" fill="#982e93"/><path d="M111.15471,102.15381a1.48273,1.48273,0,0,0-1.63769-1.3877c-1.41895,0-1.88672,1.43457-1.88672,2.61963,0,1.16944.45215,2.542,1.83984,2.542a1.68469,1.68469,0,0,0,1.76221-1.63769h2.13672a3.60333,3.60333,0,0,1-3.8833,3.30615,3.9129,3.9129,0,0,1-4.06983-4.13232c0-2.51075,1.49707-4.3667,4.1167-4.3667,1.90283,0,3.66455.998,3.78955,3.05664Z" fill="#982e93"/><path d="M117.4262,99.31543h1.62207v1.48145H117.4262v3.99218c0,.74854.1875.936.936.936a3.109,3.109,0,0,0,.686-.0625v1.731a8.48036,8.48036,0,0,1-1.29444.07813c-1.37207,0-2.542-.29639-2.542-1.91846v-4.75634H113.871V99.31543h1.34082v-2.417h2.21436Z" fill="#982e93"/><path d="M122.38665,98.06787h-2.21436V96.24365h2.21436Zm-2.21436,1.24756h2.21436v8.0625h-2.21436Z" fill="#982e93"/><path d="M128.04924,99.09717a4.2504,4.2504,0,1,1-4.16357,4.25732A3.95825,3.95825,0,0,1,128.04924,99.09717Zm0,6.83056c1.5127,0,1.96485-1.2788,1.96485-2.57324s-.45215-2.58838-1.96485-2.58838c-1.49707,0-1.94922,1.29395-1.94922,2.58838S126.55217,105.92773,128.04924,105.92773Z" fill="#982e93"/><path d="M133.66692,99.31543h2.105v1.123h.04687a2.84028,2.84028,0,0,1,2.46387-1.34131c2.355,0,2.94727,1.32568,2.94727,3.32178v4.959h-2.21436v-4.55371c0-1.3252-.374-1.98047-1.41894-1.98047-1.20069,0-1.71534.67041-1.71534,2.30811v4.22607h-2.21435Z" fill="#982e93"/><path d="M155.03557,102.606h-7.875V100.9375h7.875Zm0,3.3374h-7.875v-1.66895h7.875Z" fill="#982e93"/><path d="M161.1845,96.24365h7.82812v2.05811h-5.37988V100.875h4.6626v1.90234h-4.6626v4.60059H161.1845Z" fill="#982e93"/><rect x="61.78784" y="103.44287" width="9.49228" height="33.13712" transform="translate(-43.50473 38.02976) rotate(-24.30909)" fill="url(#linear-gradient)"/><path d="M40.10182,179.33222a13.49868,13.49868,0,1,1-13.5-13.5A13.50281,13.50281,0,0,1,40.10182,179.33222Z" fill="#686166"/><path d="M20.28706,172.78817l-.00266-.00463C20.28638,172.80083,20.28706,172.79878,20.28706,172.78817Z" fill="#d9d9d9"/><polygon points="19.661 188.072 19.666 188.073 19.668 188.066 19.661 188.072" fill="#d9d9d9"/><path d="M23.253,173.646c.00538.00129.00933.006.014.008h.00061Z" fill="#d9d9d9"/><path d="M33.57573,173.65661s.07709-.13023-.06375-.105a16.08767,16.08767,0,0,1-2.07571.18336c-.06117.28569-.19139.45579-.24188.7176a1.46245,1.46245,0,0,0,0,.3721.80246.80246,0,0,0,.72822.186A2.56248,2.56248,0,0,0,33.57573,173.65661Z" fill="#d9d9d9"/><path d="M29.621,177.008c.11825.09567.35081.1701.40136.34285a1.03148,1.03148,0,0,1,.01857.25514c1.02057-.101,2.22451.03457,3.21855-.10369a5.08361,5.08361,0,0,0,.80264-.13288,5.647,5.647,0,0,0,1.2996-2.11558c-.03191-.18336-.27242-.41061-.38006-.5262a2.62306,2.62306,0,0,1-.49831-.59534c.04055-.1256.07042-.2465.11294-.40659.35618-1.33022.08505-2.83318-1.22523-2.71493a1.38278,1.38278,0,0,0-.87967.38938c-.06381.06375-.11695.206-.19139.25378-.09566.06246-.21922.04124-.3242.09036a2.09827,2.09827,0,0,0-.65119.80666,2.02923,2.02923,0,0,0-.28433.78135c-.01334.07178-.06913.1754-.09437.25385a.97188.97188,0,0,1,.62853.02259,13.17178,13.17178,0,0,1,.804-1.40594c.44245.081,1.09229-.67113,1.41656,0a3.04631,3.04631,0,0,1-.0213,1.33947c-.04715.65248.28107.46116.49505.47708a5.87065,5.87065,0,0,1-.85783,1.099,2.58538,2.58538,0,0,1-1.49364.804c-1.24381.15547-1.64782-1.15345-1.24381-2.32153-.19935.02388-.30032-.10635-.53553-.07178-.87572.13022-.88238.35611-1.33953.94219-.194.24977-.37074.50362-.5754.73747A3.86609,3.86609,0,0,0,29.621,177.008Z" fill="#d9d9d9"/><path d="M38.12048,178.63857c-.26978-.46116-1.55474-2.89033-2.02788-2.784-.24181.05314-.37469.52485-.501.73618a6.83469,6.83469,0,0,0-.64718,1.19863c-.04783.388.2578.52892.36149.7561a2.52935,2.52935,0,0,1,.2299.55683c.03055.16479-.0332.2844,0,.41061a10.222,10.222,0,0,0,1.01656,1.68367c.09968.19139.09035.38142.226.52893.26311-.44123.61922-.79469.88368-1.24122.19929-.35346.38136-.74815.55281-1.10562.04253-.093.05185-.2644.1156-.3242C38.3716,179.012,38.13776,178.67177,38.12048,178.63857Z" fill="#d9d9d9"/><path d="M28.38122,177.21269c-.29372-.4864-.51961-1.0073-1.23054-1.0339-.1688.34753-.66977,1.04316-1.083,1.74082-.01334-.01395-.03191-.03783-.04389-.04919.00531-.03851-.03055-.07042-.04116-.09961.00395.01994-.01864.03184-.028.01994-.05314-.07444-.01456.008-.08369-.06117a2.385,2.385,0,0,1-.34815-.51158c-.06913-.016-.07974-.08906-.13159-.113l.00932-.00265c-.04388-.03321-.19669-.30563-.24718-.34816l.00265.01334c-.02653-.01334-.02918-.02592-.02857-.04055a.04772.04772,0,0,1,.00068-.0166l-.002.002a.07207.07207,0,0,0-.00205-.04055.05058.05058,0,0,1-.03585.01266l.004-.018h-.00136l.01728-.01326a2.24587,2.24587,0,0,0-.15948-.45314c.00932-.00932.01334-.00265.01334-.00265a.52557.52557,0,0,0-.07444-.10635c.00667-.01993.0279-.02789.03722-.03585-.02395.01463-.13818-.2033-.13022-.21133l-.05852.02926c-.01993-.04117.05981-.04654.02661-.07838-.08771.02123-.02661-.06648-.07178-.05715a.03786.03786,0,0,1,.02129-.03321c-.04654.01327-.01864-.01728-.03456-.02395-.01463.00531-.01062.01062-.02395.01994l-.02919-.02259c.01061-.01327.03184-.02926.04382-.0213a2.46532,2.46532,0,0,0-.21262-.50627c-.02654.02259.00667.03586-.03722.07308-.04116-.00531-.0066-.03457-.04252-.02919.07314-.04525-.00395-.0545.06776-.10764l-.04783.01456.0213-.02123c-.09172-.06912-.03055-.012-.06648-.09566-.02524-.03987-.09566-.03191-.089-.06913,0,0-.01728.02525-.03456.02123.03456-.02123-.04123-.01857-.00667-.04252-.012-.01191-.02654-.04783-.07042-.01062.0213-.01993.01728-.05844.04919-.05177-.00667-.012-.00531-.02661-.01728-.028l-.00932.0213c-.0266-.03586.004-.07573-.05314-.07709l-.01728.02661c-.012-.02259-.02524-.03593.01728-.07315l.0332.016a.16315.16315,0,0,0-.07974-.07844l.00136.01333c-.07042-.016-.22323-.2033-.30032-.20867l-.03191.03592-.05048-.01068a1.21261,1.21261,0,0,1,.12621-.04382.81944.81944,0,0,1-.11158-.24317c.01061-.03987.06375-.03456.06375-.03456-.02524-.02926-.04518.004-.0545-.024l.03722-.01327c-.008-.01061.00265-.02925-.01858-.01728-.00932.0213-.05586.03858-.08641.05981l-.01258-.03252.00333-.004.02654-.01265-.01858.00333c.004-.0066.01062-.00864.01327-.0166a.14.14,0,0,1-.08369-.00333l-.00667-.00334a.31961.31961,0,0,1-.01592-.05048.5135.5135,0,0,1-.01728-.06246.17315.17315,0,0,0-.03191-.06511.06638.06638,0,0,1,.0279.00136l.008-.02259c-.02654.02653-.03055-.016-.03987.00394l-.00926-.00394s-.00666-.00531-.004-.01068l-.00265.008-.008-.00265c.0053-.00265-.02259-.0266-.016-.03191-.01191-.01327-.03321-.04783-.0345-.0266,0,0-.01864-.04253.00129-.0279a.1092.1092,0,0,1-.01592-.02123l-.00136.00926c-.02653-.02919-.03456-.05314-.06375-.06512l.0066.01463c-.01463-.01728-.03586-.02524-.03456-.04252l.028.01061a.30889.30889,0,0,0-.07906-.04381l-.016-.004a.58738.58738,0,0,1-.04055-.0611c.00932-.09437-.64711.05981-.73216-.04517l-.06511-.07444-.24984.03919a.66788.66788,0,0,1-.01993-.27705c-.04518-.01728-.01864-.05579-.05314-.07443l.01456.00136a.48115.48115,0,0,1-.02055-.14887,1.38224,1.38224,0,0,0,.35013-.24051,2.11515,2.11515,0,0,0,.44388-.61c.04783-.06375.05314.01463.05844.01729.02395-.10233-.01857-.05716.01327-.13819.01334-.01994.02395.01327.02259.02926.00932-.03858.03062-.06648.01728-.0758-.02789.04253-.05715.004-.09035.00932a.7078.7078,0,0,0,.03456-.10233l.024.01592a1.21456,1.21456,0,0,1,.00531-.30032,1.2024,1.2024,0,0,0-.00266-.44646c.01327,0,.02919.03851.04253.07974,0-.0279-.012-.06648,0-.08906-.0213.04783-.02926-.07838-.03457-.04253a4.50787,4.50787,0,0,0-.31631-.3721,1.57336,1.57336,0,0,0-.27242.05185.78024.78024,0,0,0-.05709-.15949c.19663-.11825.38136-.24983.37074-.42789l.02259-.0119-.03721-.05185c-.03457-.07178-.081-.07709-.05981-.08906l.06511.08375c-.03987-.06647.00266-.03327.0279-.01864a.41468.41468,0,0,1-.04116-.07974c-.01865-.008-.00136.01463,0,.03062a.5208.5208,0,0,1-.109-.10233c-.0545-.05981.02524-.03456-.03586-.10764a1.75607,1.75607,0,0,0-1.25047-.63391c-.01062-.012.00129-.01061.01728-.01592a1.573,1.573,0,0,0-.396.04647.14974.14974,0,0,1-.06117-.02919c.01062.0066-.16343.04912-.32821.13553a2.00741,2.00741,0,0,0-.31359.18738l.01456.05579c-.10764.08376-.06641-.02524-.15547.07042.00265.0877-.15281.15819-.15812.21929,0,0-.04518.04518-.05715.02789.01864.04253-.0332.06382-.05049.10233-.00136.01729.01592-.00129.03321-.004-.01592.028-.02259.0545-.04253.08777-.02259.02259-.04647.02123-.03191-.01864a2.02791,2.02791,0,0,0-.291.81727,2.1568,2.1568,0,0,0,.08907.9209c.01728-.03987-.0279-.12091.012-.16343.03586.0664.01721.10764.05048.13022-.05184.05049.03457.16207,0,.23916l.04253.008-.00667.04524c.18336.279.15948.004.30434.2644.101.13825.198.13955.2418.22194-.00394-.01327-.01592-.05579.0213-.02925-.01864.02925.04783.0532.04116.09436a.33035.33035,0,0,1,.03593.14683c.00728.03722.08171.11029.02258.08308.02919.02524.05716.05715.08369.06109l-.03722-.04116c.109.07838.16085.14615.24984.15016l-.03055-.04388c.06246.04252.12091.06511.13689.11831l-.0811-.02129a.84605.84605,0,0,0,.21793.07042.06539.06539,0,0,0,.01068.02524.11046.11046,0,0,1-.03858.01728c.02259-.0066.04783.11961.04123.12363l.04648-.00667c.00265.02524-.05178.01463-.03722.03722.07049-.004-.00266.03585.03722.03585-.0066.00266-.0066.01334-.02654.016.03722-.004.01061.01191.01857.01592.01062.00136.012-.00265.02395-.008l.01858.01327a.3223.3223,0,0,1-.03722.016.71232.71232,0,0,0,.01864.279c.02654-.00666.00266-.01728.04647-.02925.0279.00537-.00394.016.01994.01728-.04314.01-.04116.01993-.0498.03123a2.38673,2.38673,0,0,0-.52825.21731l-.05185.008.00932.02926c-.02524.04252.03858.04783-.01463.05579l.004-.05185c-.01463.04124-.04123.01729-.07573.01062a.06961.06961,0,0,1-.028.04919c.02266.004.02395-.008.03858-.01728.01993.01728.07042.03191.04783.06246-.00136.03858-.08641.01993-.0877.06912l-.002.01661-.02061.00993-.04654-.03586a.07351.07351,0,0,1,.01864-.02259c-.01333-.01061-.03722.004-.03592.02525l.03721.03055c-.0119.03857-.03054-.01191-.04647.01864-.03456-.024-.01864-.05586-.0053-.07845-.0213.01728-.05715.01994-.03062.05055-.0279.01062-.03722-.03191-.06511-.01993-.00395.02259.00932.06375-.02388.06776l-.008-.00666c-.04518.01462-.028.05844-.03722.09436-.01864.01729-.01463-.00666-.03191.01729h-.00531v-.00667c-.0266,0-.02925.04783-.06511.0545l.01993.00394a.0893.0893,0,0,1-.016.03593c-.01593.01592-.02389.03585-.05314.03851l.01061.04388c-.08634.093-.18336.26311-.26045.36673l.00136-.008a6.65959,6.65959,0,0,0-.45844.65915c-.04524.00265-.06647.03715-.09437.05443.02123-.00394.04117.01864.02524.03062-.06245.07436.01994.02388-.03054.10893a2.28613,2.28613,0,0,1-.45185.485c.008.07573-.07042.10369-.07572.16608l-.008-.0119c-.01994.05715-.26712.28038-.29638.34413l.012-.00129c-.00531.06641-.05049.02259-.093.04253a.11972.11972,0,0,1,.03722.11825l-.012-.01327a.66614.66614,0,0,1-.03456.15941l-.02259-.02388c.004.05579-.05579.10362-.07443.12757-.05314.03987-.15949.07974-.18207.17676l-.11424-.01993.00531.01456s.03851.03327.10233.08375l-.008.01593-.00538-.008a.60612.60612,0,0,0-.02388.12893l-.012.01456a.51937.51937,0,0,0,.00136.12492.607.607,0,0,0,.02654.12491l.01463.00266c.01728.04252-.01592.01728.00667.0598.02789.008.0332.06185.04912.07444a1.34314,1.34314,0,0,0-.02259.30433c-.01061.004-.01191-.00136-.01191-.00136.00926.03592.0066.06913.01858.10369a.05909.05909,0,0,1-.03987.02259c.024-.00531.03585.20194.02925.20194l.05185-.0013c0,.03722-.05851.01729-.04252.05185.06905.008-.004.0611.03184.07307a.03456.03456,0,0,1-.0279.01728c.03586.00266.00932.01593.01994.02654l.02129-.008.01327.0266-.02926.01327a1.52639,1.52639,0,0,0-.01326.45449c.02122-.00932.00265-.03191.04783-.04517.02789.01857-.00667.0332.01728.03721-.06246.01191-.00932.04253-.07838.06246H17.895l-.02259.01722c.04654.07708.01993.01333.01463.09042.00932.04252.06116.05844.04517.08239,0,0,.01865-.012.02926-.00136-.02926.00136.02395.02661-.00932.03457.00531.00932.00265.04912.04783.03054-.02259.00531-.02919.03988-.04912.01858-.00136.01463-.00531.0266.00129.03722l.016-.01592c.00394.0332-.02524.05579.01463.07443l.01592-.01463c.00394.02259.00932.03987-.03722.05049l-.01327-.01994a.14615.14615,0,0,0,.03457.0877v-.01061c.04783.03191.089.22854.14744.25915l.03327-.01993.03055.02653-.10363-.008a2.96949,2.96949,0,0,1,.03185.45981c-.01729.02653-.0558.0066-.06376.01061.01463.02524.03851.00531.03722.03055-.004.00932-.0279,0-.0279,0-.00136.012-.008.024.00395.01993.01327-.01592.0545-.01326.08376-.02122l-.00266.03184-.0266.00272s.07573.00925.05981.04518a1.16281,1.16281,0,0,0,0,.16744.051.051,0,0,1-.03593-.0213s.00272.01858-.00925.01994c.02789-.012.02259.02259.02259.02259.07974.02129.01993.081.0664.11294l.099-.00265c-.06443.15349-.17071.4153-.20262.52627l-.04518.01191c.01592.03327-.01327.0532-.004.09573-.01062.01592-.0332.00265-.03586-.008.008.03722-.03191.06117-.01592.0877l.01327-.00129c.01592.0611-.0824.0598-.06648.12621h.00667c.01327.03191-.03191.04388-.04783.05851.00266.03457.04116.01994.04913.04647-.04253-.00394.1954.17275.19139.19534.012-.02388.03055-.05048.06375-.0345-.01456.02919.30039.11955.27378.15146l.09968-.0066c-.01728.008-.01993.04116,0,.04783-.00667-.004-.00136-.01994.00129-.03593l.62459.09839c.06512-.02926.02395-.12227.11431-.14486.01061.01729.01592-.03191.03851-.004-.00531-.01327.00136-.02388.00265-.03851-.01728.01327-.02789.02259-.04919.01858a1.97422,1.97422,0,0,0,.07049-.21793c-.00136-.04783.089-.04116.089-.04116l-.03191-.00933.012-.04388c.02789.0213.07974.03191.08906.05184.01857.004.008-.012.008-.02524l-.0279-.004c.00667-.0332.09968-.10764.12621-.1422,0,0-.04912.01068-.06375-.02654.00334-.07838-.27841-.58336-.319-.75549l.02259-.00061c.00136.01061.00136.02388-.0066.02653a.02671.02671,0,0,0,.01326-.04116l-.03191.00462-.00129-.00394c-.002-.012.01926-.00735.01728-.02729.03055-.008.0345.01593.03851.03858.004-.01993.02259-.03858-.008-.04654.01062-.01462.03586-.00265.04919-.02395-.01068-.01326-.04123-.02918-.02265-.04517l.00272-.00266c.03184-.04252-.04919-.05715-.016-.101l.00932.004c.01592-.01456-.00667-.0398.01062-.06375,0,0-.03055.01463-.03191,0,.01864-.0279-.00395-.04389.02129-.06647l-.03456-.01858c.00136-.09437-.05845-.47443-.06913-.56873l.008.00265a4.48255,4.48255,0,0,0-.08239-.59669c.02789-.0266.02122-.05981.02524-.085-.012.01864-.0332.01327-.03191.00136.004-.07443-.01994-.00136-.0332-.07709a1.41669,1.41669,0,0,1,.0053-.50232c-.04919-.03722-.01864-.09036-.04252-.13159l.00531.00266c-.01593-.03851.01326-.29366-.00531-.33747l-.004.00265c-.02918-.03987.01729-.03987.03062-.07443a.078.078,0,0,1-.08375-.04123l.00932.00136a.247.247,0,0,0-.02926-.04981,2.22531,2.22531,0,0,0,.35081-.33822c.016.008.01068.01062.01333.01858.01994-.05049.05314-.085.07573-.13288a.29939.29939,0,0,1,.05184.01728c-.02925-.012.1435-.22725.15282-.22459l-.04389-.04116c.02926-.04124.06382.03456.07974-.01062-.05313-.07178.06117-.05715.03722-.09967a.03634.03634,0,0,1,.03987.0066c-.03191-.03586.00667-.02525.00531-.04382-.004-.01334-.00932-.00667-.02524-.01463l.00932-.03851c.01993.00265.04381.01858.03851.0345a3.36346,3.36346,0,0,0,.42122-.44783c-.03586-.01463-.03715.02129-.0877-.00265-.008-.04117.03062-.02259.01333-.05178.07308.04381.05049-.03593.13152.008l-.03055-.03593.02926.00667c.01463-.05912.01463-.06647.01925-.06844a.61576.61576,0,0,0,.01531.10035c.05579-.0332.01592-.06246.101-.093.05314.02389-.01327.05049.04253.0558-.13288.04116-.02525.081-.15547.13423l.07443-.00666-.04524.02925c.08906.13554.03987.02654.03592.16078.01858.07974.12492.09035.089.1422,0,0,.04654-.03191.06784-.016-.06784.016.05048.03987-.012.06511.008.01728.008.08376.09165.03987-.04252.02259-.05579.0824-.09961.05586-.00136.02123-.00932.04382.01062.05178l.02259-.03055c.01728.06116-.05049.11029.03721.13689l.03457-.03191c.00925.03456.01857.07042-.06913.10369l-.03456-.03722a.20349.20349,0,0,0,.07178.1435v-.01728c.09566.04919.20466.388.31624.42394l.06776-.03722.06117.04117c0-.00932-.22459.01993-.20064.00932a4.43231,4.43231,0,0,1,.08634.81326.11507.11507,0,0,1-.11029.03191c.01857.04647.06647.008.06246.0545-.012.01592-.05716.00925-.05716.00925s-.02388.03456.01327.02926c.0213-.02661.10764-.03457.16214-.05845l-.0013.05845-.05586.01061c0,.01062.15152.00265.12758.06117a.41553.41553,0,0,0,.002.06375l-.18541-.008c.00266-.01592.008-.03191.01728-.03586a.03589.03589,0,0,0-.02925.05178l.0598.008c.01865.03715-.03585.0066-.0332.04518-.04919,0-.05579-.03722-.06117-.06913-.008.03055-.04252.0545.00933.06913-.02259.02388-.0611-.00538-.08369.02388.01463.024.05579.05851.02919.08239l-.01191-.00129c-.05184.05844.07171.10362.01857.15941l-.01728-.01061c-.03055.01864.00266.06246-.02789.101.008-.01191.04654-.01994.05048.004-.0332.04389-.00265.07573-.04518.101l.04654.03327c-.016.14751.02388.58737.02259.73617l-.008-.00666a7.22784,7.22784,0,0,0,.081.94886c-.05184.03184-.04252.08239-.05844.11954.02123-.02123.05048-.008.04912.00667-.00925.117.03055.00932.04919.12757a2.351,2.351,0,0,1-.101.776c.0664.06913.00925.14622.04912.21133l-.01728-.008c.02395.07307-.07042.45443-.04518.53417l.008-.01062c.03987.07042-.03715.05845-.06246.11029a.11855.11855,0,0,1,.12227.08376l-.01858-.00136a.87074.87074,0,0,1,.08369.17275l-.04518-.00531c.00932.00993.00667.02395.01068.03585-.01932.008-.04123.01933-.03456.03191l.05048.02062-.00068.02062c-.01258-.00068-.02789-.004-.03252.01857-.0532-.01592-.05055-.05314-.0479-.085-.01326.02661-.05708.03851-.0053.06913-.0279.01857-.06246-.024-.0943.00129.00925.02524.05048.06777.0119.0824l-.00925-.00531c-.06913.04252.06906.02259,0,.0598l-.01334-.01326c-.03585.00925-.008.06239-.05177.08368.01462-.004.05443-.00136.05313.01994-.04388.02926-.024.06777-.07042.08369l.04117.03987c-.05715.13954-.16479.69637-.2033.83455l-.00667-.0053c-.04252.21792-.35611.61921-.35876.85843-.05852.01592-.06246.06512-.0877.09567.02388-.01191.05715.00932.05048.02129-.03851.10362.03191.01592.01728.13288a1.491,1.491,0,0,1-.23521.59c.05185.07708-.02524.13417.0013.21l-.01593-.01333c.00531.06912-.1754.40135-.1754.47973l.01592-.00394c.02525.07436-.05177.04116-.09035.085a.13288.13288,0,0,1,.10634.11029l-.016-.008c.00266.03585-.18472.10491-.18867.16342l-.04517-.01864c.03191.05586-.01463.13159-.01865.1635-.04252.06375.03858.22058.06648.33488l-.14486.01857.01062.01463s.20268.0824.46708.18l-.19595-.03184c-.03123.18-.17547.81659-.18608.984l-.05178.02653c.03449.04123-.00136.07178.02259.12227-.008.02524-.04389.01061-.04919-.004.02524.04654-.01865.08641.00394.11567l.016-.008c.04518.07709-.08641.09573-.04123.17411h.00537c.0279.0332-.0266.0598-.04252.08239.01592.04117.05708.01327.077.04518-.05443.008-.02524.04123-.02259.07974.012-.03722.0266-.07573.07178-.06913-.00932.04654.05049.01728.0266.05852l-.06116-.00531c-.01592.01721-.008.0611.008.06246l.00265-.04253,1.72491.10893c.07838-.05048,1.4684.04253,1.58134-.01326.016.02122.00667-.04389.05184-.01334-.02129-.01191-.01061-.03184-.00932-.04252-.01728.016-.03721.03592-.0598.03456.00265-.09832-.19-.33488-.198-.43184-.01729-.05715.10233-.06116.101-.07443l-.04253-.004-.79332-.25181c.02524.002.01333-.01728.02129-.03653-.01327.00667-.04518.01728-.05314.00265-.00136-.04654.0345-.00932.05049-.0598,0,0-.05981.0266-.0877-.01593-.01395-.08239-.3887-.31032-.57676-.46912.00469-.00531.00667-.01327.016-.01463-.01334-.0119-.016-.00129-.028-.00265-.0119-.01728-.04116-.05443-.01728-.06641.01068-.0266.06913.02123.085-.012.097-.17676.02531-.41857.07443-.60731.01865.00136.01728.00531.01728.00531a1.58912,1.58912,0,0,0,.03055-.16207.39112.39112,0,0,1,.06913,0c-.03851-.00272.05579-.299.06777-.30039l-.07974-.02789c.016-.05716.093.00932.09436-.04117-.105-.06116.03988-.085-.01326-.12226a.05153.05153,0,0,1,.05177-.01061c-.05715-.02525-.00394-.03055-.0119-.04784-.01463-.01333-.0213-.00265-.03987-.00265l-.008-.04123c.02129-.01327.06117-.004.0598.01463a3.01769,3.01769,0,0,0,.26583-.64051c-.05185,0-.03191.04252-.105.02925-.02926-.03857.02918-.03456-.008-.06382.109.02661.04252-.04919.15553-.03055l-.05851-.02789.04123-.00266c-.02129-.13825-.01864-.03721.02919-.13954.012-.06246-.0611-.12227-.01857-.14084,0,0-.04518.00265-.0558-.01864.0558.01864-.02395-.0545.03185-.04518.00136-.01857.024-.06647-.05716-.07307.03858.00394.06913-.03321.09172.00129.00932-.01463.0266-.02524.01061-.04116l-.02388.01061c.00395-.0545.16214-.13288.10893-.186l.05321.15942c.008-.03321-.07845-.21262-.00531-.19663l.01456.03851a.20212.20212,0,0,0-.004-.13955l-.008.01463c-.0532-.07838.06906-.2312-.00537-.31094l-.0611.008-.0332-.05844a1.143,1.143,0,0,1,.15145.07573,4.51344,4.51344,0,0,1,.19071-.61595c.00334.00068.01062-.00062.00463.00469.01333-.00667.03191-.008.03722-.01993l-.02259.0053c.018-.01.022-.018.03592-.02456a.18435.18435,0,0,1,.05314.02055.0467.0467,0,0,0-.0213-.04314c.00531-.004.016-.00735.01994-.01333a.23606.23606,0,0,0,.024.01129c-.00531-.01395.002-.01993-.00531-.02721.01327-.00933.02592-.02327.04116-.02062l-.02388.0279a.27705.27705,0,0,0,.0877-.09832l-.01333.01463a.94637.94637,0,0,0,.0877-.18071.35992.35992,0,0,0,.02259-.18738l-.01722.01994a.16278.16278,0,0,0-.01068-.04389l.04518.03191c0-.01061.00136-.02789.00265-.04783l.01334.00129-.00136-.02918c.02395-.03062-.02388-.0479.01993-.04525l-.00932.04525c.01334-.03062.03456-.00538.05851.01061a.06981.06981,0,0,1,.02259-.03858c-.01326-.008-.01592.00136-.0266.00667-.01327-.01592-.05314-.04518-.03055-.06375.00667-.03456.07042,0,.07974-.03987a3.24544,3.24544,0,0,0,.10764-.60336c.02259-.00266.01857.004.01857.004-.008-.0545.00266-.11294-.01061-.16873a.30362.30362,0,0,1,.06647-.02395c-.03858.01061-.02259-.3123-.01068-.31359l-.07967-.012c.00265-.06116.089-.012.07436-.07178-.10627-.02789.01865-.089-.04116-.11559a.05608.05608,0,0,1,.05184-.02395c-.06245-.01062-.012-.02919-.0266-.04518-.01857-.008-.01857.00136-.03851.00531l-.01728-.03987c.01857-.01062.05579-.01327.0611-.0013a3.9552,3.9552,0,0,0,.07443-.402c.07573.09567.1654.24181.24188.26113l.05178-.03721.05851.03055a.99568.99568,0,0,1-.17411.01728,3.65441,3.65441,0,0,1,.1754.68038c-.02388.04116-.09035.02926-.09035.02926.02258.04116.05579.00394.05844.04381-.008.01062-.04647.01062-.05579.00531.01327.01463-.00531.03327.02395.03055.01592-.0279.09035-.0398.13288-.05708l.0053.04912-.04653.00932c.004.00932.13158-.008.121.04518a1.91158,1.91158,0,0,0,.04252.24453.09206.09206,0,0,1-.07049-.01865c.004.01334.01463.02661-.00265.04253.04389-.03184.03987.02129.05586.004.12492.02524.04116.12887.13288.16078l.07307-.02525a.12018.12018,0,0,1,.00932.03055c.01592.02525.00932.03191.00932.03191s.02722.04253.0624.0877c-.01524.20466-.00592.65052-.01191.776l-.00667-.008c.00136.22323-.21663.683-.17009.91429-.05314.02919-.0492.07975-.06376.11424.02123-.01857.05709-.008.05443.00667-.01857.1156.03328.012.04253.12628a1.44616,1.44616,0,0,1-.101.62853c.06777.06777.004.14084.04518.206l-.01728-.01062c.01993.06913-.08634.42789-.06777.50763l.01061-.01061c.03987.07042-.04116.05314-.07307.101a.14559.14559,0,0,1,.13159.085l-.0213-.00136c.01463.03721-.15547.14485-.15016.19806l-.04382-.008c.04382.05055.01191.1356.01592.16479-.0266.07443.08907.21.1369.31494l-.1369.04783.012.01069s.07573.01326.18738.03123a5.68106,5.68106,0,0,0-.09968.56539l-.05184.02661c.03191.04252,0,.07838.02258.12757-.00666.02919-.03987.01463-.05048.00129.02388.04389-.01994.09437.008.12227l.01463-.012c.04116.07709-.0877.10764-.04654.18472h.00667c.0266.03457-.02661.06777-.04783.093.01857.04123.06511.00932.07974.04253-.05586.00932-.02259.04388-.0213.07844.01068-.03592.0266-.07974.07444-.06912-.01062.04518.05048.012.02258.0598l-.05715-.00136c-.01993.01728-.012.05981.00667.05852a.4022.4022,0,0,0,0-.04253l2.44645.1156c.07573-.05715.61656.00136.72957-.06246.01722.01864.01062-.04647.05314-.01728-.016-.012-.00932-.0332-.00667-.05049a.08337.08337,0,0,1-.06375.04117c.00265-.09961.03184-.206.02654-.303-.01593-.06375.101-.08634.101-.08634h-.04123l.00136-.0598c-.13288-.07042-.01728.07974-.19534-.03586.02259.00265-.17812-.101-.1688-.12226-.00932.0053-.03987.01993-.05314.0053.00395-.04654-.29766-.08641-.27106-.1422a1.87618,1.87618,0,0,1-.41463-.19268c-.016-.07239-.26977-.13819-.44585-.208l-.00333-.02457c.02524-.0266-.02525-.04783.01864-.04252l-.01068.04252c.01993-.0266.04252-.004.06647.01062a.05574.05574,0,0,1,.02395-.03191c-.01334-.01062-.01728.00136-.01728.00136-.02395-.01463-.06246-.04252-.03987-.05981.00394-.03191.07171.00531.081-.03055.0545-.19268-.06776-.41462-.05844-.61261.02122.00136.02122.00531.02122.00531a1.1239,1.1239,0,0,0-.00932-.16479.19232.19232,0,0,1,.06784-.01327c-.03722.00531-.00932-.30032.00265-.30964l-.0811-.01062c.00531-.05715.097-.00932.07974-.06382-.11165-.0332.01728-.0877-.03586-.11559a.04682.04682,0,0,1,.05178-.01592c-.0664-.01865-.01327-.03191-.02653-.04783-.01994-.008-.01994.00265-.04253.00394l-.01728-.03851c.02123-.01327.05845-.01327.06375.00531a2.84074,2.84074,0,0,0,.12492-.679c-.04912.0066-.01993.04381-.09831.04912-.03722-.03456.01993-.04252-.02389-.05844.1156-.00266.03321-.06117.15016-.07308l-.06245-.012.03987-.00932c-.05185-.13424-.028-.03457-.00273-.13955-.00265-.06776-.08634-.10763-.05048-.13818,0,0-.04116.01326-.05314-.004.05314.004-.03722-.04912.01728-.05048-.004-.01728.008-.07042-.06912-.05981.03857-.0066.05851-.05048.09035-.01728.00136-.01857.01728-.03184,0-.04116l-.02259.01326c-.008-.05313.133-.16342.06512-.20595l.08906.1422c-.00136-.0332-.12227-.18608-.04654-.19268l.01993.03851a.18274.18274,0,0,0-.03184-.13553l-.00667.01462c-.07041-.06776.01858-.23786-.07041-.29766l-.05981.01728-.04389-.04783c-.00394.00394.18738.03987.16745.03987a3.47723,3.47723,0,0,1,.06116-.68038c.03586-.03722.09165.00129.09165.00129-.0066-.04518-.04783-.02259-.04116-.05981.01327-.01061.04517.00531.0545.012-.00667-.01728.01462-.0279-.01334-.03055-.02123.01592-.0943-.00265-.14213.00129l.01327-.04381.04517.0053c.0013-.00932-.12491-.03858-.09171-.085.0266-.07307.01864-.16213.03987-.23922.02395.00266.03858.0213.0545.04253.0053-.01327-.00266-.02919.01857-.03586-.05314.01463-.03055-.03722-.05178-.02524a.09024.09024,0,0,1-.03054-.03525c.002-.00462.0066-.01061.0053-.01524l-.00735.01259-.00265-.00265c.018-.04586.03722-.07505.02994-.10832l-.016.01864c.00932-.03456.012-.06116.03191-.07307l.00265.03715a.5192.5192,0,0,0,.00136-.13553l-.004.01728a1.28278,1.28278,0,0,0-.03456-.15547c.0053-.01463.00666-.03055-.00395-.03722l-.00932-.00129-.004-.008a.14828.14828,0,0,0-.01326-.03585.06708.06708,0,0,1,.06647.04783c.00129-.03055.03055-.06641-.028-.06246.01462-.02926.06116-.01592.07844-.05049-.01993-.01857-.07579-.03456-.05184-.06647l.008-.004c.03858-.07443-.101-.06912-.0611-.14083l.01858.00129c.0266-.0279-.02654-.0545-.0013-.09832-.008.01062-.04388.03185-.05715.01327.02524-.05048-.01334-.07178.01728-.11165l-.05586-.01327c-.02524-.14614-.19132-.5262-.23119-.67106l.008.004a5.899,5.899,0,0,0-.303-.8664c.04252-.04783.01728-.093.02129-.13424-.01333.0266-.0545.03327-.05586.01728-.01857-.11559-.03456,0-.08368-.10893a2.07964,2.07964,0,0,1-.12628-.7508c-.089-.03858-.05178-.13424-.11424-.17941l.01721.00129c-.04116-.05845-.06239-.44116-.10491-.50893l-.00538.01062c-.06246-.05314.0213-.06512.02926-.12356a.12678.12678,0,0,1-.15281-.03593l.01728-.00129c-.01864-.02524-.10635-.08375-.13288-.13288l.04783-.01061a.11849.11849,0,0,1-.0545-.07511l.19-.03525a.06362.06362,0,0,1-.01592.0479c.03456-.012.05049-.05321.02654-.06647l-.07573.01061c-.0279-.03987.04252-.02259.0332-.06375a.0677.0677,0,0,1,.09172.05715c.00265-.03191.04783-.07314-.02524-.07314.02524-.03449.07708-.01456.101-.05708-.02122-.01994-.08239-.04389-.05048-.07845l.012-.008c.05716-.0824-.10634-.09036-.04783-.16744l.02259.00136c.03191-.03327-.01728-.06784.01592-.11832-.01061.01463-.05579.03456-.0664.01068.03449-.05851-.00932-.08375.03715-.12757l-.06375-.024c-.00463-.14288-.099-.59935-.14819-.85647l.02327-.01258a.89846.89846,0,0,0,.05048.08232c-.00531.01069-.01061.00933-.01061.00933a1.3201,1.3201,0,0,0,.093.09967.08484.08484,0,0,1-.02389.04252c.01722-.02258.17275.18337.16874.18867l.04123-.02918c.03055.04116-.03456.05048.00531.07708.05844-.028.03585.06376.07307.05709a.02454.02454,0,0,1-.012.03061c.03456-.016.02395.01593.03721.02123.01463-.0053.01062-.012.01062-.012l.03456.00667a.05387.05387,0,0,1-.01728.03191,2.40371,2.40371,0,0,0,.31229.47572c.012-.0266-.01728-.03456.01062-.07444.03191.00266.01061.03457.03858.01994-.04518.05715.02258.05715-.01994.1156l.0332-.01858-.01463.02395c.097.05845.03191.0066.081.08369.03987.04252.09171.03055.097.06382,0,0,.00531-.02531.02524-.01994-.02524.01994.03722.01327.01728.04253.012.008.03191.04783.05586.00265-.00932.02123.00926.0611-.02129.05314,0,0,.008.02388.02395.02926l-.00136-.02259c.02925.03184.02129.07307.07042.07042l.00136-.0213c.01993.01864.03585.03592.0066.06913l-.02525-.01334a.21171.21171,0,0,0,.08771.07178l-.008-.01327a1.03785,1.03785,0,0,1,.21861.13486.96431.96431,0,0,0-.0379.52158,8.74639,8.74639,0,0,0,.626.73753c.17669.22459.38271.46776.56471.71624-.0066.03123-.02055.06314.012.09171l.008-.00666c.02925.02129-.0013.05586-.00531.07708.0266.0279.04783-.008.06913.01069-.012.00728.014.0119.04919.01592.02259.03653.05579.0711.07573.10763.14614.25113.11961.64984.38938.76142a.48755.48755,0,0,0,.32556.02259,18.40174,18.40174,0,0,0,1.61591-3.75272C29.17189,177.87178,28.60044,177.58609,28.38122,177.21269ZM20.901,183.457a.07818.07818,0,0,1,.01661-.02061.11.11,0,0,1,.00864.02857Zm1.42459,1.06507-.00266.00068.002-.00136Z" fill="#d9d9d9"/><path d="M34.40893,178.47507c-.91158.03722-2.14212-.03456-3.08431-.02653-.33489.004-1.20924-.03987-1.43248.17806-.12492.12355-.11165.667-.16213.8717-.07974.28971-.26181.509-.35217.796-.22323.72957-.33883,1.4286-.59935,2.09034a1.14179,1.14179,0,0,0-.14614.47837.32572.32572,0,0,0,.28834.295c.2857.04653.52492-.0611.74815.101l4.28164-.03456a2.40912,2.40912,0,0,0,1.25578-.117c.3668-.10627.71359.09036.8598-.27372.32291-.79734-1.071-2.78534-1.32354-3.3355C34.599,179.19267,34.5365,178.79669,34.40893,178.47507Z" fill="#d9d9d9"/><path d="M91.51217,165.83222A13.50612,13.50612,0,0,0,78.155,177.36977c.35667-.00941.74417-.02149.83809-.03488a9.92849,9.92849,0,0,1,2.07172-.1301c.07648.00673.15825.01881.24812.0335a1.74149,1.74149,0,0,0,1.25107-.181,2.82346,2.82346,0,0,1,.35269-.14617,1.27713,1.27713,0,0,1,.26954-.05094,1.23591,1.23591,0,0,0,.43577-.1207,3.47442,3.47442,0,0,0,.61955-.822,5.36411,5.36411,0,0,1,.657-.90511,6.2074,6.2074,0,0,1,1.13043-.74156,9.667,9.667,0,0,0,.96552-.61145,5.19082,5.19082,0,0,0,.89439-.99772,5.99847,5.99847,0,0,1,.7-.82066,4.35675,4.35675,0,0,1,2.79721-.86356c.25478-.02684.5176-.04827.79923-.08445.29769-.03357.61283-.09392.9132-.15152.28829-.055.55914-.10862.80459-.13684a3.956,3.956,0,0,1,2.32115.4828,5.10788,5.10788,0,0,0,1.2766.4532c.067.01208.14479.02149.22526.03488.39292.059.98426.15022,1.12906.37548a.72023.72023,0,0,1-.1542.81125c-.57528.65038-2.01274.78447-3.07479.58331a1.31554,1.31554,0,0,1-.27758-.10992.88146.88146,0,0,0-.60473-.14617.858.858,0,0,0-.3299.2105.96018.96018,0,0,1-.20384.14885,4.72213,4.72213,0,0,1-1.79956.2199l.00536.00268-.012-.00268h.00666a1.49884,1.49884,0,0,0-.67853.01346c-.24669.14617-.39155,1.08079-.60473,2.59474a12.46536,12.46536,0,0,1-.27758,1.60108,6.03959,6.03959,0,0,1-1.30612,1.96983c-.17165.20253-.35668.41166-.52159.62223-.04559.05767-.08987.10058-.12873.14617a.98472.98472,0,0,0-.24.32715l-.03358.07648.06845.051a1.77342,1.77342,0,0,1,.834,1.77807l-.0094.06035.05232.03893a1.10783,1.10783,0,0,1,.40225.69192c.03756.12736.07779.27222.13952.4291a2.8604,2.8604,0,0,0,1.91483,1.42,2.293,2.293,0,0,0,1.08484.03083,1.12892,1.12892,0,0,0,.49214-.2427l.11-.08713L93.596,185.111a3.81363,3.81363,0,0,0-1.231-.42911c-.92254-.21317-1.78878-.413-1.64268-1.349a.64114.64114,0,0,1,.16766-.42643c.2749-.24943,1.6547.0644,2.31847.21723.19045.04023.35269.08047.472.10058a9.088,9.088,0,0,0,1.08889.08047c.936.0322,2.09321.07106,2.3815.56992a.899.899,0,0,1-.1126.85416,1.86908,1.86908,0,0,1-.9695.8488,2.42017,2.42017,0,0,1-1.12377-.07642c-.14885-.0322-.28424-.06165-.42238-.08046l-.06838-.00941-.03351.05767c-.59271,1.00843-1.35034,1.04729-2.48612,1.109-.3634.02012-.78448.04559-1.227.10725a6.38713,6.38713,0,0,0-.9038.20116,4.66578,4.66578,0,0,1-2.07583.21991,8.8447,8.8447,0,0,1-1.699-.535,9.60728,9.60728,0,0,0-1.43616-.46934,2.85091,2.85091,0,0,0-1.48443.19176c-.15825.04964-.30174.09921-.43981.13278-.37411.08712-.77644.1542-1.16531.22657-.232.04291-.75358.07511-1.24839.11939a13.49766,13.49766,0,1,0,11.25723-20.94029Z" fill="#686166"/><path d="M94.76938,183.3048a9.088,9.088,0,0,1-1.08889-.08047c-.11933-.02011-.28157-.06035-.472-.10058-.66377-.15283-2.04357-.46666-2.31847-.21723a.64114.64114,0,0,0-.16766.42643c-.1461.936.72014,1.13579,1.64268,1.349a3.81363,3.81363,0,0,1,1.231.42911l.11266.07916-.11.08713a1.12892,1.12892,0,0,1-.49214.2427,2.293,2.293,0,0,1-1.08484-.03083,2.8604,2.8604,0,0,1-1.91483-1.42c-.06173-.15688-.102-.30174-.13952-.4291a1.10783,1.10783,0,0,0-.40225-.69192l-.05232-.03893.0094-.06035a1.77342,1.77342,0,0,0-.834-1.77807l-.06845-.051.03358-.07648a.98472.98472,0,0,1,.24-.32715c.03886-.04559.08314-.0885.12873-.14617.16491-.21057.34994-.4197.52159-.62223a6.03959,6.03959,0,0,0,1.30612-1.96983,12.46536,12.46536,0,0,0,.27758-1.60108c.21318-1.514.358-2.44857.60473-2.59474a1.49884,1.49884,0,0,1,.67853-.01346,4.72213,4.72213,0,0,0,1.79956-.2199.96018.96018,0,0,0,.20384-.14885.858.858,0,0,1,.3299-.2105.88146.88146,0,0,1,.60473.14617,1.31554,1.31554,0,0,0,.27758.10992c1.062.20116,2.49951.06707,3.07479-.58331a.72023.72023,0,0,0,.1542-.81125c-.1448-.22526-.73614-.31651-1.12906-.37548-.08047-.01339-.15825-.0228-.22526-.03488a5.10788,5.10788,0,0,1-1.2766-.4532,3.956,3.956,0,0,0-2.32115-.4828c-.24545.02822-.5163.08184-.80459.13684-.30037.0576-.61551.118-.9132.15152-.28163.03618-.54445.05761-.79923.08445a4.35675,4.35675,0,0,0-2.79721.86356,5.99847,5.99847,0,0,0-.7.82066,5.19082,5.19082,0,0,1-.89439.99772,9.667,9.667,0,0,1-.96552.61145,6.2074,6.2074,0,0,0-1.13043.74156,5.36411,5.36411,0,0,0-.657.90511,3.47442,3.47442,0,0,1-.61955.822,1.23591,1.23591,0,0,1-.43577.1207,1.27713,1.27713,0,0,0-.26954.05094,2.82346,2.82346,0,0,0-.35269.14617,1.74149,1.74149,0,0,1-1.25107.181c-.08987-.01469-.17164-.02677-.24812-.0335a9.92849,9.92849,0,0,0-2.07172.1301c-.09392.01339-.48142.02547-.83809.03488a14.62562,14.62562,0,0,0-.14081,1.96447,13.42457,13.42457,0,0,0,2.24074,7.43827c.49481-.04428,1.0164-.07648,1.24839-.11939.38887-.07237.7912-.13945,1.16531-.22657.13807-.03357.28156-.08314.43981-.13278a2.85091,2.85091,0,0,1,1.48443-.19176,9.60728,9.60728,0,0,1,1.43616.46934,8.8447,8.8447,0,0,0,1.699.535,4.66578,4.66578,0,0,0,2.07583-.21991,6.38713,6.38713,0,0,1,.9038-.20116c.44249-.06166.86357-.08713,1.227-.10725,1.13578-.06172,1.89341-.10058,2.48612-1.109l.03351-.05767.06838.00941c.13814.01881.27353.04826.42238.08046a2.42017,2.42017,0,0,0,1.12377.07642,1.86908,1.86908,0,0,0,.9695-.8488.899.899,0,0,0,.1126-.85416C96.86259,183.37586,95.70538,183.337,94.76938,183.3048Z" fill="#d9d9d9"/><polygon points="92.416 173.671 92.411 173.669 92.404 173.669 92.416 173.671" fill="#d9d9d9"/><path d="M97.36007,173.87391a1.70519,1.70519,0,0,0-.59937.16354,2.23056,2.23056,0,0,1-.48945.15963,10.81807,10.81807,0,0,1-1.14787.09385c-.33388.01607-.64229.02815-.928.067l-.08314.0094a6.44454,6.44454,0,0,0-1.79551.39959.94274.94274,0,0,0-.49481.63967.832.832,0,0,0,.173.72412c.19039.2333.3218.25341.6611.31514.063.012.14075.02279.22121.04153a3.8894,3.8894,0,0,1,.40233.10326,4.14344,4.14344,0,0,0,.68924.15153,9.58834,9.58834,0,0,0,2.90315-.23872c.28561-.05493.55646-.10724.82333-.14885a2.35772,2.35772,0,0,1,.30168-.02677.947.947,0,0,0,.43988-.0872,1.01,1.01,0,0,0,.46934-.72007,1.5112,1.5112,0,0,0-.33257-1.16531A1.35774,1.35774,0,0,0,97.36007,173.87391Z" fill="#d9d9d9"/><path d="M99.35675,177.92088c-.17164-.62492-.81262-.90648-1.75933-.77912a1.66662,1.66662,0,0,0-.362.10862,1.80757,1.80757,0,0,1-.34864.11664,13.17533,13.17533,0,0,1-3.36582.06578c-.10724-.00941-.22259-.02685-.3312-.04024-.68252-.0966-1.32617-.181-1.74725.2655-.27359.291-.36209.5404-.27359.76566.1542.39958,1.04063,1.11437,5.22168,1.42813l.17034.01339a4.64488,4.64488,0,0,0,1.75795-.07106A1.70543,1.70543,0,0,0,99.35675,177.92088Z" fill="#d9d9d9"/><path d="M97.09588,180.60542l.055-.01606c-.03619-.00268-.2977,0-.50552.0094-.37411.00666-.64634.01744-.7268.00666-.37281-.03748-.75763-.07106-1.17067-.10724-.70668-.05362-1.44282-.11266-2.16564-.2186a2.52824,2.52824,0,0,1-.43308-.11129,2.0469,2.0469,0,0,0-.93064-.1126.883.883,0,0,0-.71074.70263.9135.9135,0,0,0,.30175.98557,11.36077,11.36077,0,0,0,3.93437.98694,3.81289,3.81289,0,0,0,.66109-.012,2.55057,2.55057,0,0,1,.7737.012,1.64115,1.64115,0,0,1,.37013.14219,1.15723,1.15723,0,0,0,.78982.15015,1.58076,1.58076,0,0,0,1.00163-.76834.934.934,0,0,0,.13684-.99634A1.55781,1.55781,0,0,0,97.09588,180.60542Z" fill="#d9d9d9"/><polygon points="73.554 144.618 78.274 154.543 73.31 156.906 87.502 162.758 87.502 162.758 91.91 148.057 86.952 150.417 82.23 140.493 73.554 144.618" fill="#fff" stroke="#fff" stroke-linecap="round" stroke-linejoin="round" stroke-width="4"/><rect x="71.68798" y="137.75253" width="9.60845" height="3.71958" transform="translate(-52.48238 46.29451) rotate(-25.39499)" stroke-width="4" stroke="#fff" stroke-linecap="round" stroke-linejoin="round" fill="#fff"/><rect x="69.89394" y="134.91089" width="9.60834" height="1.8615" transform="translate(-51.08785 45.22899) rotate(-25.42608)" stroke-width="4" stroke="#fff" stroke-linecap="round" stroke-linejoin="round" fill="#fff"/><polygon points="73.554 144.618 78.274 154.543 73.31 156.906 87.502 162.758 87.502 162.758 91.91 148.057 86.952 150.417 82.23 140.493 73.554 144.618" fill="#252525"/><rect x="71.68798" y="137.75253" width="9.60845" height="3.71958" transform="translate(-52.48238 46.29451) rotate(-25.39499)" fill="#252525"/><rect x="69.89394" y="134.91089" width="9.60834" height="1.8615" transform="translate(-51.08785 45.22899) rotate(-25.42608)" fill="#252525"/><line x1="37.74299" y1="25.01565" x2="37.74299" y2="69.28845" fill="#fff" stroke="#000" stroke-miterlimit="10" stroke-width="3"/><path d="M35.73674,12.05176H34.29192V3.4165H31.16448V2.26074c1.64892,0,3.14453-.4248,3.46728-2.26074h1.105Z"/><path d="M42.43547,5.15039h-1.8872V3.26367h1.8872ZM40.54827,10.165h1.8872v1.88672h-1.8872Z"/><path d="M49.915,12.05176H48.47014V3.4165H45.3427V2.26074c1.64844,0,3.14453-.4248,3.46729-2.26074h1.105Z"/></g></g></svg>