<svg xmlns="http://www.w3.org/2000/svg" xmlns:xlink="http://www.w3.org/1999/xlink" viewBox="0 0 125.4725 226.17198"><defs><linearGradient id="linear-gradient" x1="-1544.94515" y1="1145.7912" x2="-1548.78658" y2="1158.84984" gradientTransform="matrix(-0.5276, 0.51146, -0.14649, -1.84164, -560.33118, 3033.0689)" gradientUnits="userSpaceOnUse"><stop offset="0" stop-color="#fff"/><stop offset="1" stop-color="#fff" stop-opacity="0"/></linearGradient></defs><title>MAESTRO-Pe06-rapport-mouflage-4</title><g id="Calque_2" data-name="Calque 2"><g id="Calque_1-2" data-name="Calque 1"><g opacity="0.2"><path d="M49.51425,167.03513V82.69088a8.58485,8.58485,0,0,1,16.2378-3.88845l37.84425,81.7779,4.01505-1.86915L69.73275,76.86293a13.01251,13.01251,0,0,0-24.646,5.828v84.34425Z" fill="#34b3d1" stroke="#000" stroke-linecap="round" stroke-width="0.6"/><path d="M67.65772,77.92092a10.68387,10.68387,0,0,0-20.24365,4.76953" fill="#34b3d1" stroke="#000" stroke-linecap="round" stroke-width="0.6"/><path d="M49.56622,84.18123a8.76362,8.76362,0,1,1,7.15735,7.14893A8.77066,8.77066,0,0,1,49.56622,84.18123Z" fill="#fff" stroke="#000" stroke-miterlimit="10" stroke-width="3"/><rect x="82.24746" y="103.83487" width="9.49228" height="33.13712" transform="translate(-41.85212 46.48689) rotate(-24.30909)" fill="url(#linear-gradient)"/><path d="M60.56143,179.72423a13.49868,13.49868,0,1,1-13.5-13.5A13.50281,13.50281,0,0,1,60.56143,179.72423Z" fill="#686166"/><path d="M40.74667,173.18018l-.00266-.00463C40.746,173.19283,40.74667,173.19079,40.74667,173.18018Z" fill="#d9d9d9"/><polygon points="40.121 188.464 40.126 188.465 40.127 188.458 40.121 188.464" fill="#d9d9d9"/><path d="M43.71266,174.038c.00537.0013.00932.006.014.008h.00061Z" fill="#d9d9d9"/><path d="M54.03534,174.04862s.07709-.13023-.06375-.105a16.08583,16.08583,0,0,1-2.07571.18337c-.06117.28569-.19139.45579-.24187.7176a1.46245,1.46245,0,0,0,0,.3721.80244.80244,0,0,0,.72821.186A2.56245,2.56245,0,0,0,54.03534,174.04862Z" fill="#d9d9d9"/><path d="M50.08062,177.4c.11825.09566.35081.1701.40136.34285a1.03148,1.03148,0,0,1,.01857.25514c1.02058-.101,2.22451.03456,3.21855-.10369a5.08392,5.08392,0,0,0,.80265-.13288,5.64722,5.64722,0,0,0,1.29959-2.11558c-.03191-.18336-.27242-.41061-.38006-.52621a2.623,2.623,0,0,1-.49831-.59533c.04055-.1256.07042-.2465.11294-.4066.35618-1.33021.08505-2.83317-1.22523-2.71492a1.38268,1.38268,0,0,0-.87966.38938c-.06382.06375-.117.206-.19139.25378-.09567.06246-.21922.04123-.32421.09036a2.09827,2.09827,0,0,0-.65119.80666,2.02933,2.02933,0,0,0-.28433.78135c-.01334.07178-.06913.1754-.09437.25385a.97191.97191,0,0,1,.62854.02259,13.17,13.17,0,0,1,.804-1.40594c.44246.081,1.09229-.67113,1.41656,0a3.04627,3.04627,0,0,1-.0213,1.33946c-.04715.65249.28107.46117.495.47709a5.87024,5.87024,0,0,1-.85783,1.099,2.58541,2.58541,0,0,1-1.49364.804c-1.24381.15546-1.64782-1.15345-1.24381-2.32153-.19935.02388-.30032-.10635-.53552-.07178-.87572.13022-.88239.35611-1.33954.94219-.194.24977-.37074.50362-.5754.73746A3.86618,3.86618,0,0,0,50.08062,177.4Z" fill="#d9d9d9"/><path d="M58.58009,179.03058c-.26977-.46117-1.55474-2.89033-2.02788-2.784-.24181.05314-.37469.52485-.501.73617a6.835,6.835,0,0,0-.64717,1.19863c-.04784.388.25779.52893.36148.75611a2.52887,2.52887,0,0,1,.2299.55683c.03055.16478-.0332.28439,0,.41061a10.22308,10.22308,0,0,0,1.01656,1.68367c.09968.19139.09036.38142.226.52893.2631-.44123.61921-.79469.88368-1.24122.19928-.35346.38135-.74815.55281-1.10562.04252-.093.05184-.2644.11559-.32421C58.83122,179.404,58.59737,179.06378,58.58009,179.03058Z" fill="#d9d9d9"/><path d="M48.84083,177.6047c-.29372-.4864-.51961-1.0073-1.23054-1.03391-.1688.34754-.66977,1.04316-1.083,1.74083-.01334-.01395-.03191-.03783-.04388-.04919.0053-.03851-.03055-.07042-.04117-.09961.00395.01993-.01864.03184-.028.01993-.05314-.07443-.01456.008-.08369-.06116a2.385,2.385,0,0,1-.34815-.51158c-.06913-.016-.07974-.08906-.13159-.113l.00933-.00266c-.04389-.0332-.1967-.30562-.24719-.34815l.00266.01334c-.02654-.01334-.02919-.02593-.02858-.04055a.04771.04771,0,0,1,.00068-.0166l-.002.002a.07215.07215,0,0,0-.002-.04055.05055.05055,0,0,1-.03586.01265l.004-.018H45.5505l.01729-.01327a2.2464,2.2464,0,0,0-.15949-.45313c.00933-.00932.01334-.00265.01334-.00265a.52592.52592,0,0,0-.07443-.10635c.00666-.01993.02789-.02789.03721-.03585-.02395.01462-.13818-.2033-.13022-.21133l-.05852.02926c-.01993-.04117.05981-.04654.02661-.07838-.0877.02122-.02661-.06648-.07178-.05716a.03784.03784,0,0,1,.02129-.0332c-.04653.01327-.01864-.01728-.03456-.02395-.01463.00531-.01061.01062-.02395.01994l-.02919-.02259c.01062-.01327.03184-.02926.04382-.0213a2.4643,2.4643,0,0,0-.21262-.50627c-.02654.02259.00667.03586-.03722.07307-.04116-.0053-.0066-.03456-.04252-.02919.07314-.04524-.004-.05449.06776-.10763l-.04783.01456.0213-.02123c-.09172-.06913-.03055-.012-.06647-.09566-.02525-.03987-.09567-.03191-.089-.06913,0,0-.01728.02524-.03456.02123.03456-.02123-.04123-.01857-.00667-.04252-.012-.01191-.02653-.04784-.07042-.01062.0213-.01993.01728-.05844.04919-.05178-.00666-.012-.0053-.0266-.01728-.028l-.00932.0213c-.0266-.03586.004-.07573-.05314-.07709l-.01728.0266c-.012-.02259-.02524-.03592.01728-.07314l.03321.016a.16315.16315,0,0,0-.07975-.07845l.00137.01334c-.07042-.016-.22324-.2033-.30033-.20868l-.03191.03593-.05048-.01068a1.21342,1.21342,0,0,1,.12621-.04382.81955.81955,0,0,1-.11158-.24317c.01061-.03987.06375-.03456.06375-.03456-.02524-.02926-.04518.004-.0545-.024l.03722-.01327c-.008-.01061.00265-.02925-.01858-.01728-.00932.0213-.05585.03858-.0864.05981l-.01259-.03253.00333-.004.02654-.01266-.01858.00334c.00395-.0066.01062-.00864.01327-.0166a.13994.13994,0,0,1-.08369-.00334l-.00666-.00333a.31767.31767,0,0,1-.01592-.05049.51374.51374,0,0,1-.01729-.06245.17321.17321,0,0,0-.03191-.06512.06657.06657,0,0,1,.0279.00136l.008-.02259c-.02654.02654-.03055-.016-.03987.004l-.00925-.004s-.00667-.0053-.004-.01068l-.00265.008-.008-.00265c.0053-.00266-.02259-.02661-.016-.03191-.01191-.01327-.0332-.04783-.0345-.0266,0,0-.01864-.04253.0013-.0279a.10872.10872,0,0,1-.01592-.02123l-.00137.00925c-.02653-.02918-.03456-.05313-.06375-.06511l.0066.01463c-.01463-.01728-.03585-.02524-.03456-.04252l.028.01061a.30927.30927,0,0,0-.07906-.04382l-.016-.004a.58905.58905,0,0,1-.04055-.0611c.00932-.09437-.64711.05981-.73216-.04518l-.06511-.07443-.24984.03919a.66788.66788,0,0,1-.01993-.27705c-.04518-.01728-.01864-.05579-.05314-.07444l.01456.00137a.4812.4812,0,0,1-.02055-.14887,1.382,1.382,0,0,0,.35013-.24052,2.11514,2.11514,0,0,0,.44388-.61c.04783-.06375.05314.01463.05844.01728.02395-.10233-.01857-.05715.01327-.13818.01334-.01994.02395.01326.02259.02925.00932-.03857.03062-.06647.01728-.07579-.02789.04252-.05715.004-.09035.00932a.7078.7078,0,0,0,.03456-.10233l.02395.01592a1.21457,1.21457,0,0,1,.00531-.30032,1.20245,1.20245,0,0,0-.00266-.44647c.01327,0,.02919.03851.04253.07975,0-.0279-.012-.06648,0-.08907-.0213.04783-.02926-.07838-.03457-.04252a4.50975,4.50975,0,0,0-.3163-.3721,1.57223,1.57223,0,0,0-.27243.05184.78014.78014,0,0,0-.05708-.15948c.19663-.11825.38135-.24983.37074-.42789l.02259-.01191-.03722-.05184c-.03457-.07178-.081-.07709-.05981-.08906l.06512.08375c-.03988-.06647.00265-.03327.02789-.01864a.41468.41468,0,0,1-.04116-.07974c-.01864-.008-.00136.01463,0,.03062a.52131.52131,0,0,1-.109-.10233c-.0545-.05981.02524-.03457-.03586-.10764a1.75607,1.75607,0,0,0-1.25047-.63391c-.01061-.012.00129-.01062.01728-.01592a1.57253,1.57253,0,0,0-.396.04647.14981.14981,0,0,1-.06117-.02919c.01062.0066-.16342.04912-.32821.13553a2.00654,2.00654,0,0,0-.31359.18738l.01456.05579c-.10764.08375-.06641-.02524-.15547.07042.00266.0877-.15281.15819-.15812.21929,0,0-.04518.04517-.05715.02789.01864.04253-.0332.06382-.05048.10233-.00137.01728.01592-.00129.0332-.004-.01592.028-.02259.0545-.04253.08777-.02258.02258-.04647.02122-.03191-.01865a2.02807,2.02807,0,0,0-.291.81728,2.1566,2.1566,0,0,0,.08906.92089c.01728-.03987-.0279-.1209.012-.16342.03586.0664.01722.10763.05049.13022-.05185.05049.03456.16207,0,.23916l.04252.008-.00667.04524c.18337.279.15948.004.30434.2644.101.13825.198.13954.2418.22194-.00394-.01327-.01592-.05579.0213-.02926-.01864.02926.04783.05321.04116.09437a.33035.33035,0,0,1,.03593.14683c.00728.03721.08171.11029.02259.08307.02919.02524.05715.05715.08368.0611l-.03721-.04116c.109.07838.16084.14614.24983.15016l-.03055-.04389c.06246.04253.12091.06512.1369.11832l-.0811-.02129a.84626.84626,0,0,0,.21792.07042.06554.06554,0,0,0,.01068.02524.11049.11049,0,0,1-.03857.01728c.02258-.0066.04783.11961.04123.12362l.04647-.00666c.00265.02524-.05178.01463-.03722.03721.07049-.004-.00265.03586.03722.03586-.0066.00265-.0066.01334-.02654.016.03722-.004.01062.01191.01858.01592.01061.00136.012-.00265.02395-.008l.01857.01327a.3223.3223,0,0,1-.03722.016.71216.71216,0,0,0,.01865.279c.02653-.00667.00265-.01728.04647-.02926.02789.00538-.00395.016.01993.01729-.04314.01-.04116.01993-.0498.03123a2.38644,2.38644,0,0,0-.52825.21731l-.05185.008.00932.02926c-.02524.04252.03858.04783-.01462.05579l.004-.05185c-.01463.04123-.04123.01728-.07573.01062a.0696.0696,0,0,1-.028.04919c.02266.004.02395-.008.03858-.01728.01993.01728.07042.03191.04783.06246-.00136.03857-.08641.01993-.0877.06912l-.002.0166-.02061.00994-.04654-.03586a.07351.07351,0,0,1,.01864-.02259c-.01333-.01061-.03721.004-.03592.02524l.03722.03055c-.01191.03858-.03055-.0119-.04647.01865-.03457-.024-.01865-.05586-.00531-.07845-.0213.01728-.05715.01993-.03062.05055-.02789.01061-.03721-.03191-.06511-.01994-.00395.02259.00932.06376-.02388.06777l-.008-.00667c-.04518.01463-.028.05845-.03722.09437-.01864.01728-.01463-.00667-.03191.01728h-.00531v-.00666c-.0266,0-.02925.04783-.06511.05449l.01994.004a.08937.08937,0,0,1-.016.03593c-.01592.01592-.02388.03585-.05314.0385l.01061.04389c-.08634.093-.18336.2631-.26045.36673l.00136-.008a6.66092,6.66092,0,0,0-.45844.65916c-.04524.00265-.06647.03715-.09437.05443.02123-.004.04117.01864.02525.03062-.06246.07436.01993.02388-.03055.10893a2.28634,2.28634,0,0,1-.45184.485c.008.07573-.07042.10369-.07573.16608l-.008-.01191c-.01994.05716-.26712.28039-.29638.34414l.012-.00129c-.00531.0664-.05049.02259-.093.04252a.11973.11973,0,0,1,.03722.11825l-.012-.01326a.66624.66624,0,0,1-.03456.15941l-.02259-.02388c.004.05579-.05579.10362-.07443.12757-.05314.03987-.15948.07974-.18207.17676l-.11424-.01993.00531.01456s.03851.03327.10233.08375l-.008.01592-.00538-.008a.60624.60624,0,0,0-.02388.12893l-.012.01457a.51928.51928,0,0,0,.00136.12491.60655.60655,0,0,0,.02653.12492l.01463.00265c.01728.04253-.01592.01729.00667.05981.02789.008.0332.06185.04912.07443a1.34323,1.34323,0,0,0-.02259.30434c-.01061.004-.0119-.00136-.0119-.00136.00925.03592.0066.06912.01857.10369a.05913.05913,0,0,1-.03987.02259c.024-.00531.03586.20193.02926.20193l.05184-.00129c0,.03722-.05851.01728-.04252.05185.06906.008-.004.0611.03184.07307a.03456.03456,0,0,1-.0279.01728c.03586.00265.00932.01592.01994.02654l.02129-.008.01327.0266-.02925.01327a1.52639,1.52639,0,0,0-.01327.45449c.02123-.00932.00265-.03191.04783-.04518.02789.01858-.00667.03321.01728.03722-.06246.01191-.00932.04252-.07838.06246h.03715l-.02259.01721c.04654.07709.01994.01334.01463.09043.00932.04252.06117.05844.04518.08239,0,0,.01864-.012.02925-.00136-.02925.00136.02395.0266-.00932.03456.00531.00932.00266.04913.04783.03055-.02259.00531-.02919.03987-.04912.01858-.00136.01462-.00531.0266.00129.03721l.016-.01592c.00395.03321-.02524.05579.01463.07444l.01592-.01463c.004.02259.00932.03987-.03722.05048l-.01326-.01993a.14613.14613,0,0,0,.03456.0877v-.01062c.04783.03191.089.22854.14744.25916l.03327-.01993.03055.02653-.10362-.008a2.96811,2.96811,0,0,1,.03184.4598c-.01728.02654-.05579.0066-.06375.01062.01462.02524.0385.0053.03721.03055-.004.00932-.02789,0-.02789,0-.00136.012-.008.024.00394.01993.01327-.01592.0545-.01327.08376-.02123l-.00266.03185-.0266.00272s.07573.00925.05981.04517a1.163,1.163,0,0,0,0,.16745.051.051,0,0,1-.03593-.0213s.00272.01857-.00925.01994c.0279-.012.02259.02258.02259.02258.07974.0213.01993.081.0664.113l.099-.00266c-.06443.1535-.17071.41531-.20262.52628l-.04518.01191c.01592.03327-.01326.0532-.004.09573-.01061.01592-.0332.00265-.03586-.008.008.03721-.03191.06116-.01592.0877l.01327-.00129c.01592.06109-.08239.0598-.06647.12621h.00666c.01327.03191-.03191.04388-.04783.05851.00266.03456.04117.01993.04913.04647-.04253-.00395.1954.17275.19139.19534.012-.02388.03055-.05049.06375-.0345-.01456.02919.30039.11955.27379.15145l.09967-.00659c-.01728.008-.01993.04116,0,.04783-.00667-.004-.00136-.01994.00129-.03593l.6246.09839c.06511-.02926.02394-.12227.1143-.14486.01061.01728.01592-.03191.03851-.004-.00531-.01327.00136-.02388.00265-.03851-.01728.01327-.02789.02259-.04919.01857a1.97338,1.97338,0,0,0,.07049-.21792c-.00136-.04783.089-.04117.089-.04117L39.928,182.168l.012-.04388c.02789.02129.07974.03191.08906.05184.01857.004.008-.012.008-.02524l-.0279-.004c.00667-.03321.09968-.10764.12621-.1422,0,0-.04912.01068-.06375-.02654.00334-.07838-.27841-.58336-.319-.75549l.02259-.00062c.00136.01062.00136.02388-.0066.02654a.02672.02672,0,0,0,.01327-.04117l-.03191.00463-.0013-.00394c-.002-.012.01926-.00735.01729-.02729.03054-.008.03449.01592.03851.03858.004-.01994.02258-.03858-.008-.04654.01062-.01463.03586-.00265.0492-.02395-.01069-.01327-.04123-.02919-.02266-.04518l.00272-.00265c.03184-.04252-.04919-.05715-.016-.101l.00932.004c.01592-.01456-.00666-.0398.01062-.06375,0,0-.03055.01462-.03191,0,.01864-.0279-.00395-.04389.02129-.06648l-.03456-.01857c.00136-.09437-.05844-.47443-.06913-.56873l.008.00265a4.48069,4.48069,0,0,0-.08239-.59669c.02789-.02661.02123-.05981.02524-.085-.012.01864-.0332.01327-.03191.00136.004-.07443-.01994-.00136-.0332-.07709a1.41692,1.41692,0,0,1,.0053-.50232c-.04919-.03722-.01864-.09036-.04252-.13159l.00531.00265c-.01592-.03851.01326-.29365-.00531-.33747l-.004.00266c-.02919-.03987.01728-.03987.03061-.07444a.078.078,0,0,1-.08375-.04123l.00932.00136a.24648.24648,0,0,0-.02926-.0498,2.22531,2.22531,0,0,0,.35081-.33822c.016.008.01068.01062.01333.01858.01994-.05049.05314-.085.07573-.13288a.29826.29826,0,0,1,.05184.01728c-.02925-.012.1435-.22725.15282-.22459l-.04389-.04117c.02926-.04123.06382.03457.07974-.01061-.05313-.07178.06117-.05715.03722-.09968a.03636.03636,0,0,1,.03987.0066c-.03191-.03585.00667-.02524.00531-.04381-.004-.01334-.00932-.00667-.02524-.01463l.00932-.03851c.01993.00265.04381.01857.03851.03449a3.36211,3.36211,0,0,0,.42122-.44782c-.03585-.01463-.03715.02129-.0877-.00266-.008-.04116.03062-.02259.01334-.05177.07307.04381.05048-.03593.13151.008l-.03054-.03593.02925.00667c.01463-.05913.01463-.06647.01926-.06845a.61591.61591,0,0,0,.0153.10036c.0558-.0332.01593-.06246.101-.093.05314.02388-.01326.05049.04253.05579-.13288.04117-.02524.081-.15547.13424l.07443-.00667-.04524.02926c.08906.13553.03987.02654.03592.16077.01858.07975.12492.09036.089.1422,0,0,.04653-.03191.06783-.016-.06783.016.05049.03987-.012.06511.008.01728.008.08375.09164.03987-.04252.02259-.05579.08239-.0996.05586-.00137.02123-.00933.04381.01061.05177l.02259-.03054c.01728.06116-.05049.11029.03722.13689l.03456-.03191c.00925.03456.01857.07042-.06913.10369l-.03456-.03722a.20347.20347,0,0,0,.07178.14349v-.01728c.09566.04919.20466.388.31624.42395l.06777-.03722.06116.04116c0-.00932-.22459.01994-.20064.00933a4.43221,4.43221,0,0,1,.08634.81326.11507.11507,0,0,1-.11029.03191c.01857.04647.06647.008.06246.0545-.012.01592-.05715.00925-.05715.00925s-.02389.03456.01326.02925c.0213-.0266.10764-.03456.16214-.05844l-.0013.05844-.05585.01062c0,.01061.15152.00265.12757.06117a.41557.41557,0,0,0,.002.06375l-.18541-.008c.00266-.01592.008-.03191.01729-.03586a.03589.03589,0,0,0-.02926.05178l.05981.008c.01864.03714-.03586.0066-.03321.04517-.04919,0-.05579-.03721-.06116-.06912-.008.03055-.04253.05449.00932.06912-.02259.02388-.0611-.00537-.08369.02388.01463.024.05579.05852.02919.0824l-.01191-.00129c-.05184.05844.07171.10362.01858.15941l-.01729-.01061c-.03054.01864.00266.06245-.02789.101.008-.0119.04654-.01993.05048.004-.0332.04388-.00265.07572-.04517.101l.04653.03327c-.016.1475.02389.58737.02259.73617l-.008-.00667a7.22758,7.22758,0,0,0,.081.94886c-.05185.03185-.04253.0824-.05845.11955.02123-.02123.05049-.008.04912.00666-.00925.117.03055.00933.0492.12758a2.35128,2.35128,0,0,1-.101.776c.0664.06913.00925.14621.04912.21133l-.01728-.008c.02395.07307-.07042.45442-.04518.53416l.008-.01061c.03987.07042-.03715.05844-.06246.11029a.11854.11854,0,0,1,.12227.08375l-.01858-.00136a.87128.87128,0,0,1,.08369.17275l-.04518-.0053c.00932.00993.00667.02395.01069.03585-.01933.008-.04124.01932-.03457.03191l.05049.02062-.00068.02061c-.01259-.00068-.0279-.004-.03253.01858-.0532-.01592-.05055-.05314-.0479-.085-.01326.0266-.05708.03851-.0053.06913-.0279.01857-.06246-.024-.0943.00129.00925.02524.05048.06777.0119.08239l-.00925-.0053c-.06913.04252.06906.02258,0,.0598l-.01333-.01327c-.03586.00926-.008.0624-.05178.08369.01463-.004.05443-.00136.05314.01994-.04389.02925-.02395.06776-.07042.08368l.04116.03987c-.05715.13955-.16479.69637-.2033.83456l-.00667-.00531c-.04252.21793-.35611.61922-.35876.85844-.05851.01592-.06246.06511-.0877.09566.02388-.0119.05715.00932.05048.0213-.03851.10362.03191.01592.01728.13288a1.49108,1.49108,0,0,1-.2352.59c.05184.07709-.02525.13418.00129.21l-.01592-.01334c.0053.06913-.17541.40136-.17541.47974l.01593-.00394c.02524.07436-.05178.04116-.09036.085a.13289.13289,0,0,1,.10634.11029l-.016-.008c.00265.03586-.18473.10492-.18867.16343l-.04518-.01864c.03191.05586-.01463.13158-.01864.16349-.04253.06376.03857.22058.06647.33489l-.14485.01857.01061.01463s.20269.08239.46708.18l-.196-.03184c-.03123.18-.17547.81659-.18608.984l-.05178.02654c.0345.04123-.00136.07178.02259.12226-.008.02525-.04389.01062-.04919-.004.02524.04654-.01865.08641.00394.11566l.016-.008c.04518.07708-.08641.09573-.04123.17411h.00538c.02789.0332-.02661.0598-.04253.08239.01592.04116.05709.01327.077.04518-.05443.008-.02524.04123-.02259.07974.012-.03722.02661-.07573.07178-.06913-.00932.04654.05049.01728.02661.05851l-.06117-.0053c-.01592.01721-.008.06109.008.06246l.00265-.04253,1.72491.10893c.07838-.05048,1.4684.04252,1.58134-.01327.016.02123.00667-.04388.05185-.01333-.0213-.01191-.01062-.03184-.00932-.04253-.01729.016-.03722.03593-.05981.03457.00265-.09832-.19-.33489-.198-.43184-.01728-.05715.10233-.06117.101-.07443l-.04253-.004-.79332-.25181c.02524.002.01333-.01728.02129-.03653-.01326.00666-.04517.01728-.05313.00265-.00136-.04654.03449-.00932.05048-.05981,0,0-.0598.02661-.0877-.01592-.014-.08239-.3887-.31032-.57676-.46912.00469-.00531.00667-.01327.016-.01463-.01334-.01191-.016-.00129-.028-.00265-.0119-.01728-.04116-.05443-.01728-.06641.01069-.0266.06913.02123.085-.012.097-.17677.02531-.41857.07443-.60731.01865.00136.01729.00531.01729.00531a1.59186,1.59186,0,0,0,.03055-.16207.391.391,0,0,1,.06912,0c-.03851-.00272.05579-.299.06777-.30039l-.07974-.0279c.016-.05715.093.00933.09437-.04116-.105-.06117.03987-.085-.01327-.12226a.05156.05156,0,0,1,.05178-.01062c-.05716-.02524-.00395-.03055-.01191-.04783-.01463-.01333-.0213-.00265-.03987-.00265l-.008-.04123c.0213-.01327.06117-.004.05981.01463a3.018,3.018,0,0,0,.26582-.64052c-.05184,0-.03191.04253-.105.02926-.02926-.03858.02919-.03456-.008-.06382.109.0266.04252-.04919.15554-.03055l-.05852-.02789.04123-.00266c-.02129-.13825-.01864-.03721.02919-.13954.012-.06246-.0611-.12227-.01857-.14084,0,0-.04518.00265-.05579-.01865.05579.01865-.02395-.05449.03184-.04517.00136-.01858.024-.06648-.05715-.07308.03857.004.06912-.0332.09171.0013.00932-.01463.0266-.02525.01062-.04117l-.02389.01062c.004-.0545.16214-.13288.10893-.186l.05321.15941c.008-.0332-.07845-.21261-.00531-.19663l.01456.03851a.20215.20215,0,0,0-.00394-.13954l-.008.01463c-.05321-.07838.069-.2312-.00538-.31094l-.0611.008-.0332-.05844a1.14308,1.14308,0,0,1,.15145.07572,4.51668,4.51668,0,0,1,.19071-.61595c.00334.00068.01062-.00061.00463.0047.01334-.00667.03191-.008.03722-.01994l-.02259.00531c.018-.01.022-.018.03592-.02456a.18435.18435,0,0,1,.05314.02055.04668.04668,0,0,0-.0213-.04314c.00531-.004.016-.00735.01994-.01334a.23648.23648,0,0,0,.024.0113c-.00531-.01395.002-.01994-.00531-.02722.01327-.00932.02592-.02327.04117-.02061l-.02389.02789a.27707.27707,0,0,0,.08771-.09831l-.01334.01463a.94607.94607,0,0,0,.0877-.18071.35992.35992,0,0,0,.02259-.18738l-.01721.01994a.163.163,0,0,0-.01069-.04389l.04518.03191c0-.01061.00136-.0279.00265-.04783l.01334.00129-.00136-.02919c.02395-.03061-.02388-.04789.01993-.04524l-.00932.04524c.01334-.03061.03457-.00537.05852.01062a.06974.06974,0,0,1,.02258-.03858c-.01326-.008-.01592.00136-.0266.00667-.01327-.01592-.05314-.04518-.03055-.06375.00667-.03457.07042,0,.07974-.03987a3.2439,3.2439,0,0,0,.10764-.60337c.02259-.00265.01857.004.01857.004-.008-.0545.00266-.113-.01061-.16874a.30414.30414,0,0,1,.06647-.02395c-.03857.01062-.02259-.31229-.01068-.31358l-.07967-.012c.00265-.06117.089-.012.07436-.07178-.10627-.0279.01865-.089-.04116-.1156a.05611.05611,0,0,1,.05185-.02395c-.06246-.01061-.012-.02918-.02661-.04517-.01857-.008-.01857.00136-.03851.0053l-.01728-.03987c.01858-.01061.05579-.01326.0611-.00129a3.9529,3.9529,0,0,0,.07443-.402c.07573.09566.16541.24181.24188.26113l.05178-.03722.05851.03055a.99579.99579,0,0,1-.17411.01729,3.65343,3.65343,0,0,1,.1754.68038c-.02388.04116-.09035.02925-.09035.02925.02259.04117.05579.004.05844.04382-.008.01061-.04647.01061-.05579.00531.01327.01463-.00531.03327.02395.03055.01592-.0279.09036-.03981.13288-.05709l.00531.04913-.04654.00932c.004.00932.13158-.008.121.04517a1.911,1.911,0,0,0,.04252.24453.092.092,0,0,1-.07048-.01864c.004.01334.01462.0266-.00266.04253.04389-.03185.03987.02129.05586.004.12492.02524.04117.12886.13288.16077l.07307-.02524a.12041.12041,0,0,1,.00933.03055c.01592.02524.00932.03191.00932.03191s.02721.04252.06239.0877c-.01524.20466-.00592.65051-.01191.776l-.00667-.008c.00136.22324-.21663.683-.17009.9143-.05314.02919-.04919.07974-.06375.11424.02122-.01858.05708-.008.05443.00667-.01858.11559.03327.012.04252.12627a1.44618,1.44618,0,0,1-.101.62854c.06777.06777.004.14084.04518.206l-.01728-.01061c.01993.06913-.08634.42789-.06777.50763l.01062-.01061c.03987.07042-.04117.05314-.07308.101a.14558.14558,0,0,1,.13159.085l-.0213-.00136c.01463.03722-.15547.14486-.15016.19806l-.04381-.008c.04381.05056.0119.1356.01592.16479-.02661.07444.08906.21.13689.315l-.13689.04783.012.01068s.07573.01327.18738.03123a5.6812,5.6812,0,0,0-.09968.5654l-.05184.0266c.03191.04253,0,.07838.02259.12758-.00667.02918-.03987.01462-.05049.00129.02388.04388-.01993.09437.008.12226l.01463-.012c.04116.07709-.0877.10763-.04654.18472h.00667c.0266.03457-.0266.06777-.04783.093.01857.04123.06511.00932.07974.04252-.05586.00933-.02259.04389-.0213.07845.01069-.03592.02661-.07974.07444-.06912-.01062.04517.05048.012.02259.0598l-.05716-.00136c-.01993.01728-.012.05981.00667.05851a.402.402,0,0,0,0-.04252l2.44645.1156c.07573-.05716.61656.00136.72957-.06246.01722.01864.01062-.04647.05314-.01728-.016-.012-.00932-.03321-.00667-.05049a.08336.08336,0,0,1-.06375.04116c.00266-.0996.03184-.206.02654-.303-.01592-.06375.101-.08634.101-.08634h-.04123l.00136-.05981c-.13287-.07042-.01728.07974-.19533-.03585.02258.00265-.17813-.101-.16881-.12227-.00932.00531-.03987.01994-.05313.00531.00394-.04654-.29767-.08641-.27107-.1422a1.87658,1.87658,0,0,1-.41462-.19268c-.016-.0724-.26977-.13819-.44586-.208l-.00333-.02456c.02524-.0266-.02524-.04783.01864-.04252l-.01068.04252c.01993-.0266.04252-.004.06647.01062a.05575.05575,0,0,1,.024-.03191c-.01333-.01062-.01728.00136-.01728.00136-.02395-.01463-.06246-.04253-.03987-.05981.00395-.03191.07171.00531.081-.03055.0545-.19268-.06776-.41462-.05844-.61261.02123.00136.02123.0053.02123.0053a1.12536,1.12536,0,0,0-.00932-.16479.19247.19247,0,0,1,.06783-.01326c-.03722.0053-.00932-.30032.00265-.30964l-.0811-.01062c.00531-.05715.097-.00932.07974-.06382-.11165-.0332.01728-.0877-.03585-.1156a.0468.0468,0,0,1,.05177-.01592c-.0664-.01864-.01326-.03191-.02653-.04783-.01994-.008-.01994.00266-.04253.004l-.01728-.03851c.02123-.01327.05845-.01327.06375.00531a2.84074,2.84074,0,0,0,.12492-.679c-.04912.00659-.01993.04381-.09831.04912-.03722-.03456.01993-.04253-.02388-.05845.11559-.00265.0332-.06116.15016-.07307l-.06246-.012.03987-.00932c-.05185-.13424-.028-.03457-.00272-.13955-.00266-.06777-.08634-.10764-.05049-.13819,0,0-.04116.01327-.05314-.004.05314.004-.03721-.04912.01729-.05049-.004-.01728.008-.07041-.06913-.0598.03858-.0066.05851-.05049.09035-.01728.00136-.01858.01728-.03184,0-.04117l-.02259.01327c-.008-.05314.13295-.16343.06512-.206l.08906.1422c-.00136-.0332-.12227-.18608-.04654-.19268l.01994.03851a.1828.1828,0,0,0-.03185-.13554l-.00666.01463c-.07042-.06776.01857-.23786-.07042-.29767l-.05981.01729-.04388-.04783c-.00395.00394.18737.03987.16744.03987a3.4774,3.4774,0,0,1,.06117-.68039c.03585-.03721.09164.0013.09164.0013-.0066-.04518-.04783-.02259-.04116-.05981.01327-.01061.04518.00531.0545.012-.00667-.01729.01463-.0279-.01334-.03055-.02123.01592-.0943-.00266-.14213.00129l.01327-.04382.04518.00531c.00129-.00932-.12492-.03858-.09172-.085.0266-.07307.01864-.16213.03987-.23922.02395.00265.03858.0213.0545.04252.00531-.01326-.00265-.02918.01857-.03585-.05313.01463-.03055-.03722-.05177-.02524a.0902.0902,0,0,1-.03055-.03525c.002-.00462.0066-.01061.0053-.01524l-.00734.01259-.00266-.00266c.018-.04585.03722-.075.02994-.10831l-.016.01864c.00932-.03456.012-.06117.03191-.07307l.00265.03715a.51927.51927,0,0,0,.00136-.13554l-.004.01729a1.28,1.28,0,0,0-.03456-.15547c.0053-.01463.00666-.03055-.004-.03722l-.00932-.00129-.004-.008a.149.149,0,0,0-.01327-.03586.06708.06708,0,0,1,.06647.04784c.00129-.03055.03055-.06641-.028-.06246.01463-.02926.06116-.01592.07845-.05049-.01994-.01857-.0758-.03456-.05185-.06647l.008-.004c.03858-.07443-.101-.06912-.0611-.14084l.01858.0013c.0266-.0279-.02654-.0545-.0013-.09832-.008.01061-.04388.03184-.05715.01327.02524-.05049-.01333-.07178.01728-.11165l-.05586-.01327c-.02524-.14615-.19132-.52621-.23119-.67106l.008.004a5.899,5.899,0,0,0-.303-.8664c.04252-.04783.01728-.093.02129-.13424-.01333.0266-.0545.03327-.05586.01728-.01857-.1156-.03456,0-.08368-.10893a2.07971,2.07971,0,0,1-.12628-.7508c-.089-.03858-.05178-.13424-.11424-.17942l.01722.0013c-.04117-.05845-.0624-.44116-.10492-.50893l-.00537.01061c-.06246-.05313.02129-.06511.02925-.12355a.12678.12678,0,0,1-.15281-.03593l.01728-.00129c-.01864-.02524-.10634-.08376-.13288-.13288l.04783-.01061a.11852.11852,0,0,1-.0545-.07512l.19-.03524a.06362.06362,0,0,1-.01592.0479c.03457-.012.05049-.05321.02654-.06648l-.07573.01062c-.02789-.03987.04253-.02259.0332-.06375a.0677.0677,0,0,1,.09172.05715c.00265-.03191.04783-.07314-.02524-.07314.02524-.0345.07709-.01456.101-.05709-.02123-.01993-.0824-.04388-.05049-.07844l.012-.008c.05715-.0824-.10635-.09036-.04783-.16745l.02258.00136c.03191-.03327-.01728-.06783.01593-.11831-.01062.01462-.0558.03456-.06641.01068.0345-.05852-.00932-.08376.03715-.12757l-.06375-.024c-.00463-.14288-.099-.59935-.14819-.85647l.02327-.01258a.90068.90068,0,0,0,.05048.08232c-.0053.01068-.01061.00932-.01061.00932a1.32023,1.32023,0,0,0,.093.09968.085.085,0,0,1-.02388.04252c.01721-.02259.17275.18337.16873.18867l.04123-.02919c.03055.04117-.03456.05049.00531.07709.05844-.028.03586.06375.07307.05709a.02454.02454,0,0,1-.012.03061c.03456-.016.02395.01592.03721.02123.01463-.00531.01062-.012.01062-.012l.03456.00666a.05383.05383,0,0,1-.01728.03191,2.40412,2.40412,0,0,0,.3123.47573c.012-.02661-.01729-.03457.01061-.07444.03191.00266.01061.03457.03858.01994-.04518.05715.02259.05715-.01994.11559l.0332-.01857-.01462.02395c.097.05844.03191.0066.081.08369.03987.04252.09172.03055.097.06382,0,0,.00531-.02531.02524-.01994-.02524.01994.03722.01327.01729.04252.012.008.03191.04784.05586.00266-.00933.02123.00925.0611-.0213.05314,0,0,.008.02388.02395.02925l-.00136-.02259c.02925.03185.02129.07308.07042.07042l.00136-.02129c.01993.01864.03585.03592.0066.06912L45.686,179.283a.21169.21169,0,0,0,.0877.07178l-.008-.01327a1.03838,1.03838,0,0,1,.2186.13485.96421.96421,0,0,0-.03789.52158,8.74268,8.74268,0,0,0,.626.73754c.17669.22459.38271.46776.56471.71624-.0066.03123-.02054.06314.012.09171l.008-.00667c.02926.0213-.00129.05586-.00531.07709.02661.0279.04783-.008.06913.01068-.012.00728.01395.01191.04919.01592.02259.03654.05579.0711.07573.10764.14614.25113.11961.64983.38938.76142a.48755.48755,0,0,0,.32556.02258,18.40164,18.40164,0,0,0,1.61591-3.75271C49.6315,178.26379,49.06,177.97809,48.84083,177.6047ZM41.36058,183.849a.0778.0778,0,0,1,.0166-.02061.11.11,0,0,1,.00864.02857Zm1.42458,1.06507-.00265.00068.002-.00136Z" fill="#d9d9d9"/><path d="M54.86854,178.86708c-.91158.03722-2.14212-.03456-3.08431-.02653-.33488.00394-1.20924-.03987-1.43248.178-.12491.12356-.11165.66705-.16213.87171-.07974.2897-.26181.509-.35217.796-.22323.72957-.33883,1.42859-.59934,2.09033a1.14174,1.14174,0,0,0-.14615.47838.3257.3257,0,0,0,.28835.295c.28569.04654.52491-.06109.74814.101l4.28165-.03456a2.40914,2.40914,0,0,0,1.25578-.117c.36679-.10628.71358.09035.85979-.27372.32291-.79734-1.071-2.78535-1.32354-3.3355C55.05857,179.58468,54.99611,179.1887,54.86854,178.86708Z" fill="#d9d9d9"/><path d="M111.97178,166.22423a13.50612,13.50612,0,0,0-13.35716,11.53755c.35667-.00941.74417-.02149.83809-.03488a9.92781,9.92781,0,0,1,2.07172-.1301c.07648.00672.15825.01881.24813.0335a1.74147,1.74147,0,0,0,1.25106-.181,2.822,2.822,0,0,1,.35269-.14617,1.27713,1.27713,0,0,1,.26954-.05094,1.23591,1.23591,0,0,0,.43577-.1207,3.47478,3.47478,0,0,0,.61956-.822,5.36442,5.36442,0,0,1,.657-.9051,6.20722,6.20722,0,0,1,1.13043-.74156,9.66529,9.66529,0,0,0,.96552-.61146,5.19047,5.19047,0,0,0,.89439-.99771,5.99847,5.99847,0,0,1,.7-.82066,4.35665,4.35665,0,0,1,2.79721-.86356c.25478-.02685.5176-.04827.79923-.08445.2977-.03357.61283-.09392.9132-.15153.28829-.055.55914-.10861.80459-.13683a3.956,3.956,0,0,1,2.32115.4828,5.10788,5.10788,0,0,0,1.2766.4532c.067.01208.1448.02149.22526.03488.39292.059.98426.15022,1.12906.37548a.72024.72024,0,0,1-.1542.81125c-.57528.65038-2.01274.78447-3.07479.5833a1.31446,1.31446,0,0,1-.27758-.10992.88157.88157,0,0,0-.60473-.14617.85811.85811,0,0,0-.32989.21051.96.96,0,0,1-.20385.14884,4.72188,4.72188,0,0,1-1.79956.21991l.00536.00268-.012-.00268h.00666a1.49884,1.49884,0,0,0-.67853.01346c-.24668.14617-.39155,1.08079-.60473,2.59474a12.46512,12.46512,0,0,1-.27758,1.60107,6.03949,6.03949,0,0,1-1.30612,1.96983c-.17164.20254-.35667.41167-.52159.62224-.04559.05767-.08987.10058-.12873.14617a.98462.98462,0,0,0-.24.32715l-.03358.07648.06846.051a1.77344,1.77344,0,0,1,.834,1.77807l-.00941.06035.05232.03892a1.10794,1.10794,0,0,1,.40226.69193c.03755.12735.07778.27222.13951.4291a2.86046,2.86046,0,0,0,1.91483,1.42,2.29288,2.29288,0,0,0,1.08485.03082,1.12882,1.12882,0,0,0,.49213-.2427l.11-.08712-.11267-.07916a3.81365,3.81365,0,0,0-1.231-.42911c-.92254-.21318-1.78879-.413-1.64268-1.349a.641.641,0,0,1,.16766-.42642c.2749-.24943,1.65469.0644,2.31846.21723.19046.04023.35269.08046.472.10058a9.09025,9.09025,0,0,0,1.08889.08047c.936.0322,2.09321.07106,2.3815.56991a.899.899,0,0,1-.1126.85416,1.8691,1.8691,0,0,1-.9695.84881,2.42017,2.42017,0,0,1-1.12377-.07642c-.14885-.0322-.28424-.06165-.42238-.08047l-.06838-.0094-.03351.05767c-.59271,1.00843-1.35034,1.04729-2.48612,1.109-.3634.02012-.78447.04559-1.227.10724a6.38814,6.38814,0,0,0-.90379.20117,4.666,4.666,0,0,1-2.07584.21991,8.844,8.844,0,0,1-1.699-.53505,9.60686,9.60686,0,0,0-1.43616-.46933,2.851,2.851,0,0,0-1.48442.19175c-.15826.04964-.30175.09921-.43982.13279-.37411.08712-.77644.1542-1.16531.22656-.232.04291-.75358.07511-1.24838.1194a13.49766,13.49766,0,1,0,11.25722-20.94029Z" fill="#686166"/><path d="M115.229,183.69681a9.09025,9.09025,0,0,1-1.08889-.08047c-.11933-.02012-.28156-.06035-.472-.10058-.66377-.15283-2.04356-.46666-2.31846-.21723a.641.641,0,0,0-.16766.42642c-.14611.936.72014,1.13579,1.64268,1.349a3.81365,3.81365,0,0,1,1.231.42911l.11267.07916-.11.08712a1.12882,1.12882,0,0,1-.49213.2427,2.29288,2.29288,0,0,1-1.08485-.03082,2.86046,2.86046,0,0,1-1.91483-1.42c-.06173-.15688-.102-.30175-.13951-.4291a1.10794,1.10794,0,0,0-.40226-.69193l-.05232-.03892.00941-.06035a1.77344,1.77344,0,0,0-.834-1.77807l-.06846-.051.03358-.07648a.98462.98462,0,0,1,.24-.32715c.03886-.04559.08314-.0885.12873-.14617.16492-.21057.35-.4197.52159-.62224a6.03949,6.03949,0,0,0,1.30612-1.96983,12.46512,12.46512,0,0,0,.27758-1.60107c.21318-1.51395.358-2.44857.60473-2.59474a1.49884,1.49884,0,0,1,.67853-.01346,4.72188,4.72188,0,0,0,1.79956-.21991.96.96,0,0,0,.20385-.14884.85811.85811,0,0,1,.32989-.21051.88157.88157,0,0,1,.60473.14617,1.31446,1.31446,0,0,0,.27758.10992c1.062.20117,2.49951.06708,3.07479-.5833a.72024.72024,0,0,0,.1542-.81125c-.1448-.22526-.73614-.31651-1.12906-.37548-.08046-.01339-.15825-.0228-.22526-.03488a5.10788,5.10788,0,0,1-1.2766-.4532,3.956,3.956,0,0,0-2.32115-.4828c-.24545.02822-.5163.08184-.80459.13683-.30037.05761-.6155.118-.9132.15153-.28163.03618-.54445.0576-.79923.08445a4.35665,4.35665,0,0,0-2.79721.86356,5.99847,5.99847,0,0,0-.7.82066,5.19047,5.19047,0,0,1-.89439.99771,9.66529,9.66529,0,0,1-.96552.61146,6.20722,6.20722,0,0,0-1.13043.74156,5.36442,5.36442,0,0,0-.657.9051,3.47478,3.47478,0,0,1-.61956.822,1.23591,1.23591,0,0,1-.43577.1207,1.27713,1.27713,0,0,0-.26954.05094,2.822,2.822,0,0,0-.35269.14617,1.74147,1.74147,0,0,1-1.25106.181c-.08988-.01469-.17165-.02678-.24813-.0335a9.92781,9.92781,0,0,0-2.07172.1301c-.09392.01339-.48142.02547-.83809.03488a14.62562,14.62562,0,0,0-.14081,1.96447,13.4245,13.4245,0,0,0,2.24075,7.43827c.4948-.04429,1.01639-.07649,1.24838-.1194.38887-.07236.7912-.13944,1.16531-.22656.13807-.03358.28156-.08315.43982-.13279a2.851,2.851,0,0,1,1.48442-.19175,9.60686,9.60686,0,0,1,1.43616.46933,8.844,8.844,0,0,0,1.699.53505,4.666,4.666,0,0,0,2.07584-.21991,6.38814,6.38814,0,0,1,.90379-.20117c.4425-.06165.86357-.08712,1.227-.10724,1.13578-.06172,1.89341-.10058,2.48612-1.109l.03351-.05767.06838.0094c.13814.01882.27353.04827.42238.08047a2.42017,2.42017,0,0,0,1.12377.07642,1.8691,1.8691,0,0,0,.9695-.84881.899.899,0,0,0,.1126-.85416C117.3222,183.76787,116.165,183.729,115.229,183.69681Z" fill="#d9d9d9"/><polygon points="112.876 174.063 112.87 174.061 112.864 174.061 112.876 174.063" fill="#d9d9d9"/><path d="M117.81968,174.26592a1.70519,1.70519,0,0,0-.59937.16354,2.23055,2.23055,0,0,1-.48945.15962,10.81522,10.81522,0,0,1-1.14787.09386c-.33388.01606-.64229.02815-.928.067l-.08314.0094a6.44506,6.44506,0,0,0-1.79551.39958.9428.9428,0,0,0-.49481.63968.832.832,0,0,0,.173.72412c.19038.2333.32179.25341.66109.31513.063.012.14075.0228.22121.04154a3.88364,3.88364,0,0,1,.40233.10326,4.14333,4.14333,0,0,0,.68925.15153,9.58827,9.58827,0,0,0,2.90314-.23872c.28562-.05493.55647-.10724.82334-.14885a2.35761,2.35761,0,0,1,.30167-.02678.94691.94691,0,0,0,.43989-.08719,1.01,1.01,0,0,0,.46933-.72007,1.5112,1.5112,0,0,0-.33257-1.16531A1.35773,1.35773,0,0,0,117.81968,174.26592Z" fill="#d9d9d9"/><path d="M119.81636,178.31289c-.17164-.62492-.81262-.90648-1.75933-.77912a1.66657,1.66657,0,0,0-.362.10861,1.80707,1.80707,0,0,1-.34863.11665,13.175,13.175,0,0,1-3.36583.06577c-.10724-.0094-.22259-.02684-.3312-.04023-.68252-.0966-1.32617-.181-1.74724.2655-.2736.291-.3621.54039-.2736.76566.1542.39958,1.04063,1.11436,5.22168,1.42812l.17034.01339a4.64453,4.64453,0,0,0,1.758-.07106A1.70541,1.70541,0,0,0,119.81636,178.31289Z" fill="#d9d9d9"/><path d="M117.55549,180.99743l.055-.01607c-.03618-.00267-.2977,0-.50552.00941-.37411.00666-.64634.01744-.7268.00666-.37281-.03749-.75763-.07106-1.17067-.10724-.70668-.05362-1.44282-.11267-2.16563-.2186a2.52744,2.52744,0,0,1-.43309-.1113,2.04691,2.04691,0,0,0-.93064-.11259.883.883,0,0,0-.71074.70263.91352.91352,0,0,0,.30175.98557,11.36077,11.36077,0,0,0,3.93437.98694,3.813,3.813,0,0,0,.6611-.012,2.55019,2.55019,0,0,1,.77369.012,1.6416,1.6416,0,0,1,.37013.14218,1.15718,1.15718,0,0,0,.78982.15016,1.58084,1.58084,0,0,0,1.00164-.76834.934.934,0,0,0,.13683-.99635A1.55782,1.55782,0,0,0,117.55549,180.99743Z" fill="#d9d9d9"/><polygon points="94.014 145.01 98.734 154.935 93.769 157.298 107.962 163.15 107.962 163.15 112.37 148.449 107.411 150.809 102.69 140.885 94.014 145.01" fill="#fff" stroke="#fff" stroke-linecap="round" stroke-linejoin="round" stroke-width="4"/><rect x="92.14759" y="138.14454" width="9.60845" height="3.71958" transform="translate(-50.67354 55.10662) rotate(-25.39499)" stroke-width="4" stroke="#fff" stroke-linecap="round" stroke-linejoin="round" fill="#fff"/><rect x="90.35355" y="135.3029" width="9.60834" height="1.8615" transform="translate(-49.27443 54.05122) rotate(-25.42608)" stroke-width="4" stroke="#fff" stroke-linecap="round" stroke-linejoin="round" fill="#fff"/><polygon points="94.014 145.01 98.734 154.935 93.769 157.298 107.962 163.15 107.962 163.15 112.37 148.449 107.411 150.809 102.69 140.885 94.014 145.01" fill="#252525"/><rect x="92.14759" y="138.14454" width="9.60845" height="3.71958" transform="translate(-50.67354 55.10662) rotate(-25.39499)" fill="#252525"/><rect x="90.35355" y="135.3029" width="9.60834" height="1.8615" transform="translate(-49.27443 54.05122) rotate(-25.42608)" fill="#252525"/><line x1="58.2026" y1="25.40765" x2="58.2026" y2="69.68045" fill="#fff" stroke="#000" stroke-miterlimit="10" stroke-width="3"/><line y1="24.27119" x2="112.9782" y2="24.27119" fill="#fff" stroke="#000" stroke-miterlimit="10" stroke-width="0.6"/><path d="M53.69093,12.05176H52.2461V3.4165H49.11866V2.26074c1.64893,0,3.14453-.4248,3.46729-2.26074h1.105Z"/><path d="M60.38966,5.15039H58.50245V3.26367h1.88721ZM58.50245,10.165h1.88721v1.88672H58.50245Z"/><path d="M67.86915,12.05176H66.42433V3.4165H63.29688V2.26074c1.64844,0,3.14454-.4248,3.46729-2.26074h1.105Z"/></g><path d="M58.71876,212.86816h6.94238V214.584H60.75977v1.98926h4.49854v1.58594H60.75977v2.2749h5.00538v1.71631H58.71876Z" fill="#ff3301"/><path d="M77.04933,218.17236H70.4839v-1.39111h6.56543Zm0,2.78223H70.4839v-1.39111h6.56543Z"/><path d="M81.7544,216.54736c-.06494-2.08007,1.11817-3.6792,3.30225-3.6792a2.8969,2.8969,0,0,1,3.12012,2.84717c0,2.75586-2.9253,2.97705-4.25147,4.84912h4.30322v1.58594H81.5464c0-2.11914,1.30029-2.99023,2.873-4.06934.793-.55908,1.91114-1.105,1.91114-2.22314a1.307,1.307,0,0,0-1.36524-1.40381c-1.0918,0-1.44287,1.13086-1.44287,2.09326Z" fill="#982e93"/><path d="M90.91944,218.61426l-2.21-3.18506h2.106l1.1831,1.75488,1.16993-1.75488h2.041l-2.21,3.146,2.4834,3.57519H93.37647l-1.4038-2.11914-1.4043,2.11914h-2.0669Z" fill="#982e93"/><path d="M96.3794,212.86816h6.52637V214.584H98.42042v2.145h3.88721v1.58643H98.42042v3.835h-2.041Z" fill="#982e93"/><polygon points="42.52 208.981 36.524 208.987 46.709 198.785 56.917 208.967 50.92 208.973 50.937 225.563 42.537 225.571 42.52 208.981" fill="#ff3301"/><path d="M46.71042,199.6328l8.75684,8.73535-5.14739.00506.0164,16.59052-7.2.00708-.01641-16.59045-5.147.005,8.73757-8.75256m-.00177-1.69672-.84749.84894-8.73757,8.75256-2.0471,2.0506,2.89753-.00281,3.947-.00384.01522,15.3905.00119,1.2,1.2-.00116,7.2-.00708,1.2-.00116-.00119-1.2L51.52105,209.572l3.94739-.00385,2.89806-.00287-2.05175-2.04669-8.75684-8.73535-.84926-.84717Z" fill="#fff"/><line x1="82.09788" y1="108.57904" x2="93.30693" y2="132.80063" fill="none" stroke="#982e93" stroke-linecap="square"/><path d="M47.187,139.37988V82.69045a10.91247,10.91247,0,0,1,20.67481-4.874L82.09788,108.579" fill="none" stroke="#a4459f" stroke-linecap="square" stroke-dasharray="3 4"/><line x1="47.18701" y1="164.93557" x2="47.18701" y2="139.37988" fill="none" stroke="#982e93" stroke-linecap="square"/><path d="M29.68067,107.02441H37.5088v2.05811H32.12892v2.57324h4.66259v1.90235H32.12892v4.60058H29.68067Z" fill="#982e93"/><path d="M92.59327,96.53906h7.82813v2.05762H95.04151v2.57324h4.6626v1.90235h-4.6626v4.60058H92.59327Z" fill="#982e93"/></g></g></svg>