<svg xmlns="http://www.w3.org/2000/svg" xmlns:xlink="http://www.w3.org/1999/xlink" viewBox="0 0 152.25275 223.91518"><defs><linearGradient id="linear-gradient" x1="1325.39931" y1="269.98548" x2="1321.55788" y2="283.04412" gradientTransform="matrix(0.51146, -0.5276, -1.84164, -0.14649, -70.50378, 842.43937)" gradientUnits="userSpaceOnUse"><stop offset="0" stop-color="#fff"/><stop offset="1" stop-color="#fff" stop-opacity="0"/></linearGradient></defs><title>MAESTRO-Pe06-rapport-mouflage-6</title><g id="Calque_2" data-name="Calque 2"><g id="Calque_1-2" data-name="Calque 1"><path d="M58.74794,4.2666A3.7288,3.7288,0,0,1,62.62343,0c2.09082,0,3.77344,1.22363,3.77344,3.46777,0,2.12452-1.42774,3.17871-2.92334,4.13037-1.49609.90088-3.11084,1.69971-3.38281,3.17872h6.1875v1.2749H58.4081c.2207-2.83887,1.68262-3.90967,3.38232-4.92969,2.04-1.2749,3.07666-1.98877,3.07666-3.67139A2.19556,2.19556,0,0,0,62.53847,1.2749c-1.6831,0-2.397,1.54688-2.3457,2.9917Z"/><path d="M70.7499,5.15039H68.86269V3.26367H70.7499ZM68.86269,10.165H70.7499v1.88672H68.86269Z"/><path d="M78.22939,12.05176H76.78456V3.4165H73.65712V2.26074c1.64844,0,3.14453-.4248,3.46729-2.26074h1.105Z"/><path d="M60.34351,22.4001V141.37488a8.58485,8.58485,0,0,0,16.2378,3.88845l37.84425-81.7779,4.01505,1.86915L80.562,147.20283a13.01251,13.01251,0,0,1-24.64605-5.828V22.4001Z" fill="#34b3d1" stroke="#000" stroke-linecap="round" stroke-width="0.6"/><path d="M60.39547,139.88453a8.76362,8.76362,0,1,0,7.15736-7.14892A8.77068,8.77068,0,0,0,60.39547,139.88453Z" fill="#fff" stroke="#000" stroke-miterlimit="10" stroke-width="3"/><rect x="81.25429" y="98.9162" width="33.13712" height="9.49228" transform="translate(-36.91822 150.1385) rotate(-65.69091)" fill="url(#linear-gradient)"/><polygon points="104.843 79.056 109.563 69.131 104.599 66.768 118.791 60.915 118.791 60.915 123.199 75.617 118.241 73.257 113.519 83.181 104.843 79.056" fill="#fff" stroke="#fff" stroke-linecap="round" stroke-linejoin="round" stroke-width="4"/><rect x="105.92128" y="79.25721" width="3.71958" height="9.60845" transform="translate(-14.38032 145.37765) rotate(-64.60501)" stroke-width="4" stroke="#fff" stroke-linecap="round" stroke-linejoin="round" fill="#fff"/><rect x="105.05623" y="83.02795" width="1.8615" height="9.60834" transform="translate(-18.84284 145.84279) rotate(-64.57392)" stroke-width="4" stroke="#fff" stroke-linecap="round" stroke-linejoin="round" fill="#fff"/><polygon points="104.843 79.056 109.563 69.131 104.599 66.768 118.791 60.915 118.791 60.915 123.199 75.617 118.241 73.257 113.519 83.181 104.843 79.056" fill="#252525"/><rect x="105.92128" y="79.25721" width="3.71958" height="9.60845" transform="translate(-14.38032 145.37765) rotate(-64.60501)" fill="#252525"/><rect x="105.05623" y="83.02795" width="1.8615" height="9.60834" transform="translate(-18.84284 145.84279) rotate(-64.57392)" fill="#252525"/><line y1="22.56314" x2="112.9782" y2="22.56314" fill="#fff" stroke="#000" stroke-miterlimit="10" stroke-width="0.6"/><line x1="69.03186" y1="198.65811" x2="69.03186" y2="154.38531" fill="#fff" stroke="#000" stroke-miterlimit="10" stroke-width="3"/><path d="M132.07619,17.52052A13.50613,13.50613,0,0,0,118.719,29.05808c.35667-.00941.74417-.02149.83809-.03488a9.92771,9.92771,0,0,1,2.07172-.13011c.07648.00673.15825.01882.24812.03351a2.36567,2.36567,0,0,0,.61413.03089,2.38966,2.38966,0,0,0,.63693-.21187,2.82257,2.82257,0,0,1,.35269-.14617,1.27608,1.27608,0,0,1,.26955-.05094,1.23607,1.23607,0,0,0,.43576-.1207,3.47444,3.47444,0,0,0,.61956-.822,5.36382,5.36382,0,0,1,.657-.9051,6.20653,6.20653,0,0,1,1.13043-.74156,9.66825,9.66825,0,0,0,.96552-.61146,5.19086,5.19086,0,0,0,.89439-.99772,5.99892,5.99892,0,0,1,.7-.82065,4.35665,4.35665,0,0,1,2.79721-.86356c.25479-.02685.51761-.04827.79924-.08445.29769-.03358.61283-.09393.9132-.15153.28829-.055.55914-.10861.80459-.13683a3.956,3.956,0,0,1,2.32114.48279,5.10778,5.10778,0,0,0,1.2766.45321c.067.01208.1448.02149.22527.03487.39292.059.98426.15022,1.12906.37549a.7202.7202,0,0,1-.15421.81124c-.57527.65039-2.01274.78448-3.07479.58331a1.31488,1.31488,0,0,1-.27758-.10992.88154.88154,0,0,0-.60472-.14617.85823.85823,0,0,0-.3299.2105.95948.95948,0,0,1-.20384.14885,4.72211,4.72211,0,0,1-1.79956.21991l.00535.00268-.012-.00268h.00666a1.49889,1.49889,0,0,0-.67854.01346c-.24668.14617-.39154,1.08079-.60472,2.59474a12.46692,12.46692,0,0,1-.27758,1.60107,6.03935,6.03935,0,0,1-1.30613,1.96983c-.17164.20254-.35667.41167-.52158.62224-.04559.05767-.08987.10058-.12873.14617a.98476.98476,0,0,0-.24.32715l-.03357.07648.06845.05094a1.77343,1.77343,0,0,1,.834,1.77807l-.0094.06035.05231.03893a1.10787,1.10787,0,0,1,.40226.69192c.03756.12736.07779.27223.13951.42911a2.86041,2.86041,0,0,0,1.91484,1.42,2.29284,2.29284,0,0,0,1.08484.03083,1.12871,1.12871,0,0,0,.49213-.2427l.11-.08713-.11266-.07916a3.814,3.814,0,0,0-1.231-.4291c-.92254-.21318-1.78878-.413-1.64268-1.349a.641.641,0,0,1,.16766-.42642c.2749-.24943,1.6547.0644,2.31847.21723.19045.04023.35269.08046.472.10058a9.09067,9.09067,0,0,0,1.0889.08046c.936.0322,2.0932.07106,2.38149.56992a.899.899,0,0,1-.11259.85416,1.869,1.869,0,0,1-.96951.8488,2.42019,2.42019,0,0,1-1.12377-.07641c-.14885-.0322-.28424-.06166-.42237-.08047l-.06839-.0094-.0335.05767c-.59271,1.00843-1.35034,1.04729-2.48613,1.109-.3634.02012-.78447.04559-1.227.10724a6.38688,6.38688,0,0,0-.9038.20117,4.66592,4.66592,0,0,1-2.07583.2199,8.84426,8.84426,0,0,1-1.699-.535,9.60765,9.60765,0,0,0-1.43616-.46934,2.851,2.851,0,0,0-1.48443.19176c-.15825.04964-.30175.09921-.43981.13278-.37411.08713-.77644.15421-1.16531.22657-.232.04291-.75358.07511-1.24839.1194a13.49766,13.49766,0,1,0,11.25723-20.9403Z" fill="#686166"/><path d="M135.3334,34.9931a9.09067,9.09067,0,0,1-1.0889-.08046c-.11932-.02012-.28156-.06035-.472-.10058-.66377-.15283-2.04357-.46666-2.31847-.21723a.641.641,0,0,0-.16766.42642c-.1461.936.72014,1.13579,1.64268,1.349a3.814,3.814,0,0,1,1.231.4291l.11266.07916-.11.08713a1.12871,1.12871,0,0,1-.49213.2427,2.29284,2.29284,0,0,1-1.08484-.03083,2.86041,2.86041,0,0,1-1.91484-1.42c-.06172-.15688-.10195-.30175-.13951-.42911a1.10787,1.10787,0,0,0-.40226-.69192l-.05231-.03893.0094-.06035a1.77343,1.77343,0,0,0-.834-1.77807l-.06845-.05094.03357-.07648a.98476.98476,0,0,1,.24-.32715c.03886-.04559.08314-.0885.12873-.14617.16491-.21057.34994-.4197.52158-.62224a6.03935,6.03935,0,0,0,1.30613-1.96983,12.46692,12.46692,0,0,0,.27758-1.60107c.21318-1.51395.358-2.44857.60472-2.59474a1.49889,1.49889,0,0,1,.67854-.01346,4.72211,4.72211,0,0,0,1.79956-.21991.95948.95948,0,0,0,.20384-.14885.85823.85823,0,0,1,.3299-.2105.88154.88154,0,0,1,.60472.14617,1.31488,1.31488,0,0,0,.27758.10992c1.062.20117,2.49952.06708,3.07479-.58331a.7202.7202,0,0,0,.15421-.81124c-.1448-.22527-.73614-.31651-1.12906-.37549-.08047-.01338-.15826-.02279-.22527-.03487a5.10778,5.10778,0,0,1-1.2766-.45321,3.956,3.956,0,0,0-2.32114-.48279c-.24545.02822-.5163.08184-.80459.13683-.30037.0576-.61551.118-.9132.15153-.28163.03618-.54445.0576-.79924.08445a4.35665,4.35665,0,0,0-2.79721.86356,5.99892,5.99892,0,0,0-.7.82065,5.19086,5.19086,0,0,1-.89439.99772,9.66825,9.66825,0,0,1-.96552.61146,6.20653,6.20653,0,0,0-1.13043.74156,5.36382,5.36382,0,0,0-.657.9051,3.47444,3.47444,0,0,1-.61956.822,1.23607,1.23607,0,0,1-.43576.1207,1.27608,1.27608,0,0,0-.26955.05094,2.82257,2.82257,0,0,0-.35269.14617,2.38966,2.38966,0,0,1-.63693.21187,2.36567,2.36567,0,0,1-.61413-.03089c-.08987-.01469-.17164-.02678-.24812-.03351a9.92771,9.92771,0,0,0-2.07172.13011c-.09392.01339-.48142.02547-.83809.03488a14.624,14.624,0,0,0-.14082,1.96447,13.4246,13.4246,0,0,0,2.24075,7.43827c.49481-.04429,1.01639-.07649,1.24839-.1194.38887-.07236.7912-.13944,1.16531-.22657.13806-.03357.28156-.08314.43981-.13278a2.851,2.851,0,0,1,1.48443-.19176,9.60765,9.60765,0,0,1,1.43616.46934,8.84426,8.84426,0,0,0,1.699.535,4.66592,4.66592,0,0,0,2.07583-.2199,6.38688,6.38688,0,0,1,.9038-.20117c.44249-.06165.86356-.08712,1.227-.10724,1.13579-.06172,1.89342-.10058,2.48613-1.109l.0335-.05767.06839.0094c.13813.01881.27352.04827.42237.08047a2.42019,2.42019,0,0,0,1.12377.07641,1.869,1.869,0,0,0,.96951-.8488.899.899,0,0,0,.11259-.85416C137.4266,35.06416,136.26939,35.0253,135.3334,34.9931Z" fill="#d9d9d9"/><polygon points="132.98 25.36 132.975 25.357 132.968 25.357 132.98 25.36" fill="#d9d9d9"/><path d="M137.92409,25.56221a1.70534,1.70534,0,0,0-.59937.16354,2.23012,2.23012,0,0,1-.48946.15963,10.815,10.815,0,0,1-1.14787.09385c-.33388.01607-.64228.02815-.928.067l-.08315.00941a6.44455,6.44455,0,0,0-1.7955.39958.94273.94273,0,0,0-.49481.63968.832.832,0,0,0,.173.72412c.19039.23329.3218.25341.6611.31513.063.012.14074.0228.22121.04154a3.88429,3.88429,0,0,1,.40233.10326,4.14417,4.14417,0,0,0,.68924.15152,9.5877,9.5877,0,0,0,2.90315-.23872c.28561-.05492.55646-.10724.82333-.14884a2.35777,2.35777,0,0,1,.30168-.02678.94687.94687,0,0,0,.43988-.08719,1.01,1.01,0,0,0,.46934-.72007,1.51122,1.51122,0,0,0-.33257-1.16531A1.35775,1.35775,0,0,0,137.92409,25.56221Z" fill="#d9d9d9"/><path d="M139.92076,29.60918c-.17164-.62491-.81262-.90647-1.75932-.77911a1.666,1.666,0,0,0-.362.10861,1.80784,1.80784,0,0,1-.34864.11665,13.17589,13.17589,0,0,1-3.36583.06577c-.10724-.0094-.22258-.02684-.3312-.04023-.68251-.0966-1.32617-.18105-1.74724.26549-.2736.291-.36209.5404-.2736.76566.15421.39959,1.04063,1.11437,5.22169,1.42813l.17034.01339a4.64447,4.64447,0,0,0,1.75795-.07106A1.70541,1.70541,0,0,0,139.92076,29.60918Z" fill="#d9d9d9"/><path d="M137.6599,32.29373l.055-.01607c-.03618-.00268-.29769,0-.50552.00941-.37411.00666-.64633.01744-.7268.00666-.3728-.03749-.75762-.07106-1.17066-.10724-.70668-.05362-1.44282-.11267-2.16564-.21861a2.52675,2.52675,0,0,1-.43309-.11129,2.047,2.047,0,0,0-.93064-.1126.883.883,0,0,0-.71073.70264.9135.9135,0,0,0,.30174.98556,11.36089,11.36089,0,0,0,3.93438.98694,3.812,3.812,0,0,0,.66109-.012,2.55049,2.55049,0,0,1,.77369.012,1.64192,1.64192,0,0,1,.37013.14219,1.15722,1.15722,0,0,0,.78983.15015,1.58077,1.58077,0,0,0,1.00163-.76833.934.934,0,0,0,.13683-.99635A1.55778,1.55778,0,0,0,137.6599,32.29373Z" fill="#d9d9d9"/><path d="M115.92908,43.06393h32.29534a3.52833,3.52833,0,0,1,3.52833,3.52833v7.118a3.52672,3.52672,0,0,1-3.52672,3.52672h-32.297a3.52672,3.52672,0,0,1-3.52672-3.52672V46.59065A3.52672,3.52672,0,0,1,115.92908,43.06393Z" fill="#d9d9d9" stroke="#595959" stroke-miterlimit="10"/><path d="M130.30165,46.21h5.31641v1.39795h-3.65381V49.355h3.16651v1.292h-3.16651v3.124h-1.6626Z" fill="#252525"/><path d="M83.28637,210.41518a13.49868,13.49868,0,1,1-13.5-13.5A13.50281,13.50281,0,0,1,83.28637,210.41518Z" fill="#686166"/><path d="M63.47161,203.87113l-.00265-.00462C63.47093,203.88379,63.47161,203.88175,63.47161,203.87113Z" fill="#d9d9d9"/><polygon points="62.846 219.155 62.851 219.156 62.852 219.148 62.846 219.155" fill="#d9d9d9"/><path d="M66.4376,204.729c.00537.00129.00932.006.014.008h.00062Z" fill="#d9d9d9"/><path d="M76.76028,204.73957s.07709-.13022-.06375-.105a16.08751,16.08751,0,0,1-2.07571.18336c-.06116.2857-.19139.45579-.24187.7176a1.46244,1.46244,0,0,0,0,.3721.80244.80244,0,0,0,.72821.186A2.56246,2.56246,0,0,0,76.76028,204.73957Z" fill="#d9d9d9"/><path d="M72.80556,208.091c.11825.09566.35081.17009.40136.34284a1.03106,1.03106,0,0,1,.01858.25515c1.02057-.101,2.2245.03456,3.21854-.10369a5.08584,5.08584,0,0,0,.80265-.13288,5.6473,5.6473,0,0,0,1.29959-2.11558c-.0319-.18337-.27242-.41061-.38006-.52621a2.6235,2.6235,0,0,1-.49831-.59533c.04055-.1256.07042-.24651.11295-.4066.35618-1.33021.085-2.83318-1.22524-2.71493a1.38273,1.38273,0,0,0-.87966.38938c-.06382.06376-.117.206-.19139.25379-.09566.06246-.21922.04123-.32421.09035a2.09827,2.09827,0,0,0-.65119.80666,2.02946,2.02946,0,0,0-.28433.78135c-.01334.07178-.06913.17541-.09437.25385a.972.972,0,0,1,.62854.02259,13.171,13.171,0,0,1,.804-1.40594c.44246.081,1.09229-.67113,1.41656,0a3.04631,3.04631,0,0,1-.0213,1.33947c-.04715.65248.28107.46116.49505.47708a5.87031,5.87031,0,0,1-.85783,1.099,2.58534,2.58534,0,0,1-1.49364.804c-1.2438.15547-1.64781-1.15345-1.2438-2.32153-.19936.02388-.30032-.10634-.53553-.07178-.87572.13023-.88239.35611-1.33954.94219-.194.24977-.37074.50362-.5754.73747A3.86623,3.86623,0,0,0,72.80556,208.091Z" fill="#d9d9d9"/><path d="M81.305,209.72153c-.26977-.46116-1.55474-2.89033-2.02788-2.784-.24181.05313-.37469.52484-.501.73617a6.835,6.835,0,0,0-.64718,1.19863c-.04783.388.25779.52893.36148.75611a2.52879,2.52879,0,0,1,.2299.55682c.03055.16479-.0332.2844,0,.41061a10.22267,10.22267,0,0,0,1.01656,1.68367c.09968.1914.09036.38143.226.52893.2631-.44122.61921-.79468.88368-1.24122.19928-.35346.38135-.74815.55281-1.10562.04252-.093.05184-.26439.11559-.3242C81.55616,210.09493,81.32231,209.75474,81.305,209.72153Z" fill="#d9d9d9"/><path d="M71.56577,208.29566c-.29372-.48641-.51961-1.00731-1.23054-1.03391-.1688.34754-.66976,1.04316-1.083,1.74082-.01333-.01394-.03191-.03783-.04388-.04919.0053-.03851-.03055-.07042-.04117-.09961.00395.01994-.01864.03185-.028.01994-.05314-.07443-.01456.008-.08369-.06117a2.38512,2.38512,0,0,1-.34815-.51158c-.06913-.016-.07974-.08906-.13158-.113l.00932-.00265c-.04389-.0332-.1967-.30563-.24719-.34815l.00266.01333c-.02654-.01333-.02919-.02592-.02858-.04055a.04772.04772,0,0,1,.00068-.0166l-.002.002a.07206.07206,0,0,0-.002-.04055.05056.05056,0,0,1-.03586.01266l.004-.018h-.00136l.01728-.01327a2.2471,2.2471,0,0,0-.15948-.45314c.00932-.00932.01333-.00265.01333-.00265a.52613.52613,0,0,0-.07443-.10634c.00666-.01994.02789-.0279.03721-.03586-.02395.01463-.13818-.2033-.13022-.21133l-.05851.02926c-.01994-.04116.0598-.04654.0266-.07838-.0877.02123-.0266-.06647-.07178-.05715a.03784.03784,0,0,1,.02129-.0332c-.04653.01326-.01864-.01729-.03456-.02395-.01463.0053-.01061.01061-.02395.01993l-.02919-.02259c.01062-.01326.03185-.02925.04382-.02129a2.4643,2.4643,0,0,0-.21262-.50627c-.02653.02258.00667.03585-.03722.07307-.04116-.00531-.0066-.03457-.04252-.02919.07314-.04525-.004-.0545.06777-.10764l-.04783.01456.02129-.02122c-.09171-.06913-.03055-.012-.06647-.09567-.02524-.03987-.09566-.03191-.089-.06912,0,0-.01728.02524-.03456.02122.03456-.02122-.04123-.01857-.00667-.04252-.012-.01191-.02653-.04783-.07042-.01061.0213-.01994.01728-.05845.04919-.05178-.00666-.012-.0053-.0266-.01728-.028l-.00932.02129c-.0266-.03585.004-.07572-.05314-.07708l-.01728.0266c-.012-.02259-.02524-.03593.01728-.07314l.03321.016a.16313.16313,0,0,0-.07974-.07845l.00136.01333c-.07042-.016-.22324-.20329-.30032-.20867l-.03191.03592-.05049-.01068a1.21076,1.21076,0,0,1,.12621-.04381.81992.81992,0,0,1-.11158-.24317c.01061-.03987.06375-.03457.06375-.03457-.02524-.02925-.04518.004-.0545-.02395l.03722-.01326c-.008-.01062.00265-.02926-.01857-.01728-.00933.02129-.05586.03857-.08641.0598l-.01259-.03252.00333-.004.02654-.01265-.01858.00333c.004-.0066.01062-.00864.01327-.0166a.13983.13983,0,0,1-.08368-.00333l-.00667-.00334a.31723.31723,0,0,1-.01592-.05048.51436.51436,0,0,1-.01729-.06246.17315.17315,0,0,0-.03191-.06511.06638.06638,0,0,1,.0279.00136l.008-.02259c-.02653.02654-.03055-.016-.03987.00395l-.00925-.00395s-.00667-.00531-.004-.01068l-.00265.008-.008-.00266c.00531-.00265-.02259-.0266-.016-.03191-.01191-.01326-.0332-.04783-.0345-.0266,0,0-.01864-.04252.0013-.0279a.10929.10929,0,0,1-.01592-.02122l-.00136.00925c-.02654-.02919-.03457-.05314-.06376-.06511l.0066.01463c-.01462-.01729-.03585-.02525-.03456-.04253l.028.01062a.309.309,0,0,0-.07906-.04382l-.016-.004a.58905.58905,0,0,1-.04055-.0611c.00933-.09437-.64711.0598-.73215-.04518l-.06512-.07443-.24983.03919a.66777.66777,0,0,1-.01994-.27706c-.04518-.01728-.01864-.05579-.05314-.07443l.01456.00136a.48086.48086,0,0,1-.02054-.14887,1.38212,1.38212,0,0,0,.35012-.24051,2.11527,2.11527,0,0,0,.44388-.61c.04783-.06376.05314.01462.05845.01728.02395-.10233-.01858-.05715.01326-.13819.01334-.01993.02395.01327.02259.02926.00932-.03858.03062-.06647.01728-.0758-.02789.04253-.05715.004-.09035.00933a.70821.70821,0,0,0,.03456-.10233l.02395.01592a1.21457,1.21457,0,0,1,.00531-.30032,1.20266,1.20266,0,0,0-.00265-.44647c.01326,0,.02918.03851.04252.07974,0-.02789-.012-.06647,0-.08906-.0213.04783-.02926-.07838-.03456-.04253a4.51342,4.51342,0,0,0-.31631-.3721,1.57316,1.57316,0,0,0-.27243.05185.77933.77933,0,0,0-.05708-.15948c.19663-.11825.38135-.24984.37074-.42789l.02259-.01191-.03722-.05185c-.03456-.07178-.081-.07708-.05981-.08906l.06512.08376c-.03987-.06648.00265-.03327.02789-.01865a.41468.41468,0,0,1-.04116-.07974c-.01864-.008-.00136.01463,0,.03062a.52078.52078,0,0,1-.109-.10233c-.0545-.0598.02524-.03456-.03585-.10763a1.75612,1.75612,0,0,0-1.25048-.63392c-.01061-.012.00129-.01061.01728-.01592a1.573,1.573,0,0,0-.396.04647.14967.14967,0,0,1-.06116-.02919c.01061.0066-.16343.04913-.32822.13554a2.0069,2.0069,0,0,0-.31359.18737l.01456.05579c-.10764.08376-.0664-.02524-.15547.07042.00266.08771-.15281.15819-.15812.21929,0,0-.04517.04518-.05715.0279.01864.04252-.0332.06382-.05048.10233-.00136.01728.01592-.0013.0332-.004-.01592.028-.02259.0545-.04252.08777-.02259.02259-.04647.02123-.03191-.01864a2.02782,2.02782,0,0,0-.291.81727,2.15668,2.15668,0,0,0,.08906.9209c.01728-.03987-.0279-.1209.012-.16343.03586.06641.01722.10764.05049.13023-.05185.05048.03456.16206,0,.23915l.04252.008-.00667.04525c.18337.279.15949.00394.30434.26439.101.13826.198.13955.24181.22194-.00395-.01326-.01592-.05579.02129-.02925-.01864.02925.04783.0532.04117.09437a.33046.33046,0,0,1,.03592.14682c.00728.03722.08171.11029.02259.08308.02919.02524.05715.05715.08368.0611l-.03721-.04117c.109.07838.16084.14615.24983.15016l-.03054-.04388c.06245.04252.1209.06511.13689.11832l-.0811-.0213a.84549.84549,0,0,0,.21792.07042.0657.0657,0,0,0,.01068.02524.11049.11049,0,0,1-.03857.01728c.02259-.00659.04783.11962.04123.12363l.04647-.00667c.00265.02524-.05178.01463-.03722.03722.07049-.004-.00265.03586.03722.03586-.0066.00265-.0066.01333-.02654.016.03722-.004.01062.01191.01858.01593.01061.00136.012-.00266.02395-.008l.01857.01327a.3223.3223,0,0,1-.03722.016.71219.71219,0,0,0,.01865.279c.02653-.00667.00265-.01729.04647-.02926.02789.00537-.004.016.01993.01728-.04313.01-.04116.01994-.0498.03123a2.3874,2.3874,0,0,0-.52825.21731l-.05184.008.00932.02925c-.02525.04253.03857.04783-.01463.05579l.004-.05184c-.01463.04123-.04123.01728-.07572.01061a.06963.06963,0,0,1-.028.04919c.02266.004.02395-.008.03858-.01728.01993.01728.07042.03191.04783.06246-.00136.03858-.08641.01994-.0877.06913l-.002.0166-.02062.00993-.04654-.03585a.07334.07334,0,0,1,.01865-.02259c-.01334-.01062-.03722.004-.03593.02524l.03722.03055c-.01191.03858-.03055-.01191-.04647.01864-.03457-.02395-.01864-.05586-.00531-.07845-.0213.01728-.05715.01994-.03062.05056-.02789.01061-.03721-.03191-.06511-.01994-.004.02259.00932.06375-.02388.06777l-.008-.00667c-.04518.01463-.028.05844-.03722.09437-.01864.01728-.01463-.00667-.03191.01728h-.0053v-.00667c-.02661,0-.02926.04783-.06512.0545l.01994.004a.08933.08933,0,0,1-.016.03592c-.01592.01592-.02388.03586-.05314.03851l.01062.04388c-.08635.093-.18337.26311-.26045.36673l.00136-.008a6.66084,6.66084,0,0,0-.45845.65915c-.04524.00266-.06647.03715-.09436.05443.02122-.00394.04116.01865.02524.03062-.06246.07437.01993.02388-.03055.10893a2.28638,2.28638,0,0,1-.45184.48505c.008.07572-.07042.10369-.07573.16608l-.008-.01191c-.01994.05715-.26712.28039-.29637.34414l.012-.0013c-.00531.06641-.05048.02259-.093.04253a.11973.11973,0,0,1,.03722.11825l-.012-.01327a.66614.66614,0,0,1-.03456.15941L61.271,208.079c.004.05579-.05579.10363-.07443.12757-.05314.03987-.15948.07975-.18207.17677l-.11424-.01994.00531.01456s.03851.03327.10233.08376l-.008.01592-.00538-.008a.60624.60624,0,0,0-.02388.12893l-.012.01456a.51937.51937,0,0,0,.00136.12492.60655.60655,0,0,0,.02653.12492l.01463.00265c.01728.04252-.01592.01728.00667.05981.02789.008.0332.06184.04912.07443a1.34318,1.34318,0,0,0-.02259.30433c-.01061.004-.0119-.00136-.0119-.00136.00925.03593.0066.06913.01857.10369a.05909.05909,0,0,1-.03987.02259c.02395-.0053.03586.20194.02926.20194l.05184-.00129c0,.03721-.05851.01728-.04252.05184.06906.008-.004.0611.03184.07308a.03459.03459,0,0,1-.0279.01728c.03586.00265.00933.01592.01994.02653l.0213-.008.01326.0266-.02925.01327a1.52645,1.52645,0,0,0-.01327.4545c.02123-.00932.00265-.03191.04783-.04518.0279.01857-.00667.0332.01728.03722-.06246.0119-.00932.04252-.07838.06246h.03715l-.02259.01721c.04654.07709.01994.01333.01463.09042.00932.04253.06117.05845.04518.0824,0,0,.01864-.012.02925-.00136-.02925.00136.02395.0266-.00932.03456.00531.00932.00266.04912.04783.03055-.02258.0053-.02918.03987-.04912.01857-.00136.01463-.00531.02661.00129.03722l.016-.01592c.004.0332-.02524.05579.01463.07443l.01592-.01463c.00395.02259.00932.03987-.03722.05049l-.01326-.01994a.14611.14611,0,0,0,.03456.0877v-.01061c.04783.03191.089.22854.14744.25916l.03327-.01994.03055.02654-.10362-.008a2.96811,2.96811,0,0,1,.03184.4598c-.01728.02653-.05579.0066-.06375.01061.01462.02525.03851.00531.03721.03055-.004.00932-.02789,0-.02789,0-.00136.012-.008.02395.00394.01994.01327-.01592.0545-.01327.08376-.02123l-.00265.03184-.02661.00272s.07573.00926.05981.04518a1.16282,1.16282,0,0,0,0,.16744.051.051,0,0,1-.03593-.02129s.00273.01857-.00925.01993c.0279-.012.02259.02259.02259.02259.07974.0213.01993.081.0664.11294l.099-.00265c-.06443.15349-.17071.4153-.20262.52628l-.04517.0119c.01592.03327-.01327.05321-.004.09573-.01061.01592-.0332.00266-.03586-.008.008.03722-.0319.06117-.01592.0877l.01327-.00129c.01592.0611-.08239.05981-.06647.12621h.00667c.01326.03191-.03191.04389-.04783.05852.00265.03456.04116.01993.04912.04647-.04253-.004.1954.17274.19139.19533.012-.02388.03055-.05048.06375-.03449-.01456.02919.30039.11954.27379.15145l.09967-.0066c-.01728.008-.01993.04116,0,.04783-.00666-.004-.00136-.01993.0013-.03592l.62459.09838c.06511-.02926.02395-.12226.1143-.14485.01061.01728.01592-.03191.03851-.004-.00531-.01326.00136-.02388.00265-.03851-.01728.01327-.02789.02259-.04919.01858a1.9721,1.9721,0,0,0,.07049-.21793c-.00136-.04783.089-.04116.089-.04116L62.653,212.859l.012-.04389c.02789.0213.07974.03191.08906.05185.01858.004.008-.012.008-.02524l-.02789-.004c.00666-.0332.09967-.10764.12621-.1422,0,0-.04913.01068-.06376-.02653.00334-.07838-.27841-.58336-.319-.7555l.02259-.00061c.00136.01061.00136.02388-.0066.02653a.02671.02671,0,0,0,.01327-.04116l-.03191.00463-.00129-.004c-.002-.012.01925-.00735.01728-.02728.03055-.008.03449.01592.03851.03857.004-.01993.02259-.03857-.008-.04653.01061-.01463.03585-.00266.04919-.024-.01068-.01327-.04123-.02919-.02266-.04518l.00272-.00265c.03184-.04253-.04919-.05716-.016-.101l.00932.00394c.01593-.01456-.00666-.0398.01062-.06375,0,0-.03055.01463-.03191,0,.01864-.02789-.004-.04388.02129-.06647l-.03456-.01858c.00136-.09436-.05844-.47443-.06913-.56873l.008.00266a4.48083,4.48083,0,0,0-.08239-.5967c.02789-.0266.02123-.0598.02524-.08505-.012.01865-.0332.01327-.03191.00137.004-.07444-.01993-.00137-.0332-.07709a1.41674,1.41674,0,0,1,.00531-.50233c-.0492-.03722-.01865-.09035-.04253-.13158l.00531.00265c-.01592-.03851.01327-.29365-.00531-.33747l-.004.00265c-.02919-.03987.01728-.03987.03061-.07443a.078.078,0,0,1-.08375-.04123l.00932.00136a.24648.24648,0,0,0-.02926-.0498,2.22576,2.22576,0,0,0,.35081-.33822c.016.008.01068.01061.01333.01857.01994-.05048.05314-.085.07573-.13288a.29922.29922,0,0,1,.05185.01729c-.02926-.012.14349-.22725.15281-.2246l-.04388-.04116c.02925-.04123.06382.03456.07974-.01062-.05314-.07178.06116-.05715.03721-.09967a.03636.03636,0,0,1,.03987.0066c-.03191-.03586.00667-.02524.00531-.04382-.004-.01333-.00932-.00667-.02524-.01463l.00932-.03851c.01993.00266.04382.01858.03851.0345a3.36216,3.36216,0,0,0,.42122-.44783c-.03585-.01463-.03715.0213-.0877-.00265-.008-.04116.03062-.02259.01334-.05178.07307.04382.05048-.03592.13152.008L63.445,207.695l.02925.00667c.01463-.05913.01463-.06648.01926-.06845a.61481.61481,0,0,0,.01531.10036c.05579-.03321.01592-.06246.101-.093.05314.02388-.01326.05048.04253.05579-.13288.04116-.02524.081-.15547.13424l.07444-.00667-.04525.02926c.08906.13553.03987.02653.03592.16077.01858.07974.12492.09036.089.1422,0,0,.04654-.03191.06783-.016-.06783.016.05049.03987-.012.06511.008.01729.008.08376.09164.03987-.04252.02259-.05579.0824-.0996.05586-.00136.02123-.00932.04382.01061.05178l.02259-.03055c.01728.06117-.05048.11029.03722.13689l.03456-.03191c.00925.03457.01857.07042-.06913.10369l-.03456-.03721a.20351.20351,0,0,0,.07178.14349v-.01728c.09566.04919.20466.388.31624.42394l.06777-.03721.06116.04116c0-.00932-.22459.01994-.20064.00932a4.43143,4.43143,0,0,1,.08634.81326.11507.11507,0,0,1-.11029.03191c.01857.04647.06647.008.06246.0545-.012.01592-.05715.00925-.05715.00925s-.02388.03457.01326.02926c.0213-.0266.10764-.03456.16214-.05844l-.00129.05844-.05586.01061c0,.01062.15152.00266.12757.06117a.41553.41553,0,0,0,.002.06375l-.1854-.008c.00265-.01592.008-.03191.01728-.03585a.03589.03589,0,0,0-.02926.05177l.05981.008c.01864.03715-.03586.0066-.03321.04518-.04919,0-.05579-.03722-.06116-.06913-.008.03055-.04253.0545.00932.06913-.02259.02388-.0611-.00538-.08369.02388.01463.02395.05579.05851.02919.08239l-.01191-.00129c-.05184.05845.07172.10362.01858.15942l-.01728-.01062c-.03055.01864.00265.06246-.0279.101.008-.01191.04654-.01994.05048.004-.0332.04389-.00265.07573-.04517.101l.04654.03327c-.016.14751.02388.58738.02258.73618l-.008-.00667a7.22773,7.22773,0,0,0,.081.94886c-.05185.03184-.04253.08239-.05845.11954.02123-.02123.05049-.008.04913.00667-.00926.117.03055.00932.04919.12757a2.35137,2.35137,0,0,1-.101.776c.0664.06912.00925.14621.04912.21132l-.01728-.008c.02395.07307-.07042.45443-.04518.53417l.008-.01061c.03987.07041-.03714.05844-.06246.11028a.11854.11854,0,0,1,.12227.08376l-.01857-.00136a.87158.87158,0,0,1,.08368.17275l-.04518-.00531c.00933.00993.00667.024.01069.03586-.01933.008-.04123.01932-.03457.03191l.05049.02061-.00068.02062c-.01259-.00068-.0279-.004-.03252.01857-.05321-.01592-.05056-.05314-.0479-.08505-.01327.02661-.05709.03851-.00531.06913-.0279.01858-.06246-.02395-.0943.00129.00925.02525.05048.06777.0119.0824l-.00925-.00531c-.06913.04253.06906.02259,0,.05981l-.01333-.01327c-.03586.00925-.008.06239-.05178.08369.01463-.004.05443-.00136.05314.01993-.04389.02926-.02395.06777-.07042.08369l.04116.03987c-.05715.13955-.16479.69637-.2033.83456l-.00667-.00531c-.04252.21793-.35611.61921-.35876.85844-.05851.01592-.06246.06511-.0877.09566.02388-.01191.05715.00932.05048.02129-.03851.10363.03191.01593.01728.13288a1.491,1.491,0,0,1-.2352.59c.05184.07709-.02525.13417.00129.21l-.01592-.01334c.00531.06913-.1754.40136-.1754.47974l.01592-.004c.02524.07437-.05178.04116-.09036.085a.13291.13291,0,0,1,.10635.11029l-.016-.008c.00265.03585-.18473.10491-.18867.16343l-.04518-.01865c.03191.05586-.01463.13159-.01864.1635-.04253.06375.03857.22058.06647.33488l-.14485.01858.01061.01463s.20269.08239.46708.18l-.19595-.03184c-.03123.18-.17547.8166-.18608.984l-.05178.02653c.0345.04124-.00136.07178.02259.12227-.008.02524-.04388.01061-.04919-.004.02524.04654-.01864.08641.00394.11567l.016-.008c.04518.07709-.0864.09573-.04123.17411h.00538c.02789.0332-.02661.05981-.04253.08239.01592.04117.05709.01327.077.04518-.05443.008-.02524.04123-.02259.07974.012-.03721.02661-.07572.07178-.06912-.00932.04653.05049.01728.02661.05851l-.06117-.00531c-.01592.01722-.008.0611.008.06246l.00266-.04252,1.7249.10893c.07838-.05049,1.4684.04252,1.58134-.01327.016.02123.00667-.04389.05185-.01334-.0213-.0119-.01062-.03184-.00932-.04252-.01729.016-.03722.03592-.05981.03456.00265-.09831-.19-.33488-.198-.43184-.01728-.05715.10233-.06116.101-.07443l-.04253-.004-.79332-.25181c.02524.002.01333-.01728.0213-.03654-.01327.00667-.04518.01728-.05314.00265-.00136-.04653.03449-.00932.05048-.0598,0,0-.0598.0266-.0877-.01592-.014-.0824-.3887-.31032-.57676-.46913.0047-.0053.00667-.01326.016-.01462-.01334-.01191-.016-.0013-.028-.00266-.01191-.01728-.04117-.05443-.01729-.0664.01069-.02661.06913.02123.085-.012.097-.17676.02531-.41857.07444-.60731.01864.00136.01728.00531.01728.00531a1.59134,1.59134,0,0,0,.03055-.16207.391.391,0,0,1,.06912,0c-.03851-.00272.0558-.299.06777-.30038l-.07974-.0279c.016-.05715.093.00932.09437-.04116-.105-.06117.03987-.08505-.01327-.12227a.05157.05157,0,0,1,.05178-.01061c-.05715-.02524-.00395-.03055-.01191-.04783-.01463-.01334-.0213-.00266-.03987-.00266l-.008-.04123c.0213-.01326.06117-.004.05981.01463a3.018,3.018,0,0,0,.26582-.64051c-.05184,0-.03191.04252-.105.02926-.02926-.03858.02919-.03457-.008-.06382.109.0266.04253-.0492.15554-.03055l-.05852-.0279.04123-.00265c-.02129-.13826-.01864-.03722.02919-.13955.012-.06246-.0611-.12226-.01857-.14084,0,0-.04518.00266-.05579-.01864.05579.01864-.02395-.0545.03184-.04518.00136-.01857.02395-.06647-.05715-.07307.03857.004.06912-.0332.09171.00129.00932-.01463.02661-.02524.01062-.04116l-.02388.01061c.00394-.0545.16213-.13288.10892-.186l.05321.15941c.008-.0332-.07845-.21262-.00531-.19663l.01456.03851a.20211.20211,0,0,0-.00394-.13955l-.008.01463c-.05321-.07838.06906-.23119-.00538-.31093l-.0611.008-.0332-.05845a1.143,1.143,0,0,1,.15145.07573,4.51625,4.51625,0,0,1,.19071-.61595c.00334.00068.01062-.00061.00463.00469.01334-.00666.03191-.008.03722-.01993l-.02259.00531c.018-.01.022-.018.03592-.02457a.18435.18435,0,0,1,.05314.02055.04669.04669,0,0,0-.02129-.04313c.0053-.004.016-.00735.01993-.01334a.23389.23389,0,0,0,.02395.01129c-.00531-.01394.002-.01993-.00531-.02721.01327-.00932.02593-.02327.04117-.02062l-.02388.0279a.27708.27708,0,0,0,.0877-.09832l-.01334.01463a.94545.94545,0,0,0,.0877-.18071.35988.35988,0,0,0,.02259-.18737l-.01721.01993a.16335.16335,0,0,0-.01068-.04388l.04517.03191c0-.01062.00136-.0279.00266-.04783l.01333.00129-.00136-.02919c.02395-.03062-.02388-.0479.01994-.04525l-.00933.04525c.01334-.03062.03457-.00538.05852.01061a.06963.06963,0,0,1,.02259-.03857c-.01327-.008-.01592.00136-.02661.00666-.01326-.01592-.05313-.04517-.03055-.06375.00667-.03456.07042,0,.07974-.03987a3.24365,3.24365,0,0,0,.10764-.60336c.02259-.00265.01858.004.01858.004-.008-.0545.00265-.11294-.01062-.16873a.30362.30362,0,0,1,.06647-.024c-.03857.01061-.02258-.3123-.01068-.31359l-.07967-.012c.00265-.06117.089-.012.07437-.07178-.10628-.0279.01864-.089-.04117-.1156a.05611.05611,0,0,1,.05185-.024c-.06246-.01061-.012-.02919-.0266-.04518-.01858-.008-.01858.00136-.03851.00531l-.01729-.03987c.01858-.01062.0558-.01327.0611-.00129a3.95559,3.95559,0,0,0,.07444-.402c.07572.09566.1654.2418.24187.26113l.05178-.03722.05851.03055a.99471.99471,0,0,1-.17411.01728,3.65383,3.65383,0,0,1,.1754.68038c-.02388.04117-.09035.02926-.09035.02926.02259.04116.05579.004.05844.04382-.008.01061-.04647.01061-.05579.0053.01327.01463-.0053.03327.02395.03055.01592-.02789.09036-.0398.13288-.05708l.00531.04912-.04654.00932c.004.00932.13159-.008.121.04518a1.90925,1.90925,0,0,0,.04253.24453.092.092,0,0,1-.07049-.01864c.004.01333.01463.0266-.00266.04252.04389-.03184.03987.0213.05586.004.12492.02525.04117.12887.13288.16078l.07308-.02524a.12053.12053,0,0,1,.00932.03055c.01592.02524.00932.03191.00932.03191s.02721.04252.06239.0877c-.01524.20466-.00592.65051-.01191.776l-.00667-.008c.00137.22323-.21663.683-.17009.9143-.05314.02919-.04919.07974-.06375.11423.02123-.01857.05708-.008.05443.00667-.01858.1156.03327.012.04252.12628a1.44591,1.44591,0,0,1-.101.62854c.06777.06776.004.14084.04518.206l-.01728-.01062c.01993.06913-.08634.4279-.06777.50764l.01062-.01062c.03987.07042-.04117.05314-.07308.101a.1456.1456,0,0,1,.13159.085l-.0213-.00136c.01463.03722-.15546.14485-.15016.19806l-.04381-.008c.04381.05055.0119.1356.01592.16479-.02661.07443.08906.21.13689.31495l-.13689.04783.012.01068s.07573.01327.18738.03123a5.6807,5.6807,0,0,0-.09968.5654l-.05184.0266c.03191.04252,0,.07838.02259.12757-.00667.02919-.03987.01463-.05049.00129.02388.04389-.01993.09437.008.12227l.01463-.012c.04116.07709-.0877.10764-.04654.18473h.00667c.0266.03456-.0266.06776-.04783.093.01857.04123.06511.00932.07974.04252-.05586.00932-.02259.04388-.02129.07845.01068-.03593.0266-.07974.07443-.06913-.01062.04518.05048.012.02259.05981l-.05715-.00136c-.01994.01728-.012.0598.00666.05851a.39911.39911,0,0,0,0-.04253l2.44645.1156c.07573-.05715.61656.00136.72958-.06246.01721.01864.01061-.04647.05313-.01728-.016-.012-.00932-.0332-.00666-.05048a.08342.08342,0,0,1-.06376.04116c.00266-.09961.03185-.20595.02654-.303-.01592-.06376.101-.08635.101-.08635H69.8063l.00136-.0598c-.13287-.07042-.01728.07974-.19533-.03586.02259.00266-.17813-.101-.16881-.12226-.00932.00531-.03987.01993-.05313.00531.00394-.04654-.29767-.08641-.27107-.1422a1.87619,1.87619,0,0,1-.41462-.19269c-.016-.07239-.26977-.13818-.44586-.208l-.00333-.02456c.02524-.02661-.02524-.04783.01864-.04253l-.01068.04253c.01994-.02661.04252-.004.06647.01061a.05582.05582,0,0,1,.024-.03191c-.01333-.01061-.01728.00136-.01728.00136-.02395-.01463-.06246-.04252-.03987-.0598.004-.03191.07171.0053.081-.03055.0545-.19269-.06776-.41463-.05844-.61262.02123.00136.02123.00531.02123.00531a1.124,1.124,0,0,0-.00932-.16479.1925.1925,0,0,1,.06783-.01327c-.03722.00531-.00932-.30032.00265-.30964l-.0811-.01061c.00531-.05716.097-.00932.07974-.06382-.11165-.03321.01728-.0877-.03585-.1156a.04681.04681,0,0,1,.05177-.01592c-.0664-.01864-.01326-.03191-.02653-.04783-.01994-.008-.01994.00265-.04252.00394l-.01729-.03851c.02123-.01326.05845-.01326.06376.00531a2.841,2.841,0,0,0,.12491-.679c-.04912.0066-.01993.04382-.09831.04912-.03722-.03456.01993-.04252-.02388-.05844.11559-.00265.0332-.06117.15016-.07307l-.06246-.012.03987-.00932c-.05185-.13424-.028-.03456-.00272-.13955-.00266-.06776-.08634-.10763-.05049-.13818,0,0-.04116.01327-.05314-.004.05314.004-.03721-.04912.01729-.05048-.004-.01728.008-.07042-.06913-.05981.03858-.0066.05851-.05048.09035-.01728.00137-.01857.01729-.03184,0-.04116l-.02258.01327c-.008-.05314.13294-.16343.06511-.206l.08906.1422c-.00136-.03321-.12226-.18609-.04654-.19269l.01994.03851a.18283.18283,0,0,0-.03184-.13553l-.00667.01463c-.07042-.06777.01857-.23786-.07042-.29767l-.05981.01728-.04388-.04783c-.00395.004.18738.03987.16744.03987a3.47722,3.47722,0,0,1,.06117-.68038c.03585-.03722.09164.00129.09164.00129-.0066-.04518-.04783-.02259-.04116-.0598.01327-.01062.04518.0053.0545.012-.00667-.01728.01463-.02789-.01334-.03055-.02122.01592-.0943-.00265-.14213.00129l.01327-.04381.04518.00531c.00129-.00933-.12492-.03858-.09172-.085.0266-.07308.01864-.16214.03987-.23922.02395.00265.03858.02129.0545.04252.00531-.01327-.00265-.02919.01857-.03586-.05313.01463-.03054-.03721-.05177-.02524a.09026.09026,0,0,1-.03055-.03524c.002-.00463.0066-.01062.00531-.01524l-.00735.01258-.00266-.00265c.018-.04586.03722-.07505.02994-.10832l-.016.01865c.00932-.03457.012-.06117.03191-.07308l.00266.03715a.51963.51963,0,0,0,.00136-.13553l-.004.01728a1.28079,1.28079,0,0,0-.03456-.15547c.00531-.01462.00667-.03055-.004-.03721l-.00932-.0013-.004-.008a.14825.14825,0,0,0-.01327-.03586.06707.06707,0,0,1,.06647.04783c.0013-.03055.03055-.0664-.028-.06246.01463-.02925.06117-.01592.07845-.05048-.01994-.01858-.0758-.03457-.05185-.06648l.008-.00394c.03858-.07444-.101-.06913-.0611-.14084l.01858.00129c.0266-.02789-.02654-.0545-.00129-.09831-.008.01061-.04389.03184-.05716.01326.02525-.05048-.01333-.07178.01729-.11165l-.05586-.01326c-.02525-.14615-.19133-.52621-.2312-.67106l.008.00394a5.89826,5.89826,0,0,0-.303-.8664c.04252-.04783.01728-.093.02129-.13424-.01333.02661-.05449.03327-.05585.01729-.01858-.1156-.03457,0-.08369-.10893a2.07973,2.07973,0,0,1-.12628-.75081c-.089-.03857-.05178-.13423-.11424-.17941l.01722.00129c-.04117-.05844-.06239-.44116-.10492-.50892l-.00537.01061c-.06246-.05314.02129-.06511.02925-.12356a.12678.12678,0,0,1-.15281-.03592l.01728-.00129c-.01864-.02525-.10634-.08376-.13288-.13288l.04783-.01062a.11848.11848,0,0,1-.05449-.07511l.19-.03525a.06365.06365,0,0,1-.01593.0479c.03457-.012.05049-.0532.02654-.06647l-.07573.01061c-.02789-.03987.04253-.02258.03321-.06375a.06769.06769,0,0,1,.09171.05715c.00265-.03191.04783-.07314-.02524-.07314.02524-.03449.07709-.01456.101-.05708-.02123-.01994-.0824-.04389-.05049-.07845l.012-.008c.05715-.08239-.10635-.09035-.04783-.16744l.02259.00136c.03191-.03327-.01729-.06783.01592-.11832-.01062.01463-.05579.03456-.06641.01068.0345-.05851-.00932-.08375.03715-.12757l-.06375-.02395c-.00463-.14288-.099-.59935-.14819-.85646l.02327-.01259a.90083.90083,0,0,0,.05048.08233c-.0053.01068-.01061.00932-.01061.00932a1.31819,1.31819,0,0,0,.093.09967.085.085,0,0,1-.02388.04253c.01721-.02259.17275.18336.16873.18867l.04123-.02919c.03055.04116-.03456.05048.00531.07709.05845-.028.03586.06375.07307.05708a.02455.02455,0,0,1-.012.03062c.03456-.016.02395.01592.03722.02123.01462-.00531.01061-.012.01061-.012l.03456.00667a.05387.05387,0,0,1-.01728.03191,2.40377,2.40377,0,0,0,.3123.47572c.012-.0266-.01729-.03456.01061-.07443.03191.00265.01061.03456.03858.01993-.04518.05716.02259.05716-.01994.1156l.03321-.01857-.01463.02394c.097.05845.03191.0066.081.08369.03987.04253.09172.03055.097.06382,0,0,.00531-.02531.02525-.01993-.02525.01993.03721.01326.01728.04252.012.008.03191.04783.05586.00265-.00932.02123.00925.0611-.0213.05314,0,0,.008.02388.02395.02926l-.00136-.02259c.02926.03184.0213.07307.07042.07042l.00136-.0213c.01993.01865.03586.03593.0066.06913L68.411,209.974a.21168.21168,0,0,0,.0877.07178l-.008-.01326a1.03753,1.03753,0,0,1,.2186.13485.9642.9642,0,0,0-.03789.52158,8.74425,8.74425,0,0,0,.626.73753c.17669.2246.38271.46777.56472.71624-.0066.03123-.02055.06314.012.09172l.008-.00667c.02926.0213-.00129.05586-.00531.07709.02661.02789.04783-.008.06913.01068-.012.00728.014.01191.04919.01592.02259.03654.05579.0711.07573.10764.14614.25112.11961.64983.38938.76141a.4875.4875,0,0,0,.32556.02259,18.40164,18.40164,0,0,0,1.61591-3.75271C72.35644,208.95474,71.785,208.66905,71.56577,208.29566ZM64.08552,214.54a.078.078,0,0,1,.0166-.02062.10991.10991,0,0,1,.00864.02858Zm1.42458,1.06507-.00265.00068.002-.00136Z" fill="#d9d9d9"/><path d="M77.59348,209.558c-.91158.03721-2.14212-.03457-3.08431-.02654-.33488.004-1.20924-.03987-1.43247.17806-.12492.12356-.11166.667-.16214.8717-.07974.28971-.26181.509-.35217.796-.22323.72958-.33883,1.4286-.59934,2.09034a1.14179,1.14179,0,0,0-.14615.47838.32571.32571,0,0,0,.28835.295c.28569.04654.52491-.0611.74814.101l4.28165-.03457a2.40914,2.40914,0,0,0,1.25578-.117c.36679-.10627.71358.09036.8598-.27371.32291-.79734-1.07106-2.78535-1.32355-3.33551C77.78351,210.27564,77.72105,209.87965,77.59348,209.558Z" fill="#d9d9d9"/></g></g></svg>