<svg xmlns="http://www.w3.org/2000/svg" xmlns:xlink="http://www.w3.org/1999/xlink" viewBox="0 0 182.7033 306.26523"><defs><linearGradient id="linear-gradient" x1="718.09435" y1="120.47549" x2="713.48463" y2="136.14585" gradientTransform="matrix(0.51146, -0.5276, -1.84164, -0.14649, -13.2013, 519.40383)" gradientUnits="userSpaceOnUse"><stop offset="0" stop-color="#fff"/><stop offset="1" stop-color="#fff" stop-opacity="0"/></linearGradient></defs><title>MAESTRO-Pe06-rapport-mouflage-7</title><g id="Calque_2" data-name="Calque 2"><g id="Calque_1-2" data-name="Calque 1"><g opacity="0.2"><path d="M72.71081,4.2666A3.72917,3.72917,0,0,1,76.58679,0c2.08984,0,3.77344,1.22363,3.77344,3.46777,0,2.125-1.42774,3.17871-2.92383,4.13086-1.4961.90039-3.11133,1.69922-3.38281,3.17871h6.1875v1.27442H72.371c.2207-2.83887,1.68262-3.90918,3.38281-4.92969C77.79284,5.84766,78.83,5.13379,78.83,3.4502a2.196,2.196,0,0,0-2.3291-2.17579c-1.68262,0-2.39648,1.54688-2.3457,2.99219Z"/><path d="M84.71276,5.15039H82.82605V3.26367h1.88671ZM82.82605,10.165h1.88671v1.88672H82.82605Z"/><path d="M92.19226,12.05176H90.74694V3.417H87.619V2.26074c1.64942,0,3.14551-.4248,3.46778-2.26074h1.10547Z"/><path d="M72.41221,25.43888V168.20862a10.30182,10.30182,0,0,0,19.48536,4.66614l45.4131-98.13348,4.81806,2.243-45.45432,98.2179a15.615,15.615,0,0,1-29.57526-6.99354V25.43888Z" fill="#34b3d1" stroke="#000" stroke-linecap="round" stroke-width="0.72"/><path d="M72.47457,166.4202a10.51634,10.51634,0,1,0,8.58882-8.57871A10.5248,10.5248,0,0,0,72.47457,166.4202Z" fill="#fff" stroke="#000" stroke-miterlimit="10" stroke-width="3.6"/><rect x="97.50515" y="117.2582" width="39.76454" height="11.39073" transform="translate(-42.98841 179.31826) rotate(-65.69091)" fill="url(#linear-gradient)"/><polygon points="125.812 93.425 131.476 81.516 125.518 78.68 142.549 71.657 142.549 71.657 147.839 89.299 141.889 86.467 136.223 98.376 125.812 93.425" fill="#fff" stroke="#fff" stroke-linecap="round" stroke-linejoin="round" stroke-width="4.8"/><rect x="127.10554" y="93.66742" width="4.4635" height="11.53015" transform="translate(-15.95441 173.63003) rotate(-64.60501)" stroke-width="4.8" stroke="#fff" stroke-linecap="round" stroke-linejoin="round" fill="#fff"/><rect x="126.06747" y="98.1923" width="2.2338" height="11.53" transform="translate(-21.30977 174.1889) rotate(-64.57392)" stroke-width="4.8" stroke="#fff" stroke-linecap="round" stroke-linejoin="round" fill="#fff"/><polygon points="125.812 93.425 131.476 81.516 125.518 78.68 142.549 71.657 142.549 71.657 147.839 89.299 141.889 86.467 136.223 98.376 125.812 93.425" fill="#252525"/><rect x="127.10554" y="93.66742" width="4.4635" height="11.53015" transform="translate(-15.95441 173.63003) rotate(-64.60501)" fill="#252525"/><rect x="126.06747" y="98.1923" width="2.2338" height="11.53" transform="translate(-21.30977 174.1889) rotate(-64.57392)" fill="#252525"/><line y1="25.63453" x2="135.57384" y2="25.63453" fill="#fff" stroke="#000" stroke-miterlimit="10" stroke-width="0.72"/><line x1="82.83823" y1="236.9485" x2="82.83823" y2="183.82114" fill="#fff" stroke="#000" stroke-miterlimit="10" stroke-width="3.6"/><path d="M158.49142,19.58339a16.20736,16.20736,0,0,0-16.02859,13.84506c.428-.01128.893-.02578,1.00571-.04185a11.91358,11.91358,0,0,1,2.48606-.15612c.09178.00807.18991.02257.29775.0402a2.839,2.839,0,0,0,.737.03708,2.8678,2.8678,0,0,0,.76432-.25425,3.38782,3.38782,0,0,1,.42322-.17541,1.53213,1.53213,0,0,1,.32346-.06113,1.483,1.483,0,0,0,.52292-.14484,4.16985,4.16985,0,0,0,.74347-.98643,6.437,6.437,0,0,1,.78845-1.08612,7.44782,7.44782,0,0,1,1.35652-.88987,11.60176,11.60176,0,0,0,1.15862-.73375,6.22879,6.22879,0,0,0,1.07327-1.19727,7.19858,7.19858,0,0,1,.83995-.98478c.87216-.80295,1.91486-.90108,3.35665-1.03628.30574-.03221.62112-.05792.95908-.10133.35723-.04029.73539-.11271,1.09584-.18183.34595-.066.671-.13034.96551-.1642a4.74713,4.74713,0,0,1,2.78537.57935,6.12909,6.12909,0,0,0,1.53193.54384c.08041.0145.17375.02579.27031.04186.47151.07077,1.18112.18026,1.35487.45058a.86426.86426,0,0,1-.185.97349c-.69033.78046-2.41529.94137-3.68975.7a1.57789,1.57789,0,0,1-.33309-.1319,1.05781,1.05781,0,0,0-.72568-.17541,1.02981,1.02981,0,0,0-.39587.25261,1.15212,1.15212,0,0,1-.24461.17861,5.66654,5.66654,0,0,1-2.15948.26389l.00643.00322-.01442-.00322h.008a1.79866,1.79866,0,0,0-.81424.01615c-.296.1754-.46986,1.297-.72567,3.11369a14.9583,14.9583,0,0,1-.3331,1.92129,7.24741,7.24741,0,0,1-1.56734,2.3638c-.206.243-.428.494-.62591.74668-.0547.0692-.10784.1207-.15447.1754a1.18161,1.18161,0,0,0-.288.39258l-.04029.09178.08214.06113a2.12813,2.12813,0,0,1,1.00085,2.13369l-.01129.07242.06278.04671a1.32939,1.32939,0,0,1,.48271.83031c.04507.15283.09335.32667.16742.51492a3.43247,3.43247,0,0,0,2.2978,1.704,2.75138,2.75138,0,0,0,1.30181.037,1.35462,1.35462,0,0,0,.59056-.29124l.132-.10456-.1352-.095a4.57628,4.57628,0,0,0-1.47722-.51492c-1.107-.25582-2.14654-.49557-1.97122-1.61876a.76935.76935,0,0,1,.20119-.51172c.32989-.29931,1.98564.07728,2.78217.26068.22854.04828.42322.09656.56641.1207a10.90865,10.90865,0,0,0,1.30668.09656c1.12319.03864,2.51184.08527,2.85779.6839a1.07883,1.07883,0,0,1-.13511,1.025,2.24285,2.24285,0,0,1-1.16341,1.01856,2.9043,2.9043,0,0,1-1.34852-.09169c-.17862-.03864-.34109-.074-.50685-.09656l-.08206-.01129-.04021.06921c-.71125,1.21011-1.62041,1.25674-2.98335,1.33081-.43608.02414-.94137.0547-1.47236.12869a7.6646,7.6646,0,0,0-1.08455.2414,5.59894,5.59894,0,0,1-2.491.26388,10.613,10.613,0,0,1-2.03877-.642,11.52772,11.52772,0,0,0-1.72339-.56321,3.42119,3.42119,0,0,0-1.78132.23011c-.1899.05957-.36209.11905-.52777.15934-.44894.10455-.93173.185-1.39838.27188-.27838.05149-.90429.09013-1.49806.14327a16.19719,16.19719,0,1,0,13.50867-25.12835Z" fill="#686166"/><path d="M162.40008,40.55049a10.90865,10.90865,0,0,1-1.30668-.09656c-.14319-.02414-.33787-.07242-.56641-.1207-.79653-.1834-2.45228-.56-2.78217-.26068a.76935.76935,0,0,0-.20119.51172c-.17532,1.12319.86417,1.36294,1.97122,1.61876a4.57628,4.57628,0,0,1,1.47722.51492l.1352.095-.132.10456a1.35462,1.35462,0,0,1-.59056.29124,2.75138,2.75138,0,0,1-1.30181-.037,3.43247,3.43247,0,0,1-2.2978-1.704c-.07407-.18825-.12235-.36209-.16742-.51492a1.32939,1.32939,0,0,0-.48271-.83031l-.06278-.04671.01129-.07242a2.12813,2.12813,0,0,0-1.00085-2.13369l-.08214-.06113.04029-.09178a1.18161,1.18161,0,0,1,.288-.39258c.04663-.0547.09977-.1062.15447-.1754.1979-.25269.41993-.50364.62591-.74668a7.24741,7.24741,0,0,0,1.56734-2.3638,14.9583,14.9583,0,0,0,.3331-1.92129c.25581-1.81674.42965-2.93829.72567-3.11369a1.79866,1.79866,0,0,1,.81424-.01615,5.66654,5.66654,0,0,0,2.15948-.26389,1.15212,1.15212,0,0,0,.24461-.17861,1.02981,1.02981,0,0,1,.39587-.25261,1.05781,1.05781,0,0,1,.72568.17541,1.57789,1.57789,0,0,0,.33309.1319c1.27446.2414,2.99942.08049,3.68975-.7a.86426.86426,0,0,0,.185-.97349c-.17375-.27032-.88336-.37981-1.35487-.45058-.09656-.01607-.1899-.02736-.27031-.04186a6.12909,6.12909,0,0,1-1.53193-.54384,4.74713,4.74713,0,0,0-2.78537-.57935c-.29454.03386-.61956.0982-.96551.1642-.36045.06912-.73861.14154-1.09584.18183-.338.04341-.65334.06912-.95908.10133-1.44179.1352-2.48449.23333-3.35665,1.03628a7.19858,7.19858,0,0,0-.83995.98478,6.22879,6.22879,0,0,1-1.07327,1.19727,11.60176,11.60176,0,0,1-1.15862.73375,7.44782,7.44782,0,0,0-1.35652.88987,6.437,6.437,0,0,0-.78845,1.08612,4.16985,4.16985,0,0,1-.74347.98643,1.483,1.483,0,0,1-.52292.14484,1.53213,1.53213,0,0,0-.32346.06113,3.38782,3.38782,0,0,0-.42322.17541,2.8678,2.8678,0,0,1-.76432.25425,2.839,2.839,0,0,1-.737-.03708c-.10784-.01763-.206-.03213-.29775-.0402a11.91358,11.91358,0,0,0-2.48606.15612c-.1127.01607-.5777.03057-1.00571.04185a17.5506,17.5506,0,0,0-.169,2.35737,16.10948,16.10948,0,0,0,2.68889,8.92592c.59377-.05314,1.21968-.09178,1.49806-.14327.46665-.08684.94944-.16733,1.39838-.27188.16568-.04029.33787-.09977.52777-.15934a3.42119,3.42119,0,0,1,1.78132-.23011,11.52772,11.52772,0,0,1,1.72339.56321,10.613,10.613,0,0,0,2.03877.642,5.59894,5.59894,0,0,0,2.491-.26388,7.6646,7.6646,0,0,1,1.08455-.2414c.531-.074,1.03628-.10455,1.47236-.12869,1.36294-.07407,2.2721-.1207,2.98335-1.33081l.04021-.06921.08206.01129c.16576.02257.32823.05792.50685.09656a2.9043,2.9043,0,0,0,1.34852.09169,2.24285,2.24285,0,0,0,1.16341-1.01856,1.07883,1.07883,0,0,0,.13511-1.025C164.91192,40.63576,163.52327,40.58913,162.40008,40.55049Z" fill="#d9d9d9"/><polygon points="159.576 28.99 159.57 28.987 159.562 28.987 159.576 28.99" fill="#d9d9d9"/><path d="M165.50891,29.23342a2.04618,2.04618,0,0,0-.71925.19625,2.67667,2.67667,0,0,1-.58734.19155,12.97947,12.97947,0,0,1-1.37745.11262c-.40065.01928-.77074.03378-1.11356.08042l-.09977.01128a7.73355,7.73355,0,0,0-2.15461.4795,1.13131,1.13131,0,0,0-.59377.76761.99842.99842,0,0,0,.20762.869c.22846.27995.38615.30409.79331.37816.07555.01442.1689.02735.26546.04984a4.66485,4.66485,0,0,1,.48279.12391,4.97194,4.97194,0,0,0,.82709.18183,11.50554,11.50554,0,0,0,3.48378-.28646c.34274-.06591.66776-.12869.988-.17862a2.83245,2.83245,0,0,1,.362-.03213,1.13627,1.13627,0,0,0,.52786-.10463,1.212,1.212,0,0,0,.56321-.86409,1.81346,1.81346,0,0,0-.39909-1.39837A1.62931,1.62931,0,0,0,165.50891,29.23342Z" fill="#d9d9d9"/><path d="M167.90492,34.08978c-.206-.74989-.97515-1.08777-2.1112-.93494a2.00011,2.00011,0,0,0-.43443.13034,2.16906,2.16906,0,0,1-.41837.14,15.811,15.811,0,0,1-4.039.07893c-.12869-.01129-.2671-.03222-.39744-.04828-.819-.11592-1.5914-.21726-2.09669.31859-.32832.34916-.43451.64848-.32832.91879.18505.4795,1.24876,1.33724,6.266,1.71376l.2044.01606a5.57354,5.57354,0,0,0,2.10955-.08527A2.0465,2.0465,0,0,0,167.90492,34.08978Z" fill="#d9d9d9"/><path d="M165.19188,37.31124l.066-.01928c-.04342-.00321-.35723,0-.60662.01129-.44893.008-.7756.02092-.87216.008-.44737-.045-.90915-.08527-1.4048-.12869-.848-.06435-1.73138-.1352-2.59877-.26233a3.03191,3.03191,0,0,1-.5197-.13355,2.45631,2.45631,0,0,0-1.11677-.13511,1.05961,1.05961,0,0,0-.85288.84316,1.09618,1.09618,0,0,0,.3621,1.18268,13.63286,13.63286,0,0,0,4.72124,1.18432,4.57568,4.57568,0,0,0,.79332-.01441,3.06022,3.06022,0,0,1,.92843.01441,1.97024,1.97024,0,0,1,.44415.17063,1.38866,1.38866,0,0,0,.94779.18018,1.897,1.897,0,0,0,1.202-.922,1.12084,1.12084,0,0,0,.1642-1.19562A1.86937,1.86937,0,0,0,165.19188,37.31124Z" fill="#d9d9d9"/><path d="M139.1149,50.23548h38.75441a4.234,4.234,0,0,1,4.234,4.234V63.011a4.23206,4.23206,0,0,1-4.23206,4.23206H139.1149a4.23206,4.23206,0,0,1-4.23206-4.23206V54.46754A4.23206,4.23206,0,0,1,139.1149,50.23548Z" fill="#d9d9d9" stroke="#595959" stroke-miterlimit="10" stroke-width="1.2"/><path d="M156.3612,54.00928h6.38086V55.687H158.3573v2.09668h3.7998v1.55078h-3.7998v3.75h-1.9961Z" fill="#252525"/><path d="M99.94364,251.057a16.19841,16.19841,0,1,1-16.2-16.2A16.20337,16.20337,0,0,1,99.94364,251.057Z" fill="#686166"/><path d="M76.16593,243.20412l-.00318-.00555C76.16511,243.21931,76.16593,243.21686,76.16593,243.20412Z" fill="#d9d9d9"/><polygon points="75.415 261.545 75.421 261.546 75.423 261.537 75.415 261.545" fill="#d9d9d9"/><path d="M79.72512,244.23351c.00645.00156.01118.00719.01682.00956h.00073Z" fill="#d9d9d9"/><path d="M92.11234,244.24625s.0925-.15627-.0765-.126a19.30434,19.30434,0,0,1-2.49085.22c-.0734.34283-.22967.54694-.29025.86112a1.75484,1.75484,0,0,0,0,.44652.96294.96294,0,0,0,.87385.22322A3.075,3.075,0,0,0,92.11234,244.24625Z" fill="#d9d9d9"/><path d="M87.36668,248.268c.1419.11479.421.20412.48162.41141a1.23761,1.23761,0,0,1,.02229.30618c1.22469-.12125,2.66941.04147,3.86226-.12443a6.10117,6.10117,0,0,0,.96318-.15946,6.77671,6.77671,0,0,0,1.55951-2.53869c-.03829-.22-.32691-.49273-.45607-.63145a3.14806,3.14806,0,0,1-.598-.7144c.04867-.15072.08451-.2958.13554-.48792.42741-1.59625.10205-3.39981-1.47028-3.25791a1.65927,1.65927,0,0,0-1.0556.46726c-.07658.0765-.14035.24714-.22967.30454-.11479.075-.26306.04948-.389.10842a2.51783,2.51783,0,0,0-.78143.968,2.43523,2.43523,0,0,0-.3412.93762c-.016.08613-.083.21048-.11324.30462a1.16626,1.16626,0,0,1,.75424.0271,15.80431,15.80431,0,0,1,.96481-1.68713c.53094.09724,1.31074-.80535,1.69986,0a3.65545,3.65545,0,0,1-.02555,1.60737c-.05658.783.33728.55339.594.5725a7.04413,7.04413,0,0,1-1.02939,1.31874,3.10248,3.10248,0,0,1-1.79237.96481c-1.49256.18656-1.97738-1.38414-1.49256-2.78584-.23923.02866-.36039-.12761-.64264-.08613-1.05086.15627-1.05886.42733-1.60744,1.13063-.23277.29972-.44489.60434-.69048.885A4.63937,4.63937,0,0,0,87.36668,248.268Z" fill="#d9d9d9"/><path d="M97.566,250.2246c-.32372-.55339-1.86568-3.46839-2.43345-3.34078-.29017.06376-.44962.62982-.60116.88341a8.20163,8.20163,0,0,0-.77661,1.43835c-.0574.46563.30935.63472.43378.90733a3.03508,3.03508,0,0,1,.27588.66819c.03666.19775-.03984.34128,0,.49273a12.267,12.267,0,0,0,1.21987,2.02041c.11961.22967.10843.45771.27115.63472.31572-.52948.74306-.95363,1.06042-1.48947.23914-.42415.45762-.89778.66337-1.32674.051-.11161.06221-.31728.13871-.389C97.86739,250.67268,97.58677,250.26445,97.566,250.2246Z" fill="#d9d9d9"/><path d="M85.87893,248.51355c-.35247-.58368-.62353-1.20876-1.47665-1.24069-.20256.417-.80372,1.2518-1.29964,2.089-.016-.01674-.03829-.04539-.05266-.059.00637-.04621-.03666-.0845-.0494-.11953.00474.02392-.02237.03821-.03355.02392-.06377-.08932-.01747.00956-.10043-.0734a2.86189,2.86189,0,0,1-.41778-.61389c-.08295-.01919-.09569-.10687-.1579-.13561l.01118-.00319c-.05266-.03984-.236-.36675-.29661-.41778l.00318.016c-.03184-.016-.035-.0311-.03429-.04866a.05736.05736,0,0,1,.00081-.01992l-.00236.00237a.08649.08649,0,0,0-.00245-.04866.06061.06061,0,0,1-.043.01518l.00482-.02155h-.00164l.02074-.01592a2.69522,2.69522,0,0,0-.19138-.54376c.01119-.01119.016-.00319.016-.00319a.63138.63138,0,0,0-.08932-.12761c.008-.02392.03347-.03347.04466-.043-.02874.01756-.16583-.244-.15627-.25359l-.07022.03511c-.02392-.0494.07177-.05585.03192-.09406-.10524.02548-.03192-.07977-.08613-.06858a.0454.0454,0,0,1,.02555-.03984c-.05584.01592-.02237-.02074-.04147-.02874-.01756.00637-.01274.01273-.02874.02392l-.035-.02711c.01274-.01592.03821-.0351.05258-.02555a2.95732,2.95732,0,0,0-.25514-.60753c-.03184.02711.008.043-.04466.08769-.0494-.00637-.00792-.04148-.051-.035.08777-.05429-.00474-.0654.08132-.12916l-.0574.01747.02556-.02547c-.11006-.08295-.03666-.01437-.07977-.1148-.03029-.04784-.11479-.03829-.10679-.08295,0,0-.02074.03029-.04148.02548.04148-.02548-.04948-.02229-.008-.051-.01437-.01429-.03184-.0574-.0845-.01274.02555-.02392.02073-.07013.059-.06213-.008-.01437-.00637-.03193-.02074-.03356l-.01119.02556c-.03192-.043.00482-.09088-.06376-.09251l-.02074.03193c-.01437-.02711-.03029-.04311.02074-.08777l.03984.01918a.19573.19573,0,0,0-.09569-.09413l.00163.016c-.0845-.01919-.26788-.244-.36038-.25041l-.03829.04311-.06058-.01282a1.45641,1.45641,0,0,1,.15145-.05258.9836.9836,0,0,1-.1339-.2918c.01274-.04785.0765-.04148.0765-.04148-.03029-.03511-.05421.00482-.0654-.02874l.04466-.01592c-.00955-.01273.00319-.03511-.02229-.02074-.01118.02556-.067.0463-.10369.07177l-.0151-.039.004-.00481.03184-.01519-.02229.004c.00474-.00792.01274-.01037.01592-.01992a.1679.1679,0,0,1-.10042-.004c-.00163-.00237-.008,0-.008-.004a.38242.38242,0,0,1-.01911-.06058.6174.6174,0,0,1-.02073-.075.20792.20792,0,0,0-.0383-.07814.07989.07989,0,0,1,.03348.00163l.00955-.0271c-.03184.03184-.03666-.01919-.04784.00473l-.01111-.00473s-.008-.00637-.00481-.01282l-.00319.00963-.00955-.00318c.00637-.00318-.02711-.03192-.01919-.03829-.01429-.01592-.03984-.0574-.04139-.03193,0,0-.02237-.051.00155-.03347a.13118.13118,0,0,1-.01911-.02547l-.00163.0111c-.03184-.035-.04148-.06377-.0765-.07814l.00792.01756c-.01756-.02074-.043-.03029-.04148-.051l.03356.01274a.371.371,0,0,0-.09487-.05258l-.01919-.00482a.70433.70433,0,0,1-.04866-.07332c.01118-.11324-.77653.07177-.87859-.05421l-.07814-.08932-.2998.047a.8015.8015,0,0,1-.02392-.33247c-.05422-.02073-.02237-.06694-.06377-.08932l.01747.00164a.57734.57734,0,0,1-.02465-.17864,1.659,1.659,0,0,0,.42015-.28862,2.53835,2.53835,0,0,0,.53265-.732c.0574-.0765.06377.01756.07014.02074.02874-.12279-.02229-.06858.01592-.16582.016-.02392.02874.01592.0271.03511.01119-.0463.03675-.07977.02074-.091-.03347.051-.06858.00482-.10842.01119a.84852.84852,0,0,0,.04147-.1228l.02874.01911a1.45811,1.45811,0,0,1,.00637-.36039,1.44287,1.44287,0,0,0-.00318-.53576c.01592,0,.035.04622.051.09569,0-.03347-.01437-.07977,0-.10687-.02556.0574-.03511-.09406-.04148-.051a5.4091,5.4091,0,0,0-.37957-.44652,1.88594,1.88594,0,0,0-.32691.06221.93625.93625,0,0,0-.0685-.19138c.236-.1419.45762-.2998.44489-.51347l.0271-.01428-.04466-.06222c-.04147-.08613-.09724-.0925-.07177-.10687l.07814.1005c-.04784-.07976.00318-.03992.03347-.02237a.4975.4975,0,0,1-.04939-.09569c-.02237-.00955-.00163.01756,0,.03674a.6251.6251,0,0,1-.1308-.12279c-.0654-.07177.03029-.04148-.043-.12916a2.10735,2.10735,0,0,0-1.50057-.7607c-.01274-.01437.00155-.01274.02073-.0191a1.887,1.887,0,0,0-.47517.05576.17957.17957,0,0,1-.0734-.035c.01273.00792-.19612.059-.39386.16264a2.408,2.408,0,0,0-.37631.22486l.01747.06695c-.12916.1005-.07968-.0303-.18656.0845.00319.10524-.18337.18983-.18974.26314,0,0-.05421.05422-.06858.03348.02237.051-.03985.07658-.06059.12279-.00163.02074.01911-.00155.03985-.00481-.01911.03355-.02711.06539-.051.10532-.02711.02711-.05577.02547-.03829-.02237a2.43339,2.43339,0,0,0-.3492.98073,2.58809,2.58809,0,0,0,.10687,1.10507c.02074-.04784-.03347-.14508.01437-.19611.043.07969.02066.12916.06058.15627-.06221.06058.04148.19448,0,.287l.051.00955-.008.05429c.22.33483.19138.00474.3652.31728.12116.1659.23759.16745.29017.26633-.00473-.01592-.0191-.067.02556-.03511-.02237.03511.05739.06385.04939.11324a.39638.39638,0,0,1,.04311.17619c.00874.04466.09806.13235.02711.09969.035.03029.06858.06859.10042.07332l-.04466-.04939c.1308.094.193.17537.29981.18019l-.03666-.05266c.075.051.14508.07813.16427.142l-.09732-.02556a1.01511,1.01511,0,0,0,.26151.08451.07844.07844,0,0,0,.01282.03029.133.133,0,0,1-.0463.02074c.02711-.00792.0574.14353.04948.14835l.05576-.008c.00319.0303-.06213.01756-.04466.04466.08459-.00481-.00318.043.04466.043-.00792.00319-.00792.016-.03184.01919.04466-.00482.01274.01429.02229.0191.01274.00164.01437-.00318.02874-.00955l.02229.01592a.38692.38692,0,0,1-.04466.01919.85468.85468,0,0,0,.02237.33483c.03184-.008.00318-.02074.05576-.03511.03348.00645-.00473.01919.02393.02074-.05177.012-.0494.02392-.05977.03747a2.8646,2.8646,0,0,0-.6339.26078l-.06221.00955.01119.03511c-.0303.051.04629.0574-.01756.067l.00482-.06221c-.01756.04947-.04948.02073-.09087.01273a.08358.08358,0,0,1-.03356.059c.02719.00482.02874-.00955.04629-.02073.02393.02073.08451.03829.0574.075-.00163.04629-.10369.02392-.10524.08295l-.00237.01992-.02474.01192-.05584-.043a.088.088,0,0,1,.02237-.0271c-.016-.01274-.04466.00481-.04311.03029l.04466.03666c-.01429.04629-.03666-.01429-.05576.02237-.04148-.02874-.02238-.067-.00637-.09414-.02556.02074-.06859.02392-.03674.06066-.03348.01274-.04466-.03829-.07814-.02392-.00473.02711.01119.0765-.02866.08132l-.00955-.008c-.05421.01755-.03356.07013-.04466.11324-.02237.02074-.01755-.008-.03829.02074h-.00637v-.008c-.03192,0-.03511.05739-.07813.0654l.02392.00473a.10718.10718,0,0,1-.01919.04311c-.0191.01911-.02866.043-.06376.04621l.01273.05266c-.10361.11161-.22.31573-.31254.44007l.00163-.00955a7.99093,7.99093,0,0,0-.55012.791c-.0543.00318-.07977.04458-.11325.06531.02548-.00473.0494.02237.03029.03674-.075.08924.02393.02866-.03666.13072a2.74307,2.74307,0,0,1-.54221.58205c.00956.09087-.0845.12443-.09087.1993l-.00955-.01429c-.02392.06858-.32054.33646-.35565.413l.01437-.00156c-.00637.07969-.06058.02711-.11161.051a.14369.14369,0,0,1,.04466.1419l-.01437-.01592a.79921.79921,0,0,1-.04147.1913l-.02711-.02866c.00482.06695-.067.12435-.08932.15309-.06377.04784-.19138.09569-.21849.21211l-.13708-.02392.00637.01747s.04621.03993.12279.10051l-.00955.0191-.00645-.00955a.72764.72764,0,0,0-.02866.15472c-.01273.01747-.01437.01747-.01437.01747a.62309.62309,0,0,0,.00164.1499.72863.72863,0,0,0,.03184.14991l.01755.00318c.02074.051-.0191.02074.008.07177.03348.00963.03985.07421.05895.08932a1.61178,1.61178,0,0,0-.0271.3652c-.01274.00473-.01429-.00163-.01429-.00163.0111.04311.00792.083.02229.12442a.07091.07091,0,0,1-.04785.02711c.02874-.00637.043.24233.03511.24233l.06221-.00156c0,.04466-.07021.02074-.051.06222.08287.00955-.00482.07332.03821.08769a.04148.04148,0,0,1-.03348.02073c.043.00319.01119.01911.02392.03185l.02556-.00956.01592.03193-.03511.01592a1.83187,1.83187,0,0,0-.01592.54539c.02547-.01118.00319-.03829.0574-.05421.03347.02229-.008.03984.02074.04466-.075.01429-.01119.051-.09406.07495h.04458l-.02711.02066c.05585.0925.02392.016.01756.1085.01118.051.0734.07014.05421.09888,0,0,.02237-.01437.03511-.00164-.03511.00164.02874.03193-.01119.04148.00637.01119.00319.05895.0574.03666-.02711.00637-.035.04784-.059.02229-.00163.01755-.00637.03192.00155.04466l.01919-.01911c.00473.03985-.03029.06695.01755.08932l.01911-.01755c.00473.02711.01118.04784-.04466.06058l-.01592-.02392a.17533.17533,0,0,0,.04147.10524v-.01274c.0574.0383.10679.27425.17693.311l.03992-.02392.03666.03184-.12434-.00955a3.563,3.563,0,0,1,.03821.55176c-.02074.03184-.06695.00792-.07651.01274.01756.03029.04622.00637.04466.03666-.00481.01118-.03347,0-.03347,0-.00163.01437-.00963.02874.00473.02392.01593-.0191.0654-.01592.10051-.02547l-.00318.03821-.03193.00326s.09088.01111.07177.05422a1.398,1.398,0,0,0,0,.20093.06122.06122,0,0,1-.04311-.02556s.00327.02229-.0111.02392c.03347-.01437.0271.02711.0271.02711.09569.02555.02393.09724.07969.13553l.11879-.00318c-.07731.18419-.20484.49836-.24314.63153l-.05421.01429c.01911.03992-.01592.06384-.00482.11487-.01273.01911-.03984.00319-.043-.00963.00955.04466-.0383.0734-.01911.10524l.01592-.00155c.01911.07332-.09887.07176-.07977.15145h.008c.01592.03829-.0383.05266-.0574.07022.00318.04147.04939.02392.05895.05576-.051-.00474.23448.2073.22967.23441.01437-.02866.03666-.06059.0765-.0414-.01747.035.36046.14345.32854.18174l.11961-.00792c-.02074.00956-.02392.0494,0,.0574-.008-.00482-.00163-.02392.00155-.04311l.74951.11806c.07814-.03511.02874-.14672.13717-.17382.01273.02074.0191-.03829.04621-.00482-.00637-.01592.00163-.02866.00318-.04621-.02074.01592-.03347.02711-.059.02229a2.3669,2.3669,0,0,0,.08459-.26151c-.00164-.0574.10679-.0494.10679-.0494l-.03829-.01118.01437-.05267c.03347.02556.09569.0383.10687.06222.02229.00482.00956-.01437.00956-.03029l-.03348-.00482c.008-.03984.11961-.12916.15145-.17064,0,0-.05894.01282-.0765-.03184.004-.09406-.33409-.7-.38275-.9066l.0271-.00073c.00164.01274.00164.02866-.00792.03184a.032.032,0,0,0,.01592-.04939l-.03829.00555-.00155-.00474c-.00245-.01437.02311-.00882.02074-.03274.03666-.00955.04139.01911.04621.0463.00482-.02393.02711-.0463-.00955-.05585.01273-.01755.043-.00318.059-.02874-.01282-.01592-.04948-.035-.02719-.05421l.00326-.00319c.03822-.051-.059-.06858-.01918-.12116l.01118.00474c.01911-.01748-.008-.04777.01274-.07651,0,0-.03666.01756-.03829,0,.02237-.03347-.00474-.05266.02555-.07976l-.04147-.02229c.00163-.11325-.07014-.56932-.08295-.68248l.00963.00318a5.37967,5.37967,0,0,0-.09887-.716c.03347-.03192.02547-.07177.03029-.10206-.01437.02237-.03985.01592-.03829.00164.00481-.08932-.02393-.00164-.03985-.09251a1.7001,1.7001,0,0,1,.00637-.60279c-.059-.04466-.02237-.10843-.051-.1579l.00637.00318c-.0191-.04621.01592-.35238-.00637-.405l-.00482.00318c-.035-.04784.02074-.04784.03675-.08932a.09354.09354,0,0,1-.10051-.04948l.01118.00164a.296.296,0,0,0-.0351-.05977,2.67018,2.67018,0,0,0,.421-.40586c.01919.00955.01282.01274.016.02229.02392-.06058.06376-.10206.09087-.15945a.35917.35917,0,0,1,.06221.02073c-.03511-.01437.17219-.27269.18338-.26951l-.05266-.04939c.0351-.04948.07658.04147.09569-.01274-.06377-.08614.07339-.06858.04466-.11961a.04361.04361,0,0,1,.04784.00792c-.03829-.043.008-.03029.00637-.05258-.00482-.016-.01119-.008-.03029-.01756l.01118-.04621c.02393.00319.05258.02229.04621.0414a4.0348,4.0348,0,0,0,.50547-.5374c-.043-.01755-.04457.02556-.10524-.00318-.00955-.0494.03674-.02711.016-.06213.08768.05258.06058-.04311.15782.00955l-.03666-.04311.03511.008c.01755-.071.01755-.07977.0231-.08213a.73818.73818,0,0,0,.01837.12042c.067-.03984.01911-.075.12116-.11161.06377.02866-.01592.06058.051.06695-.15945.0494-.03029.09724-.18656.16109l.08932-.008-.05429.03511c.10687.16264.04784.03184.04311.19293.02229.09568.1499.10842.10679.17064,0,0,.05585-.0383.0814-.01919-.0814.01919.06058.04784-.01437.07813.00955.02074.00955.10051.11.04785-.051.0271-.067.09887-.11953.067-.00163.02547-.01119.05258.01273.06213l.02711-.03666c.02074.0734-.06058.13235.04466.16427l.04148-.03829c.0111.04148.02229.08451-.08295.12443l-.04148-.04466a.2442.2442,0,0,0,.08614.17219v-.02074c.11479.059.24559.46563.37949.50874l.08131-.04466.0734.04939c0-.01118-.26951.02393-.24077.01119a5.31805,5.31805,0,0,1,.10361.97591.13808.13808,0,0,1-.13235.03829c.02229.05577.07977.00956.075.0654-.01437.01911-.06858.01111-.06858.01111s-.02866.04147.01592.0351c.02556-.03192.12916-.04147.19456-.07013l-.00155.07013-.067.01274c0,.01274.18183.00318.15309.0734a.49914.49914,0,0,0,.00245.0765l-.22249-.00955c.00318-.01911.00955-.03829.02074-.043a.04307.04307,0,0,0-.03511.06213l.07177.00964c.02237.04458-.043.00792-.03985.05421-.059,0-.06694-.04466-.07339-.08295-.00956.03666-.051.0654.01118.08295-.02711.02866-.07332-.00645-.10042.02866.01755.02874.067.07022.035.09887l-.01429-.00155c-.06221.07014.08606.12435.02229.1913l-.02073-.01274c-.03666.02237.00318.075-.03348.12116.00955-.01428.05585-.02392.06058.00482-.03984.05266-.00318.09087-.05421.12116l.05584.03993c-.01918.177.02866.70485.02711.88341l-.00955-.008a8.67125,8.67125,0,0,0,.09724,1.13864c-.06222.03821-.051.09887-.07013.14345.02547-.02548.06058-.00955.05894.008-.0111.14035.03666.01119.059.15309a2.82123,2.82123,0,0,1-.12116.93125c.07969.083.0111.17545.05895.25359l-.02074-.00955c.02874.08768-.0845.54531-.05421.641l.00955-.01274c.04785.08451-.04458.07014-.075.13235a.14225.14225,0,0,1,.14672.10051l-.02229-.00164a1.04572,1.04572,0,0,1,.10042.2073L76.909,255.935c.01119.01192.008.02874.01282.043-.02319.00955-.04948.02319-.04148.03829l.06058.02474-.00081.02474c-.01511-.00082-.03348-.00482-.039.02229-.06385-.01911-.06066-.06377-.05748-.10206-.01592.03193-.0685.04621-.00637.08295-.03347.02229-.075-.02874-.11316.00156.01111.03029.06058.08131.01429.09887l-.0111-.00637c-.083.051.08287.02711,0,.07177l-.016-.01592c-.043.0111-.00955.07486-.06213.10042.01755-.00482.06532-.00163.06377.02392-.05267.03511-.02874.08132-.08451.10043l.0494.04784c-.06858.16746-.19775.83565-.244,1.00147l-.008-.00637c-.051.26151-.42733.74306-.43052,1.03013-.07021.0191-.075.07813-.10524.11479.02866-.01429.06858.01118.06058.02555-.04621.12435.03829.01911.02074.15946a1.78921,1.78921,0,0,1-.28225.708c.06221.09251-.03029.161.00155.252l-.0191-.016c.00636.08295-.21049.48163-.21049.57568l.01911-.00473c.03029.08924-.06213.04939-.10843.10205a.15947.15947,0,0,1,.12761.13235l-.01918-.00955c.00318.043-.22167.1259-.22641.19611l-.05421-.02237c.03829.067-.01755.1579-.02237.1962-.051.0765.04629.26469.07977.40186l-.17383.02229.01274.01755s.24322.09887.5605.216l-.23514-.03821c-.03748.216-.21056.97991-.2233,1.18084l-.06213.03184c.04139.04948-.00164.08614.0271.14672-.00963.03029-.05266.01273-.059-.00482.03029.05585-.02237.10369.00474.1388l.01918-.00964c.05422.09251-.10369.11488-.04947.20894h.00645c.03347.03984-.03193.07176-.051.09887.0191.0494.0685.01592.09242.05421-.06532.00955-.03029.04948-.0271.09569.01436-.04466.03192-.09087.08613-.08295-.01118.05584.06058.02074.03193.07021l-.0734-.00636c-.01911.02065-.00956.07331.00955.075l.00318-.051,2.06989.13071c.09405-.06058,1.76208.051,1.89761-.01592.01919.02548.008-.05266.06221-.016-.02555-.01429-.01273-.03821-.01118-.051-.02074.01919-.04466.04311-.07177.04148.00319-.118-.228-.40186-.23759-.51821-.02074-.06858.1228-.0734.12116-.08932l-.051-.00482-.952-.30217c.03029.00237.016-.02074.02555-.04384-.01592.008-.05421.02074-.06376.00318-.00164-.05584.04139-.01118.06058-.07176,0,0-.07177.03192-.10525-.01911-.01673-.09887-.46644-.37239-.69211-.563.00564-.00637.008-.01592.01919-.01755-.016-.01429-.01919-.00155-.03356-.00319-.01428-.02073-.04939-.06531-.02073-.07968.01281-.03192.083.02547.10205-.01437.11643-.21212.03038-.50229.08932-.72877.02237.00163.02074.00637.02074.00637a1.90742,1.90742,0,0,0,.03666-.19448.46794.46794,0,0,1,.08295,0c-.04621-.00327.067-.35884.08132-.36047l-.09569-.03347c.01919-.06859.11161.01118.11325-.0494-.126-.0734.04784-.10206-.01593-.14672a.06188.06188,0,0,1,.06214-.01273c-.06859-.0303-.00474-.03666-.01429-.0574-.01755-.016-.02556-.00319-.04785-.00319l-.00963-.04947c.02556-.01592.0734-.00482.07177.01755a3.62166,3.62166,0,0,0,.319-.76861c-.06222,0-.03829.051-.126.0351-.03511-.04629.035-.04147-.00964-.07658.1308.03192.051-.059.18665-.03666l-.07022-.03347.04948-.00319c-.02556-.1659-.02237-.04466.035-.16745.01437-.075-.07331-.14672-.02229-.169,0,0-.05421.00318-.06694-.02237.06694.02237-.02874-.0654.03821-.05421.00163-.02229.02873-.07977-.06859-.08769.0463.00473.083-.03984.11006.00155.01119-.01755.03192-.03029.01274-.0494l-.02866.01274c.00474-.0654.19456-.15945.13072-.22322l.06384.1913c.00955-.03985-.09414-.25515-.00637-.236l.01748.04621a.24258.24258,0,0,0-.00474-.16745l-.00955.01755c-.06385-.094.08287-.27743-.00645-.37312l-.07332.00955-.03984-.07013a1.37141,1.37141,0,0,1,.18174.09087,5.418,5.418,0,0,1,.22885-.73914c.004.00082.01274-.00073.00556.00563.016-.008.03829-.00955.04466-.02392l-.02711.00637c.02155-.012.02637-.02155.04311-.02947a.221.221,0,0,1,.06376.02465.056.056,0,0,0-.02555-.05176c.00637-.00482.01919-.00882.02392-.016a.28376.28376,0,0,0,.02874.01355c-.00637-.01674.00237-.02392-.00637-.03266.01592-.01118.03111-.02792.0494-.02474l-.02866.03348a.33236.33236,0,0,0,.10524-.118l-.016.01755a1.13543,1.13543,0,0,0,.10524-.21685.432.432,0,0,0,.02711-.22485l-.02066.02392a.19525.19525,0,0,0-.01282-.05266l.05421.03829c0-.01273.00164-.03347.00319-.05739l.016.00155-.00163-.035c.02874-.03674-.02866-.05748.02392-.05429l-.01118.05429c.016-.03674.04147-.00645.07021.01274a.08374.08374,0,0,1,.02711-.0463c-.01592-.00955-.01911.00164-.03193.008-.01592-.01911-.06376-.05422-.03666-.07651.008-.04147.08451,0,.09569-.04784a3.8934,3.8934,0,0,0,.12917-.724c.0271-.00318.02229.00482.02229.00482-.00956-.0654.00318-.13553-.01274-.20248a.36467.36467,0,0,1,.07977-.02874c-.0463.01274-.02711-.37475-.01282-.37631l-.09561-.01436c.00319-.0734.1068-.01437.08924-.08614-.12753-.03348.02237-.10679-.04939-.13872a.06732.06732,0,0,1,.06221-.02874c-.075-.01273-.01437-.035-.03192-.05421-.02229-.00955-.02229.00163-.04622.00637l-.02073-.04785c.02229-.01273.067-.01592.07331-.00155a4.74236,4.74236,0,0,0,.08932-.48236c.09088.11479.19849.29017.29026.31336l.06213-.04466.07021.03665a1.19429,1.19429,0,0,1-.20893.02074,4.38545,4.38545,0,0,1,.21049.81646c-.02866.0494-.10843.03511-.10843.03511.02711.04939.067.00473.07013.05258-.00955.01274-.05576.01274-.067.00637.01592.01755-.00636.03992.02874.03666.01911-.03348.10843-.04777.15946-.0685l.00637.05894-.05585.01119c.00482.01118.1579-.00955.14517.05421a2.29294,2.29294,0,0,0,.051.29344.11043.11043,0,0,1-.08458-.02237c.00482.016.01755.03192-.00318.051.05266-.03821.04784.02556.067.00482.1499.03029.04939.15464.15945.19293l.08769-.03029a.14426.14426,0,0,1,.01118.03666c.01911.03029.01119.03829.01119.03829s.03266.051.07487.10524c-.01829.24559-.0071.78062-.01429.93125l-.008-.00955c.00163.26788-.26.81964-.20412,1.09716-.06376.035-.059.09569-.0765.13708.02548-.02229.0685-.00955.06532.008-.02229.13872.03992.01437.051.15154a1.73544,1.73544,0,0,1-.12116.75424c.08131.08132.00481.169.05421.24714l-.02074-.01273c.02392.083-.10361.51347-.08132.60916l.01274-.01274c.04784.0845-.0494.06377-.08769.12116a.1747.1747,0,0,1,.1579.10206l-.02555-.00163c.01755.04466-.18656.17382-.18019.23767l-.05258-.00964c.05258.06067.01428.16272.0191.19775-.03192.08932.10688.252.16427.37794l-.16427.05739.01437.01282s.09087.01592.22485.03748a6.81875,6.81875,0,0,0-.11961.67848l-.06221.03192c.03829.051,0,.09406.0271.15308-.008.035-.04784.01756-.06058.00156.02866.05266-.02392.11324.00956.14671l.01755-.01437c.0494.09251-.10524.12917-.05585.22167h.008c.03192.04148-.03193.08132-.0574.11161.02229.04948.07813.01119.09569.051-.067.01119-.02711.05266-.02556.09414.01282-.04311.03193-.09569.08932-.08295-.01273.05421.06058.01437.02711.07176l-.06858-.00163c-.02393.02074-.01437.07177.008.07022a.48192.48192,0,0,0,0-.051l2.93574.13871c.09087-.06858.73987.00164.87548-.075.02066.02237.01274-.05576.06377-.02074-.01919-.01437-.01119-.03984-.008-.06058a.10006.10006,0,0,1-.0765.0494c.00318-.11953.03821-.24714.03184-.36357-.01911-.0765.12124-.10361.12124-.10361h-.04947l.00163-.07177c-.15946-.0845-.02074.09569-.23441-.043.02711.00318-.21375-.12125-.20256-.14672-.01119.00637-.04784.02392-.06377.00637.00474-.05585-.3572-.10369-.32527-.17064a2.25173,2.25173,0,0,1-.49755-.23122c-.01919-.08687-.32373-.16583-.535-.24959l-.004-.02948c.03029-.03192-.03029-.05739.02237-.051l-.01282.051c.02393-.03192.051-.00481.07977.01274a.0669.0669,0,0,1,.02874-.03829c-.016-.01274-.02074.00163-.02074.00163-.02874-.01755-.075-.051-.04784-.07177.00473-.03829.08605.00637.09724-.03666.0654-.23122-.08132-.49755-.07013-.73513.02547.00163.02547.00636.02547.00636a1.3481,1.3481,0,0,0-.01119-.19774.23081.23081,0,0,1,.0814-.01592c-.04466.00636-.01118-.36039.00319-.37157l-.09732-.01274c.00637-.06858.11642-.01119.09569-.07658-.134-.03985.02073-.10525-.043-.13872a.05617.05617,0,0,1,.06213-.01911c-.07969-.02237-.01592-.03829-.03184-.05739-.02392-.00964-.02392.00318-.051.00473l-.02074-.04621c.02548-.01592.07014-.01592.0765.00637a3.40943,3.40943,0,0,0,.14991-.81483c-.05895.00792-.02393.05258-.118.05895-.04466-.04147.02392-.051-.02866-.07013.13872-.00319.03984-.0734.18019-.08769l-.07495-.01437.04785-.01118c-.06222-.16109-.03356-.04148-.00327-.16746-.00318-.08132-.10361-.12916-.06058-.16582,0,0-.0494.01592-.06377-.00482.06377.00482-.04466-.05895.02074-.06058-.00482-.02074.00955-.0845-.08295-.07177.04629-.00792.07022-.06058.10843-.02073.00163-.02229.02073-.03822,0-.0494l-.02711.01592c-.00955-.06377.15953-.19611.07813-.24714l.10688.17064c-.00163-.03984-.14672-.2233-.05585-.23122l.02392.04621a.21932.21932,0,0,0-.03821-.16264l-.008.01755c-.0845-.08132.02229-.28543-.0845-.3572l-.07177.02074-.05266-.0574c-.00473.00474.22485.04785.20093.04785a4.17307,4.17307,0,0,1,.0734-.81646c.043-.04466.11.00155.11.00155-.00792-.05421-.0574-.0271-.0494-.07176.01592-.01274.05422.00636.0654.01437-.008-.02074.01756-.03348-.016-.03666-.02547.0191-.11316-.00319-.17056.00155l.01592-.05258.05421.00637c.00156-.01119-.1499-.0463-.11005-.10206.03192-.08769.02237-.19456.04784-.28707.02874.00319.04629.02556.0654.051.00637-.01592-.00319-.035.02229-.043-.06377.01756-.03666-.04466-.06213-.03029a.1082.1082,0,0,1-.03666-.04229c.00236-.00555.00792-.01274.00636-.01829l-.00881.01511-.00319-.00319c.02156-.055.04466-.09.03593-.13l-.01919.02237c.01119-.04147.01437-.0734.03829-.08768l.00319.04457a.62351.62351,0,0,0,.00163-.16263l-.00482.02073a1.53736,1.53736,0,0,0-.04147-.18656c.00636-.01755.008-.03666-.00474-.04466l-.01118-.00155L82.216,255.522a.17768.17768,0,0,0-.01592-.043.08048.08048,0,0,1,.07976.0574c.00156-.03666.03666-.07969-.03355-.075.01755-.03511.0734-.01911.09414-.06059-.02393-.02228-.091-.04147-.06222-.07976l.00955-.00474c.0463-.08932-.12116-.083-.07331-.169l.02229.00156c.03192-.03348-.03185-.0654-.00156-.118-.00963.01273-.05266.03821-.06858.01592.03029-.06058-.016-.08614.02074-.134l-.067-.01592c-.03029-.17538-.22959-.63145-.27743-.80528l.00955.00474a7.07856,7.07856,0,0,0-.36357-1.03968c.051-.0574.02074-.11161.02556-.16109-.016.03193-.0654.03993-.067.02074-.02229-.13871-.04147,0-.10042-.13071a2.49569,2.49569,0,0,1-.15153-.901c-.1068-.0463-.06214-.16109-.13709-.2153l.02066.00155c-.0494-.07014-.07487-.52939-.1259-.61071l-.00645.01273c-.075-.06376.02556-.07813.03511-.14827a.15216.15216,0,0,1-.18338-.0431l.02074-.00156c-.02237-.03029-.12761-.1005-.15945-.15945l.05739-.01274a.1422.1422,0,0,1-.0654-.09013l.228-.0423a.07637.07637,0,0,1-.0191.05748c.04147-.01437.06058-.06385.03184-.07977l-.09087.01274c-.03348-.04784.051-.02711.03984-.0765a.08124.08124,0,0,1,.11006.06858c.00318-.03829.05739-.08777-.03029-.08777.03029-.04139.0925-.01747.12116-.0685-.02547-.02392-.09887-.05266-.06058-.09414l.01437-.00955c.06858-.09887-.12761-.10842-.0574-.20093l.02711.00163c.03829-.03992-.02074-.0814.0191-.142-.01273.01756-.067.04148-.07968.01282.04139-.07022-.01119-.10051.04457-.15309l-.0765-.02874c-.00555-.17145-.11879-.71921-.17782-1.02775l.02792-.01511a1.08112,1.08112,0,0,0,.06058.09879c-.00637.01282-.01273.01119-.01273.01119a1.58212,1.58212,0,0,0,.11161.11961.10189.10189,0,0,1-.02866.051c.02065-.02711.2073.22.20248.2264l.04948-.035c.03666.04939-.04148.06058.00636.0925.07014-.03355.043.0765.08769.0685a.02945.02945,0,0,1-.01437.03674c.04148-.01918.02874.01911.04466.02548.01756-.00637.01274-.01437.01274-.01437l.04148.008a.06467.06467,0,0,1-.02074.03829,2.88489,2.88489,0,0,0,.37475.57087c.01437-.03193-.02074-.04148.01274-.08932.03829.00318.01274.04147.04629.02392-.05421.06858.02711.06858-.02392.13872l.03984-.02229-.01755.02874c.11643.07013.03829.00792.09724.10042.04784.051.11006.03666.11643.07658,0,0,.00636-.03037.03029-.02392-.03029.02392.04466.01592.02073.051.01437.00955.0383.0574.067.00318-.01119.02548.0111.07332-.02556.06377,0,0,.00955.02866.02874.03511l-.00163-.02711c.0351.03821.02555.08769.0845.0845l.00163-.02555c.02393.02237.043.04311.00792.083l-.03029-.016a.25418.25418,0,0,0,.10524.08614l-.00955-.01593a1.24581,1.24581,0,0,1,.26233.16183,1.15712,1.15712,0,0,0-.04548.62589,10.49458,10.49458,0,0,0,.75114.885c.212.26952.45926.56132.67766.85949-.00792.03747-.02465.07577.01437.11006l.00956-.008c.0351.02555-.00155.067-.00637.0925.03192.03348.0574-.00955.08295.01282-.01437.00874.01674.01429.059.0191.02711.04385.067.08532.09087.12917.17538.30135.14354.7798.46726.9137a.585.585,0,0,0,.39068.0271,22.08212,22.08212,0,0,0,1.93908-4.50325C86.82773,249.30445,86.142,248.96162,85.87893,248.51355Zm-8.97631,7.49321a.09372.09372,0,0,1,.01992-.02474.13164.13164,0,0,1,.01037.03429Zm1.7095,1.27808-.00318.00082.00237-.00163Z" fill="#d9d9d9"/><path d="M93.11217,250.02841c-1.09389.04466-2.57053-.04148-3.70116-.03184-.40187.00473-1.4511-.04785-1.719.21366-.1499.14827-.134.80046-.19456,1.04605-.09569.34765-.31417.61079-.4226.95517-.26788.87549-.40659,1.71432-.71921,2.50841a1.37011,1.37011,0,0,0-.17538.574.39086.39086,0,0,0,.346.354c.34283.05584.62989-.07332.89777.12124l5.138-.04148a2.89092,2.89092,0,0,0,1.50694-.14034c.44015-.12754.8563.10842,1.03176-.32847.38749-.9568-1.28527-3.34241-1.58826-4.0026C93.34021,250.88953,93.26526,250.41435,93.11217,250.02841Z" fill="#d9d9d9"/></g><path d="M55.99109,99.91553h7.8291v2.05859H58.43933v2.57324h4.66308v1.90235H58.43933v4.60058H55.99109Z" fill="#982e93"/><path d="M126.11218,118.72021h7.82812v2.0586h-5.37988v2.57324h4.66309v1.90234h-4.66309V129.855h-2.44824Z" fill="#982e93"/><path d="M58.12878,217.271c-.07812-2.49512,1.34082-4.41309,3.96094-4.41309a3.47488,3.47488,0,0,1,3.74219,3.415c0,3.30664-3.50879,3.57129-5.09864,5.81738h5.16114v1.90235H57.87878c0-2.542,1.55957-3.58692,3.44629-4.88086.95215-.6709,2.293-1.32618,2.293-2.667a1.56758,1.56758,0,0,0-1.6377-1.68359c-1.30957,0-1.73047,1.35645-1.73047,2.50977Z" fill="#982e93"/><path d="M67.30163,212.85791h7.82813v2.05859H69.74987v2.57325H74.413v1.90234H69.74987v4.60059H67.30163Z" fill="#982e93"/><line x1="116.35804" y1="126.01498" x2="124.67199" y2="108.0501" fill="none" stroke="#982e93" stroke-linecap="square"/><line x1="69.89279" y1="115.9359" x2="69.89279" y2="117.4359" fill="none" stroke="#a4459f" stroke-linecap="square"/><path d="M69.89279,121.41832V168.2086a12.82143,12.82143,0,0,0,24.24963,5.81018l20.74933-44.83545" fill="none" stroke="#a4459f" stroke-linecap="square" stroke-dasharray="2.9868 3.9824"/><line x1="115.72806" y1="127.37633" x2="116.35806" y2="126.015" fill="none" stroke="#a4459f" stroke-linecap="square"/><line x1="69.89281" y1="96.17822" x2="69.89281" y2="115.93595" fill="none" stroke="#982e93" stroke-linecap="square"/><path d="M95.41882,292.15674h6.94141v1.71582H97.45984v1.98926h4.498v1.58593h-4.498v2.27539h5.00488V301.439h-7.0459Z" fill="#ff3301"/><path d="M113.7489,297.46045h-6.56543v-1.39063h6.56543Zm0,2.78223h-6.56543v-1.39063h6.56543Z"/><path d="M118.455,295.83545c-.06543-2.08008,1.11719-3.67871,3.30176-3.67871a2.89652,2.89652,0,0,1,3.12012,2.84668c0,2.75683-2.92481,2.97754-4.251,4.84961h4.30274V301.439h-6.68165c0-2.11914,1.29981-2.99023,2.87305-4.06933.793-.55859,1.91113-1.10449,1.91113-2.22266a1.30739,1.30739,0,0,0-1.36523-1.40429c-1.09277,0-1.44336,1.13086-1.44336,2.09277Z" fill="#982e93"/><path d="M126.09851,292.15674h6.52539v1.71582h-4.48438v2.14551h3.88672V297.604h-3.88672v3.835h-2.041Z" fill="#982e93"/><polygon points="77.782 305.535 77.801 285.626 70.605 285.619 82.854 273.4 95.076 285.643 87.881 285.636 87.862 305.544 77.782 305.535" fill="#ff3301"/><path d="M82.85331,274.41824,93.3384,284.92133l-6.17643-.00605-.01969,19.90854-8.64-.00845.01969-19.90863-6.17686-.006,10.5082-10.48246m.00212-2.0361-1.0191,1.01663-10.5082,10.48246L68.866,286.33728l3.47768.00342,4.73684.00464L77.06228,304.814l-.00142,1.44,1.44.0014,8.64.00845,1.44.00141.00142-1.44.01826-18.46857,4.73645.00464,3.47706.00339L94.35751,283.904,83.87242,273.40088l-1.017-1.01874Z" fill="#fff"/><line x1="83.42819" y1="207.88512" x2="83.42819" y2="206.38512" fill="none" stroke="#a4459f" stroke-linecap="square"/><line x1="83.42819" y1="201.70433" x2="83.42819" y2="187.66185" fill="none" stroke="#a4459f" stroke-linecap="square" stroke-dasharray="3.51061 4.68081"/><line x1="83.42819" y1="185.32152" x2="83.42819" y2="183.82152" fill="none" stroke="#a4459f" stroke-linecap="square"/><line x1="83.4282" y1="230.1142" x2="83.4282" y2="207.88511" fill="none" stroke="#982e93" stroke-linecap="square" stroke-width="2"/></g></g></svg>