<svg xmlns="http://www.w3.org/2000/svg" xmlns:xlink="http://www.w3.org/1999/xlink" viewBox="0 0 276.33252 181.37855"><defs><linearGradient id="linear-gradient" x1="566.16955" y1="1657.571" x2="562.32812" y2="1670.62963" gradientTransform="matrix(-0.5276, 0.51146, -0.14649, -1.84164, 697.61228, 2870.77013)" gradientUnits="userSpaceOnUse"><stop offset="0" stop-color="#fff"/><stop offset="1" stop-color="#fff" stop-opacity="0"/></linearGradient></defs><title>MAESTRO-Pe06-rapport-mouflage-1</title><g id="Calque_2" data-name="Calque 2"><g id="Calque_1-2" data-name="Calque 1"><path d="M107.23487,88.14658V57.62891A20.01254,20.01254,0,0,1,145.11866,48.624l.11474.23681,15.81517,34.173" fill="none" stroke="#99d140" stroke-linecap="square" stroke-width="2" stroke-dasharray="3 6 0 0 0 0"/><path d="M118.66257,141.97305V57.6288a8.58485,8.58485,0,0,1,16.2378-3.88845l37.84425,81.7779,4.01505-1.86915-37.8786-81.84825a13.01251,13.01251,0,0,0-24.646,5.828v84.34425Z" fill="#34b3d1" stroke="#000" stroke-linecap="round" stroke-width="0.6"/><path d="M118.71454,59.11915a8.76362,8.76362,0,1,1,7.15735,7.14893A8.77068,8.77068,0,0,1,118.71454,59.11915Z" fill="#fff" stroke="#000" stroke-miterlimit="10" stroke-width="3"/><path d="M0,73.42586H2.87305l2.17138,6.3833h.02588l2.0542-6.3833H9.99756v9.28222H8.08643V76.13H8.06055L5.78516,82.70808H4.2124L1.937,76.1949H1.91113v6.51318H0Z" fill="#99d140"/><path d="M11.51807,78.05379c.104-1.71582,1.65088-2.249,3.15918-2.249,1.33886,0,2.95117.29932,2.95117,1.91113V81.213a3.44553,3.44553,0,0,0,.23388,1.49511H15.99023a2.73585,2.73585,0,0,1-.12988-.6499,3.064,3.064,0,0,1-2.26221.832c-1.2871,0-2.28808-.63721-2.28808-2.01514.02588-3.05517,4.55029-1.417,4.47217-2.92529,0-.77978-.5459-.91015-1.19629-.91015-.71485,0-1.15674.28613-1.22168,1.01416ZM15.78223,79.419a3.67286,3.67286,0,0,1-1.53418.39014c-.57178.104-1.0918.312-1.0918.98779,0,.67627.53271.85791,1.13086.85791A1.36713,1.36713,0,0,0,15.78223,80.108Z" fill="#99d140"/><path d="M20.48828,80.524c0,.793.70166,1.13086,1.417,1.13086.52,0,1.209-.208,1.209-.85791,0-.55908-.78028-.76709-2.09326-1.04-1.07911-.24707-2.13184-.59814-2.13184-1.79394,0-1.71631,1.48193-2.15821,2.9248-2.15821,1.45606,0,2.82129.49414,2.96436,2.145H23.023c-.05176-.71484-.59766-.91015-1.26074-.91015-.416,0-1.02735.06543-1.02735.624,0,.66308,1.05323.75439,2.09326,1.00146,1.07911.24659,2.13184.63672,2.13184,1.88477,0,1.76807-1.54687,2.34033-3.06787,2.34033-1.56006,0-3.09424-.585-3.15918-2.36621Z" fill="#99d140"/><path d="M27.46875,80.524c0,.793.70215,1.13086,1.41748,1.13086.52,0,1.209-.208,1.209-.85791,0-.55908-.78027-.76709-2.09326-1.04-1.0791-.24707-2.13183-.59814-2.13183-1.79394,0-1.71631,1.48193-2.15821,2.9248-2.15821,1.45606,0,2.82129.49414,2.96436,2.145H30.00391c-.05176-.71484-.59766-.91015-1.26075-.91015-.416,0-1.02734.06543-1.02734.624,0,.66308,1.05322.75439,2.09326,1.00146,1.0791.24659,2.13233.63672,2.13233,1.88477,0,1.76807-1.54737,2.34033-3.06836,2.34033-1.56006,0-3.09424-.585-3.15918-2.36621Z" fill="#99d140"/><path d="M34.54053,79.796c.05176,1.18311.61084,1.70313,1.65088,1.70313a1.51928,1.51928,0,0,0,1.45605-.8711h1.625a3.01029,3.01029,0,0,1-3.146,2.26221,3.28276,3.28276,0,0,1-3.43212-3.53613,3.37091,3.37091,0,0,1,3.43212-3.54932c2.28809,0,3.40625,1.92432,3.26319,3.99121Zm3.00293-1.16992c-.169-.936-.57178-1.43017-1.46875-1.43017a1.44617,1.44617,0,0,0-1.53418,1.43017Z" fill="#99d140"/><path d="M50.583,78.73006H44.01758V77.33894H50.583Zm0,2.78222H44.01758V80.12117H50.583Z" fill="#99d140"/><path d="M59.90332,82.70808H58.05713V76.80574H55.769V75.41463c1.28711.03906,2.457-.416,2.665-1.80665h1.46924Z" fill="#99d140"/><path d="M65.63623,73.42586c1.82031,0,3.354,1.144,3.354,4.69287,0,3.62744-1.53369,4.77148-3.354,4.77148-1.80713,0-3.32812-1.144-3.32812-4.77148C62.30811,74.5699,63.8291,73.42586,65.63623,73.42586Zm0,7.94336c1.5083,0,1.5083-2.22315,1.5083-3.25049,0-.94873,0-3.17188-1.5083-3.17188-1.49512,0-1.48193,2.22315-1.48193,3.17188C64.1543,79.14607,64.1543,81.36922,65.63623,81.36922Z" fill="#99d140"/><path d="M72.86426,73.42586c1.82031,0,3.354,1.144,3.354,4.69287,0,3.62744-1.53369,4.77148-3.354,4.77148-1.80713,0-3.32813-1.144-3.32813-4.77148C69.53613,74.5699,71.05713,73.42586,72.86426,73.42586Zm0,7.94336c1.5083,0,1.5083-2.22315,1.5083-3.25049,0-.94873,0-3.17188-1.5083-3.17188-1.49512,0-1.48194,2.22315-1.48194,3.17188C71.38232,79.14607,71.38232,81.36922,72.86426,81.36922Z" fill="#99d140"/><path d="M80.97656,73.42586h1.84619v4.979l2.32666-2.418H87.334l-2.53515,2.47022,2.8208,4.251H85.38379L83.5376,79.70515l-.71485.689v2.314H80.97656Z" fill="#99d140"/><path d="M94.73047,82.27888c0,1.10547-.40283,2.97754-3.48389,2.97754-1.32617,0-2.86035-.6372-2.96435-2.1582h1.833a1.24147,1.24147,0,0,0,1.37842.92285c1.02686,0,1.49512-.689,1.48194-1.66406v-.88379h-.02588a2.23025,2.23025,0,0,1-2.01514,1.04c-2.02832,0-2.873-1.53418-2.873-3.38037,0-1.74219,1.01368-3.32813,2.88575-3.32813a2.10466,2.10466,0,0,1,2.00244,1.0791h.02588v-.897h1.75488Zm-1.75488-3.01611c0-1.0918-.377-2.06689-1.57325-2.06689-1.04,0-1.49511.91015-1.49511,1.91113,0,.96191.35107,2.01513,1.49511,2.01513A1.65408,1.65408,0,0,0,92.97559,79.26277Z" fill="#99d140"/><path d="M172.82764,75.14168h-2.78223V73.42586h7.60547v1.71582h-2.78223v7.5664h-2.041Z" fill="#99d140"/><path d="M178.52148,75.98689h1.75489v1.248h.02588a2.36246,2.36246,0,0,1,2.145-1.43018,1.37564,1.37564,0,0,1,.40332.06494V77.586a3.36393,3.36393,0,0,0-.66309-.06494c-1.36523,0-1.82031.96191-1.82031,2.15772v3.02929h-1.84571Z" fill="#99d140"/><path d="M183.50049,78.05379c.104-1.71582,1.65088-2.249,3.15918-2.249,1.33887,0,2.95117.29932,2.95117,1.91113V81.213a3.44536,3.44536,0,0,0,.23389,1.49511h-1.87207a2.73536,2.73536,0,0,1-.12989-.6499,3.064,3.064,0,0,1-2.2622.832c-1.28711,0-2.28809-.63721-2.28809-2.01514.02588-3.05517,4.55029-1.417,4.47217-2.92529,0-.77978-.5459-.91015-1.19629-.91015-.71484,0-1.15674.28613-1.22168,1.01416Zm4.26416,1.36523a3.67282,3.67282,0,0,1-1.53418.39014c-.57178.104-1.0918.312-1.0918.98779,0,.67627.53272.85791,1.13086.85791a1.36713,1.36713,0,0,0,1.49512-1.54688Z" fill="#99d140"/><path d="M195.61621,78.3531a1.23617,1.23617,0,0,0-1.36523-1.15722c-1.18311,0-1.57325,1.19628-1.57325,2.18408,0,.9751.37745,2.11914,1.53418,2.11914a1.40479,1.40479,0,0,0,1.46924-1.36524h1.78076a3.00361,3.00361,0,0,1-3.23681,2.75635A3.2622,3.2622,0,0,1,190.832,79.4449a3.32546,3.32546,0,0,1,3.43213-3.64014c1.58594,0,3.05518.832,3.15918,2.54834Z" fill="#99d140"/><path d="M200.8418,75.98689h1.352v1.23486h-1.352v3.32813c0,.624.15625.78027.78027.78027a2.591,2.591,0,0,0,.57178-.05224v1.44336a7.11149,7.11149,0,0,1-1.0791.06494c-1.144,0-2.11866-.24707-2.11866-1.59912V77.22175h-1.11816V75.98689h1.11816V73.97175h1.84571Z" fill="#99d140"/><path d="M204.97607,74.94685h-1.84619v-1.521h1.84619Zm-1.84619,1.04h1.84619v6.72119h-1.84619Z" fill="#99d140"/><path d="M209.69531,75.80476a3.54346,3.54346,0,1,1-3.47119,3.54932A3.3,3.3,0,0,1,209.69531,75.80476Zm0,5.69434c1.26074,0,1.6377-1.06592,1.6377-2.145s-.377-2.1582-1.6377-2.1582c-1.248,0-1.625,1.0791-1.625,2.1582S208.44727,81.4991,209.69531,81.4991Z" fill="#99d140"/><path d="M214.375,75.98689h1.75488v.936h.03907a2.36773,2.36773,0,0,1,2.05419-1.11817c1.9629,0,2.457,1.105,2.457,2.769v4.13427H218.834V78.9117c0-1.105-.312-1.65088-1.1831-1.65088-1.001,0-1.43018.55908-1.43018,1.92431v3.52295H214.375Z" fill="#99d140"/><path d="M232.18506,78.73006h-6.56543V77.33894h6.56543Zm0,2.78222h-6.56543V80.12117h6.56543Z" fill="#99d140"/><path d="M241.50537,82.70808h-1.84619V76.80574h-2.28809V75.41463c1.28711.03906,2.457-.416,2.665-1.80665h1.46924Z" fill="#99d140"/><path d="M247.23828,73.42586c1.82031,0,3.354,1.144,3.354,4.69287,0,3.62744-1.5337,4.77148-3.354,4.77148-1.80713,0-3.32812-1.144-3.32812-4.77148C243.91016,74.5699,245.43115,73.42586,247.23828,73.42586Zm0,7.94336c1.5083,0,1.5083-2.22315,1.5083-3.25049,0-.94873,0-3.17188-1.5083-3.17188-1.49512,0-1.48193,2.22315-1.48193,3.17188C245.75635,79.14607,245.75635,81.36922,247.23828,81.36922Z" fill="#99d140"/><path d="M254.46631,73.42586c1.82031,0,3.354,1.144,3.354,4.69287,0,3.62744-1.53369,4.77148-3.354,4.77148-1.80713,0-3.32813-1.144-3.32813-4.77148C251.13818,74.5699,252.65918,73.42586,254.46631,73.42586Zm0,7.94336c1.5083,0,1.5083-2.22315,1.5083-3.25049,0-.94873,0-3.17188-1.5083-3.17188-1.49512,0-1.48193,2.22315-1.48193,3.17188C252.98438,79.14607,252.98438,81.36922,254.46631,81.36922Z" fill="#99d140"/><path d="M262.57861,73.42586h1.84619v4.979l2.32715-2.418h2.1836l-2.53467,2.47022,2.8208,4.251h-2.23584l-1.84619-3.00293-.71485.689v2.314h-1.84619Z" fill="#99d140"/><path d="M276.33252,82.27888c0,1.10547-.40283,2.97754-3.48389,2.97754-1.32617,0-2.86035-.6372-2.96435-2.1582h1.83349a1.24064,1.24064,0,0,0,1.37793.92285c1.02686,0,1.49512-.689,1.48194-1.66406v-.88379h-.02588a2.23025,2.23025,0,0,1-2.01514,1.04c-2.02832,0-2.87305-1.53418-2.87305-3.38037,0-1.74219,1.01416-3.32813,2.88623-3.32813a2.1044,2.1044,0,0,1,2.002,1.0791h.02588v-.897h1.75488Zm-1.75488-3.01611c0-1.0918-.377-2.06689-1.57325-2.06689-1.04,0-1.49462.91015-1.49462,1.91113,0,.96191.35058,2.01513,1.49462,2.01513A1.65408,1.65408,0,0,0,274.57764,79.26277Z" fill="#99d140"/><rect x="151.39578" y="78.77279" width="9.49228" height="33.13712" transform="translate(-25.40426 72.73036) rotate(-24.30909)" fill="url(#linear-gradient)"/><path d="M129.70975,154.66214a13.49867,13.49867,0,1,1-13.5-13.5A13.5028,13.5028,0,0,1,129.70975,154.66214Z" fill="#686166"/><path d="M109.895,148.11809l-.00265-.00462C109.89431,148.13075,109.895,148.12871,109.895,148.11809Z" fill="#d9d9d9"/><polygon points="109.269 163.402 109.274 163.403 109.276 163.395 109.269 163.402" fill="#d9d9d9"/><path d="M112.861,148.97592c.00538.00129.00932.006.014.008h.00061Z" fill="#d9d9d9"/><path d="M123.18367,148.98653s.07708-.13022-.06375-.105a16.08783,16.08783,0,0,1-2.07571.18336c-.06117.28569-.19139.45579-.24188.7176a1.46244,1.46244,0,0,0,0,.3721.80245.80245,0,0,0,.72821.186A2.56248,2.56248,0,0,0,123.18367,148.98653Z" fill="#d9d9d9"/><path d="M119.229,152.338c.11825.09566.3508.17009.40136.34284a1.03156,1.03156,0,0,1,.01857.25514c1.02057-.101,2.22451.03457,3.21855-.10369a5.08474,5.08474,0,0,0,.80264-.13287,5.64719,5.64719,0,0,0,1.2996-2.11558c-.03191-.18337-.27243-.41061-.38006-.52621a2.623,2.623,0,0,1-.49831-.59533c.04055-.1256.07042-.24651.11294-.4066.35618-1.33022.085-2.83318-1.22523-2.71493a1.38278,1.38278,0,0,0-.87967.38938c-.06382.06376-.117.206-.19139.25379-.09566.06246-.21922.04123-.3242.09035a2.09809,2.09809,0,0,0-.65119.80666,2.02946,2.02946,0,0,0-.28434.78135c-.01333.07178-.06912.1754-.09436.25385a.97188.97188,0,0,1,.62853.02259,13.17105,13.17105,0,0,1,.804-1.40594c.44245.081,1.09228-.67113,1.41655,0a3.04616,3.04616,0,0,1-.02129,1.33947c-.04715.65248.28106.46116.495.47708a5.86986,5.86986,0,0,1-.85782,1.099,2.58536,2.58536,0,0,1-1.49364.804c-1.24381.15547-1.64782-1.15345-1.24381-2.32153-.19935.02388-.30032-.10634-.53553-.07178-.87572.13023-.88239.35611-1.33953.94219-.194.24977-.37074.50362-.5754.73747A3.86617,3.86617,0,0,0,119.229,152.338Z" fill="#d9d9d9"/><path d="M127.72841,153.96849c-.26977-.46116-1.55474-2.89033-2.02787-2.784-.24181.05313-.37469.52484-.501.73617a6.83469,6.83469,0,0,0-.64718,1.19863c-.04783.388.2578.52893.36149.75611a2.52928,2.52928,0,0,1,.2299.55682c.03055.16479-.0332.2844,0,.41061a10.222,10.222,0,0,0,1.01656,1.68367c.09967.1914.09035.38143.22595.52893.26311-.44122.61922-.79468.88368-1.24122.19929-.35346.38136-.74815.55281-1.10562.04253-.093.05185-.26439.1156-.3242C127.97954,154.34189,127.7457,154.00169,127.72841,153.96849Z" fill="#d9d9d9"/><path d="M117.98916,152.54262c-.29372-.48641-.51961-1.00731-1.23054-1.03391-.16881.34754-.66977,1.04316-1.083,1.74082-.01334-.01395-.03191-.03783-.04389-.04919.00531-.03851-.03055-.07042-.04116-.09961.00394.01994-.01864.03185-.028.01994-.05313-.07444-.01456.008-.08368-.06117a2.38439,2.38439,0,0,1-.34815-.51158c-.06913-.016-.07974-.08906-.13159-.113l.00932-.00265c-.04388-.0332-.1967-.30563-.24718-.34815l.00265.01333c-.02653-.01333-.02919-.02592-.02857-.04055a.04748.04748,0,0,1,.00068-.0166l-.002.002a.072.072,0,0,0-.002-.04055.05054.05054,0,0,1-.03585.01266l.004-.018h-.00136l.01728-.01327a2.24587,2.24587,0,0,0-.15948-.45314c.00932-.00932.01334-.00265.01334-.00265a.52658.52658,0,0,0-.07444-.10634c.00667-.01994.0279-.0279.03722-.03586-.02395.01463-.13819-.2033-.13023-.21133l-.05851.02926c-.01993-.04116.05981-.04654.0266-.07838-.0877.02123-.0266-.06647-.07178-.05715a.03783.03783,0,0,1,.0213-.0332c-.04654.01326-.01864-.01729-.03456-.02395-.01463.0053-.01062.01061-.024.01993l-.02919-.02259c.01061-.01326.03184-.02925.04381-.02129a2.46457,2.46457,0,0,0-.21261-.50628c-.02654.02259.00666.03586-.03722.07308-.04116-.00531-.0066-.03457-.04253-.02919.07315-.04525-.00394-.0545.06777-.10764l-.04783.01456.0213-.02122c-.09172-.06913-.03055-.012-.06648-.09567-.02524-.03987-.09566-.03191-.089-.06912,0,0-.01728.02524-.03457.02122.03457-.02122-.04123-.01857-.00666-.04252-.012-.01191-.02654-.04783-.07042-.01061.02129-.01994.01728-.05845.04919-.05178-.00667-.012-.00531-.0266-.01728-.028l-.00932.02129c-.02661-.03585.004-.07572-.05314-.07709l-.01728.02661c-.012-.02259-.02525-.03593.01728-.07314l.0332.016a.16313.16313,0,0,0-.07974-.07845l.00136.01333c-.07042-.016-.22323-.2033-.30032-.20867l-.03191.03592-.05048-.01068a1.21,1.21,0,0,1,.12621-.04381.82.82,0,0,1-.11159-.24317c.01062-.03987.06376-.03457.06376-.03457-.02525-.02925-.04518.004-.0545-.02395l.03721-.01326c-.008-.01062.00266-.02926-.01857-.01728-.00932.02129-.05586.03857-.08641.0598l-.01259-.03252.00334-.004.02653-.01265-.01857.00333c.004-.0066.01061-.00864.01327-.0166a.13986.13986,0,0,1-.08369-.00333l-.00667-.00334a.31755.31755,0,0,1-.01592-.05048.5135.5135,0,0,1-.01728-.06246.1733.1733,0,0,0-.03191-.06511.06632.06632,0,0,1,.02789.00136l.008-.02259c-.02654.02653-.03055-.016-.03988.00395l-.00925-.00395s-.00667-.00531-.004-.01068l-.00266.008-.008-.00266c.00531-.00265-.02259-.0266-.016-.03191-.0119-.01326-.0332-.04783-.03449-.0266,0,0-.01864-.04252.00129-.0279a.10929.10929,0,0,1-.01592-.02122l-.00136.00925c-.02653-.02919-.03456-.05314-.06375-.06511l.0066.01463c-.01463-.01729-.03586-.02525-.03457-.04253l.028.01062a.30912.30912,0,0,0-.07906-.04382l-.016-.004a.58643.58643,0,0,1-.04055-.06109c.00932-.09437-.64711.0598-.73216-.04518l-.06511-.07443-.24984.03919a.66792.66792,0,0,1-.01993-.27706c-.04518-.01728-.01865-.05579-.05314-.07443l.01456.00136a.4811.4811,0,0,1-.02055-.14887,1.38237,1.38237,0,0,0,.35012-.24051,2.11556,2.11556,0,0,0,.44389-.61c.04783-.06376.05313.01462.05844.01728.02395-.10233-.01857-.05715.01327-.13819.01333-.01993.02395.01327.02259.02926.00932-.03858.03061-.06647.01728-.0758-.0279.04253-.05715.004-.09036.00933a.707.707,0,0,0,.03457-.10233l.02395.01592a1.21444,1.21444,0,0,1,.0053-.30032,1.20224,1.20224,0,0,0-.00265-.44647c.01327,0,.02919.03851.04252.07974,0-.0279-.012-.06647,0-.08906-.02129.04783-.02925-.07838-.03456-.04253a4.50953,4.50953,0,0,0-.31631-.3721,1.57336,1.57336,0,0,0-.27242.05185.77993.77993,0,0,0-.05709-.15948c.19663-.11825.38136-.24984.37074-.42789l.02259-.01191-.03722-.05185c-.03456-.07178-.081-.07708-.0598-.08906l.06511.08376c-.03987-.06648.00265-.03327.0279-.01865a.41475.41475,0,0,1-.04117-.07974c-.01864-.008-.00136.01463,0,.03062a.52076.52076,0,0,1-.109-.10233c-.0545-.0598.02524-.03456-.03586-.10764a1.75613,1.75613,0,0,0-1.25047-.63391c-.01062-.012.00129-.01061.01728-.01592a1.57293,1.57293,0,0,0-.396.04647.14966.14966,0,0,1-.06117-.02919c.01061.0066-.16343.04913-.32822.13554a2.0071,2.0071,0,0,0-.31358.18737l.01456.05579c-.10764.08376-.06641-.02524-.15547.07042.00265.0877-.15282.15819-.15812.21929,0,0-.04518.04518-.05715.0279.01864.04252-.03321.06382-.05049.10233-.00136.01728.01592-.0013.0332-.004-.01592.028-.02258.0545-.04252.08777-.02259.02259-.04647.02123-.03191-.01864a2.02791,2.02791,0,0,0-.291.81727,2.15684,2.15684,0,0,0,.08906.9209c.01728-.03987-.02789-.1209.012-.16343.03585.06641.01721.10764.05048.13023-.05184.05048.03457.16206,0,.23915l.04253.008-.00667.04525c.18336.279.15948.00394.30433.26439.101.13826.198.13955.24181.22194-.004-.01326-.01592-.05579.0213-.02925-.01865.02925.04783.0532.04116.09437a.33033.33033,0,0,1,.03592.14682c.00728.03722.08172.11029.02259.08308.02919.02524.05715.05715.08369.0611l-.03722-.04117c.109.07838.16084.14615.24984.15016l-.03055-.04388c.06246.04252.1209.06511.13689.11832l-.0811-.0213a.84605.84605,0,0,0,.21793.07042.06539.06539,0,0,0,.01068.02524.11046.11046,0,0,1-.03858.01728c.02259-.0066.04783.11962.04123.12363l.04647-.00667c.00266.02524-.05177.01463-.03721.03722.07048-.004-.00266.03586.03721.03586-.0066.00265-.0066.01333-.02653.016.03721-.004.01061.01191.01857.01592.01062.00137.012-.00265.02395-.008l.01858.01327a.3223.3223,0,0,1-.03722.016.71238.71238,0,0,0,.01864.279c.02654-.00667.00266-.01729.04647-.02926.0279.00537-.00394.016.01994.01728-.04314.01-.04117.01994-.04981.03123a2.3876,2.3876,0,0,0-.52825.21731l-.05184.008.00932.02926c-.02524.04252.03858.04783-.01463.05579l.004-.05184c-.01463.04123-.04123.01728-.07573.01061a.06965.06965,0,0,1-.028.04919c.02265.004.02395-.008.03857-.01728.01994.01728.07042.03191.04784.06246-.00137.03858-.08641.01994-.08771.06913l-.002.0166-.02061.00993-.04654-.03585a.07323.07323,0,0,1,.01864-.02259c-.01334-.01062-.03722.004-.03592.02524l.03721.03055c-.0119.03858-.03055-.01191-.04647.01864-.03456-.02395-.01864-.05586-.0053-.07845-.0213.01728-.05716.01994-.03062.05056-.0279.01061-.03722-.03191-.06511-.01994-.004.02259.00932.06375-.02389.06777l-.008-.00667c-.04517.01463-.028.05844-.03721.09437-.01865.01728-.01463-.00667-.03191.01728h-.00531v-.00667c-.0266,0-.02926.04783-.06511.0545l.01993.004a.08919.08919,0,0,1-.016.03592c-.01592.01592-.02388.03586-.05313.03851l.01061.04388c-.08634.093-.18336.26311-.26045.36673l.00136-.008a6.6579,6.6579,0,0,0-.45844.65915c-.04525.00266-.06647.03715-.09437.05443.02123-.00394.04116.01865.02524.03062-.06246.07437.01994.02388-.03055.10893a2.28609,2.28609,0,0,1-.45184.485c.008.07573-.07042.10369-.07573.16609l-.008-.01191c-.01993.05715-.26711.28038-.29637.34414l.012-.0013c-.0053.06641-.05048.02259-.093.04253a.11974.11974,0,0,1,.03721.11825l-.012-.01327a.66614.66614,0,0,1-.03456.15941l-.02259-.02388c.004.05579-.05579.10362-.07444.12757-.05313.03987-.15948.07974-.18207.17677l-.11423-.01994.0053.01456s.03851.03327.10233.08376l-.008.01592-.00537-.008a.60561.60561,0,0,0-.02388.12893l-.012.01456a.51937.51937,0,0,0,.00136.12492.607.607,0,0,0,.02654.12492l.01463.00265c.01728.04252-.01593.01728.00666.05981.0279.008.03321.06184.04913.07443a1.34257,1.34257,0,0,0-.02259.30433c-.01062.004-.01191-.00136-.01191-.00136.00925.03593.0066.06913.01858.10369a.05913.05913,0,0,1-.03987.02259c.02394-.0053.03585.20194.02925.20194l.05185-.00129c0,.03721-.05852.01728-.04253.05184.06906.008-.004.0611.03184.07307a.03455.03455,0,0,1-.02789.01729c.03586.00265.00932.01592.01993.02653l.0213-.008.01327.0266-.02926.01327a1.52679,1.52679,0,0,0-.01327.4545c.02123-.00932.00266-.03191.04783-.04518.0279.01857-.00666.0332.01729.03722-.06246.0119-.00932.04252-.07838.06246h.03715l-.02259.01721c.04653.07709.01993.01333.01462.09042.00933.04253.06117.05845.04518.0824,0,0,.01864-.012.02926-.00137-.02926.00137.02395.02661-.00932.03457.0053.00932.00265.04912.04783.03055-.02259.0053-.02919.03987-.04913.01857-.00136.01463-.0053.0266.0013.03722l.016-.01592c.00394.0332-.02525.05579.01462.07443l.01593-.01463c.00394.02259.00932.03987-.03722.05049l-.01327-.01994a.14617.14617,0,0,0,.03456.0877v-.01061c.04784.03191.089.22854.14744.25916l.03327-.01994.03055.02654-.10362-.008a2.96811,2.96811,0,0,1,.03184.4598c-.01728.02653-.05579.0066-.06375.01061.01463.02524.03851.00531.03722.03055-.004.00932-.0279,0-.0279,0-.00136.012-.008.02395.00395.01994.01327-.01592.0545-.01327.08375-.02123l-.00265.03184-.0266.00272s.07572.00926.0598.04518a1.16571,1.16571,0,0,0,0,.16744.051.051,0,0,1-.03592-.02129s.00272.01857-.00925.01993c.02789-.012.02258.02259.02258.02259.07974.0213.01994.081.06641.11294l.099-.00265c-.06443.15349-.1707.4153-.20261.52627l-.04518.01191c.01592.03327-.01327.05321-.004.09573-.01062.01592-.03321.00265-.03586-.008.008.03722-.03191.06117-.01592.0877l.01327-.00129c.01592.0611-.0824.05981-.06648.12621h.00667c.01327.03191-.03191.04389-.04783.05851.00265.03457.04116.01994.04912.04647-.04252-.00394.19541.17275.19139.19534.012-.02388.03055-.05048.06376-.03449-.01456.02919.30038.11954.27378.15145l.09968-.0066c-.01728.008-.01994.04116,0,.04783-.00667-.004-.00136-.01993.00129-.03592l.62459.09838c.06511-.02926.02395-.12226.11431-.14485.01061.01728.01592-.03191.0385-.004-.0053-.01326.00137-.02388.00266-.03851-.01728.01327-.0279.02259-.04919.01858a1.97414,1.97414,0,0,0,.07048-.21793c-.00136-.04783.089-.04116.089-.04116l-.03191-.00932.012-.04389c.0279.0213.07974.03191.08907.05185.01857.004.008-.012.008-.02524l-.0279-.004c.00667-.0332.09968-.10764.12621-.1422,0,0-.04912.01068-.06375-.02653.00333-.07838-.27841-.58336-.319-.7555l.02258-.00061c.00137.01061.00137.02388-.0066.02653a.0267.0267,0,0,0,.01327-.04116l-.03191.00463-.00129-.004c-.002-.012.01925-.00735.01728-.02728.03055-.008.0345.01592.03851.03857.004-.01993.02259-.03857-.008-.04653.01061-.01463.03586-.00266.04919-.024-.01068-.01327-.04123-.02919-.02265-.04518l.00272-.00265c.03184-.04253-.04919-.05716-.016-.101l.00932.00394c.01592-.01456-.00667-.0398.01061-.06375,0,0-.03055.01463-.03191,0,.01865-.02789-.00394-.04388.0213-.06647l-.03456-.01858c.00136-.09436-.05845-.47443-.06913-.56873l.008.00266a4.48087,4.48087,0,0,0-.0824-.5967c.0279-.0266.02123-.0598.02525-.08505-.012.01865-.03321.01327-.03191.00136.004-.07443-.01994-.00136-.03321-.07708a1.417,1.417,0,0,1,.00531-.50233c-.04919-.03722-.01864-.09035-.04252-.13158l.0053.00265c-.01592-.03851.01327-.29365-.0053-.33747l-.004.00265c-.02919-.03987.01728-.03987.03062-.07443a.078.078,0,0,1-.08376-.04123l.00933.00136a.24716.24716,0,0,0-.02926-.0498,2.22569,2.22569,0,0,0,.3508-.33822c.016.008.01069.01061.01334.01857.01993-.05048.05314-.085.07573-.13288a.30024.30024,0,0,1,.05184.01728c-.02926-.012.14349-.22724.15281-.22459l-.04388-.04116c.02926-.04123.06382.03456.07974-.01062-.05314-.07178.06117-.05715.03722-.09967a.03636.03636,0,0,1,.03987.0066c-.03191-.03586.00667-.02524.0053-.04382-.004-.01333-.00932-.00667-.02524-.01463l.00932-.03851c.01994.00266.04382.01858.03851.0345a3.36288,3.36288,0,0,0,.42123-.44783c-.03586-.01463-.03715.0213-.0877-.00265-.008-.04117.03061-.02259.01333-.05178.07308.04382.05049-.03592.13152.008l-.03055-.03592.02926.00666c.01463-.05912.01463-.06647.01925-.06844a.61558.61558,0,0,0,.01531.10035c.05579-.0332.01592-.06245.101-.093.05314.02388-.01327.05048.04252.05579-.13288.04116-.02524.081-.15546.13424l.07443-.00667-.04525.02926c.08907.13553.03987.02653.03593.16077.01857.07974.12492.09035.089.1422,0,0,.04654-.03191.06784-.016-.06784.016.05048.03987-.012.06511.008.01729.008.08376.09165.03987-.04252.02259-.05579.0824-.09961.05586-.00136.02123-.00932.04382.01062.05178l.02258-.03055c.01729.06117-.05048.11029.03722.13689l.03456-.03191c.00926.03457.01858.07042-.06912.10369l-.03457-.03721a.20355.20355,0,0,0,.07178.14349v-.01728c.09567.04919.20466.388.31625.42394l.06776-.03721.06117.04116c0-.00932-.2246.01994-.20065.00932a4.43143,4.43143,0,0,1,.08634.81326.11506.11506,0,0,1-.11029.03191c.01858.04647.06648.008.06246.0545-.012.01592-.05715.00925-.05715.00925s-.02388.03457.01327.02926c.02129-.0266.10763-.03456.16213-.05844l-.00129.05844-.05586.01061c0,.01062.15152.00266.12757.06117a.4168.4168,0,0,0,.002.06375l-.1854-.008c.00265-.01592.008-.03191.01728-.03585a.03588.03588,0,0,0-.02925.05177l.0598.008c.01864.03715-.03586.0066-.0332.04518-.04919,0-.05579-.03722-.06117-.06913-.008.03055-.04252.0545.00932.06913-.02259.02388-.0611-.00538-.08368.02388.01462.02395.05579.05851.02918.08239l-.0119-.00129c-.05185.05845.07171.10362.01857.15941l-.01728-.01061c-.03055.01864.00265.06246-.02789.101.008-.01191.04653-.01994.05048.004-.0332.04389-.00265.07573-.04518.101l.04654.03327c-.016.14751.02388.58738.02259.73618l-.008-.00667a7.2277,7.2277,0,0,0,.081.94886c-.05184.03184-.04252.08239-.05844.11954.02122-.02123.05048-.008.04912.00667-.00925.117.03055.00932.04919.12757a2.35075,2.35075,0,0,1-.101.776c.06641.06913.00926.14622.04913.21133l-.01728-.008c.02394.07307-.07042.45443-.04518.53417l.008-.01062c.03987.07042-.03715.05845-.06246.11029a.11853.11853,0,0,1,.12226.08376l-.01857-.00136a.87156.87156,0,0,1,.08369.17275l-.04518-.00531c.00932.00993.00667.024.01068.03586-.01932.008-.04123.01932-.03456.03191l.05048.02061-.00068.02062c-.01259-.00068-.02789-.004-.03252.01857-.05321-.01592-.05055-.05314-.0479-.085-.01327.02661-.05708.03851-.00531.06913-.02789.01858-.06246-.02395-.0943.00129.00926.02525.05049.06777.01191.0824l-.00925-.00531c-.06913.04253.06906.02259,0,.05981l-.01334-.01327c-.03586.00925-.008.06239-.05178.08369.01463-.004.05443-.00136.05314.01993-.04388.02926-.02395.06777-.07042.08369l.04117.03987c-.05716.13955-.16479.69637-.2033.83456l-.00667-.00531c-.04252.21792-.35611.61921-.35877.85844-.05851.01592-.06246.06511-.0877.09566.02388-.01191.05715.00932.05049.02129-.03851.10363.03191.01592.01728.13288a1.49114,1.49114,0,0,1-.23521.59c.05185.07709-.02524.13417.00129.21l-.01592-.01334c.00531.06913-.1754.40136-.1754.47974l.01592-.004c.02524.07437-.05178.04116-.09035.085a.1329.1329,0,0,1,.10634.11029l-.016-.008c.00265.03585-.18472.10491-.18867.16343l-.04518-.01865c.03191.05586-.01462.13159-.01864.1635-.04252.06375.03858.22058.06647.33488l-.14485.01858.01062.01463s.20268.08239.46708.18l-.19595-.03184c-.03123.18-.17547.8166-.18609.984l-.05177.02653c.03449.04123-.00136.07178.02258.12227-.008.02524-.04388.01061-.04919-.004.02525.04654-.01864.08641.004.11567l.016-.008c.04518.07709-.08641.09573-.04123.17411h.00537c.0279.0332-.0266.05981-.04252.08239.01592.04117.05708.01327.077.04518-.05443.008-.02524.04123-.02259.07974.012-.03721.0266-.07572.07178-.06912-.00932.04653.05048.01728.0266.05851l-.06116-.00531c-.01593.01722-.008.0611.008.06246l.00265-.04252,1.7249.10893c.07838-.05049,1.4684.04252,1.58135-.01327.016.02123.00666-.04389.05184-.01334-.02129-.0119-.01061-.03184-.00932-.04252-.01728.016-.03722.03592-.0598.03456.00265-.09831-.19-.33488-.198-.43184-.01728-.05715.10233-.06116.101-.07443l-.04252-.004-.79333-.25181c.02525.002.01334-.01728.0213-.03654-.01327.00667-.04518.01728-.05314.00265-.00136-.04653.0345-.00932.05049-.0598,0,0-.05981.0266-.0877-.01592-.014-.0824-.38871-.31032-.57676-.46913.00469-.0053.00666-.01326.016-.01462-.01333-.01191-.016-.0013-.028-.00266-.01191-.01728-.04116-.05443-.01728-.0664.01068-.02661.06913.02123.085-.012.097-.17676.02531-.41857.07443-.60731.01864.00136.01728.00531.01728.00531a1.58861,1.58861,0,0,0,.03055-.16207.39112.39112,0,0,1,.06913,0c-.03851-.00272.05579-.299.06776-.30038l-.07974-.0279c.016-.05715.093.00932.09437-.04116-.105-.06117.03987-.085-.01327-.12227a.05157.05157,0,0,1,.05178-.01061c-.05715-.02524-.00394-.03055-.0119-.04783-.01463-.01334-.0213-.00266-.03988-.00266l-.008-.04123c.02129-.01327.06116-.004.0598.01463a3.01747,3.01747,0,0,0,.26583-.64051c-.05185,0-.03191.04252-.105.02926-.02925-.03858.02919-.03457-.008-.06382.109.0266.04252-.0492.15553-.03055l-.05851-.0279.04123-.00265c-.0213-.13826-.01864-.03722.02919-.13955.012-.06246-.0611-.12226-.01858-.14084,0,0-.04517.00266-.05579-.01864.05579.01864-.024-.0545.03184-.04518.00136-.01857.02395-.06647-.05715-.07307.03858.004.06913-.0332.09172.00129.00932-.01463.0266-.02524.01061-.04116l-.02388.01061c.00395-.0545.16213-.13288.10893-.186l.0532.15941c.008-.0332-.07844-.21262-.0053-.19663l.01456.03851a.20217.20217,0,0,0-.00395-.13955l-.008.01463c-.0532-.07838.06906-.23119-.00537-.31093l-.0611.008-.0332-.05845a1.14362,1.14362,0,0,1,.15145.07573,4.51344,4.51344,0,0,1,.19071-.616c.00333.00068.01061-.00061.00463.00469.01333-.00666.03191-.008.03721-.01993l-.02259.00531c.018-.01.022-.018.03593-.02457a.1845.1845,0,0,1,.05314.02055.04669.04669,0,0,0-.0213-.04313c.00531-.004.016-.00735.01994-.01334a.23489.23489,0,0,0,.02394.01129c-.0053-.01394.002-.01993-.0053-.02721.01327-.00932.02592-.02327.04116-.02062l-.02388.0279a.27708.27708,0,0,0,.0877-.09832l-.01333.01463a.94667.94667,0,0,0,.0877-.18071.36.36,0,0,0,.02259-.18737l-.01722.01993a.1626.1626,0,0,0-.01068-.04388l.04518.03191c0-.01062.00136-.0279.00265-.04784l.01334.0013-.00136-.02919c.02394-.03062-.02389-.0479.01993-.04525l-.00932.04525c.01333-.03062.03456-.00538.05851.01061a.06974.06974,0,0,1,.02259-.03857c-.01327-.008-.01592.00136-.0266.00666-.01327-.01592-.05314-.04517-.03055-.06375.00667-.03456.07042,0,.07974-.03987a3.2453,3.2453,0,0,0,.10764-.60336c.02258-.00266.01857.004.01857.004-.008-.0545.00265-.11294-.01061-.16873a.30344.30344,0,0,1,.06647-.024c-.03858.01061-.02259-.3123-.01068-.31359l-.07968-.012c.00266-.06117.089-.012.07437-.07178-.10628-.0279.01864-.089-.04116-.1156a.0561.0561,0,0,1,.05184-.024c-.06246-.01061-.012-.02919-.0266-.04518-.01857-.008-.01857.00136-.03851.00531l-.01728-.03987c.01857-.01062.05579-.01327.0611-.00129a3.95632,3.95632,0,0,0,.07443-.402c.07573.09566.1654.2418.24188.26113l.05177-.03722.05852.03055a.9948.9948,0,0,1-.17411.01728,3.65461,3.65461,0,0,1,.1754.68038c-.02388.04117-.09036.02926-.09036.02926.02259.04116.0558.004.05845.04382-.008.01061-.04647.01061-.05579.0053.01326.01463-.00531.03327.024.03055.01592-.02789.09035-.0398.13288-.05708l.0053.04912-.04654.00932c.004.00932.13159-.008.121.04518a1.91158,1.91158,0,0,0,.04252.24453.092.092,0,0,1-.07049-.01864c.004.01333.01463.0266-.00265.04252.04388-.03184.03987.0213.05586.004.12492.02525.04116.12887.13288.16078l.07307-.02524a.12007.12007,0,0,1,.00932.03055c.01592.02524.00932.03191.00932.03191s.02722.04252.06239.0877c-.01524.20466-.00592.65051-.0119.776l-.00667-.008c.00136.22323-.21663.683-.1701.9143-.05313.02919-.04919.07974-.06375.11423.02123-.01857.05709-.008.05443.00667-.01857.1156.03327.012.04253.12628a1.44621,1.44621,0,0,1-.101.62854c.06776.06776.004.14084.04517.206l-.01728-.01062c.01994.06913-.08634.4279-.06776.50764l.01061-.01062c.03987.07042-.04116.05314-.07307.101a.14557.14557,0,0,1,.13158.085l-.02129-.00136c.01463.03722-.15547.14485-.15016.19806l-.04382-.008c.04382.05055.01191.1356.01592.16479-.0266.07443.08906.21.13689.31495l-.13689.04783.012.01068s.07572.01327.18737.03123a5.68325,5.68325,0,0,0-.09967.5654l-.05185.0266c.03191.04252,0,.07838.02259.12757-.00667.02919-.03987.01463-.05048.00129.02388.04389-.01994.09437.008.12227l.01463-.012c.04116.07709-.08771.10764-.04654.18473h.00667c.0266.03456-.02661.06776-.04784.093.01858.04123.06512.00932.07975.04252-.05586.00932-.02259.04388-.0213.07845.01068-.03593.0266-.07974.07443-.06913-.01061.04518.05049.012.02259.05981l-.05715-.00136c-.01994.01728-.012.0598.00667.05851a.4022.4022,0,0,0,0-.04253l2.44645.1156c.07572-.05715.61656.00136.72957-.06246.01721.01864.01061-.04647.05314-.01728-.016-.012-.00932-.0332-.00667-.05048a.08339.08339,0,0,1-.06375.04116c.00265-.09961.03184-.206.02653-.303-.01592-.06375.101-.08634.101-.08634h-.04123l.00136-.0598c-.13288-.07042-.01728.07974-.19534-.03586.02259.00266-.17812-.101-.1688-.12226-.00932.00531-.03987.01993-.05314.00531.00395-.04654-.29767-.08641-.27106-.1422a1.876,1.876,0,0,1-.41463-.19269c-.016-.07239-.26977-.13818-.44585-.208l-.00334-.02456c.02525-.02661-.02524-.04783.01865-.04253l-.01069.04253c.01994-.02661.04253-.004.06648.01061a.05573.05573,0,0,1,.02395-.03191c-.01334-.01061-.01728.00136-.01728.00136-.02395-.01463-.06246-.04252-.03987-.0598.00394-.03191.07171.0053.081-.03055.0545-.19269-.06777-.41463-.05845-.61262.02123.00136.02123.00531.02123.00531a1.124,1.124,0,0,0-.00932-.16479.19254.19254,0,0,1,.06783-.01327c-.03721.00531-.00932-.30032.00266-.30964l-.0811-.01061c.0053-.05716.097-.00932.07974-.06382-.11165-.03321.01728-.0877-.03586-.1156a.04682.04682,0,0,1,.05178-.01592c-.06641-.01864-.01327-.03191-.02654-.04783-.01993-.008-.01993.00265-.04252.00394l-.01728-.03851c.02123-.01326.05844-.01326.06375.00531a2.84154,2.84154,0,0,0,.12492-.679c-.04913.0066-.01994.04382-.09832.04912-.03721-.03456.01994-.04252-.02388-.05844.1156-.00265.0332-.06117.15016-.07307l-.06246-.012.03987-.00932c-.05184-.13424-.028-.03456-.00272-.13955-.00265-.06776-.08634-.10763-.05048-.13818,0,0-.04117.01327-.05314-.004.05314.004-.03722-.04912.01728-.05048-.004-.01728.008-.07042-.06913-.05981.03858-.0066.05852-.05048.09036-.01728.00136-.01857.01728-.03184,0-.04116l-.02259.01327c-.008-.05314.133-.16343.06511-.206l.08906.1422c-.00136-.03321-.12226-.18609-.04653-.19269l.01993.03851a.18278.18278,0,0,0-.03184-.13553l-.00667.01463c-.07042-.06777.01858-.23786-.07042-.29767l-.0598.01728-.04389-.04783c-.00394.004.18738.03987.16744.03987a3.478,3.478,0,0,1,.06117-.68038c.03586-.03722.09165.00129.09165.00129-.0066-.04518-.04783-.02259-.04116-.0598.01326-.01062.04517.0053.05449.012-.00666-.01728.01463-.02789-.01333-.03055-.02123.01592-.0943-.00265-.14213.00129l.01326-.04381.04518.0053c.00129-.00932-.12492-.03857-.09171-.085.0266-.07308.01864-.16214.03987-.23923.02395.00266.03857.0213.05449.04253.00531-.01327-.00265-.02919.01858-.03586-.05314.01463-.03055-.03721-.05178-.02524a.09026.09026,0,0,1-.03055-.03524c.002-.00463.0066-.01062.00531-.01524l-.00735.01258-.00265-.00265c.018-.04586.03722-.07505.02994-.10832l-.016.01865c.00932-.03457.012-.06117.03191-.07308l.00265.03715a.5192.5192,0,0,0,.00136-.13553l-.004.01728a1.28138,1.28138,0,0,0-.03457-.15547c.00531-.01462.00667-.03055-.00394-.03721l-.00932-.0013-.004-.008a.14783.14783,0,0,0-.01327-.03586.06709.06709,0,0,1,.06648.04783c.00129-.03055.03055-.0664-.028-.06246.01463-.02926.06117-.01592.07845-.05048-.01993-.01858-.07579-.03457-.05184-.06648l.008-.00394c.03857-.07444-.101-.06913-.0611-.14084l.01857.00129c.02661-.02789-.02653-.0545-.00129-.09831-.008.01061-.04388.03184-.05715.01326.02524-.05048-.01334-.07178.01728-.11165l-.05586-.01326c-.02524-.14615-.19132-.52621-.23119-.67107l.008.004a5.89948,5.89948,0,0,0-.303-.8664c.04253-.04783.01728-.093.0213-.13424-.01334.02661-.0545.03327-.05586.01729-.01857-.1156-.03456,0-.08369-.10893a2.07994,2.07994,0,0,1-.12628-.75081c-.089-.03857-.05177-.13423-.11423-.17941l.01721.00129c-.04116-.05844-.06239-.44116-.10491-.50892l-.00538.01061c-.06246-.05314.0213-.06511.02926-.12356a.12679.12679,0,0,1-.15282-.03592l.01729-.0013c-.01865-.02524-.10635-.08375-.13288-.13287l.04783-.01062a.11846.11846,0,0,1-.0545-.07511l.19-.03525a.0636.0636,0,0,1-.01592.0479c.03456-.012.05048-.0532.02653-.06647l-.07572.01061c-.0279-.03987.04252-.02258.0332-.06375a.06771.06771,0,0,1,.09172.05715c.00265-.03191.04783-.07314-.02525-.07314.02525-.03449.07709-.01456.101-.05708-.02123-.01994-.08239-.04389-.05048-.07845l.012-.008c.05715-.08239-.10634-.09035-.04783-.16744l.02259.00136c.03191-.03327-.01728-.06783.01592-.11832-.01061.01463-.05579.03456-.0664.01068.03449-.05851-.00933-.08375.03714-.12757l-.06375-.02395c-.00462-.14288-.099-.59935-.14818-.85646l.02327-.01259a.89861.89861,0,0,0,.05048.08233c-.00531.01068-.01061.00932-.01061.00932a1.318,1.318,0,0,0,.093.09967.08483.08483,0,0,1-.02388.04253c.01722-.02259.17275.18336.16874.18867l.04123-.02919c.03055.04116-.03457.05048.00531.07709.05844-.028.03585.06375.07307.05708a.02455.02455,0,0,1-.012.03062c.03457-.016.02395.01592.03722.02123.01463-.00531.01061-.012.01061-.012l.03457.00667a.05392.05392,0,0,1-.01728.03191,2.40371,2.40371,0,0,0,.31229.47572c.012-.0266-.01728-.03456.01062-.07443.0319.00265.01061.03456.03857.01993-.04517.05715.02259.05715-.01993.1156l.0332-.01857-.01463.02394c.097.05845.03191.0066.081.08369.03987.04253.09171.03055.097.06382,0,0,.0053-.02531.02524-.01993-.02524.01993.03722.01326.01728.04252.012.008.03191.04783.05586.00265-.00932.02123.00925.0611-.02129.05314,0,0,.008.02388.02394.02926l-.00136-.02259c.02926.03184.0213.07307.07042.07042l.00136-.0213c.01994.01865.03586.03593.0066.06913l-.02524-.01334a.21168.21168,0,0,0,.0877.07178l-.008-.01326a1.03729,1.03729,0,0,1,.21861.13485.96422.96422,0,0,0-.0379.52158,8.74425,8.74425,0,0,0,.626.73753c.1767.2246.38272.46777.56472.71624-.0066.03123-.02055.06314.012.09172l.008-.00667c.02925.02129-.0013.05586-.00531.07709.0266.02789.04783-.008.06913.01068-.012.00728.01394.0119.04919.01592.02259.03654.05579.0711.07572.10764.14615.25112.11961.64983.38939.76141a.48755.48755,0,0,0,.32556.02259,18.4022,18.4022,0,0,0,1.61591-3.75271C118.77983,153.2017,118.20838,152.916,117.98916,152.54262ZM110.5089,158.787a.07826.07826,0,0,1,.0166-.02062.10953.10953,0,0,1,.00864.02858Zm1.42459,1.06507-.00266.00068.002-.00136Z" fill="#d9d9d9"/><path d="M124.01686,153.805c-.91157.03721-2.14211-.03457-3.0843-.02654-.33489.004-1.20925-.03987-1.43248.17806-.12492.12355-.11165.667-.16214.8717-.07974.28971-.26181.509-.35216.796-.22323.72957-.33883,1.4286-.59935,2.09034a1.14165,1.14165,0,0,0-.14614.47837.3257.3257,0,0,0,.28834.295c.28569.04654.52492-.0611.74815.101l4.28164-.03457a2.40913,2.40913,0,0,0,1.25578-.117c.3668-.10627.71359.09036.8598-.27371.32291-.79734-1.07106-2.78535-1.32355-3.33551C124.20689,154.5226,124.14443,154.12661,124.01686,153.805Z" fill="#d9d9d9"/><rect x="96.53589" y="166.70555" width="39.35038" height="14.17301" rx="3.52672" fill="#d9d9d9" stroke="#595959" stroke-miterlimit="10"/><path d="M103.94238,177.41267H102.439v-4.80761H100.5752v-1.13331c1.04834.03174,2.00146-.33886,2.17089-1.47168h1.19629Z" fill="#252525"/><path d="M107.76855,169.85164c1.48291,0,2.73243.93213,2.73243,3.82275,0,2.95459-1.24952,3.88672-2.73243,3.88672-1.47167,0-2.71093-.93213-2.71093-3.88672C105.05762,170.78377,106.29688,169.85164,107.76855,169.85164Zm0,6.47021c1.22852,0,1.22852-1.81054,1.22852-2.64746,0-.77295,0-2.5835-1.22852-2.5835-1.21777,0-1.207,1.81055-1.207,2.5835C106.56152,174.51131,106.56152,176.32185,107.76855,176.32185Z" fill="#252525"/><path d="M113.87207,169.85164c1.48291,0,2.73242.93213,2.73242,3.82275,0,2.95459-1.24951,3.88672-2.73242,3.88672-1.47168,0-2.71094-.93213-2.71094-3.88672C111.16113,170.78377,112.40039,169.85164,113.87207,169.85164Zm0,6.47021c1.22852,0,1.22852-1.81054,1.22852-2.64746,0-.77295,0-2.5835-1.22852-2.5835-1.21777,0-1.207,1.81055-1.207,2.5835C112.665,174.51131,112.665,176.32185,113.87207,176.32185Z" fill="#252525"/><path d="M120.93066,169.85164h1.6626v3.13476l2.95459-3.13476h2.07569L124.669,172.838l3.24023,4.5747h-2.08594l-2.27685-3.39941-.95313.96387v2.43554h-1.6626Z" fill="#252525"/><path d="M133.26172,177.06306c0,.90039-.32813,2.4253-2.83789,2.4253-1.08057,0-2.33008-.519-2.41455-1.75782h1.49316a1.01081,1.01081,0,0,0,1.12256.75147c.83643,0,1.21777-.561,1.207-1.35547v-.71973h-.021a1.81654,1.81654,0,0,1-1.64161.84717c-1.65185,0-2.34033-1.24951-2.34033-2.75342a2.45189,2.45189,0,0,1,2.35108-2.71093,1.7138,1.7138,0,0,1,1.63086.8789h.021v-.73047h1.42969Zm-1.42969-2.45654c0-.88965-.30713-1.68359-1.28125-1.68359-.84717,0-1.21777.74121-1.21777,1.55664,0,.7832.28564,1.64111,1.21777,1.64111A1.34723,1.34723,0,0,0,131.832,174.60652Z" fill="#252525"/><path d="M181.12011,141.16214A13.50613,13.50613,0,0,0,167.763,152.69969c.35667-.0094.74417-.02149.83809-.03487a9.92775,9.92775,0,0,1,2.07172-.13011c.07648.00673.15825.01881.24812.03351a2.36572,2.36572,0,0,0,.61414.03089,2.38971,2.38971,0,0,0,.63692-.21187,2.82319,2.82319,0,0,1,.35269-.14617,1.2767,1.2767,0,0,1,.26955-.051,1.23565,1.23565,0,0,0,.43576-.1207,3.47407,3.47407,0,0,0,.61956-.822,5.3634,5.3634,0,0,1,.657-.9051,6.206,6.206,0,0,1,1.13043-.74156,9.67006,9.67006,0,0,0,.96552-.61146,5.19082,5.19082,0,0,0,.89439-.99772,5.999,5.999,0,0,1,.7-.82065,4.35672,4.35672,0,0,1,2.79721-.86357c.25479-.02684.51761-.04826.79924-.08444.29769-.03358.61283-.09393.9132-.15153.28829-.055.55914-.10862.80459-.13683a3.956,3.956,0,0,1,2.32114.48279,5.1077,5.1077,0,0,0,1.27661.4532c.067.01209.14479.02149.22526.03488.39292.059.98426.15022,1.12906.37548a.72022.72022,0,0,1-.15421.81125c-.57527.65039-2.01274.78447-3.07479.58331a1.31515,1.31515,0,0,1-.27757-.10992.88153.88153,0,0,0-.60473-.14617.85823.85823,0,0,0-.3299.2105.95983.95983,0,0,1-.20384.14885,4.72211,4.72211,0,0,1-1.79956.21991l.00535.00267-.012-.00267h.00666a1.49884,1.49884,0,0,0-.67853.01345c-.24669.14617-.39155,1.0808-.60473,2.59475a12.46726,12.46726,0,0,1-.27758,1.60107,6.03946,6.03946,0,0,1-1.30613,1.96983c-.17164.20254-.35667.41166-.52158.62223-.04559.05768-.08987.10059-.12873.14617a.985.985,0,0,0-.24.32715l-.03357.07649.06845.05094a1.77342,1.77342,0,0,1,.834,1.77807l-.0094.06035.05231.03893a1.10787,1.10787,0,0,1,.40226.69192c.03756.12736.07779.27223.13951.42911a2.86041,2.86041,0,0,0,1.91484,1.42,2.29284,2.29284,0,0,0,1.08484.03083,1.12871,1.12871,0,0,0,.49213-.2427l.11-.08713-.11266-.07916a3.814,3.814,0,0,0-1.231-.4291c-.92254-.21318-1.78878-.413-1.64268-1.349a.64106.64106,0,0,1,.16766-.42643c.2749-.24943,1.6547.0644,2.31847.21723.19045.04024.35269.08047.472.10059a9.09067,9.09067,0,0,0,1.0889.08046c.936.0322,2.0932.07106,2.38149.56992a.899.899,0,0,1-.11259.85416,1.869,1.869,0,0,1-.9695.8488,2.42035,2.42035,0,0,1-1.12378-.07641c-.14884-.0322-.28424-.06166-.42237-.08047l-.06839-.00941-.0335.05768c-.59271,1.00843-1.35034,1.04728-2.48613,1.109-.3634.02011-.78447.04559-1.227.10724a6.38713,6.38713,0,0,0-.9038.20116,4.66578,4.66578,0,0,1-2.07583.21991,8.84426,8.84426,0,0,1-1.699-.535,9.60765,9.60765,0,0,0-1.43616-.46934,2.851,2.851,0,0,0-1.48443.19176c-.15825.04964-.30174.09921-.43981.13278-.37411.08713-.77644.1542-1.16531.22657-.232.04291-.75358.07511-1.24839.11939a13.49766,13.49766,0,1,0,11.25723-20.94029Z" fill="#686166"/><path d="M184.37732,158.63472a9.09067,9.09067,0,0,1-1.0889-.08046c-.11932-.02012-.28156-.06035-.472-.10059-.66377-.15283-2.04357-.46666-2.31847-.21723a.64106.64106,0,0,0-.16766.42643c-.1461.936.72014,1.13579,1.64268,1.349a3.814,3.814,0,0,1,1.231.4291l.11266.07916-.11.08713a1.12871,1.12871,0,0,1-.49213.2427,2.29284,2.29284,0,0,1-1.08484-.03083,2.86041,2.86041,0,0,1-1.91484-1.42c-.06172-.15688-.102-.30175-.13951-.42911a1.10787,1.10787,0,0,0-.40226-.69192l-.05231-.03893.0094-.06035a1.77342,1.77342,0,0,0-.834-1.77807l-.06845-.05094.03357-.07649a.985.985,0,0,1,.24-.32715c.03886-.04558.08314-.08849.12873-.14617.16491-.21057.34994-.41969.52158-.62223a6.03946,6.03946,0,0,0,1.30613-1.96983,12.46726,12.46726,0,0,0,.27758-1.60107c.21318-1.51395.358-2.44858.60473-2.59475a1.49884,1.49884,0,0,1,.67853-.01345,4.72211,4.72211,0,0,0,1.79956-.21991.95983.95983,0,0,0,.20384-.14885.85823.85823,0,0,1,.3299-.2105.88153.88153,0,0,1,.60473.14617,1.31515,1.31515,0,0,0,.27757.10992c1.062.20116,2.49952.06708,3.07479-.58331a.72022.72022,0,0,0,.15421-.81125c-.1448-.22526-.73614-.3165-1.12906-.37548-.08047-.01339-.15826-.02279-.22526-.03488a5.1077,5.1077,0,0,1-1.27661-.4532,3.956,3.956,0,0,0-2.32114-.48279c-.24545.02821-.5163.08184-.80459.13683-.30037.0576-.61551.118-.9132.15153-.28163.03618-.54445.0576-.79924.08444a4.35672,4.35672,0,0,0-2.79721.86357,5.999,5.999,0,0,0-.7.82065,5.19082,5.19082,0,0,1-.89439.99772,9.67006,9.67006,0,0,1-.96552.61146,6.206,6.206,0,0,0-1.13043.74156,5.3634,5.3634,0,0,0-.657.9051,3.47407,3.47407,0,0,1-.61956.822,1.23565,1.23565,0,0,1-.43576.1207,1.2767,1.2767,0,0,0-.26955.051,2.82319,2.82319,0,0,0-.35269.14617,2.38971,2.38971,0,0,1-.63692.21187,2.36572,2.36572,0,0,1-.61414-.03089c-.08987-.0147-.17164-.02678-.24812-.03351a9.92775,9.92775,0,0,0-2.07172.13011c-.09392.01338-.48142.02547-.83809.03487a14.62412,14.62412,0,0,0-.14082,1.96448,13.42454,13.42454,0,0,0,2.24075,7.43826c.49481-.04428,1.0164-.07648,1.24839-.11939.38887-.07237.7912-.13944,1.16531-.22657.13807-.03357.28156-.08314.43981-.13278a2.851,2.851,0,0,1,1.48443-.19176,9.60765,9.60765,0,0,1,1.43616.46934,8.84426,8.84426,0,0,0,1.699.535,4.66578,4.66578,0,0,0,2.07583-.21991,6.38713,6.38713,0,0,1,.9038-.20116c.44249-.06165.86356-.08713,1.227-.10724,1.13579-.06173,1.89342-.10058,2.48613-1.109l.0335-.05768.06839.00941c.13813.01881.27353.04827.42237.08047a2.42035,2.42035,0,0,0,1.12378.07641,1.869,1.869,0,0,0,.9695-.8488.899.899,0,0,0,.11259-.85416C186.47052,158.70578,185.31332,158.66692,184.37732,158.63472Z" fill="#d9d9d9"/><polygon points="182.024 149.001 182.019 148.999 182.012 148.999 182.024 149.001" fill="#d9d9d9"/><path d="M186.968,149.20383a1.70513,1.70513,0,0,0-.59937.16354,2.22994,2.22994,0,0,1-.48946.15963,10.81763,10.81763,0,0,1-1.14787.09385c-.33387.01607-.64228.02815-.928.067l-.08314.00941a6.44419,6.44419,0,0,0-1.79551.39958.94274.94274,0,0,0-.49481.63967.83207.83207,0,0,0,.173.72413c.19039.23329.3218.25341.6611.31513.063.012.14074.02279.22121.04154a3.88429,3.88429,0,0,1,.40233.10326,4.14417,4.14417,0,0,0,.68924.15152,9.58834,9.58834,0,0,0,2.90315-.23872c.28561-.05492.55646-.10724.82333-.14884a2.35777,2.35777,0,0,1,.30168-.02678.947.947,0,0,0,.43988-.0872,1.01,1.01,0,0,0,.46934-.72007,1.51124,1.51124,0,0,0-.33257-1.16531A1.35777,1.35777,0,0,0,186.968,149.20383Z" fill="#d9d9d9"/><path d="M188.96468,153.2508c-.17164-.62491-.81262-.90647-1.75932-.77912a1.66662,1.66662,0,0,0-.362.10862,1.80852,1.80852,0,0,1-.34864.11665,13.17583,13.17583,0,0,1-3.36582.06577c-.10725-.00941-.22259-.02684-.3312-.04023-.68252-.0966-1.32618-.181-1.74725.26549-.2736.291-.36209.5404-.2736.76566.15421.39958,1.04063,1.11437,5.22169,1.42813l.17034.01339a4.64447,4.64447,0,0,0,1.75795-.07106A1.70541,1.70541,0,0,0,188.96468,153.2508Z" fill="#d9d9d9"/><path d="M186.70382,155.93535l.055-.01607c-.03618-.00268-.29769,0-.50552.00941-.37411.00666-.64633.01743-.7268.00666-.3728-.03749-.75762-.07106-1.17066-.10725-.70668-.05362-1.44282-.11266-2.16564-.2186a2.52675,2.52675,0,0,1-.43309-.11129,2.047,2.047,0,0,0-.93064-.1126.883.883,0,0,0-.71073.70263.9135.9135,0,0,0,.30175.98557,11.36077,11.36077,0,0,0,3.93437.98694,3.813,3.813,0,0,0,.66109-.012,2.55049,2.55049,0,0,1,.77369.012,1.64144,1.64144,0,0,1,.37013.14219,1.15728,1.15728,0,0,0,.78983.15015,1.58076,1.58076,0,0,0,1.00163-.76834.934.934,0,0,0,.13683-.99634A1.55778,1.55778,0,0,0,186.70382,155.93535Z" fill="#d9d9d9"/><path d="M164.973,166.70555h32.29534a3.52833,3.52833,0,0,1,3.52833,3.52833v7.118a3.52672,3.52672,0,0,1-3.52672,3.52672H164.973a3.52672,3.52672,0,0,1-3.52672-3.52672v-7.11958A3.52672,3.52672,0,0,1,164.973,166.70555Z" fill="#d9d9d9" stroke="#595959" stroke-miterlimit="10"/><path d="M168.853,177.41267h-1.50342v-4.80761h-1.86377v-1.13331c1.04834.03174,2.00146-.33886,2.1709-1.47168H168.853Z" fill="#252525"/><path d="M172.6792,169.85164c1.48291,0,2.73242.93213,2.73242,3.82275,0,2.95459-1.24951,3.88672-2.73242,3.88672-1.47168,0-2.71094-.93213-2.71094-3.88672C169.96826,170.78377,171.20752,169.85164,172.6792,169.85164Zm0,6.47021c1.22851,0,1.22851-1.81054,1.22851-2.64746,0-.77295,0-2.5835-1.22851-2.5835-1.21777,0-1.207,1.81055-1.207,2.5835C171.47217,174.51131,171.47217,176.32185,172.6792,176.32185Z" fill="#252525"/><path d="M178.78271,169.85164c1.48291,0,2.73243.93213,2.73243,3.82275,0,2.95459-1.24952,3.88672-2.73243,3.88672-1.47167,0-2.71093-.93213-2.71093-3.88672C176.07178,170.78377,177.311,169.85164,178.78271,169.85164Zm0,6.47021c1.22852,0,1.22852-1.81054,1.22852-2.64746,0-.77295,0-2.5835-1.22852-2.5835-1.21777,0-1.207,1.81055-1.207,2.5835C177.57568,174.51131,177.57568,176.32185,178.78271,176.32185Z" fill="#252525"/><path d="M185.84131,169.85164h1.6626v3.13476l2.95459-3.13476h2.07568l-2.95459,2.98633,3.24023,4.5747h-2.08593l-2.27686-3.39941-.95312.96387v2.43554h-1.6626Z" fill="#252525"/><path d="M198.17236,177.06306c0,.90039-.32812,2.4253-2.83789,2.4253-1.08056,0-2.33008-.519-2.41455-1.75782h1.49317a1.01079,1.01079,0,0,0,1.12255.75147c.83643,0,1.21778-.561,1.207-1.35547v-.71973h-.021a1.81652,1.81652,0,0,1-1.6416.84717c-1.65186,0-2.34033-1.24951-2.34033-2.75342a2.45189,2.45189,0,0,1,2.35107-2.71093,1.7138,1.7138,0,0,1,1.63086.8789h.021v-.73047h1.42968Zm-1.42968-2.45654c0-.88965-.30713-1.68359-1.28125-1.68359-.84717,0-1.21778.74121-1.21778,1.55664,0,.7832.28565,1.64111,1.21778,1.64111A1.34723,1.34723,0,0,0,196.74268,174.60652Z" fill="#252525"/><polygon points="163.162 119.948 167.882 129.873 162.918 132.236 177.11 138.088 177.11 138.088 181.518 123.386 176.56 125.746 171.838 115.823 163.162 119.948" fill="#fff" stroke="#fff" stroke-linecap="round" stroke-linejoin="round" stroke-width="4"/><rect x="161.29591" y="113.08245" width="9.60845" height="3.71958" transform="translate(-33.2439 82.33963) rotate(-25.39499)" stroke-width="4" stroke="#fff" stroke-linecap="round" stroke-linejoin="round" fill="#fff"/><rect x="159.50187" y="110.24081" width="9.60834" height="1.8615" transform="translate(-31.81641 81.31228) rotate(-25.42608)" stroke-width="4" stroke="#fff" stroke-linecap="round" stroke-linejoin="round" fill="#fff"/><polygon points="163.162 119.948 167.882 129.873 162.918 132.236 177.11 138.088 177.11 138.088 181.518 123.386 176.56 125.746 171.838 115.823 163.162 119.948" fill="#252525"/><rect x="161.29591" y="113.08245" width="9.60845" height="3.71958" transform="translate(-33.2439 82.33963) rotate(-25.39499)" fill="#252525"/><rect x="159.50187" y="110.24081" width="9.60834" height="1.8615" transform="translate(-31.81641 81.31228) rotate(-25.42608)" fill="#252525"/><line x1="161.04859" y1="83.03381" x2="167.5517" y2="97.08557" fill="none" stroke="#99d140" stroke-linecap="square" stroke-width="3"/><polygon points="162.348 96.219 173.133 109.146 170.258 92.558 162.348 96.219" fill="#99d140"/><line x1="107.23487" y1="111.20697" x2="107.23487" y2="89.54462" fill="none" stroke="#99d140" stroke-linecap="square" stroke-width="3"/><polygon points="111.593 108.235 107.235 124.496 102.877 108.235 111.593 108.235" fill="#99d140"/><line x1="70.31982" y1="0.3" x2="183.29802" y2="0.3" fill="#fff" stroke="#000" stroke-miterlimit="10" stroke-width="0.6"/><line x1="127.35093" y1="0.34557" x2="127.35093" y2="44.61837" fill="#fff" stroke="#000" stroke-miterlimit="10" stroke-width="3"/></g></g></svg>