<svg xmlns="http://www.w3.org/2000/svg" xmlns:xlink="http://www.w3.org/1999/xlink" viewBox="0 0 121.67567 266.49339"><defs><clipPath id="clip-path"><polygon points="26.417 266.493 16.43 214.255 111.689 213.598 121.676 265.836 26.417 266.493" fill="none"/></clipPath><linearGradient id="Dégradé_sans_nom_2" x1="-46.45479" y1="1302.4238" x2="-44.95479" y2="1302.4238" gradientTransform="matrix(-3.85948, -20.18715, -137.12248, 0.94564, 178482.59867, -1922.81758)" gradientUnits="userSpaceOnUse"><stop offset="0" stop-color="#fff"/><stop offset="1"/></linearGradient><clipPath id="clip-path-2"><polygon points="26.304 214.428 26.364 265.905 111.801 265.668 111.743 214.188 26.304 214.428" fill="none"/></clipPath><mask id="mask" x="6.33035" y="212.87323" width="125.44469" height="54.34419" maskUnits="userSpaceOnUse"><g clip-path="url(#clip-path)"><polygon points="16.568 267.217 6.33 213.668 121.537 212.873 131.775 266.423 16.568 267.217" fill="url(#Dégradé_sans_nom_2)"/></g></mask><linearGradient id="Dégradé_sans_nom_98" x1="-46.4548" y1="1302.4238" x2="-44.9548" y2="1302.4238" gradientTransform="matrix(-3.85948, -20.18715, -137.12248, 0.94564, 178482.59863, -1922.81802)" gradientUnits="userSpaceOnUse"><stop offset="0" stop-color="#fff"/><stop offset="1" stop-color="#fff"/></linearGradient></defs><title>MAESTRO-Pe06-rapport-mouflage-8</title><g id="Calque_2" data-name="Calque 2"><g id="Calque_1-2" data-name="Calque 1"><polyline points="52.207 262.231 52.207 206.47 33.795 206.47 70.614 179.2 107.424 206.47 88.99 206.47 88.99 262.231" fill="#ccc"/><polyline points="52.207 262.231 52.207 206.47 33.795 206.47 70.614 179.2 107.424 206.47 88.99 206.47 88.99 262.231" fill="none" stroke="#252525" stroke-width="1.2"/><g clip-path="url(#clip-path-2)"><g mask="url(#mask)"><polygon points="26.417 266.493 16.43 214.256 111.689 213.599 121.676 265.836 26.417 266.493" fill="url(#Dégradé_sans_nom_98)"/></g></g><path d="M46.09465,75.7709a58.59478,58.59478,0,0,1,2.22328-14.48335,96.72567,96.72567,0,0,1,7.094-18.1381c3.73928-7.07016,4.65476-8.153,5.87274-8.42684A6.87606,6.87606,0,0,1,62.683,34.543c1.63606-.244,4.26146-.37015,4.58841.09494.32731.4679.165.749-.2189,1.41187a127.14608,127.14608,0,0,0-6.124,11.9003A88.94541,88.94541,0,0,0,57.21088,59.1672a2.33041,2.33041,0,0,0,2.38594,2.68885c2.14931.18946,3.24236.19267,5.12013.48531a.837.837,0,0,1,.20474.05908A15.88682,15.88682,0,1,1,46.21538,78.644c-.00365-.06683-.001-.132-.00172-.19935A26.44,26.44,0,0,1,46.09465,75.7709Z" fill="#ffd900" stroke="#000" stroke-width="1.2"/><path d="M65.02743,39.54626a2.32433,2.32433,0,0,0-1.75459-.571,29.75389,29.75389,0,0,0-3.40464.35863,2.44581,2.44581,0,0,0-1.89892,1.57594c-.63371,1.2568-4.63527,9.17869-5.99051,13.05766-1.35472,3.88173-1.91226,8.961,1.50068,8.82992a14.65043,14.65043,0,0,0,5.29135-1.02493" fill="none" stroke="#000" stroke-linecap="round" stroke-linejoin="round" stroke-width="0.5"/><path d="M58.22567,78.35771A4.09759,4.09759,0,1,0,62.162,74.10534,4.09646,4.09646,0,0,0,58.22567,78.35771Z" fill="none" stroke="#000" stroke-linecap="round" stroke-linejoin="round" stroke-width="0.8"/><path d="M49.74344,78.50792A12.356,12.356,0,1,0,61.61517,65.68464,12.35714,12.35714,0,0,0,49.74344,78.50792Z" fill="none" stroke="#000" stroke-linecap="round" stroke-linejoin="round" stroke-width="0.5"/><path d="M90.86591,82.36657c-.28-1.35865-.39119-4.45118-.42874-4.84088A72.89241,72.89241,0,0,0,85.553,62.63181c-2.25515-4.81634-5.365-12.422-10.346-17.40583-2.76624-2.76328-5.21329-3.38421-7.43962-3.33513-3.62386.0751-6.14749,1.01788-11.85605,9.50288-.67711,1.00487-3.94142,6.58776-4.16821,7.07726a1.32481,1.32481,0,0,0-.13276.8489l-2.2522,5.05895s-.7191.16307-1.20712,1.37c-.49083,1.20844-3.13288,7.83524-3.58912,9.36849-.45623,1.53621-1.08278,8.02447,1.60839,12.25182.72764,1.14621,2.26813,3.00589,2.26813,3.00589,3.24406,3.41585,13.00093,12.33683,15.4193,13.47017,2.9886,1.39754,7.24758.63527,8.89925-2.35184,1.65448-2.99007,2.4197-8.2656,5.02288-9.66447,2.60731-1.399,12.71648-5.53115,12.71648-7.62885,0-.03327-.00148-.0621-.00281-.09521.24689-.143.38394-.22383.38394-.22383S91.14459,83.728,90.86591,82.36657ZM67.9276,100.98366a4.16162,4.16162,0,0,1-4.64307-2.35333c-1.52468-3.1141.192-3.75085,3.052-4.259,2.8616-.50827,4.38761.38113,4.5146,1.96923C70.97681,97.93164,69.51573,100.47553,67.9276,100.98366ZM62.977,49.85471a5.58338,5.58338,0,0,1,5.11084-3.1966c2.68108,0,4.63157,2.365,5.13981,3.8332.61206,1.75708.6063,4.02377-5.1095,4.02377S61.69924,52.28018,62.977,49.85471Z" fill="#ffd900" stroke="#000" stroke-width="1.2"/><circle cx="52.67128" cy="206.10672" r="6.5" fill="#b3b3b3"/><path d="M52.35589,217.31182a11.56543,11.56543,0,0,0,8.43789-3.3711,11.37986,11.37986,0,0,0,3.024-8.5293c-.0743-1.0586-7.1973-98.7529-8.6714-129.0401l-2.9893-.2558c.3936,30.543,8.59381,128.4482,8.6656,129.4521a8.42266,8.42266,0,0,1-2.1851,6.2871,8.60015,8.60015,0,0,1-6.28169,2.4571c-5.355,0-7.47221-5.1602-8.30521-9.4883-5.1631-25.1309-19.0117-73.4639-19.356-76.6494l-2.9824.3222c.4453,4.1211,18.78561,73.9424,19.396,76.9122C42.58438,213.07842,46.58048,217.31182,52.35589,217.31182Z" fill="#01a0c6" stroke="#000" stroke-width="0.8"/><line x1="52.67128" y1="206.10672" x2="63.03508" y2="226.03542" fill="none" stroke="#b3b3b3" stroke-width="3"/><path d="M77.60923,224.4827l-3.498-.125,5.147-144.52442L56.13755,81.927c-.31543,2.5752-.978,8.00489-1.2334,10.30664L51.42564,91.847c.3413-3.07617,1.3999-11.66308,1.41064-11.749l.17285-1.40137,29.8877-2.707Z" fill="#01a0c6" stroke="#000" stroke-width="0.8"/><line x1="15.14451" y1="13.5" x2="111.54533" y2="13.5" fill="none" stroke="#595959" stroke-width="0.8" stroke-dasharray="2.8 2.8"/><path d="M70.34006,43.11379c.0578-5.26105.02025-14.75092-.075-18.87271-.1199-5.16435-.34225-7.09027-1.22293-8.19331a1.006,1.006,0,0,0-1.70652.04036l-.73344,4.34281s.39562.41292.46052,4.72394c.0448,3.10406.19057,12.76276.26567,17.96038,0,0,.9039-.0578,1.38024-.05485C69.18365,43.06618,70.34006,43.11379,70.34006,43.11379Z" fill="#fff" stroke="#000" stroke-linecap="round" stroke-linejoin="round" stroke-width="0.8"/><path d="M85.553,62.63181c-2.25515-4.81634-5.365-12.422-10.346-17.40583-2.76624-2.76328-5.21329-3.38421-7.43962-3.33513-3.62386.0751-6.14749,1.01788-11.85605,9.50288-.67711,1.00487-3.94142,6.58776-4.16821,7.07726a1.32481,1.32481,0,0,0-.13276.8489l-2.2522,5.05895s-.7191.16307-1.20712,1.37c-.46333,1.14783-2.86573,7.16537-3.501,9.09129l.04482.10408s2.45723.32185,3.04046.32185c.5847,0,1.08133.05928,1.22722-.14578.14725-.205.31475-8.01131,3.6858-10.652,3.3684-2.642,12.962-7.26487,22.08365-2.46006,5.96417,3.14294,9.58508,14.1631,10.13238,15.347.54571,1.1839-.02454,1.412-.43465,1.64014a3.23,3.23,0,0,0-1.4784,2.912c.1372,1.77586,2.18582,3.16615,4.441,1.66172a24.81136,24.81136,0,0,0,2.86737-2.2074c.10822-.10837.25978-.24409.4172-.3798-.14444-1.44085-.2123-3.17044-.23965-3.45621A72.89241,72.89241,0,0,0,85.553,62.63181Zm-17.4348-8.11673c-5.71581,0-6.41893-2.2349-5.14115-4.66037a5.58338,5.58338,0,0,1,5.11084-3.1966c2.68108,0,4.63157,2.365,5.13981,3.8332C73.83973,52.24839,73.834,54.51508,68.11817,54.51508Z" fill="#fff" stroke="#000" stroke-linecap="round" stroke-linejoin="round" stroke-width="0.8"/><path d="M86.29794,79.08481a.99162.99162,0,0,0,1.00191-.36383c.319-.32037,2.7763-2.41394,2.73168-2.91482" fill="none" stroke="#000" stroke-linecap="round" stroke-linejoin="round" stroke-width="0.8"/><path d="M85.86477,78.0381c.41014-2.52792,1.77586-6.89823-2.11793-14.27575C79.853,56.38615,72.819,45.45838,67.76438,45.662c-5.053.20506-14.0707,12.09009-16.46009,16.59744-.989,1.86235-3.96165,7.92335-3.211,12.22565" fill="none" stroke="#000" stroke-linecap="round" stroke-linejoin="round" stroke-width="0.5"/><path d="M87.71,81.56808a2.1173,2.1173,0,1,1-2.11808-2.11943A2.116,2.116,0,0,1,87.71,81.56808Z" fill="none" stroke="#000" stroke-linecap="round" stroke-linejoin="round" stroke-width="0.5"/><path d="M85.04192,77.8462c.10538.283.52406,1.04671.98739,1.16646.465.11842,1.37743.24113,1.708.70165.32777.465.65686,1.36294.8662,1.69218.21082.3291.7942.70446,1.19692.37537" fill="none" stroke="#000" stroke-linecap="round" stroke-linejoin="round" stroke-width="0.8"/><path d="M55.48388,68.67833c-.71747.42445-2.32153,1.26758-3.18921,1.73254-.86634.46777-1.98949.9586-1.99244,2.385a18.38878,18.38878,0,0,0,1.80912,7.92631c1.64724,3.42738,6.42469,7.46993,9.32946,8.50659,4.13645,1.47692,7.87427,1.43212,8.94833.58618,1.07273-.84609,2.54108-4.82077,2.54108-4.82077" fill="#fff" stroke="#000" stroke-linecap="round" stroke-linejoin="round" stroke-width="0.8"/><path d="M79.92381,69.52a13.34252,13.34252,0,1,1-16.57142-9.022A13.33938,13.33938,0,0,1,79.92381,69.52Z" fill="#fff" stroke="#000" stroke-linecap="round" stroke-linejoin="round" stroke-width="0.8"/><path d="M59.77909,85.244c2.08913-.80854,4.41214-1.62861,5.63064-1.43228a10.65549,10.65549,0,1,0-7.5437-15.7889,13.51586,13.51586,0,0,0-1.16066,3.03767c-.21957.768-1.84949,3.29181-3.172,5.72009l-.34949-.33486s-.48651.64385-1.038,1.55351c-.16029.27-.88943,1.68627-1.04245,2.01684-.15006.33072-.3594.71037.40863,1.874a39.85086,39.85086,0,0,0,3.89518,4.86838,1.61111,1.61111,0,0,0,1.63154.33634c.42445-.12419,3.45192-1.33973,3.45192-1.33973Z" fill="#ffd900" stroke="#000" stroke-linecap="round" stroke-linejoin="round" stroke-width="0.8"/><path d="M70.0528,72.432a3.05049,3.05049,0,1,1-3.78988-2.06445A3.0489,3.0489,0,0,1,70.0528,72.432Z" fill="none" stroke="#000" stroke-linecap="round" stroke-linejoin="round" stroke-width="0.8"/><path d="M72.92017,72.88114a5.87131,5.87131,0,0,0-.22383-1.22871,5.80958,5.80958,0,1,0-.28442,4.044s1.422.29878,1.55777.3248c.143.02883.25413.04909.27572-.05485.0275-.12418-.05914-.14148-.1573-.169-.13143-.03607-2.90048-.67134-2.90048-.67134l.45327-2.19454s2.72721.52409,2.85717.54006c.1285.01434.23388.05766.26286-.07806.02158-.10393-.08516-.16307-.27144-.19633C74.33781,73.1712,72.92017,72.88114,72.92017,72.88114Z" fill="none" stroke="#000" stroke-linecap="round" stroke-linejoin="round" stroke-width="0.8"/><path d="M53.53342,76.78057c-.29449.57466-1.19543,2.22929-1.47263,2.73889-.2772.50813-.71316.96008.14727,2.30572a33.15851,33.15851,0,0,0,3.6296,4.34133,1.42735,1.42735,0,0,0,1.48846.09669c.45047-.16884,1.92458-.80559,2.453-1.01921" fill="none" stroke="#000" stroke-linecap="round" stroke-linejoin="round" stroke-width="0.8"/><path d="M54.57289,80.312a.92171.92171,0,1,1-1.1434-.62654A.92236.92236,0,0,1,54.57289,80.312Z" fill="none" stroke="#000" stroke-linecap="round" stroke-linejoin="round" stroke-width="0.5"/><path d="M57.53975,84.20585a.92254.92254,0,1,1-1.14633-.62374A.91975.91975,0,0,1,57.53975,84.20585Z" fill="none" stroke="#000" stroke-linecap="round" stroke-linejoin="round" stroke-width="0.5"/><line x1="70.03551" y1="72.31225" x2="72.93451" y2="72.90568" fill="none" stroke="#000" stroke-linecap="round" stroke-linejoin="round" stroke-width="0.8"/><line x1="69.5605" y1="75.14058" x2="72.41192" y2="75.69646" fill="none" stroke="#000" stroke-linecap="round" stroke-linejoin="round" stroke-width="0.8"/><line x1="71.91666" y1="75.57656" x2="72.0278" y2="75.31961" fill="none" stroke="#000" stroke-linecap="round" stroke-linejoin="round" stroke-width="0.8"/><line x1="72.5" y1="73.12507" x2="72.51878" y2="72.81609" fill="none" stroke="#000" stroke-linecap="round" stroke-linejoin="round" stroke-width="0.8"/><line x1="70.80649" y1="72.51287" x2="70.19727" y2="75.27334" fill="none" stroke="#000" stroke-linecap="round" stroke-linejoin="round" stroke-width="0.5"/><path d="M70.22459,73.2565a3.05135,3.05135,0,1,1-3.052-3.05216A3.05177,3.05177,0,0,1,70.22459,73.2565Z" fill="#fff" stroke="#000" stroke-linecap="round" stroke-linejoin="round" stroke-width="0.8"/><path d="M48.96679,75.47115c-.18776,1.68774,1.68626,6.08969,1.874,7.12058S49.2483,88.49529,48.779,88.87066a1.33608,1.33608,0,0,1-1.96628-.37537c-.46924-.84313-3.51416-4.82211-2.03857-13.65512Z" fill="#fff" fill-opacity="0.6" stroke="#000" stroke-linecap="round" stroke-linejoin="round" stroke-width="0.8"/><path d="M45.90605,87.03847c2.24939,4.66628,6.66286,7.35594,10.09616,7.255a70.00914,70.00914,0,0,0,19.31593-3.17635A93.88658,93.88658,0,0,0,90.944,83.84054s.26848-.1545-.013-1.516c-.28164-1.357-.39991-4.44674-.43746-4.8394a72.92262,72.92262,0,0,0-4.91022-14.885c-2.26518-4.81072-5.38671-12.4106-10.37913-17.38572-2.77067-2.76048-5.21773-3.37549-7.44553-3.3236-3.62238.08235-6.146,1.02808-11.83728,9.523-.67563,1.00782-3.93137,6.598-4.158,7.086a1.338,1.338,0,0,0-.12847.8489l-2.24363,5.06471s-.71746.16174-1.20549,1.37152c-.488,1.20711-3.12,7.83967-3.57477,9.37574A17.6214,17.6214,0,0,0,45.90605,87.03847ZM62.98279,49.86329a5.58539,5.58539,0,0,1,5.10507-3.20518c2.68241-.00577,4.63583,2.35628,5.14691,3.82315.61516,1.75708.61516,4.02229-5.10079,4.03382C62.41685,54.5238,61.70929,52.29171,62.98279,49.86329ZM61.42928,64.25746a31.59634,31.59634,0,0,1,5.81249,6.0378c.40286.5544.87211,1.14355,1.194,1.70223A1.74637,1.74637,0,0,1,68.791,73.05a1.79368,1.79368,0,0,1-1.77009,1.77867c-1.23728.03326-2.12222-1.8826-2.53088-2.4645a22.65064,22.65064,0,0,0-6.37266-5.92943Z" fill="#ffd900" stroke="#000" stroke-width="1.2"/><path d="M50.51157,83.5317A2.48106,2.48106,0,1,1,48.027,81.057,2.48176,2.48176,0,0,1,50.51157,83.5317Z" fill="none" stroke="#000" stroke-linecap="round" stroke-linejoin="round" stroke-width="0.8"/><path d="M63.39422,53.8668a31.70625,31.70625,0,0,0-6.53735-2.51639c-.71466-.14148-1.23875.62226-1.23875.62226a2.02553,2.02553,0,0,0-1.61989.71747c-.52261.76522-1.75841,2.77068-1.99525,3.24554a11.61613,11.61613,0,0,0,.19486,3.055s-2.32731,4.34-3.182,6.58363c-.85467,2.24214-3.13289,8.06335-3.32212,8.8747-.18909.81-.04613,1.28636.81149,1.23728a12.91255,12.91255,0,0,1,2.71849-.00429,1.25651,1.25651,0,0,0,1.57228-.81283c.42874-.86057,5.23225-7.30538,8.51812-9.40752a27.96136,27.96136,0,0,1,6.76547-2.97129,1.67448,1.67448,0,0,0,.9991-1.61989s3.05069-.38971,3.09681-1.53325C70.22031,58.2068,69.45511,56.955,63.39422,53.8668Z" fill="#ffd900" stroke="#000" stroke-linecap="round" stroke-linejoin="round" stroke-width="0.8"/><path d="M61.49566,58.01757c1.37021.70313,3.3437,1.669.67282,3.097a36.39074,36.39074,0,0,0-8.38107,6.50113c-.51537.49674-1.28635,1.33691-2.47736.76817-1.19262-.57184-1.62284-.9991-1.19688-2.336.42738-1.33544,3.99047-8.11244,4.41936-8.97154.42578-.859.94987-1.33544,2.33307-.90952A29.18289,29.18289,0,0,1,61.49566,58.01757Z" fill="none" stroke="#000" stroke-linecap="round" stroke-linejoin="round" stroke-width="0.5"/><path d="M48.37055,79.98871a.59122.59122,0,1,1-.59048-.58915A.59119.59119,0,0,1,48.37055,79.98871Z" fill="none" stroke="#000" stroke-linecap="round" stroke-linejoin="round" stroke-width="0.5"/><path d="M70.22459,73.2565a3.05135,3.05135,0,1,1-3.052-3.05216A3.05177,3.05177,0,0,1,70.22459,73.2565Z" fill="#ffd900" stroke="#000" stroke-linecap="round" stroke-linejoin="round" stroke-width="0.8"/><path d="M68.0648,17.41781c-.30175-.306-.618,1.05824-.69308,1.66764a7.771,7.771,0,0,1-.5442,1.74111c-.12714.30751-.35378.72915-.35378.72915a.96605.96605,0,0,1,.92548,1.07835c.00576.24837.09964,6.62117.09964,6.62117.25118.02307.42.04332.51685.05485.27147.03179.41425.11842.42.36665.00724.24541.06786,8.70158.05928,9.34114-.00724.63956-.21806.76374-.4895.82584a2.34773,2.34773,0,0,1-.43169.06638s0,.54567.0102,1.24732a1.14888,1.14888,0,0,1-.74645,1.05691.96335.96335,0,0,1-.47072.11266l.00727.33205s.10967.10393.69157.66114a1.63461,1.63461,0,0,1,.57318,1.3659c.04331.3897.156,1.12891.31179,1.86811,0,0,.81579.1675.99039.21082a8.87014,8.87014,0,0,1,1.16084.3523l-.30751,1.29641c-.24985,1.35718-.976,2.9194-2.476,2.954a2.63456,2.63456,0,0,1-2.49052-1.88408c-.30023-.7392-.485-1.49141-.93553-2.5569a6.99215,6.99215,0,0,1-.5356-2.21479c-.07661-.55721.12993-.66114.40136-.92977.27427-.27143.63956-.62935.63956-.62935l-.01878-.85482a1.28657,1.28657,0,0,1-.98462-.34062,1.188,1.188,0,0,1-.3523-.99053c-.01449-.592-.02454-1.07406-.02454-1.07406v.00576a6.47234,6.47234,0,0,1-.74645-.13571c-.10674-.03031-.18761-.169-.19633-.52838-.00576-.35807-.04036-9.06395-.03755-9.45661,0-.39266.09092-.49526.5717-.51685.12714-.00577.26138-.01153.42164-.0173,0,0-.03755-3.02333-.05337-4.87991l.00429-.0173c-.16455-.06653-.2945-.36827-.30172-.73343-.01008-.38557.11975-.71038.296-.75946l.00148-.026a1.51847,1.51847,0,0,1,.30307-.92977.40964.40964,0,0,1,.27011-.00576,6.08592,6.08592,0,0,0-.12862-1.19973,4.67906,4.67906,0,0,1,.14148-3.091,9.80463,9.80463,0,0,1,1.55646-3.2037,2.07485,2.07485,0,0,1,1.78162-.64828,1.91674,1.91674,0,0,1,1.80321,1.28488c.3696.9688.53134,1.28784.53134,1.28784" fill="#fff" stroke="#000" stroke-linecap="round" stroke-linejoin="round" stroke-width="0.8"/><path d="M67.49886,29.25523a18.92466,18.92466,0,0,0-2.18449-.0578c-1.19972.0275-1.83928.03755-2.284.04627" fill="none" stroke="#000" stroke-linecap="round" stroke-linejoin="round" stroke-width="0.8"/><line x1="64.37884" y1="42.298" x2="64.32399" y2="40.03131" fill="none" stroke="#000" stroke-linecap="round" stroke-linejoin="round" stroke-width="0.8"/><path d="M65.45734,40.00529s.02749,1.13483.03607,1.61413c.013.47648.08237.70179.36383.70756.283.00281.50961,0,.50961,0" fill="none" stroke="#000" stroke-linecap="round" stroke-linejoin="round" stroke-width="0.8"/><path d="M65.31009,41.14307s.03755,1.66025.04184,1.85658c.00576.19648.30469.47073.55868.64976s1.41779,1.093,1.58677.23241" fill="none" stroke="#000" stroke-linecap="round" stroke-linejoin="round" stroke-width="0.5"/><line x1="66.37412" y1="42.65903" x2="65.60311" y2="43.02567" fill="none" stroke="#000" stroke-linecap="round" stroke-linejoin="round" stroke-width="0.5"/><path d="M63.5502,21.89205a1.79376,1.79376,0,0,1,.0822.50236c.00576.27439.02749,1.18686.039,1.67488a2.36827,2.36827,0,0,0,.22235,1.12034,1.67233,1.67233,0,0,0,.94854.17327c.45624-.01168.86191-.02026.86191-.02026s.0649-2.08632.08368-2.68833c.02025-.60348.28592-1.18819.68583-1.0986" fill="none" stroke="#000" stroke-linecap="round" stroke-linejoin="round" stroke-width="0.8"/><path d="M62.977,24.36379c-.00872-.68731-.0102-1.21421-.00872-1.36871.00295-.05632.00428-.11265.00872-.1675" fill="none" stroke="#000" stroke-linecap="round" stroke-linejoin="round" stroke-width="0.8"/><path d="M63.66273,23.68668s-.0361,1.50576-.03033,1.832c.0102.32628.08086.4793.29316.488.21215.00429,1.23876-.01878,1.40759-.03326.17623-.01582.35378-.11118.37256-.68288" fill="none" stroke="#000" stroke-linecap="round" stroke-linejoin="round" stroke-width="0.8"/><path d="M65.78214,22.85064a8.497,8.497,0,0,1,.143-2.34179c.24261-.51389,1.552-2.22337,1.35718-.97012" fill="none" stroke="#000" stroke-linecap="round" stroke-linejoin="round" stroke-width="0.5"/><path d="M67.57382,39.91009s-.54716.06933-2.37343.09816a14.91155,14.91155,0,0,1-2.183-.1097" fill="none" stroke="#000" stroke-linecap="round" stroke-linejoin="round" stroke-width="0.8"/><path d="M67.72982,23.49464c.01.42016-.14151.76226-.33932.76522-.19634.00429-.36532-.32924-.37537-.74793-.00858-.4172.143-.75945.34077-.76522C67.55223,22.7439,67.72107,23.07876,67.72982,23.49464Z" fill="#fff" stroke="#000" stroke-linecap="round" stroke-linejoin="round" stroke-width="0.8"/><path d="M67.95066,46.55418a3.56889,3.56889,0,0,0,.32348,1.16084" fill="#fff" stroke="#000" stroke-linecap="round" stroke-linejoin="round" stroke-width="0.8"/><path d="M66.56262,27a13.5,13.5,0,1,0-13.5029-13.4991A13.50215,13.50215,0,0,0,66.56262,27Z" fill="#595959"/><path d="M73.62612,5.7329a.51735.51735,0,0,1,.5474.2583c.0854.0986.2964.2558.3276.3896.1167.5415-1.1802,1.7393-1.48969,2.0059-.79791.6845-1.53321,1.4624-2.33351,2.1357A6.86834,6.86834,0,0,0,69.256,11.916c-.6152.9004-2.1953.9502-1.7798-.7119.0571-.2232.5781-.3653.7446-.712-.3955-.1836-.89639-.3559-1.2939-.5507-1.583-.7696-1.7617,1.3398-3.1084-.8091-1.16109-1.8501,2.4712-1.6919,3.9146-1.4575a7.19218,7.19218,0,0,1,1.8129.7456c.1431.0659.4131.2685.5865.227V8.6127c.7758-.3881,1.29-1.3305,1.94091-1.8759.26369-.2241.67229-.2881.938-.5161C73.19112,6.0605,73.34292,5.7827,73.62612,5.7329Z" fill="#e5e5e5"/><path d="M58.15352,5.895a1.1747,1.1747,0,0,1,.6147.1616c.7979.4004,1.2241,1.2612,1.877,1.813.6938.583,1.351,1.1684,2.0415,1.7466.3134.2675.5488.6538.872.9062a6.00148,6.00148,0,0,1,1.0679.874.92211.92211,0,0,1,.1602.8755c-.4126,1.1431-1.6519-.1279-2.0718-.3237a4.90075,4.90075,0,0,0,.58641,5.0171c.26369.3437.74709.4473,1.12939.6802a4.35826,4.35826,0,0,0,4.0474-.0313,7.52232,7.52232,0,0,0,1.0063-.939c.3516-.3315.8071-.582.9361-1.1328a6.753,6.753,0,0,0,.163-2.3647c-.0356-.2212-.2465-.5488-.1308-.8096.1279-.291,1.227-1.3374,1.7495-1.1963.2412.0645.4814.7237.5517.9693a6.49915,6.49915,0,0,1,.1275.8091c0,.0273-.0303.1562-.0332.1308-.0415.0386.0972,1.2568.064,1.5215a6.515,6.515,0,0,1-4.5303,5.6323,7.3755,7.3755,0,0,1-5.6323-.7768c-.2964-.2061-.4502-.6016-.712-.8409-.3559-.3305-.9028-.4238-1.1997-.8081a8.8312,8.8312,0,0,1-1.1308-4.1132,7.72829,7.72829,0,0,1,.6806-2.7188,9.34262,9.34262,0,0,0,.5474-.9697,15.32534,15.32534,0,0,1-2.2959-2.2988C58.44352,7.4751,56.98843,6.0087,58.15352,5.895Z" fill="#e5e5e5"/><path d="M82.98109,233.37722a13.499,13.499,0,1,1-13.5009-13.5A13.50421,13.50421,0,0,1,82.98109,233.37722Z" fill="#595959"/><path d="M63.16569,226.83382l-.002-.0054C63.16569,226.84652,63.16569,226.84352,63.16569,226.83382Z" fill="#d9d9d9"/><polygon points="62.54 242.118 62.546 242.118 62.546 242.11 62.54 242.118" fill="#d9d9d9"/><polygon points="66.131 227.692 66.146 227.699 66.147 227.699 66.131 227.692" fill="#d9d9d9"/><path d="M76.45479,227.70192s.0771-.1299-.06449-.1045a16.23631,16.23631,0,0,1-2.07621.1836c-.0615.2847-.1914.4546-.2421.7168a1.45427,1.45427,0,0,0,0,.3716.80323.80323,0,0,0,.7285.186A2.567,2.567,0,0,0,76.45479,227.70192Z" fill="#d9d9d9"/><path d="M72.49969,231.05352c.1191.0952.34961.1699.4004.3428a.97509.97509,0,0,1,.0195.2544c1.0195-.1016,2.2236.0346,3.2188-.1036a5.09369,5.09369,0,0,0,.8017-.1328,5.6162,5.6162,0,0,0,1.2988-2.1157,1.3886,1.3886,0,0,0-.3798-.5259,2.64059,2.64059,0,0,1-.4961-.5952c.04-.126.06931-.2466.11031-.4067.35739-1.3301.08689-2.833-1.22461-2.7149a1.38829,1.38829,0,0,0-.8799.3892c-.0634.0635-.1162.206-.1914.2539-.0947.0625-.2178.0415-.3242.0898a2.102,2.102,0,0,0-.6514.8077,2.06455,2.06455,0,0,0-.2832.7807c-.0136.0718-.06929.1753-.0937.2534a.97193.97193,0,0,1,.6279.0235,12.78153,12.78153,0,0,1,.8047-1.4068c.4404.0811,1.09281-.6713,1.416,0a3.08094,3.08094,0,0,1-.0205,1.3404c-.0478.6513.28031.4609.4941.4765a5.79317,5.79317,0,0,1-.8584,1.0987,2.577,2.577,0,0,1-1.4931.8042c-1.2432.1552-1.6485-1.1529-1.2432-2.3218-.2012.0244-.3017-.106-.53509-.0713-.877.1309-.88281.3564-1.33991.9419-.1933.2495-.372.5044-.5762.7373A3.88542,3.88542,0,0,0,72.49969,231.05352Z" fill="#d9d9d9"/><path d="M80.99769,232.68292c-.2675-.4605-1.5537-2.8902-2.0273-2.7837-.2422.0532-.375.5254-.499.7363a6.77917,6.77917,0,0,0-.6485,1.1988c-.0478.3881.2569.5288.36041.7563a2.55475,2.55475,0,0,1,.23239.5557c.0293.1655-.0352.2851,0,.4121a10.11091,10.11091,0,0,0,1.01561,1.6831c.09959.1914.08889.3813.22559.5298.2627-.4419.6192-.7959.8848-1.2427.1992-.3521.3799-.7476.5527-1.104.042-.0947.0508-.2647.1133-.3252C81.25159,233.05742,81.0173,232.71662,80.99769,232.68292Z" fill="#d9d9d9"/><path d="M71.26139,231.25712c-.2959-.4858-.5225-1.0063-1.2324-1.0332-.168.3472-.668,1.043-1.083,1.7412-.01469-.0141-.0323-.0386-.043-.0498.0059-.0386-.0312-.0698-.042-.0991.0049.0195-.0195.0312-.0264.0195-.0527-.0747-.0166.0078-.0869-.0615a2.45214,2.45214,0,0,1-.3466-.5107c-.0684-.0166-.0801-.0894-.1309-.1138l.0088-.002c-.043-.0337-.1973-.3061-.2481-.3491l.003.0147c-.0264-.0147-.0293-.0264-.0284-.042a.03273.03273,0,0,1,.002-.0161l-.0029.0019a.07345.07345,0,0,0-.002-.0405c-.0107.0122-.0234.0107-.0351.0127l.0029-.0176h0l.0156-.0132a2.06069,2.06069,0,0,0-.1601-.4536c.0117-.0088.0136-.0029.0136-.0029a.46967.46967,0,0,0-.07419-.106c.00779-.02.02929-.0278.03809-.0361-.0234.0141-.1387-.2031-.1299-.211l-.0596.0298c-.0175-.042.0616-.0473.02641-.0791-.08691.021-.02641-.0664-.07131-.0571a.03763.03763,0,0,1,.0215-.0327c-.0449.0132-.0185-.0176-.0351-.0244-.0127.0053-.0098.0107-.0245.0195l-.0283-.022c.01171-.0132.0313-.0288.0449-.0215a2.44544,2.44544,0,0,0-.2119-.5058c-.02729.022.0039.0356-.0381.0727-.042-.0053-.0078-.0341-.042-.0293.0713-.0444-.0048-.0546.0655-.1074l-.0469.0142.0205-.02c-.0898-.0704-.02829-.0137-.0654-.0967-.0244-.0401-.0957-.0313-.08889-.0689,0,0-.01761.0254-.03321.02.03321-.02-.042-.018-.00879-.0415-.01171-.0122-.02631-.0473-.06931-.0112.0224-.0195.0166-.0581.0488-.0508-.0058-.0117-.0058-.0263-.0176-.0293l-.0088.022c-.0283-.0361.00491-.0757-.0546-.0771l-.0157.0263c-.0127-.0229-.0263-.0346.0157-.0722l.0351.0156a.17552.17552,0,0,0-.0801-.0786v.0136c-.0683-.0156-.2226-.2031-.2998-.2089l-.0312.0361-.0508-.0107a1.04411,1.04411,0,0,1,.1279-.0435.81687.81687,0,0,1-.1133-.2441c.0118-.0396.0645-.0332.0645-.0332-.0264-.0308-.0449.0034-.0547-.0245l.0361-.0131c-.0078-.0113.003-.0293-.0185-.0186-.0078.022-.05569.04-.085.0605l-.01269-.0322.002-.0049.02729-.0122-.0185.0044c.0039-.0073.0088-.0093.0136-.0176a.147.147,0,0,1-.0839-.0029l-.0069-.0034a.22767.22767,0,0,1-.01559-.0503.4051.4051,0,0,1-.01761-.063.18448.18448,0,0,0-.0302-.0649.05886.05886,0,0,1,.0263.001l.0078-.022c-.02629.0268-.0302-.0152-.039.0039l-.0098-.0039s-.0078-.0054-.0059-.0108l-.0019.0074-.0068-.002c.0048-.0029-.0215-.0273-.0176-.0317-.0088-.0137-.03129-.0484-.0332-.0269,0,0-.0196-.042.00191-.0273a.07375.07375,0,0,1-.01561-.022l-.0029.0098c-.0264-.0298-.0342-.0533-.06349-.0655l.00779.0147c-.0166-.0171-.0361-.0254-.0342-.0425l.02641.0107a.35252.35252,0,0,0-.07811-.0444l-.0166-.0034c-.0127-.022-.0381-.0527-.0401-.0615.00981-.0943-.6465.06-.7314-.045l-.0674-.0747-.249.0391a.68906.68906,0,0,1-.0186-.2769c-.0459-.017-.0195-.0556-.0537-.0742l.0147.002a.45679.45679,0,0,1-.0215-.1494,1.37374,1.37374,0,0,0,.3496-.2408,2.04052,2.04052,0,0,0,.4433-.6098c.0489-.064.05381.0146.0596.0171.0244-.1011-.0195-.0567.0137-.1377.0127-.0205.0244.0132.0244.0293.0068-.0391.0283-.0669.0147-.0762-.0264.0425-.0557.0044-.0899.0093a.58779.58779,0,0,0,.0342-.1026l.0234.0162a1.27872,1.27872,0,0,1,.0059-.3013,1.17438,1.17438,0,0,0-.002-.4448c.0137,0,.0284.0385.042.0795,0-.0283-.0117-.0664,0-.0893-.0215.0483-.0283-.0786-.0351-.042a4.072,4.072,0,0,0-.3164-.3735,1.706,1.706,0,0,0-.2705.0517.91514.91514,0,0,0-.0586-.1592c.1962-.1176.3818-.2495.372-.4272l.0215-.0122-.03809-.0518c-.03321-.0713-.08011-.0771-.05761-.0888l.0645.084c-.0401-.0665.0019-.0337.0283-.0191a.33938.33938,0,0,1-.042-.0801c-.0195-.0073,0,.0152,0,.0318a.56292.56292,0,0,1-.1094-.1026c-.0537-.0605.0264-.0351-.0342-.1074a1.75076,1.75076,0,0,0-1.2519-.6338c-.0108-.0127.0019-.0112.0185-.0166a1.54953,1.54953,0,0,0-.3964.0469.131.131,0,0,1-.0596-.0293c.00881.0059-.166.0483-.3301.1352a2.02564,2.02564,0,0,0-.3144.1871l.0166.0556c-.1094.0845-.0674-.0254-.15729.0713.002.0869-.15131.1582-.15721.2188,0,0-.0449.0454-.0576.0273.0176.043-.03319.064-.0508.1025,0,.0186.01561-.0009.0332-.0034-.01559.0279-.0225.0542-.042.0865-.0234.0234-.0469.0219-.0312-.0176a2.01857,2.01857,0,0,0-.292.8169,2.09855,2.09855,0,0,0,.0908.9214c.0156-.0401-.0313-.1206.00981-.1631.03609.0664.01949.1074.05069.1289-.05069.0508.0342.1636,0,.2402l.0411.0073-.0049.0464c.1836.2788.16011.0034.3037.2642.1015.1377.1992.1387.2412.2222-.002-.0147-.0156-.0572.0225-.0298-.0186.0298.0478.0527.041.0932a.31483.31483,0,0,1,.0361.1485c.0068.0361.082.1098.0244.0825.0283.0254.0547.0566.082.06l-.038-.039c.1084.0766.1611.1445.25.1494l-.0284-.044c.05961.0425.1182.0645.1348.1172l-.0801-.02a.83055.83055,0,0,0,.2188.0698.04968.04968,0,0,0,.0088.0254.09441.09441,0,0,1-.0391.0171c.02441-.0063.0488.1197.044.124l.0439-.0073c.0019.0254-.0508.0142-.0371.0376.0723-.0039-.002.0362.0371.0362-.0049.0024-.0049.0131-.0264.0156.0381-.0034.0117.0122.0186.0156.0097.0015.0127-.0024.0234-.0073l.0196.0136c-.01369.0069-.0372.0157-.0372.0157a.71425.71425,0,0,0,.0176.2788c.0274-.0073.003-.0171.0488-.0288.0264.0044-.0068.0156.0176.0166-.042.0102-.039.0205-.0488.0312a2.41717,2.41717,0,0,0-.5273.2173l-.0528.0083.0098.0293c-.02639.0425.0371.0474-.0156.0557l.0058-.0518c-.01659.0405-.0429.0171-.0762.0108-.0068.0185-.0097.0371-.0273.0488.0205.0044.0225-.0078.0361-.0171.0215.0171.0723.0322.0489.062,0,.0391-.085.0205-.0889.0689l-.001.0161-.0185.0112-.0489-.0356a.08724.08724,0,0,1,.0196-.023c-.0137-.0107-.0381.0039-.0362.0254l.0381.0303c-.0136.0385-.0332-.0122-.0478.018-.0352-.0229-.0186-.0556-.0049-.0771-.0215.0166-.0567.019-.0303.0498-.02929.0102-.0371-.0317-.0664-.0195-.00289.0224.0108.0639-.0234.0673l-.0078-.0058c-.045.0137-.0264.0576-.0381.0942-.01759.0166-.0127-.0073-.0313.0166h-.0058v-.0063c-.0264,0-.0293.0473-.06249.0547l.01749.0039a.07366.07366,0,0,1-.0156.0361c-.0156.0156-.0234.0347-.0527.0381l.0107.0439c-.08589.0928-.1836.2632-.2607.3667l.0019-.0083a6.32044,6.32044,0,0,0-.4589.6592c-.0459.0029-.0674.0376-.0938.0542.0215-.0034.04.0191.0244.0317-.0615.0733.0205.0225-.0293.1084a2.3597,2.3597,0,0,1-.4521.4854c.0078.0747-.0713.1035-.0762.165l-.0088-.0112c-.0195.0571-.2646.2808-.2939.3438l.0088-.001c-.004.0659-.0489.0224-.0928.0415a.12233.12233,0,0,1,.0381.1201l-.0118-.0146a.93072.93072,0,0,1-.0332.1601l-.0244-.0239c.0049.0556-.0556.104-.07519.1264-.05271.0411-.15911.0801-.17871.1778l-.1152-.0205.00391.0156s.03809.0327.10159.0835l-.0079.0156-.0048-.0083a.5988.5988,0,0,0-.0235.1289l-.0117.0142a.585.585,0,0,0,0,.126.72691.72691,0,0,0,.0264.1245l.0156.0019c.0176.044-.0156.0186.0059.0606.0293.0088.0361.0625.0507.0742a1.38712,1.38712,0,0,0-.0234.3047c-.0107.0039-.0107-.001-.0107-.001a.62892.62892,0,0,0,.0195.1035.06127.06127,0,0,1-.042.022c.0244-.0049.0352.2017.03031.2017l.05079-.001c0,.0371-.0586.018-.044.0517.0703.0083-.0019.0616.03321.0733a.03389.03389,0,0,1-.02641.0171c.0342.0029.0069.0161.0176.0263l.0225-.0073.0137.0264-.0293.0136a1.56458,1.56458,0,0,0-.0137.4542c.0205-.0093.0019-.0313.0469-.0445.0293.0181-.0039.0322.0195.0366-.0645.0118-.0107.043-.0791.062h.0361l-.0215.0181c.045.0767.0186.0137.01371.0899.01079.0429.06059.059.044.083,0,0,.02049-.0122.02929-.003-.02929.003.0244.0284-.0069.0357.0049.0093.002.0493.0469.0307-.0225.0054-.02829.0391-.0488.0186,0,.0146-.0059.0264.0019.0376l.01561-.0171c.003.0337-.02631.0566.01269.0747l.0166-.0146c.0059.0234.0108.04-.038.0507l-.0127-.0205a.14925.14925,0,0,0,.0341.0884v-.0112c.0489.0327.0918.228.1495.2598l.0322-.0206.0312.0264-.1035-.0068a3.02479,3.02479,0,0,1,.0332.4594c-.0195.0264-.0566.0064-.0644.0098.0136.0254.03711.0064.03711.0318-.00591.0092-.02931,0-.02931,0,0,.0122-.0078.0239.0058.019.0127-.0156.0528-.0132.0821-.02l-.003.0312-.0263.002s.0771.0097.0615.0459a.8622.8622,0,0,0,0,.167.04952.04952,0,0,1-.0371-.0205s.0019.0175-.0088.0195c.0264-.0122.0215.0225.0215.0225.0801.0219.0205.081.0674.1137l.0976-.0034c-.06439.1533-.1709.4155-.2021.5264l-.0459.0112c.01661.0342-.0127.0532-.002.0967-.0107.0161-.0342.0029-.0371-.0083.0078.0376-.0322.062-.0166.0884l.0127-.001c.01661.06-.082.0586-.06539.125h.00779c.0137.0317-.0322.0439-.04879.0596.00289.0336.041.019.04879.0454-.042-.0035.1973.1728.1904.1958.0137-.0244.0332-.0508.0645-.0352-.01369.0288.3007.1196.2744.1524l.1006-.0074a.0267.0267,0,0,0,0,.0484c-.0078-.0039-.003-.0205,0-.0367l.625.0982c.0654-.0293.0244-.1221.1142-.1436.0108.0171.0157-.0327.04011-.0048-.00691-.0137,0-.024.00289-.0391-.0195.0142-.0293.0234-.0508.0195.0215-.0737.0576-.1445.0713-.2182-.0029-.0474.0879-.0411.0879-.0411l-.03129-.0097.01269-.0435c.0264.0215.0801.0313.087.0518.0195.0039.0087-.0122.0087-.0254l-.0263-.0034c.00491-.0342.0967-.1079.125-.1426,0,0-.0479.0112-.0645-.0264.0039-.0786-.2763-.583-.3193-.7553l.0244-.001c0,.0107,0,.0239-.0068.0273a.02831.02831,0,0,0,.0127-.042l-.0323.0049v-.0049c-.0029-.0107.0196-.0068.01471-.0273.03319-.0068.03609.0166.041.0386.00289-.0191.02149-.0386-.00781-.0454.0107-.0147.0342-.003.04781-.0245-.01071-.0131-.04-.0288-.02141-.0449l.0029-.0029c.0312-.0425-.0508-.0571-.0166-.1006l.0088.0034c.0156-.0141-.0059-.0395.0097-.0639,0,0-.0283.0151-.0312,0,.0176-.0274-.002-.0435.0215-.066l-.0352-.018c.0029-.0948-.0586-.4746-.0683-.5694l.00681.003a4.10235,4.10235,0,0,0-.08111-.5967c.0284-.0264.0215-.0601.0264-.0855-.0137.0181-.0361.0132-.0312.001.00191-.0737-.0225-.001-.0362-.0771a1.49419,1.49419,0,0,1,.0049-.502c-.0469-.0376-.0176-.0903-.042-.1318l.0049.0034c-.0156-.0381.0137-.2944-.0049-.3379l-.0019.0029c-.0293-.04.0156-.04.0293-.0752a.07462.07462,0,0,1-.0831-.0405l.00791.0024a.19884.19884,0,0,0-.02931-.0507,2.00623,2.00623,0,0,0,.3505-.3384c.0166.0083.01181.0107.0147.0185.0205-.0502.0527-.0849.07711-.1328a.50624.50624,0,0,1,.05079.0171c-.0312-.0112.1416-.227.1524-.2236l-.044-.043c.0283-.0405.0635.0357.0791-.0097-.0527-.0723.0606-.0572.0371-.0997a.03679.03679,0,0,1,.041.0069c-.0332-.0362.0069-.0249.0049-.0445-.0029-.0131-.0088-.0058-.0244-.0141l.0078-.0391c.0205.0039.045.0196.0401.0352a3.45448,3.45448,0,0,0,.4209-.4478c-.0362-.0146-.0381.022-.0889-.0024-.00879-.041.03321-.023.0137-.0518.0752.0435.0508-.0366.1328.0069l-.03129-.0352.02839.0064c.01561-.0582.01561-.0665.0195-.0684a.743.743,0,0,0,.0156.1011c.0547-.0337.0156-.0625.1006-.0928.0527.0229-.0137.0493.042.0552-.1338.041-.0225.081-.1533.1342l.07421-.0058-.04491.0283c.08691.1358.039.0264.0341.1611.0186.0796.125.0904.0899.1416,0,0,.04591-.0322.0674-.0161-.0674.0161.0498.0396-.0108.065.0069.0176.0069.0844.0899.0395-.043.0235-.0557.0835-.0987.0572-.00189.0205-.0107.0434.0118.0517l.0214-.0312c.0176.0615-.0507.1113.0362.1377l.0342-.0328c.0117.0352.01851.0699-.0684.1036l-.0352-.0372a.20827.20827,0,0,0,.0723.1436v-.0166c.0957.0493.2051.3872.3164.4233l.0693-.0371.0606.041c0-.0087-.2266.0206-.2022.0093a4.58546,4.58546,0,0,1,.0889.814.12339.12339,0,0,1-.1133.0312c.0196.0469.0664.0088.0645.0542-.0137.0162-.0576.0098-.0576.0098s-.0244.0337.0127.0288c.02051-.0264.1084-.0332.1611-.0576v.0576l-.0547.0112c0,.0108.1514.0025.127.0611a.34672.34672,0,0,0,.0019.0635l-.1846-.0074c.002-.0161.0069-.0322.0166-.0361-.0244,0-.0429.0347-.0292.0518l.0595.0083c.0196.0361-.03709.0058-.0332.0444-.0478,0-.0576-.0371-.0625-.0684-.0078.0298-.041.0542.0117.0684-.0244.0244-.0625-.0044-.0859.0244.0156.0244.0557.0576.0293.082l-.0098-.0009c-.05369.059.07131.1035.0186.1591l-.0186-.0112c-.0302.0195.002.063-.0273.1016.0078-.0117.0459-.0205.0498.0039-.03319.0449-.002.0761-.0449.1015l.0449.0323c-.0156.1484.0244.5879.0244.7363l-.0068-.0059a7.02148,7.02148,0,0,0,.08.9493c-.0507.0312-.0429.0815-.0605.1191.0225-.022.0508-.0088.0508.0063-.0108.1167.0293.0093.0488.128a2.37754,2.37754,0,0,1-.1016.7758c.0665.0689.0118.146.0508.2115l-.0175-.0088c.02241.0742-.0704.4556-.0459.5351l.0078-.0107c.04.0698-.0371.0591-.0616.1094a.11961.11961,0,0,1,.12211.0849l-.01761-.0014a.805.805,0,0,1,.0821.1728l-.045-.0058c.0108.0097.0069.0234.0108.0356-.0195.0083-.0401.0191-.0352.0327l.0508.02v.021c-.0127-.0019-.0283-.0048-.0322.0181-.05369-.0156-.0498-.0532-.0479-.0845-.0127.0264-.0586.0381-.00579.0689-.02831.018-.06351-.0239-.09571.0014.01171.0254.0508.0674.0136.0821l-.0107-.0049c-.0684.042.0684.0215,0,.0591l-.0127-.0132c-.0342.0093-.0078.0625-.0508.084.0137-.0039.0528-.002.0528.0195-.045.0293-.02349.0679-.0713.084l.042.04c-.0577.1392-.1641.6963-.2041.8345l-.0059-.0054c-.042.2183-.3564.6187-.3584.8594-.0586.0156-.0635.0635-.0879.0952.0244-.0122.0567.0093.0508.02-.04.104.0322.0176.0156.1329a1.45564,1.45564,0,0,1-.2334.5903c.0508.0776-.0263.1348,0,.2104l-.0156-.0136c.0049.0688-.1768.4023-.1768.4795l.0166-.004c.0264.0752-.0498.0416-.0888.0865a.12685.12685,0,0,1,.1054.1093l-.0166-.0083c.003.0362-.1826.1055-.1884.1641l-.045-.0176c.03131.0547-.01269.1304-.0195.1626-.042.064.04.2193.0664.334l-.14259.0191.01079.0151s.2021.082.4668.1797l-.1963-.0318c-.0322.1797-.1758.8165-.1856.9844l-.05369.0264c.03419.0415,0,.0713.02349.1221-.0069.0253-.045.0107-.0498-.0039.02631.0458-.0196.0859.0048.1147l.0166-.0068c.04591.0766-.0869.0952-.0429.1738h.00581c.02929.0327-.02631.0591-.04291.082.0166.041.0586.0132.0771.0454-.0527.0078-.0234.0415-.0215.0801.0108-.0376.0264-.0762.07231-.0703-.01071.0474.05079.0186.02639.0596l-.0616-.0059c-.0156.0176-.00779.061.0088.0625,0,0,0-.0205.002-.0425l1.7256.1089c.0771-.0508,1.46681.043,1.581-.0132.0156.0215.0049-.0434.05081-.0136-.02151-.0118-.01071-.0313-.00781-.042-.0186.0156-.0381.0361-.0615.0346.0029-.0986-.1895-.3354-.1963-.4321-.0196-.0581.10061-.0615.10061-.0747l-.043-.0034-.79391-.2515c.0263.0015.0136-.0185.0205-.0371-.0137.0068-.045.0166-.0528.0024,0-.0459.03421-.0083.0508-.059,0,0-.05859.0263-.0879-.0157-.01369-.0835-.38769-.311-.5762-.4697.0049-.0049.0069-.0132.0157-.0146-.0137-.0118-.0157-.001-.0274-.003-.0127-.0171-.042-.0547-.0185-.0654.01071-.0273.0693.02.0859-.0122.0967-.1777.0264-.4189.0752-.6079.01661.0015.01661.0054.01661.0054.00489-.0567.02929-.1026.02929-.1617a.2768.2768,0,0,1,.0693,0c-.0361-.0039.0567-.2998.0703-.3007l-.08-.0279c.0156-.0571.0927.0083.0927-.041-.1044-.0615.0401-.0854-.0127-.1216a.05137.05137,0,0,1,.0528-.0117c-.0596-.0249-.0069-.0303-.01369-.0478-.01271-.0132-.02151-.0025-.03911-.0025l-.0087-.0405c.0214-.0137.0615-.0054.0615.0141a2.95255,2.95255,0,0,0,.2656-.6411c-.0527,0-.0322.044-.1064.0293-.0284-.0381.0293-.0341-.0088-.0634.1093.0273.04291-.0489.1572-.0308l-.0576-.0283.04-.002c-.0215-.1391-.0195-.0376.02931-.1401.01269-.0615-.06251-.1221-.02051-.1406,0,0-.0449.0029-.0547-.0186.0547.0186-.0244-.0547.0323-.0449.00191-.0191.0224-.0664-.0567-.0737.0371.0053.0703-.0323.0899.0009.01171-.0141.0263-.0239.01171-.0405l-.02441.0107c.0058-.0542.163-.1328.1093-.186l.0537.1592c.0069-.0337-.0771-.2119-.0058-.1968l.0146.0391a.19723.19723,0,0,0-.0048-.1397l-.0079.0147c-.05269-.0782.0704-.2315-.0048-.3111l-.0616.0083-.0312-.059a1.14173,1.14173,0,0,1,.1513.0761,4.55047,4.55047,0,0,1,.1905-.6162c.0029.0005.0107-.0005.0029.0054.0137-.0073.03321-.0083.0381-.0205l-.0215.0049c.01761-.0088.0215-.0176.0342-.0235a.17211.17211,0,0,1,.0537.0196.04342.04342,0,0,0-.0225-.0425.09873.09873,0,0,0,.0225-.0132.17392.17392,0,0,1,.0234.0112c-.0048-.0141.002-.0205-.0048-.0268.0136-.0098.0244-.024.04-.0215l-.0234.0278a.27347.27347,0,0,0,.0869-.0976l-.0137.0146a.94574.94574,0,0,0,.0889-.1816.38936.38936,0,0,0,.02341-.1866l-.01951.0191a.16313.16313,0,0,0-.0088-.0435l.0439.0327c0-.0107.002-.0288.002-.0483l.0137.001v-.0288c.0244-.0303-.0235-.0484.0195-.0459l-.00879.0459c.01369-.0303.03609-.0064.05759.0107a.084.084,0,0,1,.0225-.039c-.0127-.0079-.0157.0019-.0274.0068-.01269-.0161-.05269-.0449-.0283-.064.0049-.0342.0693,0,.0791-.0395a3.09324,3.09324,0,0,0,.10651-.6045c.02439-.002.01849.0054.01849.0054a1.24661,1.24661,0,0,0-.0107-.1695.37842.37842,0,0,1,.0674-.0239c-.03719.0107-.0215-.313-.0108-.314l-.0791-.0107c.002-.0615.0899-.0127.0723-.0723-.1055-.0278.0195-.0893-.0391-.1157a.05663.05663,0,0,1,.0508-.023c-.0615-.0112-.0117-.0307-.0264-.0463-.0185-.0074-.0185.0014-.0381.0053l-.0175-.039c.0175-.0108.0556-.0147.0615-.0025a3.537,3.537,0,0,0,.07321-.4013c.07819.0952.167.2412.24319.2617l.0527-.0376.0576.0303a1.01472,1.01472,0,0,1-.1738.0175,3.69379,3.69379,0,0,1,.1738.6802c-.0244.0405-.0898.0293-.0898.0293.0244.0405.0557.0044.0586.0435-.0078.0117-.0459.0117-.0566.0053.0126.0147-.004.0337.0244.0303.0156-.0278.0898-.0395.1328-.0566l.0058.0493-.0459.0097c.002.0083.1299-.0083.12021.0445,0,.0835.03409.1621.04189.2456a.09227.09227,0,0,1-.0683-.0195c.0019.0131.0127.0263-.0029.0419.042-.0312.039.022.0556.0049.126.0254.0391.1284.1328.1607l.0723-.0254a.10775.10775,0,0,1,.0107.0303c.0157.0253.00691.0327.00691.0327a1.00976,1.00976,0,0,0,.06439.0864c-.0156.2056-.0058.6519-.0136.7764l-.0049-.0074c0,.2227-.2178.6822-.16989.9141-.05281.0288-.04981.0796-.06451.1143.02251-.0186.0557-.0078.0537.0063-.0176.1162.0352.0122.042.1265a1.40035,1.40035,0,0,1-.1016.6284c.07041.0679.0059.1411.0469.206l-.0166-.0107c.0186.0693-.08789.4273-.0693.5083l.0107-.0107c.0391.0698-.04.0527-.07129.1015a.14619.14619,0,0,1,.12989.084l-.0215-.001c.0157.0371-.1533.1451-.14839.1978l-.04591-.0083c.04591.0508.0127.1357.0176.1655-.0264.0737.0888.2095.1377.315l-.1377.0468.0127.0113s.0742.0131.1855.0302c-.0371.1919-.0898.4341-.0986.566l-.0537.0263c.0332.044,0,.0786.02441.128-.00781.0292-.03911.0146-.05081.0014.0244.044-.0195.0943.00881.1221l.01269-.0122c.043.0771-.0869.1084-.0459.1845h.0068c.02641.0352-.0263.0694-.0478.0938.0195.041.0654.0088.0791.043-.0557.0097-.0205.0429-.0205.0786.0107-.0366.0263-.0806.0742-.0689-.0108.0445.0508.0108.02341.0586l-.05761-.0009c-.0195.017-.0117.0595.0068.0576V243.2l2.4463.1162c.0772-.0567.6153.001.72951-.063.01659.0181.01169-.0464.05369-.0171-.0156-.0117-.01069-.0337-.0078-.0508a.08156.08156,0,0,1-.0635.0415c.003-.0991.0313-.2055.0274-.3032-.0166-.064.0986-.0859.0986-.0859h-.039v-.0601c-.1328-.0698-.0157.0796-.19339-.0366.02049.0029-.17871-.0996-.16991-.1216-.0088.0064-.04009.0191-.0537.0064.0049-.0474-.2979-.0874-.2715-.1426a1.89684,1.89684,0,0,1-.4141-.1934c-.0146-.0732-.2685-.1377-.4453-.208l-.0039-.0244c.02641-.0273-.0244-.0474.0186-.043l-.0108.043c.0215-.0273.042-.0039.0664.0103a.04962.04962,0,0,1,.0244-.0313c-.0136-.0107-.0166.001-.0166.001-.0234-.0142-.0634-.0425-.039-.0601.0029-.0312.0703.0059.0801-.0303.0546-.1928-.0674-.414-.0596-.6123.0215.001.0215.0049.0215.0049a1.01864,1.01864,0,0,0-.0088-.164.19292.19292,0,0,1,.0683-.0147c-.038.0064-.0088-.2988.002-.3091l-.07909-.0107c.00489-.0567.09469-.0083.07909-.0635-.1123-.0332.0156-.0869-.03709-.1147a.04951.04951,0,0,1,.05269-.0171c-.0664-.0181-.01269-.0313-.0264-.0474-.0224-.0083-.0224.0025-.0419.0039l-.0196-.0386c.0215-.0131.0586-.0131.0635.0054a2.71267,2.71267,0,0,0,.126-.6792c-.0489.0064-.0196.044-.0996.0493-.0371-.0346.0224-.0429-.0244-.059.1181-.0025.0361-.0601.1523-.0723l-.0635-.0122.0401-.0098c-.0508-.1338-.0274-.0332-.003-.1387-.0019-.0683-.0849-.1088-.0508-.1386,0,0-.039.0132-.0527-.0034.0527.0034-.0371-.0499.0186-.0508-.0049-.0171.0078-.0699-.0694-.0601.03811-.0063.0596-.0498.0909-.0176,0-.0175.0156-.0312,0-.041l-.0245.0132c-.0068-.0527.1329-.1626.0664-.2061l.0889.1421c0-.0322-.123-.1855-.0459-.1914l.0186.0371a.177.177,0,0,0-.03129-.1352l-.00581.0146c-.0713-.0678.0185-.2382-.0713-.2968l-.0596.0166-.0439-.0484c-.002.0049.1884.0405.166.0405a3.61722,3.61722,0,0,1,.0615-.6801c.03811-.0376.0937.0009.0937.0009-.0087-.0458-.0488-.0224-.0429-.06.0136-.0112.0449.0058.0556.0122-.0087-.0171.01371-.0283-.0127-.0303-.0224.0156-.0957-.0024-.1445.001l.0137-.0435.0459.0049c.0029-.0093-.125-.0385-.0908-.0844.0263-.0738.0185-.1631.04-.2403.0244.0034.03711.0215.0537.0435.0049-.0132-.0029-.0288.0176-.0362-.0537.0142-.0293-.0376-.0498-.0253a.106.106,0,0,1-.0322-.0357c.0019-.0044.0087-.0098.00581-.0151l-.00681.0127-.0029-.0025c.0175-.0449.038-.0752.0302-.1079l-.0156.0181c.0078-.0342.0107-.0606.0313-.0723l.0029.0361a.44941.44941,0,0,0,0-.1352l-.0029.0181c-.0049-.0254-.0157-.0884-.0333-.1558.0049-.0151.0049-.0298-.0068-.0371l-.0068-.0015-.0059-.0088a.08108.08108,0,0,0-.0137-.0351.065.065,0,0,1,.0665.0473c.0029-.0297.0322-.0664-.0264-.0629.0127-.0289.0615-.0152.0771-.0489-.0185-.0195-.0742-.0351-.0507-.0664l.0087-.0054c.0372-.0737-.1015-.0683-.0615-.1411l.0195.002c.0264-.0283-.0263-.0547-.00289-.0982-.00881.0108-.04291.0328-.05661.0132.0234-.0508-.0127-.0713.01561-.1113l-.05571-.0132c-.0234-.146-.1904-.5264-.2304-.6714l.0068.0039a5.45005,5.45005,0,0,0-.30269-.8672c.04289-.0463.01949-.0922.02239-.1337-.0136.0263-.0537.0341-.0556.0185-.0196-.1162-.0362,0-.084-.1103a2.08394,2.08394,0,0,1-.126-.751c-.0889-.0386-.05079-.1338-.1152-.1782l.0185.0009c-.0429-.059-.0625-.4414-.1064-.5092l-.0049.0107c-.0625-.0532.0225-.0654.0293-.123a.12413.12413,0,0,1-.1514-.0362l.0157-.0014c-.0196-.0254-.1055-.0845-.1329-.1329l.0479-.0107a.10954.10954,0,0,1-.0527-.0757l.1884-.0342a.0575.0575,0,0,1-.0156.0474c.0332-.0122.0498-.0532.0264-.0669l-.0752.0112c-.0283-.04.043-.0229.0312-.0639a.06972.06972,0,0,1,.0938.0566c.0029-.0312.0478-.0722-.0264-.0722.0264-.0352.0772-.0147.1016-.0567-.0225-.021-.0821-.0449-.0508-.0791l.0127-.0078c.0566-.082-.1065-.0908-.0469-.1685l.0205.002c.0332-.0332-.0156-.0679.0157-.1187-.0088.0157-.0557.0347-.0665.0108.0352-.0576-.0068-.083.0381-.127l-.0654-.0239c-.0029-.1431-.0967-.6001-.1465-.8564l.0235-.0127a.63161.63161,0,0,0,.05071.082c-.00681.0107-.01171.0098-.01171.0098.0342.0312.05571.0698.0938.0991a.07178.07178,0,0,1-.0244.043c.0195-.0225.1718.1835.1699.1884l.04-.0293c.0313.0415-.0342.0508.0049.0782.0586-.0289.0371.0625.0752.0566a.02349.02349,0,0,1-.01369.0298c.03519-.0156.02349.0156.03809.022.0147-.0064.0098-.0123.0098-.0123l.0342.0059a.06082.06082,0,0,1-.0157.0327,2.37331,2.37331,0,0,0,.3115.4756c.0127-.0264-.0156-.0347.0108-.0747.0312.0024.0088.0352.04.0205-.0459.0566.0196.0566-.0215.1148l.0342-.0181-.0166.0239c.0987.0581.03321.0078.084.0835.0391.0425.0889.0308.0947.064,0,0,.0049-.0254.0264-.0196-.0264.0196.03811.0137.0166.0425.0127.0073.0303.0484.0547.0025-.0068.0214.0107.0615-.0205.0527,0,0,.0068.0244.0244.0293v-.0215c.0283.0313.0205.0723.0693.0698l.002-.0219c.01761.0195.0342.0366.0049.0703l-.0235-.0147a.20834.20834,0,0,0,.0869.0723l-.0068-.0132a1.06627,1.06627,0,0,1,.2168.1348.961.961,0,0,0-.0371.5219,8.5987,8.5987,0,0,0,.626.7378c.1767.2246.3818.4673.56541.7159-.00781.0312-.02251.0634.01069.0918l.0079-.0064c.0293.0205,0,.0557-.0049.0767.02631.0288.0469-.0078.06831.0102-.01071.0083.01469.0122.05079.0161.0205.0367.0557.0718.07421.1079.14649.25.12019.6499.39069.7613a.48079.48079,0,0,0,.3242.0224,18.35646,18.35646,0,0,0,1.6152-3.7524C72.05049,231.91632,71.47819,231.63162,71.26139,231.25712Zm-7.4824,6.2451a.11859.11859,0,0,1,.0176-.0215.11171.11171,0,0,1,.0088.0298Zm1.4238,1.065-.0019.0009.0019-.0009Z" fill="#d9d9d9"/><path d="M77.28779,232.51982c-.9112.0376-2.1416-.0347-3.086-.0264-.333.0039-1.2089-.0395-1.4316.1773-.125.1245-.1113.6679-.1621.873-.0801.2901-.26079.5083-.3506.7954-.2246.729-.3398,1.4287-.6006,2.0913a1.13738,1.13738,0,0,0-.1465.4776.32767.32767,0,0,0,.2901.2949c.2832.0469.5224-.0605.7451.1016l4.2832-.0357a2.40428,2.40428,0,0,0,1.2578-.1167c.3652-.1064.7119.0904.8574-.2734.32331-.7974-1.0722-2.7852-1.3232-3.335C77.47619,233.23762,77.41569,232.84112,77.28779,232.51982Z" fill="#d9d9d9"/><path d="M22.41491,112.58465A13.50613,13.50613,0,0,0,9.05775,124.1222c.35668-.0094.74417-.02149.8381-.03488a9.92835,9.92835,0,0,1,2.07171-.1301c.07649.00673.15826.01881.24813.0335a2.36563,2.36563,0,0,0,.61413.0309,2.38978,2.38978,0,0,0,.63693-.21187,2.82257,2.82257,0,0,1,.35269-.14617,1.27646,1.27646,0,0,1,.26955-.051,1.23586,1.23586,0,0,0,.43576-.1207,3.47463,3.47463,0,0,0,.61956-.822,5.364,5.364,0,0,1,.657-.9051,6.20726,6.20726,0,0,1,1.13043-.74157,9.667,9.667,0,0,0,.96552-.61145,5.19082,5.19082,0,0,0,.89439-.99772,5.99837,5.99837,0,0,1,.7-.82065,4.35672,4.35672,0,0,1,2.79721-.86357c.25479-.02684.5176-.04826.79923-.08445.2977-.03357.61283-.09392.91321-.15152.28828-.055.55914-.10862.80458-.13683a3.956,3.956,0,0,1,2.32115.48279,5.10748,5.10748,0,0,0,1.2766.4532c.067.01209.1448.02149.22526.03488.39293.059.98427.15022,1.12906.37548a.72021.72021,0,0,1-.1542.81125c-.57527.65039-2.01274.78447-3.07479.58331a1.31554,1.31554,0,0,1-.27758-.10992.88152.88152,0,0,0-.60473-.14617.8582.8582,0,0,0-.32989.2105.96068.96068,0,0,1-.20384.14885,4.72211,4.72211,0,0,1-1.79956.21991l.00535.00267-.012-.00267h.00666a1.49875,1.49875,0,0,0-.67854.01345c-.24668.14617-.39155,1.0808-.60473,2.59474a12.46536,12.46536,0,0,1-.27758,1.60108,6.03943,6.03943,0,0,1-1.30612,1.96983c-.17164.20254-.35667.41166-.52159.62223-.04558.05768-.08987.10059-.12873.14617a.98483.98483,0,0,0-.24.32715l-.03357.07649.06845.05094a1.77344,1.77344,0,0,1,.834,1.77807l-.00941.06035.05232.03893a1.10787,1.10787,0,0,1,.40226.69192c.03755.12736.07779.27222.13951.4291a2.8604,2.8604,0,0,0,1.91483,1.42,2.29288,2.29288,0,0,0,1.08485.03083,1.12871,1.12871,0,0,0,.49213-.2427l.11-.08713-.11267-.07916a3.81342,3.81342,0,0,0-1.231-.4291c-.92254-.21318-1.78878-.413-1.64268-1.349a.64106.64106,0,0,1,.16766-.42643c.2749-.24943,1.65469.0644,2.31846.21723.19046.04024.35269.08047.472.10058a9.08833,9.08833,0,0,0,1.08889.08047c.936.0322,2.09321.07106,2.3815.56992a.899.899,0,0,1-.1126.85416,1.869,1.869,0,0,1-.9695.8488,2.42018,2.42018,0,0,1-1.12377-.07642c-.14885-.0322-.28424-.06165-.42238-.08046l-.06838-.00941-.0335.05767c-.59272,1.00843-1.35034,1.04729-2.48613,1.109-.3634.02011-.78447.04558-1.227.10724a6.38669,6.38669,0,0,0-.90379.20116,4.66584,4.66584,0,0,1-2.07584.21991,8.8447,8.8447,0,0,1-1.699-.535,9.6069,9.6069,0,0,0-1.43616-.46934,2.85087,2.85087,0,0,0-1.48442.19176c-.15826.04964-.30175.09921-.43982.13278-.37411.08713-.77644.1542-1.16531.22657-.232.04291-.75357.07511-1.24838.11939a13.49766,13.49766,0,1,0,11.25722-20.94029Z" fill="#686166"/><path d="M25.67212,130.05723a9.08833,9.08833,0,0,1-1.08889-.08047c-.11933-.02011-.28156-.06034-.472-.10058-.66377-.15283-2.04356-.46666-2.31846-.21723a.64106.64106,0,0,0-.16766.42643c-.1461.936.72014,1.13579,1.64268,1.349a3.81342,3.81342,0,0,1,1.231.4291l.11267.07916-.11.08713a1.12871,1.12871,0,0,1-.49213.2427,2.29288,2.29288,0,0,1-1.08485-.03083,2.8604,2.8604,0,0,1-1.91483-1.42c-.06172-.15688-.102-.30174-.13951-.4291a1.10787,1.10787,0,0,0-.40226-.69192l-.05232-.03893.00941-.06035a1.77344,1.77344,0,0,0-.834-1.77807l-.06845-.05094.03357-.07649a.98483.98483,0,0,1,.24-.32715c.03886-.04558.08315-.08849.12873-.14617.16492-.21057.34995-.41969.52159-.62223a6.03943,6.03943,0,0,0,1.30612-1.96983,12.46536,12.46536,0,0,0,.27758-1.60108c.21318-1.51394.358-2.44857.60473-2.59474a1.49875,1.49875,0,0,1,.67854-.01345,4.72211,4.72211,0,0,0,1.79956-.21991.96068.96068,0,0,0,.20384-.14885.8582.8582,0,0,1,.32989-.2105.88152.88152,0,0,1,.60473.14617,1.31554,1.31554,0,0,0,.27758.10992c1.062.20116,2.49952.06708,3.07479-.58331a.72021.72021,0,0,0,.1542-.81125c-.14479-.22526-.73613-.3165-1.12906-.37548-.08046-.01339-.15825-.02279-.22526-.03488a5.10748,5.10748,0,0,1-1.2766-.4532,3.956,3.956,0,0,0-2.32115-.48279c-.24544.02821-.5163.08183-.80458.13683-.30038.0576-.61551.11795-.91321.15152-.28163.03619-.54444.05761-.79923.08445a4.35672,4.35672,0,0,0-2.79721.86357,5.99837,5.99837,0,0,0-.7.82065,5.19082,5.19082,0,0,1-.89439.99772,9.667,9.667,0,0,1-.96552.61145,6.20726,6.20726,0,0,0-1.13043.74157,5.364,5.364,0,0,0-.657.9051,3.47463,3.47463,0,0,1-.61956.822,1.23586,1.23586,0,0,1-.43576.1207,1.27646,1.27646,0,0,0-.26955.051,2.82257,2.82257,0,0,0-.35269.14617,2.38978,2.38978,0,0,1-.63693.21187,2.36563,2.36563,0,0,1-.61413-.0309c-.08987-.01469-.17164-.02677-.24813-.0335a9.92835,9.92835,0,0,0-2.07171.1301c-.09393.01339-.48142.02548-.8381.03488a14.62577,14.62577,0,0,0-.14081,1.96448,13.42454,13.42454,0,0,0,2.24075,7.43826c.49481-.04428,1.01639-.07648,1.24838-.11939.38887-.07237.7912-.13944,1.16531-.22657.13807-.03357.28156-.08314.43982-.13278a2.85087,2.85087,0,0,1,1.48442-.19176,9.6069,9.6069,0,0,1,1.43616.46934,8.8447,8.8447,0,0,0,1.699.535,4.66584,4.66584,0,0,0,2.07584-.21991,6.38669,6.38669,0,0,1,.90379-.20116c.4425-.06166.86357-.08713,1.227-.10724,1.13579-.06173,1.89341-.10059,2.48613-1.109l.0335-.05767.06838.00941c.13814.01881.27353.04826.42238.08046a2.42018,2.42018,0,0,0,1.12377.07642,1.869,1.869,0,0,0,.9695-.8488.899.899,0,0,0,.1126-.85416C27.76533,130.12829,26.60812,130.08943,25.67212,130.05723Z" fill="#d9d9d9"/><polygon points="23.319 120.424 23.313 120.421 23.307 120.421 23.319 120.424" fill="#d9d9d9"/><path d="M28.26282,120.62634a1.70524,1.70524,0,0,0-.59938.16354,2.22986,2.22986,0,0,1-.48945.15963,10.81785,10.81785,0,0,1-1.14787.09385c-.33388.01607-.64228.02815-.928.067l-.08314.00941a6.44435,6.44435,0,0,0-1.79551.39958.94276.94276,0,0,0-.49481.63967.832.832,0,0,0,.173.72412c.19038.2333.32179.25342.66109.31514.063.012.14075.02279.22122.04154a3.88417,3.88417,0,0,1,.40232.10326,4.14428,4.14428,0,0,0,.68925.15152,9.58834,9.58834,0,0,0,2.90315-.23872c.28561-.05492.55646-.10724.82333-.14885a2.35953,2.35953,0,0,1,.30167-.02677.947.947,0,0,0,.43989-.0872,1.01,1.01,0,0,0,.46934-.72007,1.51121,1.51121,0,0,0-.33258-1.16531A1.35775,1.35775,0,0,0,28.26282,120.62634Z" fill="#d9d9d9"/><path d="M30.25949,124.67331c-.17164-.62491-.81262-.90648-1.75933-.77912a1.66671,1.66671,0,0,0-.362.10862,1.80875,1.80875,0,0,1-.34864.11665,13.17589,13.17589,0,0,1-3.36583.06577c-.10724-.00941-.22258-.02685-.3312-.04023-.68251-.0966-1.32617-.181-1.74724.26549-.2736.291-.3621.5404-.2736.76566.1542.39958,1.04063,1.11437,5.22169,1.42813l.17033.01339a4.64492,4.64492,0,0,0,1.758-.07106A1.70542,1.70542,0,0,0,30.25949,124.67331Z" fill="#d9d9d9"/><path d="M27.99863,127.35785l.055-.01606c-.03618-.00268-.2977,0-.50552.0094-.37411.00666-.64633.01744-.7268.00666-.37281-.03748-.75763-.071-1.17066-.10724-.70669-.05362-1.44283-.11266-2.16564-.2186a2.52651,2.52651,0,0,1-.43309-.11129,2.047,2.047,0,0,0-.93064-.1126.883.883,0,0,0-.71073.70263.91349.91349,0,0,0,.30174.98557,11.36077,11.36077,0,0,0,3.93437.98694,3.81306,3.81306,0,0,0,.6611-.012,2.55017,2.55017,0,0,1,.77369.012,1.641,1.641,0,0,1,.37013.14219,1.15725,1.15725,0,0,0,.78983.15015,1.58081,1.58081,0,0,0,1.00163-.76834.934.934,0,0,0,.13683-.99634A1.5578,1.5578,0,0,0,27.99863,127.35785Z" fill="#d9d9d9"/><polygon points="19.589 170.584 16.485 160.042 21.759 158.487 8.661 150.48 8.661 150.48 2 164.308 7.267 162.756 10.373 173.297 19.589 170.584" fill="#fff" stroke="#fff" stroke-linecap="round" stroke-linejoin="round" stroke-width="4"/><rect x="11.0977" y="173.20747" width="9.60845" height="3.71958" transform="translate(-48.68781 11.57542) rotate(-16.36707)" stroke-width="4" stroke="#fff" stroke-linecap="round" stroke-linejoin="round" fill="#fff"/><rect x="12.27795" y="178.142" width="9.60834" height="1.8615" transform="translate(-49.8593 12.1066) rotate(-16.39816)" stroke-width="4" stroke="#fff" stroke-linecap="round" stroke-linejoin="round" fill="#fff"/><polygon points="19.589 170.584 16.485 160.042 21.759 158.487 8.661 150.48 8.661 150.48 2 164.308 7.267 162.756 10.373 173.297 19.589 170.584" fill="#252525"/><rect x="11.0977" y="173.20747" width="9.60845" height="3.71958" transform="translate(-48.68781 11.57542) rotate(-16.36707)" fill="#252525"/><rect x="12.27795" y="178.142" width="9.60834" height="1.8615" transform="translate(-49.8593 12.1066) rotate(-16.39816)" fill="#252525"/></g></g></svg>