<svg xmlns="http://www.w3.org/2000/svg" viewBox="0 0 112.99269 229.542"><title>MAESTRO-Pe06-rapport-mouflage-9</title><g id="Calque_2" data-name="Calque 2"><g id="Calque_1-2" data-name="Calque 1"><path d="M60.08538,29.2901a9.78816,9.78816,0,0,1-2.2021-.2442,1.11969,1.11969,0,0,1,.4883-2.1855c5.35642,1.1973,10.23142-3.7822,10.2812-3.834a1.12025,1.12025,0,0,1,1.6133,1.5547C70.05908,24.795,65.65868,29.2901,60.08538,29.2901Z" fill="#34b3d1" stroke="#000" stroke-width="0.8"/><path d="M11.25968,35.0938l.2408-26.1943,1.0527-.0157s.0386-1.1484.1284-1.7978a6.60885,6.60885,0,0,1,.3218-1.2588l-.2246-1.3213a9.50861,9.50861,0,0,1,1.2383-.4492S8.56828-.6611,8.23828,9.0938c-.896,26.4795,2.6533,27.9014,2.9126,28.0752.9033.6035.0795.4316.49212.0683Z" fill="#fff" stroke="#000" stroke-width="0.8"/><path d="M13.76318,38.0235c.9326-.5137,2.6504-1.9453,3.3076-5.2041,2.29-11.334,1.0303-19.0742.5981-24.211-.2495-2.9365-.4135-2.3242-.4135-2.3242-.0206-.0791-.7295-2.2422-1.875-2.625a4.636,4.636,0,0,0-3.6573.3975c-.57908.3096,1.293-.3067,2.0088,2.0058a52.67474,52.67474,0,0,1,.7925,6.1592c.5225,5.6533-.0249,21.3692.1035,21.7324.0625.1836-.977.9776-.938,1.1661.1446.7119.5625.6406.2818,1.2714C13.47608,37.5166,13.76318,38.0235,13.76318,38.0235Z" fill="#fff" stroke="#000" stroke-width="0.8"/><path d="M8.019,161.4112s.13918,54.8633-.33052,57.4023c0,0-.5181,1.0781-.587,5.3379,0,0-.0087.1289-.0293.3565l.0064-.0733c2.1406-.2119,2.9863-3.8848,2.9863-3.8848s.5967-47.6787.4566-58.8261l.0009-1.9317-.0107-92.6777h0a4.49044,4.49044,0,0,1,4.4888-4.4902h0a4.47639,4.47639,0,0,1,3.1748,1.3164l.0908.0869.0386.0322h0c.0908.0977.9428,1.5098.9428,1.5098l.7027-3.4072v-.0049s-3.0196-2.0489-4.9497-2.041h0a6.99944,6.99944,0,0,0-7.0039,6.998l.018,83.7598.00442,8.0195Z" fill="#34b3d1" stroke="#000" stroke-linecap="round" stroke-width="0.8"/><path d="M18.02978,110.8389l1.4023-42.1543h0a4.49364,4.49364,0,0,0-4.4888-4.4932h0a4.476,4.476,0,0,0-3.1718,1.3135l-.0938.0938-.039.0215h0c-.0894.0976-.9424,1.5156-.9424,1.5156l-.7017-3.4063h0s3.0215-2.0527,4.9487-2.0468h0c3.86672,0,7.0601,2.4179,7.0015,7.0019l-1.4019,42.1543" fill="#34b3d1" stroke="#000" stroke-linecap="round" stroke-width="0.8"/><path d="M9.88427,135.31547c-.8775-1.00391-2.88525.123-2.88525.123v1.50983a29.75968,29.75968,0,0,1,.50384,4.00983,9.79421,9.79421,0,0,1-.75336,3.14056v3.88672s2.82416.14838,6.64887-2.88483C17.03509,142.21586,10.7622,136.31938,9.88427,135.31547ZM8.11956,146.94236c-.33789,0-.61566-.45105-.61566-1.0097,0-.55768.27777-1.00879.61566-1.00879.33643,0,.61182.45111.61182,1.00879C8.73138,146.49131,8.456,146.94236,8.11956,146.94236Zm4.90192-3.0957a2.06879,2.06879,0,0,1-2.7613.624,4.86244,4.86244,0,0,1-1.63031-3.51257v-2.254c0-4.01361,2.88379.502,3.64014,1.25592A4.91443,4.91443,0,0,1,13.02148,143.84666Z" fill="#ffd900"/><path d="M9.88427,135.31547c-.8775-1.00391-2.88525.123-2.88525.123v1.50983a29.75968,29.75968,0,0,1,.50384,4.00983,9.79421,9.79421,0,0,1-.75336,3.14056v3.88672s2.82416.14838,6.64887-2.88483C17.03509,142.21586,10.7622,136.31938,9.88427,135.31547ZM8.11956,146.94236c-.33789,0-.61566-.45105-.61566-1.0097,0-.55768.27777-1.00879.61566-1.00879.33643,0,.61182.45111.61182,1.00879C8.73138,146.49131,8.456,146.94236,8.11956,146.94236Zm4.90192-3.0957a2.06879,2.06879,0,0,1-2.7613.624,4.86244,4.86244,0,0,1-1.63031-3.51257v-2.254c0-4.01361,2.88379.502,3.64014,1.25592A4.91443,4.91443,0,0,1,13.02148,143.84666Z" fill="none" stroke="#000" stroke-width="0.8"/><path d="M8.12158,143.2373a3.7623,3.7623,0,0,0-.6499,2.1875c0,1.3604.2944,1.712,1.1821,1.4161a5.41758,5.41758,0,0,0,2.2466-1.4161" fill="none" stroke="#000" stroke-width="0.8"/><path d="M22.44918,56.9737c-.9771-1.3838-4.0547-2.96-6.3726-3.4717-2.3188-.5107-5.1621-.5596-6.7817,1.6709-1.6201,2.2285-.9717,6.1016-.3052,8.0947a35.18736,35.18736,0,0,0,2.2505,5.6768,4.87691,4.87691,0,0,0,8.1387.5762,17.62768,17.62768,0,0,0,2.4238-5.4766C23.05608,60.0049,23.42188,58.3536,22.44918,56.9737Zm-8.7627,3.8847-.0034.002c-2.0142.4853-2.6133-.1367-3.0635-1.1992a4.16678,4.16678,0,0,1,.5215-3.0606,2.1343,2.1343,0,0,1,1.2456-.8906h.001a2.13319,2.13319,0,0,1,1.518.1904,4.17923,4.17923,0,0,1,1.9087,2.4532C15.92138,59.5,15.688,60.3311,13.68648,60.8584Z" fill="#f2f2f2" stroke="#000" stroke-width="0.8"/><path d="M19.80758,60.0694s-.3608,1.4512-.3799,1.583a.53874.53874,0,0,1-.3262.4101c-.1713.0391-.2763-.0048-.8042-.3994a5.74824,5.74824,0,0,0-2.7236-.8095A5.94808,5.94808,0,0,0,11.646,62.2959s-.57332.585-.69732.7403a.55916.55916,0,0,1-.5786.1875c-.1714-.0899-.45308-.2149-.3462-.8203" fill="none" stroke="#000" stroke-width="0.6"/><path d="M15.70118,56.337a2.00432,2.00432,0,0,1,2.8046-.2032s.1133.1075.1734.1778a.36239.36239,0,0,0,.5683-.0703,1.77486,1.77486,0,0,0,.2329-.9795c-.0009-.2959.0572-.4776-.2783-.6397l-.05508-.0215a14.83474,14.83474,0,0,0-3.07042-1.0986c-2.3188-.5107-5.1621-.5596-6.7817,1.6709a4.98232,4.98232,0,0,0-.7866,1.7617s-.0879.3242.40772.4024c.49758.0771,1.16258.1699,1.37648.1953.2138.0312.3921.0508.5473-.3106l.01322-.0342a3.78432,3.78432,0,0,1,.28808-.5869,2.1343,2.1343,0,0,1,1.2456-.8906h.001a2.13319,2.13319,0,0,1,1.518.1904,4.67663,4.67663,0,0,1,.9297.7491s.4077.4384.5772.6152c.1709.1758.334.1299.2656-.0967-.1069-.3564-.126-.6807.023-.831" fill="#d9d9d9" stroke="#000" stroke-width="0.8"/><path d="M10.56,56.9581l-.01172.0214c-.11028.2539-.2309.2403-.38228.2207-.14892-.0195-.61522-.0859-.95852-.1425-.3477-.0518-.2881-.2784-.2881-.2784a3.50061,3.50061,0,0,1,.5503-1.2304,4.30109,4.30109,0,0,1,.4526-.5205c.189-.1729.2989-.3536.4058.1054.106.4668.2524,1.0567.2881,1.1797a.65621.65621,0,0,1,.0249.4248A1.40582,1.40582,0,0,1,10.56,56.9581Z" fill="none" stroke="#000" stroke-width="0.6"/><line x1="14.83538" y1="56.6495" x2="14.87208" y2="56.6885" fill="none" stroke="#000" stroke-width="0.6"/><path d="M14.87208,56.6885c.4111.4404.58492-.0058.58492-.0058a2.06921,2.06921,0,0,1,.24418-.3457" fill="none" stroke="#000" stroke-width="0.6"/><path d="M14.18548,55.2618a.726.726,0,1,1,.7661.6777A.725.725,0,0,1,14.18548,55.2618Z" fill="#f2f2f2" stroke="#000" stroke-width="1.2"/><path d="M18.84908,57.1163a1.96775,1.96775,0,0,1,.06692.3105" fill="none" stroke="#000" stroke-width="0.6"/><polyline points="18.577 60.586 19.322 61.028 19.227 60.563" fill="none" stroke="#000" stroke-width="0.8"/><polyline points="17.808 60.47 18.205 60.896 18.224 60.556" fill="none" stroke="#000" stroke-width="1.3"/><path d="M19.63818,60.4991c.0234-.002.707.2832.707.2832l-.1943-.4141" fill="none" stroke="#000" stroke-width="0.8"/><polyline points="20.53 60.235 21.349 60.381 21.064 59.966" fill="none" stroke="#000" stroke-width="0.8"/><polyline points="21.42 59.731 22.21 59.774 21.851 59.39" fill="none" stroke="#000" stroke-width="0.8"/><polyline points="22.168 59.108 22.595 59.13 22.424 58.866" fill="none" stroke="#000" stroke-width="0.8"/><polyline points="22.658 58.582 23.022 58.427 22.832 58.295" fill="none" stroke="#000" stroke-width="0.8"/><path d="M22.99658,57.8291c.0366-.1621.1718-.0654.1987-.2402.0259-.1719-.1489-.1484-.147-.291.0044-.1191.1631-.1104.1499-.2725-.0093-.1611-.1455-.1064-.1845-.2822-.0323-.1328.1557-.2295.0034-.4297a.29142.29142,0,0,0-.4048-.039c-2.563,2.3056-2.8438,2.539-3.2451,2.416-.6167-.1856-.5054-.5528-.5054-.5528a1.64758,1.64758,0,0,0,.064-.6132h0s.1723-.1622.2436-.2403a.24355.24355,0,0,0,.0293-.0254.2782.2782,0,0,0,.0225-.1943c-.0098-.0752-.0484-.0908-.07418-.0713a.34234.34234,0,0,1-.042.0352c-.08112.0625-.23152.1855-.23152.1855a1.73,1.73,0,0,0-2.9492-.7197,1.74826,1.74826,0,0,0-.4468,1.2178l2.3018,2.7334a1.76635,1.76635,0,0,0,.7973.1406,4.67653,4.67653,0,0,0,1.8809-.3213,5.85848,5.85848,0,0,0,1.8794-1.3106A2.06,2.06,0,0,0,22.99658,57.8291Zm-1.08058.2852c-.16212-.1113-.58112-.3691-.32372-.5967.32372-.2783.6181-.5303.7285-.624a.19718.19718,0,0,1,.2656-.0176c.1099.1035.1025.3496-.124.7383C22.23238,58.003,22.07758,58.2178,21.916,58.1143Z" fill="#d9d9d9" stroke="#000" stroke-width="0.8"/><path d="M22.65668,57.084a3.5279,3.5279,0,0,1-.4199,1.3643,5.9027,5.9027,0,0,1-2.0635,1.459,3.43187,3.43187,0,0,1-2.498-.0313c-.2559-.292-.2998-.4082-.2969-.5381.0024-.0966.146-.1103.146-.1103a1.628,1.628,0,0,0,.7759-.4014s.0615-.0713.2832-.0322a5.60228,5.60228,0,0,0,.8633.082,1.31323,1.31323,0,0,0,1.0507-.4101s.5816-.5059,1.0948-.9483" fill="none" stroke="#000" stroke-width="0.6"/><path d="M16.82178,59.1045a1.49821,1.49821,0,1,0-1.108-1.3281Z" fill="#ccc" stroke="#000" stroke-width="0.6"/><path d="M22.65668,57.084a3.5279,3.5279,0,0,1-.4199,1.3643,5.9027,5.9027,0,0,1-2.0635,1.459,3.43187,3.43187,0,0,1-2.498-.0313c-.2559-.292-.2998-.4082-.2969-.5381.0024-.0966.146-.1103.146-.1103a1.628,1.628,0,0,0,.7759-.4014s.0615-.0713.2832-.0322a5.60228,5.60228,0,0,0,.8633.082,1.31323,1.31323,0,0,0,1.0507-.4101s.5816-.5059,1.0948-.9483" fill="none" stroke="#000" stroke-width="0.6"/><path d="M16.66938,57.168a.7283.7283,0,0,1,1.0225-.0459.72243.72243,0,0,1-.9717,1.0693A.728.728,0,0,1,16.66938,57.168Z" fill="none" stroke="#000" stroke-width="0.6"/><path d="M16.44578,56.9678a1.0328,1.0328,0,0,1,1.4468-.0722,1.02336,1.02336,0,1,1-1.4468.0722Z" fill="none" stroke="#000" stroke-width="0.6"/><path d="M16.44578,56.9678a1.0328,1.0328,0,0,1,1.4468-.0722,1.02336,1.02336,0,1,1-1.4468.0722Z" fill="#d9d9d9" stroke="#000" stroke-width="0.6"/><path d="M16.66938,57.168a.7283.7283,0,0,1,1.0225-.0459.72243.72243,0,0,1-.9717,1.0693A.728.728,0,0,1,16.66938,57.168Z" fill="none" stroke="#000" stroke-width="0.8"/><path d="M10.78168,66.8389A4.72321,4.72321,0,1,1,15.768,71.2823,4.72788,4.72788,0,0,1,10.78168,66.8389Z" fill="#fff" stroke="#000" stroke-width="0.8" opacity="0.8"/><path d="M8.96478,63.3155a35.01792,35.01792,0,0,0,2.293,5.6601,4.87516,4.87516,0,0,0,8.1416.5117,17.6001,17.6001,0,0,0,2.3872-5.4921c1.2207-4.0489,1.5728-5.7002.58942-7.0733-.98492-1.373-4.07572-2.9277-6.39992-3.4267-2.3184-.4883-5.1622-.5245-6.7666,1.7226C7.60638,57.46,8.28458,61.3262,8.96478,63.3155Zm8.1353-6.4004a4.87734,4.87734,0,0,1,1.9228.4629c1.29012.5088,1.75.7031,1.9917.833.2373.125.5635.2763.4512,1.0361-.1113.7578-.4116,1.1914-.8584.8291a10.04445,10.04445,0,0,0-1.7227-1.0664,14.742,14.742,0,0,0-1.914-.6435.73633.73633,0,0,1,.1294-1.4512Zm-6.0337-.2852a2.11237,2.11237,0,0,1,1.2407-.8935l.002-.0039a2.12274,2.12274,0,0,1,1.52.1806,4.18206,4.18206,0,0,1,1.9228,2.4356c.1177,1.1513-.1103,1.9824-2.1108,2.5244v.0019c-2.0112.503-2.6133-.1162-3.0703-1.1806A4.176,4.176,0,0,1,11.06638,56.6299Z" fill="#ffd900" stroke="#000" stroke-width="0.8"/><path d="M19.75928,60.042s-.3477,1.4532-.3672,1.5821c-.0215.1318-.148.3759-.3208.4121-.1739.0351-.2818-.0039-.8086-.3926a5.72707,5.72707,0,0,0-2.73-.79,5.929,5.929,0,0,0-3.9189,1.4697s-.5679.5937-.6929.75a.55772.55772,0,0,1-.5742.1894c-.1753-.0898-.4571-.2129-.3521-.8164" fill="none" stroke="#000" stroke-width="0.6"/><path d="M17.18648,66.8125a1.70852,1.70852,0,1,1-1.4399-1.9365A1.7125,1.7125,0,0,1,17.18648,66.8125Z" fill="none" stroke="#000" stroke-width="1.2"/><path d="M16.81828,66.7608a1.33621,1.33621,0,1,1-1.1269-1.5156A1.33919,1.33919,0,0,1,16.81828,66.7608Z" fill="none" stroke="#000" stroke-width="0.6"/><path d="M14.70988,57.1416a1.83386,1.83386,0,0,1-1.8266,1.8418h0a1.8292,1.8292,0,0,1-1.8394-1.8222l-.124-24.6172a1.834,1.834,0,0,1,1.8267-1.8418h0a1.83565,1.83565,0,0,1,1.8403,1.8242Z" fill="#ffd900" stroke="#000" stroke-width="0.8"/><rect x="10.08784" y="40.395" width="5.54694" height="7.86881" transform="translate(-0.23394 0.06854) rotate(-0.3026)" fill="#ffd900" stroke="#000" stroke-width="0.8"/><polyline points="11.008 51.358 11.941 51.352 11.935 49.862 13.686 49.854 13.693 51.339 14.696 51.337" fill="none" stroke="#000" stroke-width="0.8"/><line x1="11.94088" y1="51.3516" x2="10.98138" y2="52.5166" fill="none" stroke="#000" stroke-width="0.8"/><line x1="13.73528" y1="51.3448" x2="14.70018" y2="52.5049" fill="none" stroke="#000" stroke-width="0.8"/><path d="M12.38668,12.2295a6.044,6.044,0,1,0-6.043-6.0439A6.04559,6.04559,0,0,0,12.38668,12.2295Z" fill="gray"/><path d="M15.54538,2.71a.23188.23188,0,0,1,.2495.1162c.0322.043.1294.1143.146.1729.0503.2422-.5313.7812-.67088.9004-.356.3046-.68652.6543-1.04252.956a2.97826,2.97826,0,0,0-.6357.6221c-.2779.4043-.9839.4228-.7969-.3203.0239-.0987.2568-.1641.3315-.3184-.1762-.082-.39838-.1601-.58-.2461-.7061-.3437-.7867.5996-1.3892-.3594-.5181-.8281,1.1045-.7597,1.7544-.6523a3.26777,3.26777,0,0,1,.8076.3311c.0679.0283.1846.123.2622.1035V4.003c.3487-.1797.57962-.5977.8677-.8418.1201-.1035.3037-.1289.42092-.2334C15.35008,2.8565,15.41938,2.7334,15.54538,2.71Z" fill="#d9d9d9"/><path d="M8.62448,2.7852a.49569.49569,0,0,1,.272.0713c.3598.1758.5498.5635.8388.8096.3111.2587.606.5244.9136.7841.1426.1162.249.2911.395.4053a2.68628,2.68628,0,0,1,.47612.3887.41671.41671,0,0,1,.07128.3906c-.1856.5117-.73828-.0576-.92628-.1416a2.1823,2.1823,0,0,0,.26218,2.2402c.1167.1563.3335.2012.5054.3086a1.94349,1.94349,0,0,0,1.8091-.0175,2.77146,2.77146,0,0,0,.4502-.42c.1596-.1445.3637-.2597.4223-.5039a3.11614,3.11614,0,0,0,.0713-1.0576c-.0141-.0986-.1103-.2461-.05948-.3623.05808-.1299.55028-.6006.78458-.5381.107.0322.2158.3262.2461.4346a3.48962,3.48962,0,0,1,.0576.3623c0,.0127-.0131.0713-.0151.0605-.0176.0166.042.5616.02882.6827a2.90793,2.90793,0,0,1-2.02732,2.5156,3.32681,3.32681,0,0,1-2.523-.3438c-.1304-.0957-.2016-.2724-.3174-.3808-.1587-.1446-.40228-.1856-.5351-.3574a3.99559,3.99559,0,0,1-.5088-1.8438,3.51682,3.51682,0,0,1,.3057-1.2187,3.83793,3.83793,0,0,0,.246-.4317,7.10389,7.10389,0,0,1-1.0278-1.0273C8.75288,3.4913,8.10008,2.835,8.62448,2.7852Z" fill="#d9d9d9"/><path d="M9.21288,229.542A9.14381,9.14381,0,1,0,0,220.3975,9.18047,9.18047,0,0,0,9.21288,229.542Z" fill="gray"/><path d="M7.19528,213.5186a1.14553,1.14553,0,0,1,1.05272.4893,3.22957,3.22957,0,0,1-.10932,1.3857.737.737,0,0,1-.5342.2754A1.09479,1.09479,0,1,1,7.19528,213.5186Z" fill="#e6e6e6"/><path d="M7.13038,216.1846c.7495-.1172,1.5332.5049,2.0805.7061a5.61153,5.61153,0,0,1,1.1402.3564,1.09486,1.09486,0,0,0,.2133.1289,1.11833,1.11833,0,0,0,.3433.0235c1.0937-.7422,1.67432.5449.9028.832-.47848.1758-.60148-.1621-.9673-.2334-.1264.2607-.499.9346-.9438.7002-.2168-.1172-.4067-.3828-.6431-.4668-.4018-.1494-.4341.2178-.3217.4473a4.98009,4.98009,0,0,0,.5571,1.0429c.2309.1153.4565.0098.7524.084a5.102,5.102,0,0,1,.5786.2129,3.36965,3.36965,0,0,1,.9014.5312c.1572.1563.2642.4395.4502.5567.4263.2734.8535.0195,1.0298.6162a6.394,6.394,0,0,1-.2363,2.3232c-.11378,1.084.9648,1.2657.1943,2.3877a.50568.50568,0,0,1-.1729.1514,1.0259,1.0259,0,0,1-.7729-.0889,1.12713,1.12713,0,0,1-.2139-.1943c-.0161-.0195-.0063-.0391-.0205-.0625a2.47829,2.47829,0,0,1-.3013-.8506,9.81607,9.81607,0,0,1-.0419-3.498,5.02324,5.02324,0,0,0-1.2876-.1875c-.1719.0888-.0069.3496.04192.4677.10358.2442.36818.3164.45018.6202a10.06794,10.06794,0,0,1-.5571,2.831,3.643,3.643,0,0,1-.3218,1.1524.972.972,0,0,1-1.5029-.1075c-.248-.4433.0435-.998.2149-1.3388a4.50185,4.50185,0,0,0,.6865-2.1358c-.1109-.5244-.8257-.7617-1.00778-1.3398a1.81746,1.81746,0,0,1-.107-.8106c.02878-.2226.273-.3945.16948-.6406s-.5894-.5098-.75148-.8076c-.24412-.4658-.82572-2.7158-1.09472-.6221a6.43669,6.43669,0,0,1-.0625,1.0469c-.0606.1836-.32078.3184-.4082.5547a.84007.84007,0,0,1,.3662.6377c.03322.3086-.4732.8135-.8379.5976-1.0147-.5976.1294-1.2431-.2783-1.9384a.99229.99229,0,0,1-.1729-.3829,1.722,1.722,0,0,1,.1069-.5332,5.184,5.184,0,0,1,.1729-1.2148c.042-.0762.167-.1367.2134-.2139C6.00438,216.9747,6.36718,216.3008,7.13038,216.1846Z" fill="#e6e6e6"/><path d="M17.43988,157.7276c.12012,6.874-.2265,25.3066-.2265,25.3066" fill="none" stroke="#827d80" stroke-linecap="round" stroke-linejoin="round" stroke-width="3.172"/><polyline points="15.05 160.811 17.427 155.952 19.926 160.901" fill="none" stroke="#827d80" stroke-linecap="round" stroke-linejoin="round" stroke-width="3.172"/><path d="M61.32468,91.1924c-4.3418,5.3321-16.4863,19.1992-16.4863,19.1992" fill="none" stroke="#827d80" stroke-linecap="round" stroke-linejoin="round" stroke-width="3.172"/><polyline points="57.512 92.009 62.463 89.826 61.18 95.222" fill="none" stroke="#827d80" stroke-linecap="round" stroke-linejoin="round" stroke-width="3.172"/><polygon points="14.172 199.497 2.818 203.521 2.818 201.522 14.172 197.497 14.172 199.497" fill="#fff"/><line x1="2.81788" y1="201.5225" x2="14.17228" y2="197.4971" fill="none" stroke="#000" stroke-linecap="round" stroke-miterlimit="10" stroke-width="0.4"/><line x1="2.81788" y1="203.5215" x2="14.17228" y2="199.4971" fill="none" stroke="#000" stroke-linecap="round" stroke-miterlimit="10" stroke-width="0.4"/><path d="M34.03368,37.9239s.228-2.9834-4.0923-.6651l-.6099-2.1386s7.1797-2.3604,7.3916,2.707Z" fill="#34b3d1" stroke="#000" stroke-width="0.8"/><path d="M33.01458,29.5166a5.60615,5.60615,0,0,0-1.2988-1.6582,22.13646,22.13646,0,0,0-2.2119-1.0429l-.6865.914a7.7524,7.7524,0,0,1,2.0693,2.8711m-1.0601-3.2988-.5752.8223m1.6353,2.4765a5.14162,5.14162,0,0,1,.2852,1.2412,4.882,4.882,0,0,1-.2071,2.3174,8.59376,8.59376,0,0,1-.8877,2.0977s-.8139,1.7187-1.9214,2.1074a2.02717,2.02717,0,0,1-2.0503-.4785l-1.9428-1.5811-2.5362-2.208s-2.3437-2.0996-3.3247-3.1377c0,0-1.8139-1.7529-2.52-2.6025a18.85741,18.85741,0,0,1-1.374-1.6504,1.7723,1.7723,0,0,1,.0659-1.6133,2.4655,2.4655,0,0,1,.2525-.3564s.0161-1.542.0195-2.0664.0063-1.1397.0063-1.1397a6.32332,6.32332,0,0,0-2.1372,1.8526,3.96922,3.96922,0,0,0-.78168,2.165,4.75492,4.75492,0,0,0,.55168,2.4492,9.105,9.105,0,0,0,1.6148,2.1582l1.2124,1.2793s1.4282,1.4629,2.186,2.1406l1.45412,1.378,2.41508,2.1591,1.643,1.4336a12.46153,12.46153,0,0,0,3.1514,2.0645,4.4575,4.4575,0,0,0,2.1148.2412,4.30452,4.30452,0,0,0,2.1752-.9365,6.85885,6.85885,0,0,0,1.6914-2.0752,12.725,12.725,0,0,0,1.1749-2.5713,8.64218,8.64218,0,0,0,.435-2.6875,8.53391,8.53391,0,0,0-.6382-3.0645m-14.6621-6.8593a3.92026,3.92026,0,0,1,2.12752.0156l.37888.2441c.1845.1446.40912.3164.5634.4551.1534.1406.3736.127.6685-.1973.2935-.3261.6411-.6757.8159-.8671a.69928.69928,0,0,0-.1811-.9649l-1.1304-.8808s-.1846-.2081-1.4995-.3721a5.46069,5.46069,0,0,0-1.6939.041s-.0029.6865-.0127,1.0772C18.37938,21.6016,18.35248,22.6573,18.35248,22.6573Z" fill="#ffd900" stroke="#000" stroke-width="0.8"/><path d="M29.96288,28.9073c.1987.2383.393.8232.7915.6679.2773-.1035.4907-.4414.6699-.6796.1685-.2208.3662-.875.0151-1.1875" fill="none" stroke="#000" stroke-linecap="round" stroke-linejoin="round" stroke-width="0.8"/><line x1="31.22608" y1="27.9014" x2="30.23478" y2="29.3096" fill="#fff" stroke="#000" stroke-linecap="round" stroke-linejoin="round" stroke-width="0.8"/><path d="M21.08688,20.4571c-.6768-.2891-1.2632-.2549-2.0078,1.2431a.39056.39056,0,0,0,.02592.4063" fill="none" stroke="#000" stroke-linecap="round" stroke-linejoin="round" stroke-width="0.8"/><path d="M28.83048,29.5557s.2461.1816.627-.2012a5.95214,5.95214,0,0,0,.6997-.9648c.3931-.6221.1016-.8594.0464-.9063-.0078-.0078-.124-.1045-.3335-.2656-.123-.0976-.2764-.0332-.5972-.3096-.4555-.3642-.2871-.3974-.5366-.5976-2.5239-2.0147-7.4302-5.9404-7.4302-5.9404-.35008-.2657-.7666.0263-1.1132.5312-.356.5186-.6607.752-.2666,1.1211.4223.3945,1.248,1.0606,1.248,1.0606s.5601.3925.4502.5Z" fill="#ffd900" stroke="#000" stroke-width="0.8"/><path d="M29.41888,26.8487c.2827-.4629.1162-.6612.1162-.6612l-.5244-.4736-.0195-.1484s-2.8467-2.3907-3.05618-2.5606c-.19772-.1777-.19432-.0625-.19432-.0625s-.2852-.2265-.4893-.3828a.43673.43673,0,0,0-.4272-.1035l-.2344.2012a27.1843,27.1843,0,0,1-1.7182,2.164c-.06158.0664-.2852.3233.0903.627.3726.3183.4634.4082.4634.4082l-.0098.084,3.148,2.6601h.1167l.4985.3907s.2397.2148.6382-.1739A12.31157,12.31157,0,0,0,29.41888,26.8487Z" fill="#ffd900" stroke="#000" stroke-width="0.8"/><path d="M21.063,22.1104a.39991.39991,0,0,1,.00968-.5606.39681.39681,0,0,1,.5518.5704.40039.40039,0,0,1-.56148-.0098" fill="#ffd900" stroke="#000" stroke-width="0.8"/><path d="M30.03168,35.8702s-.3896-.2657-.1035-.5674" fill="none" stroke="#000" stroke-width="0.8"/><path d="M77.07368,19.9307c-15.5283,16.5215-40.0019,19.1113-40.1953,19.1397a1.20986,1.20986,0,0,1-.1553.0127,1.058,1.058,0,0,1-.1557-2.1045c.18162-.0264,23.7749-2.5205,38.7661-18.2784Z" fill="#34b3d1" stroke="#000" stroke-width="0.8"/><path d="M33.18848,35.4043a2.53376,2.53376,0,0,1,.3344-.0322,1.65976,1.65976,0,0,1,1.1695.4668h0c.6919.5781.894,2.0664.7578,3.5274h0a2.28678,2.28678,0,0,1-.6099,1.414h0a2.959,2.959,0,0,1-2.9946.7236h0a5.79974,5.79974,0,0,1-2.1343-1.2744h0a4.18177,4.18177,0,0,1-1.2837-1.9726h0c-.0293-.086.0098-.2813.2988-.5996h0a3.74879,3.74879,0,0,1,.6641-.545h0c.1069-.0693.2007-.121.2612-.1552h0a.24222.24222,0,0,1,.0777-.0391l-.9864-1.9932-.0034-.0058h0a6.38242,6.38242,0,0,0-1.6421,1.2246h0a2.9093,2.9093,0,0,0-.8462,2.5645h0a6.29448,6.29448,0,0,0,1.9473,3.1484h0a7.99593,7.99593,0,0,0,2.959,1.7617h0a5.15524,5.15524,0,0,0,5.3096-1.3223h0c.0029-.0058.0053-.0058.0063-.0127h0a4.50848,4.50848,0,0,0,1.1919-2.746h0c.10652-1.6299.1196-3.7901-1.4609-5.3252h0a4.26456,4.26456,0,0,0-1.8975-1.0079,4.85218,4.85218,0,0,0-.5444-.08.146.146,0,0,0-.1426-.0362,11.467,11.467,0,0,1-.1392,1.1485A9.406,9.406,0,0,1,33.18848,35.4043Z" fill="#34b3d1" stroke="#000" stroke-width="0.8"/><path d="M30.40428,35.6319l-.1001.0429a2.542,2.542,0,0,0-.3511.1182h0a5.51585,5.51585,0,0,0,2.5562.8682h0a26.86428,26.86428,0,0,1,2.8276.6279,6.74644,6.74644,0,0,1,.0669,2.3447,25.2765,25.2765,0,0,0-3.23778-.7773h0a7.17833,7.17833,0,0,1-3.74712-1.4551h0a2.57606,2.57606,0,0,1-.8364-1.5723h0a1.725,1.725,0,0,1,.4707-1.3984h0a3.27571,3.27571,0,0,1,1.3364-.8008,15.909,15.909,0,0,1,1.753-.4433,9.375,9.375,0,0,1-.233,1.1298A9.51524,9.51524,0,0,1,30.40428,35.6319Z" fill="#34b3d1" stroke="#000" stroke-width="0.8"/><path d="M33.38078,39.0948a2.71193,2.71193,0,0,0-.2993,1.084,7.50366,7.50366,0,0,0,2.2227,5.3886c3.5596,3.7832,10.7563,4.4864,17.7129,5.1621,6.8525.668,13.9414,1.3604,16.6162,4.9551,1.1699,1.5742,1.4765,3.6465.9453,6.3545a1.05354,1.05354,0,0,0,.834,1.2373,1.092,1.092,0,0,0,.2031.0195,1.0577,1.0577,0,0,0,1.0381-.8496c.6435-3.2773.19822-5.9785-1.3233-8.0224-3.2343-4.3487-10.7978-5.0869-18.1084-5.7998-6.5678-.6387-13.3608-1.3008-16.3793-4.5078a5.10732,5.10732,0,0,1-1.6226-3.9727s.125-.0859.1782-.4316a6.29693,6.29693,0,0,0-.8032-.3106C34.27678,39.3174,33.38078,39.0948,33.38078,39.0948Z" fill="#34b3d1" stroke="#000" stroke-width="0.8"/><path d="M63.52978,79.0616s-2.13578-1.8125-2.2539-2.5586c-.1231-.752-.4473-2.8203-.4473-2.8203s-.8252-1.8692-.626-2.4141c.1983-.5508.5508-1.2217.9883-1.0879a4.77984,4.77984,0,0,1,1.1729.7422l.3017-1.0664s.3672-1.043.5811-1.7305c.2138-.6855-.7832-.873-.1104-1.6367.67382-.7715,1.9024-2.2285,2.0947-2.1768a19.73531,19.73531,0,0,0,2.0362-.2724,15.02266,15.02266,0,0,1,1.2392-1.8262,12.35707,12.35707,0,0,1,3.9385-2.1953c.6455-.1934.5479-.623.5479-.623l.0732-.4786a20.72645,20.72645,0,0,1,1.9502-3.0644c.9131-1.0547,1.2861-2.7393,3.4971-1.4697,2.2089,1.2627,8.7226,5.5127,8.4697,9.6611a4.304,4.304,0,0,0-.1533,1.1758s-.6905,2.8457-3.2725,2.914c-2.5869.0713-2.8867.7832-3.1719.5254-.2851-.2597.1211.7481-1.5351,1.709-1.6582.959-1.2696,2.1055-1.7617,2.7656-.4922.6543-1.336,1.1602-1.6368,1.8662-.3017.7061-.8955,2.1436-1.3789,2.1202-.4843-.0176-2.3925-.1895-2.3925-.1895a5.69466,5.69466,0,0,1-1.92,1.8438,9.66159,9.66159,0,0,1-2.7265,1.5107c-1.0166.2002-1.9082-.5635-3.5039-1.2236" fill="#fff" stroke="#000" stroke-width="0.8"/><path d="M73.897,67.2979a9.40863,9.40863,0,0,0-2.27742,2.5723c-.9453,1.5976-1.4443,1.6152-1.4443,1.6152s-.9756,1.0918-1.378,1.668c-.40328.5771-.621,2.5976-1.414,2.8886-.792.2969-1.2676.5703-2.2002.0078a3.30451,3.30451,0,0,1-1.6318-3.6992c.17872-1.1718,1.21772-2.4414,2.1181-4.1474.1553-.3086.499-1.0362.9219-2.1162" fill="none" stroke="#000" stroke-width="0.8"/><path d="M71.61568,77.0381a21.12259,21.12259,0,0,0,.61332-3.8994" fill="none" stroke="#000" stroke-width="0.8"/><path d="M80.27288,68.6524a9.379,9.379,0,0,0-1.2627-5.4151,11.44989,11.44989,0,0,0-3.625-3.75" fill="none" stroke="#000" stroke-width="0.8"/><path d="M62.36378,70.9229s1.1933.7559,1.15722,1.6611" fill="none" stroke="#000" stroke-width="0.8"/><path d="M67.26708,64.0401A5.77009,5.77009,0,0,0,65.896,66.1846a10.74185,10.74185,0,0,0-.36232,2.2695" fill="none" stroke="#000" stroke-width="0.8"/><path d="M62.66548,69.8565a4.44761,4.44761,0,0,1,2.9522-2.3057" fill="none" stroke="#000" stroke-width="0.8"/><path d="M63.47308,73.0782l-35.187,40.1806h0a4.49957,4.49957,0,0,1-6.3452.2159h0a4.46462,4.46462,0,0,1-1.42088-3.128l-.00632-.1328-.0079-.043h0c-.0029-.1357.3433-1.7529.3433-1.7529l-2.8398,2.0088h-.0035s.8077,3.5596,2.2193,4.8809h0a7.00638,7.00638,0,0,0,9.8974-.334L64.63038,75.667A3.46537,3.46537,0,0,1,63.47308,73.0782Z" fill="#34b3d1" stroke="#000" stroke-linecap="round" stroke-width="0.8"/><path d="M20.83738,108.5391a5.31626,5.31626,0,0,1,8.999,3.7178" fill="#ffd900" stroke="#000" stroke-width="0.8"/><path d="M26.06688,108.6104a4.08963,4.08963,0,0,0-2.7227-.1445,4.07353,4.07353,0,0,1-1.0298.082c-.4643-.0088-2.479-.002-3.0766-.0039-.59278-.0049-.729-.0117-1.01078.1445-.27542.1485-.45022.6279-.69092,1.2149a10.81919,10.81919,0,0,0-.64108,2.5605c-.06792.7715.01068,1.1856-.03122,2.3359a12.59087,12.59087,0,0,1-.2994,2.2071s-.4467,1.9297-.6045,2.6543a11.64589,11.64589,0,0,0-.3735,2.3574,5.38778,5.38778,0,0,0,.6978,2.4336,5.30742,5.30742,0,0,0,2.3964,2.0488l.00642.0059a5.32606,5.32606,0,0,0,3.14788.2344,5.38606,5.38606,0,0,0,2.211-1.2364,11.29733,11.29733,0,0,0,1.3989-1.9316c.3931-.6231,1.439-2.3067,1.439-2.3067a12.83089,12.83089,0,0,1,1.3476-1.7812c.7803-.8379,1.1289-1.0752,1.6245-1.6758a10.87228,10.87228,0,0,0,1.3506-2.2685,2.57774,2.57774,0,0,0,.3638-1.3467c-.0874-.3047-.189-.4024-.61228-.8145-.42432-.417-1.85012-1.8437-2.18262-2.166a3.97281,3.97281,0,0,1-.67038-.7871,4.09406,4.09406,0,0,0-2.03712-1.8105Z" fill="#ffd900" stroke="#000" stroke-width="0.8"/><path d="M26.25578,113.0909a1.87589,1.87589,0,1,1-1.0205-2.4493A1.87192,1.87192,0,0,1,26.25578,113.0909Z" fill="#ffd900" stroke="#000" stroke-width="0.8"/><path d="M25.92528,116.3897a3.79766,3.79766,0,0,0,1.6289-1.0664c.6513-.7402.706-.9893.6987-1.127a.42618.42618,0,0,0-.3306-.4062,2.574,2.574,0,0,0-.5732-.1797.498.498,0,0,0-.3203.123,5.29858,5.29858,0,0,0-.3457.4668,2.20739,2.20739,0,0,1-.9468.7344,1.87576,1.87576,0,0,1-.34228.1143.531.531,0,0,0-.44042.4531,2.22383,2.22383,0,0,0,.06842.6416c.04488.1211.24258.3887.46278.3457C25.62108,116.461,25.77288,116.4346,25.92528,116.3897Z" fill="none" stroke="#000" stroke-width="0.8"/><path d="M20.685,114.2325a3.8584,3.8584,0,0,1-.40472-1.9112c.0585-.9804.2006-1.1972.3012-1.291a.43.43,0,0,1,.52152-.0605,3.6134,3.6134,0,0,1,.53128.2773.51915.51915,0,0,1,.1411.3233,5.23785,5.23785,0,0,1-.083.5693,2.22964,2.22964,0,0,0,.1489,1.1875,1.8755,1.8755,0,0,0,.1684.3223A.54413.54413,0,0,1,22,114.2842a2.13216,2.13216,0,0,1-.502.4024c-.11672.0527-.44672.1093-.57322-.0782C20.84908,114.4913,20.75968,114.3682,20.685,114.2325Z" fill="none" stroke="#000" stroke-width="0.8"/><path d="M21.75388,119.0518a8.07568,8.07568,0,0,1-1.8784-1.1211.79491.79491,0,0,0-.6573-.0508c-.2817.0772-.4209.3164-.5439.6602-.1201.3437-.3696,1.2558-.3696,1.2558a8.17357,8.17357,0,0,0-.2559,1.6524,3.17908,3.17908,0,0,0,.2754,1.4443,2.72483,2.72483,0,0,0,1.3442,1.2178h.0064a2.68949,2.68949,0,0,0,1.8125.084,3.11777,3.11777,0,0,0,1.2158-.8262,8.37139,8.37139,0,0,0,.9834-1.3564s.4639-.8204.6216-1.1485a.89348.89348,0,0,0,.082-.8525.81813.81813,0,0,0-.5019-.4258,7.75084,7.75084,0,0,1-2.1255-.5312Z" fill="#fff" stroke="#000" stroke-width="0.8"/><path d="M22.15868,118.0538a5.7531,5.7531,0,0,1-3.0293-2.6817c-.1377-.334-.1187-.7578-.5635-.7656-.5117-.0176-.52,1.6728-.709,2.6699-.187,1-.56588,2.8047-.56588,2.8047s-.30132,1.3047-.34622,1.6719a3.571,3.571,0,0,0,2.2398,3.5097l.0205.0069a3.56273,3.56273,0,0,0,4.0644-.9092c.2236-.2891.9331-1.4287.9331-1.4287s1.0039-1.542,1.5772-2.3838c.5688-.8418,1.7539-2.0469,1.3828-2.3965-.3242-.3047-.6099.0078-.9424.1484a5.78627,5.78627,0,0,1-4.04-.2343Z" fill="none" stroke="#000" stroke-width="0.8"/><path d="M18.75828,121.0791a1.65214,1.65214,0,0,1,2.1494-.9062h0a1.64858,1.64858,0,0,1,.90332,2.1504l-8.33492,20.4863a1.64877,1.64877,0,0,1-2.1485.9072h0a1.6491,1.6491,0,0,1-.9033-2.1504Z" fill="#ffd900" stroke="#000" stroke-width="0.8"/><path d="M11.561,138.8467c.36038-.0136,1.04688-.2461,1.59768-1.6347l.6186.2461.2364.1035.5864.2548c-.5864,1.3682-.2378,2.0293.0117,2.292" fill="none" stroke="#000" stroke-width="0.8"/><rect x="12.36748" y="129.86648" width="7.07159" height="4.98494" transform="translate(-112.70356 97.25786) rotate(-67.8825)" fill="#ffd900" stroke="#000" stroke-width="0.8"/><polyline points="19.853 127.155 19.072 126.837 18.57 128.075 17.113 127.485 17.615 126.243 16.779 125.907" fill="none" stroke="#000" stroke-width="0.8"/><line x1="19.07218" y1="126.837" x2="20.27048" y2="126.2002" fill="none" stroke="#000" stroke-width="0.8"/><line x1="17.57958" y1="126.2256" x2="17.17668" y2="124.9327" fill="none" stroke="#000" stroke-width="0.8"/><path d="M73.06588,58.917l-.958-1.2832,1.9346-3.3183.8564.5185.2656-1.5009a2.57329,2.57329,0,0,1,.1944-1.4375c.5615-1.1133,1.1709-1.3194,1.1709-1.3194a9.32464,9.32464,0,0,1,.8886-3.2041c.6485-.9541,2.6885-4.8105,3.6338-5.8857.9473-1.0752,1.0235-.583,1.1055-1.5791a9.35132,9.35132,0,0,1,.833-2.4883,9.4008,9.4008,0,0,1,1.4619-3.5371,30.0408,30.0408,0,0,0,2.4531-3.6856,11.63438,11.63438,0,0,1,1.876-2.8437,13.92814,13.92814,0,0,0,1.1572-.9317,3.81177,3.81177,0,0,0,1.4317-1.0058,9.25913,9.25913,0,0,0,.4599-2.4922s.52452-1.8525.85452-2.0273c.32818-.1817.27248-1.3204.27248-1.3204a12.45411,12.45411,0,0,1,.6738-2.6757" fill="#fff" stroke="#000" stroke-width="0.8"/><path d="M88.99948,28.2334s4.4951,1.7286,7.6328-1.2168" fill="#fff" stroke="#000" stroke-width="0.8"/><path d="M100.16838,36.4737s-12.4902-2.9346-8.5781-3.9434" fill="#fff" stroke="#000" stroke-width="0.8"/><path d="M93.72118,36.9952s-10.4278,1.0664-9.2578.3066c1.1679-.7637,2.2998-1.4629,2.2998-1.4629" fill="#fff" stroke="#000" stroke-width="0.8"/><path d="M89.28458,62.2393l-.4882-3.4805s-4.4239-3.3808-4.8682-4.0068c-.4473-.626-4.0283-4.7607-6.2998-3.8086" fill="#fff" stroke="#000" stroke-width="0.8"/><path d="M73.15478,58.7998a13.762,13.762,0,0,1,1.7295-2.7519c1.09272-1.2354,1.3945-3,3.705-1.6406,2.2276,1.3105,8.6612,5.455,8.3809,9.705,0,0,0,.0704.209.0186a.64007.64007,0,0,0,.2851-.123c.1338-.2198.9786-.0069,1.1446.0908.164.1015,1.1269.6074,3.1367-.4981,2.0146-1.1015,2.7705-3.3427,3.2519-4.1718a8.75551,8.75551,0,0,1,2.4317-2.5743c1.1201-.8203.6211-1.1953.8096-2.5039.1943-1.3047.8808-.5898,2.0078-1.9306a24.1665,24.1665,0,0,0,2.8173-4.8897,19.18829,19.18829,0,0,1,1.5889-2.4033c.3174-.6309,1.3389-2.209,1.3389-2.209l1.9521-3.2256s3.4756-3.7373,4.8623-4.4687" fill="#fff" stroke="#000" stroke-width="0.8"/><polygon points="54.757 44.842 50.594 56.145 49.059 54.868 53.222 43.563 54.757 44.842" fill="#fff"/><line x1="49.05908" y1="54.8682" x2="53.22208" y2="43.5635" fill="none" stroke="#000" stroke-linecap="round" stroke-miterlimit="10" stroke-width="0.4"/><line x1="50.59418" y1="56.1446" x2="54.75728" y2="44.8418" fill="none" stroke="#000" stroke-linecap="round" stroke-miterlimit="10" stroke-width="0.4"/><path d="M79.56978,14.1719c.585-.8828,1.1201-1.7295,1.5684-2.4765A21.367,21.367,0,0,1,83.86958,7.96a3.98136,3.98136,0,0,1,1.9668-1.3467.63185.63185,0,0,1,.585.2334.66074.66074,0,0,1,.22262.6348,4.46742,4.46742,0,0,1-1.13572,2.0586,17.24208,17.24208,0,0,1-4.2471,3.4922c-.4375.2568-1.0205.6543-1.6914,1.1396a65.10706,65.10706,0,0,1-5.8447,7.7529l-1.1406,1.1797.1904.1875a81.701,81.701,0,0,1,9.8379-7.9648,20.79792,20.79792,0,0,0,4.8174-3.9277,7.08176,7.08176,0,0,0,1.8613-3.6016,3.31931,3.31931,0,0,0-1.0176-2.8691,3.29055,3.29055,0,0,0-2.7851-.959,6.34877,6.34877,0,0,0-3.5342,2.1445,23.57528,23.57528,0,0,0-3.0977,4.2109,71.53212,71.53212,0,0,1-7.0498,9.7481l-1.8828,1.9492,1.918,1.8525.7422-.7705" fill="#34b3d1" stroke="#000" stroke-width="0.8"/><path d="M72.75928,18.9893c.1533.0898.3525.1768.5468.3125a19.21955,19.21955,0,0,0,3.5752,1.6211,5.85055,5.85055,0,0,0,.7881.1689c.0391.0049.0733.0088.10162.0108a1.57169,1.57169,0,0,0,1.17668-.5156,1.3679,1.3679,0,0,0,.3838-1.4903,2.28034,2.28034,0,0,0-.6543-.9345c-.0215.0195-.5068.3955-.539.413-.3565.1504-.6436.0079-1.1143-.1953l.0039.0088a18.28106,18.28106,0,0,1-2.2002-1.1855c-.3193-.1944-.59758-.3623-.833-.4922-1.0058-.5303-2.5351-.0498-3.72258,1.1787a1.42161,1.42161,0,0,0-.295.4473A3.8651,3.8651,0,0,1,72.75928,18.9893Z" fill="#34b3d1" stroke="#000" stroke-width="0.8"/><path d="M73.35788,23.8555c-.043.1299-.084.2588-.1231.3936-.13178.4218-.2597.8369-.4062,1.2324h0a3.24285,3.24285,0,0,0,.585-.084l.0068-.0049c.0322-.0088.0664-.0146.0967-.0263a.092.092,0,0,0,.0244-.0079c.0303-.0068.06252-.0195.0879-.0253a.14488.14488,0,0,1,.0332-.0137.66027.66027,0,0,0,.084-.0322.06793.06793,0,0,1,.0302-.0127c.084-.0372.1641-.0762.24322-.1172.01758-.0127.03708-.0196.05658-.0323a.36541.36541,0,0,0,.0518-.0322c.0195-.0107.0391-.0254.05862-.0371.01658-.0078.03218-.0215.04978-.0293a.66641.66641,0,0,1,.0605-.0439c.01472-.0127.0293-.0196.045-.0342.0215-.0176.0449-.0371.0664-.0527.0117-.0079.0244-.0167.0351-.0254.03422-.0303.0664-.0606.1016-.0879a3.62082,3.62082,0,0,0,.9502-1.5616,16.60133,16.60133,0,0,1-1.6914-.7001C73.645,22.9483,73.50048,23.4092,73.35788,23.8555Z" fill="#34b3d1" stroke="#000" stroke-width="0.8"/><path d="M70.49268,20.8291c-.043-.0175-.0889-.0371-.1358-.0566a5.97191,5.97191,0,0,0-2.4531-.5635.06581.06581,0,0,0,.0068-.0263c-.039.0019-.0801,0-.1211.0019a2.58893,2.58893,0,0,0-2.5781,1.711,1.32372,1.32372,0,0,0-.0283.8007,3.23015,3.23015,0,0,1,1.4033-.3369,10.55733,10.55733,0,0,1,2.4404.3174c.6065.123,1.3643.3174,1.7784.4082a.19644.19644,0,0,0,.0136-.0391c.1817-.5703.36922-1.1601.5977-1.7246-.043-.0244-.0879-.0478-.1319-.0703C70.99558,21.0967,70.71728,20.9444,70.49268,20.8291Z" fill="#34b3d1" stroke="#000" stroke-width="0.8"/><path d="M68.12838,19.6192a1.28533,1.28533,0,0,0-.2178.5635.06581.06581,0,0,1-.0068.0263,5.97191,5.97191,0,0,1,2.4531.5635c.0469.0195.0928.0391.1358.0566.2246.1153.5029.2676.7919.4219.044.0225.0889.0459.1319.0703.0869.0469.1777.0918.2656.1446a.14146.14146,0,0,1,.043.0234c.08492.041.1728.0928.2637.1338a1.05081,1.05081,0,0,0,.1123.0625c.0556.0322.1123.0586.16892.0908.043.0195.084.041.12888.0645.084.0449.1709.0908.2588.1318h0c.124.0625.2471.126.3721.1855h.0019c.1162.0586.2334.1163.3516.169a.17745.17745,0,0,0,.0459.0254c.123.0586.25.1172.375.168a16.60133,16.60133,0,0,0,1.6914.7001,6.05308,6.05308,0,0,0,.8291.2081h0A1.51478,1.51478,0,0,0,77.853,22.3272a1.91642,1.91642,0,0,0-.03912-1.2178.11016.11016,0,0,0-.04288-.0068c-.02832-.002-.06252-.0059-.10162-.0108a5.85055,5.85055,0,0,1-.7881-.1689,19.21955,19.21955,0,0,1-3.5752-1.6211c-.1943-.1357-.3935-.2227-.5468-.3125A3.8651,3.8651,0,0,0,69.977,18.337,2.99981,2.99981,0,0,0,68.12838,19.6192Z" fill="#34b3d1" stroke="#000" stroke-width="0.8"/><path d="M70.81878,23.0459a.19644.19644,0,0,1-.0136.0391c-.0254.0752-.0469.1484-.0733.2227-.1787.5283-.3945,1.0722-.50488,1.539-.01562.0625-.03222.1289-.05372.1944a5.03679,5.03679,0,0,1-.5146,1.1074l-1.416,1.4502a2.68337,2.68337,0,0,0,2.04.4023,3.4224,3.4224,0,0,0,2.5459-2.5195c.1465-.3955.27442-.8106.4062-1.2324.0391-.1348.0801-.2637.1231-.3936.1426-.4463.28712-.9072.4463-1.3349-.125-.0508-.252-.1094-.375-.168a.17745.17745,0,0,1-.0459-.0254c-.1182-.0527-.2354-.1104-.3516-.169h-.0019c-.125-.0595-.2481-.123-.3721-.1855-.4404-.2217-.8564-.4443-1.2412-.6514C71.188,21.8858,71.00048,22.4756,70.81878,23.0459Z" fill="#34b3d1" stroke="#000" stroke-width="0.8"/><path d="M64.00438,24.0694A1.33645,1.33645,0,0,0,64.81,25.7647c.03028-.0176.06058-.0313.09088-.0508.1269-.0703.24612-.1348.3623-.2002.1513-.0771.29782-.1494.4453-.2139a5.488,5.488,0,0,1,.5996-.2207.17.17,0,0,1,.1103-.0195.26844.26844,0,0,1,.0479-.0185h.0166l.0019-.003a22.30612,22.30612,0,0,1,2.4766.1817,4.17074,4.17074,0,0,0,1.2119-.1787c.0215-.0655.0381-.1319.05372-.1944.11038-.4668.32618-1.0107.50488-1.539.0264-.0743.0479-.1475.0733-.2227-.3575-.0781-.9776-.2363-1.5284-.3516-.0839-.0224-.1679-.039-.25-.0566a10.55733,10.55733,0,0,0-2.4404-.3174,3.23015,3.23015,0,0,0-1.4033.3369A2.44294,2.44294,0,0,0,64.00438,24.0694Z" fill="#34b3d1" stroke="#000" stroke-width="0.8"/><path d="M86.28948,11.9854a5.9927,5.9927,0,1,0-5.9902-5.9902A5.99195,5.99195,0,0,0,86.28948,11.9854Z" fill="gray"/><path d="M86.85978,3.6924v.252c0,.0195.0088.039.0215.039h3.6992c.0127,0,.02352-.0195.02352-.039V2.3467c0-.0215-.01082-.039-.02352-.039h-3.6992c-.0127,0-.0215.0175-.0215.039V2.669H87.354V3.6924Z" fill="#e5e5e5"/><path d="M85.78458,2.6573V2.3467c0-.0215-.0107-.039-.0195-.039h-3.6855c-.0108,0-.01958.0175-.01958.039V3.9444c0,.0195.00878.039.01958.039h3.6855c.0088,0,.0195-.0195.0195-.039v-.25H85.269V2.6573Z" fill="#e5e5e5"/><path d="M84.59318,7.2354s1.00982-1.918,1.2696-2.2637l.0146-.7226c-.0908-.0391-2.1201,2.5498-2.1201,2.5498a1.83814,1.83814,0,0,0-2.3984,1.3818,1.9272,1.9272,0,0,0,.9629,1.6387,4.146,4.146,0,0,0,2.373.8808c.8203.0801.9863-.667,1.0469-1.0625A2.289,2.289,0,0,0,84.59318,7.2354Zm-2.1289.3184a2.36961,2.36961,0,0,1,2.753,1.6416A2.41345,2.41345,0,0,1,82.46428,7.5538Z" fill="#e6e6e6"/><path d="M86.86858,5.003c.4473.7363,1.2022,2.2324,1.2022,2.2324a2.2909,2.2909,0,0,0-1.1504,2.4023c.0625.3955.22662,1.1426,1.0469,1.0625a4.13667,4.13667,0,0,0,2.373-.8808,1.92012,1.92012,0,0,0,.9629-1.6387,1.83584,1.83584,0,0,0-2.3965-1.3818s-1.2754-1.5908-1.9101-2.3369c-.0801-.0957-.0723-.1094-.128-.1719m.5762,4.9053a2.37346,2.37346,0,0,1,2.7549-1.6416A2.4164,2.4164,0,0,1,87.44478,9.1954Z" fill="#e6e6e6"/><polyline points="85.204 2.874 86.298 2.874 86.298 3.491 85.204 3.491" fill="#e5e5e5"/><polyline points="87.883 3.491 86.869 3.491 86.869 2.874 87.883 2.874" fill="#e5e5e5"/><path d="M86.03658,2.1133h.5898a.0391.0391,0,0,1,.0391.0391v2.705a.0391.0391,0,0,1-.0391.0391h-.5888a.0391.0391,0,0,1-.0391-.0391V2.1514A.0381.0381,0,0,1,86.03658,2.1133Z" fill="#e5e5e5"/></g></g></svg>