<svg xmlns="http://www.w3.org/2000/svg" xmlns:xlink="http://www.w3.org/1999/xlink" viewBox="0 0 138.86964 276.98713"><defs><linearGradient id="linear-gradient" x1="70.77966" y1="207.70447" x2="66.66631" y2="221.68745" gradientTransform="matrix(0.52059, 0.96354, -1.87457, 0.26753, 464.5919, -17.75729)" gradientUnits="userSpaceOnUse"><stop offset="0" stop-color="#fff"/><stop offset="1" stop-color="#fff" stop-opacity="0"/></linearGradient></defs><title>MAESTRO-Pe06-rapport-mouflage-10</title><g id="Calque_2" data-name="Calque 2"><g id="Calque_1-2" data-name="Calque 1"><line y1="22.91216" x2="120.972" y2="22.91216" fill="#fff" stroke="#000" stroke-miterlimit="10" stroke-width="0.64245"/><line x1="60.48645" y1="22.91216" x2="60.48645" y2="52.38341" fill="#fff" stroke="#000" stroke-miterlimit="10" stroke-width="3.21226"/><line x1="62.3226" y1="184.83746" x2="48.92505" y2="206.29016" fill="#fff" stroke="#000" stroke-miterlimit="10" stroke-width="3.21226"/><path d="M52.23924,5.16748a2.16,2.16,0,0,0,.32324.01709h.30566a2.04955,2.04955,0,0,0,2.29492-1.97168A1.90547,1.90547,0,0,0,53.021,1.2749c-1.56347,0-2.27734,1.207-2.27734,2.61768H49.29881C49.38377,1.59766,50.6074,0,53.021,0c2.09082,0,3.67188,1.00293,3.67188,3.22949a2.71174,2.71174,0,0,1-1.666,2.397v.0337A2.73341,2.73341,0,0,1,57.20261,8.584c0,2.397-1.88671,3.67188-4.14746,3.67188-2.44775,0-4.0625-1.42774-4.01172-3.92676h1.44483A2.45006,2.45006,0,0,0,53.05515,10.981a2.40582,2.40582,0,0,0,2.61768-2.32862,2.30211,2.30211,0,0,0-2.56641-2.312,7.06056,7.06056,0,0,0-.86718.05078Z"/><path d="M61.28367,5.15039H59.39646V3.26367h1.88721ZM59.39646,10.165h1.88721v1.88672H59.39646Z"/><path d="M68.76316,12.05176H67.31834V3.4165H64.1909V2.26074c1.64843,0,3.14453-.4248,3.46728-2.26074h1.105Z"/><path d="M106.2144,89.794,80.9847,180.31406a13.93322,13.93322,0,0,1-27.3648-3.36255l-.0036-.50025c0-9.424,5.14815-41.92755,9.68985-70.60395,3.27615-20.6829,6.37065-40.21875,6.37065-44.083A8.98946,8.98946,0,0,0,60.48645,52.573a9.201,9.201,0,0,0-9.1905,9.19125V268.245H46.5543V61.76426A13.94769,13.94769,0,0,1,60.48645,47.83211a13.78383,13.78383,0,0,1,13.9314,13.93215c0,4.2378-2.8368,22.1484-6.42855,44.82495C63.6981,133.68221,58.358,167.4,58.358,176.43371l.003.4467a9.19181,9.19181,0,0,0,18.0534,2.17095l25.2261-90.5046Z" fill="#34b3d1" stroke="#000" stroke-linecap="round" stroke-width="0.64245"/><path d="M51.1062,61.76426a9.3798,9.3798,0,1,1,9.38025,9.37935A9.38136,9.38136,0,0,1,51.1062,61.76426Z" fill="#fff" stroke="#000" stroke-miterlimit="10" stroke-width="3.21226"/><path d="M58.1133,176.59841a9.3798,9.3798,0,1,1,9.3801,9.38025A9.38053,9.38053,0,0,1,58.1133,176.59841Z" fill="#fff" stroke="#000" stroke-miterlimit="10" stroke-width="3.21226"/><rect x="42.60435" y="194.60066" width="13.4187" height="21.7947" fill="#fff" stroke="#000" stroke-miterlimit="10" stroke-width="3.21226"/><rect x="80.5683" y="96.62074" width="36.11639" height="18.56429" transform="translate(-29.80437 172.59711) rotate(-74.48039)" fill="url(#linear-gradient)"/><path d="M62.35886,263.48713a13.49867,13.49867,0,1,1-13.5-13.5A13.50281,13.50281,0,0,1,62.35886,263.48713Z" fill="#686166"/><path d="M42.5441,256.94308l-.00265-.00463C42.54342,256.95574,42.5441,256.9537,42.5441,256.94308Z" fill="#d9d9d9"/><polygon points="41.918 272.227 41.924 272.228 41.925 272.22 41.918 272.227" fill="#d9d9d9"/><path d="M45.51009,257.80091c.00538.00129.00932.006.014.008h.00061Z" fill="#d9d9d9"/><path d="M55.83278,257.81152s.07708-.13022-.06376-.105a16.08751,16.08751,0,0,1-2.0757.18336c-.06117.28569-.1914.45579-.24188.7176a1.46244,1.46244,0,0,0,0,.3721.80245.80245,0,0,0,.72821.186A2.56248,2.56248,0,0,0,55.83278,257.81152Z" fill="#d9d9d9"/><path d="M51.87806,261.163c.11825.09566.3508.17009.40135.34284a1.03093,1.03093,0,0,1,.01858.25514c1.02057-.101,2.22451.03457,3.21855-.10369a5.08361,5.08361,0,0,0,.80264-.13288,5.647,5.647,0,0,0,1.2996-2.11558c-.03191-.18336-.27243-.41061-.38006-.5262a2.62284,2.62284,0,0,1-.49831-.59534c.04055-.12559.07042-.2465.11294-.40659.35618-1.33022.08505-2.83318-1.22523-2.71493a1.38276,1.38276,0,0,0-.87967.38938c-.06382.06375-.117.206-.19139.25378-.09566.06246-.21922.04124-.3242.09036a2.09809,2.09809,0,0,0-.65119.80666,2.0294,2.0294,0,0,0-.28434.78135c-.01333.07178-.06912.1754-.09437.25385a.97191.97191,0,0,1,.62854.02259,13.17007,13.17007,0,0,1,.804-1.40594c.44245.081,1.09228-.67113,1.41655,0a3.04631,3.04631,0,0,1-.02129,1.33947c-.04715.65248.28106.46116.495.47708a5.86986,5.86986,0,0,1-.85782,1.099,2.58541,2.58541,0,0,1-1.49364.804c-1.24381.15547-1.64782-1.15345-1.24381-2.32153-.19935.02388-.30032-.10634-.53553-.07178-.87572.13022-.88239.35611-1.33953.94219-.194.24977-.37074.50362-.5754.73747A3.86617,3.86617,0,0,0,51.87806,261.163Z" fill="#d9d9d9"/><path d="M60.37752,262.79348c-.26977-.46116-1.55474-2.89033-2.02788-2.784-.2418.05314-.37468.52485-.501.73618a6.83469,6.83469,0,0,0-.64718,1.19863c-.04783.388.2578.52892.36149.7561a2.52935,2.52935,0,0,1,.2299.55683c.03055.16479-.0332.2844,0,.41061a10.222,10.222,0,0,0,1.01656,1.68367c.09967.19139.09035.38142.226.52893.26311-.44123.61922-.79469.88368-1.24122.19929-.35346.38136-.74815.55281-1.10562.04253-.093.05185-.2644.1156-.3242C60.62865,263.16687,60.3948,262.82668,60.37752,262.79348Z" fill="#d9d9d9"/><path d="M50.63827,261.3676c-.29373-.4864-.51961-1.0073-1.23054-1.0339-.16881.34754-.66977,1.04316-1.083,1.74082-.01334-.014-.03191-.03783-.04389-.04919.00531-.03851-.03055-.07042-.04116-.09961.00394.01994-.01865.03184-.028.01994-.05313-.07444-.01456.008-.08368-.06117a2.38439,2.38439,0,0,1-.34815-.51158c-.06913-.016-.07975-.08906-.13159-.113l.00932-.00265c-.04388-.03321-.1967-.30563-.24718-.34816l.00265.01334c-.02653-.01334-.02919-.02592-.02857-.04055a.04748.04748,0,0,1,.00068-.0166l-.002.002a.072.072,0,0,0-.002-.04055.05054.05054,0,0,1-.03585.01266l.004-.018h-.00136l.01728-.01326a2.24587,2.24587,0,0,0-.15948-.45314c.00932-.00932.01333-.00265.01333-.00265a.52592.52592,0,0,0-.07443-.10635c.00667-.01993.0279-.02789.03722-.03585-.02395.01463-.13819-.2033-.13023-.21133l-.05851.02926c-.01994-.04116.05981-.04654.0266-.07838-.0877.02123-.0266-.06647-.07178-.05715a.03785.03785,0,0,1,.0213-.03321c-.04654.01327-.01864-.01728-.03456-.024-.01463.00531-.01062.01062-.02395.01994l-.02919-.02259c.01061-.01327.03184-.02926.04381-.0213a2.46421,2.46421,0,0,0-.21262-.50627c-.02653.02259.00667.03586-.03721.07308-.04117-.00531-.0066-.03457-.04253-.02919.07314-.04525-.00394-.0545.06777-.10764l-.04783.01456.02129-.02123c-.09171-.06912-.03054-.012-.06647-.09566-.02524-.03987-.09566-.03191-.089-.06913,0,0-.01728.02525-.03457.02123.03457-.02123-.04123-.01857-.00666-.04252-.012-.01191-.02654-.04783-.07042-.01062.02129-.01993.01728-.05844.04919-.05177-.00667-.012-.00531-.02661-.01728-.028l-.00932.0213c-.02661-.03586.004-.07573-.05314-.07709l-.01728.02661c-.012-.02259-.02525-.03593.01728-.07315l.0332.016a.16315.16315,0,0,0-.07974-.07844l.00136.01333c-.07042-.016-.22323-.2033-.30032-.20867l-.03191.03592-.05048-.01068a1.21261,1.21261,0,0,1,.12621-.04382.81978.81978,0,0,1-.11159-.24316c.01062-.03988.06376-.03457.06376-.03457-.02525-.02925-.04518.004-.0545-.024l.03721-.01327c-.008-.01061.00266-.02925-.01857-.01728-.00932.0213-.05586.03858-.08641.05981l-.01259-.03252.00334-.004.02653-.01265-.01857.00333c.00394-.0066.01061-.00864.01327-.0166a.14.14,0,0,1-.08369-.00333l-.00667-.00334a.31755.31755,0,0,1-.01592-.05048.5135.5135,0,0,1-.01728-.06246.1733.1733,0,0,0-.03191-.06511.06632.06632,0,0,1,.02789.00136l.008-.02259c-.02653.02653-.03054-.016-.03987.00394l-.00925-.00394s-.00667-.00531-.004-.01068l-.00266.008-.008-.00265c.00531-.00265-.02259-.0266-.016-.03191-.0119-.01327-.0332-.04783-.03449-.0266,0,0-.01864-.04253.00129-.0279a.1092.1092,0,0,1-.01592-.02123l-.00136.00926c-.02654-.02919-.03456-.05314-.06375-.06511l.0066.01462c-.01463-.01728-.03586-.02524-.03457-.04252l.028.01061a.30936.30936,0,0,0-.07906-.04381l-.016-.004a.58631.58631,0,0,1-.04055-.0611c.00932-.09436-.64711.05981-.73216-.04517l-.06511-.07444-.24984.03919a.66806.66806,0,0,1-.01994-.277c-.04517-.01728-.01864-.05579-.05313-.07443l.01456.00136a.48115.48115,0,0,1-.02055-.14887,1.38237,1.38237,0,0,0,.35012-.24051,2.11544,2.11544,0,0,0,.44389-.61c.04783-.06375.05313.01463.05844.01729.02395-.10233-.01857-.05716.01327-.13819.01333-.01993.02395.01327.02259.02926.00932-.03858.03061-.06648.01728-.0758-.0279.04253-.05715.004-.09036.00932a.70659.70659,0,0,0,.03457-.10233l.02395.01592a1.21444,1.21444,0,0,1,.0053-.30032,1.20218,1.20218,0,0,0-.00265-.44646c.01327,0,.02919.03851.04252.07974,0-.0279-.012-.06647,0-.08906-.02129.04783-.02925-.07838-.03456-.04253a4.50787,4.50787,0,0,0-.31631-.3721,1.57317,1.57317,0,0,0-.27242.05185.77993.77993,0,0,0-.05709-.15948c.19663-.11825.38136-.24984.37074-.4279l.02259-.0119-.03722-.05185c-.03456-.07178-.081-.07709-.0598-.08906l.06511.08375c-.03987-.06647.00265-.03327.0279-.01864a.41475.41475,0,0,1-.04117-.07974c-.01864-.008-.00136.01463,0,.03062a.52076.52076,0,0,1-.109-.10233c-.0545-.05981.02524-.03456-.03586-.10764a1.75613,1.75613,0,0,0-1.25047-.63391c-.01062-.012.00129-.01061.01728-.01592a1.57293,1.57293,0,0,0-.396.04647.14966.14966,0,0,1-.06117-.02919c.01061.0066-.16343.04913-.32822.13553a2.008,2.008,0,0,0-.31359.18738l.01457.05579c-.10764.08376-.06641-.02524-.15547.07042.00265.0877-.15282.15819-.15812.21929,0,0-.04518.04518-.05715.02789.01864.04253-.03321.06382-.05049.10233-.00136.01729.01592-.00129.0332-.004-.01592.028-.02259.0545-.04252.08777-.02259.02259-.04647.02123-.03191-.01864a2.02791,2.02791,0,0,0-.291.81727,2.15684,2.15684,0,0,0,.08906.9209c.01728-.03987-.02789-.12091.012-.16343.03585.06641.01721.10764.05048.13023-.05184.05048.03456.16206,0,.23915l.04253.008-.00667.04525c.18336.279.15948.00394.30433.26439.101.13826.198.13955.24181.22194-.004-.01327-.01592-.05579.0213-.02925-.01865.02925.04783.0532.04116.09436a.33037.33037,0,0,1,.03592.14683c.00728.03722.08172.11029.02259.08308.02919.02524.05715.05715.08369.06109l-.03722-.04116c.109.07838.16084.14615.24984.15016l-.03055-.04388c.06246.04252.1209.06511.13689.11832l-.0811-.0213a.84605.84605,0,0,0,.21793.07042.06539.06539,0,0,0,.01068.02524.11046.11046,0,0,1-.03858.01728c.02259-.0066.04783.11961.04123.12363l.04647-.00667c.00266.02524-.05177.01463-.03721.03722.07048-.004-.00266.03585.03721.03585-.0066.00266-.0066.01334-.02653.016.03721-.004.01061.01191.01857.01592.01062.00136.012-.00265.02395-.008l.01858.01327a.3223.3223,0,0,1-.03722.016.71214.71214,0,0,0,.01864.279c.02654-.00666.00265-.01728.04647-.02925.0279.00537-.004.016.01994.01728-.04314.01-.04117.01993-.04981.03123a2.38712,2.38712,0,0,0-.52825.21731l-.05184.008.00932.02926c-.02524.04252.03858.04783-.01463.05579l.004-.05184c-.01463.04123-.04124.01728-.07573.01061a.06965.06965,0,0,1-.028.04919c.02265.004.02395-.008.03857-.01728.01994.01728.07042.03191.04783.06246-.00136.03858-.0864.01993-.0877.06913l-.002.0166-.02062.00993-.04653-.03586a.07327.07327,0,0,1,.01864-.02258c-.01334-.01062-.03722.004-.03593.02524l.03722.03055c-.01191.03857-.03055-.01191-.04647.01864-.03456-.024-.01864-.05586-.00531-.07845-.02129.01728-.05715.01994-.03061.05055-.0279.01062-.03722-.03191-.06512-.01993-.00394.02259.00933.06375-.02388.06776l-.008-.00666c-.04517.01462-.028.05844-.03721.09437-.01865.01728-.01463-.00667-.03191.01728h-.00531v-.00667c-.0266,0-.02926.04783-.06511.0545l.01993.00394a.08917.08917,0,0,1-.016.03593c-.01592.01592-.02388.03585-.05313.03851l.01061.04388c-.08634.093-.18336.26311-.26045.36673l.00136-.008a6.6579,6.6579,0,0,0-.45844.65915c-.04525.00266-.06647.03715-.09437.05443.02123-.00394.04116.01864.02524.03062-.06246.07437.01994.02388-.03055.10893a2.28609,2.28609,0,0,1-.45184.485c.008.07573-.07042.10369-.07573.16608l-.008-.0119c-.01993.05715-.26711.28038-.29637.34413l.012-.00129c-.0053.06641-.05048.02259-.093.04253a.11974.11974,0,0,1,.03721.11825l-.012-.01327a.66572.66572,0,0,1-.03457.15941l-.02258-.02388c.004.05579-.0558.10362-.07444.12757-.05314.03987-.15948.07974-.18207.17677l-.11423-.01994.0053.01456s.03851.03327.10233.08376l-.008.01592-.00537-.008a.6055.6055,0,0,0-.02388.12893l-.012.01456a.51937.51937,0,0,0,.00136.12492.60677.60677,0,0,0,.02654.12491l.01462.00266c.01729.04252-.01592.01728.00667.0598.0279.008.03321.06185.04913.07444a1.34257,1.34257,0,0,0-.02259.30433c-.01062.004-.01191-.00136-.01191-.00136.00925.03593.0066.06913.01858.10369a.05913.05913,0,0,1-.03988.02259c.02395-.00531.03586.20194.02926.20194l.05185-.0013c0,.03722-.05852.01729-.04253.05185.06906.008-.004.0611.03184.07307a.03456.03456,0,0,1-.02789.01728c.03585.00266.00932.01593.01993.02654l.0213-.008.01327.0266-.02926.01327a1.52672,1.52672,0,0,0-.01327.45449c.02123-.00932.00266-.03191.04783-.04517.0279.01857-.00666.0332.01729.03721-.06246.01191-.00933.04253-.07838.06246h.03714l-.02258.01722c.04653.07708.01993.01333.01462.09042.00933.04252.06117.05844.04518.08239,0,0,.01864-.012.02926-.00136-.02926.00136.024.02661-.00932.03457.0053.00932.00265.04912.04783.03055-.02259.0053-.02919.03987-.04913.01857-.00136.01463-.0053.0266.0013.03722l.016-.01592c.00394.0332-.02525.05579.01462.07443l.01592-.01463c.004.02259.00933.03987-.03721.05049l-.01327-.01994a.14619.14619,0,0,0,.03456.0877v-.01061c.04783.03191.089.22854.14744.25916l.03327-.01994.03055.02654-.10362-.008a2.96824,2.96824,0,0,1,.03184.45981c-.01728.02653-.05579.0066-.06375.01061.01463.02524.03851.00531.03722.03055-.004.00932-.0279,0-.0279,0-.00136.012-.008.024.004.01993.01327-.01592.0545-.01326.08375-.02122l-.00265.03184-.0266.00272s.07572.00925.0598.04518a1.1657,1.1657,0,0,0,0,.16744.051.051,0,0,1-.03592-.0213s.00272.01858-.00926.01994c.0279-.012.02259.02259.02259.02259.07974.02129.01994.081.06641.11294l.099-.00265c-.06443.15349-.1707.4153-.20261.52627l-.04518.01191c.01592.03327-.01327.05321-.004.09573-.01061.01592-.0332.00265-.03585-.008.008.03722-.03191.06117-.01592.0877l.01327-.00129c.01592.0611-.0824.0598-.06648.12621h.00667c.01327.03191-.03191.04388-.04783.05851.00265.03457.04116.01994.04912.04647-.04252-.00394.19541.17275.19139.19534.012-.02388.03055-.05048.06376-.03449-.01456.02918.30038.11954.27378.15145l.09968-.0066c-.01728.008-.01994.04116,0,.04783-.00667-.004-.00136-.01994.00129-.03592l.62459.09838c.06511-.02926.02395-.12227.1143-.14485.01062.01728.01593-.03191.03851-.004-.0053-.01327.00137-.02388.00266-.03851-.01728.01327-.0279.02259-.04919.01858a1.97414,1.97414,0,0,0,.07048-.21793c-.00136-.04783.089-.04116.089-.04116l-.03191-.00932.012-.04389c.0279.0213.07974.03191.08906.05185.01858.004.008-.012.008-.02525l-.02789-.004c.00667-.0332.09968-.10764.12621-.1422,0,0-.04912.01068-.06375-.02654.00333-.07838-.27841-.58335-.319-.75549l.02258-.00061c.00136.01061.00136.02388-.0066.02653a.0267.0267,0,0,0,.01327-.04116l-.03191.00462-.00129-.00394c-.002-.012.01925-.00735.01728-.02728.03055-.008.0345.01592.03851.03857.004-.01993.02259-.03857-.008-.04654.01061-.01462.03586-.00265.04919-.02394-.01068-.01327-.04123-.02919-.02266-.04518l.00273-.00266c.03184-.04252-.0492-.05715-.016-.101l.00932.00394c.01592-.01456-.00667-.0398.01061-.06375,0,0-.03055.01463-.03191,0,.01865-.0279-.00394-.04388.0213-.06647L41.582,264.618c.00136-.09437-.05845-.47443-.06913-.56873l.008.00265a4.481,4.481,0,0,0-.0824-.59669c.0279-.0266.02123-.05981.02524-.08505-.012.01864-.0332.01327-.03191.00136.004-.07443-.01993-.00136-.0332-.07708a1.417,1.417,0,0,1,.00531-.50233c-.04919-.03722-.01864-.09036-.04252-.13159l.0053.00266c-.01592-.03851.01327-.29366-.0053-.33747l-.004.00265c-.02919-.03987.01728-.03987.03062-.07443a.078.078,0,0,1-.08376-.04123l.00932.00136a.24686.24686,0,0,0-.02925-.04981,2.22563,2.22563,0,0,0,.3508-.33821c.016.008.01069.01061.01334.01857.01993-.05048.05314-.08505.07572-.13288a.29921.29921,0,0,1,.05185.01728c-.02926-.012.14349-.22724.15281-.22459l-.04388-.04116c.02926-.04124.06382.03456.07974-.01062-.05314-.07178.06117-.05715.03722-.09967a.03633.03633,0,0,1,.03987.0066c-.03191-.03586.00666-.02525.0053-.04382-.004-.01334-.00932-.00667-.02524-.01463l.00932-.03851c.01994.00265.04382.01858.03851.0345a3.36288,3.36288,0,0,0,.42123-.44783c-.03586-.01463-.03715.0213-.0877-.00265-.008-.04117.03061-.02259.01333-.05178.07307.04382.05049-.03593.13152.008l-.03055-.03592.02926.00666c.01462-.05912.01462-.06647.01925-.06844a.61576.61576,0,0,0,.01531.10035c.05579-.0332.01592-.06246.101-.093.05314.02389-.01327.05049.04252.0558-.13288.04116-.02524.081-.15546.13424l.07443-.00667-.04525.02925c.08907.13554.03987.02654.03593.16078.01857.07974.12492.09035.089.1422,0,0,.04654-.03191.06784-.016-.06784.016.05048.03987-.012.06511.008.01728.008.08376.09165.03987-.04253.02259-.05579.0824-.09961.05586-.00136.02123-.00932.04382.01061.05178l.02259-.03055c.01728.06117-.05048.11029.03722.13689l.03456-.03191c.00926.03457.01858.07042-.06912.10369l-.03457-.03721a.20357.20357,0,0,0,.07178.14349v-.01728c.09567.04919.20466.388.31625.42394l.06776-.03721.06117.04116c0-.00932-.2246.01993-.20065.00932a4.43143,4.43143,0,0,1,.08634.81326.11506.11506,0,0,1-.11029.03191c.01858.04647.06648.008.06246.0545-.012.01592-.05715.00925-.05715.00925s-.02388.03457.01327.02926c.02129-.0266.10763-.03457.16213-.05845l-.00129.05845-.05586.01061c0,.01062.15152.00266.12757.06117a.4168.4168,0,0,0,.002.06375l-.1854-.008c.00265-.01592.008-.03191.01728-.03586a.0359.0359,0,0,0-.02926.05178l.05981.008c.01864.03715-.03586.0066-.0332.04518-.04919,0-.05579-.03722-.06117-.06913-.008.03055-.04252.0545.00932.06913-.02259.02388-.0611-.00538-.08368.02388.01462.024.05579.05851.02918.08239l-.0119-.00129c-.05185.05844.07171.10362.01857.15941l-.01728-.01061c-.03055.01864.00265.06246-.0279.101.008-.01191.04654-.01994.05049.004-.0332.04389-.00265.07573-.04518.101l.04654.03327c-.016.14751.02388.58737.02259.73617l-.008-.00666a7.22784,7.22784,0,0,0,.081.94886c-.05184.03184-.04252.08239-.05844.11954.02122-.02123.05048-.008.04912.00667-.00925.117.03055.00932.04919.12757a2.351,2.351,0,0,1-.101.776c.06641.06913.00926.14622.04913.21133l-.01729-.008c.02395.07307-.07041.45443-.04517.53417l.008-.01062c.03987.07042-.03715.05845-.06246.11029a.11853.11853,0,0,1,.12226.08376l-.01857-.00136a.87129.87129,0,0,1,.08369.17275l-.04518-.00531c.00932.00993.00667.024.01068.03586-.01932.008-.04123.01932-.03456.0319l.05048.02062-.00068.02062c-.01259-.00068-.02789-.004-.03252.01857-.05321-.01592-.05055-.05314-.0479-.08505-.01327.02661-.05708.03851-.00531.06913-.02789.01857-.06246-.024-.0943.00129.00926.02524.05049.06777.01191.0824l-.00925-.00531c-.06913.04252.069.02259,0,.05981l-.01334-.01327c-.03586.00925-.008.06239-.05178.08368.01463-.004.05443-.00136.05314.01994-.04388.02926-.02395.06777-.07042.08369l.04116.03987c-.05715.13954-.16478.69637-.20329.83455l-.00667-.0053c-.04253.21792-.35611.61921-.35877.85843-.05851.01593-.06246.06512-.0877.09567.02388-.01191.05715.00932.05049.02129-.03851.10362.03191.01592.01728.13288a1.49114,1.49114,0,0,1-.23521.59c.05185.07708-.02524.13417.00129.21l-.01592-.01333c.00531.06912-.1754.40136-.1754.47974l.01592-.00395c.02524.07436-.05178.04116-.09035.085a.1329.1329,0,0,1,.10634.11029l-.016-.008c.00265.03585-.18472.10491-.18867.16342l-.04518-.01864c.03191.05586-.01463.13159-.01864.1635-.04252.06375.03858.22058.06647.33488l-.14485.01858.01061.01462s.20269.0824.46709.18l-.196-.03184c-.03123.18-.17547.8166-.18609.984l-.05177.02653c.03449.04123-.00137.07178.02258.12227-.008.02524-.04388.01061-.04919-.004.02524.04654-.01864.08641.004.11567l.016-.008c.04517.07709-.08641.09573-.04123.17411h.00537c.0279.0332-.0266.0598-.04252.08239.01592.04117.05708.01327.077.04518-.05443.008-.02525.04123-.02259.07974.012-.03722.0266-.07573.07178-.06913-.00932.04654.05048.01729.0266.05852l-.06116-.00531c-.01593.01721-.008.0611.008.06246l.00265-.04252,1.7249.10892c.07838-.05048,1.4684.04253,1.58135-.01326.016.02122.00666-.04389.05184-.01334-.02129-.01191-.01061-.03184-.00932-.04252-.01728.016-.03722.03592-.05981.03456.00266-.09831-.19-.33488-.198-.43184-.01728-.05715.10233-.06116.101-.07443l-.04252-.004-.79333-.2518c.02525.002.01334-.01729.0213-.03654-.01327.00667-.04518.01728-.05314.00265-.00136-.04654.0345-.00932.05049-.0598,0,0-.05981.0266-.08771-.01592-.01394-.0824-.3887-.31033-.57676-.46913.0047-.0053.00667-.01327.016-.01463-.01333-.0119-.016-.00129-.028-.00265-.01191-.01728-.04116-.05443-.01728-.0664.01068-.02661.06913.02122.08505-.012.097-.17676.02531-.41857.07443-.60731.01864.00136.01728.00531.01728.00531a1.58912,1.58912,0,0,0,.03055-.16207.39112.39112,0,0,1,.06913,0c-.03851-.00272.05579-.299.06776-.30039l-.07974-.02789c.016-.05715.093.00932.09437-.04117-.105-.06116.03987-.085-.01327-.12226a.05154.05154,0,0,1,.05178-.01061c-.05715-.02525-.00394-.03055-.01191-.04783-.01462-.01334-.02129-.00266-.03987-.00266l-.008-.04123c.02129-.01327.06116-.004.0598.01463a3.01769,3.01769,0,0,0,.26583-.64051c-.05185,0-.03191.04252-.105.02925-.02925-.03857.02919-.03456-.008-.06382.109.02661.04252-.04919.15553-.03055l-.05851-.02789.04123-.00265c-.0213-.13826-.01864-.03722.02919-.13955.012-.06246-.0611-.12227-.01858-.14084,0,0-.04517.00265-.05579-.01864.05579.01864-.02395-.0545.03184-.04518.00136-.01857.02395-.06647-.05715-.07307.03858.00394.06913-.03321.09172.00129.00932-.01463.0266-.02524.01061-.04116l-.02388.01061c.004-.0545.16213-.13288.10893-.186l.0532.15942c.008-.0332-.07844-.21262-.0053-.19663l.01456.03851a.20217.20217,0,0,0-.004-.13955l-.008.01463c-.05321-.07838.06906-.23119-.00537-.31094l-.0611.008-.03321-.05845a1.14382,1.14382,0,0,1,.15146.07573,4.51344,4.51344,0,0,1,.19071-.61595c.00333.00068.01061-.00062.00463.00469.01333-.00667.03191-.008.03721-.01993l-.02259.0053c.018-.01.022-.018.03593-.02456a.1845.1845,0,0,1,.05314.02055.0467.0467,0,0,0-.0213-.04314c.00531-.004.016-.00734.01993-.01333a.2359.2359,0,0,0,.02395.01129c-.0053-.014.002-.01993-.0053-.02721.01326-.00932.02592-.02327.04116-.02062l-.02388.0279a.27724.27724,0,0,0,.0877-.09832l-.01334.01463a.94625.94625,0,0,0,.08771-.18071.35987.35987,0,0,0,.02258-.18738l-.01721.01994a.16278.16278,0,0,0-.01068-.04389l.04518.03191c0-.01061.00136-.02789.00265-.04783l.01334.0013-.00137-.02919c.024-.03062-.02388-.0479.01994-.04525l-.00932.04525c.01333-.03062.03456-.00538.05851.01061a.06981.06981,0,0,1,.02259-.03858c-.01327-.008-.01592.00136-.0266.00667-.01327-.01592-.05314-.04518-.03055-.06375.00667-.03456.07042,0,.07974-.03987a3.24544,3.24544,0,0,0,.10764-.60336c.02258-.00266.01857.004.01857.004-.008-.0545.00265-.11294-.01061-.16873a.30344.30344,0,0,1,.06647-.024c-.03858.01061-.02259-.3123-.01068-.31359l-.07968-.012c.00266-.06116.089-.012.07437-.07178-.10628-.02789.01864-.089-.04116-.11559a.05608.05608,0,0,1,.05184-.024c-.06246-.01062-.012-.02919-.0266-.04518-.01858-.008-.01858.00136-.03851.00531l-.01728-.03987c.01857-.01062.05579-.01327.0611-.0013a3.9552,3.9552,0,0,0,.07443-.402c.07573.09567.1654.24181.24188.26113l.05177-.03721.05852.03055a.99577.99577,0,0,1-.17411.01728,3.65441,3.65441,0,0,1,.1754.68038c-.02388.04116-.09036.02926-.09036.02926.02259.04116.05579.00394.05845.04381-.008.01062-.04647.01062-.05579.00531.01326.01463-.00531.03327.02395.03055.01592-.0279.09035-.0398.13287-.05708l.00531.04912-.04654.00932c.004.00932.13159-.008.121.04518a1.90983,1.90983,0,0,0,.04252.24453.09205.09205,0,0,1-.07049-.01865c.004.01334.01463.02661-.00265.04253.04388-.03184.03987.02129.05586.004.12492.02524.04116.12887.13288.16078l.07307-.02525a.12018.12018,0,0,1,.00932.03055c.01592.02525.00932.03191.00932.03191s.02722.04253.06239.08771c-.01524.20465-.00592.65051-.0119.776l-.00667-.008c.00136.22323-.21664.683-.1701.9143-.05313.02918-.04919.07974-.06375.11423.02123-.01857.05709-.008.05443.00667-.01857.1156.03327.012.04253.12628a1.44616,1.44616,0,0,1-.101.62853c.06776.06777.004.14084.04517.206l-.01728-.01062c.01994.06913-.08634.42789-.06776.50764l.01061-.01062c.03987.07042-.04116.05314-.07307.101a.14555.14555,0,0,1,.13158.085l-.02129-.00136c.01463.03721-.15547.14485-.15016.19806l-.04382-.008c.04382.05055.01191.1356.01592.16479-.0266.07443.08906.21.13689.31494l-.13689.04784.012.01068s.07572.01326.18737.03123a5.68362,5.68362,0,0,0-.09967.56539l-.05185.02661c.03191.04252,0,.07838.02259.12757-.00667.02919-.03987.01463-.05048.00129.02388.04389-.01994.09437.008.12227l.01463-.012c.04116.07709-.08771.10764-.04654.18473h.00666c.02661.03456-.0266.06776-.04783.093.01858.04123.06512.00932.07974.04253-.05585.00932-.02258.04388-.02129.07845.01068-.03593.0266-.07975.07443-.06913-.01061.04518.05049.012.02259.0598l-.05715-.00136c-.01994.01728-.012.05981.00667.05852a.4022.4022,0,0,0,0-.04253l2.44645.1156c.07572-.05715.61656.00136.72957-.06246.01721.01864.01061-.04647.05314-.01728-.016-.012-.00932-.0332-.00667-.05049a.08337.08337,0,0,1-.06375.04117c.00265-.09961.03184-.20595.02653-.303-.01592-.06375.101-.08634.101-.08634H48.8788l.00136-.0598c-.13288-.07042-.01728.07974-.19534-.03586.02259.00265-.17812-.101-.1688-.12226-.00932.0053-.03987.01993-.05314.0053.004-.04653-.29767-.08641-.27106-.1422a1.876,1.876,0,0,1-.41463-.19268c-.016-.07239-.26977-.13819-.44585-.208l-.00334-.02457c.02525-.0266-.02524-.04783.01865-.04252l-.01069.04252c.01994-.0266.04253-.004.06648.01062a.0557.0557,0,0,1,.02395-.03191c-.01334-.01062-.01728.00136-.01728.00136-.02395-.01463-.06246-.04252-.03988-.05981.00395-.03191.07172.00531.081-.03055.0545-.19268-.06777-.41462-.05845-.61261.02123.00136.02123.00531.02123.00531a1.1239,1.1239,0,0,0-.00932-.16479.19231.19231,0,0,1,.06783-.01327c-.03721.00531-.00932-.30032.00266-.30964l-.0811-.01062c.0053-.05715.097-.00932.07974-.06382-.11165-.0332.01728-.0877-.03586-.11559a.04682.04682,0,0,1,.05178-.01592c-.06641-.01865-.01327-.03191-.02654-.04783-.01993-.008-.01993.00265-.04252.00394l-.01728-.03851c.02123-.01326.05844-.01326.06375.00531a2.84172,2.84172,0,0,0,.12492-.679c-.04913.0066-.01994.04382-.09832.04912-.03721-.03456.01994-.04252-.02388-.05844.1156-.00266.0332-.06117.15016-.07308l-.06246-.012.03987-.00932c-.05184-.13424-.028-.03456-.00272-.13955-.00265-.06776-.08634-.10763-.05048-.13818,0,0-.04117.01326-.05314-.004.05314.004-.03722-.04912.01728-.05048-.004-.01728.008-.07042-.06913-.05981.03858-.0066.05852-.05048.09036-.01728.00136-.01857.01728-.03184,0-.04116l-.02259.01327c-.008-.05314.133-.16343.06511-.206l.08906.1422c-.00136-.0332-.12226-.18608-.04653-.19268l.01993.03851a.18283.18283,0,0,0-.03184-.13553l-.00667.01462c-.07042-.06776.01858-.23786-.07042-.29766l-.0598.01728L47.421,268.792c-.00394.00394.18738.03987.16744.03987a3.478,3.478,0,0,1,.06117-.68038c.03586-.03722.09165.00129.09165.00129-.0066-.04518-.04783-.02259-.04117-.05981.01327-.01061.04518.00531.0545.012-.00666-.01728.01463-.0279-.01333-.03055-.02123.01592-.0943-.00265-.14213.00129l.01326-.04381.04518.0053c.00129-.00932-.12492-.03857-.09171-.085.0266-.07308.01864-.16214.03987-.23923.02395.00266.03857.0213.05449.04253.00531-.01327-.00265-.02919.01858-.03586-.05314.01463-.03055-.03722-.05178-.02524a.09028.09028,0,0,1-.03055-.03525c.002-.00462.0066-.01061.00531-.01524l-.00735.01259-.00265-.00265c.018-.04586.03721-.07505.02993-.10832l-.016.01864c.00932-.03456.012-.06116.03191-.07307l.00265.03715a.5192.5192,0,0,0,.00136-.13553l-.004.01728a1.28138,1.28138,0,0,0-.03457-.15547c.00531-.01463.00667-.03055-.00394-.03722l-.00933-.00129-.004-.008a.14792.14792,0,0,0-.01327-.03585.06709.06709,0,0,1,.06648.04783c.00129-.03055.03055-.06641-.028-.06246.01463-.02926.06117-.01592.07845-.05048-.01993-.01858-.07579-.03457-.05184-.06648l.008-.00394c.03857-.07444-.101-.06913-.0611-.14084l.01857.00129c.02661-.0279-.02653-.0545-.00129-.09832-.008.01062-.04389.03185-.05715.01327.02524-.05048-.01334-.07178.01728-.11165l-.05586-.01327c-.02524-.14614-.19132-.5262-.23119-.67106l.008.004a5.89908,5.89908,0,0,0-.303-.8664c.04253-.04783.01728-.093.0213-.13424-.01334.0266-.0545.03327-.05586.01728-.01858-.11559-.03456,0-.08369-.10893a2.07964,2.07964,0,0,1-.12628-.7508c-.089-.03857-.05177-.13424-.11423-.17941l.01721.00129c-.04116-.05845-.06239-.44116-.10491-.50893l-.00538.01062c-.06246-.05314.0213-.06512.02926-.12356a.12681.12681,0,0,1-.15282-.03592l.01729-.0013c-.01865-.02524-.10635-.08375-.13288-.13288l.04783-.01061a.11846.11846,0,0,1-.0545-.07511l.19-.03525a.06362.06362,0,0,1-.01592.0479c.03456-.012.05048-.0532.02653-.06647l-.07572.01061c-.0279-.03987.04252-.02259.0332-.06375a.06771.06771,0,0,1,.09172.05715c.00265-.03191.04783-.07314-.02525-.07314.02525-.03449.07709-.01456.101-.05708-.02123-.01994-.08239-.04389-.05048-.07845l.012-.008c.05715-.0824-.10634-.09036-.04783-.16744l.02259.00136c.03191-.03327-.01728-.06784.01592-.11832-.01061.01463-.05579.03456-.0664.01068.03449-.05851-.00933-.08375.03714-.12757l-.06375-.02395c-.00462-.14288-.099-.59935-.14818-.85646l.02326-.01259a.90079.90079,0,0,0,.05049.08232c-.00531.01069-.01062.00933-.01062.00933a1.32024,1.32024,0,0,0,.093.09967.08483.08483,0,0,1-.02388.04253c.01722-.02259.17275.18336.16874.18867l.04123-.02919c.03055.04116-.03457.05048.0053.07708.05845-.028.03586.06376.07308.05709a.02455.02455,0,0,1-.012.03062c.03457-.016.02395.01592.03722.02122.01463-.0053.01061-.012.01061-.012l.03457.00667a.05392.05392,0,0,1-.01728.03191,2.40371,2.40371,0,0,0,.31229.47572c.012-.0266-.01728-.03456.01061-.07443.03191.00265.01062.03456.03858.01993-.04518.05715.02259.05715-.01993.1156l.0332-.01858-.01463.024c.097.05845.03191.0066.081.08369.03988.04252.09172.03055.097.06382,0,0,.0053-.02531.02524-.01994-.02524.01994.03722.01327.01728.04253.012.008.03191.04783.05586.00265-.00932.02123.00925.0611-.0213.05314,0,0,.008.02388.024.02926l-.00136-.02259c.02926.03184.0213.07307.07042.07042l.00136-.0213c.01994.01864.03586.03592.0066.06913l-.02524-.01334a.21168.21168,0,0,0,.0877.07178l-.008-.01327a1.03785,1.03785,0,0,1,.21861.13486.96421.96421,0,0,0-.0379.52158,8.74425,8.74425,0,0,0,.62595.73753c.1767.2246.38272.46776.56472.71624-.0066.03123-.02055.06314.012.09171l.008-.00666c.02926.02129-.00129.05586-.0053.07708.0266.0279.04783-.008.06912.01069-.012.00728.014.0119.0492.01592.02258.03653.05579.0711.07572.10763.14615.25113.11961.64984.38938.76142a.48758.48758,0,0,0,.32557.02259,18.40229,18.40229,0,0,0,1.6159-3.75272C51.42894,262.02669,50.85748,261.741,50.63827,261.3676ZM43.158,267.61194a.07836.07836,0,0,1,.0166-.02061.10958.10958,0,0,1,.00864.02857ZM44.5826,268.677l-.00266.00068.002-.00136Z" fill="#d9d9d9"/><path d="M56.666,262.63c-.91157.03722-2.14211-.03456-3.0843-.02653-.33489.00395-1.20925-.03987-1.43248.17806-.12492.12355-.11165.667-.16214.8717-.07974.28971-.26181.509-.35216.796-.22323.72957-.33883,1.4286-.59935,2.09034a1.14179,1.14179,0,0,0-.14615.47837.32573.32573,0,0,0,.28835.295c.28569.04653.52491-.0611.74815.101l4.28164-.03456a2.40913,2.40913,0,0,0,1.25578-.117c.3668-.10627.71359.09036.8598-.27372.32291-.79733-1.07106-2.78534-1.32355-3.3355C56.856,263.34758,56.79354,262.9516,56.666,262.63Z" fill="#d9d9d9"/><polygon points="94.432 105.193 97.312 94.587 92.007 93.144 104.932 84.862 104.932 84.862 111.884 98.546 106.585 97.105 103.703 107.71 94.432 105.193" fill="#fff" stroke="#fff" stroke-linecap="round" stroke-linejoin="round" stroke-width="4"/><rect x="96.35323" y="104.7926" width="3.71958" height="9.60845" transform="translate(-33.24705 175.74446) rotate(-74.846)" stroke-width="4" stroke="#fff" stroke-linecap="round" stroke-linejoin="round" fill="#fff"/><rect x="96.18714" y="108.82223" width="1.8615" height="9.60834" transform="translate(-37.98008 177.59031) rotate(-74.81491)" stroke-width="4" stroke="#fff" stroke-linecap="round" stroke-linejoin="round" fill="#fff"/><polygon points="94.432 105.193 97.312 94.587 92.007 93.144 104.932 84.862 104.932 84.862 111.884 98.546 106.585 97.105 103.703 107.71 94.432 105.193" fill="#252525"/><rect x="96.35323" y="104.7926" width="3.71958" height="9.60845" transform="translate(-33.24705 175.74446) rotate(-74.846)" fill="#252525"/><rect x="96.18714" y="108.82223" width="1.8615" height="9.60834" transform="translate(-37.98008 177.59031) rotate(-74.81491)" fill="#252525"/><path d="M118.69307,41.56583a13.50612,13.50612,0,0,0-13.35716,11.53755c.35667-.00941.74417-.02149.83809-.03488a9.92849,9.92849,0,0,1,2.07172-.1301c.07648.00673.15825.01881.24812.0335a1.74149,1.74149,0,0,0,1.25107-.181,2.82346,2.82346,0,0,1,.35269-.14617,1.27713,1.27713,0,0,1,.26954-.05094,1.23591,1.23591,0,0,0,.43577-.1207,3.47442,3.47442,0,0,0,.61955-.822,5.36411,5.36411,0,0,1,.657-.90511,6.2074,6.2074,0,0,1,1.13043-.74156,9.667,9.667,0,0,0,.96552-.61145,5.19082,5.19082,0,0,0,.89439-.99772,5.99847,5.99847,0,0,1,.7-.82066A4.35677,4.35677,0,0,1,118.567,46.711c.25478-.02684.5176-.04827.79923-.08445.2977-.03357.61283-.09392.9132-.15152.28829-.055.55914-.10862.80459-.13684a3.956,3.956,0,0,1,2.32115.4828,5.10748,5.10748,0,0,0,1.2766.4532c.067.01208.1448.02149.22526.03488.39292.059.98426.15022,1.12906.37548a.72023.72023,0,0,1-.1542.81125c-.57528.65038-2.01274.78447-3.07479.58331a1.31554,1.31554,0,0,1-.27758-.10992.88146.88146,0,0,0-.60473-.14617.85806.85806,0,0,0-.3299.2105.96018.96018,0,0,1-.20384.14885,4.7221,4.7221,0,0,1-1.79956.2199l.00536.00268-.012-.00268h.00666a1.49884,1.49884,0,0,0-.67853.01346c-.24669.14617-.39155,1.08079-.60473,2.59474a12.46536,12.46536,0,0,1-.27758,1.60108,6.03959,6.03959,0,0,1-1.30612,1.96983c-.17165.20253-.35668.41166-.52159.62223-.04559.05767-.08987.10058-.12873.14617a.98472.98472,0,0,0-.24.32715l-.03358.07648.06845.051a1.77343,1.77343,0,0,1,.83405,1.77807l-.00941.06035.05232.03893a1.10789,1.10789,0,0,1,.40226.69192c.03755.12736.07778.27222.13951.4291a2.8604,2.8604,0,0,0,1.91483,1.42,2.293,2.293,0,0,0,1.08485.03083,1.12893,1.12893,0,0,0,.49213-.2427l.11-.08713-.11266-.07916a3.81363,3.81363,0,0,0-1.231-.42911c-.92254-.21317-1.78878-.413-1.64268-1.349a.64114.64114,0,0,1,.16766-.42643c.27491-.24943,1.6547.0644,2.31847.21723.19046.04023.35269.08047.472.10058a9.08816,9.08816,0,0,0,1.08889.08047c.936.0322,2.09321.07106,2.3815.56992a.899.899,0,0,1-.1126.85416,1.86908,1.86908,0,0,1-.9695.8488,2.42017,2.42017,0,0,1-1.12377-.07642c-.14885-.0322-.28424-.06165-.42238-.08046l-.06838-.00941-.03351.05767c-.59271,1.00843-1.35034,1.04729-2.48612,1.109-.3634.02012-.78448.04559-1.227.10725a6.38669,6.38669,0,0,0-.90379.20116,4.66584,4.66584,0,0,1-2.07584.21991,8.8447,8.8447,0,0,1-1.699-.535,9.6069,9.6069,0,0,0-1.43616-.46934,2.85091,2.85091,0,0,0-1.48443.19176c-.15825.04964-.30174.09921-.43981.13278-.37411.08712-.77644.1542-1.16531.22657-.232.04291-.75358.07511-1.24839.11939a13.49766,13.49766,0,1,0,11.25723-20.94029Z" fill="#686166"/><path d="M121.95028,59.03841a9.08816,9.08816,0,0,1-1.08889-.08047c-.11933-.02011-.28156-.06035-.472-.10058-.66377-.15283-2.04356-.46666-2.31847-.21723a.64114.64114,0,0,0-.16766.42643c-.1461.936.72014,1.13579,1.64268,1.349a3.81363,3.81363,0,0,1,1.231.42911l.11266.07916-.11.08713a1.12893,1.12893,0,0,1-.49213.2427,2.293,2.293,0,0,1-1.08485-.03083,2.8604,2.8604,0,0,1-1.91483-1.42c-.06173-.15688-.102-.30174-.13951-.4291a1.10789,1.10789,0,0,0-.40226-.69192l-.05232-.03893.00941-.06035a1.77343,1.77343,0,0,0-.83405-1.77807l-.06845-.051.03358-.07648a.98472.98472,0,0,1,.24-.32715c.03886-.04559.08314-.0885.12873-.14617.16491-.21057.34994-.4197.52159-.62223a6.03959,6.03959,0,0,0,1.30612-1.96983,12.46536,12.46536,0,0,0,.27758-1.60108c.21318-1.514.358-2.44857.60473-2.59474a1.49884,1.49884,0,0,1,.67853-.01346,4.7221,4.7221,0,0,0,1.79956-.2199.96018.96018,0,0,0,.20384-.14885.85806.85806,0,0,1,.3299-.2105.88146.88146,0,0,1,.60473.14617,1.31554,1.31554,0,0,0,.27758.10992c1.062.20116,2.49951.06707,3.07479-.58331a.72023.72023,0,0,0,.1542-.81125c-.1448-.22526-.73614-.31651-1.12906-.37548-.08046-.01339-.15825-.0228-.22526-.03488a5.10748,5.10748,0,0,1-1.2766-.4532,3.956,3.956,0,0,0-2.32115-.4828c-.24545.02822-.5163.08184-.80459.13684-.30037.0576-.6155.118-.9132.15152-.28163.03618-.54445.05761-.79923.08445a4.35677,4.35677,0,0,0-2.79721.86356,5.99847,5.99847,0,0,0-.7.82066,5.19082,5.19082,0,0,1-.89439.99772,9.667,9.667,0,0,1-.96552.61145,6.2074,6.2074,0,0,0-1.13043.74156,5.36411,5.36411,0,0,0-.657.90511,3.47442,3.47442,0,0,1-.61955.822,1.23591,1.23591,0,0,1-.43577.1207,1.27713,1.27713,0,0,0-.26954.05094,2.82346,2.82346,0,0,0-.35269.14617,1.74149,1.74149,0,0,1-1.25107.181c-.08987-.01469-.17164-.02677-.24812-.0335a9.92849,9.92849,0,0,0-2.07172.1301c-.09392.01339-.48142.02547-.83809.03488a14.62562,14.62562,0,0,0-.14081,1.96447,13.42457,13.42457,0,0,0,2.24074,7.43827c.49481-.04428,1.0164-.07648,1.24839-.11939.38887-.07237.7912-.13945,1.16531-.22657.13807-.03357.28156-.08314.43981-.13278a2.85091,2.85091,0,0,1,1.48443-.19176,9.6069,9.6069,0,0,1,1.43616.46934,8.8447,8.8447,0,0,0,1.699.535,4.66584,4.66584,0,0,0,2.07584-.21991,6.38669,6.38669,0,0,1,.90379-.20116c.44249-.06166.86357-.08713,1.227-.10725,1.13578-.06172,1.89341-.10058,2.48612-1.109l.03351-.05767.06838.00941c.13814.01881.27353.04826.42238.08046a2.42017,2.42017,0,0,0,1.12377.07642,1.86908,1.86908,0,0,0,.9695-.8488.899.899,0,0,0,.1126-.85416C124.04349,59.10947,122.88628,59.07061,121.95028,59.03841Z" fill="#d9d9d9"/><polygon points="119.597 49.405 119.592 49.402 119.585 49.402 119.597 49.405" fill="#d9d9d9"/><path d="M124.541,49.60752a1.70519,1.70519,0,0,0-.59937.16354,2.23056,2.23056,0,0,1-.48945.15963,10.81807,10.81807,0,0,1-1.14787.09385c-.33388.01607-.64229.02815-.928.067l-.08314.0094a6.4447,6.4447,0,0,0-1.79551.39959.94274.94274,0,0,0-.49481.63967.832.832,0,0,0,.173.72412c.19039.2333.3218.25342.6611.31514.063.012.14075.02279.22121.04153a3.88875,3.88875,0,0,1,.40233.10326,4.14344,4.14344,0,0,0,.68924.15153,9.58834,9.58834,0,0,0,2.90315-.23872c.28561-.05492.55647-.10724.82333-.14885a2.35772,2.35772,0,0,1,.30168-.02677.94706.94706,0,0,0,.43989-.0872,1.01,1.01,0,0,0,.46933-.72007,1.5112,1.5112,0,0,0-.33257-1.16531A1.35773,1.35773,0,0,0,124.541,49.60752Z" fill="#d9d9d9"/><path d="M126.53765,53.65449c-.17164-.62492-.81262-.90648-1.75933-.77912a1.66662,1.66662,0,0,0-.362.10862,1.80757,1.80757,0,0,1-.34864.11664,13.17533,13.17533,0,0,1-3.36582.06578c-.10724-.00941-.22259-.02685-.3312-.04024-.68252-.0966-1.32617-.181-1.74725.2655-.27359.291-.36209.5404-.27359.76566.1542.39958,1.04063,1.11437,5.22168,1.42813l.17034.01339a4.64488,4.64488,0,0,0,1.75795-.07106A1.70543,1.70543,0,0,0,126.53765,53.65449Z" fill="#d9d9d9"/><path d="M124.27678,56.339l.055-.01606c-.03619-.00268-.2977,0-.50552.0094-.37411.00666-.64634.01744-.7268.00666-.37281-.03748-.75763-.07106-1.17067-.10724-.70668-.05362-1.44282-.11266-2.16564-.2186a2.52824,2.52824,0,0,1-.43308-.11129,2.0469,2.0469,0,0,0-.93064-.1126.883.883,0,0,0-.71074.70263.9135.9135,0,0,0,.30175.98557,11.36077,11.36077,0,0,0,3.93437.98694,3.813,3.813,0,0,0,.6611-.012,2.55051,2.55051,0,0,1,.77369.012,1.64115,1.64115,0,0,1,.37013.14219,1.15723,1.15723,0,0,0,.78982.15015,1.5808,1.5808,0,0,0,1.00164-.76834.934.934,0,0,0,.13683-.99634A1.5578,1.5578,0,0,0,124.27678,56.339Z" fill="#d9d9d9"/><path d="M102.546,67.10923h32.29534a3.52833,3.52833,0,0,1,3.52833,3.52833v7.118a3.52672,3.52672,0,0,1-3.52672,3.52672H102.546a3.52672,3.52672,0,0,1-3.52672-3.52672V70.636A3.52672,3.52672,0,0,1,102.546,67.10923Z" fill="#d9d9d9" stroke="#595959" stroke-miterlimit="10"/><path d="M116.91843,70.25732h5.31641v1.39795H118.581v1.74707h3.16651v1.292H118.581v3.124h-1.6626Z" fill="#252525"/></g></g></svg>