<svg xmlns="http://www.w3.org/2000/svg" xmlns:xlink="http://www.w3.org/1999/xlink" viewBox="0 0 205.70156 437.06834"><defs><linearGradient id="linear-gradient" x1="115.7215" y1="257.93564" x2="109.62143" y2="278.67234" gradientTransform="matrix(0.52059, 0.96354, -1.87457, 0.26753, 589.49299, -34.11816)" gradientUnits="userSpaceOnUse"><stop offset="0" stop-color="#fff"/><stop offset="1" stop-color="#fff" stop-opacity="0"/></linearGradient></defs><title>MAESTRO-Pe06-rapport-mouflage-11</title><g id="Calque_2" data-name="Calque 2"><g id="Calque_1-2" data-name="Calque 1"><g opacity="0.3"><line y1="23.15756" x2="179.40094" y2="23.15756" fill="#fff" stroke="#000" stroke-miterlimit="10" stroke-width="1.00223"/><line x1="89.70114" y1="23.15756" x2="89.70114" y2="66.86329" fill="#fff" stroke="#000" stroke-miterlimit="10" stroke-width="3.21226"/><line x1="92.42414" y1="263.29206" x2="72.55563" y2="295.10632" fill="#fff" stroke="#000" stroke-miterlimit="10" stroke-width="3.21226"/><path d="M81.3877,5.167a2.10046,2.10046,0,0,0,.32324.01758h.30566a2.04927,2.04927,0,0,0,2.29492-1.97168,1.90557,1.90557,0,0,0-2.14209-1.93848c-1.56347,0-2.27734,1.207-2.27734,2.61817H78.44727C78.53223,1.59766,79.75586,0,82.16943,0c2.09082,0,3.67188,1.00293,3.67188,3.22949a2.71108,2.71108,0,0,1-1.666,2.39649v.03418A2.73373,2.73373,0,0,1,86.35107,8.584c0,2.39649-1.88671,3.67188-4.14746,3.67188-2.44775,0-4.0625-1.42774-4.01172-3.92676h1.44483a2.44992,2.44992,0,0,0,2.56689,2.65137,2.40574,2.40574,0,0,0,2.61768-2.32813,2.30274,2.30274,0,0,0-2.56641-2.3125,6.95912,6.95912,0,0,0-.86718.05176Z"/><path d="M90.43213,5.15039H88.54492V3.26367h1.88721ZM88.54492,10.165h1.88721v1.88672H88.54492Z"/><path d="M97.91162,12.05176H96.4668V3.417H93.33936V2.26074c1.64843,0,3.14453-.4248,3.46728-2.26074h1.105Z"/><path d="M157.51548,122.34305,120.1,256.58388a20.6629,20.6629,0,0,1-40.58188-4.98664l-.00534-.74187c0-13.97583,7.63469-62.17837,14.37-104.70535,4.85851-30.67265,9.44764-59.64423,9.44764-65.375A13.33132,13.33132,0,0,0,89.70114,67.14447,13.64511,13.64511,0,0,0,76.07167,80.775v306.21H69.03982V80.775A20.68436,20.68436,0,0,1,89.70114,60.11374,20.44135,20.44135,0,0,1,110.36134,80.775c0,6.28464-4.207,32.846-9.53351,66.47521-6.36383,40.1788-14.28325,90.18207-14.28325,103.57908l.00445.66245a13.63141,13.63141,0,0,0,26.77311,3.21951l37.41019-134.21792Z" fill="#34b3d1" stroke="#000" stroke-linecap="round" stroke-width="0.64245"/><path d="M75.79027,80.775A13.9102,13.9102,0,1,1,89.70114,94.68459,13.91252,13.91252,0,0,1,75.79027,80.775Z" fill="#fff" stroke="#000" stroke-miterlimit="10" stroke-width="3.21226"/><path d="M86.18177,251.07359a13.9102,13.9102,0,1,1,13.91064,13.91087A13.91127,13.91127,0,0,1,86.18177,251.07359Z" fill="#fff" stroke="#000" stroke-miterlimit="10" stroke-width="3.21226"/><rect x="63.18206" y="277.77085" width="19.89987" height="32.32144" fill="#fff" stroke="#000" stroke-miterlimit="10" stroke-width="3.21226"/><rect x="119.48243" y="132.46706" width="53.56045" height="27.53076" transform="matrix(0.26757, -0.96354, 0.96354, 0.26757, -33.77323, 248.03505)" fill="url(#linear-gradient)"/><path d="M92.47792,379.92918a20.01848,20.01848,0,1,1-20.02044-20.02044A20.02461,20.02461,0,0,1,92.47792,379.92918Z" fill="#686166"/><path d="M63.09272,370.22438l-.00394-.00686C63.09171,370.24315,63.09272,370.24012,63.09272,370.22438Z" fill="#d9d9d9"/><polygon points="62.164 392.891 62.172 392.892 62.174 392.881 62.164 392.891" fill="#d9d9d9"/><path d="M67.49126,371.49653c.008.00192.01383.00888.02079.01181H67.513Z" fill="#d9d9d9"/><path d="M82.79976,371.51227s.11432-.19312-.09454-.15569a23.8557,23.8557,0,0,1-3.07827.27193c-.09071.42368-.28383.67593-.3587,1.0642a2.16872,2.16872,0,0,0,0,.55182,1.19,1.19,0,0,0,1.07994.27586A3.8001,3.8001,0,0,0,82.79976,371.51227Z" fill="#d9d9d9"/><path d="M76.93493,376.48242c.17536.14187.52024.25225.59521.50844a1.52911,1.52911,0,0,1,.02755.37837c1.5135-.14983,3.29893.05126,4.77309-.15377a7.54057,7.54057,0,0,0,1.19032-.19706c.27586-.0788,2.018-2.61311,1.92729-3.13739-.04732-.27193-.404-.60894-.56362-.78036a3.89006,3.89006,0,0,1-.739-.88288c.06014-.18626.10443-.36556.1675-.603.52821-1.97271.12612-4.20159-1.817-4.02623a2.05064,2.05064,0,0,0-1.30454.57745c-.09464.09455-.17345.30543-.28383.37636-.14187.09263-.3251.06115-.48079.134a3.11169,3.11169,0,0,0-.96572,1.19627,3.00953,3.00953,0,0,0-.42166,1.15874c-.01978.10645-.10251.26012-.13995.37646a1.44134,1.44134,0,0,1,.93212.0335,19.53107,19.53107,0,0,1,1.19234-2.085c.65615.12017,1.61985-.99529,2.10074,0a4.51741,4.51741,0,0,1-.03158,1.98642c-.06992.96763.41682.6839.73415.70751A8.70553,8.70553,0,0,1,82.55538,373.68a3.8341,3.8341,0,0,1-2.21506,1.19234c-1.84456.23056-2.44371-1.71056-1.84456-3.44282-.29564.03542-.44538-.1577-.79419-.10645-1.29869.19313-1.30858.52812-1.98653,1.39727-.28766.37041-.5498.74687-.85331,1.09366A5.73347,5.73347,0,0,0,76.93493,376.48242Z" fill="#d9d9d9"/><path d="M89.5396,378.9005c-.40007-.68391-2.30567-4.28635-3.00733-4.12864-.3586.0788-.55566.77834-.74293,1.09174a10.13578,10.13578,0,0,0-.95977,1.77756c-.07093.57543.38231.7844.53609,1.12131a3.75126,3.75126,0,0,1,.34094.82576c.0453.24438-.04924.42177,0,.60894a15.16014,15.16014,0,0,0,1.50755,2.49688c.14782.28383.134.56564.33509.7844.39018-.65434.91829-1.17852,1.31049-1.84073.29554-.52418.56555-1.1095.81982-1.63963.06306-.13793.07688-.3921.17143-.48079C89.912,379.45424,89.56523,378.94974,89.5396,378.9005Z" fill="#d9d9d9"/><path d="M75.09632,376.78593c-.43558-.72134-.77057-1.49383-1.82488-1.53328-.25033.5154-.99326,1.547-1.60613,2.58163-.01978-.02068-.04732-.0561-.06508-.07295.00787-.05711-.04531-.10443-.061-.14772.00586.02957-.02764.04723-.04147.02957-.0788-.11039-.02159.0118-.1241-.09071a3.53668,3.53668,0,0,1-.51631-.75867c-.10252-.02371-.11826-.13208-.19514-.1676l.01382-.00393c-.06508-.04924-.2917-.45325-.36657-.51631l.00394.01978c-.03936-.01978-.04329-.03845-.04238-.06014a.07058.07058,0,0,1,.001-.02462c-.00394,0-.001.00192-.00293.00293a.10684.10684,0,0,0-.003-.06014.075.075,0,0,1-.05317.01877l.00595-.02664h-.002c.01383-.00979.02563-.01967.02563-.01967a3.3311,3.3311,0,0,0-.23651-.672c.01383-.01382.01978-.00394.01978-.00394a.77977.77977,0,0,0-.11039-.1577c.00989-.02957.04137-.04137.0552-.05318-.03552.0217-.20493-.30149-.19313-.31339l-.08677.04338c-.02956-.061.08869-.069.03945-.11623-.13006.03148-.03945-.09858-.10645-.08476a.05612.05612,0,0,1,.03158-.04924c-.069.01968-.02764-.02563-.05125-.03552-.0217.00787-.01574.01574-.03552.02957l-.04329-.0335c.01574-.01968.04722-.04339.065-.03158a3.65474,3.65474,0,0,0-.31531-.7508c-.03935.0335.00989.05317-.05519.10836-.061-.00787-.00979-.05125-.06307-.04328.10847-.0671-.00585-.08082.1005-.15963l-.07093.0216.03158-.03148c-.136-.10252-.0453-.01776-.09858-.14187-.03743-.05913-.14187-.04732-.132-.10252,0,0-.02563.03744-.05126.03149.05126-.03149-.06114-.02755-.00988-.06307-.01776-.01765-.03935-.07093-.10444-.01574.03159-.02956.02563-.08667.073-.07678-.00989-.01776-.00787-.03945-.02563-.04147l-.01383.03158c-.03945-.05318.006-.1123-.0788-.11432l-.02563.03945c-.01776-.0335-.03743-.05327.02563-.10847l.04924.02371a.242.242,0,0,0-.11826-.11633l.002.01977c-.10443-.02371-.33105-.30149-.44537-.30946l-.04732.05328-.07487-.01584a1.79685,1.79685,0,0,1,.18717-.065,1.21567,1.21567,0,0,1-.16548-.36062c.01574-.05913.09455-.05126.09455-.05126-.03744-.04339-.067.00595-.08083-.03552l.0552-.01967c-.01181-.01574.00393-.04339-.02755-.02563-.01382.03158-.08284.05721-.12814.08869l-.01867-.04823.005-.00595.03935-.01877-.02755.00494c.00585-.00978.01574-.01281.01968-.02462a.20743.20743,0,0,1-.12411-.00494c-.002-.00293-.00989,0-.00989-.00494a.47174.47174,0,0,1-.02361-.07487.76117.76117,0,0,1-.02563-.09263.257.257,0,0,0-.04732-.09656.09867.09867,0,0,1,.04137.002l.0118-.0335c-.03935.03935-.0453-.02371-.05912.00585l-.01373-.00585s-.00989-.00787-.00595-.01584l-.00394.0119-.0118-.00393c.00787-.00394-.0335-.03945-.02371-.04732-.01766-.01968-.04924-.07094-.05116-.03946,0,0-.02765-.06306.00192-.04136a.16226.16226,0,0,1-.02361-.03149l-.002.01373c-.03935-.04329-.05126-.07881-.09454-.09656l.00978.02169c-.02169-.02563-.05317-.03743-.05125-.06306l.04147.01574a.45856.45856,0,0,0-.11725-.065l-.02371-.006a.87175.87175,0,0,1-.06014-.0906c.01383-.13995-.95966.08869-1.08579-.067l-.09656-.11039-.3705.05812a.99056.99056,0,0,1-.02957-.41086c-.067-.02563-.02764-.08274-.0788-.11039l.02159.002a.71348.71348,0,0,1-.03047-.22077,2.0501,2.0501,0,0,0,.51923-.35668,3.13684,3.13684,0,0,0,.65828-.90458c.07093-.09454.0788.0217.08667.02563.03552-.15175-.02755-.08475.01968-.20493.01977-.02956.03551.01968.03349.04339.01383-.05721.04541-.09858.02563-.1124-.04137.06306-.08475.00595-.134.01382a1.04819,1.04819,0,0,0,.05125-.15175l.03552.02361a1.80142,1.80142,0,0,1,.00787-.44538,1.78329,1.78329,0,0,0-.00393-.6621c.01967,0,.04328.05711.06306.11825,0-.04137-.01776-.09858,0-.13208-.03158.07094-.04339-.11623-.05126-.06306a6.68673,6.68673,0,0,0-.46908-.55182,2.33038,2.33038,0,0,0-.404.07688,1.15692,1.15692,0,0,0-.08465-.23651c.2916-.17536.56554-.3705.5498-.63456l.0335-.01766L66.64,366.3037c-.05126-.10645-.12017-.11432-.08869-.13208l.09656.12421c-.05913-.09858.00393-.04934.04137-.02765a.61555.61555,0,0,1-.06105-.11826c-.02764-.0118-.002.0217,0,.04541a.77255.77255,0,0,1-.16164-.15175c-.08082-.0887.03744-.05126-.05317-.15963a2.6043,2.6043,0,0,0-1.85445-.94009c-.01574-.01776.00192-.01574.02563-.02361a2.33265,2.33265,0,0,0-.58724.06892.222.222,0,0,1-.09071-.04329c.01574.00979-.24236.07285-.48674.201a2.97682,2.97682,0,0,0-.465.27788l.02159.08274c-.15963.12421-.09848-.03743-.23056.10443.00394.13006-.22662.2346-.23449.32521,0,0-.067.067-.08476.04137.02765.06306-.04924.09464-.07486.15175-.002.02563.02361-.00192.04923-.00595-.02361.04147-.03349.08082-.06306.13016-.0335.0335-.06891.03148-.04732-.02765a3.00743,3.00743,0,0,0-.43155,1.212,3.19843,3.19843,0,0,0,.13208,1.36568c.02563-.05913-.04137-.1793.01776-.24236.05317.09848.02552.15962.07486.19312-.07688.07487.05126.24035,0,.35467l.06307.0118-.00989.0671c.27192.41379.23651.00585.45133.3921.14973.205.29362.207.3586.32914-.00586-.01968-.02362-.08274.03158-.04339-.02765.04339.07093.0789.061.13995a.48989.48989,0,0,1,.05328.21774c.01079.05519.12118.16356.0335.1232.04328.03743.08475.08476.1241.09061l-.05519-.06105c.16164.11624.23853.21674.37051.22269l-.04531-.06508c.09263.06306.1793.09656.203.17547l-.12027-.03159a1.25454,1.25454,0,0,0,.32318.10444.09722.09722,0,0,0,.01585.03743.16418.16418,0,0,1-.05721.02563c.03349-.00979.07093.17738.06114.18333l.06892-.00988c.00393.03743-.07679.02169-.0552.05519.10454-.00595-.00393.05317.0552.05317-.00979.00394-.00979.01978-.03936.02371.0552-.006.01575.01766.02755.02362.01574.002.01776-.00394.03552-.01181l.02754.01968a.47824.47824,0,0,1-.05519.02371,1.05626,1.05626,0,0,0,.02765.41379c.03935-.00989.00393-.02563.06891-.04339.04137.008-.00585.02371.02957.02563-.064.01483-.06105.02956-.07386.04631a3.53993,3.53993,0,0,0-.78339.32228l-.07689.01181.01382.04338c-.03743.06306.05721.07094-.02169.08274l.00595-.07689c-.02169.06115-.06114.02563-.1123.01574a.10326.10326,0,0,1-.04147.073c.0336.00595.03552-.01181.05721-.02563.02957.02563.10443.04732.07094.09262-.002.05721-.12815.02957-.13007.10252l-.00292.02462a.30526.30526,0,0,0-.03057.01473l-.069-.05317a.1088.1088,0,0,1,.02765-.0335c-.01978-.01574-.0552.00595-.05328.03743l.05519.0453c-.01765.05721-.0453-.01765-.06891.02765-.05126-.03552-.02765-.08284-.00787-.11634-.03158.02563-.08476.02957-.04541.075-.04137.01574-.05519-.04732-.09656-.02956-.00585.0335.01383.09454-.03541.10049l-.01181-.00988c-.067.02169-.04147.08667-.05519.13995-.02765.02562-.0217-.00989-.04732.02562h-.00787v-.00988c-.03946,0-.04339.07093-.09657.08082l.02957.00585a.1325.1325,0,0,1-.02371.05327c-.02361.02362-.03542.05318-.07881.05711l.01574.06508c-.128.13794-.27192.39019-.38624.54386l.002-.01181a9.87572,9.87572,0,0,0-.67987.97752c-.0671.00394-.09858.0551-.13995.08072.03148-.00585.061.02765.03743.04541-.09262.11028.02957.03542-.0453.16154a3.39047,3.39047,0,0,1-.67008.71932c.01181.1123-.10443.15377-.1123.2463l-.01181-.01766c-.02956.08476-.39613.41581-.43952.51035l.01776-.00191c-.00787.09848-.07487.0335-.13793.06306a.17754.17754,0,0,1,.05519.17536l-.01776-.01967a.988.988,0,0,1-.05125.23641l-.0335-.03542c.00595.08274-.08274.15367-.11039.18919-.0788.05913-.23651.11826-.27.26214l-.16941-.02956.00787.02159s.05711.04934.15176.12421l-.01181.02361-.008-.01181a.89875.89875,0,0,0-.03542.19121c-.01574.02159-.01776.02159-.01776.02159a.77037.77037,0,0,0,.002.18525.9001.9001,0,0,0,.03935.18526l.0217.00393c.02563.06306-.02361.02563.00989.08869.04136.01191.04923.09172.07285.11039a1.99165,1.99165,0,0,0-.0335.45133c-.01574.00585-.01766-.002-.01766-.002.01372.05327.00979.10251.02754.15377a.08768.08768,0,0,1-.05912.0335c.03551-.00787.05317.29947.04338.29947l.07689-.00192c0,.0552-.08677.02563-.06306.07689.10241.0118-.006.09061.04722.10837a.05126.05126,0,0,1-.04137.02562c.05317.00394.01382.02362.02956.03936l.03159-.01181.01967.03945-.04339.01968a2.2637,2.2637,0,0,0-.01967.674c.03148-.01382.00393-.04732.07093-.067.04137.02755-.00989.04924.02563.0552-.09263.01765-.01382.06306-.11624.09262h.05509l-.03349.02553c.069.11432.02956.01978.02169.1341.01382.06306.09071.08667.067.12219,0,0,.02764-.01776.04338-.002-.04338.002.03552.03945-.01382.05126.00787.01382.00394.07285.07093.0453-.0335.00787-.04328.05913-.07285.02755-.002.02169-.00787.03945.00192.05519l.02371-.02361c.00585.04924-.03743.08274.0217.11038l.02361-.02169c.00585.0335.01382.05913-.0552.07487l-.01967-.02957a.21674.21674,0,0,0,.05126.13007v-.01575c.07093.04733.132.33893.21865.38433l.04934-.02956.0453.03935-.15367-.0118a4.40132,4.40132,0,0,1,.04722.68188c-.02563.03935-.08274.00979-.09454.01574.02169.03744.05711.00787.05519.04531-.006.01382-.04137,0-.04137,0-.002.01775-.01191.03551.00585.02956.01968-.02361.08082-.01968.12421-.03148l-.00393.04722-.03946.004s.11231.01372.0887.067a1.72647,1.72647,0,0,0,0,.24832.07565.07565,0,0,1-.05328-.03158s.004.02754-.01372.02956c.04137-.01776.0335.0335.0335.0335.11825.03158.02956.12017.09848.16749l.14681-.00393c-.09556.22763-.25316.6159-.30049.78046l-.067.01766c.02361.04934-.01968.07891-.006.142-.01574.02361-.04924.00393-.05317-.01191.0118.05519-.04732.09071-.02361.13006l.01967-.00192c.02361.09061-.12219.0887-.09858.18718h.00989c.01968.04732-.04732.06508-.07093.08677.00393.05126.061.02956.07285.06891-.06306-.00585.28979.25619.28383.28969.01776-.03542.04531-.07487.09455-.05116-.0216.04329.44547.17728.406.22461l.14782-.00979c-.02563.0118-.02957.061,0,.07093-.00989-.00595-.002-.02956.00191-.05327l.92627.1459c.09656-.04339.03552-.18132.16951-.21482.01574.02563.02361-.04732.05711-.00595-.00787-.01968.002-.03542.00394-.05711-.02563.01967-.04137.0335-.07295.02755a2.927,2.927,0,0,0,.10453-.32319c-.002-.07093.132-.061.132-.061l-.04733-.01383.01776-.06508c.04137.03158.11826.04732.13208.07689.02755.006.01181-.01776.01181-.03744l-.04137-.00595c.00989-.04924.14782-.15962.18717-.21088,0,0-.07285.01584-.09455-.03935.005-.11624-.41288-.86512-.473-1.1204l.0335-.00091c.002.01574.002.03542-.00979.03935a.03961.03961,0,0,0,.01968-.061l-.04732.00686-.00192-.00585c-.003-.01776.02856-.0109.02563-.04046.0453-.01181.05116.02361.05711.05721.00595-.02957.0335-.05721-.01181-.069.01574-.02169.05318-.00393.073-.03551-.01584-.01968-.06114-.04329-.03359-.067l.004-.00394c.04722-.06306-.07295-.08475-.02371-.14973l.01382.00585c.02361-.02159-.00989-.059.01574-.09454,0,0-.0453.02169-.04732,0,.02765-.04137-.00585-.06509.03158-.09858l-.05125-.02755c.002-.13995-.08668-.70358-.10252-.84343l.01191.00394a6.64539,6.64539,0,0,0-.12219-.8849c.04137-.03945.03148-.08869.03743-.12612-.01776.02764-.04924.01967-.04732.002.006-.11039-.02957-.002-.04924-.11432a2.10119,2.10119,0,0,1,.00787-.745c-.07295-.05519-.02765-.134-.06306-.19514l.00787.00393c-.02361-.05711.01967-.43548-.00787-.50046l-.006.00393c-.04328-.05913.02563-.05913.04541-.11038a.11561.11561,0,0,1-.12421-.06115l.01382.002a.36627.36627,0,0,0-.04338-.07386,3.30074,3.30074,0,0,0,.52024-.50157c.02371.0118.01584.01574.01978.02754.02956-.07487.0788-.12612.1123-.19706a.4439.4439,0,0,1,.07688.02563c-.04338-.01776.2128-.337.22663-.33307l-.06509-.061c.04339-.06114.09465.05126.11826-.01574-.0788-.10645.09071-.08475.05519-.14781a.0539.0539,0,0,1,.05913.00978c-.04732-.05317.00989-.03743.00787-.065-.00595-.01977-.01382-.00989-.03743-.02169l.01382-.05711c.02956.00393.065.02755.05711.05116a4.98739,4.98739,0,0,0,.62467-.66413c-.05317-.02169-.05509.03158-.13006-.00394-.0118-.061.04541-.03349.01978-.07678.10837.065.07487-.05328.195.01181l-.04531-.05328.04339.00989c.0217-.08768.0217-.09858.02856-.10151a.91272.91272,0,0,0,.0227.14883c.08274-.04924.02361-.09263.14974-.13793.0788.03542-.01968.07487.06306.08274-.19706.061-.03744.12017-.23056.19907l.11039-.00988-.0671.04338c.13208.201.05912.03935.05327.23843.02755.11826.18526.134.132.21088,0,0,.069-.04732.1006-.02371-.1006.02371.07487.05913-.01776.09656.0118.02563.0118.12421.13591.05913-.06306.0335-.08274.12219-.14772.08284-.002.03148-.01382.065.01574.07678l.0335-.0453c.02563.09071-.07486.16356.0552.203l.05125-.04732c.01373.05126.02755.10443-.10251.15377l-.05126-.05519a.30184.30184,0,0,0,.10645.2128v-.02563c.14187.07295.30351.57543.469.62871l.10049-.05519.09071.061c0-.01382-.33307.02956-.29755.01382a6.5729,6.5729,0,0,1,.128,1.20607.17064.17064,0,0,1-.16356.04732c.02755.06891.09858.0118.09263.08082-.01776.02361-.08476.01372-.08476.01372s-.03542.05126.01968.04339c.03158-.03945.15962-.05126.24044-.08667l-.00192.08667-.08284.01574c0,.01574.22471.00393.18919.09071a.61741.61741,0,0,0,.003.09454l-.275-.0118c.00393-.02361.0118-.04733.02563-.05318a.05323.05323,0,0,0-.04339.07679l.08869.0119c.02765.0551-.05317.00979-.04924.067-.07295,0-.08274-.05519-.09071-.10251-.0118.0453-.06306.08082.01382.10251-.03349.03542-.0906-.008-.1241.03542.02169.03551.08273.08677.04328.12219l-.01765-.00192c-.07689.08667.10634.15367.02754.23641l-.02563-.01574c-.0453.02765.00394.09263-.04137.14974.01181-.01766.069-.02957.07487.006-.04924.06508-.00393.1123-.067.14974l.069.04934c-.02371.21875.03542.87107.0335,1.09174l-.01181-.00989a10.71872,10.71872,0,0,0,.12018,1.40715c-.07689.04723-.06307.12219-.08668.17729.03148-.03148.07487-.01181.07285.00988-.01372.17345.04531.01383.07295.18919a3.4868,3.4868,0,0,1-.14973,1.15087c.09848.10252.01372.21684.07285.3134l-.02563-.01181c.03552.10837-.10443.67392-.067.79217l.01181-.01574c.05912.10443-.0551.08667-.09263.16356a.17579.17579,0,0,1,.18132.12421l-.02755-.002a1.29177,1.29177,0,0,1,.12411.25619l-.067-.00787c.01382.01473.00989.03551.01584.05317-.02865.01181-.06114.02866-.05126.04732l.07487.03058-.001.03057c-.01866-.001-.04137-.00595-.04823.02754-.0789-.02361-.075-.0788-.071-.12612-.01968.03945-.08466.05711-.00787.10251-.04137.02755-.09263-.03551-.13985.00192.01372.03743.07487.1005.01766.12219l-.01372-.00787c-.10252.06306.10241.0335,0,.08869l-.01978-.01967c-.05317.01372-.01181.09252-.07678.1241.02169-.00595.08072-.002.0788.02957-.06508.04339-.03552.10049-.10443.12411l.061.05912c-.08476.207-.24438,1.03272-.30149,1.23765l-.00989-.00787c-.06306.32318-.52811.91829-.532,1.27306-.08678.02361-.09263.09656-.13007.14186.03542-.01766.08476.01382.07487.03158-.05711.15367.04733.02361.02563.19706a2.21123,2.21123,0,0,1-.34881.875c.07689.11432-.03743.199.00192.31138l-.02361-.01978c.00787.10252-.26013.59521-.26013.71145l.02362-.00585c.03743.11028-.07679.061-.134.12612a.1971.1971,0,0,1,.15771.16356l-.02371-.0118c.00393.05317-.27395.15558-.2798.24236l-.067-.02765c.04732.08284-.02169.19514-.02765.24247-.06306.09454.05721.32711.09858.49663l-.21481.02754.01574.0217s.30058.12219.69268.267l-.29059-.04722c-.04632.267-.26023,1.211-.276,1.45932l-.07678.03935c.05115.06115-.002.10645.0335.18132-.01191.03743-.06508.01574-.073-.006.03743.069-.02765.12815.00585.17154l.02371-.01191c.067.11432-.12814.142-.06115.2582h.008c.04137.04924-.03945.08869-.06306.12219.02361.061.08466.01968.11422.067-.08072.01181-.03743.06115-.0335.11826.01776-.0552.03945-.11231.10645-.10252-.01382.069.07487.02563.03945.08678l-.09071-.00787c-.02361.02552-.0118.0906.01181.09262l.00394-.06306,2.558.16154c.11624-.07487,2.17763.06306,2.34513-.01967.02371.03148.00988-.06509.07688-.01978-.03158-.01766-.01574-.04722-.01382-.06306-.02563.02371-.05519.05327-.08869.05125.00393-.1458-.28182-.49663-.29362-.64041-.02563-.08476.15175-.09071.14973-.11039l-.06306-.00595-1.1765-.37343c.03744.00292.01978-.02563.03158-.05418-.01967.00988-.067.02562-.0788.00393-.002-.069.05116-.01382.07487-.08869,0,0-.08869.03945-.13006-.02361-.02069-.12219-.57644-.46021-.85533-.69571.007-.00787.00989-.01967.02371-.02169-.01978-.01766-.02371-.00192-.04147-.00394-.01766-.02563-.061-.08072-.02563-.09848.01584-.03945.10251.03148.12613-.01776.14388-.26213.03753-.62073.11038-.90063.02765.002.02563.00787.02563.00787a2.358,2.358,0,0,0,.0453-.24035.581.581,0,0,1,.10252,0c-.05711-.004.08274-.44345.10049-.44547l-.11825-.04137c.02371-.08476.13793.01382.13995-.061-.15569-.09071.05913-.12613-.01968-.18132a.07646.07646,0,0,1,.07679-.01574c-.08476-.03744-.00585-.04531-.01766-.07094-.02169-.01977-.03158-.00393-.05913-.00393l-.0119-.06115c.03158-.01967.09071-.00595.08869.0217a4.47576,4.47576,0,0,0,.39422-.94988c-.07689,0-.04733.06306-.15569.04339-.04339-.05721.04328-.05126-.01191-.09465.16164.03946.06306-.07295.23066-.0453l-.08678-.04137.06115-.00393c-.03158-.205-.02765-.0552.04329-.207.01775-.09263-.09061-.18132-.02755-.20886,0,0-.067.00393-.08274-.02765.08274.02765-.03552-.08082.04722-.067.002-.02754.03552-.09858-.08475-.10837.05721.00586.10251-.04924.136.00192.01382-.02169.03945-.03743.01574-.061l-.03542.01574c.00586-.08082.24045-.19706.16155-.27586l.0789.2364c.01181-.04923-.11634-.31531-.00787-.2916l.02159.05711a.29976.29976,0,0,0-.00585-.20694l-.01181.02169c-.0789-.11624.10242-.34286-.008-.46112l-.0906.01181-.04924-.08667a1.696,1.696,0,0,1,.2246.1123,6.69484,6.69484,0,0,1,.28282-.91345c.00495.001.01574-.00091.00686.007.01978-.00989.04733-.0118.0552-.02956l-.0335.00787c.02664-.01484.03259-.02664.05327-.03643a.27344.27344,0,0,1,.07881.03047.06925.06925,0,0,0-.03158-.064c.00787-.00595.02371-.01089.02956-.01977a.35052.35052,0,0,0,.03552.01675c-.00787-.02069.00292-.02957-.00787-.04036.01967-.01383.03844-.03451.061-.03058l-.03542.04137a.41077.41077,0,0,0,.13006-.1458l-.01977.02169a1.40283,1.40283,0,0,0,.13006-.268.53377.53377,0,0,0,.0335-.27788l-.02553.02957a.24175.24175,0,0,0-.01584-.06508l.067.04732c0-.01574.002-.04137.00393-.07093l.01978.00191-.002-.04328c.03552-.04541-.03542-.071.02956-.0671l-.01382.0671c.01978-.04541.05126-.008.08677.01574a.10347.10347,0,0,1,.0335-.05721c-.01967-.01181-.02361.002-.03945.00989-.01967-.02362-.0788-.067-.0453-.09455.00989-.05126.10443,0,.11825-.05913a4.81175,4.81175,0,0,0,.15963-.89478c.0335-.00393.02754.00595.02754.00595-.0118-.08082.00394-.16749-.01574-.25023a.45082.45082,0,0,1,.09858-.03552c-.05721.01574-.0335-.46313-.01584-.46505l-.11815-.01775c.00393-.09071.132-.01776.11028-.10645-.15761-.04137.02765-.132-.061-.17143a.08318.08318,0,0,1,.07688-.03552c-.09262-.01574-.01776-.04329-.03945-.067-.02755-.0118-.02755.002-.05711.00787l-.02563-.05913c.02755-.01574.08274-.01967.09061-.00191a5.86356,5.86356,0,0,0,.11038-.59612c.11231.14186.24529.3586.35871.38725l.07678-.05519.08677.0453a1.47579,1.47579,0,0,1-.2582.02563,5.419,5.419,0,0,1,.26012,1.009c-.03541.061-.134.04338-.134.04338.0335.06105.08273.00586.08667.065-.01181.01574-.06892.01574-.08274.00787.01968.0217-.00787.04934.03552.04531.02361-.04137.134-.059.19706-.08466l.00787.07285-.069.01383c.00595.01382.19514-.01181.1794.067a2.83409,2.83409,0,0,0,.06306.36264.13647.13647,0,0,1-.10453-.02765c.00595.01978.0217.03946-.00393.06307.06508-.04723.05912.03158.08284.00595.18525.03743.061.1911.197.23843l.10837-.03744a.17828.17828,0,0,1,.01382.04531c.02362.03743.01383.04732.01383.04732s.04036.06306.09252.13006c-.0226.30351-.00877.96471-.01765,1.15087l-.00989-.01181c.002.33106-.32127,1.01294-.25225,1.3559-.07881.04329-.07295.11826-.09455.16941.03148-.02754.08466-.0118.08072.00989-.02754.17143.04934.01776.06307.18727a2.14462,2.14462,0,0,1-.14974.93212c.1005.1005.00595.20886.067.30543l-.02563-.01575c.02956.10252-.128.63457-.1005.75282l.01574-.01574c.05913.10443-.061.0788-.10836.14974a.21588.21588,0,0,1,.19514.12612l-.03158-.002c.02169.0552-.23056.21482-.22269.29373l-.065-.01191c.065.075.01766.20109.02361.24438-.03945.11039.13208.31138.203.46707l-.203.07093.01776.01584s.1123.01968.27788.04632a8.42472,8.42472,0,0,0-.14782.83848l-.07689.03945c.04732.06306,0,.11624.0335.18919-.00989.04328-.05913.02169-.07487.00191.03542.06508-.02956.13995.01181.18132l.02169-.01776c.061.11432-.13006.15963-.069.274h.00988c.03946.05126-.03945.10049-.07093.13793.02755.06114.09656.01382.11826.06306-.08284.01382-.0335.06508-.03159.11634.01585-.05328.03946-.11826.11039-.10252-.01574.067.07487.01776.0335.0887l-.08476-.002c-.02956.02563-.01776.08869.00989.08677a.59408.59408,0,0,0,0-.06306l3.62807.17143c.11231-.08476.91436.002,1.082-.09263.02553.02765.01574-.06891.0788-.02563-.02371-.01775-.01382-.04924-.00989-.07486a.12365.12365,0,0,1-.09454.061c.00393-.14772.04722-.30542.03935-.44931-.02361-.09454.14984-.128.14984-.128H72.487l.002-.08869c-.19706-.10443-.02563.11825-.28969-.05318.0335.00394-.26415-.14983-.25033-.18131-.01382.00787-.05913.02956-.0788.00787.00585-.069-.44144-.12815-.402-.21089a2.78227,2.78227,0,0,1-.61489-.28575c-.02371-.10735-.40007-.20492-.6612-.30845l-.00494-.03642c.03743-.03946-.03743-.07094.02765-.06307l-.01584.06307c.02956-.03946.06306-.006.09858.01574a.0826.0826,0,0,1,.03551-.04732c-.01977-.01575-.02563.002-.02563.002-.03551-.02169-.09262-.06306-.05912-.08869.00585-.04732.10635.00787.12017-.0453.08082-.28575-.1005-.61489-.08667-.90851.03148.002.03148.00787.03148.00787a1.668,1.668,0,0,0-.01383-.24438.28545.28545,0,0,1,.1006-.01967c-.05519.00787-.01382-.44538.00394-.4592l-.12028-.01574c.00787-.08476.14389-.01383.11826-.09465-.16558-.04924.02563-.13006-.05318-.17143a.06945.06945,0,0,1,.07679-.02361c-.09848-.02764-.01968-.04732-.03935-.07093-.02957-.01191-.02957.00393-.06307.00585l-.02562-.05711c.03148-.01967.08667-.01967.09454.00787a4.21343,4.21343,0,0,0,.18525-1.007c-.07285.00978-.02956.065-.1458.07285-.05519-.05126.02956-.06307-.03541-.08668.17142-.00393.04923-.09071.22268-.10836l-.09262-.01776.05912-.01382c-.07688-.19908-.04147-.05126-.004-.207-.00394-.1005-.12805-.15963-.07487-.20493,0,0-.061.01968-.0788-.006.0788.006-.0552-.07285.02562-.07487-.00595-.02563.01181-.10443-.10251-.08869.05721-.00979.08677-.07487.134-.02563.002-.02755.02562-.04722,0-.061l-.0335.01968c-.01181-.0788.19716-.24236.09656-.30543l.13208.21089c-.002-.04924-.18132-.276-.069-.28575l.02956.05711a.2711.2711,0,0,0-.04722-.201l-.00988.0217c-.10444-.1005.02754-.35275-.10444-.44144l-.08869.02563-.06508-.07094c-.00585.00586.27788.05913.24832.05913a5.1571,5.1571,0,0,1,.09071-1.009c.05317-.0552.13591.00191.13591.00191-.00979-.067-.07093-.03349-.061-.08869.01968-.01574.067.00787.08083.01776-.00989-.02563.02169-.04137-.01978-.0453-.03148.02361-.13985-.00394-.21078.00191l.01967-.065.067.00787c.00192-.01382-.18525-.05721-.136-.12612.03945-.10837.02764-.24045.05913-.35477.03551.00394.05721.03159.08082.06307.00787-.01968-.00394-.04329.02754-.05318-.0788.0217-.0453-.05519-.07678-.03743a.13388.13388,0,0,1-.04531-.05227c.00293-.00686.00979-.01574.00787-.0226l-.01089.01867-.00394-.00394c.02664-.068.05519-.11129.0444-.16063l-.02371.02764c.01382-.05125.01775-.0907.04732-.10836l.00393.05509a.77008.77008,0,0,0,.002-.201l-.00595.02562a1.90117,1.90117,0,0,0-.05126-.23055c.00787-.0217.00989-.04531-.00585-.0552l-.01383-.00191-.00595-.01191a.21987.21987,0,0,0-.01967-.05317.09949.09949,0,0,1,.09858.07093c.00191-.0453.0453-.09848-.04147-.09263.02169-.04338.09071-.02361.11633-.07486-.02956-.02755-.1124-.05126-.07688-.09858l.0118-.00586c.05721-.11038-.14973-.10251-.09061-.20886l.02755.00192c.03945-.04137-.03935-.08082-.00192-.1458-.0119.01574-.06508.04722-.08475.01967.03743-.07487-.01978-.10645.02563-.16558l-.08284-.01967c-.03744-.21674-.28374-.78036-.34286-.99518l.0118.00585a8.74671,8.74671,0,0,0-.44931-1.28486c.06307-.07094.02563-.13793.03159-.19908-.01978.03945-.08083.04934-.08284.02563-.02755-.17143-.05126,0-.12411-.16154a3.08426,3.08426,0,0,1-.18727-1.11344c-.132-.05721-.07679-.19907-.16941-.26607l.02552.00192c-.061-.08668-.09252-.65424-.15558-.75474l-.008.01574c-.09262-.0788.03159-.09656.04339-.18323a.188.188,0,0,1-.22662-.05328l.02563-.00192c-.02765-.03743-.15771-.1242-.19706-.197l.07093-.01575a.17573.17573,0,0,1-.08082-.11139l.28182-.05227a.09441.09441,0,0,1-.02361.071c.05125-.01776.07486-.07891.03935-.09858l-.11231.01574c-.04136-.05913.06307-.0335.04924-.09454a.1004.1004,0,0,1,.136.08475c.00393-.04732.07093-.10847-.03744-.10847.03744-.05115.11432-.02159.14974-.08465-.03148-.02957-.12219-.06508-.07487-.11634l.01776-.0118c.08476-.1222-.15771-.134-.07093-.24832l.0335.002c.04732-.04934-.02563-.1006.02361-.17547-.01574.0217-.08274.05126-.09848.01584.05115-.08677-.01383-.12421.05509-.18918l-.09454-.03552c-.00687-.21189-.14681-.88883-.21976-1.27014.0118-.00686.02068-.0118.0345-.01866a1.33515,1.33515,0,0,0,.07487.12209c-.00787.01584-.01574.01382-.01574.01382a1.95938,1.95938,0,0,0,.13793.14782.12588.12588,0,0,1-.03541.06306c.02552-.0335.25618.27193.25023.2798l.06114-.04329c.04531.061-.05125.07487.00787.11432.08668-.04147.05318.09455.10837.08466a.03638.03638,0,0,1-.01776.0454c.05126-.02371.03552.02361.05519.03148.0217-.00787.01575-.01775.01575-.01775l.05125.00988a.07986.07986,0,0,1-.02563.04733,3.56528,3.56528,0,0,0,.46314.70549c.01776-.03945-.02563-.05126.01574-.11038.04732.00393.01574.05125.05721.02956-.067.08476.0335.08476-.02957.17143l.04924-.02755-.02169.03552c.14388.08667.04732.00979.12017.12411.05913.06306.136.0453.14389.09464,0,0,.00787-.03753.03743-.02956-.03743.02956.05519.01968.02563.06306.01776.01181.04732.07094.08284.00394-.01383.03148.01372.09061-.03158.0788,0,0,.0118.03542.03551.04339l-.002-.0335c.04339.04722.03159.10837.10444.10443l.002-.03158c.02957.02765.05318.05327.00979.10251l-.03743-.01977a.314.314,0,0,0,.13006.10645l-.01181-.01968a1.53919,1.53919,0,0,1,.3242.2,1.43,1.43,0,0,0-.05621.7735,12.97054,12.97054,0,0,0,.92829,1.09376c.262.33307.56756.69369.83747,1.06217-.00979.04632-.03047.09364.01776.136l.0118-.00989c.04339.03158-.00191.08284-.00787.11432.03946.04137.07094-.01181.10252.01584-.01776.0108.02068.01766.073.02361.0335.05419.08274.10544.1123.15963.21674.37242.17738.9637.57745,1.12917a.723.723,0,0,0,.48281.0335,27.28927,27.28927,0,0,0,2.39638-5.56526C76.26889,377.76335,75.42142,377.33967,75.09632,376.78593Zm-11.09318,9.26033a.11585.11585,0,0,1,.02462-.03058.16281.16281,0,0,1,.01281.04238Zm2.11265,1.57949-.00393.001.00292-.002Z" fill="#d9d9d9"/><path d="M84.03539,378.658c-1.35187.0552-3.17675-.05125-4.574-.03935-.49663.00585-1.7933-.05913-2.12435.26406-.18526.18323-.16558.98923-.24045,1.29273-.11825.42964-.38826.75484-.52226,1.18044-.331,1.082-.50248,2.1186-.88883,3.1a1.69325,1.69325,0,0,0-.21673.70943.483.483,0,0,0,.42761.4375c.42368.069.77845-.09061,1.1095.14984l6.34966-.05126a3.57269,3.57269,0,0,0,1.86232-.17345c.544-.1576,1.05824.134,1.27507-.40592.47888-1.18245-1.58837-4.13066-1.96281-4.94654C84.3172,379.72223,84.22457,379.135,84.03539,378.658Z" fill="#d9d9d9"/><polygon points="140.042 145.18 144.314 129.451 136.445 127.312 155.614 115.029 155.614 115.029 165.924 135.322 158.065 133.185 153.791 148.913 140.042 145.18" fill="#fff" stroke="#fff" stroke-linecap="round" stroke-linejoin="round" stroke-width="4"/><rect x="142.89142" y="144.58588" width="5.51612" height="14.2493" transform="translate(-38.86044 252.63598) rotate(-74.846)" stroke-width="4" stroke="#fff" stroke-linecap="round" stroke-linejoin="round" fill="#fff"/><rect x="142.64511" y="150.56182" width="2.7606" height="14.24912" transform="translate(-45.88104 255.37902) rotate(-74.81491)" stroke-width="4" stroke="#fff" stroke-linecap="round" stroke-linejoin="round" fill="#fff"/><polygon points="140.042 145.18 144.314 129.451 136.445 127.312 155.614 115.029 155.614 115.029 165.924 135.322 158.065 133.185 153.791 148.913 140.042 145.18" fill="#252525"/><rect x="142.89142" y="144.58588" width="5.51612" height="14.2493" transform="translate(-38.86044 252.63598) rotate(-74.846)" fill="#252525"/><rect x="142.64511" y="150.56182" width="2.7606" height="14.24912" transform="translate(-45.88104 255.37902) rotate(-74.81491)" fill="#252525"/><path d="M176.0213,50.82087A20.02953,20.02953,0,0,0,156.21269,67.931c.52894-.01394,1.1036-.03186,1.24289-.05172a14.72307,14.72307,0,0,1,3.07234-.19294c.11343.01.23469.0279.368.04968a2.58267,2.58267,0,0,0,1.85532-.26839,4.18818,4.18818,0,0,1,.523-.21677,1.89361,1.89361,0,0,1,.39973-.07555,1.83257,1.83257,0,0,0,.64624-.179,5.15289,5.15289,0,0,0,.9188-1.21906,7.95505,7.95505,0,0,1,.9744-1.34226,9.2042,9.2042,0,0,1,1.67642-1.09973,14.33723,14.33723,0,0,0,1.43186-.90679,7.69773,7.69773,0,0,0,1.32638-1.47962,8.89679,8.89679,0,0,1,1.038-1.217c1.07784-.99231,2.36645-1.11358,4.14825-1.28066.37785-.03981.76761-.07158,1.18526-.12524.44148-.04979.90883-.13928,1.35428-.22471.42753-.08155.8292-.16107,1.1932-.20292a5.86673,5.86673,0,0,1,3.44225.716,7.575,7.575,0,0,0,1.89319.6721c.09938.01792.21473.03187.33406.05172.58271.08746,1.45966.22278,1.67439.55684a1.06807,1.06807,0,0,1-.22868,1.20308c-.85313.96452-2.98488,1.16337-4.5599.865a1.95062,1.95062,0,0,1-.41165-.163,1.30731,1.30731,0,0,0-.8968-.21677,1.27263,1.27263,0,0,0-.48924.31217,1.42346,1.42346,0,0,1-.30229.22074,7.00278,7.00278,0,0,1-2.66875.32612l.00795.004-.01782-.004h.00987a2.22285,2.22285,0,0,0-1.00626.02c-.36583.21677-.58066,1.60281-.89681,3.848a18.48607,18.48607,0,0,1-.41165,2.37439,8.95661,8.95661,0,0,1-1.937,2.92125c-.25455.30036-.529.61049-.77351.92277-.06761.08553-.13328.14916-.19091.21677a1.46027,1.46027,0,0,0-.356.48516l-.04979.11342.10151.07555a2.63,2.63,0,0,1,1.23688,2.63687l-.01395.0895.07759.05773a1.643,1.643,0,0,1,.59654,1.02612c.0557.18887.11536.40371.2069.63636a4.242,4.242,0,0,0,2.83969,2.10589,3.40034,3.40034,0,0,0,1.60882.04572,1.67388,1.67388,0,0,0,.72983-.35993l.16311-.1292-.16708-.1174a5.65584,5.65584,0,0,0-1.82559-.63636c-1.36812-.31614-2.65276-.61243-2.43609-2.00051a.95072.95072,0,0,1,.24864-.63239c.40768-.3699,2.4539.09551,3.43828.32215.28244.05967.523.11933.7.14916a13.48094,13.48094,0,0,0,1.61483.11934c1.38808.04775,3.10421.10538,3.53175.84518a1.33327,1.33327,0,0,1-.167,1.26672,2.77182,2.77182,0,0,1-1.43776,1.25877,3.58921,3.58921,0,0,1-1.66655-.11333c-.22074-.04775-.42153-.09143-.62638-.11933l-.10141-.01395-.04969.08553c-.879,1.4955-2.00255,1.55313-3.68692,1.64466-.53892.02983-1.16336.06761-1.81958.159a9.472,9.472,0,0,0-1.34032.29832,6.91955,6.91955,0,0,1-3.07846.32613,13.11661,13.11661,0,0,1-2.51958-.79347,14.24674,14.24674,0,0,0-2.12982-.696,4.22791,4.22791,0,0,0-2.20139.28437c-.23469.07362-.44749.14713-.65225.19692-.5548.1292-1.15145.22868-1.72815.336-.344.06363-1.11755.11138-1.85135.17706A20.017,20.017,0,1,0,176.0213,50.82087Z" fill="#686166"/><path d="M180.85173,76.73263a13.48094,13.48094,0,0,1-1.61483-.11934c-.177-.02983-.41755-.08949-.7-.14916-.98438-.22664-3.0306-.692-3.43828-.32215a.95072.95072,0,0,0-.24864.63239c-.21667,1.38808,1.068,1.68437,2.43609,2.00051a5.65584,5.65584,0,0,1,1.82559.63636l.16708.1174-.16311.1292a1.67388,1.67388,0,0,1-.72983.35993,3.40034,3.40034,0,0,1-1.60882-.04572,4.242,4.242,0,0,1-2.83969-2.10589c-.09154-.23265-.1512-.44749-.2069-.63636a1.643,1.643,0,0,0-.59654-1.02612l-.07759-.05773.01395-.0895a2.63,2.63,0,0,0-1.23688-2.63687l-.10151-.07555.04979-.11342a1.46027,1.46027,0,0,1,.356-.48516c.05763-.06761.1233-.13124.19091-.21677.24456-.31228.519-.62241.77351-.92277a8.95661,8.95661,0,0,0,1.937-2.92125,18.48607,18.48607,0,0,0,.41165-2.37439c.31615-2.24518.531-3.63122.89681-3.848a2.22285,2.22285,0,0,1,1.00626-.02,7.00278,7.00278,0,0,0,2.66875-.32612,1.42346,1.42346,0,0,0,.30229-.22074,1.27263,1.27263,0,0,1,.48924-.31217,1.30731,1.30731,0,0,1,.8968.21677,1.95062,1.95062,0,0,0,.41165.163c1.575.29833,3.70677.09948,4.5599-.865A1.06807,1.06807,0,0,0,186.911,59.895c-.21473-.33406-1.09168-.46938-1.67439-.55684-.11933-.01985-.23468-.0338-.33406-.05172a7.575,7.575,0,0,1-1.89319-.6721,5.86673,5.86673,0,0,0-3.44225-.716c-.364.04185-.76567.12137-1.1932.20292-.44545.08543-.9128.17492-1.35428.22471-.41765.05366-.80741.08543-1.18526.12524-1.7818.16708-3.07041.28835-4.14825,1.28066a8.89679,8.89679,0,0,0-1.038,1.217,7.69773,7.69773,0,0,1-1.32638,1.47962,14.33723,14.33723,0,0,1-1.43186.90679,9.2042,9.2042,0,0,0-1.67642,1.09973,7.95505,7.95505,0,0,0-.9744,1.34226,5.15289,5.15289,0,0,1-.9188,1.21906,1.83257,1.83257,0,0,1-.64624.179,1.89361,1.89361,0,0,0-.39973.07555,4.18818,4.18818,0,0,0-.523.21677,2.58267,2.58267,0,0,1-1.85532.26839c-.13328-.02178-.25454-.0397-.368-.04968a14.72307,14.72307,0,0,0-3.07234.19294c-.13929.01986-.714.03778-1.24289.05172a21.68873,21.68873,0,0,0-.20883,2.91331,19.90857,19.90857,0,0,0,3.323,11.03092c.7338-.06568,1.50731-.11343,1.85135-.17706.5767-.10732,1.17335-.2068,1.72815-.336.20476-.04979.41756-.1233.65225-.19692a4.22791,4.22791,0,0,1,2.20139-.28437,14.24674,14.24674,0,0,1,2.12982.696,13.11661,13.11661,0,0,0,2.51958.79347,6.91955,6.91955,0,0,0,3.07846-.32613,9.472,9.472,0,0,1,1.34032-.29832c.65622-.09143,1.28066-.12921,1.81958-.159,1.68437-.09153,2.80793-.14916,3.68692-1.64466l.04969-.08553.10141.01395c.20485.0279.40564.07158.62638.11933a3.58921,3.58921,0,0,0,1.66655.11333,2.77182,2.77182,0,0,0,1.43776-1.25877,1.33327,1.33327,0,0,0,.167-1.26672C183.95594,76.838,182.23981,76.78038,180.85173,76.73263Z" fill="#d9d9d9"/><polygon points="177.362 62.446 177.354 62.442 177.344 62.442 177.362 62.446" fill="#d9d9d9"/><path d="M184.69371,62.74666a2.52874,2.52874,0,0,0-.88886.24253,3.30742,3.30742,0,0,1-.72586.23672,16.03935,16.03935,0,0,1-1.70229.13919c-.49514.02382-.9525.04174-1.37617.09937l-.1233.014a9.5572,9.5572,0,0,0-2.66273.59258,1.39812,1.39812,0,0,0-.7338.94863,1.23389,1.23389,0,0,0,.25658,1.07387c.28234.346.47722.37581.9804.46735.09337.01781.20873.0338.32806.0616a5.75889,5.75889,0,0,1,.59665.15313,6.14612,6.14612,0,0,0,1.02215.22471,14.2192,14.2192,0,0,0,4.30535-.354c.42356-.08145.82523-.159,1.221-.22074a3.496,3.496,0,0,1,.44739-.03971,1.40436,1.40436,0,0,0,.65234-.12931,1.49781,1.49781,0,0,0,.696-1.06786,2.24116,2.24116,0,0,0-.49321-1.72815A2.01353,2.01353,0,0,0,184.69371,62.74666Z" fill="#d9d9d9"/><path d="M187.65477,68.74829c-.25454-.92674-1.20511-1.34429-2.60907-1.15542a2.47164,2.47164,0,0,0-.53689.16107,2.68023,2.68023,0,0,1-.517.173,19.539,19.539,0,0,1-4.9915.09754c-.159-.01395-.33009-.03981-.49117-.05966-1.01217-.14326-1.96671-.26849-2.59115.39373-.40575.4315-.537.8014-.40575,1.13547.22868.59257,1.54325,1.6526,7.74374,2.1179l.25261.01986a6.88784,6.88784,0,0,0,2.607-.10538A2.52914,2.52914,0,0,0,187.65477,68.74829Z" fill="#d9d9d9"/><path d="M184.30192,72.72946l.08156-.02382c-.05366-.004-.44149,0-.74969.01395-.5548.00987-.95851.02586-1.07784.00987-.55287-.05559-1.12356-.10538-1.73609-.159-1.048-.07952-2.1397-.16708-3.21163-.32418a3.748,3.748,0,0,1-.64227-.165,3.03567,3.03567,0,0,0-1.38013-.167,1.30951,1.30951,0,0,0-1.054,1.042,1.35471,1.35471,0,0,0,.44749,1.46159c.96248.69206,4.05875,1.30663,5.83466,1.46363a5.6543,5.6543,0,0,0,.9804-.01782,3.7824,3.7824,0,0,1,1.14738.01782,2.43474,2.43474,0,0,1,.5489.21086,1.71614,1.71614,0,0,0,1.17131.22268,2.34431,2.34431,0,0,0,1.48541-1.13944,1.38518,1.38518,0,0,0,.20293-1.47758A2.31022,2.31022,0,0,0,184.30192,72.72946Z" fill="#d9d9d9"/><path d="M152.07522,88.70162h47.89385a5.23249,5.23249,0,0,1,5.23249,5.23249V104.49a5.2301,5.2301,0,0,1-5.2301,5.2301H152.07522a5.2301,5.2301,0,0,1-5.2301-5.2301V93.93173A5.2301,5.2301,0,0,1,152.07522,88.70162Z" fill="#d9d9d9" stroke="#595959" stroke-miterlimit="10"/><path d="M173.39014,93.35791h7.89062v2.07422h-5.42285v2.59375h4.69922v1.917h-4.69922v4.63672h-2.46777Z" fill="#252525"/></g><path d="M87.8604,209.59188c-2.74025,19.01392-4.64,34.42824-4.64,41.26393l.00579.71253A17.04511,17.04511,0,0,0,95.69989,267.4642a16.977,16.977,0,0,0,20.82421-11.85962l14.57951-52.30918M72.36443,225.35492V80.77475a17.35741,17.35741,0,0,1,17.33686-17.3383,16.957,16.957,0,0,1,17.33685,17.3383c0,3.98932-1.93,17.51961-4.7138,35.54618" fill="none" stroke="#a4459f" stroke-linecap="square" stroke-dasharray="3 4"/><path d="M84.437,423.76611h6.94238v1.71582H86.478v1.98926h4.49853v1.58594H86.478v2.2749H91.4834v1.71631H84.437Z" fill="#ff3301"/><path d="M102.76758,429.07031H96.20215V427.6792h6.56543Zm0,2.78223H96.20215v-1.39111h6.56543Z"/><path d="M107.88867,423.76611H114.415v1.71582h-4.48535v2.145h3.8872v1.58643h-3.8872v3.835h-2.041Z" fill="#982e93"/><path d="M122.9165,429.07031h2.58741v1.39112H122.9165v2.58691h-1.39111v-2.58691h-2.58691v-1.39112h2.58691v-2.5874h1.39111Z"/><path d="M130.20947,427.44531c-.06494-2.08008,1.11817-3.6792,3.30225-3.6792a2.8969,2.8969,0,0,1,3.12012,2.84717c0,2.75586-2.9253,2.97705-4.251,4.84912h4.30273v1.58594h-6.68213c0-2.11914,1.3003-2.99023,2.873-4.06934.793-.55908,1.91113-1.105,1.91113-2.22314a1.30688,1.30688,0,0,0-1.36474-1.40381c-1.09229,0-1.44336,1.13086-1.44336,2.09326Z" fill="#982e93"/><path d="M137.85352,423.76611h6.52636v1.71582h-4.48535v2.145h3.88721v1.58643h-3.88721v3.835h-2.041Z" fill="#982e93"/><path d="M155.46875,429.07031h-6.56543V427.6792h6.56543Zm0,2.78223h-6.56543v-1.39111h6.56543Z"/><path d="M162.65723,427.627c.79345.06543,1.9375-.09082,1.9375-1.13086a1.201,1.201,0,0,0-1.28711-1.209c-.936,0-1.417.689-1.4043,1.625h-1.75488a3.01664,3.01664,0,0,1,3.146-3.146c1.45606,0,3.05518.897,3.05518,2.522a1.80906,1.80906,0,0,1-1.27393,1.85888v.02637a2.0229,2.0229,0,0,1,1.61182,2.06689,3.39253,3.39253,0,0,1-6.76025-.32519h1.75537c.03906.98828.53271,1.79443,1.59863,1.79443a1.4,1.4,0,0,0,1.48242-1.43017c0-1.37793-1.209-1.352-2.10644-1.352Z" fill="#982e93"/><path d="M167.81836,423.76611h6.52637v1.71582h-4.48535v2.145h3.8872v1.58643h-3.8872v3.835h-2.041Z" fill="#982e93"/><polygon points="69.113 436.46 69.13 419.869 63.133 419.863 73.341 409.681 83.525 419.883 77.53 419.877 77.514 436.468 69.113 436.46" fill="#ff3301"/><path d="M73.33974,410.52917l8.73757,8.7526-5.147-.00507-.01641,16.59046-7.2-.007.01641-16.59051-5.14739-.00506,8.75684-8.73538m.00177-1.69673-.84926.84716L63.7354,418.415l-2.05174,2.04671,2.89806.00286,3.94738.00388-.01522,15.3905-.00119,1.2,1.2.00118,7.2.007,1.2.00117.00119-1.2.01522-15.39047,3.947.00389,2.89756.00285L82.92657,418.434l-8.73757-8.7526-.84749-.84893Z" fill="#fff"/><path d="M84.12207,330.72314c-.06543.793.09082,1.9375,1.13184,1.93653a1.20256,1.20256,0,0,0,1.208-1.28809c-.001-.93652-.68945-1.416-1.626-1.40332v-1.75488a3.01721,3.01721,0,0,1,3.14746,3.14453c0,1.45508-.89551,3.05469-2.52051,3.05566a1.80855,1.80855,0,0,1-1.85937-1.27343l-.02637.001a2.02347,2.02347,0,0,1-2.06738,1.61231,3.39231,3.39231,0,0,1,.32226-6.75977l.00195,1.75489c-.98925.03906-1.79492.53515-1.79394,1.5996a1.39958,1.39958,0,0,0,1.42969,1.48243c1.37988-.002,1.35254-1.21094,1.35254-2.10743Z" fill="#982e93"/><path d="M87.98242,335.936l-.05078,6.52929-1.7168-.01269.03418-4.48731-2.14648-.0166-.02832,3.88965-1.58692-.0127.0293-3.88964-3.83691-.02833.01562-2.043Z" fill="#982e93"/><path d="M89.84033,286.644c-1.88086-.89355-2.76172-2.67578-1.76367-4.61914a2.89736,2.89736,0,0,1,3.958-1.47461c2.45215,1.26075,1.31054,3.96387,2.37012,5.998l1.96777-3.82617,1.41015.72461L94.728,289.39014c-1.88477-.96875-2.06543-2.52246-2.30615-4.416-.13428-.96-.10889-2.20508-1.103-2.71582a1.30688,1.30688,0,0,0-1.873.57324c-.499.96973.34668,1.79981,1.20215,2.24024Z" fill="#982e93"/><path d="M90.08936,278.1167l3.03222-5.7832,1.51953.79687-2.082,3.97363,1.90039.99707,1.80567-3.44433,1.40527.7373-1.80566,3.44434,3.39648,1.78125-.94678,1.80957Z" fill="#982e93"/><path d="M55.30127,252.51221l-.082-6.52735,1.71582-.02246.05762,4.48633,2.1455-.02734-.0498-3.88868,1.585-.01953.05078,3.88672,3.834-.04785.02734,2.042Z" fill="#982e93"/><path d="M81.36865,149.19092l1.25049-6.40723,1.68506.32813-.85938,4.40332,2.10547.41015.74414-3.81543,1.55664.30371-.74414,3.81543,3.76416.73438L90.48,150.96826Z" fill="#982e93"/><path d="M120.76025,183.75146l1.74952-6.28906,1.6538.46-1.20117,4.32227,2.06641.57422,1.041-3.74512,1.52832.42481-1.041,3.74511L130.252,184.271l-.54736,1.96777Z" fill="#982e93"/><line x1="131.10361" y1="203.2954" x2="142.07058" y2="163.94752" fill="none" stroke="#a4459f" stroke-linecap="square"/><path d="M102.32434,116.32093c-1.41925,9.1906-11.7237,74.257-14.46394,93.271" fill="none" stroke="#a4459f" stroke-linecap="square"/><line x1="72.36443" y1="276.13927" x2="72.36443" y2="225.35492" fill="none" stroke="#a4459f" stroke-linecap="square"/><line x1="72.36443" y1="357.66148" x2="72.36443" y2="313.95213" fill="none" stroke="#a4459f" stroke-linecap="square" stroke-width="3"/><line x1="89.22925" y1="268.69143" x2="83.08193" y2="277.77085" fill="none" stroke="#a4459f" stroke-linecap="square" stroke-width="2"/></g></g></svg>